G75*
G70*
%OFA0B0*%
%FSLAX24Y24*%
%IPPOS*%
%LPD*%
%AMOC8*
5,1,8,0,0,1.08239X$1,22.5*
%
%ADD10C,0.0060*%
%ADD11R,0.0500X0.0220*%
%ADD12R,0.0220X0.0500*%
%ADD13C,0.0555*%
%ADD14R,0.0472X0.0217*%
%ADD15R,0.0354X0.0276*%
%ADD16R,0.0276X0.0354*%
%ADD17R,0.0394X0.1811*%
%ADD18R,0.0630X0.1339*%
%ADD19R,0.0315X0.0315*%
%ADD20R,0.0591X0.0512*%
%ADD21R,0.0394X0.0709*%
%ADD22R,0.0472X0.0197*%
%ADD23R,0.0197X0.0472*%
%ADD24R,0.0669X0.0276*%
%ADD25R,0.0390X0.0320*%
%ADD26R,0.0280X0.0590*%
%ADD27OC8,0.0640*%
%ADD28C,0.0100*%
%ADD29C,0.0080*%
%ADD30C,0.0436*%
D10*
X000787Y009179D02*
X000787Y009406D01*
X000787Y009293D02*
X001127Y009293D01*
X001014Y009406D01*
X000787Y009547D02*
X000787Y009774D01*
X000787Y009661D02*
X001127Y009661D01*
X001014Y009774D01*
X001071Y009916D02*
X000844Y010143D01*
X000787Y010086D01*
X000787Y009972D01*
X000844Y009916D01*
X001071Y009916D01*
X001127Y009972D01*
X001127Y010086D01*
X001071Y010143D01*
X000844Y010143D01*
X000787Y010284D02*
X000787Y010511D01*
X001014Y010284D01*
X001071Y010284D01*
X001127Y010341D01*
X001127Y010454D01*
X001071Y010511D01*
X001127Y010652D02*
X000787Y010879D01*
X000787Y011021D02*
X000787Y011248D01*
X000787Y011134D02*
X001127Y011134D01*
X001014Y011248D01*
X001071Y011389D02*
X000844Y011616D01*
X000787Y011559D01*
X000787Y011446D01*
X000844Y011389D01*
X001071Y011389D01*
X001127Y011446D01*
X001127Y011559D01*
X001071Y011616D01*
X000844Y011616D01*
D11*
X003549Y006562D03*
X003549Y006247D03*
X003549Y005932D03*
X003549Y005617D03*
X003549Y005303D03*
X003549Y004988D03*
X003549Y004673D03*
X003549Y004358D03*
X006929Y004358D03*
X006929Y004673D03*
X006929Y004988D03*
X006929Y005303D03*
X006929Y005617D03*
X006929Y005932D03*
X006929Y006247D03*
X006929Y006562D03*
D12*
X006341Y007150D03*
X006026Y007150D03*
X005711Y007150D03*
X005396Y007150D03*
X005081Y007150D03*
X004766Y007150D03*
X004451Y007150D03*
X004136Y007150D03*
X004136Y003770D03*
X004451Y003770D03*
X004766Y003770D03*
X005081Y003770D03*
X005396Y003770D03*
X005711Y003770D03*
X006026Y003770D03*
X006341Y003770D03*
D13*
X010396Y003980D03*
X010396Y004767D03*
X010396Y005554D03*
X010396Y006342D03*
X010396Y007129D03*
X010396Y007917D03*
X010396Y008704D03*
X010396Y009491D03*
X010396Y010279D03*
X010396Y011066D03*
X001735Y011066D03*
X001735Y010279D03*
X001735Y009491D03*
X001735Y008704D03*
X001735Y007917D03*
X001735Y007129D03*
X001735Y006342D03*
X001735Y005554D03*
X001735Y004767D03*
X001735Y003980D03*
D14*
X006393Y009068D03*
X006393Y009442D03*
X006393Y009816D03*
X007417Y009816D03*
X007417Y009068D03*
D15*
X008055Y010836D03*
X008055Y011348D03*
X008705Y011348D03*
X008705Y010836D03*
X009505Y008798D03*
X009505Y008286D03*
X007837Y005519D03*
X007837Y005007D03*
X002740Y005585D03*
X002740Y006097D03*
D16*
X002549Y003042D03*
X003061Y003042D03*
X005749Y007842D03*
X005749Y008342D03*
X006261Y008342D03*
X006261Y007842D03*
X008533Y005199D03*
X009045Y005199D03*
X008883Y003880D03*
X009395Y003880D03*
D17*
X004598Y010685D03*
X003811Y010685D03*
D18*
X002866Y012732D03*
X005543Y012732D03*
D19*
X010109Y012692D03*
X010109Y013242D03*
X010700Y013242D03*
X010700Y012692D03*
X010700Y012132D03*
X010109Y012132D03*
X001205Y003537D03*
X001205Y002947D03*
D20*
X005505Y009068D03*
X005505Y009816D03*
X008205Y009816D03*
X008205Y009068D03*
D21*
X007356Y010742D03*
X006254Y010742D03*
D22*
X008556Y007573D03*
X008556Y007258D03*
X008556Y006943D03*
X008556Y006629D03*
X008556Y006314D03*
X008556Y005999D03*
X009422Y005999D03*
X009422Y006314D03*
X009422Y006629D03*
X009422Y006943D03*
X009422Y007258D03*
X009422Y007573D03*
D23*
X008989Y007613D03*
X008989Y005959D03*
D24*
X002758Y004648D03*
X002758Y004176D03*
X002758Y003703D03*
D25*
X006318Y012378D03*
X006318Y013248D03*
X009188Y013248D03*
X009188Y012378D03*
D26*
X008633Y012128D03*
X007453Y012128D03*
X006863Y012128D03*
D27*
X004105Y009042D03*
X004105Y008042D03*
X005105Y008042D03*
X003105Y008042D03*
X003105Y009042D03*
X007105Y003042D03*
X007105Y002042D03*
X007105Y001042D03*
X008105Y001042D03*
X008105Y002042D03*
X009105Y002042D03*
X009105Y001042D03*
X010105Y001042D03*
X010105Y002042D03*
X010105Y003042D03*
X008105Y004042D03*
X006105Y002042D03*
X006105Y001042D03*
X005105Y001042D03*
X005105Y002042D03*
X004105Y002042D03*
X004105Y001042D03*
X003105Y001042D03*
X003105Y002042D03*
X002105Y002042D03*
X002105Y001042D03*
X001105Y001042D03*
X001105Y002042D03*
D28*
X000805Y002542D02*
X001605Y002542D01*
X001605Y001542D01*
X001105Y001042D01*
X002105Y001042D02*
X002605Y001542D01*
X002605Y002642D01*
X003405Y002642D01*
X003905Y003142D01*
X003905Y004142D01*
X004755Y004992D01*
X005005Y004992D01*
X005455Y004542D01*
X005805Y004542D01*
X005955Y004692D01*
X006909Y004692D01*
X006929Y004673D01*
X006929Y004988D02*
X007359Y004988D01*
X007655Y004692D01*
X007655Y002592D01*
X007105Y002042D01*
X007105Y003042D02*
X007105Y003342D01*
X006705Y003742D01*
X006705Y003942D01*
X006405Y004242D01*
X006026Y004242D01*
X006026Y003770D01*
X006026Y002121D01*
X006105Y002042D01*
X005711Y002448D02*
X005605Y002342D01*
X005605Y001542D01*
X006105Y001042D01*
X006605Y000792D02*
X006905Y000492D01*
X010405Y000492D01*
X010855Y000942D01*
X010855Y004292D01*
X010396Y004751D01*
X010396Y004767D01*
X009905Y004842D02*
X009755Y004842D01*
X009905Y004842D02*
X009905Y003842D01*
X009955Y003842D01*
X010605Y003192D01*
X010605Y002342D01*
X010305Y002042D01*
X010105Y002042D01*
X009605Y001542D02*
X009605Y003342D01*
X009555Y003392D01*
X009395Y003880D02*
X009395Y005132D01*
X009655Y005392D01*
X009655Y005542D01*
X009155Y005542D01*
X009005Y005692D01*
X009005Y005944D01*
X008989Y005959D01*
X008805Y006342D02*
X008855Y006392D01*
X009155Y006392D01*
X009205Y006342D01*
X009394Y006342D01*
X009422Y006314D01*
X009459Y006592D02*
X009422Y006629D01*
X009459Y006592D02*
X009705Y006592D01*
X009805Y006692D01*
X009805Y007392D01*
X009623Y007573D01*
X009422Y007573D01*
X009383Y007613D02*
X008989Y007613D01*
X009005Y007628D01*
X009005Y008242D01*
X006705Y008242D01*
X006605Y008342D01*
X006261Y008342D01*
X005931Y008642D02*
X005505Y009068D01*
X005731Y009068D01*
X006055Y009392D01*
X006343Y009392D01*
X006393Y009442D01*
X006393Y009068D02*
X006681Y009068D01*
X006805Y009192D01*
X006805Y009692D01*
X006705Y009792D01*
X006417Y009792D01*
X006393Y009816D01*
X006393Y010603D01*
X006254Y010742D01*
X006254Y010565D01*
X005505Y009816D01*
X005255Y010842D02*
X004755Y010842D01*
X004598Y010685D01*
X004605Y009542D02*
X003105Y009542D01*
X003105Y009042D01*
X001868Y010279D01*
X001735Y010279D01*
X001735Y011066D02*
X003105Y011066D01*
X001705Y009442D02*
X000805Y008542D01*
X000805Y002542D01*
X001205Y002942D02*
X001305Y002842D01*
X002305Y002842D01*
X002505Y003042D01*
X002105Y003242D02*
X001735Y003242D01*
X001735Y003980D01*
X001931Y004176D01*
X002758Y004176D01*
X002758Y004648D02*
X002783Y004673D01*
X003549Y004673D01*
X003549Y004988D02*
X003544Y004992D01*
X002905Y004992D01*
X002755Y005142D01*
X002755Y005571D01*
X002740Y005585D01*
X003516Y005585D01*
X003549Y005617D01*
X003549Y005303D02*
X003915Y005303D01*
X004005Y005392D01*
X004005Y005642D01*
X004505Y005642D01*
X005005Y005642D01*
X005705Y004942D01*
X006105Y004942D01*
X006305Y005142D01*
X006305Y005542D01*
X006380Y005617D01*
X006929Y005617D01*
X007325Y005617D01*
X007424Y005519D01*
X007837Y005519D01*
X007655Y005992D02*
X007405Y006242D01*
X006934Y006242D01*
X006929Y006247D01*
X006919Y005942D02*
X006305Y005942D01*
X005905Y005542D01*
X005905Y005292D01*
X005505Y005642D02*
X005505Y006242D01*
X006026Y006763D01*
X006026Y007150D01*
X005711Y007150D02*
X005705Y007156D01*
X005705Y007442D01*
X005805Y007542D01*
X007105Y007542D01*
X007405Y007242D01*
X007405Y006742D01*
X008148Y005999D01*
X008556Y005999D01*
X008555Y005997D01*
X008555Y005221D01*
X008533Y005199D01*
X008605Y005128D01*
X008605Y003342D01*
X008105Y002842D01*
X008105Y002042D01*
X008605Y001542D02*
X008605Y003090D01*
X009395Y003880D01*
X008883Y003880D02*
X008883Y004271D01*
X009005Y004392D01*
X009055Y004442D01*
X009055Y005190D01*
X009045Y005199D01*
X009422Y005999D02*
X009711Y005999D01*
X009805Y006092D01*
X009805Y006492D01*
X009705Y006592D01*
X009422Y006943D02*
X008556Y006943D01*
X008303Y006943D01*
X008005Y007242D01*
X008005Y007842D02*
X006261Y007842D01*
X005749Y007842D02*
X005305Y007842D01*
X005105Y008042D01*
X005405Y008342D01*
X005749Y008342D01*
X005931Y008642D02*
X007605Y008642D01*
X008031Y009068D01*
X008205Y009068D01*
X008205Y009816D02*
X008681Y009816D01*
X009005Y009492D01*
X009005Y008242D01*
X009505Y008242D02*
X009905Y007842D01*
X009905Y007621D01*
X010396Y007129D01*
X009505Y008242D02*
X009505Y008286D01*
X009511Y008798D02*
X009905Y009192D01*
X009905Y011142D01*
X010105Y011342D01*
X010105Y012127D01*
X010109Y012132D01*
X010109Y012692D02*
X008765Y011348D01*
X008705Y011348D01*
X008705Y010836D02*
X008705Y010542D01*
X008205Y010042D01*
X008205Y009816D01*
X007417Y009816D01*
X008005Y010392D02*
X008055Y010442D01*
X008055Y010836D01*
X008055Y011348D02*
X008055Y011592D01*
X007905Y011742D01*
X007905Y012992D01*
X008155Y013242D01*
X008555Y013242D01*
X008955Y012842D01*
X009605Y012842D01*
X010005Y013242D01*
X010109Y013242D01*
X010109Y012692D02*
X010105Y012692D01*
X010700Y012692D02*
X010700Y012132D01*
X010700Y011647D01*
X010705Y011642D01*
X010700Y012692D02*
X010700Y013242D01*
X007453Y012128D02*
X007453Y011590D01*
X007405Y011542D01*
X006863Y011235D02*
X007356Y010742D01*
X006863Y011235D02*
X006863Y012128D01*
X004605Y009542D02*
X004605Y007742D01*
X004766Y007580D01*
X004766Y007150D01*
X004451Y007150D02*
X004451Y007542D01*
X003105Y007542D01*
X003105Y008042D01*
X001735Y009412D01*
X002705Y007142D02*
X004128Y007142D01*
X004136Y007150D01*
X003549Y006562D02*
X003528Y006542D01*
X002655Y006542D01*
X002740Y006097D02*
X002950Y006097D01*
X003105Y005942D01*
X003539Y005942D01*
X003549Y005932D01*
X003914Y005932D01*
X004005Y005842D01*
X004005Y005642D01*
X004155Y006192D02*
X003604Y006192D01*
X003549Y006247D01*
X002705Y007142D02*
X002205Y006642D01*
X002205Y005242D01*
X001735Y004772D01*
X001735Y004767D01*
X001705Y003942D02*
X001405Y003642D01*
X001205Y003642D01*
X002758Y003703D02*
X002770Y003692D01*
X003105Y003692D01*
X003549Y004136D01*
X003549Y004358D01*
X004136Y003770D02*
X004136Y003073D01*
X003105Y002042D01*
X003605Y002242D02*
X003605Y001542D01*
X004105Y001042D01*
X004605Y001542D02*
X005105Y001042D01*
X004605Y001542D02*
X004605Y002242D01*
X005081Y002718D01*
X005081Y003770D01*
X004766Y003770D02*
X004766Y002703D01*
X004105Y002042D01*
X003605Y002242D02*
X004451Y003088D01*
X004451Y003770D01*
X003555Y003342D02*
X003555Y003242D01*
X003305Y003242D01*
X003105Y003042D01*
X005105Y002042D02*
X005396Y002333D01*
X005396Y003770D01*
X005711Y003770D02*
X005711Y002448D01*
X006341Y003306D02*
X006605Y003042D01*
X006605Y000792D01*
X008105Y001042D02*
X008605Y001542D01*
X009105Y002042D02*
X009105Y003042D01*
X009605Y001542D02*
X010105Y001042D01*
X007255Y003942D02*
X006929Y004268D01*
X006929Y004358D01*
X006341Y003770D02*
X006341Y003306D01*
X007620Y005007D02*
X007325Y005303D01*
X006929Y005303D01*
X006929Y005932D02*
X006919Y005942D01*
X006929Y006562D02*
X006905Y006586D01*
X006905Y007042D01*
X006341Y007150D02*
X006341Y006528D01*
X005855Y006042D01*
X005396Y006683D02*
X005205Y006492D01*
X005396Y006683D02*
X005396Y007150D01*
X005081Y007150D02*
X005081Y008018D01*
X005105Y008042D01*
X007620Y005007D02*
X007837Y005007D01*
X008556Y006314D02*
X008726Y006314D01*
X008755Y006342D01*
X008805Y006342D01*
X008556Y006314D02*
X008556Y006629D01*
X008556Y006943D01*
X009505Y008798D02*
X009511Y008798D01*
D29*
X006809Y000362D02*
X000725Y000362D01*
X000725Y000814D01*
X000927Y000612D01*
X001283Y000612D01*
X001535Y000864D01*
X001535Y001220D01*
X001522Y001233D01*
X001765Y001476D01*
X001765Y001608D01*
X001765Y001731D01*
X001914Y001582D01*
X002065Y001582D01*
X002065Y002002D01*
X002145Y002002D01*
X002145Y001582D01*
X002295Y001582D01*
X002445Y001731D01*
X002445Y001608D01*
X002296Y001459D01*
X002283Y001472D01*
X001927Y001472D01*
X001675Y001220D01*
X001675Y000864D01*
X001927Y000612D01*
X002283Y000612D01*
X002535Y000864D01*
X002535Y001220D01*
X002522Y001233D01*
X002765Y001476D01*
X002765Y001608D01*
X002765Y001774D01*
X002927Y001612D01*
X003283Y001612D01*
X003445Y001774D01*
X003445Y001608D01*
X003445Y001476D01*
X003688Y001233D01*
X003675Y001220D01*
X003675Y000864D01*
X003927Y000612D01*
X004283Y000612D01*
X004535Y000864D01*
X004535Y001220D01*
X004283Y001472D01*
X003927Y001472D01*
X003914Y001459D01*
X003765Y001608D01*
X003765Y001774D01*
X003927Y001612D01*
X004283Y001612D01*
X004445Y001774D01*
X004445Y001608D01*
X004445Y001476D01*
X004688Y001233D01*
X004675Y001220D01*
X004675Y000864D01*
X004927Y000612D01*
X005283Y000612D01*
X005535Y000864D01*
X005535Y001220D01*
X005283Y001472D01*
X004927Y001472D01*
X004914Y001459D01*
X004765Y001608D01*
X004765Y001774D01*
X004927Y001612D01*
X005283Y001612D01*
X005445Y001774D01*
X005445Y001608D01*
X005445Y001476D01*
X005688Y001233D01*
X005675Y001220D01*
X005675Y000864D01*
X005927Y000612D01*
X006283Y000612D01*
X006445Y000774D01*
X006445Y000726D01*
X006745Y000426D01*
X006809Y000362D01*
X006771Y000399D02*
X000725Y000399D01*
X000725Y000478D02*
X006693Y000478D01*
X006614Y000556D02*
X000725Y000556D01*
X000725Y000635D02*
X000904Y000635D01*
X000825Y000713D02*
X000725Y000713D01*
X000725Y000792D02*
X000747Y000792D01*
X001306Y000635D02*
X001904Y000635D01*
X001825Y000713D02*
X001384Y000713D01*
X001463Y000792D02*
X001747Y000792D01*
X001675Y000870D02*
X001535Y000870D01*
X001535Y000949D02*
X001675Y000949D01*
X001675Y001027D02*
X001535Y001027D01*
X001535Y001106D02*
X001675Y001106D01*
X001675Y001184D02*
X001535Y001184D01*
X001552Y001263D02*
X001718Y001263D01*
X001796Y001341D02*
X001631Y001341D01*
X001709Y001420D02*
X001875Y001420D01*
X001765Y001499D02*
X002335Y001499D01*
X002414Y001577D02*
X001765Y001577D01*
X001765Y001656D02*
X001840Y001656D01*
X002065Y001656D02*
X002145Y001656D01*
X002145Y001734D02*
X002065Y001734D01*
X002065Y001813D02*
X002145Y001813D01*
X002145Y001891D02*
X002065Y001891D01*
X002065Y001970D02*
X002145Y001970D01*
X002145Y002082D02*
X002065Y002082D01*
X002065Y002502D01*
X001914Y002502D01*
X001765Y002352D01*
X001765Y002608D01*
X001691Y002682D01*
X002371Y002682D01*
X002444Y002755D01*
X002491Y002755D01*
X002445Y002708D01*
X002445Y002576D01*
X002445Y002352D01*
X002295Y002502D01*
X002145Y002502D01*
X002145Y002082D01*
X002145Y002127D02*
X002065Y002127D01*
X002065Y002205D02*
X002145Y002205D01*
X002145Y002284D02*
X002065Y002284D01*
X002065Y002363D02*
X002145Y002363D01*
X002145Y002441D02*
X002065Y002441D01*
X001853Y002441D02*
X001765Y002441D01*
X001765Y002363D02*
X001775Y002363D01*
X001765Y002520D02*
X002445Y002520D01*
X002445Y002598D02*
X001765Y002598D01*
X001696Y002677D02*
X002445Y002677D01*
X002445Y002441D02*
X002356Y002441D01*
X002435Y002363D02*
X002445Y002363D01*
X002779Y002802D02*
X002797Y002819D01*
X002797Y003265D01*
X002732Y003329D01*
X002365Y003329D01*
X002301Y003265D01*
X002301Y003064D01*
X002238Y003002D01*
X001472Y003002D01*
X001472Y003150D01*
X001408Y003214D01*
X001002Y003214D01*
X000965Y003177D01*
X000965Y003266D01*
X000993Y003249D01*
X001029Y003240D01*
X001166Y003240D01*
X001166Y003498D01*
X001243Y003498D01*
X001243Y003240D01*
X001381Y003240D01*
X001416Y003249D01*
X001448Y003268D01*
X001474Y003294D01*
X001493Y003326D01*
X001502Y003361D01*
X001502Y003498D01*
X001244Y003498D01*
X001244Y003576D01*
X001502Y003576D01*
X001502Y003633D01*
X001516Y003623D01*
X001574Y003593D01*
X001637Y003572D01*
X001696Y003563D01*
X001696Y003941D01*
X001773Y003941D01*
X001773Y003563D01*
X001832Y003572D01*
X001895Y003593D01*
X001953Y003623D01*
X002007Y003661D01*
X002053Y003708D01*
X002092Y003761D01*
X002121Y003819D01*
X002142Y003882D01*
X002151Y003941D01*
X001774Y003941D01*
X001774Y004018D01*
X002151Y004018D01*
X002142Y004077D01*
X002121Y004140D01*
X002092Y004198D01*
X002053Y004252D01*
X002007Y004298D01*
X001953Y004337D01*
X001895Y004367D01*
X001832Y004387D01*
X001830Y004387D01*
X001954Y004439D01*
X002063Y004548D01*
X002122Y004690D01*
X002122Y004844D01*
X002096Y004907D01*
X002271Y005082D01*
X002365Y005176D01*
X002365Y006385D01*
X002377Y006356D01*
X002437Y006296D01*
X002433Y006289D01*
X002423Y006253D01*
X002423Y006126D01*
X002711Y006126D01*
X002711Y006068D01*
X002423Y006068D01*
X002423Y005941D01*
X002433Y005905D01*
X002451Y005873D01*
X002477Y005847D01*
X002509Y005829D01*
X002512Y005828D01*
X002453Y005769D01*
X002453Y005402D01*
X002502Y005353D01*
X002477Y005328D01*
X002427Y005207D01*
X002427Y005077D01*
X002477Y004956D01*
X002537Y004896D01*
X002378Y004896D01*
X002314Y004832D01*
X002314Y004465D01*
X002347Y004431D01*
X002338Y004426D01*
X002312Y004399D01*
X002293Y004368D01*
X002284Y004332D01*
X002284Y004205D01*
X002729Y004205D01*
X002729Y004147D01*
X002284Y004147D01*
X002284Y004019D01*
X002293Y003984D01*
X002312Y003952D01*
X002338Y003926D01*
X002347Y003920D01*
X002314Y003887D01*
X002314Y003520D01*
X002378Y003456D01*
X003138Y003456D01*
X003203Y003520D01*
X003203Y003564D01*
X003265Y003626D01*
X003709Y004069D01*
X003709Y004138D01*
X003745Y004138D01*
X003745Y004076D01*
X003745Y003616D01*
X003741Y003620D01*
X003620Y003670D01*
X003489Y003670D01*
X003369Y003620D01*
X003277Y003528D01*
X003227Y003407D01*
X003227Y003390D01*
X003166Y003329D01*
X002877Y003329D01*
X002813Y003265D01*
X002813Y002819D01*
X002830Y002802D01*
X002779Y002802D01*
X002797Y002834D02*
X002813Y002834D01*
X002813Y002912D02*
X002797Y002912D01*
X002797Y002991D02*
X002813Y002991D01*
X002813Y003069D02*
X002797Y003069D01*
X002797Y003148D02*
X002813Y003148D01*
X002813Y003227D02*
X002797Y003227D01*
X002756Y003305D02*
X002853Y003305D01*
X003145Y003462D02*
X003249Y003462D01*
X003220Y003384D02*
X001502Y003384D01*
X001502Y003462D02*
X002371Y003462D01*
X002314Y003541D02*
X001244Y003541D01*
X001243Y003576D02*
X001166Y003576D01*
X001166Y003835D01*
X001029Y003835D01*
X000993Y003825D01*
X000965Y003809D01*
X000965Y008476D01*
X001402Y008913D01*
X001347Y008781D01*
X001347Y008627D01*
X001406Y008485D01*
X001515Y008376D01*
X001658Y008317D01*
X001812Y008317D01*
X001954Y008376D01*
X002063Y008485D01*
X002122Y008627D01*
X002122Y008781D01*
X002110Y008810D01*
X002688Y008233D01*
X002675Y008220D01*
X002675Y007864D01*
X002927Y007612D01*
X002945Y007612D01*
X002945Y007608D01*
X002945Y007476D01*
X003038Y007382D01*
X003916Y007382D01*
X003916Y007302D01*
X002638Y007302D01*
X002545Y007208D01*
X002045Y006708D01*
X002045Y006580D01*
X001954Y006670D01*
X001812Y006729D01*
X001658Y006729D01*
X001515Y006670D01*
X001406Y006561D01*
X001347Y006419D01*
X001347Y006265D01*
X001406Y006122D01*
X001515Y006013D01*
X001658Y005954D01*
X001812Y005954D01*
X001954Y006013D01*
X002045Y006104D01*
X002045Y005792D01*
X001954Y005883D01*
X001812Y005942D01*
X001658Y005942D01*
X001515Y005883D01*
X001406Y005774D01*
X001347Y005632D01*
X001347Y005477D01*
X001406Y005335D01*
X001515Y005226D01*
X001658Y005167D01*
X001812Y005167D01*
X001954Y005226D01*
X002045Y005317D01*
X002045Y005308D01*
X001868Y005131D01*
X001812Y005155D01*
X001658Y005155D01*
X001515Y005096D01*
X001406Y004987D01*
X001347Y004844D01*
X001347Y004690D01*
X001406Y004548D01*
X001515Y004439D01*
X001639Y004387D01*
X001637Y004387D01*
X001574Y004367D01*
X001516Y004337D01*
X001463Y004298D01*
X001416Y004252D01*
X001378Y004198D01*
X001348Y004140D01*
X001327Y004077D01*
X001318Y004018D01*
X001696Y004018D01*
X001696Y003941D01*
X001318Y003941D01*
X001327Y003882D01*
X001343Y003835D01*
X001243Y003835D01*
X001243Y003576D01*
X001243Y003619D02*
X001166Y003619D01*
X001166Y003698D02*
X001243Y003698D01*
X001243Y003776D02*
X001166Y003776D01*
X001336Y003855D02*
X000965Y003855D01*
X000965Y003933D02*
X001319Y003933D01*
X001332Y004091D02*
X000965Y004091D01*
X000965Y004169D02*
X001363Y004169D01*
X001413Y004248D02*
X000965Y004248D01*
X000965Y004326D02*
X001501Y004326D01*
X001597Y004405D02*
X000965Y004405D01*
X000965Y004483D02*
X001471Y004483D01*
X001400Y004562D02*
X000965Y004562D01*
X000965Y004640D02*
X001368Y004640D01*
X001347Y004719D02*
X000965Y004719D01*
X000965Y004797D02*
X001347Y004797D01*
X001360Y004876D02*
X000965Y004876D01*
X000965Y004954D02*
X001393Y004954D01*
X001453Y005033D02*
X000965Y005033D01*
X000965Y005112D02*
X001554Y005112D01*
X001602Y005190D02*
X000965Y005190D01*
X000965Y005269D02*
X001472Y005269D01*
X001401Y005347D02*
X000965Y005347D01*
X000965Y005426D02*
X001369Y005426D01*
X001347Y005504D02*
X000965Y005504D01*
X000965Y005583D02*
X001347Y005583D01*
X001360Y005661D02*
X000965Y005661D01*
X000965Y005740D02*
X001392Y005740D01*
X001451Y005818D02*
X000965Y005818D01*
X000965Y005897D02*
X001549Y005897D01*
X001606Y005976D02*
X000965Y005976D01*
X000965Y006054D02*
X001474Y006054D01*
X001402Y006133D02*
X000965Y006133D01*
X000965Y006211D02*
X001369Y006211D01*
X001347Y006290D02*
X000965Y006290D01*
X000965Y006368D02*
X001347Y006368D01*
X001359Y006447D02*
X000965Y006447D01*
X000965Y006525D02*
X001391Y006525D01*
X001449Y006604D02*
X000965Y006604D01*
X000965Y006682D02*
X001544Y006682D01*
X001611Y006761D02*
X000965Y006761D01*
X000965Y006840D02*
X001476Y006840D01*
X001515Y006801D02*
X001658Y006742D01*
X001812Y006742D01*
X001954Y006801D01*
X002063Y006910D01*
X002122Y007052D01*
X002122Y007206D01*
X002063Y007349D01*
X001954Y007458D01*
X001812Y007517D01*
X001658Y007517D01*
X001515Y007458D01*
X001406Y007349D01*
X001347Y007206D01*
X001347Y007052D01*
X001406Y006910D01*
X001515Y006801D01*
X001403Y006918D02*
X000965Y006918D01*
X000965Y006997D02*
X001370Y006997D01*
X001347Y007075D02*
X000965Y007075D01*
X000965Y007154D02*
X001347Y007154D01*
X001358Y007232D02*
X000965Y007232D01*
X000965Y007311D02*
X001390Y007311D01*
X001447Y007389D02*
X000965Y007389D01*
X000965Y007468D02*
X001540Y007468D01*
X001616Y007546D02*
X000965Y007546D01*
X000965Y007625D02*
X001478Y007625D01*
X001515Y007588D02*
X001658Y007529D01*
X001812Y007529D01*
X001954Y007588D01*
X002063Y007697D01*
X002122Y007840D01*
X002122Y007994D01*
X002063Y008136D01*
X001954Y008245D01*
X001812Y008304D01*
X001658Y008304D01*
X001515Y008245D01*
X001406Y008136D01*
X001347Y007994D01*
X001347Y007840D01*
X001406Y007697D01*
X001515Y007588D01*
X001404Y007704D02*
X000965Y007704D01*
X000965Y007782D02*
X001371Y007782D01*
X001347Y007861D02*
X000965Y007861D01*
X000965Y007939D02*
X001347Y007939D01*
X001357Y008018D02*
X000965Y008018D01*
X000965Y008096D02*
X001390Y008096D01*
X001445Y008175D02*
X000965Y008175D01*
X000965Y008253D02*
X001535Y008253D01*
X001621Y008332D02*
X000965Y008332D01*
X000965Y008410D02*
X001480Y008410D01*
X001404Y008489D02*
X000978Y008489D01*
X001057Y008567D02*
X001372Y008567D01*
X001347Y008646D02*
X001135Y008646D01*
X001214Y008725D02*
X001347Y008725D01*
X001356Y008803D02*
X001292Y008803D01*
X001371Y008882D02*
X001389Y008882D01*
X001154Y009117D02*
X000923Y009117D01*
X000927Y009121D02*
X000927Y009153D01*
X001069Y009153D01*
X001185Y009153D01*
X001267Y009235D01*
X001267Y009351D01*
X001097Y009521D01*
X001185Y009521D01*
X001267Y009603D01*
X001267Y009719D01*
X001185Y009801D01*
X001169Y009817D01*
X001211Y009858D01*
X001267Y009914D01*
X001267Y010028D01*
X001267Y010028D01*
X001267Y010085D01*
X001267Y010144D01*
X001198Y010213D01*
X001267Y010283D01*
X001267Y010396D01*
X001267Y010396D01*
X001267Y010455D01*
X001267Y010512D01*
X001266Y010513D01*
X001228Y010551D01*
X001276Y010623D01*
X001253Y010737D01*
X000922Y010958D01*
X000927Y010963D01*
X000927Y010994D01*
X001185Y010994D01*
X001267Y011076D01*
X001267Y011192D01*
X001185Y011274D01*
X001169Y011290D01*
X001211Y011331D01*
X001267Y011388D01*
X001267Y011501D01*
X001267Y011501D01*
X001267Y011559D01*
X001267Y011617D01*
X001185Y011699D01*
X001129Y011756D01*
X001129Y011756D01*
X001070Y011756D01*
X000902Y011756D01*
X000786Y011756D01*
X000725Y011695D01*
X000725Y013508D01*
X002502Y013508D01*
X002441Y013447D01*
X002441Y012913D01*
X002407Y012995D01*
X002174Y013228D01*
X001870Y013354D01*
X001540Y013354D01*
X001235Y013228D01*
X001002Y012995D01*
X000876Y012690D01*
X000876Y012360D01*
X001002Y012056D01*
X001235Y011823D01*
X001540Y011697D01*
X001870Y011697D01*
X002174Y011823D01*
X002407Y012056D01*
X002441Y012138D01*
X002441Y012018D01*
X002506Y011953D01*
X003227Y011953D01*
X003291Y012018D01*
X003291Y013447D01*
X003231Y013508D01*
X005179Y013508D01*
X005118Y013447D01*
X005118Y012018D01*
X005183Y011953D01*
X005904Y011953D01*
X005968Y012018D01*
X005968Y013447D01*
X005908Y013508D01*
X006067Y013508D01*
X006013Y013453D01*
X006013Y013042D01*
X006077Y012978D01*
X006558Y012978D01*
X006623Y013042D01*
X006623Y013453D01*
X006568Y013508D01*
X008937Y013508D01*
X008883Y013453D01*
X008883Y013140D01*
X008715Y013308D01*
X008621Y013402D01*
X008221Y013402D01*
X008088Y013402D01*
X007838Y013152D01*
X007745Y013058D01*
X007745Y011808D01*
X007745Y011676D01*
X007828Y011592D01*
X007768Y011531D01*
X007768Y011164D01*
X007832Y011100D01*
X008277Y011100D01*
X008342Y011164D01*
X008342Y011531D01*
X008277Y011596D01*
X008215Y011596D01*
X008215Y011658D01*
X008121Y011752D01*
X008065Y011808D01*
X008065Y012713D01*
X008093Y012646D01*
X008176Y012563D01*
X008284Y012518D01*
X008401Y012518D01*
X008510Y012563D01*
X008593Y012646D01*
X008638Y012754D01*
X008638Y012871D01*
X008594Y012976D01*
X008888Y012682D01*
X009021Y012682D01*
X009671Y012682D01*
X009765Y012776D01*
X009842Y012853D01*
X009842Y012651D01*
X009493Y012301D01*
X009493Y012583D01*
X009428Y012648D01*
X008947Y012648D01*
X008883Y012583D01*
X008883Y012172D01*
X008947Y012108D01*
X009299Y012108D01*
X008787Y011596D01*
X008482Y011596D01*
X008418Y011531D01*
X008418Y011164D01*
X008482Y011100D01*
X008927Y011100D01*
X008992Y011164D01*
X008992Y011348D01*
X009842Y012198D01*
X009842Y011929D01*
X009906Y011864D01*
X009945Y011864D01*
X009945Y011408D01*
X009745Y011208D01*
X009745Y011076D01*
X009745Y009258D01*
X009532Y009046D01*
X009282Y009046D01*
X009218Y008981D01*
X009218Y008614D01*
X009282Y008550D01*
X009727Y008550D01*
X009792Y008614D01*
X009792Y008853D01*
X009971Y009032D01*
X010065Y009126D01*
X010065Y009279D01*
X010068Y009272D01*
X010177Y009163D01*
X010319Y009104D01*
X010473Y009104D01*
X010616Y009163D01*
X010725Y009272D01*
X010784Y009414D01*
X010784Y009569D01*
X010725Y009711D01*
X010616Y009820D01*
X010473Y009879D01*
X010319Y009879D01*
X010177Y009820D01*
X010068Y009711D01*
X010065Y009704D01*
X010065Y010066D01*
X010068Y010059D01*
X010177Y009950D01*
X010319Y009891D01*
X010473Y009891D01*
X010616Y009950D01*
X010725Y010059D01*
X010784Y010202D01*
X010784Y010356D01*
X010725Y010498D01*
X010616Y010607D01*
X010473Y010666D01*
X010319Y010666D01*
X010177Y010607D01*
X010068Y010498D01*
X010065Y010491D01*
X010065Y010854D01*
X010068Y010847D01*
X010177Y010738D01*
X010319Y010679D01*
X010473Y010679D01*
X010616Y010738D01*
X010725Y010847D01*
X010784Y010989D01*
X010784Y011143D01*
X010725Y011286D01*
X010616Y011395D01*
X010473Y011454D01*
X010319Y011454D01*
X010265Y011431D01*
X010265Y011864D01*
X010312Y011864D01*
X010377Y011929D01*
X010377Y012335D01*
X010312Y012399D01*
X010043Y012399D01*
X010068Y012424D01*
X010312Y012424D01*
X010377Y012489D01*
X010377Y012895D01*
X010312Y012959D01*
X009948Y012959D01*
X009963Y012974D01*
X010312Y012974D01*
X010377Y013039D01*
X010377Y013445D01*
X010314Y013508D01*
X010453Y013508D01*
X010430Y013485D01*
X010412Y013453D01*
X010403Y013418D01*
X010403Y013281D01*
X010661Y013281D01*
X010661Y013203D01*
X010403Y013203D01*
X010403Y013066D01*
X010412Y013030D01*
X010430Y012998D01*
X010457Y012972D01*
X010466Y012967D01*
X010457Y012961D01*
X010430Y012935D01*
X010412Y012903D01*
X010403Y012868D01*
X010403Y012731D01*
X010661Y012731D01*
X010661Y012944D01*
X010661Y013203D01*
X010739Y013203D01*
X010739Y012944D01*
X010739Y012731D01*
X010661Y012731D01*
X010661Y012653D01*
X010403Y012653D01*
X010403Y012516D01*
X010412Y012480D01*
X010430Y012448D01*
X010457Y012422D01*
X010475Y012412D01*
X010457Y012401D01*
X010430Y012375D01*
X010412Y012343D01*
X010403Y012308D01*
X010403Y012171D01*
X010661Y012171D01*
X010661Y012429D01*
X010661Y012653D01*
X010739Y012653D01*
X010739Y012429D01*
X010739Y012171D01*
X010661Y012171D01*
X010661Y012093D01*
X010403Y012093D01*
X010403Y011956D01*
X010412Y011920D01*
X010430Y011888D01*
X010457Y011862D01*
X010488Y011844D01*
X010524Y011834D01*
X010661Y011834D01*
X010661Y012093D01*
X010739Y012093D01*
X010739Y011834D01*
X010876Y011834D01*
X010911Y011844D01*
X010918Y011848D01*
X010918Y004455D01*
X010754Y004619D01*
X010784Y004690D01*
X010784Y004844D01*
X010725Y004987D01*
X010616Y005096D01*
X010473Y005155D01*
X010319Y005155D01*
X010177Y005096D01*
X010068Y004987D01*
X010059Y004965D01*
X010033Y005028D01*
X009941Y005120D01*
X009874Y005147D01*
X009933Y005206D01*
X009983Y005327D01*
X009983Y005457D01*
X009933Y005578D01*
X009841Y005670D01*
X009720Y005720D01*
X009589Y005720D01*
X009546Y005702D01*
X009221Y005702D01*
X009198Y005725D01*
X009198Y005790D01*
X009704Y005790D01*
X009753Y005839D01*
X009778Y005839D01*
X009871Y005932D01*
X009965Y006026D01*
X009965Y006426D01*
X009965Y006558D01*
X009931Y006592D01*
X009965Y006626D01*
X009965Y006758D01*
X009965Y007334D01*
X010033Y007266D01*
X010009Y007206D01*
X010009Y007052D01*
X010068Y006910D01*
X010177Y006801D01*
X010319Y006742D01*
X010473Y006742D01*
X010616Y006801D01*
X010725Y006910D01*
X010784Y007052D01*
X010784Y007206D01*
X010725Y007349D01*
X010616Y007458D01*
X010473Y007517D01*
X010319Y007517D01*
X010259Y007492D01*
X010065Y007687D01*
X010065Y007704D01*
X010068Y007697D01*
X010177Y007588D01*
X010319Y007529D01*
X010473Y007529D01*
X010616Y007588D01*
X010725Y007697D01*
X010784Y007840D01*
X010784Y007994D01*
X010725Y008136D01*
X010616Y008245D01*
X010473Y008304D01*
X010319Y008304D01*
X010177Y008245D01*
X010068Y008136D01*
X010009Y007994D01*
X010009Y007964D01*
X009971Y008002D01*
X009792Y008181D01*
X009792Y008469D01*
X009727Y008534D01*
X009282Y008534D01*
X009229Y008481D01*
X009191Y008520D01*
X009165Y008531D01*
X009165Y009558D01*
X009071Y009652D01*
X008747Y009976D01*
X008614Y009976D01*
X008610Y009976D01*
X008610Y010117D01*
X008558Y010169D01*
X008771Y010382D01*
X008865Y010476D01*
X008865Y010588D01*
X008927Y010588D01*
X008992Y010653D01*
X008992Y011019D01*
X008927Y011084D01*
X008482Y011084D01*
X008418Y011019D01*
X008418Y010653D01*
X008482Y010588D01*
X008525Y010588D01*
X008333Y010396D01*
X008333Y010457D01*
X008283Y010578D01*
X008272Y010588D01*
X008277Y010588D01*
X008342Y010653D01*
X008342Y011019D01*
X008277Y011084D01*
X007832Y011084D01*
X007768Y011019D01*
X007768Y010653D01*
X007785Y010636D01*
X007727Y010578D01*
X007677Y010457D01*
X007677Y010327D01*
X007727Y010206D01*
X007807Y010125D01*
X007799Y010117D01*
X007799Y009976D01*
X007757Y009976D01*
X007698Y010034D01*
X007135Y010034D01*
X007070Y009970D01*
X007070Y009662D01*
X007135Y009598D01*
X007698Y009598D01*
X007757Y009656D01*
X007799Y009656D01*
X007799Y009514D01*
X007859Y009455D01*
X007855Y009454D01*
X007823Y009436D01*
X007797Y009410D01*
X007779Y009378D01*
X007769Y009342D01*
X007769Y009108D01*
X008165Y009108D01*
X008165Y009028D01*
X008245Y009028D01*
X008245Y009108D01*
X008640Y009108D01*
X008640Y009342D01*
X008630Y009378D01*
X008612Y009410D01*
X008586Y009436D01*
X008554Y009454D01*
X008551Y009455D01*
X008610Y009514D01*
X008610Y009656D01*
X008614Y009656D01*
X008845Y009426D01*
X008845Y008531D01*
X008819Y008520D01*
X008727Y008428D01*
X008716Y008402D01*
X006994Y008402D01*
X006983Y008428D01*
X006891Y008520D01*
X006770Y008570D01*
X006639Y008570D01*
X006519Y008520D01*
X006508Y008509D01*
X006508Y008565D01*
X006444Y008629D01*
X006077Y008629D01*
X006013Y008565D01*
X006013Y008119D01*
X006040Y008092D01*
X006013Y008065D01*
X006013Y007702D01*
X005997Y007702D01*
X005997Y008065D01*
X005969Y008092D01*
X005997Y008119D01*
X005997Y008565D01*
X005932Y008629D01*
X005565Y008629D01*
X005501Y008565D01*
X005501Y008502D01*
X005471Y008502D01*
X005338Y008502D01*
X005296Y008459D01*
X005283Y008472D01*
X004927Y008472D01*
X004765Y008310D01*
X004765Y009476D01*
X004765Y009608D01*
X004703Y009670D01*
X004841Y009670D01*
X004905Y009734D01*
X004905Y010682D01*
X004966Y010682D01*
X004977Y010656D01*
X005069Y010564D01*
X005189Y010514D01*
X005320Y010514D01*
X005441Y010564D01*
X005533Y010656D01*
X005583Y010777D01*
X005583Y010907D01*
X005533Y011028D01*
X005441Y011120D01*
X005320Y011170D01*
X005189Y011170D01*
X005069Y011120D01*
X004977Y011028D01*
X004966Y011002D01*
X004905Y011002D01*
X004905Y011636D01*
X004841Y011701D01*
X004356Y011701D01*
X004292Y011636D01*
X004292Y009734D01*
X004324Y009702D01*
X004125Y009702D01*
X004138Y009726D01*
X004148Y009761D01*
X004148Y010645D01*
X003851Y010645D01*
X003851Y010725D01*
X004148Y010725D01*
X004148Y011609D01*
X004138Y011645D01*
X004120Y011677D01*
X004094Y011703D01*
X004062Y011721D01*
X004026Y011731D01*
X003851Y011731D01*
X003851Y010725D01*
X003771Y010725D01*
X003771Y010645D01*
X003474Y010645D01*
X003474Y009761D01*
X003484Y009726D01*
X003497Y009702D01*
X003171Y009702D01*
X003038Y009702D01*
X002945Y009608D01*
X002945Y009472D01*
X002927Y009472D01*
X002914Y009459D01*
X002122Y010251D01*
X002122Y010356D01*
X002063Y010498D01*
X001954Y010607D01*
X001812Y010666D01*
X001658Y010666D01*
X001515Y010607D01*
X001406Y010498D01*
X001347Y010356D01*
X001347Y010202D01*
X001406Y010059D01*
X001515Y009950D01*
X001658Y009891D01*
X001812Y009891D01*
X001954Y009950D01*
X001962Y009958D01*
X002688Y009233D01*
X002675Y009220D01*
X002675Y008864D01*
X002927Y008612D01*
X003283Y008612D01*
X003535Y008864D01*
X003535Y009220D01*
X003373Y009382D01*
X003794Y009382D01*
X003645Y009232D01*
X003645Y009082D01*
X004065Y009082D01*
X004065Y009002D01*
X004145Y009002D01*
X004145Y008582D01*
X004295Y008582D01*
X004445Y008731D01*
X004445Y008310D01*
X004283Y008472D01*
X003927Y008472D01*
X003675Y008220D01*
X003675Y007864D01*
X003837Y007702D01*
X003373Y007702D01*
X003535Y007864D01*
X003535Y008220D01*
X003283Y008472D01*
X002927Y008472D01*
X002914Y008459D01*
X002074Y009299D01*
X002122Y009414D01*
X002122Y009569D01*
X002063Y009711D01*
X001954Y009820D01*
X001812Y009879D01*
X001658Y009879D01*
X001515Y009820D01*
X001406Y009711D01*
X001347Y009569D01*
X001347Y009414D01*
X001378Y009341D01*
X000738Y008702D01*
X000725Y008688D01*
X000725Y009044D01*
X000729Y009039D01*
X000845Y009039D01*
X000927Y009121D01*
X001075Y009039D02*
X000725Y009039D01*
X000725Y008960D02*
X000997Y008960D01*
X000918Y008882D02*
X000725Y008882D01*
X000725Y008803D02*
X000840Y008803D01*
X000761Y008725D02*
X000725Y008725D01*
X001229Y009196D02*
X001232Y009196D01*
X001267Y009274D02*
X001311Y009274D01*
X001265Y009353D02*
X001373Y009353D01*
X001347Y009431D02*
X001186Y009431D01*
X001108Y009510D02*
X001347Y009510D01*
X001355Y009589D02*
X001253Y009589D01*
X001267Y009667D02*
X001388Y009667D01*
X001441Y009746D02*
X001241Y009746D01*
X001177Y009824D02*
X001525Y009824D01*
X001630Y009903D02*
X001256Y009903D01*
X001267Y009981D02*
X001484Y009981D01*
X001406Y010060D02*
X001267Y010060D01*
X001267Y010138D02*
X001373Y010138D01*
X001347Y010217D02*
X001201Y010217D01*
X001267Y010295D02*
X001347Y010295D01*
X001355Y010374D02*
X001267Y010374D01*
X001267Y010453D02*
X001387Y010453D01*
X001439Y010531D02*
X001248Y010531D01*
X001267Y010512D02*
X001267Y010512D01*
X001267Y010610D02*
X001521Y010610D01*
X001515Y010738D02*
X001658Y010679D01*
X001812Y010679D01*
X001954Y010738D01*
X002063Y010847D01*
X002088Y010906D01*
X002816Y010906D01*
X002827Y010880D01*
X002919Y010788D01*
X003039Y010738D01*
X003170Y010738D01*
X003291Y010788D01*
X003383Y010880D01*
X003433Y011001D01*
X003433Y011132D01*
X003383Y011252D01*
X003291Y011344D01*
X003170Y011394D01*
X003039Y011394D01*
X002919Y011344D01*
X002827Y011252D01*
X002816Y011226D01*
X002088Y011226D01*
X002063Y011286D01*
X001954Y011395D01*
X001812Y011454D01*
X001658Y011454D01*
X001515Y011395D01*
X001406Y011286D01*
X001347Y011143D01*
X001347Y010989D01*
X001406Y010847D01*
X001515Y010738D01*
X001486Y010767D02*
X001208Y010767D01*
X001263Y010688D02*
X001635Y010688D01*
X001834Y010688D02*
X003771Y010688D01*
X003771Y010725D02*
X003474Y010725D01*
X003474Y011609D01*
X003484Y011645D01*
X003502Y011677D01*
X003528Y011703D01*
X003560Y011721D01*
X003596Y011731D01*
X003771Y011731D01*
X003771Y010725D01*
X003771Y010767D02*
X003851Y010767D01*
X003851Y010845D02*
X003771Y010845D01*
X003771Y010924D02*
X003851Y010924D01*
X003851Y011002D02*
X003771Y011002D01*
X003771Y011081D02*
X003851Y011081D01*
X003851Y011159D02*
X003771Y011159D01*
X003771Y011238D02*
X003851Y011238D01*
X003851Y011316D02*
X003771Y011316D01*
X003771Y011395D02*
X003851Y011395D01*
X003851Y011474D02*
X003771Y011474D01*
X003771Y011552D02*
X003851Y011552D01*
X003851Y011631D02*
X003771Y011631D01*
X003771Y011709D02*
X003851Y011709D01*
X004083Y011709D02*
X006703Y011709D01*
X006703Y011723D02*
X006703Y011301D01*
X006703Y011169D01*
X007049Y010822D01*
X007049Y010342D01*
X007113Y010278D01*
X007598Y010278D01*
X007663Y010342D01*
X007663Y011142D01*
X007598Y011206D01*
X007118Y011206D01*
X007023Y011301D01*
X007023Y011723D01*
X007048Y011723D01*
X007113Y011787D01*
X007113Y012468D01*
X007048Y012533D01*
X006677Y012533D01*
X006623Y012478D01*
X006623Y012583D01*
X006558Y012648D01*
X006077Y012648D01*
X006013Y012583D01*
X006013Y012172D01*
X006077Y012108D01*
X006558Y012108D01*
X006613Y012162D01*
X006613Y011787D01*
X006677Y011723D01*
X006703Y011723D01*
X006703Y011631D02*
X004905Y011631D01*
X004905Y011552D02*
X006703Y011552D01*
X006703Y011474D02*
X004905Y011474D01*
X004905Y011395D02*
X006703Y011395D01*
X006703Y011316D02*
X004905Y011316D01*
X004905Y011238D02*
X006703Y011238D01*
X006712Y011159D02*
X006543Y011159D01*
X006560Y011142D02*
X006496Y011206D01*
X006011Y011206D01*
X005947Y011142D01*
X005947Y010484D01*
X005644Y010182D01*
X005164Y010182D01*
X005099Y010117D01*
X005099Y009514D01*
X005159Y009455D01*
X005155Y009454D01*
X005123Y009436D01*
X005097Y009410D01*
X005079Y009378D01*
X005069Y009342D01*
X005069Y009108D01*
X005465Y009108D01*
X005465Y009028D01*
X005545Y009028D01*
X005545Y009108D01*
X005940Y009108D01*
X005940Y009342D01*
X005930Y009378D01*
X005912Y009410D01*
X005886Y009436D01*
X005854Y009454D01*
X005851Y009455D01*
X005910Y009514D01*
X005910Y009995D01*
X006193Y010278D01*
X006233Y010278D01*
X006233Y010034D01*
X006111Y010034D01*
X006047Y009970D01*
X006047Y009662D01*
X006059Y009650D01*
X006045Y009636D01*
X006026Y009604D01*
X006017Y009569D01*
X006017Y009456D01*
X006378Y009456D01*
X006378Y009428D01*
X006017Y009428D01*
X006017Y009315D01*
X006026Y009280D01*
X006045Y009248D01*
X006059Y009234D01*
X006047Y009222D01*
X006047Y008914D01*
X006111Y008850D01*
X006675Y008850D01*
X006733Y008908D01*
X006747Y008908D01*
X006871Y009032D01*
X006965Y009126D01*
X006965Y009626D01*
X006965Y009758D01*
X006865Y009858D01*
X006771Y009952D01*
X006739Y009952D01*
X006739Y009970D01*
X006675Y010034D01*
X006553Y010034D01*
X006553Y010334D01*
X006560Y010342D01*
X006560Y011142D01*
X006560Y011081D02*
X006791Y011081D01*
X006869Y011002D02*
X006560Y011002D01*
X006560Y010924D02*
X006948Y010924D01*
X007026Y010845D02*
X006560Y010845D01*
X006560Y010767D02*
X007049Y010767D01*
X007049Y010688D02*
X006560Y010688D01*
X006560Y010610D02*
X007049Y010610D01*
X007049Y010531D02*
X006560Y010531D01*
X006560Y010453D02*
X007049Y010453D01*
X007049Y010374D02*
X006560Y010374D01*
X006553Y010295D02*
X007096Y010295D01*
X007082Y009981D02*
X006728Y009981D01*
X006820Y009903D02*
X007070Y009903D01*
X007070Y009824D02*
X006899Y009824D01*
X006965Y009746D02*
X007070Y009746D01*
X007070Y009667D02*
X006965Y009667D01*
X006965Y009589D02*
X007799Y009589D01*
X007804Y009510D02*
X006965Y009510D01*
X006965Y009431D02*
X007819Y009431D01*
X007772Y009353D02*
X006965Y009353D01*
X006965Y009274D02*
X007123Y009274D01*
X007135Y009286D02*
X007070Y009222D01*
X007070Y008914D01*
X007135Y008850D01*
X007698Y008850D01*
X007763Y008914D01*
X007763Y009222D01*
X007698Y009286D01*
X007135Y009286D01*
X007070Y009196D02*
X006965Y009196D01*
X006956Y009117D02*
X007070Y009117D01*
X007070Y009039D02*
X006878Y009039D01*
X006799Y008960D02*
X007070Y008960D01*
X007103Y008882D02*
X006707Y008882D01*
X006776Y008567D02*
X008845Y008567D01*
X008845Y008646D02*
X004765Y008646D01*
X004765Y008567D02*
X005504Y008567D01*
X005465Y008672D02*
X005465Y009028D01*
X005069Y009028D01*
X005069Y008794D01*
X005079Y008758D01*
X005097Y008726D01*
X005123Y008700D01*
X005155Y008681D01*
X005191Y008672D01*
X005465Y008672D01*
X005465Y008725D02*
X005545Y008725D01*
X005545Y008672D02*
X005818Y008672D01*
X005854Y008681D01*
X005886Y008700D01*
X005912Y008726D01*
X005930Y008758D01*
X005940Y008794D01*
X005940Y009028D01*
X005545Y009028D01*
X005545Y008672D01*
X005545Y008803D02*
X005465Y008803D01*
X005465Y008882D02*
X005545Y008882D01*
X005545Y008960D02*
X005465Y008960D01*
X005465Y009039D02*
X004765Y009039D01*
X004765Y009117D02*
X005069Y009117D01*
X005069Y009196D02*
X004765Y009196D01*
X004765Y009274D02*
X005069Y009274D01*
X005072Y009353D02*
X004765Y009353D01*
X004765Y009431D02*
X005119Y009431D01*
X005104Y009510D02*
X004765Y009510D01*
X004765Y009589D02*
X005099Y009589D01*
X005099Y009667D02*
X004706Y009667D01*
X004905Y009746D02*
X005099Y009746D01*
X005099Y009824D02*
X004905Y009824D01*
X004905Y009903D02*
X005099Y009903D01*
X005099Y009981D02*
X004905Y009981D01*
X004905Y010060D02*
X005099Y010060D01*
X005120Y010138D02*
X004905Y010138D01*
X004905Y010217D02*
X005679Y010217D01*
X005758Y010295D02*
X004905Y010295D01*
X004905Y010374D02*
X005837Y010374D01*
X005915Y010453D02*
X004905Y010453D01*
X004905Y010531D02*
X005148Y010531D01*
X005023Y010610D02*
X004905Y010610D01*
X004905Y011002D02*
X004966Y011002D01*
X004905Y011081D02*
X005030Y011081D01*
X004905Y011159D02*
X005164Y011159D01*
X005345Y011159D02*
X005964Y011159D01*
X005947Y011081D02*
X005480Y011081D01*
X005543Y011002D02*
X005947Y011002D01*
X005947Y010924D02*
X005576Y010924D01*
X005583Y010845D02*
X005947Y010845D01*
X005947Y010767D02*
X005579Y010767D01*
X005546Y010688D02*
X005947Y010688D01*
X005947Y010610D02*
X005486Y010610D01*
X005362Y010531D02*
X005947Y010531D01*
X006132Y010217D02*
X006233Y010217D01*
X006233Y010138D02*
X006053Y010138D01*
X005975Y010060D02*
X006233Y010060D01*
X006058Y009981D02*
X005910Y009981D01*
X005910Y009903D02*
X006047Y009903D01*
X006047Y009824D02*
X005910Y009824D01*
X005910Y009746D02*
X006047Y009746D01*
X006047Y009667D02*
X005910Y009667D01*
X005910Y009589D02*
X006022Y009589D01*
X006017Y009510D02*
X005906Y009510D01*
X005890Y009431D02*
X006378Y009431D01*
X006017Y009353D02*
X005937Y009353D01*
X005940Y009274D02*
X006029Y009274D01*
X006047Y009196D02*
X005940Y009196D01*
X005940Y009117D02*
X006047Y009117D01*
X006047Y009039D02*
X005545Y009039D01*
X005940Y008960D02*
X006047Y008960D01*
X006079Y008882D02*
X005940Y008882D01*
X005940Y008803D02*
X007769Y008803D01*
X007769Y008794D02*
X007779Y008758D01*
X007797Y008726D01*
X007823Y008700D01*
X007855Y008681D01*
X007891Y008672D01*
X008165Y008672D01*
X008165Y009028D01*
X007769Y009028D01*
X007769Y008794D01*
X007799Y008725D02*
X005911Y008725D01*
X005994Y008567D02*
X006016Y008567D01*
X006013Y008489D02*
X005997Y008489D01*
X005997Y008410D02*
X006013Y008410D01*
X006013Y008332D02*
X005997Y008332D01*
X005997Y008253D02*
X006013Y008253D01*
X006013Y008175D02*
X005997Y008175D01*
X005974Y008096D02*
X006036Y008096D01*
X006013Y008018D02*
X005997Y008018D01*
X005997Y007939D02*
X006013Y007939D01*
X006013Y007861D02*
X005997Y007861D01*
X005997Y007782D02*
X006013Y007782D01*
X006013Y007704D02*
X005997Y007704D01*
X006506Y008567D02*
X006633Y008567D01*
X006922Y008489D02*
X008788Y008489D01*
X008719Y008410D02*
X006990Y008410D01*
X007191Y007682D02*
X007716Y007682D01*
X007727Y007656D01*
X007819Y007564D01*
X007939Y007514D01*
X008070Y007514D01*
X008191Y007564D01*
X008210Y007583D01*
X008210Y007429D01*
X008224Y007416D01*
X008210Y007402D01*
X008210Y007130D01*
X008208Y007128D01*
X008190Y007096D01*
X008180Y007060D01*
X008180Y006953D01*
X008547Y006953D01*
X008547Y006934D01*
X008566Y006934D01*
X008566Y006953D01*
X008932Y006953D01*
X008932Y007060D01*
X008923Y007096D01*
X008905Y007128D01*
X008902Y007130D01*
X008902Y007267D01*
X009133Y007267D01*
X009134Y007268D01*
X009413Y007268D01*
X009413Y007249D01*
X009046Y007249D01*
X009046Y007142D01*
X009056Y007106D01*
X009059Y007101D01*
X009056Y007096D01*
X009046Y007060D01*
X009046Y006953D01*
X009413Y006953D01*
X009413Y007020D01*
X009413Y007249D01*
X009432Y007249D01*
X009432Y007020D01*
X009432Y006953D01*
X009413Y006953D01*
X009413Y006934D01*
X009046Y006934D01*
X009046Y006827D01*
X009056Y006791D01*
X009074Y006759D01*
X009076Y006757D01*
X009076Y006500D01*
X009074Y006498D01*
X009056Y006466D01*
X009046Y006430D01*
X009046Y006323D01*
X009413Y006323D01*
X009413Y006304D01*
X009134Y006304D01*
X009133Y006305D01*
X008845Y006305D01*
X008844Y006304D01*
X008566Y006304D01*
X008566Y006323D01*
X008932Y006323D01*
X008932Y006430D01*
X008923Y006466D01*
X008920Y006471D01*
X008923Y006476D01*
X008932Y006512D01*
X008932Y006619D01*
X008566Y006619D01*
X008566Y006638D01*
X008932Y006638D01*
X008932Y006745D01*
X008923Y006781D01*
X008920Y006786D01*
X008923Y006791D01*
X008932Y006827D01*
X008932Y006934D01*
X008566Y006934D01*
X008566Y006705D01*
X008566Y006638D01*
X008547Y006638D01*
X008547Y006705D01*
X008547Y006934D01*
X008180Y006934D01*
X008180Y006827D01*
X008190Y006791D01*
X008193Y006786D01*
X008190Y006781D01*
X008180Y006745D01*
X008180Y006638D01*
X008547Y006638D01*
X008547Y006619D01*
X008566Y006619D01*
X008566Y006390D01*
X008566Y006323D01*
X008547Y006323D01*
X008547Y006390D01*
X008547Y006619D01*
X008180Y006619D01*
X008180Y006512D01*
X008190Y006476D01*
X008193Y006471D01*
X008190Y006466D01*
X008180Y006430D01*
X008180Y006323D01*
X008547Y006323D01*
X008547Y006304D01*
X008180Y006304D01*
X008180Y006197D01*
X008182Y006191D01*
X007565Y006808D01*
X007565Y007176D01*
X007565Y007308D01*
X007265Y007608D01*
X007191Y007682D01*
X007248Y007625D02*
X007758Y007625D01*
X007861Y007546D02*
X007326Y007546D01*
X007405Y007468D02*
X008210Y007468D01*
X008210Y007546D02*
X008149Y007546D01*
X008210Y007389D02*
X007484Y007389D01*
X007562Y007311D02*
X008210Y007311D01*
X008210Y007232D02*
X007565Y007232D01*
X007565Y007154D02*
X008210Y007154D01*
X008184Y007075D02*
X007565Y007075D01*
X007565Y006997D02*
X008180Y006997D01*
X008180Y006918D02*
X007565Y006918D01*
X007565Y006840D02*
X008180Y006840D01*
X008184Y006761D02*
X007612Y006761D01*
X007690Y006682D02*
X008180Y006682D01*
X008180Y006604D02*
X007769Y006604D01*
X007847Y006525D02*
X008180Y006525D01*
X008184Y006447D02*
X007926Y006447D01*
X008005Y006368D02*
X008180Y006368D01*
X008180Y006290D02*
X008083Y006290D01*
X008162Y006211D02*
X008180Y006211D01*
X007983Y005938D02*
X008082Y005839D01*
X008214Y005839D01*
X008226Y005839D01*
X008274Y005790D01*
X008395Y005790D01*
X008395Y005486D01*
X008350Y005486D01*
X008286Y005422D01*
X008286Y004977D01*
X008350Y004912D01*
X008445Y004912D01*
X008445Y004310D01*
X008283Y004472D01*
X007927Y004472D01*
X007815Y004360D01*
X007815Y004758D01*
X007813Y004759D01*
X008060Y004759D01*
X008124Y004824D01*
X008124Y005191D01*
X008065Y005250D01*
X008068Y005251D01*
X008100Y005269D01*
X008126Y005295D01*
X008145Y005327D01*
X008154Y005363D01*
X008154Y005490D01*
X007866Y005490D01*
X007866Y005548D01*
X008154Y005548D01*
X008154Y005675D01*
X008145Y005711D01*
X008126Y005743D01*
X008100Y005769D01*
X008068Y005787D01*
X008033Y005797D01*
X007924Y005797D01*
X007933Y005806D01*
X007983Y005927D01*
X007983Y005938D01*
X007971Y005897D02*
X008023Y005897D01*
X007938Y005818D02*
X008246Y005818D01*
X008128Y005740D02*
X008395Y005740D01*
X008395Y005661D02*
X008154Y005661D01*
X008154Y005583D02*
X008395Y005583D01*
X008395Y005504D02*
X007866Y005504D01*
X007808Y005504D02*
X007319Y005504D01*
X007319Y005489D02*
X007311Y005462D01*
X007391Y005462D01*
X007533Y005321D01*
X007529Y005327D01*
X007520Y005363D01*
X007520Y005490D01*
X007808Y005490D01*
X007808Y005548D01*
X007520Y005548D01*
X007520Y005675D01*
X007524Y005691D01*
X007469Y005714D01*
X007377Y005806D01*
X007327Y005927D01*
X007327Y006057D01*
X007337Y006082D01*
X007289Y006082D01*
X007289Y005815D01*
X007291Y005813D01*
X007309Y005781D01*
X007319Y005746D01*
X007319Y005632D01*
X006944Y005632D01*
X006944Y005602D01*
X007319Y005602D01*
X007319Y005489D01*
X007319Y005583D02*
X007520Y005583D01*
X007520Y005661D02*
X007319Y005661D01*
X007319Y005740D02*
X007443Y005740D01*
X007371Y005818D02*
X007289Y005818D01*
X007289Y005897D02*
X007339Y005897D01*
X007327Y005976D02*
X007289Y005976D01*
X007289Y006054D02*
X007327Y006054D01*
X006913Y005632D02*
X006913Y005602D01*
X006539Y005602D01*
X006539Y005489D01*
X006548Y005453D01*
X006567Y005421D01*
X006569Y005419D01*
X006569Y005147D01*
X006571Y005145D01*
X006569Y005143D01*
X006569Y004852D01*
X006021Y004852D01*
X005888Y004852D01*
X005738Y004702D01*
X005521Y004702D01*
X005322Y004901D01*
X005333Y004927D01*
X005333Y005057D01*
X005283Y005178D01*
X005191Y005270D01*
X005070Y005320D01*
X004939Y005320D01*
X004819Y005270D01*
X004727Y005178D01*
X004716Y005152D01*
X004688Y005152D01*
X004595Y005058D01*
X003909Y004372D01*
X003909Y004513D01*
X003907Y004515D01*
X003909Y004517D01*
X003909Y004828D01*
X003907Y004830D01*
X003909Y004832D01*
X003909Y005104D01*
X003911Y005107D01*
X003929Y005138D01*
X003939Y005174D01*
X003939Y005287D01*
X003564Y005287D01*
X003564Y005318D01*
X003939Y005318D01*
X003939Y005431D01*
X003929Y005467D01*
X003911Y005498D01*
X003909Y005501D01*
X003909Y005734D01*
X003911Y005736D01*
X003929Y005768D01*
X003939Y005804D01*
X003939Y005917D01*
X003564Y005917D01*
X003564Y005947D01*
X003935Y005947D01*
X003969Y005914D01*
X004089Y005864D01*
X004220Y005864D01*
X004341Y005914D01*
X004433Y006006D01*
X004483Y006127D01*
X004483Y006257D01*
X004433Y006378D01*
X004341Y006470D01*
X004220Y006520D01*
X004089Y006520D01*
X003969Y006470D01*
X003909Y006410D01*
X003909Y006718D01*
X003844Y006782D01*
X003253Y006782D01*
X003189Y006718D01*
X003189Y006702D01*
X002944Y006702D01*
X002933Y006728D01*
X002841Y006820D01*
X002720Y006870D01*
X002659Y006870D01*
X002771Y006982D01*
X003916Y006982D01*
X003916Y006854D01*
X003981Y006790D01*
X004292Y006790D01*
X004294Y006792D01*
X004296Y006790D01*
X004607Y006790D01*
X004609Y006792D01*
X004611Y006790D01*
X004922Y006790D01*
X004924Y006792D01*
X004926Y006790D01*
X005067Y006790D01*
X005019Y006770D01*
X004927Y006678D01*
X004877Y006557D01*
X004877Y006427D01*
X004927Y006306D01*
X005019Y006214D01*
X005139Y006164D01*
X005270Y006164D01*
X005345Y006195D01*
X005345Y005931D01*
X005319Y005920D01*
X005227Y005828D01*
X005177Y005707D01*
X005177Y005577D01*
X005227Y005456D01*
X005319Y005364D01*
X005439Y005314D01*
X005570Y005314D01*
X005577Y005317D01*
X005577Y005227D01*
X005627Y005106D01*
X005719Y005014D01*
X005839Y004964D01*
X005970Y004964D01*
X006091Y005014D01*
X006183Y005106D01*
X006233Y005227D01*
X006233Y005357D01*
X006183Y005478D01*
X006125Y005536D01*
X006371Y005782D01*
X006548Y005782D01*
X006548Y005781D01*
X006539Y005746D01*
X006539Y005632D01*
X006913Y005632D01*
X006539Y005661D02*
X006250Y005661D01*
X006172Y005583D02*
X006539Y005583D01*
X006539Y005504D02*
X006156Y005504D01*
X006204Y005426D02*
X006564Y005426D01*
X006569Y005347D02*
X006233Y005347D01*
X006233Y005269D02*
X006569Y005269D01*
X006569Y005190D02*
X006218Y005190D01*
X006185Y005112D02*
X006569Y005112D01*
X006569Y005033D02*
X006110Y005033D01*
X005834Y004797D02*
X005425Y004797D01*
X005347Y004876D02*
X006569Y004876D01*
X006569Y004954D02*
X005333Y004954D01*
X005333Y005033D02*
X005700Y005033D01*
X005624Y005112D02*
X005310Y005112D01*
X005270Y005190D02*
X005592Y005190D01*
X005577Y005269D02*
X005192Y005269D01*
X005257Y005426D02*
X003939Y005426D01*
X003939Y005347D02*
X005359Y005347D01*
X005207Y005504D02*
X003909Y005504D01*
X003909Y005583D02*
X005177Y005583D01*
X005177Y005661D02*
X003909Y005661D01*
X003913Y005740D02*
X005190Y005740D01*
X005223Y005818D02*
X003939Y005818D01*
X003939Y005897D02*
X004009Y005897D01*
X004300Y005897D02*
X005296Y005897D01*
X005345Y005976D02*
X004402Y005976D01*
X004453Y006054D02*
X005345Y006054D01*
X005345Y006133D02*
X004483Y006133D01*
X004483Y006211D02*
X005025Y006211D01*
X004943Y006290D02*
X004469Y006290D01*
X004437Y006368D02*
X004901Y006368D01*
X004877Y006447D02*
X004364Y006447D01*
X003946Y006447D02*
X003909Y006447D01*
X003909Y006525D02*
X004877Y006525D01*
X004896Y006604D02*
X003909Y006604D01*
X003909Y006682D02*
X004931Y006682D01*
X005010Y006761D02*
X003865Y006761D01*
X003931Y006840D02*
X002793Y006840D01*
X002707Y006918D02*
X003916Y006918D01*
X003916Y007311D02*
X002079Y007311D01*
X002111Y007232D02*
X002569Y007232D01*
X002490Y007154D02*
X002122Y007154D01*
X002122Y007075D02*
X002412Y007075D01*
X002333Y006997D02*
X002099Y006997D01*
X002066Y006918D02*
X002255Y006918D01*
X002176Y006840D02*
X001993Y006840D01*
X002098Y006761D02*
X001858Y006761D01*
X001925Y006682D02*
X002045Y006682D01*
X002045Y006604D02*
X002021Y006604D01*
X002365Y006368D02*
X002371Y006368D01*
X002365Y006290D02*
X002433Y006290D01*
X002423Y006211D02*
X002365Y006211D01*
X002365Y006133D02*
X002423Y006133D01*
X002423Y006054D02*
X002365Y006054D01*
X002365Y005976D02*
X002423Y005976D01*
X002437Y005897D02*
X002365Y005897D01*
X002365Y005818D02*
X002503Y005818D01*
X002453Y005740D02*
X002365Y005740D01*
X002365Y005661D02*
X002453Y005661D01*
X002453Y005583D02*
X002365Y005583D01*
X002365Y005504D02*
X002453Y005504D01*
X002453Y005426D02*
X002365Y005426D01*
X002365Y005347D02*
X002496Y005347D01*
X002452Y005269D02*
X002365Y005269D01*
X002365Y005190D02*
X002427Y005190D01*
X002427Y005112D02*
X002301Y005112D01*
X002271Y005082D02*
X002271Y005082D01*
X002222Y005033D02*
X002445Y005033D01*
X002478Y004954D02*
X002144Y004954D01*
X002109Y004876D02*
X002358Y004876D01*
X002314Y004797D02*
X002122Y004797D01*
X002122Y004719D02*
X002314Y004719D01*
X002314Y004640D02*
X002101Y004640D01*
X002069Y004562D02*
X002314Y004562D01*
X002314Y004483D02*
X001999Y004483D01*
X001872Y004405D02*
X002317Y004405D01*
X002284Y004326D02*
X001968Y004326D01*
X002056Y004248D02*
X002284Y004248D01*
X002284Y004091D02*
X002138Y004091D01*
X002107Y004169D02*
X002729Y004169D01*
X002787Y004169D02*
X003222Y004169D01*
X003233Y004147D02*
X003233Y004046D01*
X003324Y004138D01*
X003253Y004138D01*
X003189Y004202D01*
X003189Y004205D01*
X002787Y004205D01*
X002787Y004147D01*
X003233Y004147D01*
X003233Y004091D02*
X003277Y004091D01*
X003494Y003855D02*
X003745Y003855D01*
X003745Y003933D02*
X003573Y003933D01*
X003651Y004012D02*
X003745Y004012D01*
X003745Y004091D02*
X003709Y004091D01*
X003745Y003776D02*
X003415Y003776D01*
X003337Y003698D02*
X003745Y003698D01*
X003741Y003619D02*
X003745Y003619D01*
X003368Y003619D02*
X003258Y003619D01*
X003290Y003541D02*
X003203Y003541D01*
X003909Y004405D02*
X003941Y004405D01*
X003909Y004483D02*
X004020Y004483D01*
X004098Y004562D02*
X003909Y004562D01*
X003909Y004640D02*
X004177Y004640D01*
X004255Y004719D02*
X003909Y004719D01*
X003909Y004797D02*
X004334Y004797D01*
X004413Y004876D02*
X003909Y004876D01*
X003909Y004954D02*
X004491Y004954D01*
X004570Y005033D02*
X003909Y005033D01*
X003913Y005112D02*
X004648Y005112D01*
X004595Y005058D02*
X004595Y005058D01*
X004739Y005190D02*
X003939Y005190D01*
X003939Y005269D02*
X004818Y005269D01*
X005504Y004719D02*
X005755Y004719D01*
X006329Y005740D02*
X006539Y005740D01*
X007428Y005426D02*
X007520Y005426D01*
X007524Y005347D02*
X007507Y005347D01*
X007815Y004719D02*
X008445Y004719D01*
X008445Y004797D02*
X008098Y004797D01*
X008124Y004876D02*
X008445Y004876D01*
X008308Y004954D02*
X008124Y004954D01*
X008124Y005033D02*
X008286Y005033D01*
X008286Y005112D02*
X008124Y005112D01*
X008124Y005190D02*
X008286Y005190D01*
X008286Y005269D02*
X008099Y005269D01*
X008150Y005347D02*
X008286Y005347D01*
X008289Y005426D02*
X008154Y005426D01*
X008445Y004640D02*
X007815Y004640D01*
X007815Y004562D02*
X008445Y004562D01*
X008445Y004483D02*
X007815Y004483D01*
X007815Y004405D02*
X007859Y004405D01*
X008350Y004405D02*
X008445Y004405D01*
X008445Y004326D02*
X008429Y004326D01*
X009198Y005740D02*
X010054Y005740D01*
X010068Y005774D02*
X010009Y005632D01*
X010009Y005477D01*
X010068Y005335D01*
X010177Y005226D01*
X010319Y005167D01*
X010473Y005167D01*
X010616Y005226D01*
X010725Y005335D01*
X010784Y005477D01*
X010784Y005632D01*
X010725Y005774D01*
X010616Y005883D01*
X010473Y005942D01*
X010319Y005942D01*
X010177Y005883D01*
X010068Y005774D01*
X010112Y005818D02*
X009733Y005818D01*
X009836Y005897D02*
X010211Y005897D01*
X010268Y005976D02*
X009915Y005976D01*
X009965Y006054D02*
X010136Y006054D01*
X010177Y006013D02*
X010319Y005954D01*
X010473Y005954D01*
X010616Y006013D01*
X010725Y006122D01*
X010784Y006265D01*
X010784Y006419D01*
X010725Y006561D01*
X010616Y006670D01*
X010473Y006729D01*
X010319Y006729D01*
X010177Y006670D01*
X010068Y006561D01*
X010009Y006419D01*
X010009Y006265D01*
X010068Y006122D01*
X010177Y006013D01*
X010063Y006133D02*
X009965Y006133D01*
X009965Y006211D02*
X010031Y006211D01*
X010009Y006290D02*
X009965Y006290D01*
X009965Y006368D02*
X010009Y006368D01*
X010020Y006447D02*
X009965Y006447D01*
X009965Y006525D02*
X010053Y006525D01*
X010110Y006604D02*
X009943Y006604D01*
X009965Y006682D02*
X010206Y006682D01*
X010273Y006761D02*
X009965Y006761D01*
X009965Y006840D02*
X010138Y006840D01*
X010064Y006918D02*
X009965Y006918D01*
X009965Y006997D02*
X010032Y006997D01*
X010009Y007075D02*
X009965Y007075D01*
X009965Y007154D02*
X010009Y007154D01*
X010019Y007232D02*
X009965Y007232D01*
X009965Y007311D02*
X009988Y007311D01*
X010205Y007546D02*
X010277Y007546D01*
X010140Y007625D02*
X010127Y007625D01*
X010065Y007704D02*
X010065Y007704D01*
X010019Y008018D02*
X009955Y008018D01*
X009877Y008096D02*
X010051Y008096D01*
X010106Y008175D02*
X009798Y008175D01*
X009792Y008253D02*
X010196Y008253D01*
X010282Y008332D02*
X009792Y008332D01*
X009792Y008410D02*
X010142Y008410D01*
X010177Y008376D02*
X010319Y008317D01*
X010473Y008317D01*
X010616Y008376D01*
X010725Y008485D01*
X010784Y008627D01*
X010784Y008781D01*
X010725Y008924D01*
X010616Y009033D01*
X010473Y009092D01*
X010319Y009092D01*
X010177Y009033D01*
X010068Y008924D01*
X010009Y008781D01*
X010009Y008627D01*
X010068Y008485D01*
X010177Y008376D01*
X010066Y008489D02*
X009772Y008489D01*
X009745Y008567D02*
X010033Y008567D01*
X010009Y008646D02*
X009792Y008646D01*
X009792Y008725D02*
X010009Y008725D01*
X010018Y008803D02*
X009792Y008803D01*
X009821Y008882D02*
X010050Y008882D01*
X010104Y008960D02*
X009899Y008960D01*
X009978Y009039D02*
X010192Y009039D01*
X010287Y009117D02*
X010056Y009117D01*
X010065Y009196D02*
X010144Y009196D01*
X010067Y009274D02*
X010065Y009274D01*
X009745Y009274D02*
X009165Y009274D01*
X009165Y009196D02*
X009682Y009196D01*
X009604Y009117D02*
X009165Y009117D01*
X009165Y009039D02*
X009275Y009039D01*
X009218Y008960D02*
X009165Y008960D01*
X009165Y008882D02*
X009218Y008882D01*
X009218Y008803D02*
X009165Y008803D01*
X009165Y008725D02*
X009218Y008725D01*
X009218Y008646D02*
X009165Y008646D01*
X009165Y008567D02*
X009264Y008567D01*
X009237Y008489D02*
X009222Y008489D01*
X008845Y008725D02*
X008611Y008725D01*
X008612Y008726D02*
X008630Y008758D01*
X008640Y008794D01*
X008640Y009028D01*
X008245Y009028D01*
X008245Y008672D01*
X008518Y008672D01*
X008554Y008681D01*
X008586Y008700D01*
X008612Y008726D01*
X008640Y008803D02*
X008845Y008803D01*
X008845Y008882D02*
X008640Y008882D01*
X008640Y008960D02*
X008845Y008960D01*
X008845Y009039D02*
X008245Y009039D01*
X008245Y008960D02*
X008165Y008960D01*
X008165Y008882D02*
X008245Y008882D01*
X008245Y008803D02*
X008165Y008803D01*
X008165Y008725D02*
X008245Y008725D01*
X008165Y009039D02*
X007763Y009039D01*
X007763Y009117D02*
X007769Y009117D01*
X007763Y009196D02*
X007769Y009196D01*
X007769Y009274D02*
X007710Y009274D01*
X007763Y008960D02*
X007769Y008960D01*
X007769Y008882D02*
X007730Y008882D01*
X008590Y009431D02*
X008839Y009431D01*
X008845Y009353D02*
X008637Y009353D01*
X008640Y009274D02*
X008845Y009274D01*
X008845Y009196D02*
X008640Y009196D01*
X008640Y009117D02*
X008845Y009117D01*
X009165Y009353D02*
X009745Y009353D01*
X009745Y009431D02*
X009165Y009431D01*
X009165Y009510D02*
X009745Y009510D01*
X009745Y009589D02*
X009134Y009589D01*
X009056Y009667D02*
X009745Y009667D01*
X009745Y009746D02*
X008977Y009746D01*
X008899Y009824D02*
X009745Y009824D01*
X009745Y009903D02*
X008820Y009903D01*
X008610Y009981D02*
X009745Y009981D01*
X009745Y010060D02*
X008610Y010060D01*
X008589Y010138D02*
X009745Y010138D01*
X009745Y010217D02*
X008606Y010217D01*
X008684Y010295D02*
X009745Y010295D01*
X009745Y010374D02*
X008763Y010374D01*
X008771Y010382D02*
X008771Y010382D01*
X008842Y010453D02*
X009745Y010453D01*
X009745Y010531D02*
X008865Y010531D01*
X008949Y010610D02*
X009745Y010610D01*
X009745Y010688D02*
X008992Y010688D01*
X008992Y010767D02*
X009745Y010767D01*
X009745Y010845D02*
X008992Y010845D01*
X008992Y010924D02*
X009745Y010924D01*
X009745Y011002D02*
X008992Y011002D01*
X008930Y011081D02*
X009745Y011081D01*
X009745Y011159D02*
X009626Y011159D01*
X009601Y011149D02*
X009711Y011194D01*
X009795Y011279D01*
X009841Y011389D01*
X009841Y011509D01*
X009795Y011619D01*
X009711Y011703D01*
X009601Y011749D01*
X009481Y011749D01*
X009371Y011703D01*
X009287Y011619D01*
X009241Y011509D01*
X009241Y011389D01*
X009287Y011279D01*
X009371Y011194D01*
X009481Y011149D01*
X009601Y011149D01*
X009456Y011159D02*
X008987Y011159D01*
X008992Y011238D02*
X009328Y011238D01*
X009271Y011316D02*
X008992Y011316D01*
X009039Y011395D02*
X009241Y011395D01*
X009241Y011474D02*
X009117Y011474D01*
X009196Y011552D02*
X009259Y011552D01*
X009274Y011631D02*
X009299Y011631D01*
X009353Y011709D02*
X009386Y011709D01*
X009432Y011788D02*
X009945Y011788D01*
X009945Y011709D02*
X009696Y011709D01*
X009783Y011631D02*
X009945Y011631D01*
X009945Y011552D02*
X009823Y011552D01*
X009841Y011474D02*
X009945Y011474D01*
X009932Y011395D02*
X009841Y011395D01*
X009853Y011316D02*
X009811Y011316D01*
X009775Y011238D02*
X009754Y011238D01*
X010065Y010845D02*
X010069Y010845D01*
X010065Y010767D02*
X010148Y010767D01*
X010065Y010688D02*
X010296Y010688D01*
X010182Y010610D02*
X010065Y010610D01*
X010065Y010531D02*
X010100Y010531D01*
X010496Y010688D02*
X010918Y010688D01*
X010918Y010610D02*
X010610Y010610D01*
X010692Y010531D02*
X010918Y010531D01*
X010918Y010453D02*
X010744Y010453D01*
X010776Y010374D02*
X010918Y010374D01*
X010918Y010295D02*
X010784Y010295D01*
X010784Y010217D02*
X010918Y010217D01*
X010918Y010138D02*
X010757Y010138D01*
X010725Y010060D02*
X010918Y010060D01*
X010918Y009981D02*
X010646Y009981D01*
X010605Y009824D02*
X010918Y009824D01*
X010918Y009746D02*
X010690Y009746D01*
X010743Y009667D02*
X010918Y009667D01*
X010918Y009589D02*
X010775Y009589D01*
X010784Y009510D02*
X010918Y009510D01*
X010918Y009431D02*
X010784Y009431D01*
X010758Y009353D02*
X010918Y009353D01*
X010918Y009274D02*
X010725Y009274D01*
X010648Y009196D02*
X010918Y009196D01*
X010918Y009117D02*
X010505Y009117D01*
X010601Y009039D02*
X010918Y009039D01*
X010918Y008960D02*
X010688Y008960D01*
X010742Y008882D02*
X010918Y008882D01*
X010918Y008803D02*
X010774Y008803D01*
X010784Y008725D02*
X010918Y008725D01*
X010918Y008646D02*
X010784Y008646D01*
X010759Y008567D02*
X010918Y008567D01*
X010918Y008489D02*
X010726Y008489D01*
X010650Y008410D02*
X010918Y008410D01*
X010918Y008332D02*
X010510Y008332D01*
X010596Y008253D02*
X010918Y008253D01*
X010918Y008175D02*
X010686Y008175D01*
X010741Y008096D02*
X010918Y008096D01*
X010918Y008018D02*
X010774Y008018D01*
X010784Y007939D02*
X010918Y007939D01*
X010918Y007861D02*
X010784Y007861D01*
X010760Y007782D02*
X010918Y007782D01*
X010918Y007704D02*
X010727Y007704D01*
X010652Y007625D02*
X010918Y007625D01*
X010918Y007546D02*
X010515Y007546D01*
X010591Y007468D02*
X010918Y007468D01*
X010918Y007389D02*
X010684Y007389D01*
X010740Y007311D02*
X010918Y007311D01*
X010918Y007232D02*
X010773Y007232D01*
X010784Y007154D02*
X010918Y007154D01*
X010918Y007075D02*
X010784Y007075D01*
X010760Y006997D02*
X010918Y006997D01*
X010918Y006918D02*
X010728Y006918D01*
X010654Y006840D02*
X010918Y006840D01*
X010918Y006761D02*
X010519Y006761D01*
X010586Y006682D02*
X010918Y006682D01*
X010918Y006604D02*
X010682Y006604D01*
X010739Y006525D02*
X010918Y006525D01*
X010918Y006447D02*
X010772Y006447D01*
X010784Y006368D02*
X010918Y006368D01*
X010918Y006290D02*
X010784Y006290D01*
X010761Y006211D02*
X010918Y006211D01*
X010918Y006133D02*
X010729Y006133D01*
X010656Y006054D02*
X010918Y006054D01*
X010918Y005976D02*
X010524Y005976D01*
X010582Y005897D02*
X010918Y005897D01*
X010918Y005818D02*
X010680Y005818D01*
X010739Y005740D02*
X010918Y005740D01*
X010918Y005661D02*
X010771Y005661D01*
X010784Y005583D02*
X010918Y005583D01*
X010918Y005504D02*
X010784Y005504D01*
X010762Y005426D02*
X010918Y005426D01*
X010918Y005347D02*
X010730Y005347D01*
X010658Y005269D02*
X010918Y005269D01*
X010918Y005190D02*
X010529Y005190D01*
X010577Y005112D02*
X010918Y005112D01*
X010918Y005033D02*
X010678Y005033D01*
X010738Y004954D02*
X010918Y004954D01*
X010918Y004876D02*
X010770Y004876D01*
X010784Y004797D02*
X010918Y004797D01*
X010918Y004719D02*
X010784Y004719D01*
X010763Y004640D02*
X010918Y004640D01*
X010918Y004562D02*
X010811Y004562D01*
X010890Y004483D02*
X010918Y004483D01*
X010215Y005112D02*
X009949Y005112D01*
X009917Y005190D02*
X010263Y005190D01*
X010134Y005269D02*
X009959Y005269D01*
X009983Y005347D02*
X010062Y005347D01*
X010030Y005426D02*
X009983Y005426D01*
X009963Y005504D02*
X010009Y005504D01*
X010009Y005583D02*
X009928Y005583D01*
X009849Y005661D02*
X010021Y005661D01*
X010028Y005033D02*
X010114Y005033D01*
X009046Y006368D02*
X008932Y006368D01*
X008928Y006447D02*
X009051Y006447D01*
X009076Y006525D02*
X008932Y006525D01*
X008932Y006604D02*
X009076Y006604D01*
X009076Y006682D02*
X008932Y006682D01*
X008928Y006761D02*
X009073Y006761D01*
X009046Y006840D02*
X008932Y006840D01*
X008932Y006918D02*
X009046Y006918D01*
X009046Y006997D02*
X008932Y006997D01*
X008929Y007075D02*
X009050Y007075D01*
X009046Y007154D02*
X008902Y007154D01*
X008902Y007232D02*
X009046Y007232D01*
X009413Y007232D02*
X009432Y007232D01*
X009422Y007258D02*
X009422Y006943D01*
X009413Y006997D02*
X009432Y006997D01*
X009432Y007075D02*
X009413Y007075D01*
X009413Y007154D02*
X009432Y007154D01*
X009422Y007573D02*
X009383Y007613D01*
X009422Y007573D02*
X009462Y007613D01*
X008566Y006918D02*
X008547Y006918D01*
X008547Y006840D02*
X008566Y006840D01*
X008566Y006761D02*
X008547Y006761D01*
X008547Y006682D02*
X008566Y006682D01*
X008566Y006604D02*
X008547Y006604D01*
X008547Y006525D02*
X008566Y006525D01*
X008566Y006447D02*
X008547Y006447D01*
X008547Y006368D02*
X008566Y006368D01*
X008606Y009510D02*
X008760Y009510D01*
X008682Y009589D02*
X008610Y009589D01*
X008389Y010453D02*
X008333Y010453D01*
X008302Y010531D02*
X008468Y010531D01*
X008461Y010610D02*
X008299Y010610D01*
X008342Y010688D02*
X008418Y010688D01*
X008418Y010767D02*
X008342Y010767D01*
X008342Y010845D02*
X008418Y010845D01*
X008418Y010924D02*
X008342Y010924D01*
X008342Y011002D02*
X008418Y011002D01*
X008479Y011081D02*
X008280Y011081D01*
X008337Y011159D02*
X008423Y011159D01*
X008418Y011238D02*
X008342Y011238D01*
X008342Y011316D02*
X008418Y011316D01*
X008418Y011395D02*
X008342Y011395D01*
X008342Y011474D02*
X008418Y011474D01*
X008439Y011552D02*
X008321Y011552D01*
X008215Y011631D02*
X008822Y011631D01*
X008818Y011723D02*
X008883Y011787D01*
X008883Y012468D01*
X008818Y012533D01*
X008447Y012533D01*
X008383Y012468D01*
X008383Y011787D01*
X008447Y011723D01*
X008818Y011723D01*
X008901Y011709D02*
X008164Y011709D01*
X008085Y011788D02*
X008383Y011788D01*
X008383Y011866D02*
X008065Y011866D01*
X008065Y011945D02*
X008383Y011945D01*
X008383Y012023D02*
X008065Y012023D01*
X008065Y012102D02*
X008383Y012102D01*
X008383Y012180D02*
X008065Y012180D01*
X008065Y012259D02*
X008383Y012259D01*
X008383Y012338D02*
X008065Y012338D01*
X008065Y012416D02*
X008383Y012416D01*
X008409Y012495D02*
X008065Y012495D01*
X008065Y012573D02*
X008165Y012573D01*
X008090Y012652D02*
X008065Y012652D01*
X007745Y012652D02*
X007415Y012652D01*
X007413Y012646D02*
X007458Y012754D01*
X007458Y012871D01*
X007413Y012980D01*
X007330Y013063D01*
X007221Y013108D01*
X007104Y013108D01*
X006996Y013063D01*
X006913Y012980D01*
X006868Y012871D01*
X006868Y012754D01*
X006913Y012646D01*
X006996Y012563D01*
X007104Y012518D01*
X007221Y012518D01*
X007330Y012563D01*
X007413Y012646D01*
X007448Y012730D02*
X007745Y012730D01*
X007745Y012809D02*
X007458Y012809D01*
X007451Y012887D02*
X007745Y012887D01*
X007745Y012966D02*
X007419Y012966D01*
X007348Y013044D02*
X007745Y013044D01*
X007810Y013123D02*
X006623Y013123D01*
X006623Y013044D02*
X006977Y013044D01*
X006907Y012966D02*
X005968Y012966D01*
X005968Y013044D02*
X006013Y013044D01*
X006013Y013123D02*
X005968Y013123D01*
X005968Y013202D02*
X006013Y013202D01*
X006013Y013280D02*
X005968Y013280D01*
X005968Y013359D02*
X006013Y013359D01*
X006013Y013437D02*
X005968Y013437D01*
X005968Y012887D02*
X006874Y012887D01*
X006868Y012809D02*
X005968Y012809D01*
X005968Y012730D02*
X006878Y012730D01*
X006910Y012652D02*
X005968Y012652D01*
X005968Y012573D02*
X006013Y012573D01*
X006013Y012495D02*
X005968Y012495D01*
X005968Y012416D02*
X006013Y012416D01*
X006013Y012338D02*
X005968Y012338D01*
X005968Y012259D02*
X006013Y012259D01*
X006013Y012180D02*
X005968Y012180D01*
X005968Y012102D02*
X006613Y012102D01*
X006613Y012023D02*
X005968Y012023D01*
X006613Y011945D02*
X002296Y011945D01*
X002375Y012023D02*
X002441Y012023D01*
X002441Y012102D02*
X002426Y012102D01*
X002218Y011866D02*
X006613Y011866D01*
X006613Y011788D02*
X002089Y011788D01*
X001900Y011709D02*
X003539Y011709D01*
X003480Y011631D02*
X001254Y011631D01*
X001267Y011552D02*
X003474Y011552D01*
X003474Y011474D02*
X001267Y011474D01*
X001267Y011395D02*
X001516Y011395D01*
X001437Y011316D02*
X001196Y011316D01*
X001211Y011331D02*
X001211Y011331D01*
X001221Y011238D02*
X001386Y011238D01*
X001354Y011159D02*
X001267Y011159D01*
X001267Y011081D02*
X001347Y011081D01*
X001347Y011002D02*
X001194Y011002D01*
X001090Y010845D02*
X001408Y010845D01*
X001374Y010924D02*
X000973Y010924D01*
X001185Y011699D02*
X001185Y011699D01*
X001175Y011709D02*
X001510Y011709D01*
X001320Y011788D02*
X000725Y011788D01*
X000725Y011866D02*
X001192Y011866D01*
X001113Y011945D02*
X000725Y011945D01*
X000725Y012023D02*
X001035Y012023D01*
X000983Y012102D02*
X000725Y012102D01*
X000725Y012180D02*
X000951Y012180D01*
X000918Y012259D02*
X000725Y012259D01*
X000725Y012338D02*
X000886Y012338D01*
X000876Y012416D02*
X000725Y012416D01*
X000725Y012495D02*
X000876Y012495D01*
X000876Y012573D02*
X000725Y012573D01*
X000725Y012652D02*
X000876Y012652D01*
X000893Y012730D02*
X000725Y012730D01*
X000725Y012809D02*
X000925Y012809D01*
X000958Y012887D02*
X000725Y012887D01*
X000725Y012966D02*
X000990Y012966D01*
X001052Y013044D02*
X000725Y013044D01*
X000725Y013123D02*
X001130Y013123D01*
X001209Y013202D02*
X000725Y013202D01*
X000725Y013280D02*
X001361Y013280D01*
X000725Y013359D02*
X002441Y013359D01*
X002441Y013437D02*
X000725Y013437D01*
X002048Y013280D02*
X002441Y013280D01*
X002441Y013202D02*
X002200Y013202D01*
X002279Y013123D02*
X002441Y013123D01*
X002441Y013044D02*
X002357Y013044D01*
X002419Y012966D02*
X002441Y012966D01*
X003291Y012966D02*
X005118Y012966D01*
X005118Y013044D02*
X003291Y013044D01*
X003291Y013123D02*
X005118Y013123D01*
X005118Y013202D02*
X003291Y013202D01*
X003291Y013280D02*
X005118Y013280D01*
X005118Y013359D02*
X003291Y013359D01*
X003291Y013437D02*
X005118Y013437D01*
X005118Y012887D02*
X003291Y012887D01*
X003291Y012809D02*
X005118Y012809D01*
X005118Y012730D02*
X003291Y012730D01*
X003291Y012652D02*
X005118Y012652D01*
X005118Y012573D02*
X003291Y012573D01*
X003291Y012495D02*
X005118Y012495D01*
X005118Y012416D02*
X003291Y012416D01*
X003291Y012338D02*
X005118Y012338D01*
X005118Y012259D02*
X003291Y012259D01*
X003291Y012180D02*
X005118Y012180D01*
X005118Y012102D02*
X003291Y012102D01*
X003291Y012023D02*
X005118Y012023D01*
X004292Y011631D02*
X004142Y011631D01*
X004148Y011552D02*
X004292Y011552D01*
X004292Y011474D02*
X004148Y011474D01*
X004148Y011395D02*
X004292Y011395D01*
X004292Y011316D02*
X004148Y011316D01*
X004148Y011238D02*
X004292Y011238D01*
X004292Y011159D02*
X004148Y011159D01*
X004148Y011081D02*
X004292Y011081D01*
X004292Y011002D02*
X004148Y011002D01*
X004148Y010924D02*
X004292Y010924D01*
X004292Y010845D02*
X004148Y010845D01*
X004148Y010767D02*
X004292Y010767D01*
X004292Y010688D02*
X003851Y010688D01*
X004148Y010610D02*
X004292Y010610D01*
X004292Y010531D02*
X004148Y010531D01*
X004148Y010453D02*
X004292Y010453D01*
X004292Y010374D02*
X004148Y010374D01*
X004148Y010295D02*
X004292Y010295D01*
X004292Y010217D02*
X004148Y010217D01*
X004148Y010138D02*
X004292Y010138D01*
X004292Y010060D02*
X004148Y010060D01*
X004148Y009981D02*
X004292Y009981D01*
X004292Y009903D02*
X004148Y009903D01*
X004148Y009824D02*
X004292Y009824D01*
X004292Y009746D02*
X004144Y009746D01*
X003765Y009353D02*
X003402Y009353D01*
X003480Y009274D02*
X003687Y009274D01*
X003645Y009196D02*
X003535Y009196D01*
X003535Y009117D02*
X003645Y009117D01*
X003645Y009002D02*
X003645Y008851D01*
X003914Y008582D01*
X004065Y008582D01*
X004065Y009002D01*
X003645Y009002D01*
X003645Y008960D02*
X003535Y008960D01*
X003535Y008882D02*
X003645Y008882D01*
X003693Y008803D02*
X003474Y008803D01*
X003395Y008725D02*
X003771Y008725D01*
X003850Y008646D02*
X003317Y008646D01*
X003344Y008410D02*
X003865Y008410D01*
X003787Y008332D02*
X003423Y008332D01*
X003501Y008253D02*
X003708Y008253D01*
X003675Y008175D02*
X003535Y008175D01*
X003535Y008096D02*
X003675Y008096D01*
X003675Y008018D02*
X003535Y008018D01*
X003535Y007939D02*
X003675Y007939D01*
X003678Y007861D02*
X003531Y007861D01*
X003453Y007782D02*
X003756Y007782D01*
X003835Y007704D02*
X003374Y007704D01*
X003031Y007389D02*
X002023Y007389D01*
X001930Y007468D02*
X002952Y007468D01*
X002945Y007546D02*
X001853Y007546D01*
X001991Y007625D02*
X002914Y007625D01*
X002835Y007704D02*
X002066Y007704D01*
X002098Y007782D02*
X002756Y007782D01*
X002678Y007861D02*
X002122Y007861D01*
X002122Y007939D02*
X002675Y007939D01*
X002675Y008018D02*
X002112Y008018D01*
X002080Y008096D02*
X002675Y008096D01*
X002675Y008175D02*
X002024Y008175D01*
X001934Y008253D02*
X002667Y008253D01*
X002588Y008332D02*
X001848Y008332D01*
X001989Y008410D02*
X002510Y008410D01*
X002431Y008489D02*
X002065Y008489D01*
X002097Y008567D02*
X002353Y008567D01*
X002274Y008646D02*
X002122Y008646D01*
X002122Y008725D02*
X002196Y008725D01*
X002117Y008803D02*
X002113Y008803D01*
X002334Y009039D02*
X002675Y009039D01*
X002675Y009117D02*
X002256Y009117D01*
X002177Y009196D02*
X002675Y009196D01*
X002646Y009274D02*
X002098Y009274D01*
X002097Y009353D02*
X002567Y009353D01*
X002489Y009431D02*
X002122Y009431D01*
X002122Y009510D02*
X002410Y009510D01*
X002332Y009589D02*
X002114Y009589D01*
X002081Y009667D02*
X002253Y009667D01*
X002175Y009746D02*
X002028Y009746D01*
X002096Y009824D02*
X001944Y009824D01*
X002018Y009903D02*
X001839Y009903D01*
X002122Y010295D02*
X003474Y010295D01*
X003474Y010217D02*
X002156Y010217D01*
X002234Y010138D02*
X003474Y010138D01*
X003474Y010060D02*
X002313Y010060D01*
X002392Y009981D02*
X003474Y009981D01*
X003474Y009903D02*
X002470Y009903D01*
X002549Y009824D02*
X003474Y009824D01*
X003478Y009746D02*
X002627Y009746D01*
X002706Y009667D02*
X003004Y009667D01*
X002945Y009589D02*
X002784Y009589D01*
X002863Y009510D02*
X002945Y009510D01*
X002675Y008960D02*
X002413Y008960D01*
X002491Y008882D02*
X002675Y008882D01*
X002735Y008803D02*
X002570Y008803D01*
X002648Y008725D02*
X002814Y008725D01*
X002892Y008646D02*
X002727Y008646D01*
X002805Y008567D02*
X004445Y008567D01*
X004445Y008489D02*
X002884Y008489D01*
X003535Y009039D02*
X004065Y009039D01*
X004065Y008960D02*
X004145Y008960D01*
X004145Y008882D02*
X004065Y008882D01*
X004065Y008803D02*
X004145Y008803D01*
X004145Y008725D02*
X004065Y008725D01*
X004065Y008646D02*
X004145Y008646D01*
X004359Y008646D02*
X004445Y008646D01*
X004438Y008725D02*
X004445Y008725D01*
X004445Y008410D02*
X004344Y008410D01*
X004423Y008332D02*
X004445Y008332D01*
X004765Y008332D02*
X004787Y008332D01*
X004765Y008410D02*
X004865Y008410D01*
X004765Y008489D02*
X005326Y008489D01*
X005099Y008725D02*
X004765Y008725D01*
X004765Y008803D02*
X005069Y008803D01*
X005069Y008882D02*
X004765Y008882D01*
X004765Y008960D02*
X005069Y008960D01*
X006553Y010060D02*
X007799Y010060D01*
X007794Y010138D02*
X006553Y010138D01*
X006553Y010217D02*
X007722Y010217D01*
X007689Y010295D02*
X007616Y010295D01*
X007663Y010374D02*
X007677Y010374D01*
X007677Y010453D02*
X007663Y010453D01*
X007663Y010531D02*
X007707Y010531D01*
X007663Y010610D02*
X007758Y010610D01*
X007768Y010688D02*
X007663Y010688D01*
X007663Y010767D02*
X007768Y010767D01*
X007768Y010845D02*
X007663Y010845D01*
X007663Y010924D02*
X007768Y010924D01*
X007768Y011002D02*
X007663Y011002D01*
X007663Y011081D02*
X007829Y011081D01*
X007773Y011159D02*
X007645Y011159D01*
X007591Y011264D02*
X007683Y011356D01*
X007733Y011477D01*
X007733Y011607D01*
X007683Y011728D01*
X007663Y011748D01*
X007703Y011787D01*
X007703Y012468D01*
X007638Y012533D01*
X007267Y012533D01*
X007203Y012468D01*
X007203Y011804D01*
X007127Y011728D01*
X007077Y011607D01*
X007077Y011477D01*
X007127Y011356D01*
X007219Y011264D01*
X007339Y011214D01*
X007470Y011214D01*
X007591Y011264D01*
X007528Y011238D02*
X007768Y011238D01*
X007768Y011316D02*
X007643Y011316D01*
X007699Y011395D02*
X007768Y011395D01*
X007768Y011474D02*
X007732Y011474D01*
X007733Y011552D02*
X007789Y011552D01*
X007790Y011631D02*
X007723Y011631D01*
X007745Y011709D02*
X007691Y011709D01*
X007703Y011788D02*
X007745Y011788D01*
X007745Y011866D02*
X007703Y011866D01*
X007703Y011945D02*
X007745Y011945D01*
X007745Y012023D02*
X007703Y012023D01*
X007703Y012102D02*
X007745Y012102D01*
X007745Y012180D02*
X007703Y012180D01*
X007703Y012259D02*
X007745Y012259D01*
X007745Y012338D02*
X007703Y012338D01*
X007703Y012416D02*
X007745Y012416D01*
X007745Y012495D02*
X007676Y012495D01*
X007745Y012573D02*
X007340Y012573D01*
X007229Y012495D02*
X007086Y012495D01*
X007113Y012416D02*
X007203Y012416D01*
X007203Y012338D02*
X007113Y012338D01*
X007113Y012259D02*
X007203Y012259D01*
X007203Y012180D02*
X007113Y012180D01*
X007113Y012102D02*
X007203Y012102D01*
X007203Y012023D02*
X007113Y012023D01*
X007113Y011945D02*
X007203Y011945D01*
X007203Y011866D02*
X007113Y011866D01*
X007113Y011788D02*
X007187Y011788D01*
X007119Y011709D02*
X007023Y011709D01*
X007023Y011631D02*
X007086Y011631D01*
X007077Y011552D02*
X007023Y011552D01*
X007023Y011474D02*
X007078Y011474D01*
X007110Y011395D02*
X007023Y011395D01*
X007023Y011316D02*
X007166Y011316D01*
X007086Y011238D02*
X007281Y011238D01*
X007751Y009981D02*
X007799Y009981D01*
X008883Y011788D02*
X008979Y011788D01*
X009058Y011866D02*
X008883Y011866D01*
X008883Y011945D02*
X009136Y011945D01*
X009215Y012023D02*
X008883Y012023D01*
X008883Y012102D02*
X009293Y012102D01*
X009493Y012338D02*
X009529Y012338D01*
X009493Y012416D02*
X009607Y012416D01*
X009686Y012495D02*
X009493Y012495D01*
X009493Y012573D02*
X009765Y012573D01*
X009842Y012652D02*
X008595Y012652D01*
X008628Y012730D02*
X008840Y012730D01*
X008761Y012809D02*
X008638Y012809D01*
X008631Y012887D02*
X008683Y012887D01*
X008604Y012966D02*
X008599Y012966D01*
X008821Y013202D02*
X008883Y013202D01*
X008883Y013280D02*
X008743Y013280D01*
X008664Y013359D02*
X008883Y013359D01*
X008883Y013437D02*
X006623Y013437D01*
X006623Y013359D02*
X008045Y013359D01*
X007967Y013280D02*
X006623Y013280D01*
X006623Y013202D02*
X007888Y013202D01*
X008520Y012573D02*
X008883Y012573D01*
X008883Y012495D02*
X008856Y012495D01*
X008883Y012416D02*
X008883Y012416D01*
X008883Y012338D02*
X008883Y012338D01*
X008883Y012259D02*
X008883Y012259D01*
X008883Y012180D02*
X008883Y012180D01*
X009510Y011866D02*
X009904Y011866D01*
X009842Y011945D02*
X009589Y011945D01*
X009667Y012023D02*
X009842Y012023D01*
X009842Y012102D02*
X009746Y012102D01*
X009824Y012180D02*
X009842Y012180D01*
X010060Y012416D02*
X010467Y012416D01*
X010411Y012338D02*
X010374Y012338D01*
X010377Y012259D02*
X010403Y012259D01*
X010403Y012180D02*
X010377Y012180D01*
X010377Y012102D02*
X010661Y012102D01*
X010661Y012180D02*
X010739Y012180D01*
X010739Y012259D02*
X010661Y012259D01*
X010661Y012338D02*
X010739Y012338D01*
X010739Y012416D02*
X010661Y012416D01*
X010661Y012495D02*
X010739Y012495D01*
X010739Y012573D02*
X010661Y012573D01*
X010661Y012652D02*
X010739Y012652D01*
X010661Y012730D02*
X010377Y012730D01*
X010377Y012652D02*
X010403Y012652D01*
X010403Y012573D02*
X010377Y012573D01*
X010377Y012495D02*
X010408Y012495D01*
X010403Y012809D02*
X010377Y012809D01*
X010377Y012887D02*
X010408Y012887D01*
X010464Y012966D02*
X009955Y012966D01*
X009842Y012809D02*
X009798Y012809D01*
X009842Y012730D02*
X009719Y012730D01*
X010377Y013044D02*
X010408Y013044D01*
X010403Y013123D02*
X010377Y013123D01*
X010377Y013202D02*
X010403Y013202D01*
X010377Y013280D02*
X010661Y013280D01*
X010661Y013202D02*
X010739Y013202D01*
X010739Y013123D02*
X010661Y013123D01*
X010661Y013044D02*
X010739Y013044D01*
X010739Y012966D02*
X010661Y012966D01*
X010661Y012887D02*
X010739Y012887D01*
X010739Y012809D02*
X010661Y012809D01*
X010403Y013359D02*
X010377Y013359D01*
X010377Y013437D02*
X010408Y013437D01*
X010377Y012023D02*
X010403Y012023D01*
X010405Y011945D02*
X010377Y011945D01*
X010314Y011866D02*
X010453Y011866D01*
X010265Y011788D02*
X010918Y011788D01*
X010918Y011709D02*
X010265Y011709D01*
X010265Y011631D02*
X010918Y011631D01*
X010918Y011552D02*
X010265Y011552D01*
X010265Y011474D02*
X010918Y011474D01*
X010918Y011395D02*
X010615Y011395D01*
X010694Y011316D02*
X010918Y011316D01*
X010918Y011238D02*
X010744Y011238D01*
X010777Y011159D02*
X010918Y011159D01*
X010918Y011081D02*
X010784Y011081D01*
X010784Y011002D02*
X010918Y011002D01*
X010918Y010924D02*
X010756Y010924D01*
X010723Y010845D02*
X010918Y010845D01*
X010918Y010767D02*
X010644Y010767D01*
X010067Y010060D02*
X010065Y010060D01*
X010065Y009981D02*
X010146Y009981D01*
X010065Y009903D02*
X010292Y009903D01*
X010187Y009824D02*
X010065Y009824D01*
X010065Y009746D02*
X010102Y009746D01*
X010500Y009903D02*
X010918Y009903D01*
X010739Y011866D02*
X010661Y011866D01*
X010661Y011945D02*
X010739Y011945D01*
X010739Y012023D02*
X010661Y012023D01*
X006985Y012573D02*
X006623Y012573D01*
X006623Y012495D02*
X006639Y012495D01*
X003474Y011395D02*
X001953Y011395D01*
X002032Y011316D02*
X002891Y011316D01*
X002821Y011238D02*
X002083Y011238D01*
X002062Y010845D02*
X002862Y010845D01*
X002971Y010767D02*
X001983Y010767D01*
X001949Y010610D02*
X003474Y010610D01*
X003474Y010531D02*
X002030Y010531D01*
X002082Y010453D02*
X003474Y010453D01*
X003474Y010374D02*
X002115Y010374D01*
X003239Y010767D02*
X003474Y010767D01*
X003474Y010845D02*
X003348Y010845D01*
X003401Y010924D02*
X003474Y010924D01*
X003474Y011002D02*
X003433Y011002D01*
X003433Y011081D02*
X003474Y011081D01*
X003474Y011159D02*
X003421Y011159D01*
X003389Y011238D02*
X003474Y011238D01*
X003474Y011316D02*
X003318Y011316D01*
X001129Y011756D02*
X001129Y011756D01*
X000739Y011709D02*
X000725Y011709D01*
X002900Y006761D02*
X003232Y006761D01*
X003189Y006382D02*
X002944Y006382D01*
X002940Y006374D01*
X002971Y006365D01*
X003003Y006347D01*
X003029Y006321D01*
X003048Y006289D01*
X003057Y006253D01*
X003057Y006126D01*
X002769Y006126D01*
X002769Y006068D01*
X003057Y006068D01*
X003057Y005941D01*
X003048Y005905D01*
X003029Y005873D01*
X003003Y005847D01*
X002971Y005829D01*
X002968Y005828D01*
X003027Y005769D01*
X003027Y005745D01*
X003182Y005745D01*
X003168Y005768D01*
X003159Y005804D01*
X003159Y005917D01*
X003533Y005917D01*
X003533Y005947D01*
X003159Y005947D01*
X003159Y006061D01*
X003168Y006096D01*
X003187Y006128D01*
X003189Y006130D01*
X003189Y006382D01*
X003189Y006368D02*
X002960Y006368D01*
X003047Y006290D02*
X003189Y006290D01*
X003189Y006211D02*
X003057Y006211D01*
X003057Y006133D02*
X003189Y006133D01*
X003159Y006054D02*
X003057Y006054D01*
X003057Y005976D02*
X003159Y005976D01*
X003159Y005897D02*
X003043Y005897D01*
X002977Y005818D02*
X003159Y005818D01*
X003159Y005425D02*
X003027Y005425D01*
X003027Y005402D01*
X002993Y005368D01*
X003033Y005328D01*
X003083Y005207D01*
X003083Y005152D01*
X003165Y005152D01*
X003159Y005174D01*
X003159Y005287D01*
X003533Y005287D01*
X003533Y005318D01*
X003159Y005318D01*
X003159Y005425D01*
X003159Y005347D02*
X003013Y005347D01*
X003057Y005269D02*
X003159Y005269D01*
X003159Y005190D02*
X003083Y005190D01*
X002286Y004012D02*
X001774Y004012D01*
X001696Y004012D02*
X000965Y004012D01*
X001166Y003462D02*
X001243Y003462D01*
X001243Y003384D02*
X001166Y003384D01*
X001166Y003305D02*
X001243Y003305D01*
X001481Y003305D02*
X002341Y003305D01*
X002301Y003227D02*
X000965Y003227D01*
X001472Y003148D02*
X002301Y003148D01*
X002301Y003069D02*
X001472Y003069D01*
X001502Y003619D02*
X001522Y003619D01*
X001696Y003619D02*
X001773Y003619D01*
X001773Y003698D02*
X001696Y003698D01*
X001696Y003776D02*
X001773Y003776D01*
X001773Y003855D02*
X001696Y003855D01*
X001696Y003933D02*
X001773Y003933D01*
X001947Y003619D02*
X002314Y003619D01*
X002314Y003698D02*
X002043Y003698D01*
X002100Y003776D02*
X002314Y003776D01*
X002314Y003855D02*
X002133Y003855D01*
X002150Y003933D02*
X002330Y003933D01*
X001927Y005190D02*
X001867Y005190D01*
X001997Y005269D02*
X002005Y005269D01*
X002019Y005818D02*
X002045Y005818D01*
X002045Y005897D02*
X001920Y005897D01*
X001863Y005976D02*
X002045Y005976D01*
X002045Y006054D02*
X001995Y006054D01*
X002765Y001734D02*
X002804Y001734D01*
X002765Y001656D02*
X002883Y001656D01*
X002765Y001577D02*
X003445Y001577D01*
X003445Y001499D02*
X002765Y001499D01*
X002709Y001420D02*
X002875Y001420D01*
X002927Y001472D02*
X002675Y001220D01*
X002675Y000864D01*
X002927Y000612D01*
X003283Y000612D01*
X003535Y000864D01*
X003535Y001220D01*
X003283Y001472D01*
X002927Y001472D01*
X002796Y001341D02*
X002631Y001341D01*
X002552Y001263D02*
X002718Y001263D01*
X002675Y001184D02*
X002535Y001184D01*
X002535Y001106D02*
X002675Y001106D01*
X002675Y001027D02*
X002535Y001027D01*
X002535Y000949D02*
X002675Y000949D01*
X002675Y000870D02*
X002535Y000870D01*
X002463Y000792D02*
X002747Y000792D01*
X002825Y000713D02*
X002384Y000713D01*
X002306Y000635D02*
X002904Y000635D01*
X003306Y000635D02*
X003904Y000635D01*
X003825Y000713D02*
X003384Y000713D01*
X003463Y000792D02*
X003747Y000792D01*
X003675Y000870D02*
X003535Y000870D01*
X003535Y000949D02*
X003675Y000949D01*
X003675Y001027D02*
X003535Y001027D01*
X003535Y001106D02*
X003675Y001106D01*
X003675Y001184D02*
X003535Y001184D01*
X003492Y001263D02*
X003657Y001263D01*
X003579Y001341D02*
X003413Y001341D01*
X003335Y001420D02*
X003500Y001420D01*
X003445Y001656D02*
X003327Y001656D01*
X003405Y001734D02*
X003445Y001734D01*
X003765Y001734D02*
X003804Y001734D01*
X003765Y001656D02*
X003883Y001656D01*
X003796Y001577D02*
X004445Y001577D01*
X004445Y001499D02*
X003874Y001499D01*
X004335Y001420D02*
X004500Y001420D01*
X004579Y001341D02*
X004413Y001341D01*
X004492Y001263D02*
X004657Y001263D01*
X004675Y001184D02*
X004535Y001184D01*
X004535Y001106D02*
X004675Y001106D01*
X004675Y001027D02*
X004535Y001027D01*
X004535Y000949D02*
X004675Y000949D01*
X004675Y000870D02*
X004535Y000870D01*
X004463Y000792D02*
X004747Y000792D01*
X004825Y000713D02*
X004384Y000713D01*
X004306Y000635D02*
X004904Y000635D01*
X005306Y000635D02*
X005904Y000635D01*
X005825Y000713D02*
X005384Y000713D01*
X005463Y000792D02*
X005747Y000792D01*
X005675Y000870D02*
X005535Y000870D01*
X005535Y000949D02*
X005675Y000949D01*
X005675Y001027D02*
X005535Y001027D01*
X005535Y001106D02*
X005675Y001106D01*
X005675Y001184D02*
X005535Y001184D01*
X005492Y001263D02*
X005657Y001263D01*
X005579Y001341D02*
X005413Y001341D01*
X005335Y001420D02*
X005500Y001420D01*
X005445Y001499D02*
X004874Y001499D01*
X004796Y001577D02*
X005445Y001577D01*
X005445Y001656D02*
X005327Y001656D01*
X005405Y001734D02*
X005445Y001734D01*
X004883Y001656D02*
X004765Y001656D01*
X004765Y001734D02*
X004804Y001734D01*
X004445Y001734D02*
X004405Y001734D01*
X004445Y001656D02*
X004327Y001656D01*
X002445Y001656D02*
X002369Y001656D01*
X006305Y000635D02*
X006536Y000635D01*
X006457Y000713D02*
X006384Y000713D01*
D30*
X007255Y003942D03*
X005905Y005292D03*
X005505Y005642D03*
X005855Y006042D03*
X005205Y006492D03*
X004505Y005642D03*
X004155Y006192D03*
X005005Y004992D03*
X003555Y003342D03*
X002105Y003242D03*
X002755Y005142D03*
X002655Y006542D03*
X005255Y010842D03*
X006705Y008242D03*
X007605Y008642D03*
X008005Y007842D03*
X008005Y007242D03*
X007655Y005992D03*
X006905Y007042D03*
X009005Y008242D03*
X008005Y010392D03*
X007405Y011542D03*
X010705Y011642D03*
X009655Y005392D03*
X009755Y004842D03*
X009005Y004392D03*
X009555Y003392D03*
X009105Y003042D03*
X003105Y011066D03*
M02*
