G75*
G70*
%OFA0B0*%
%FSLAX24Y24*%
%IPPOS*%
%LPD*%
%AMOC8*
5,1,8,0,0,1.08239X$1,22.5*
%
%ADD10C,0.0060*%
%ADD11C,0.0080*%
%ADD12C,0.0100*%
%ADD13C,0.0050*%
D10*
X000688Y000376D02*
X000731Y000333D01*
X000818Y000333D01*
X000861Y000376D01*
X000774Y000463D02*
X000731Y000463D01*
X000688Y000419D01*
X000688Y000376D01*
X000731Y000463D02*
X000688Y000506D01*
X000688Y000549D01*
X000731Y000593D01*
X000818Y000593D01*
X000861Y000549D01*
X000982Y000593D02*
X000982Y000419D01*
X001069Y000333D01*
X001156Y000419D01*
X001156Y000593D01*
X001277Y000549D02*
X001277Y000506D01*
X001320Y000463D01*
X001277Y000419D01*
X001277Y000376D01*
X001320Y000333D01*
X001407Y000333D01*
X001450Y000376D01*
X001364Y000463D02*
X001320Y000463D01*
X001277Y000549D02*
X001320Y000593D01*
X001407Y000593D01*
X001450Y000549D01*
X001845Y000597D02*
X002019Y000337D01*
X002227Y000337D02*
X002227Y000597D01*
X002313Y000597D02*
X002140Y000597D01*
X002019Y000597D02*
X001845Y000337D01*
X002659Y000394D02*
X002703Y000351D01*
X002833Y000351D01*
X002833Y000264D02*
X002833Y000524D01*
X002703Y000524D01*
X002659Y000481D01*
X002659Y000394D01*
X002954Y000394D02*
X002997Y000351D01*
X003084Y000351D01*
X003127Y000394D01*
X003249Y000394D02*
X003249Y000567D01*
X003292Y000611D01*
X003422Y000611D01*
X003422Y000351D01*
X003292Y000351D01*
X003249Y000394D01*
X003127Y000567D02*
X003084Y000611D01*
X002997Y000611D01*
X002954Y000567D01*
X002954Y000524D01*
X002997Y000481D01*
X002954Y000437D01*
X002954Y000394D01*
X002997Y000481D02*
X003041Y000481D01*
X003628Y000481D02*
X003628Y000394D01*
X003671Y000351D01*
X003801Y000351D01*
X003801Y000264D02*
X003801Y000524D01*
X003671Y000524D01*
X003628Y000481D01*
X003922Y000437D02*
X003922Y000394D01*
X003966Y000351D01*
X004052Y000351D01*
X004096Y000394D01*
X004096Y000481D01*
X003966Y000481D01*
X003922Y000437D01*
X004009Y000567D02*
X003922Y000611D01*
X004009Y000567D02*
X004096Y000481D01*
X004217Y000567D02*
X004217Y000394D01*
X004260Y000351D01*
X004390Y000351D01*
X004390Y000611D01*
X004260Y000611D01*
X004217Y000567D01*
X004764Y000567D02*
X004764Y000524D01*
X004807Y000481D01*
X004894Y000481D01*
X004938Y000524D01*
X004938Y000567D01*
X004894Y000611D01*
X004807Y000611D01*
X004764Y000567D01*
X004807Y000481D02*
X004764Y000437D01*
X004764Y000394D01*
X004807Y000351D01*
X004894Y000351D01*
X004938Y000394D01*
X004938Y000437D01*
X004894Y000481D01*
X005059Y000394D02*
X005059Y000567D01*
X005102Y000611D01*
X005232Y000611D01*
X005232Y000351D01*
X005102Y000351D01*
X005059Y000394D01*
X005462Y000394D02*
X005506Y000351D01*
X005636Y000351D01*
X005636Y000264D02*
X005636Y000524D01*
X005506Y000524D01*
X005462Y000481D01*
X005462Y000394D01*
X005757Y000394D02*
X005757Y000567D01*
X005930Y000394D01*
X005887Y000351D01*
X005800Y000351D01*
X005757Y000394D01*
X005930Y000394D02*
X005930Y000567D01*
X005887Y000611D01*
X005800Y000611D01*
X005757Y000567D01*
X006051Y000351D02*
X006225Y000351D01*
X006138Y000351D02*
X006138Y000611D01*
X006225Y000524D01*
X006346Y000567D02*
X006346Y000394D01*
X006390Y000351D01*
X006520Y000351D01*
X006520Y000611D01*
X006390Y000611D01*
X006346Y000567D01*
X006772Y000567D02*
X006945Y000394D01*
X006945Y000351D01*
X007067Y000351D02*
X007067Y000524D01*
X007153Y000611D01*
X007240Y000524D01*
X007240Y000351D01*
X007240Y000481D02*
X007067Y000481D01*
X006945Y000611D02*
X006772Y000611D01*
X006772Y000567D01*
X007668Y000351D02*
X007841Y000351D01*
X007841Y000611D01*
X007963Y000567D02*
X008006Y000611D01*
X008093Y000611D01*
X008136Y000567D01*
X008136Y000394D01*
X008093Y000351D01*
X008006Y000351D01*
X007963Y000394D01*
X008257Y000394D02*
X008301Y000351D01*
X008387Y000351D01*
X008431Y000394D01*
X008387Y000481D02*
X008301Y000481D01*
X008257Y000437D01*
X008257Y000394D01*
X008387Y000481D02*
X008431Y000524D01*
X008431Y000567D01*
X008387Y000611D01*
X008301Y000611D01*
X008257Y000567D01*
X008840Y000567D02*
X008840Y000524D01*
X008884Y000481D01*
X008840Y000437D01*
X008840Y000394D01*
X008884Y000351D01*
X008971Y000351D01*
X009014Y000394D01*
X008927Y000481D02*
X008884Y000481D01*
X008840Y000567D02*
X008884Y000611D01*
X008971Y000611D01*
X009014Y000567D01*
X009135Y000524D02*
X009135Y000351D01*
X009135Y000481D02*
X009309Y000481D01*
X009309Y000524D02*
X009222Y000611D01*
X009135Y000524D01*
X009309Y000524D02*
X009309Y000351D01*
X009764Y000351D02*
X009938Y000351D01*
X009851Y000351D02*
X009851Y000611D01*
X009938Y000524D01*
X010059Y000524D02*
X010059Y000351D01*
X010059Y000481D02*
X010232Y000481D01*
X010232Y000524D02*
X010145Y000611D01*
X010059Y000524D01*
X010232Y000524D02*
X010232Y000351D01*
X010159Y002437D02*
X010159Y002611D01*
X010245Y002697D01*
X010332Y002611D01*
X010332Y002437D01*
X010332Y002567D02*
X010159Y002567D01*
X010038Y002481D02*
X009864Y002654D01*
X009864Y002481D01*
X009907Y002437D01*
X009994Y002437D01*
X010038Y002481D01*
X010038Y002654D01*
X009994Y002697D01*
X009907Y002697D01*
X009864Y002654D01*
X009309Y002611D02*
X009309Y002437D01*
X009309Y002567D02*
X009135Y002567D01*
X009135Y002611D02*
X009135Y002437D01*
X009135Y002611D02*
X009222Y002697D01*
X009309Y002611D01*
X009014Y002654D02*
X008971Y002697D01*
X008884Y002697D01*
X008840Y002654D01*
X008840Y002611D01*
X009014Y002437D01*
X008840Y002437D01*
X008431Y002481D02*
X008387Y002437D01*
X008301Y002437D01*
X008257Y002481D01*
X008257Y002524D01*
X008301Y002567D01*
X008387Y002567D01*
X008431Y002611D01*
X008431Y002654D01*
X008387Y002697D01*
X008301Y002697D01*
X008257Y002654D01*
X008136Y002697D02*
X008136Y002437D01*
X008006Y002437D01*
X007963Y002481D01*
X007963Y002654D01*
X008006Y002697D01*
X008136Y002697D01*
X007841Y002611D02*
X007841Y002437D01*
X007841Y002567D02*
X007668Y002567D01*
X007668Y002611D02*
X007668Y002437D01*
X007668Y002611D02*
X007755Y002697D01*
X007841Y002611D01*
X007745Y002772D02*
X007745Y002902D01*
X007701Y002945D01*
X007528Y002945D01*
X007484Y002902D01*
X007484Y002772D01*
X007745Y002772D01*
X007658Y003067D02*
X007745Y003153D01*
X007484Y003153D01*
X007484Y003067D02*
X007484Y003240D01*
X007484Y003361D02*
X007484Y003535D01*
X007484Y003448D02*
X007745Y003448D01*
X007658Y003361D01*
X007153Y002697D02*
X007067Y002611D01*
X007067Y002437D01*
X006945Y002481D02*
X006945Y002567D01*
X006815Y002567D01*
X006772Y002524D01*
X006772Y002481D01*
X006815Y002437D01*
X006902Y002437D01*
X006945Y002481D01*
X006945Y002567D02*
X006859Y002654D01*
X006772Y002697D01*
X006520Y002697D02*
X006520Y002437D01*
X006390Y002437D01*
X006346Y002481D01*
X006346Y002654D01*
X006390Y002697D01*
X006520Y002697D01*
X006225Y002611D02*
X006138Y002697D01*
X006138Y002437D01*
X006225Y002437D02*
X006051Y002437D01*
X005930Y002437D02*
X005757Y002437D01*
X005844Y002437D02*
X005844Y002697D01*
X005930Y002611D01*
X005636Y002611D02*
X005636Y002351D01*
X005636Y002437D02*
X005506Y002437D01*
X005462Y002481D01*
X005462Y002567D01*
X005506Y002611D01*
X005636Y002611D01*
X005314Y002697D02*
X005314Y002437D01*
X005184Y002437D01*
X005141Y002481D01*
X005141Y002654D01*
X005184Y002697D01*
X005314Y002697D01*
X005019Y002654D02*
X005019Y002611D01*
X004976Y002567D01*
X004846Y002567D01*
X004846Y002481D02*
X004846Y002654D01*
X004889Y002697D01*
X004976Y002697D01*
X005019Y002654D01*
X005019Y002481D02*
X004976Y002437D01*
X004889Y002437D01*
X004846Y002481D01*
X004725Y002437D02*
X004595Y002437D01*
X004551Y002481D01*
X004551Y002567D01*
X004595Y002611D01*
X004725Y002611D01*
X004725Y002351D01*
X004248Y002437D02*
X004118Y002437D01*
X004074Y002481D01*
X004074Y002654D01*
X004118Y002697D01*
X004248Y002697D01*
X004248Y002437D01*
X003953Y002437D02*
X003953Y002481D01*
X003780Y002654D01*
X003780Y002697D01*
X003953Y002697D01*
X003446Y002697D02*
X003446Y002437D01*
X003316Y002437D01*
X003272Y002481D01*
X003272Y002654D01*
X003316Y002697D01*
X003446Y002697D01*
X003151Y002697D02*
X003151Y002567D01*
X003064Y002611D01*
X003021Y002611D01*
X002977Y002567D01*
X002977Y002481D01*
X003021Y002437D01*
X003108Y002437D01*
X003151Y002481D01*
X003151Y002697D02*
X002977Y002697D01*
X002856Y002611D02*
X002726Y002611D01*
X002683Y002567D01*
X002683Y002481D01*
X002726Y002437D01*
X002856Y002437D01*
X002856Y002351D02*
X002856Y002611D01*
X002313Y002697D02*
X002313Y002437D01*
X002313Y002524D02*
X002183Y002524D01*
X002140Y002567D01*
X002140Y002654D01*
X002183Y002697D01*
X002313Y002697D01*
X002227Y002524D02*
X002140Y002437D01*
X002019Y002437D02*
X001845Y002697D01*
X002019Y002697D02*
X001845Y002437D01*
X001413Y002481D02*
X001370Y002437D01*
X001283Y002437D01*
X001240Y002481D01*
X001240Y002567D01*
X001327Y002567D01*
X001413Y002481D02*
X001413Y002654D01*
X001370Y002697D01*
X001283Y002697D01*
X001240Y002654D01*
X001119Y002697D02*
X001119Y002437D01*
X000945Y002437D02*
X000945Y002697D01*
X000824Y002697D02*
X000694Y002697D01*
X000651Y002654D01*
X000651Y002481D01*
X000694Y002437D01*
X000824Y002437D01*
X000824Y002697D01*
X000945Y002437D02*
X001119Y002697D01*
X002811Y007277D02*
X002984Y007537D01*
X003106Y007537D02*
X003279Y007537D01*
X003192Y007537D02*
X003192Y007277D01*
X002984Y007277D02*
X002811Y007537D01*
X003607Y007484D02*
X003607Y007440D01*
X003650Y007397D01*
X003607Y007354D01*
X003607Y007310D01*
X003650Y007267D01*
X003737Y007267D01*
X003780Y007310D01*
X003694Y007397D02*
X003650Y007397D01*
X003607Y007484D02*
X003650Y007527D01*
X003737Y007527D01*
X003780Y007484D01*
X003901Y007440D02*
X003988Y007267D01*
X004075Y007440D01*
X004196Y007440D02*
X004240Y007397D01*
X004196Y007354D01*
X004196Y007310D01*
X004240Y007267D01*
X004326Y007267D01*
X004370Y007310D01*
X004283Y007397D02*
X004240Y007397D01*
X004196Y007440D02*
X004196Y007484D01*
X004240Y007527D01*
X004326Y007527D01*
X004370Y007484D01*
X004683Y007512D02*
X004856Y007512D01*
X004770Y007512D02*
X004770Y007252D01*
X004977Y007296D02*
X005021Y007252D01*
X005108Y007252D01*
X005151Y007296D01*
X005108Y007382D02*
X005021Y007382D01*
X004977Y007339D01*
X004977Y007296D01*
X005108Y007382D02*
X005151Y007426D01*
X005151Y007469D01*
X005108Y007512D01*
X005021Y007512D01*
X004977Y007469D01*
X005272Y007469D02*
X005272Y007382D01*
X005316Y007339D01*
X005446Y007339D01*
X005446Y007252D02*
X005446Y007512D01*
X005316Y007512D01*
X005272Y007469D01*
X005359Y007339D02*
X005272Y007252D01*
X004436Y009512D02*
X004349Y009512D01*
X004306Y009556D01*
X004306Y009643D01*
X004393Y009643D01*
X004479Y009729D02*
X004436Y009773D01*
X004349Y009773D01*
X004306Y009729D01*
X004185Y009773D02*
X004185Y009512D01*
X004011Y009512D02*
X004011Y009773D01*
X004185Y009773D02*
X004011Y009512D01*
X003890Y009512D02*
X003890Y009773D01*
X003760Y009773D01*
X003717Y009729D01*
X003717Y009556D01*
X003760Y009512D01*
X003890Y009512D01*
X004436Y009512D02*
X004479Y009556D01*
X004479Y009729D01*
X003284Y009787D02*
X003284Y009527D01*
X003284Y009614D02*
X003154Y009614D01*
X003110Y009657D01*
X003110Y009744D01*
X003154Y009787D01*
X003284Y009787D01*
X003197Y009614D02*
X003110Y009527D01*
X002989Y009527D02*
X002816Y009787D01*
X002989Y009787D02*
X002816Y009527D01*
X007646Y004669D02*
X007646Y004625D01*
X007689Y004582D01*
X007646Y004539D01*
X007646Y004495D01*
X007689Y004452D01*
X007776Y004452D01*
X007819Y004495D01*
X007732Y004582D02*
X007689Y004582D01*
X007646Y004669D02*
X007689Y004712D01*
X007776Y004712D01*
X007819Y004669D01*
X008027Y004712D02*
X008027Y004452D01*
X008114Y004452D02*
X007940Y004452D01*
X008114Y004625D02*
X008027Y004712D01*
X008235Y004669D02*
X008278Y004712D01*
X008408Y004712D01*
X008408Y004452D01*
X008278Y004452D01*
X008235Y004495D01*
X008235Y004669D01*
X007153Y002697D02*
X007240Y002611D01*
X007240Y002437D01*
X007240Y002567D02*
X007067Y002567D01*
X010484Y002772D02*
X010484Y002902D01*
X010528Y002945D01*
X010701Y002945D01*
X010745Y002902D01*
X010745Y002772D01*
X010484Y002772D01*
X010484Y003067D02*
X010484Y003240D01*
X010484Y003153D02*
X010745Y003153D01*
X010658Y003067D01*
X010701Y003361D02*
X010745Y003405D01*
X010745Y003491D01*
X010701Y003535D01*
X010658Y003535D01*
X010484Y003361D01*
X010484Y003535D01*
X010551Y012022D02*
X010551Y012195D01*
X010638Y012282D01*
X010724Y012195D01*
X010724Y012022D01*
X010724Y012152D02*
X010551Y012152D01*
X010430Y012195D02*
X010386Y012152D01*
X010300Y012152D01*
X010256Y012109D01*
X010256Y012065D01*
X010300Y012022D01*
X010386Y012022D01*
X010430Y012065D01*
X010430Y012195D02*
X010430Y012239D01*
X010386Y012282D01*
X010300Y012282D01*
X010256Y012239D01*
X010135Y012239D02*
X010135Y012195D01*
X010092Y012152D01*
X010005Y012152D01*
X009962Y012109D01*
X009962Y012065D01*
X010005Y012022D01*
X010092Y012022D01*
X010135Y012065D01*
X010135Y012239D02*
X010092Y012282D01*
X010005Y012282D01*
X009962Y012239D01*
X009840Y012239D02*
X009840Y012065D01*
X009797Y012022D01*
X009710Y012022D01*
X009667Y012065D01*
X009667Y012239D01*
X009710Y012282D01*
X009797Y012282D01*
X009840Y012239D01*
X009840Y012572D02*
X009667Y012572D01*
X009546Y012572D02*
X009546Y012832D01*
X009416Y012832D01*
X009372Y012789D01*
X009372Y012702D01*
X009416Y012659D01*
X009546Y012659D01*
X009459Y012659D02*
X009372Y012572D01*
X009416Y012282D02*
X009502Y012282D01*
X009546Y012239D01*
X009546Y012065D01*
X009502Y012022D01*
X009416Y012022D01*
X009372Y012065D01*
X009372Y012239D02*
X009416Y012282D01*
X009754Y012702D02*
X009840Y012702D01*
X009840Y012832D02*
X009840Y012572D01*
X009962Y012572D02*
X009962Y012832D01*
X009840Y012832D02*
X009667Y012832D01*
X009754Y013122D02*
X009667Y013209D01*
X009667Y013382D01*
X009840Y013382D02*
X009840Y013209D01*
X009754Y013122D01*
X009962Y013165D02*
X010005Y013122D01*
X010092Y013122D01*
X010135Y013165D01*
X010135Y013339D01*
X010092Y013382D01*
X010005Y013382D01*
X009962Y013339D01*
X010256Y013382D02*
X010430Y013382D01*
X010430Y013122D01*
X010256Y013122D01*
X010343Y013252D02*
X010430Y013252D01*
X010551Y013252D02*
X010551Y013339D01*
X010594Y013382D01*
X010724Y013382D01*
X010724Y013122D01*
X010724Y013209D02*
X010594Y013209D01*
X010551Y013252D01*
X010638Y013209D02*
X010551Y013122D01*
X010594Y012832D02*
X010551Y012789D01*
X010551Y012702D01*
X010594Y012659D01*
X010724Y012659D01*
X010724Y012572D02*
X010724Y012832D01*
X010594Y012832D01*
X010430Y012789D02*
X010430Y012615D01*
X010386Y012572D01*
X010300Y012572D01*
X010256Y012615D01*
X010256Y012789D01*
X010300Y012832D01*
X010386Y012832D01*
X010430Y012789D01*
X010135Y012832D02*
X010135Y012572D01*
X010048Y012659D01*
X009962Y012572D01*
D11*
X002635Y008682D02*
X002314Y008682D01*
X002234Y008762D01*
X002314Y008946D02*
X002394Y009026D01*
X002394Y009266D01*
X002475Y009266D02*
X002555Y009186D01*
X002555Y009026D01*
X002475Y009266D02*
X002234Y009266D01*
X002234Y009026D01*
X002314Y008946D01*
X002555Y008762D02*
X002555Y008602D01*
X002555Y008407D02*
X002555Y008166D01*
X002475Y008086D01*
X002394Y008166D01*
X002394Y008327D01*
X002314Y008407D01*
X002234Y008327D01*
X002234Y008086D01*
X002394Y007891D02*
X002394Y007571D01*
X002314Y007571D02*
X002234Y007651D01*
X002234Y007811D01*
X002394Y007891D02*
X002475Y007891D01*
X002555Y007811D01*
X002555Y007651D01*
X002475Y007571D01*
X002314Y007571D01*
X002314Y007375D02*
X002394Y007295D01*
X002394Y007135D01*
X002475Y007055D01*
X002555Y007135D01*
X002555Y007375D01*
X002314Y007375D02*
X002234Y007295D01*
X002234Y007055D01*
X002234Y006860D02*
X002475Y006860D01*
X002555Y006780D01*
X002555Y006539D01*
X002234Y006539D01*
X002394Y006344D02*
X002394Y006024D01*
X002314Y006024D02*
X002234Y006104D01*
X002234Y006264D01*
X002394Y006344D02*
X002475Y006344D01*
X002555Y006264D01*
X002555Y006104D01*
X002475Y006024D01*
X002314Y006024D01*
X002314Y005828D02*
X002394Y005748D01*
X002394Y005588D01*
X002475Y005508D01*
X002555Y005588D01*
X002555Y005828D01*
X002314Y005828D02*
X002234Y005748D01*
X002234Y005508D01*
X002234Y005330D02*
X002234Y005250D01*
X002314Y005250D01*
X002314Y005330D01*
X002234Y005330D01*
X002314Y005055D02*
X002555Y005055D01*
X002314Y005055D02*
X002234Y004975D01*
X002314Y004895D01*
X002234Y004815D01*
X002314Y004735D01*
X002555Y004735D01*
X002555Y004539D02*
X002314Y004539D01*
X002234Y004459D01*
X002314Y004379D01*
X002234Y004299D01*
X002314Y004219D01*
X002555Y004219D01*
X002555Y004024D02*
X002314Y004024D01*
X002234Y003944D01*
X002314Y003864D01*
X002234Y003784D01*
X002314Y003704D01*
X002555Y003704D01*
X001215Y003256D02*
X001215Y003096D01*
X001135Y003016D01*
X001055Y003016D01*
X000975Y003096D01*
X000975Y003256D01*
X000894Y003336D01*
X000814Y003336D01*
X000734Y003256D01*
X000734Y003096D01*
X000814Y003016D01*
X001135Y003336D02*
X001215Y003256D01*
X000975Y003532D02*
X001055Y003612D01*
X001055Y003772D01*
X000975Y003852D01*
X000894Y003852D01*
X000894Y003532D01*
X000814Y003532D02*
X000975Y003532D01*
X000814Y003532D02*
X000734Y003612D01*
X000734Y003772D01*
X000734Y004047D02*
X001055Y004047D01*
X001055Y004287D01*
X000975Y004368D01*
X000734Y004368D01*
X000734Y004563D02*
X000734Y004803D01*
X000814Y004883D01*
X000894Y004803D01*
X000894Y004643D01*
X000975Y004563D01*
X001055Y004643D01*
X001055Y004883D01*
X000975Y005079D02*
X001055Y005159D01*
X001055Y005319D01*
X000975Y005399D01*
X000894Y005399D01*
X000894Y005079D01*
X000814Y005079D02*
X000975Y005079D01*
X000814Y005079D02*
X000734Y005159D01*
X000734Y005319D01*
X000814Y005594D02*
X000734Y005674D01*
X000734Y005834D01*
X000814Y005914D01*
X000894Y005914D01*
X000975Y005834D01*
X000975Y005674D01*
X001055Y005594D01*
X001135Y005594D01*
X001215Y005674D01*
X001215Y005834D01*
X001135Y005914D01*
X001055Y006110D02*
X001055Y006270D01*
X001135Y006190D02*
X000814Y006190D01*
X000734Y006270D01*
X000814Y006454D02*
X000894Y006534D01*
X000894Y006774D01*
X000975Y006774D02*
X000734Y006774D01*
X000734Y006534D01*
X000814Y006454D01*
X001055Y006534D02*
X001055Y006694D01*
X000975Y006774D01*
X000975Y006969D02*
X000814Y006969D01*
X000734Y007049D01*
X000734Y007289D01*
X000654Y007289D02*
X000574Y007209D01*
X000574Y007129D01*
X000654Y007289D02*
X001055Y007289D01*
X001055Y007049D01*
X000975Y006969D01*
X000975Y007485D02*
X000814Y007485D01*
X000734Y007565D01*
X000734Y007725D01*
X000894Y007805D02*
X000894Y007485D01*
X000975Y007485D02*
X001055Y007565D01*
X001055Y007725D01*
X000975Y007805D01*
X000894Y007805D01*
X000734Y008516D02*
X001215Y008516D01*
X001055Y008676D01*
X001215Y008836D01*
X000734Y008836D01*
X000734Y009032D02*
X000734Y009192D01*
X000734Y009112D02*
X001055Y009112D01*
X001055Y009032D01*
X001215Y009112D02*
X001295Y009112D01*
X001055Y009375D02*
X001055Y009616D01*
X000975Y009696D01*
X000734Y009696D01*
X000734Y009891D02*
X000734Y010051D01*
X000734Y009971D02*
X001055Y009971D01*
X001055Y009891D01*
X001215Y009971D02*
X001295Y009971D01*
X001215Y010235D02*
X001215Y010475D01*
X001135Y010555D01*
X001055Y010555D01*
X000975Y010475D01*
X000975Y010235D01*
X001215Y010235D02*
X000734Y010235D01*
X000734Y010475D01*
X000814Y010555D01*
X000894Y010555D01*
X000975Y010475D01*
X000975Y010750D02*
X000814Y010750D01*
X000734Y010830D01*
X000734Y010991D01*
X000894Y011071D02*
X000894Y010750D01*
X000975Y010750D02*
X001055Y010830D01*
X001055Y010991D01*
X000975Y011071D01*
X000894Y011071D01*
X000894Y011266D02*
X000894Y011586D01*
X000975Y011586D01*
X001055Y011506D01*
X001055Y011346D01*
X000975Y011266D01*
X000814Y011266D01*
X000734Y011346D01*
X000734Y011506D01*
X002154Y009782D02*
X002074Y009702D01*
X002074Y009621D01*
X002154Y009782D02*
X002555Y009782D01*
X002555Y009541D01*
X002475Y009461D01*
X002314Y009461D01*
X002234Y009541D01*
X002234Y009782D01*
X002314Y009977D02*
X002475Y009977D01*
X002555Y010057D01*
X002555Y010217D01*
X002475Y010297D01*
X002394Y010297D01*
X002394Y009977D01*
X002314Y009977D02*
X002234Y010057D01*
X002234Y010217D01*
X002234Y010493D02*
X002234Y010573D01*
X002314Y010573D01*
X002314Y010493D01*
X002234Y010493D01*
X002314Y010750D02*
X002475Y010750D01*
X002555Y010830D01*
X002555Y010991D01*
X002475Y011071D01*
X002394Y011071D01*
X002394Y010750D01*
X002314Y010750D02*
X002234Y010830D01*
X002234Y010991D01*
X002314Y011266D02*
X002234Y011346D01*
X002234Y011586D01*
X002555Y011586D01*
X002555Y011266D02*
X002314Y011266D01*
X001055Y009375D02*
X000734Y009375D01*
D12*
X003400Y012692D02*
X003333Y012759D01*
X003333Y013025D01*
X003400Y013092D01*
X003600Y013092D01*
X003600Y012692D01*
X003400Y012692D01*
X003793Y012959D02*
X003927Y012692D01*
X004060Y012959D01*
X004254Y012892D02*
X004254Y012825D01*
X004521Y012825D01*
X004521Y012759D02*
X004521Y012892D01*
X004454Y012959D01*
X004321Y012959D01*
X004254Y012892D01*
X004321Y012692D02*
X004454Y012692D01*
X004521Y012759D01*
X004704Y012959D02*
X004771Y012959D01*
X004904Y012825D01*
X004904Y012692D02*
X004904Y012959D01*
D13*
X001929Y003137D02*
X001839Y003047D01*
X001749Y003137D01*
X001749Y002867D01*
X001635Y002867D02*
X001455Y002867D01*
X001545Y003002D02*
X001635Y003002D01*
X001635Y003137D02*
X001455Y003137D01*
X001635Y003137D02*
X001635Y002867D01*
X001929Y002867D02*
X001929Y003137D01*
M02*
