%
M48
M72
T01C0.0236
T02C0.0315
T03C0.0350
T04C0.0360
T05C0.0400
T06C0.1417
%
T01
X562Y3492
X2362Y5192
X2262Y6542
X4362Y4992
X4962Y5092
X5112Y5642
X5462Y6042
X5512Y5292
X4812Y6492
X6312Y8242
X6512Y7042
X7262Y5992
X7612Y7242
X7612Y7842
X9262Y5392
X9362Y4842
X8612Y4392
X9162Y3392
X8712Y3042
X6862Y3942
X3262Y3292
X7612Y10392
X7012Y11542
X4862Y10842
X2412Y11442
T02
X1342Y11066
X1342Y10279
X1342Y9491
X1342Y8704
X1342Y7917
X1342Y7129
X1342Y6342
X1342Y5554
X1342Y4767
X1342Y3980
X10003Y3980
X10003Y4767
X10003Y5554
X10003Y6342
X10003Y7129
X10003Y7917
X10003Y8704
X10003Y9491
X10003Y10279
X10003Y11066
T03
X7950Y12813
X6770Y12813
T04
X9148Y11449
X7727Y3393
T05
X712Y1042
X712Y2042
X1712Y2042
X1712Y1042
X2712Y1042
X2712Y2042
X3712Y2042
X3712Y1042
X4712Y1042
X4712Y2042
X5712Y2042
X5712Y1042
X6712Y1042
X6712Y2042
X6712Y3042
X7712Y4042
X7712Y2042
X7712Y1042
X8712Y1042
X8712Y2042
X9712Y2042
X9712Y3042
X9712Y1042
X4712Y8042
X3712Y8042
X3712Y9042
X2712Y9042
X2712Y8042
T06
X1312Y12525
M30
