G75*
G70*
%OFA0B0*%
%FSLAX24Y24*%
%IPPOS*%
%LPD*%
%AMOC8*
5,1,8,0,0,1.08239X$1,22.5*
%
%ADD10C,0.0555*%
%ADD11R,0.1000X0.1500*%
%ADD12OC8,0.0640*%
%ADD13C,0.0080*%
%ADD14C,0.0436*%
%ADD15C,0.0100*%
D10*
X001684Y003980D03*
X001684Y004767D03*
X001684Y005554D03*
X001684Y006342D03*
X001684Y007129D03*
X001684Y007917D03*
X001684Y008704D03*
X001684Y009491D03*
X001684Y010279D03*
X001684Y011066D03*
X010346Y011066D03*
X010346Y010279D03*
X010346Y009491D03*
X010346Y008704D03*
X010346Y007917D03*
X010346Y007129D03*
X010346Y006342D03*
X010346Y005554D03*
X010346Y004767D03*
X010346Y003980D03*
D11*
G36*
X005977Y003904D02*
X005803Y002920D01*
X004327Y003180D01*
X004501Y004164D01*
X005977Y003904D01*
G37*
G36*
X007269Y011231D02*
X007095Y010247D01*
X005619Y010507D01*
X005793Y011491D01*
X007269Y011231D01*
G37*
D12*
X005054Y008042D03*
X004054Y008042D03*
X004054Y009042D03*
X003054Y009042D03*
X003054Y008042D03*
X007054Y003042D03*
X007054Y002042D03*
X007054Y001042D03*
X006054Y001042D03*
X006054Y002042D03*
X005054Y002042D03*
X005054Y001042D03*
X004054Y001042D03*
X004054Y002042D03*
X003054Y002042D03*
X003054Y001042D03*
X002054Y001042D03*
X002054Y002042D03*
X001054Y002042D03*
X001054Y001042D03*
X008054Y001042D03*
X008054Y002042D03*
X009054Y002042D03*
X009054Y001042D03*
X010054Y001042D03*
X010054Y002042D03*
X010054Y003042D03*
X008054Y004042D03*
D13*
X000674Y000814D02*
X000674Y000362D01*
X010867Y000362D01*
X010867Y002429D01*
X010821Y002382D01*
X010688Y002382D01*
X010322Y002382D01*
X010484Y002220D01*
X010484Y001864D01*
X010232Y001612D01*
X009876Y001612D01*
X009624Y001864D01*
X009624Y002220D01*
X009786Y002382D01*
X009322Y002382D01*
X009484Y002220D01*
X009484Y001864D01*
X009232Y001612D01*
X008876Y001612D01*
X008624Y001864D01*
X008624Y002220D01*
X008786Y002382D01*
X008322Y002382D01*
X008484Y002220D01*
X008484Y001864D01*
X008322Y001702D01*
X008621Y001702D01*
X008714Y001608D01*
X008863Y001459D01*
X008876Y001472D01*
X009232Y001472D01*
X009484Y001220D01*
X009484Y000864D01*
X009232Y000612D01*
X008876Y000612D01*
X008624Y000864D01*
X008624Y001220D01*
X008637Y001233D01*
X008488Y001382D01*
X008322Y001382D01*
X008484Y001220D01*
X008484Y000864D01*
X008232Y000612D01*
X007876Y000612D01*
X007624Y000864D01*
X007624Y001220D01*
X007787Y001383D01*
X007488Y001682D01*
X007395Y001775D01*
X007232Y001612D01*
X006876Y001612D01*
X006714Y001774D01*
X006714Y001608D01*
X006863Y001459D01*
X006876Y001472D01*
X007232Y001472D01*
X007484Y001220D01*
X007484Y000864D01*
X007232Y000612D01*
X006876Y000612D01*
X006624Y000864D01*
X006624Y001220D01*
X006637Y001233D01*
X006488Y001382D01*
X006488Y001382D01*
X006394Y001476D01*
X006394Y001774D01*
X006232Y001612D01*
X005876Y001612D01*
X005624Y001864D01*
X005624Y002220D01*
X005876Y002472D01*
X006198Y002472D01*
X006094Y002576D01*
X006094Y002708D01*
X006094Y003763D01*
X006035Y003427D01*
X005198Y003574D01*
X005184Y003496D01*
X006021Y003348D01*
X005938Y002877D01*
X005923Y002844D01*
X005899Y002815D01*
X005869Y002794D01*
X005834Y002782D01*
X005797Y002778D01*
X005080Y002905D01*
X005184Y003496D01*
X005105Y003510D01*
X004268Y003657D01*
X004185Y003186D01*
X004188Y003149D01*
X004201Y003115D01*
X004222Y003085D01*
X004250Y003061D01*
X004284Y003045D01*
X005001Y002919D01*
X005105Y003510D01*
X005119Y003588D01*
X004282Y003736D01*
X004365Y004207D01*
X004381Y004241D01*
X004405Y004269D01*
X004435Y004290D01*
X004469Y004303D01*
X004506Y004306D01*
X005223Y004179D01*
X005119Y003589D01*
X005198Y003575D01*
X005302Y004165D01*
X006020Y004039D01*
X006053Y004023D01*
X006081Y004000D01*
X006094Y003981D01*
X006094Y004376D01*
X005694Y004776D01*
X005694Y004908D01*
X005694Y005003D01*
X005668Y005014D01*
X005576Y005106D01*
X005526Y005227D01*
X005526Y005317D01*
X005520Y005314D01*
X005389Y005314D01*
X005268Y005364D01*
X005176Y005456D01*
X005126Y005577D01*
X005126Y005688D01*
X004864Y005426D01*
X005206Y005426D01*
X005156Y005504D02*
X004943Y005504D01*
X004864Y005426D02*
X004864Y005281D01*
X004890Y005270D01*
X004982Y005178D01*
X005032Y005057D01*
X005032Y004927D01*
X004982Y004806D01*
X004890Y004714D01*
X004770Y004664D01*
X004639Y004664D01*
X004613Y004675D01*
X003764Y003826D01*
X003764Y003581D01*
X003790Y003570D01*
X003882Y003478D01*
X003932Y003357D01*
X003932Y003227D01*
X003882Y003106D01*
X003790Y003014D01*
X003670Y002964D01*
X003539Y002964D01*
X003418Y003014D01*
X003326Y003106D01*
X003276Y003227D01*
X003276Y003357D01*
X003326Y003478D01*
X003418Y003570D01*
X003444Y003581D01*
X003444Y003826D01*
X003444Y003958D01*
X004387Y004901D01*
X004376Y004927D01*
X004376Y005032D01*
X002993Y005032D01*
X002982Y005006D01*
X002890Y004914D01*
X002770Y004864D01*
X002639Y004864D01*
X002518Y004914D01*
X002426Y005006D01*
X002376Y005127D01*
X002376Y005257D01*
X002426Y005378D01*
X002518Y005470D01*
X002639Y005520D01*
X002770Y005520D01*
X002890Y005470D01*
X002982Y005378D01*
X002993Y005352D01*
X004438Y005352D01*
X004544Y005352D01*
X004544Y005426D01*
X002934Y005426D01*
X002807Y005504D02*
X004544Y005504D01*
X004544Y005426D02*
X004544Y006482D01*
X004121Y006482D01*
X003988Y006482D01*
X003894Y006576D01*
X003894Y007612D01*
X003876Y007612D01*
X003624Y007864D01*
X003624Y008220D01*
X003637Y008233D01*
X003488Y008382D01*
X003394Y008476D01*
X003394Y008774D01*
X003232Y008612D01*
X002876Y008612D01*
X002624Y008864D01*
X002624Y009220D01*
X002637Y009233D01*
X001912Y009958D01*
X001904Y009950D01*
X001761Y009891D01*
X001607Y009891D01*
X001517Y009929D01*
X001414Y009826D01*
X001414Y009769D01*
X001465Y009820D01*
X001607Y009879D01*
X001761Y009879D01*
X001904Y009820D01*
X002013Y009711D01*
X002072Y009569D01*
X002072Y009414D01*
X002024Y009299D01*
X002863Y008459D01*
X002876Y008472D01*
X003232Y008472D01*
X003484Y008220D01*
X003484Y007864D01*
X003232Y007612D01*
X002876Y007612D01*
X002624Y007864D01*
X002624Y008220D01*
X002637Y008233D01*
X002060Y008810D01*
X002072Y008781D01*
X002072Y008627D01*
X002013Y008485D01*
X001904Y008376D01*
X001761Y008317D01*
X001607Y008317D01*
X001465Y008376D01*
X001414Y008426D01*
X001414Y008195D01*
X001465Y008245D01*
X001607Y008304D01*
X001761Y008304D01*
X001904Y008245D01*
X002013Y008136D01*
X002072Y007994D01*
X002072Y007840D01*
X002013Y007697D01*
X001904Y007588D01*
X001761Y007529D01*
X001607Y007529D01*
X001465Y007588D01*
X001414Y007639D01*
X001414Y007407D01*
X001465Y007458D01*
X001607Y007517D01*
X001761Y007517D01*
X001904Y007458D01*
X002013Y007349D01*
X002072Y007206D01*
X002072Y007052D01*
X002013Y006910D01*
X001904Y006801D01*
X001761Y006742D01*
X001607Y006742D01*
X001465Y006801D01*
X001414Y006851D01*
X001414Y006620D01*
X001465Y006670D01*
X001607Y006729D01*
X001761Y006729D01*
X001904Y006670D01*
X002013Y006561D01*
X002072Y006419D01*
X002072Y006265D01*
X002051Y006215D01*
X002287Y006451D01*
X002276Y006477D01*
X002276Y006607D01*
X002326Y006728D01*
X002418Y006820D01*
X002539Y006870D01*
X002670Y006870D01*
X002790Y006820D01*
X002882Y006728D01*
X002932Y006607D01*
X002932Y006477D01*
X002882Y006356D01*
X002790Y006264D01*
X002670Y006214D01*
X002539Y006214D01*
X002513Y006225D01*
X002314Y006026D01*
X002314Y003776D01*
X003444Y003776D01*
X003444Y003698D02*
X002236Y003698D01*
X002221Y003682D02*
X002314Y003776D01*
X002314Y003855D02*
X003444Y003855D01*
X003444Y003933D02*
X002314Y003933D01*
X002314Y004012D02*
X003498Y004012D01*
X003577Y004091D02*
X002314Y004091D01*
X002314Y004169D02*
X003655Y004169D01*
X003734Y004248D02*
X002314Y004248D01*
X002314Y004326D02*
X003812Y004326D01*
X003891Y004405D02*
X002314Y004405D01*
X002314Y004483D02*
X003969Y004483D01*
X004048Y004562D02*
X002314Y004562D01*
X002314Y004640D02*
X004127Y004640D01*
X004205Y004719D02*
X002314Y004719D01*
X002314Y004797D02*
X004284Y004797D01*
X004362Y004876D02*
X002799Y004876D01*
X002931Y004954D02*
X004376Y004954D01*
X004579Y004640D02*
X005830Y004640D01*
X005908Y004562D02*
X004500Y004562D01*
X004422Y004483D02*
X005987Y004483D01*
X006065Y004405D02*
X004343Y004405D01*
X004265Y004326D02*
X006094Y004326D01*
X006094Y004248D02*
X004836Y004248D01*
X005222Y004169D02*
X006094Y004169D01*
X006094Y004091D02*
X005727Y004091D01*
X006067Y004012D02*
X006094Y004012D01*
X006083Y003698D02*
X006094Y003698D01*
X006094Y003619D02*
X006069Y003619D01*
X006055Y003541D02*
X006094Y003541D01*
X006094Y003462D02*
X006041Y003462D01*
X006094Y003384D02*
X005821Y003384D01*
X005835Y003462D02*
X005375Y003462D01*
X005390Y003541D02*
X005192Y003541D01*
X005206Y003619D02*
X005125Y003619D01*
X005111Y003541D02*
X004930Y003541D01*
X004944Y003619D02*
X004484Y003619D01*
X004499Y003698D02*
X003764Y003698D01*
X003764Y003776D02*
X004289Y003776D01*
X004303Y003855D02*
X003794Y003855D01*
X003872Y003933D02*
X004317Y003933D01*
X004331Y004012D02*
X003951Y004012D01*
X004029Y004091D02*
X004345Y004091D01*
X004359Y004169D02*
X004108Y004169D01*
X004186Y004248D02*
X004387Y004248D01*
X004895Y004719D02*
X005751Y004719D01*
X005694Y004797D02*
X004974Y004797D01*
X005011Y004876D02*
X005694Y004876D01*
X005694Y004954D02*
X005032Y004954D01*
X005032Y005033D02*
X005649Y005033D01*
X005574Y005112D02*
X005010Y005112D01*
X004970Y005190D02*
X005541Y005190D01*
X005526Y005269D02*
X004891Y005269D01*
X004864Y005347D02*
X005308Y005347D01*
X005126Y005583D02*
X005021Y005583D01*
X005100Y005661D02*
X005126Y005661D01*
X004544Y005661D02*
X002314Y005661D01*
X002314Y005583D02*
X004544Y005583D01*
X004544Y005740D02*
X002314Y005740D01*
X002314Y005818D02*
X004544Y005818D01*
X004544Y005897D02*
X002314Y005897D01*
X002314Y005976D02*
X004544Y005976D01*
X004544Y006054D02*
X002343Y006054D01*
X002421Y006133D02*
X004544Y006133D01*
X004544Y006211D02*
X002500Y006211D01*
X002283Y006447D02*
X002060Y006447D01*
X002072Y006368D02*
X002204Y006368D01*
X002126Y006290D02*
X002072Y006290D01*
X002028Y006525D02*
X002276Y006525D01*
X002276Y006604D02*
X001970Y006604D01*
X001875Y006682D02*
X002307Y006682D01*
X002359Y006761D02*
X001808Y006761D01*
X001942Y006840D02*
X002466Y006840D01*
X002743Y006840D02*
X003894Y006840D01*
X003894Y006918D02*
X002016Y006918D01*
X002049Y006997D02*
X003894Y006997D01*
X003894Y007075D02*
X002072Y007075D01*
X002072Y007154D02*
X003894Y007154D01*
X003894Y007232D02*
X002061Y007232D01*
X002028Y007311D02*
X003894Y007311D01*
X003894Y007389D02*
X001972Y007389D01*
X001879Y007468D02*
X003894Y007468D01*
X003894Y007546D02*
X001803Y007546D01*
X001940Y007625D02*
X002863Y007625D01*
X002785Y007704D02*
X002015Y007704D01*
X002048Y007782D02*
X002706Y007782D01*
X002628Y007861D02*
X002072Y007861D01*
X002072Y007939D02*
X002624Y007939D01*
X002624Y008018D02*
X002062Y008018D01*
X002029Y008096D02*
X002624Y008096D01*
X002624Y008175D02*
X001974Y008175D01*
X001884Y008253D02*
X002617Y008253D01*
X002538Y008332D02*
X001798Y008332D01*
X001939Y008410D02*
X002460Y008410D01*
X002381Y008489D02*
X002014Y008489D01*
X002047Y008567D02*
X002302Y008567D01*
X002224Y008646D02*
X002072Y008646D01*
X002072Y008725D02*
X002145Y008725D01*
X002067Y008803D02*
X002063Y008803D01*
X002284Y009039D02*
X002624Y009039D01*
X002624Y009117D02*
X002205Y009117D01*
X002127Y009196D02*
X002624Y009196D01*
X002596Y009274D02*
X002048Y009274D01*
X002046Y009353D02*
X002517Y009353D01*
X002439Y009431D02*
X002072Y009431D01*
X002072Y009510D02*
X002360Y009510D01*
X002281Y009589D02*
X002063Y009589D01*
X002031Y009667D02*
X002203Y009667D01*
X002124Y009746D02*
X001978Y009746D01*
X002046Y009824D02*
X001894Y009824D01*
X001967Y009903D02*
X001789Y009903D01*
X001580Y009903D02*
X001491Y009903D01*
X001475Y009824D02*
X001414Y009824D01*
X001196Y010060D02*
X000674Y010060D01*
X000674Y010138D02*
X001275Y010138D01*
X001309Y010173D02*
X001094Y009958D01*
X001094Y009826D01*
X001094Y009608D01*
X000838Y009352D01*
X000744Y009258D01*
X000744Y003781D01*
X000718Y003770D01*
X000674Y003726D01*
X000674Y013508D01*
X010867Y013508D01*
X010867Y007621D01*
X010708Y007780D01*
X010733Y007840D01*
X010733Y007994D01*
X010674Y008136D01*
X010565Y008245D01*
X010423Y008304D01*
X010269Y008304D01*
X010126Y008245D01*
X010017Y008136D01*
X009958Y007994D01*
X009958Y007840D01*
X010017Y007697D01*
X010126Y007588D01*
X010269Y007529D01*
X010423Y007529D01*
X010482Y007554D01*
X010644Y007392D01*
X010644Y007379D01*
X010565Y007458D01*
X010423Y007517D01*
X010269Y007517D01*
X010126Y007458D01*
X010017Y007349D01*
X009958Y007206D01*
X009958Y007052D01*
X010017Y006910D01*
X010126Y006801D01*
X010269Y006742D01*
X010423Y006742D01*
X010565Y006801D01*
X010644Y006880D01*
X010644Y006591D01*
X010565Y006670D01*
X010423Y006729D01*
X010269Y006729D01*
X010126Y006670D01*
X010017Y006561D01*
X009958Y006419D01*
X009958Y006265D01*
X010017Y006122D01*
X010126Y006013D01*
X010269Y005954D01*
X010423Y005954D01*
X010565Y006013D01*
X010644Y006093D01*
X010644Y005804D01*
X010565Y005883D01*
X010423Y005942D01*
X010269Y005942D01*
X010126Y005883D01*
X010017Y005774D01*
X009958Y005632D01*
X009958Y005477D01*
X010017Y005335D01*
X010126Y005226D01*
X010269Y005167D01*
X010423Y005167D01*
X010565Y005226D01*
X010644Y005305D01*
X010644Y005016D01*
X010565Y005096D01*
X010423Y005155D01*
X010269Y005155D01*
X010126Y005096D01*
X010017Y004987D01*
X010008Y004965D01*
X009982Y005028D01*
X009890Y005120D01*
X009824Y005147D01*
X009882Y005206D01*
X009932Y005327D01*
X009932Y005457D01*
X009882Y005578D01*
X009790Y005670D01*
X009670Y005720D01*
X009539Y005720D01*
X009418Y005670D01*
X009326Y005578D01*
X009315Y005552D01*
X009271Y005552D01*
X007314Y007508D01*
X007221Y007602D01*
X006241Y007602D01*
X006563Y007925D01*
X006589Y007914D01*
X006720Y007914D01*
X006840Y007964D01*
X006932Y008056D01*
X006982Y008177D01*
X006982Y008307D01*
X006932Y008428D01*
X006840Y008520D01*
X006720Y008570D01*
X006589Y008570D01*
X006468Y008520D01*
X006376Y008428D01*
X006326Y008307D01*
X006326Y008177D01*
X006337Y008151D01*
X006038Y007852D01*
X005688Y007852D01*
X005594Y007758D01*
X004638Y006802D01*
X004214Y006802D01*
X004214Y007612D01*
X004232Y007612D01*
X004484Y007864D01*
X004484Y008220D01*
X004232Y008472D01*
X003876Y008472D01*
X003863Y008459D01*
X003714Y008608D01*
X003714Y008731D01*
X003864Y008582D01*
X004014Y008582D01*
X004014Y009002D01*
X004094Y009002D01*
X004094Y008582D01*
X004245Y008582D01*
X004514Y008851D01*
X004514Y009002D01*
X004094Y009002D01*
X004094Y009082D01*
X004014Y009082D01*
X004014Y009502D01*
X003864Y009502D01*
X003692Y009330D01*
X002060Y010962D01*
X002072Y010989D01*
X002072Y011143D01*
X002013Y011286D01*
X001904Y011395D01*
X001761Y011454D01*
X001607Y011454D01*
X001465Y011395D01*
X001356Y011286D01*
X001297Y011143D01*
X001297Y010989D01*
X001356Y010847D01*
X001465Y010738D01*
X001607Y010679D01*
X001761Y010679D01*
X001853Y010717D01*
X003098Y009472D01*
X002876Y009472D01*
X002863Y009459D01*
X002072Y010251D01*
X002072Y010356D01*
X002013Y010498D01*
X001904Y010607D01*
X001761Y010666D01*
X001607Y010666D01*
X001465Y010607D01*
X001356Y010498D01*
X001297Y010356D01*
X001297Y010202D01*
X001309Y010173D01*
X001297Y010217D02*
X000674Y010217D01*
X000674Y010295D02*
X001297Y010295D01*
X001304Y010374D02*
X000674Y010374D01*
X000674Y010453D02*
X001337Y010453D01*
X001388Y010531D02*
X000674Y010531D01*
X000674Y010610D02*
X001470Y010610D01*
X001585Y010688D02*
X000674Y010688D01*
X000674Y010767D02*
X001436Y010767D01*
X001357Y010845D02*
X000674Y010845D01*
X000674Y010924D02*
X001324Y010924D01*
X001297Y011002D02*
X000674Y011002D01*
X000674Y011081D02*
X001297Y011081D01*
X001303Y011159D02*
X000674Y011159D01*
X000674Y011238D02*
X001336Y011238D01*
X001386Y011316D02*
X000674Y011316D01*
X000674Y011395D02*
X001465Y011395D01*
X001489Y011697D02*
X001819Y011697D01*
X002124Y011823D01*
X002357Y012056D01*
X002483Y012360D01*
X002483Y012690D01*
X002357Y012995D01*
X002124Y013228D01*
X001819Y013354D01*
X001489Y013354D01*
X001185Y013228D01*
X000952Y012995D01*
X000826Y012690D01*
X000826Y012360D01*
X000952Y012056D01*
X001185Y011823D01*
X001489Y011697D01*
X001459Y011709D02*
X000674Y011709D01*
X000674Y011631D02*
X002479Y011631D01*
X002476Y011628D02*
X002426Y011507D01*
X002426Y011377D01*
X002476Y011256D01*
X002568Y011164D01*
X002689Y011114D01*
X002820Y011114D01*
X002940Y011164D01*
X003032Y011256D01*
X003082Y011377D01*
X003082Y011507D01*
X003072Y011533D01*
X003421Y011882D01*
X007388Y011882D01*
X007400Y011870D01*
X007289Y011870D01*
X007168Y011820D01*
X007076Y011728D01*
X007026Y011607D01*
X007026Y011477D01*
X007037Y011451D01*
X006980Y011394D01*
X005766Y011608D01*
X005691Y011556D01*
X005599Y011029D01*
X005481Y011029D01*
X005390Y011120D01*
X005270Y011170D01*
X005139Y011170D01*
X005018Y011120D01*
X004926Y011028D01*
X004876Y010907D01*
X004876Y010777D01*
X004926Y010656D01*
X005018Y010564D01*
X005139Y010514D01*
X005270Y010514D01*
X005390Y010564D01*
X005482Y010656D01*
X005504Y010709D01*
X005542Y010709D01*
X005502Y010481D01*
X005554Y010407D01*
X007121Y010130D01*
X007196Y010183D01*
X007378Y011214D01*
X007420Y011214D01*
X007540Y011264D01*
X007632Y011356D01*
X007682Y011477D01*
X007682Y011588D01*
X007794Y011476D01*
X007794Y010681D01*
X007768Y010670D01*
X007676Y010578D01*
X007626Y010457D01*
X007626Y010327D01*
X007676Y010206D01*
X007768Y010114D01*
X007889Y010064D01*
X008020Y010064D01*
X008140Y010114D01*
X008232Y010206D01*
X008282Y010327D01*
X008282Y010457D01*
X008232Y010578D01*
X008140Y010670D01*
X008114Y010681D01*
X008114Y011476D01*
X008114Y011608D01*
X007614Y012108D01*
X007521Y012202D01*
X003421Y012202D01*
X003288Y012202D01*
X002845Y011759D01*
X002820Y011770D01*
X002689Y011770D01*
X002568Y011720D01*
X002476Y011628D01*
X002445Y011552D02*
X000674Y011552D01*
X000674Y011474D02*
X002426Y011474D01*
X002426Y011395D02*
X001903Y011395D01*
X001982Y011316D02*
X002451Y011316D01*
X002494Y011238D02*
X002033Y011238D01*
X002065Y011159D02*
X002579Y011159D01*
X002930Y011159D02*
X005114Y011159D01*
X004979Y011081D02*
X002072Y011081D01*
X002072Y011002D02*
X004916Y011002D01*
X004883Y010924D02*
X002099Y010924D01*
X002177Y010845D02*
X004876Y010845D01*
X004880Y010767D02*
X002256Y010767D01*
X002334Y010688D02*
X004913Y010688D01*
X004973Y010610D02*
X002413Y010610D01*
X002491Y010531D02*
X005097Y010531D01*
X005311Y010531D02*
X005511Y010531D01*
X005522Y010453D02*
X002570Y010453D01*
X002648Y010374D02*
X005739Y010374D01*
X005525Y010610D02*
X005436Y010610D01*
X005496Y010688D02*
X005539Y010688D01*
X005608Y011081D02*
X005429Y011081D01*
X005295Y011159D02*
X005622Y011159D01*
X005635Y011238D02*
X003014Y011238D01*
X003057Y011316D02*
X005649Y011316D01*
X005663Y011395D02*
X003082Y011395D01*
X003082Y011474D02*
X005677Y011474D01*
X005691Y011552D02*
X003091Y011552D01*
X003169Y011631D02*
X007036Y011631D01*
X007026Y011552D02*
X006083Y011552D01*
X006528Y011474D02*
X007027Y011474D01*
X006981Y011395D02*
X006974Y011395D01*
X007069Y011709D02*
X003248Y011709D01*
X003326Y011788D02*
X007136Y011788D01*
X007280Y011866D02*
X003405Y011866D01*
X003188Y012102D02*
X002376Y012102D01*
X002408Y012180D02*
X003267Y012180D01*
X003110Y012023D02*
X002324Y012023D01*
X002246Y011945D02*
X003031Y011945D01*
X002953Y011866D02*
X002167Y011866D01*
X002039Y011788D02*
X002874Y011788D01*
X002558Y011709D02*
X001849Y011709D01*
X001270Y011788D02*
X000674Y011788D01*
X000674Y011866D02*
X001141Y011866D01*
X001063Y011945D02*
X000674Y011945D01*
X000674Y012023D02*
X000984Y012023D01*
X000933Y012102D02*
X000674Y012102D01*
X000674Y012180D02*
X000900Y012180D01*
X000868Y012259D02*
X000674Y012259D01*
X000674Y012338D02*
X000835Y012338D01*
X000826Y012416D02*
X000674Y012416D01*
X000674Y012495D02*
X000826Y012495D01*
X000826Y012573D02*
X000674Y012573D01*
X000674Y012652D02*
X000826Y012652D01*
X000842Y012730D02*
X000674Y012730D01*
X000674Y012809D02*
X000875Y012809D01*
X000907Y012887D02*
X000674Y012887D01*
X000674Y012966D02*
X000940Y012966D01*
X001002Y013044D02*
X000674Y013044D01*
X000674Y013123D02*
X001080Y013123D01*
X001159Y013202D02*
X000674Y013202D01*
X000674Y013280D02*
X001311Y013280D01*
X000674Y013359D02*
X010867Y013359D01*
X010867Y013437D02*
X000674Y013437D01*
X001998Y013280D02*
X010867Y013280D01*
X010867Y013202D02*
X002150Y013202D01*
X002229Y013123D02*
X010867Y013123D01*
X010867Y013044D02*
X008478Y013044D01*
X008459Y013063D02*
X008542Y012980D01*
X008587Y012871D01*
X008587Y012754D01*
X008542Y012646D01*
X008459Y012563D01*
X008351Y012518D01*
X008234Y012518D01*
X008125Y012563D01*
X008042Y012646D01*
X007997Y012754D01*
X007997Y012871D01*
X008042Y012980D01*
X008125Y013063D01*
X008234Y013108D01*
X008351Y013108D01*
X008459Y013063D01*
X008548Y012966D02*
X010867Y012966D01*
X010867Y012887D02*
X008581Y012887D01*
X008587Y012809D02*
X010867Y012809D01*
X010867Y012730D02*
X008577Y012730D01*
X008545Y012652D02*
X010867Y012652D01*
X010867Y012573D02*
X008470Y012573D01*
X008115Y012573D02*
X007290Y012573D01*
X007279Y012563D02*
X007362Y012646D01*
X007407Y012754D01*
X007407Y012871D01*
X007362Y012980D01*
X007279Y013063D01*
X007171Y013108D01*
X007054Y013108D01*
X006945Y013063D01*
X006862Y012980D01*
X006817Y012871D01*
X006817Y012754D01*
X006862Y012646D01*
X006945Y012563D01*
X007054Y012518D01*
X007171Y012518D01*
X007279Y012563D01*
X007365Y012652D02*
X008040Y012652D01*
X008007Y012730D02*
X007397Y012730D01*
X007407Y012809D02*
X007997Y012809D01*
X008004Y012887D02*
X007401Y012887D01*
X007368Y012966D02*
X008037Y012966D01*
X008107Y013044D02*
X007298Y013044D01*
X006927Y013044D02*
X002307Y013044D01*
X002369Y012966D02*
X006857Y012966D01*
X006824Y012887D02*
X002401Y012887D01*
X002434Y012809D02*
X006817Y012809D01*
X006827Y012730D02*
X002466Y012730D01*
X002483Y012652D02*
X006860Y012652D01*
X006935Y012573D02*
X002483Y012573D01*
X002483Y012495D02*
X010867Y012495D01*
X010867Y012416D02*
X002483Y012416D01*
X002473Y012338D02*
X010867Y012338D01*
X010867Y012259D02*
X002441Y012259D01*
X001882Y010688D02*
X001784Y010688D01*
X001898Y010610D02*
X001960Y010610D01*
X001980Y010531D02*
X002039Y010531D01*
X002032Y010453D02*
X002117Y010453D01*
X002064Y010374D02*
X002196Y010374D01*
X002274Y010295D02*
X002072Y010295D01*
X002106Y010217D02*
X002353Y010217D01*
X002432Y010138D02*
X002184Y010138D01*
X002263Y010060D02*
X002510Y010060D01*
X002589Y009981D02*
X002341Y009981D01*
X002420Y009903D02*
X002667Y009903D01*
X002746Y009824D02*
X002498Y009824D01*
X002577Y009746D02*
X002824Y009746D01*
X002903Y009667D02*
X002655Y009667D01*
X002734Y009589D02*
X002981Y009589D01*
X003060Y009510D02*
X002812Y009510D01*
X003198Y009824D02*
X010136Y009824D01*
X010126Y009820D02*
X010017Y009711D01*
X009958Y009569D01*
X009958Y009414D01*
X010017Y009272D01*
X010126Y009163D01*
X010269Y009104D01*
X010423Y009104D01*
X010565Y009163D01*
X010674Y009272D01*
X010733Y009414D01*
X010733Y009569D01*
X010674Y009711D01*
X010565Y009820D01*
X010423Y009879D01*
X010269Y009879D01*
X010126Y009820D01*
X010052Y009746D02*
X003277Y009746D01*
X003355Y009667D02*
X009999Y009667D01*
X009966Y009589D02*
X003434Y009589D01*
X003512Y009510D02*
X009958Y009510D01*
X009958Y009431D02*
X004315Y009431D01*
X004245Y009502D02*
X004094Y009502D01*
X004094Y009082D01*
X004514Y009082D01*
X004514Y009232D01*
X004245Y009502D01*
X004394Y009353D02*
X009984Y009353D01*
X010016Y009274D02*
X004472Y009274D01*
X004514Y009196D02*
X010093Y009196D01*
X010237Y009117D02*
X004514Y009117D01*
X004514Y008960D02*
X010054Y008960D01*
X010017Y008924D02*
X010126Y009033D01*
X010269Y009092D01*
X010423Y009092D01*
X010565Y009033D01*
X010674Y008924D01*
X010733Y008781D01*
X010733Y008627D01*
X010674Y008485D01*
X010565Y008376D01*
X010423Y008317D01*
X010269Y008317D01*
X010126Y008376D01*
X010017Y008485D01*
X009998Y008532D01*
X008871Y008532D01*
X008272Y007933D01*
X008282Y007907D01*
X008282Y007777D01*
X008232Y007656D01*
X008140Y007564D01*
X008020Y007514D01*
X007889Y007514D01*
X007768Y007564D01*
X007676Y007656D01*
X007626Y007777D01*
X007626Y007907D01*
X007676Y008028D01*
X007768Y008120D01*
X007889Y008170D01*
X008020Y008170D01*
X008045Y008159D01*
X008644Y008758D01*
X008738Y008852D01*
X009987Y008852D01*
X010017Y008924D01*
X010000Y008882D02*
X004514Y008882D01*
X004466Y008803D02*
X008689Y008803D01*
X008611Y008725D02*
X004388Y008725D01*
X004309Y008646D02*
X008532Y008646D01*
X008454Y008567D02*
X006726Y008567D01*
X006583Y008567D02*
X003755Y008567D01*
X003714Y008646D02*
X003800Y008646D01*
X003721Y008725D02*
X003714Y008725D01*
X003834Y008489D02*
X006437Y008489D01*
X006369Y008410D02*
X005294Y008410D01*
X005232Y008472D02*
X004876Y008472D01*
X004624Y008220D01*
X004624Y007864D01*
X004876Y007612D01*
X005232Y007612D01*
X005484Y007864D01*
X005484Y008220D01*
X005232Y008472D01*
X005372Y008332D02*
X006336Y008332D01*
X006326Y008253D02*
X005451Y008253D01*
X005484Y008175D02*
X006327Y008175D01*
X006282Y008096D02*
X005484Y008096D01*
X005484Y008018D02*
X006204Y008018D01*
X006125Y007939D02*
X005484Y007939D01*
X005481Y007861D02*
X006047Y007861D01*
X006264Y007625D02*
X007707Y007625D01*
X007656Y007704D02*
X006342Y007704D01*
X006421Y007782D02*
X007626Y007782D01*
X007626Y007861D02*
X006499Y007861D01*
X006781Y007939D02*
X007639Y007939D01*
X007672Y008018D02*
X006894Y008018D01*
X006949Y008096D02*
X007745Y008096D01*
X008061Y008175D02*
X006982Y008175D01*
X006982Y008253D02*
X008139Y008253D01*
X008218Y008332D02*
X006972Y008332D01*
X006940Y008410D02*
X008297Y008410D01*
X008375Y008489D02*
X006871Y008489D01*
X007276Y007546D02*
X007810Y007546D01*
X008098Y007546D02*
X010227Y007546D01*
X010151Y007468D02*
X007355Y007468D01*
X007433Y007389D02*
X010058Y007389D01*
X010001Y007311D02*
X007512Y007311D01*
X007590Y007232D02*
X009969Y007232D01*
X009958Y007154D02*
X007669Y007154D01*
X007747Y007075D02*
X009958Y007075D01*
X009981Y006997D02*
X007826Y006997D01*
X007904Y006918D02*
X010014Y006918D01*
X010087Y006840D02*
X007983Y006840D01*
X008061Y006761D02*
X010222Y006761D01*
X010155Y006682D02*
X008140Y006682D01*
X008219Y006604D02*
X010060Y006604D01*
X010002Y006525D02*
X008297Y006525D01*
X008376Y006447D02*
X009970Y006447D01*
X009958Y006368D02*
X008454Y006368D01*
X008533Y006290D02*
X009958Y006290D01*
X009980Y006211D02*
X008611Y006211D01*
X008690Y006133D02*
X010013Y006133D01*
X010085Y006054D02*
X008768Y006054D01*
X008847Y005976D02*
X010218Y005976D01*
X010160Y005897D02*
X008925Y005897D01*
X009004Y005818D02*
X010062Y005818D01*
X010003Y005740D02*
X009083Y005740D01*
X009161Y005661D02*
X009410Y005661D01*
X009331Y005583D02*
X009240Y005583D01*
X009799Y005661D02*
X009971Y005661D01*
X009958Y005583D02*
X009877Y005583D01*
X009913Y005504D02*
X009958Y005504D01*
X009980Y005426D02*
X009932Y005426D01*
X009932Y005347D02*
X010012Y005347D01*
X010084Y005269D02*
X009908Y005269D01*
X009866Y005190D02*
X010213Y005190D01*
X010165Y005112D02*
X009899Y005112D01*
X009977Y005033D02*
X010064Y005033D01*
X010479Y005190D02*
X010644Y005190D01*
X010644Y005112D02*
X010526Y005112D01*
X010628Y005033D02*
X010644Y005033D01*
X010644Y005269D02*
X010608Y005269D01*
X010630Y005818D02*
X010644Y005818D01*
X010644Y005897D02*
X010531Y005897D01*
X010474Y005976D02*
X010644Y005976D01*
X010644Y006054D02*
X010606Y006054D01*
X010632Y006604D02*
X010644Y006604D01*
X010644Y006682D02*
X010536Y006682D01*
X010469Y006761D02*
X010644Y006761D01*
X010644Y006840D02*
X010604Y006840D01*
X010634Y007389D02*
X010644Y007389D01*
X010568Y007468D02*
X010541Y007468D01*
X010490Y007546D02*
X010464Y007546D01*
X010709Y007782D02*
X010867Y007782D01*
X010867Y007704D02*
X010785Y007704D01*
X010864Y007625D02*
X010867Y007625D01*
X010867Y007861D02*
X010733Y007861D01*
X010733Y007939D02*
X010867Y007939D01*
X010867Y008018D02*
X010723Y008018D01*
X010691Y008096D02*
X010867Y008096D01*
X010867Y008175D02*
X010636Y008175D01*
X010545Y008253D02*
X010867Y008253D01*
X010867Y008332D02*
X010459Y008332D01*
X010600Y008410D02*
X010867Y008410D01*
X010867Y008489D02*
X010676Y008489D01*
X010708Y008567D02*
X010867Y008567D01*
X010867Y008646D02*
X010733Y008646D01*
X010733Y008725D02*
X010867Y008725D01*
X010867Y008803D02*
X010724Y008803D01*
X010691Y008882D02*
X010867Y008882D01*
X010867Y008960D02*
X010637Y008960D01*
X010550Y009039D02*
X010867Y009039D01*
X010867Y009117D02*
X010455Y009117D01*
X010598Y009196D02*
X010867Y009196D01*
X010867Y009274D02*
X010675Y009274D01*
X010708Y009353D02*
X010867Y009353D01*
X010867Y009431D02*
X010733Y009431D01*
X010733Y009510D02*
X010867Y009510D01*
X010867Y009589D02*
X010725Y009589D01*
X010692Y009667D02*
X010867Y009667D01*
X010867Y009746D02*
X010639Y009746D01*
X010555Y009824D02*
X010867Y009824D01*
X010867Y009903D02*
X010450Y009903D01*
X010423Y009891D02*
X010269Y009891D01*
X010126Y009950D01*
X010017Y010059D01*
X009958Y010202D01*
X009958Y010356D01*
X010017Y010498D01*
X010126Y010607D01*
X010269Y010666D01*
X010423Y010666D01*
X010565Y010607D01*
X010674Y010498D01*
X010733Y010356D01*
X010733Y010202D01*
X010674Y010059D01*
X010565Y009950D01*
X010423Y009891D01*
X010241Y009903D02*
X003120Y009903D01*
X003041Y009981D02*
X010095Y009981D01*
X010017Y010060D02*
X002963Y010060D01*
X002884Y010138D02*
X007075Y010138D01*
X007133Y010138D02*
X007744Y010138D01*
X007672Y010217D02*
X007202Y010217D01*
X007216Y010295D02*
X007639Y010295D01*
X007626Y010374D02*
X007230Y010374D01*
X007243Y010453D02*
X007626Y010453D01*
X007657Y010531D02*
X007257Y010531D01*
X007271Y010610D02*
X007708Y010610D01*
X007794Y010688D02*
X007285Y010688D01*
X007299Y010767D02*
X007794Y010767D01*
X007794Y010845D02*
X007313Y010845D01*
X007326Y010924D02*
X007794Y010924D01*
X007794Y011002D02*
X007340Y011002D01*
X007354Y011081D02*
X007794Y011081D01*
X007794Y011159D02*
X007368Y011159D01*
X007478Y011238D02*
X007794Y011238D01*
X007794Y011316D02*
X007593Y011316D01*
X007649Y011395D02*
X007794Y011395D01*
X007794Y011474D02*
X007681Y011474D01*
X007682Y011552D02*
X007718Y011552D01*
X007935Y011788D02*
X010867Y011788D01*
X010867Y011866D02*
X007856Y011866D01*
X007778Y011945D02*
X010867Y011945D01*
X010867Y012023D02*
X007699Y012023D01*
X007621Y012102D02*
X010867Y012102D01*
X010867Y012180D02*
X007542Y012180D01*
X008013Y011709D02*
X009335Y011709D01*
X009321Y011703D02*
X009236Y011619D01*
X009191Y011509D01*
X009191Y011389D01*
X009236Y011279D01*
X009321Y011194D01*
X009431Y011149D01*
X009550Y011149D01*
X009661Y011194D01*
X009745Y011279D01*
X009791Y011389D01*
X009791Y011509D01*
X009745Y011619D01*
X009661Y011703D01*
X009550Y011749D01*
X009431Y011749D01*
X009321Y011703D01*
X009248Y011631D02*
X008092Y011631D01*
X008114Y011552D02*
X009209Y011552D01*
X009191Y011474D02*
X008114Y011474D01*
X008114Y011395D02*
X009191Y011395D01*
X009221Y011316D02*
X008114Y011316D01*
X008114Y011238D02*
X009277Y011238D01*
X009405Y011159D02*
X008114Y011159D01*
X008114Y011081D02*
X009958Y011081D01*
X009958Y011143D02*
X009958Y010989D01*
X010017Y010847D01*
X010126Y010738D01*
X010269Y010679D01*
X010423Y010679D01*
X010565Y010738D01*
X010674Y010847D01*
X010733Y010989D01*
X010733Y011143D01*
X010674Y011286D01*
X010565Y011395D01*
X010423Y011454D01*
X010269Y011454D01*
X010126Y011395D01*
X010017Y011286D01*
X009958Y011143D01*
X009965Y011159D02*
X009576Y011159D01*
X009704Y011238D02*
X009997Y011238D01*
X010048Y011316D02*
X009760Y011316D01*
X009791Y011395D02*
X010127Y011395D01*
X009791Y011474D02*
X010867Y011474D01*
X010867Y011552D02*
X009772Y011552D01*
X009733Y011631D02*
X010867Y011631D01*
X010867Y011709D02*
X009646Y011709D01*
X009958Y011002D02*
X008114Y011002D01*
X008114Y010924D02*
X009985Y010924D01*
X010019Y010845D02*
X008114Y010845D01*
X008114Y010767D02*
X010097Y010767D01*
X010132Y010610D02*
X008201Y010610D01*
X008252Y010531D02*
X010050Y010531D01*
X009998Y010453D02*
X008282Y010453D01*
X008282Y010374D02*
X009966Y010374D01*
X009958Y010295D02*
X008269Y010295D01*
X008237Y010217D02*
X009958Y010217D01*
X009984Y010138D02*
X008165Y010138D01*
X008114Y010688D02*
X010246Y010688D01*
X010445Y010688D02*
X010867Y010688D01*
X010867Y010610D02*
X010560Y010610D01*
X010641Y010531D02*
X010867Y010531D01*
X010867Y010453D02*
X010693Y010453D01*
X010726Y010374D02*
X010867Y010374D01*
X010867Y010295D02*
X010733Y010295D01*
X010733Y010217D02*
X010867Y010217D01*
X010867Y010138D02*
X010707Y010138D01*
X010674Y010060D02*
X010867Y010060D01*
X010867Y009981D02*
X010596Y009981D01*
X010594Y010767D02*
X010867Y010767D01*
X010867Y010845D02*
X010673Y010845D01*
X010706Y010924D02*
X010867Y010924D01*
X010867Y011002D02*
X010733Y011002D01*
X010733Y011081D02*
X010867Y011081D01*
X010867Y011159D02*
X010726Y011159D01*
X010694Y011238D02*
X010867Y011238D01*
X010867Y011316D02*
X010643Y011316D01*
X010564Y011395D02*
X010867Y011395D01*
X010141Y009039D02*
X004094Y009039D01*
X004094Y009117D02*
X004014Y009117D01*
X004014Y009196D02*
X004094Y009196D01*
X004094Y009274D02*
X004014Y009274D01*
X004014Y009353D02*
X004094Y009353D01*
X004094Y009431D02*
X004014Y009431D01*
X003793Y009431D02*
X003591Y009431D01*
X003669Y009353D02*
X003715Y009353D01*
X004014Y008960D02*
X004094Y008960D01*
X004094Y008882D02*
X004014Y008882D01*
X004014Y008803D02*
X004094Y008803D01*
X004094Y008725D02*
X004014Y008725D01*
X004014Y008646D02*
X004094Y008646D01*
X004294Y008410D02*
X004815Y008410D01*
X004736Y008332D02*
X004372Y008332D01*
X004451Y008253D02*
X004658Y008253D01*
X004624Y008175D02*
X004484Y008175D01*
X004484Y008096D02*
X004624Y008096D01*
X004624Y008018D02*
X004484Y008018D01*
X004484Y007939D02*
X004624Y007939D01*
X004628Y007861D02*
X004481Y007861D01*
X004403Y007782D02*
X004706Y007782D01*
X004785Y007704D02*
X004324Y007704D01*
X004245Y007625D02*
X004863Y007625D01*
X005068Y007232D02*
X004214Y007232D01*
X004214Y007154D02*
X004990Y007154D01*
X004911Y007075D02*
X004214Y007075D01*
X004214Y006997D02*
X004833Y006997D01*
X004754Y006918D02*
X004214Y006918D01*
X004214Y006840D02*
X004676Y006840D01*
X004638Y006802D02*
X004638Y006802D01*
X004544Y006447D02*
X002920Y006447D01*
X002932Y006525D02*
X003945Y006525D01*
X003894Y006604D02*
X002932Y006604D01*
X002901Y006682D02*
X003894Y006682D01*
X003894Y006761D02*
X002849Y006761D01*
X002887Y006368D02*
X004544Y006368D01*
X004544Y006290D02*
X002816Y006290D01*
X002601Y005504D02*
X002314Y005504D01*
X002314Y005426D02*
X002474Y005426D01*
X002414Y005347D02*
X002314Y005347D01*
X002314Y005269D02*
X002381Y005269D01*
X002376Y005190D02*
X002314Y005190D01*
X002314Y005112D02*
X002382Y005112D01*
X002415Y005033D02*
X002314Y005033D01*
X002314Y004954D02*
X002478Y004954D01*
X002610Y004876D02*
X002314Y004876D01*
X001723Y003941D02*
X001645Y003941D01*
X001645Y003563D01*
X001586Y003572D01*
X001524Y003593D01*
X001465Y003623D01*
X001414Y003660D01*
X001414Y003208D01*
X001494Y003128D01*
X001494Y003276D01*
X001494Y003408D01*
X001723Y003637D01*
X001723Y003941D01*
X001723Y003933D02*
X001645Y003933D01*
X001645Y003855D02*
X001723Y003855D01*
X001723Y003776D02*
X001645Y003776D01*
X001645Y003698D02*
X001723Y003698D01*
X001705Y003619D02*
X001645Y003619D01*
X001627Y003541D02*
X001414Y003541D01*
X001414Y003619D02*
X001472Y003619D01*
X001414Y003462D02*
X001548Y003462D01*
X001494Y003384D02*
X001414Y003384D01*
X001414Y003305D02*
X001494Y003305D01*
X001494Y003227D02*
X001414Y003227D01*
X001474Y003148D02*
X001494Y003148D01*
X001258Y002912D02*
X000674Y002912D01*
X000674Y002834D02*
X001336Y002834D01*
X001394Y002776D02*
X001394Y002352D01*
X001245Y002502D01*
X001094Y002502D01*
X001094Y002082D01*
X001014Y002082D01*
X001014Y002502D01*
X000864Y002502D01*
X000674Y002312D01*
X000674Y003258D01*
X000718Y003214D01*
X000839Y003164D01*
X000970Y003164D01*
X001090Y003214D01*
X001094Y003218D01*
X001094Y003208D01*
X001094Y003076D01*
X001394Y002776D01*
X001394Y002755D02*
X000674Y002755D01*
X000674Y002677D02*
X001394Y002677D01*
X001394Y002598D02*
X000674Y002598D01*
X000674Y002520D02*
X001394Y002520D01*
X001394Y002441D02*
X001306Y002441D01*
X001384Y002363D02*
X001394Y002363D01*
X001094Y002363D02*
X001014Y002363D01*
X001014Y002441D02*
X001094Y002441D01*
X001094Y002284D02*
X001014Y002284D01*
X001014Y002205D02*
X001094Y002205D01*
X001094Y002127D02*
X001014Y002127D01*
X001014Y002002D02*
X001094Y002002D01*
X001094Y001582D01*
X001245Y001582D01*
X001394Y001731D01*
X001394Y001608D01*
X001394Y001476D01*
X001637Y001233D01*
X001624Y001220D01*
X001624Y000864D01*
X001876Y000612D01*
X002232Y000612D01*
X002484Y000864D01*
X002484Y001220D01*
X002232Y001472D01*
X001876Y001472D01*
X001863Y001459D01*
X001714Y001608D01*
X001714Y001774D01*
X001876Y001612D01*
X002232Y001612D01*
X002394Y001774D01*
X002394Y001608D01*
X002394Y001476D01*
X002637Y001233D01*
X002624Y001220D01*
X002624Y000864D01*
X002876Y000612D01*
X003232Y000612D01*
X003484Y000864D01*
X003484Y001220D01*
X003232Y001472D01*
X002876Y001472D01*
X002863Y001459D01*
X002714Y001608D01*
X002714Y001774D01*
X002876Y001612D01*
X003232Y001612D01*
X003484Y001864D01*
X003484Y002220D01*
X003232Y002472D01*
X002876Y002472D01*
X002713Y002309D01*
X001814Y003208D01*
X001814Y003276D01*
X002221Y003682D01*
X002158Y003619D02*
X003444Y003619D01*
X003389Y003541D02*
X002079Y003541D01*
X002001Y003462D02*
X003320Y003462D01*
X003287Y003384D02*
X001922Y003384D01*
X001844Y003305D02*
X003276Y003305D01*
X003276Y003227D02*
X001814Y003227D01*
X001874Y003148D02*
X003309Y003148D01*
X003363Y003069D02*
X001953Y003069D01*
X002032Y002991D02*
X003474Y002991D01*
X003735Y002991D02*
X004592Y002991D01*
X004240Y003069D02*
X003846Y003069D01*
X003900Y003148D02*
X004189Y003148D01*
X004192Y003227D02*
X003932Y003227D01*
X003932Y003305D02*
X004206Y003305D01*
X004220Y003384D02*
X003921Y003384D01*
X003889Y003462D02*
X004234Y003462D01*
X004248Y003541D02*
X003819Y003541D01*
X003764Y003619D02*
X004262Y003619D01*
X005097Y003462D02*
X005178Y003462D01*
X005164Y003384D02*
X005083Y003384D01*
X005069Y003305D02*
X005150Y003305D01*
X005137Y003227D02*
X005055Y003227D01*
X005042Y003148D02*
X005123Y003148D01*
X005109Y003069D02*
X005028Y003069D01*
X005014Y002991D02*
X005095Y002991D01*
X005081Y002912D02*
X002110Y002912D01*
X002189Y002834D02*
X005483Y002834D01*
X005232Y002472D02*
X004876Y002472D01*
X004624Y002220D01*
X004624Y001864D01*
X004876Y001612D01*
X005232Y001612D01*
X005484Y001864D01*
X005484Y002220D01*
X005232Y002472D01*
X005263Y002441D02*
X005845Y002441D01*
X005767Y002363D02*
X005342Y002363D01*
X005420Y002284D02*
X005688Y002284D01*
X005624Y002205D02*
X005484Y002205D01*
X005484Y002127D02*
X005624Y002127D01*
X005624Y002048D02*
X005484Y002048D01*
X005484Y001970D02*
X005624Y001970D01*
X005624Y001891D02*
X005484Y001891D01*
X005433Y001813D02*
X005675Y001813D01*
X005754Y001734D02*
X005355Y001734D01*
X005276Y001656D02*
X005832Y001656D01*
X005876Y001472D02*
X005624Y001220D01*
X005624Y000864D01*
X005876Y000612D01*
X006232Y000612D01*
X006484Y000864D01*
X006484Y001220D01*
X006232Y001472D01*
X005876Y001472D01*
X005824Y001420D02*
X005284Y001420D01*
X005232Y001472D02*
X004876Y001472D01*
X004624Y001220D01*
X004624Y000864D01*
X004876Y000612D01*
X005232Y000612D01*
X005484Y000864D01*
X005484Y001220D01*
X005232Y001472D01*
X005363Y001341D02*
X005746Y001341D01*
X005667Y001263D02*
X005441Y001263D01*
X005484Y001184D02*
X005624Y001184D01*
X005624Y001106D02*
X005484Y001106D01*
X005484Y001027D02*
X005624Y001027D01*
X005624Y000949D02*
X005484Y000949D01*
X005484Y000870D02*
X005624Y000870D01*
X005696Y000792D02*
X005412Y000792D01*
X005334Y000713D02*
X005775Y000713D01*
X005854Y000635D02*
X005255Y000635D01*
X004854Y000635D02*
X004255Y000635D01*
X004232Y000612D02*
X004484Y000864D01*
X004484Y001220D01*
X004232Y001472D01*
X003876Y001472D01*
X003624Y001220D01*
X003624Y000864D01*
X003876Y000612D01*
X004232Y000612D01*
X004334Y000713D02*
X004775Y000713D01*
X004696Y000792D02*
X004412Y000792D01*
X004484Y000870D02*
X004624Y000870D01*
X004624Y000949D02*
X004484Y000949D01*
X004484Y001027D02*
X004624Y001027D01*
X004624Y001106D02*
X004484Y001106D01*
X004484Y001184D02*
X004624Y001184D01*
X004667Y001263D02*
X004441Y001263D01*
X004363Y001341D02*
X004746Y001341D01*
X004824Y001420D02*
X004284Y001420D01*
X004232Y001612D02*
X004484Y001864D01*
X004484Y002220D01*
X004232Y002472D01*
X003876Y002472D01*
X003624Y002220D01*
X003624Y001864D01*
X003876Y001612D01*
X004232Y001612D01*
X004276Y001656D02*
X004832Y001656D01*
X004754Y001734D02*
X004355Y001734D01*
X004433Y001813D02*
X004675Y001813D01*
X004624Y001891D02*
X004484Y001891D01*
X004484Y001970D02*
X004624Y001970D01*
X004624Y002048D02*
X004484Y002048D01*
X004484Y002127D02*
X004624Y002127D01*
X004624Y002205D02*
X004484Y002205D01*
X004420Y002284D02*
X004688Y002284D01*
X004767Y002363D02*
X004342Y002363D01*
X004263Y002441D02*
X004845Y002441D01*
X003845Y002441D02*
X003263Y002441D01*
X003342Y002363D02*
X003767Y002363D01*
X003688Y002284D02*
X003420Y002284D01*
X003484Y002205D02*
X003624Y002205D01*
X003624Y002127D02*
X003484Y002127D01*
X003484Y002048D02*
X003624Y002048D01*
X003624Y001970D02*
X003484Y001970D01*
X003484Y001891D02*
X003624Y001891D01*
X003675Y001813D02*
X003433Y001813D01*
X003355Y001734D02*
X003754Y001734D01*
X003832Y001656D02*
X003276Y001656D01*
X003284Y001420D02*
X003824Y001420D01*
X003746Y001341D02*
X003363Y001341D01*
X003441Y001263D02*
X003667Y001263D01*
X003624Y001184D02*
X003484Y001184D01*
X003484Y001106D02*
X003624Y001106D01*
X003624Y001027D02*
X003484Y001027D01*
X003484Y000949D02*
X003624Y000949D01*
X003624Y000870D02*
X003484Y000870D01*
X003412Y000792D02*
X003696Y000792D01*
X003775Y000713D02*
X003334Y000713D01*
X003255Y000635D02*
X003854Y000635D01*
X002854Y000635D02*
X002255Y000635D01*
X002334Y000713D02*
X002775Y000713D01*
X002696Y000792D02*
X002412Y000792D01*
X002484Y000870D02*
X002624Y000870D01*
X002624Y000949D02*
X002484Y000949D01*
X002484Y001027D02*
X002624Y001027D01*
X002624Y001106D02*
X002484Y001106D01*
X002484Y001184D02*
X002624Y001184D01*
X002607Y001263D02*
X002441Y001263D01*
X002363Y001341D02*
X002528Y001341D01*
X002450Y001420D02*
X002284Y001420D01*
X002394Y001499D02*
X001824Y001499D01*
X001745Y001577D02*
X002394Y001577D01*
X002394Y001656D02*
X002276Y001656D01*
X002355Y001734D02*
X002394Y001734D01*
X002714Y001734D02*
X002754Y001734D01*
X002714Y001656D02*
X002832Y001656D01*
X002745Y001577D02*
X006394Y001577D01*
X006394Y001499D02*
X002824Y001499D01*
X002767Y002363D02*
X002660Y002363D01*
X002581Y002441D02*
X002845Y002441D01*
X002503Y002520D02*
X006150Y002520D01*
X006094Y002598D02*
X002424Y002598D01*
X002346Y002677D02*
X006094Y002677D01*
X006094Y002755D02*
X002267Y002755D01*
X001754Y001734D02*
X001714Y001734D01*
X001714Y001656D02*
X001832Y001656D01*
X001528Y001341D02*
X001363Y001341D01*
X001441Y001263D02*
X001607Y001263D01*
X001624Y001184D02*
X001484Y001184D01*
X001484Y001220D02*
X001232Y001472D01*
X000876Y001472D01*
X000674Y001270D01*
X000674Y001771D01*
X000864Y001582D01*
X001014Y001582D01*
X001014Y002002D01*
X001014Y001970D02*
X001094Y001970D01*
X001094Y001891D02*
X001014Y001891D01*
X001014Y001813D02*
X001094Y001813D01*
X001094Y001734D02*
X001014Y001734D01*
X001014Y001656D02*
X001094Y001656D01*
X001319Y001656D02*
X001394Y001656D01*
X001394Y001577D02*
X000674Y001577D01*
X000674Y001499D02*
X001394Y001499D01*
X001450Y001420D02*
X001284Y001420D01*
X001484Y001220D02*
X001484Y000864D01*
X001232Y000612D01*
X000876Y000612D01*
X000674Y000814D01*
X000674Y000792D02*
X000696Y000792D01*
X000674Y000713D02*
X000775Y000713D01*
X000854Y000635D02*
X000674Y000635D01*
X000674Y000556D02*
X010867Y000556D01*
X010867Y000478D02*
X000674Y000478D01*
X000674Y000399D02*
X010867Y000399D01*
X010867Y000635D02*
X010255Y000635D01*
X010232Y000612D02*
X010484Y000864D01*
X010484Y001220D01*
X010232Y001472D01*
X009876Y001472D01*
X009624Y001220D01*
X009624Y000864D01*
X009876Y000612D01*
X010232Y000612D01*
X010334Y000713D02*
X010867Y000713D01*
X010867Y000792D02*
X010412Y000792D01*
X010484Y000870D02*
X010867Y000870D01*
X010867Y000949D02*
X010484Y000949D01*
X010484Y001027D02*
X010867Y001027D01*
X010867Y001106D02*
X010484Y001106D01*
X010484Y001184D02*
X010867Y001184D01*
X010867Y001263D02*
X010441Y001263D01*
X010363Y001341D02*
X010867Y001341D01*
X010867Y001420D02*
X010284Y001420D01*
X010276Y001656D02*
X010867Y001656D01*
X010867Y001734D02*
X010355Y001734D01*
X010433Y001813D02*
X010867Y001813D01*
X010867Y001891D02*
X010484Y001891D01*
X010484Y001970D02*
X010867Y001970D01*
X010867Y002048D02*
X010484Y002048D01*
X010484Y002127D02*
X010867Y002127D01*
X010867Y002205D02*
X010484Y002205D01*
X010420Y002284D02*
X010867Y002284D01*
X010867Y002363D02*
X010342Y002363D01*
X009767Y002363D02*
X009342Y002363D01*
X009420Y002284D02*
X009688Y002284D01*
X009624Y002205D02*
X009484Y002205D01*
X009484Y002127D02*
X009624Y002127D01*
X009624Y002048D02*
X009484Y002048D01*
X009484Y001970D02*
X009624Y001970D01*
X009624Y001891D02*
X009484Y001891D01*
X009433Y001813D02*
X009675Y001813D01*
X009754Y001734D02*
X009355Y001734D01*
X009276Y001656D02*
X009832Y001656D01*
X009824Y001420D02*
X009284Y001420D01*
X009363Y001341D02*
X009746Y001341D01*
X009667Y001263D02*
X009441Y001263D01*
X009484Y001184D02*
X009624Y001184D01*
X009624Y001106D02*
X009484Y001106D01*
X009484Y001027D02*
X009624Y001027D01*
X009624Y000949D02*
X009484Y000949D01*
X009484Y000870D02*
X009624Y000870D01*
X009696Y000792D02*
X009412Y000792D01*
X009334Y000713D02*
X009775Y000713D01*
X009854Y000635D02*
X009255Y000635D01*
X008854Y000635D02*
X008255Y000635D01*
X008334Y000713D02*
X008775Y000713D01*
X008696Y000792D02*
X008412Y000792D01*
X008484Y000870D02*
X008624Y000870D01*
X008624Y000949D02*
X008484Y000949D01*
X008484Y001027D02*
X008624Y001027D01*
X008624Y001106D02*
X008484Y001106D01*
X008484Y001184D02*
X008624Y001184D01*
X008607Y001263D02*
X008441Y001263D01*
X008363Y001341D02*
X008528Y001341D01*
X008745Y001577D02*
X010867Y001577D01*
X010867Y001499D02*
X008824Y001499D01*
X008832Y001656D02*
X008667Y001656D01*
X008754Y001734D02*
X008355Y001734D01*
X008433Y001813D02*
X008675Y001813D01*
X008624Y001891D02*
X008484Y001891D01*
X008484Y001970D02*
X008624Y001970D01*
X008624Y002048D02*
X008484Y002048D01*
X008484Y002127D02*
X008624Y002127D01*
X008624Y002205D02*
X008484Y002205D01*
X008420Y002284D02*
X008688Y002284D01*
X008767Y002363D02*
X008342Y002363D01*
X007593Y001577D02*
X006745Y001577D01*
X006714Y001656D02*
X006832Y001656D01*
X006754Y001734D02*
X006714Y001734D01*
X006824Y001499D02*
X007671Y001499D01*
X007750Y001420D02*
X007284Y001420D01*
X007363Y001341D02*
X007746Y001341D01*
X007667Y001263D02*
X007441Y001263D01*
X007484Y001184D02*
X007624Y001184D01*
X007624Y001106D02*
X007484Y001106D01*
X007484Y001027D02*
X007624Y001027D01*
X007624Y000949D02*
X007484Y000949D01*
X007484Y000870D02*
X007624Y000870D01*
X007696Y000792D02*
X007412Y000792D01*
X007334Y000713D02*
X007775Y000713D01*
X007854Y000635D02*
X007255Y000635D01*
X006854Y000635D02*
X006255Y000635D01*
X006334Y000713D02*
X006775Y000713D01*
X006696Y000792D02*
X006412Y000792D01*
X006484Y000870D02*
X006624Y000870D01*
X006624Y000949D02*
X006484Y000949D01*
X006484Y001027D02*
X006624Y001027D01*
X006624Y001106D02*
X006484Y001106D01*
X006484Y001184D02*
X006624Y001184D01*
X006607Y001263D02*
X006441Y001263D01*
X006363Y001341D02*
X006528Y001341D01*
X006450Y001420D02*
X006284Y001420D01*
X006276Y001656D02*
X006394Y001656D01*
X006394Y001734D02*
X006355Y001734D01*
X007276Y001656D02*
X007514Y001656D01*
X007436Y001734D02*
X007355Y001734D01*
X006094Y002834D02*
X005914Y002834D01*
X005944Y002912D02*
X006094Y002912D01*
X006094Y002991D02*
X005958Y002991D01*
X005972Y003069D02*
X006094Y003069D01*
X006094Y003148D02*
X005986Y003148D01*
X006000Y003227D02*
X006094Y003227D01*
X006094Y003305D02*
X006014Y003305D01*
X005234Y003776D02*
X005152Y003776D01*
X005139Y003698D02*
X005220Y003698D01*
X005247Y003855D02*
X005166Y003855D01*
X005180Y003933D02*
X005261Y003933D01*
X005275Y004012D02*
X005194Y004012D01*
X005208Y004091D02*
X005289Y004091D01*
X005147Y007311D02*
X004214Y007311D01*
X004214Y007389D02*
X005226Y007389D01*
X005304Y007468D02*
X004214Y007468D01*
X004214Y007546D02*
X005383Y007546D01*
X005461Y007625D02*
X005245Y007625D01*
X005324Y007704D02*
X005540Y007704D01*
X005594Y007758D02*
X005594Y007758D01*
X005618Y007782D02*
X005403Y007782D01*
X003863Y007625D02*
X003245Y007625D01*
X003324Y007704D02*
X003785Y007704D01*
X003706Y007782D02*
X003403Y007782D01*
X003481Y007861D02*
X003628Y007861D01*
X003624Y007939D02*
X003484Y007939D01*
X003484Y008018D02*
X003624Y008018D01*
X003624Y008096D02*
X003484Y008096D01*
X003484Y008175D02*
X003624Y008175D01*
X003617Y008253D02*
X003451Y008253D01*
X003372Y008332D02*
X003538Y008332D01*
X003460Y008410D02*
X003294Y008410D01*
X003394Y008489D02*
X002833Y008489D01*
X002755Y008567D02*
X003394Y008567D01*
X003394Y008646D02*
X003266Y008646D01*
X003345Y008725D02*
X003394Y008725D01*
X002842Y008646D02*
X002676Y008646D01*
X002598Y008725D02*
X002764Y008725D01*
X002685Y008803D02*
X002519Y008803D01*
X002441Y008882D02*
X002624Y008882D01*
X002624Y008960D02*
X002362Y008960D01*
X001570Y008332D02*
X001414Y008332D01*
X001414Y008410D02*
X001430Y008410D01*
X001414Y008253D02*
X001484Y008253D01*
X001428Y007625D02*
X001414Y007625D01*
X001414Y007546D02*
X001566Y007546D01*
X001489Y007468D02*
X001414Y007468D01*
X001414Y006840D02*
X001426Y006840D01*
X001414Y006761D02*
X001561Y006761D01*
X001494Y006682D02*
X001414Y006682D01*
X000744Y006682D02*
X000674Y006682D01*
X000674Y006604D02*
X000744Y006604D01*
X000744Y006525D02*
X000674Y006525D01*
X000674Y006447D02*
X000744Y006447D01*
X000744Y006368D02*
X000674Y006368D01*
X000674Y006290D02*
X000744Y006290D01*
X000744Y006211D02*
X000674Y006211D01*
X000674Y006133D02*
X000744Y006133D01*
X000744Y006054D02*
X000674Y006054D01*
X000674Y005976D02*
X000744Y005976D01*
X000744Y005897D02*
X000674Y005897D01*
X000674Y005818D02*
X000744Y005818D01*
X000744Y005740D02*
X000674Y005740D01*
X000674Y005661D02*
X000744Y005661D01*
X000744Y005583D02*
X000674Y005583D01*
X000674Y005504D02*
X000744Y005504D01*
X000744Y005426D02*
X000674Y005426D01*
X000674Y005347D02*
X000744Y005347D01*
X000744Y005269D02*
X000674Y005269D01*
X000674Y005190D02*
X000744Y005190D01*
X000744Y005112D02*
X000674Y005112D01*
X000674Y005033D02*
X000744Y005033D01*
X000744Y004954D02*
X000674Y004954D01*
X000674Y004876D02*
X000744Y004876D01*
X000744Y004797D02*
X000674Y004797D01*
X000674Y004719D02*
X000744Y004719D01*
X000744Y004640D02*
X000674Y004640D01*
X000674Y004562D02*
X000744Y004562D01*
X000744Y004483D02*
X000674Y004483D01*
X000674Y004405D02*
X000744Y004405D01*
X000744Y004326D02*
X000674Y004326D01*
X000674Y004248D02*
X000744Y004248D01*
X000744Y004169D02*
X000674Y004169D01*
X000674Y004091D02*
X000744Y004091D01*
X000744Y004012D02*
X000674Y004012D01*
X000674Y003933D02*
X000744Y003933D01*
X000744Y003855D02*
X000674Y003855D01*
X000674Y003776D02*
X000734Y003776D01*
X000706Y003227D02*
X000674Y003227D01*
X000674Y003148D02*
X001094Y003148D01*
X001100Y003069D02*
X000674Y003069D01*
X000674Y002991D02*
X001179Y002991D01*
X000803Y002441D02*
X000674Y002441D01*
X000674Y002363D02*
X000725Y002363D01*
X000711Y001734D02*
X000674Y001734D01*
X000674Y001656D02*
X000790Y001656D01*
X000824Y001420D02*
X000674Y001420D01*
X000674Y001341D02*
X000746Y001341D01*
X001334Y000713D02*
X001775Y000713D01*
X001854Y000635D02*
X001255Y000635D01*
X001412Y000792D02*
X001696Y000792D01*
X001624Y000870D02*
X001484Y000870D01*
X001484Y000949D02*
X001624Y000949D01*
X001624Y001027D02*
X001484Y001027D01*
X001484Y001106D02*
X001624Y001106D01*
X000744Y006761D02*
X000674Y006761D01*
X000674Y006840D02*
X000744Y006840D01*
X000744Y006918D02*
X000674Y006918D01*
X000674Y006997D02*
X000744Y006997D01*
X000744Y007075D02*
X000674Y007075D01*
X000674Y007154D02*
X000744Y007154D01*
X000744Y007232D02*
X000674Y007232D01*
X000674Y007311D02*
X000744Y007311D01*
X000744Y007389D02*
X000674Y007389D01*
X000674Y007468D02*
X000744Y007468D01*
X000744Y007546D02*
X000674Y007546D01*
X000674Y007625D02*
X000744Y007625D01*
X000744Y007704D02*
X000674Y007704D01*
X000674Y007782D02*
X000744Y007782D01*
X000744Y007861D02*
X000674Y007861D01*
X000674Y007939D02*
X000744Y007939D01*
X000744Y008018D02*
X000674Y008018D01*
X000674Y008096D02*
X000744Y008096D01*
X000744Y008175D02*
X000674Y008175D01*
X000674Y008253D02*
X000744Y008253D01*
X000744Y008332D02*
X000674Y008332D01*
X000674Y008410D02*
X000744Y008410D01*
X000744Y008489D02*
X000674Y008489D01*
X000674Y008567D02*
X000744Y008567D01*
X000744Y008646D02*
X000674Y008646D01*
X000674Y008725D02*
X000744Y008725D01*
X000744Y008803D02*
X000674Y008803D01*
X000674Y008882D02*
X000744Y008882D01*
X000744Y008960D02*
X000674Y008960D01*
X000674Y009039D02*
X000744Y009039D01*
X000744Y009117D02*
X000674Y009117D01*
X000674Y009196D02*
X000744Y009196D01*
X000761Y009274D02*
X000674Y009274D01*
X000674Y009353D02*
X000839Y009353D01*
X000918Y009431D02*
X000674Y009431D01*
X000674Y009510D02*
X000996Y009510D01*
X001075Y009589D02*
X000674Y009589D01*
X000674Y009667D02*
X001094Y009667D01*
X001094Y009746D02*
X000674Y009746D01*
X000674Y009824D02*
X001094Y009824D01*
X001094Y009903D02*
X000674Y009903D01*
X000674Y009981D02*
X001117Y009981D01*
X002727Y010295D02*
X006184Y010295D01*
X006630Y010217D02*
X002806Y010217D01*
X008201Y007625D02*
X010089Y007625D01*
X010015Y007704D02*
X008252Y007704D01*
X008282Y007782D02*
X009982Y007782D01*
X009958Y007861D02*
X008282Y007861D01*
X008278Y007939D02*
X009958Y007939D01*
X009968Y008018D02*
X008356Y008018D01*
X008435Y008096D02*
X010001Y008096D01*
X010056Y008175D02*
X008513Y008175D01*
X008592Y008253D02*
X010146Y008253D01*
X010232Y008332D02*
X008671Y008332D01*
X008749Y008410D02*
X010091Y008410D01*
X010015Y008489D02*
X008828Y008489D01*
D14*
X007954Y007842D03*
X007954Y007242D03*
X007604Y005992D03*
X006854Y007042D03*
X006654Y008242D03*
X005154Y006492D03*
X005804Y006042D03*
X005454Y005642D03*
X005854Y005292D03*
X004704Y004992D03*
X003604Y003292D03*
X002704Y005192D03*
X002604Y006542D03*
X000904Y003492D03*
X005204Y010842D03*
X007354Y011542D03*
X007954Y010392D03*
X009604Y005392D03*
X009704Y004842D03*
X008954Y004392D03*
X009504Y003392D03*
X009054Y003042D03*
X007204Y003942D03*
X002754Y011442D03*
D15*
X003354Y012042D01*
X007454Y012042D01*
X007954Y011542D01*
X007954Y010392D01*
X007354Y011542D02*
X006654Y010842D01*
X006471Y010842D01*
X006444Y010869D01*
X005232Y010869D01*
X005204Y010842D01*
X003554Y009242D02*
X001754Y011042D01*
X001654Y011042D01*
X001654Y010292D02*
X001254Y009892D01*
X001254Y009542D01*
X000904Y009192D01*
X000904Y003492D01*
X001254Y003142D02*
X001554Y002842D01*
X001554Y001542D01*
X002054Y001042D01*
X002554Y001542D02*
X003054Y001042D01*
X002554Y001542D02*
X002554Y002242D01*
X001654Y003142D01*
X001654Y003342D01*
X002154Y003842D01*
X002154Y006092D01*
X002604Y006542D01*
X002704Y005192D02*
X004504Y005192D01*
X004704Y004992D01*
X003604Y003892D01*
X003604Y003292D01*
X004704Y004992D02*
X004704Y005492D01*
X004704Y006642D01*
X004054Y006642D01*
X004054Y008042D01*
X003554Y008542D01*
X003554Y009242D01*
X003054Y009042D02*
X001817Y010279D01*
X001684Y010279D01*
X001704Y010292D02*
X001654Y010292D01*
X001654Y009442D02*
X001254Y009042D01*
X001254Y009029D02*
X001254Y003142D01*
X004704Y005492D02*
X005604Y006392D01*
X006404Y006392D01*
X007454Y005342D01*
X008004Y005342D01*
X008954Y004392D01*
X009404Y004842D02*
X008254Y005992D01*
X007604Y005992D01*
X007504Y005592D02*
X006954Y006142D01*
X006954Y006942D01*
X006854Y007042D01*
X007154Y007442D02*
X006104Y007442D01*
X005154Y006492D01*
X004704Y006642D02*
X005754Y007692D01*
X006104Y007692D01*
X006654Y008242D01*
X007154Y007442D02*
X009204Y005392D01*
X009604Y005392D01*
X009654Y004842D02*
X009704Y004842D01*
X009404Y004842D01*
X009504Y004392D02*
X008304Y005592D01*
X007504Y005592D01*
X007354Y004842D02*
X007954Y004842D01*
X009054Y003742D01*
X009054Y003042D01*
X009504Y003442D02*
X009504Y004392D01*
X009854Y004292D02*
X009854Y003242D01*
X010054Y003042D01*
X010754Y002542D02*
X008254Y002542D01*
X007204Y003592D01*
X007204Y003942D01*
X007954Y003942D01*
X008054Y004042D01*
X007354Y004842D02*
X006154Y006042D01*
X005804Y006042D01*
X006154Y005642D02*
X005454Y005642D01*
X005854Y005292D02*
X005854Y004842D01*
X006254Y004442D01*
X006254Y002642D01*
X006554Y002342D01*
X006554Y001542D01*
X007054Y001042D01*
X007554Y001842D02*
X007554Y002292D01*
X007304Y002542D01*
X006754Y002542D01*
X006554Y002742D01*
X006554Y005242D01*
X006154Y005642D01*
X007954Y007842D02*
X008804Y008692D01*
X010333Y008692D01*
X010346Y008704D01*
X010346Y007917D02*
X010804Y007458D01*
X010804Y002592D01*
X010754Y002542D01*
X009854Y004292D02*
X010354Y004792D01*
X008554Y001542D02*
X007854Y001542D01*
X007554Y001842D01*
X008554Y001542D02*
X009054Y001042D01*
X003054Y008042D02*
X001684Y009412D01*
M02*
