G75*
G70*
%OFA0B0*%
%FSLAX24Y24*%
%IPPOS*%
%LPD*%
%AMOC8*
5,1,8,0,0,1.08239X$1,22.5*
%
%ADD10C,0.0060*%
%ADD11R,0.0500X0.0220*%
%ADD12R,0.0220X0.0500*%
%ADD13C,0.0555*%
%ADD14R,0.0472X0.0217*%
%ADD15R,0.0354X0.0276*%
%ADD16R,0.0276X0.0354*%
%ADD17R,0.0394X0.1811*%
%ADD18R,0.0630X0.1339*%
%ADD19R,0.0315X0.0315*%
%ADD20R,0.0591X0.0512*%
%ADD21R,0.0394X0.0709*%
%ADD22R,0.0472X0.0197*%
%ADD23R,0.0197X0.0472*%
%ADD24R,0.0669X0.0276*%
%ADD25R,0.0390X0.0320*%
%ADD26R,0.0280X0.0590*%
%ADD27OC8,0.0640*%
%ADD28C,0.0100*%
%ADD29C,0.0080*%
%ADD30C,0.0436*%
D10*
X000737Y004564D02*
X000737Y004791D01*
X000737Y004677D02*
X001077Y004677D01*
X000964Y004791D01*
X000737Y004932D02*
X000737Y005159D01*
X000737Y005046D02*
X001077Y005046D01*
X000964Y005159D01*
X001020Y005301D02*
X000793Y005301D01*
X000737Y005357D01*
X000737Y005471D01*
X000793Y005527D01*
X001020Y005301D01*
X001077Y005357D01*
X001077Y005471D01*
X001020Y005527D01*
X000793Y005527D01*
X000737Y005669D02*
X000737Y005896D01*
X000964Y005669D01*
X001020Y005669D01*
X001077Y005726D01*
X001077Y005839D01*
X001020Y005896D01*
X001077Y006037D02*
X000737Y006264D01*
X000737Y006462D02*
X001077Y006462D01*
X000907Y006632D01*
X000907Y006405D01*
X001020Y006774D02*
X000793Y006774D01*
X000737Y006831D01*
X000737Y006944D01*
X000793Y007001D01*
X001020Y006774D01*
X001077Y006831D01*
X001077Y006944D01*
X001020Y007001D01*
X000793Y007001D01*
X000907Y007510D02*
X000907Y007737D01*
X000907Y008247D02*
X000850Y008247D01*
X000850Y008474D01*
X000793Y008474D02*
X000907Y008474D01*
X000964Y008417D01*
X000964Y008304D01*
X000907Y008247D01*
X000737Y008417D02*
X000793Y008474D01*
X000737Y008417D02*
X000737Y008304D01*
X000737Y008615D02*
X000737Y008785D01*
X000793Y008842D01*
X000907Y008842D01*
X000964Y008785D01*
X000964Y008615D01*
X000680Y008615D01*
X000623Y008672D01*
X000623Y008729D01*
X000737Y008984D02*
X000737Y009154D01*
X000793Y009210D01*
X000850Y009154D01*
X000850Y008984D01*
X000907Y008984D02*
X000737Y008984D01*
X000907Y008984D02*
X000964Y009040D01*
X000964Y009154D01*
X000964Y009343D02*
X000964Y009456D01*
X001020Y009399D02*
X000793Y009399D01*
X000737Y009343D01*
X000793Y009597D02*
X000737Y009654D01*
X000737Y009768D01*
X000793Y009824D01*
X000907Y009768D02*
X000907Y009654D01*
X000850Y009597D01*
X000793Y009597D01*
X000907Y009768D02*
X000964Y009824D01*
X001020Y009824D01*
X001077Y009768D01*
X001077Y009654D01*
X001020Y009597D01*
X000907Y009966D02*
X000850Y009966D01*
X000850Y010193D01*
X000793Y010193D02*
X000907Y010193D01*
X000964Y010136D01*
X000964Y010022D01*
X000907Y009966D01*
X000737Y010022D02*
X000737Y010136D01*
X000793Y010193D01*
X000793Y010334D02*
X000737Y010391D01*
X000737Y010561D01*
X000850Y010504D02*
X000850Y010391D01*
X000793Y010334D01*
X000964Y010334D02*
X000964Y010504D01*
X000907Y010561D01*
X000850Y010504D01*
X000907Y010702D02*
X000737Y010702D01*
X000907Y010702D02*
X000964Y010759D01*
X000964Y010929D01*
X000737Y010929D01*
X000850Y011071D02*
X000850Y011298D01*
X000793Y011298D02*
X000907Y011298D01*
X000964Y011241D01*
X000964Y011127D01*
X000907Y011071D01*
X000850Y011071D01*
X000737Y011127D02*
X000737Y011241D01*
X000793Y011298D01*
X000793Y011439D02*
X000737Y011496D01*
X000737Y011609D01*
X000793Y011666D01*
X000907Y011609D02*
X000907Y011496D01*
X000850Y011439D01*
X000793Y011439D01*
X000907Y011609D02*
X000964Y011666D01*
X001020Y011666D01*
X001077Y011609D01*
X001077Y011496D01*
X001020Y011439D01*
D11*
X003498Y006562D03*
X003498Y006247D03*
X003498Y005932D03*
X003498Y005617D03*
X003498Y005303D03*
X003498Y004988D03*
X003498Y004673D03*
X003498Y004358D03*
X006878Y004358D03*
X006878Y004673D03*
X006878Y004988D03*
X006878Y005303D03*
X006878Y005617D03*
X006878Y005932D03*
X006878Y006247D03*
X006878Y006562D03*
D12*
X006291Y007150D03*
X005976Y007150D03*
X005661Y007150D03*
X005346Y007150D03*
X005031Y007150D03*
X004716Y007150D03*
X004401Y007150D03*
X004086Y007150D03*
X004086Y003770D03*
X004401Y003770D03*
X004716Y003770D03*
X005031Y003770D03*
X005346Y003770D03*
X005661Y003770D03*
X005976Y003770D03*
X006291Y003770D03*
D13*
X010346Y003980D03*
X010346Y004767D03*
X010346Y005554D03*
X010346Y006342D03*
X010346Y007129D03*
X010346Y007917D03*
X010346Y008704D03*
X010346Y009491D03*
X010346Y010279D03*
X010346Y011066D03*
X001684Y011066D03*
X001684Y010279D03*
X001684Y009491D03*
X001684Y008704D03*
X001684Y007917D03*
X001684Y007129D03*
X001684Y006342D03*
X001684Y005554D03*
X001684Y004767D03*
X001684Y003980D03*
D14*
X006342Y009068D03*
X006342Y009442D03*
X006342Y009816D03*
X007366Y009816D03*
X007366Y009068D03*
D15*
X008004Y010836D03*
X008004Y011348D03*
X008654Y011348D03*
X008654Y010836D03*
X009454Y008798D03*
X009454Y008286D03*
X007787Y005519D03*
X007787Y005007D03*
X002690Y005585D03*
X002690Y006097D03*
D16*
X002548Y003092D03*
X003060Y003092D03*
X005698Y007842D03*
X005698Y008342D03*
X006210Y008342D03*
X006210Y007842D03*
X008483Y005199D03*
X008995Y005199D03*
X008833Y003880D03*
X009345Y003880D03*
D17*
X004548Y010685D03*
X003761Y010685D03*
D18*
X002816Y012732D03*
X005493Y012732D03*
D19*
X010059Y012692D03*
X010059Y013242D03*
X010650Y013242D03*
X010650Y012692D03*
X010650Y012132D03*
X010059Y012132D03*
X002000Y002992D03*
X001409Y002992D03*
D20*
X005454Y009068D03*
X005454Y009816D03*
X008154Y009816D03*
X008154Y009068D03*
D21*
X007306Y010742D03*
X006203Y010742D03*
D22*
X008506Y007573D03*
X008506Y007258D03*
X008506Y006943D03*
X008506Y006629D03*
X008506Y006314D03*
X008506Y005999D03*
X009372Y005999D03*
X009372Y006314D03*
X009372Y006629D03*
X009372Y006943D03*
X009372Y007258D03*
X009372Y007573D03*
D23*
X008939Y007613D03*
X008939Y005959D03*
D24*
X002708Y004648D03*
X002708Y004176D03*
X002708Y003703D03*
D25*
X006267Y012378D03*
X006267Y013248D03*
X009137Y013248D03*
X009137Y012378D03*
D26*
X008582Y012128D03*
X007402Y012128D03*
X006812Y012128D03*
D27*
X004054Y009042D03*
X004054Y008042D03*
X003054Y008042D03*
X003054Y009042D03*
X005054Y008042D03*
X008054Y004042D03*
X007054Y003042D03*
X007054Y002042D03*
X007054Y001042D03*
X006054Y001042D03*
X006054Y002042D03*
X005054Y002042D03*
X005054Y001042D03*
X004054Y001042D03*
X004054Y002042D03*
X003054Y002042D03*
X003054Y001042D03*
X002054Y001042D03*
X002054Y002042D03*
X001054Y002042D03*
X001054Y001042D03*
X008054Y001042D03*
X008054Y002042D03*
X009054Y002042D03*
X009054Y001042D03*
X010054Y001042D03*
X010054Y002042D03*
X010054Y003042D03*
D28*
X010554Y003192D02*
X009854Y003892D01*
X009854Y004692D01*
X009704Y004842D01*
X009345Y005132D02*
X009604Y005392D01*
X009604Y005542D01*
X009104Y005542D01*
X008954Y005692D01*
X008954Y005944D01*
X008939Y005959D01*
X008754Y006342D02*
X008804Y006392D01*
X009104Y006392D01*
X009154Y006342D01*
X009344Y006342D01*
X009372Y006314D01*
X009409Y006592D02*
X009372Y006629D01*
X009409Y006592D02*
X009654Y006592D01*
X009754Y006692D01*
X009754Y007392D01*
X009573Y007573D01*
X009372Y007573D01*
X009333Y007613D02*
X008939Y007613D01*
X008954Y007628D01*
X008954Y008242D01*
X006654Y008242D01*
X006554Y008342D01*
X006210Y008342D01*
X006210Y007842D02*
X007954Y007842D01*
X007954Y007242D02*
X008253Y006943D01*
X008506Y006943D01*
X009372Y006943D01*
X009654Y006592D02*
X009754Y006492D01*
X009754Y006092D01*
X009661Y005999D01*
X009372Y005999D01*
X008754Y006342D02*
X008704Y006342D01*
X008676Y006314D01*
X008506Y006314D01*
X008506Y006629D01*
X008506Y006943D01*
X008506Y005999D02*
X008098Y005999D01*
X007354Y006742D01*
X007354Y007242D01*
X007054Y007542D01*
X005754Y007542D01*
X005654Y007442D01*
X005654Y007156D01*
X005661Y007150D01*
X005346Y007150D02*
X005346Y006683D01*
X005154Y006492D01*
X005454Y006242D02*
X005454Y005642D01*
X005854Y005542D02*
X005854Y005292D01*
X005854Y005542D02*
X006254Y005942D01*
X006869Y005942D01*
X006878Y005932D01*
X006878Y005617D02*
X007275Y005617D01*
X007373Y005519D01*
X007787Y005519D01*
X007604Y005992D02*
X007354Y006242D01*
X006884Y006242D01*
X006878Y006247D01*
X006878Y006562D02*
X006854Y006586D01*
X006854Y007042D01*
X006291Y007150D02*
X006291Y006528D01*
X005804Y006042D01*
X005454Y006242D02*
X005976Y006763D01*
X005976Y007150D01*
X005698Y007842D02*
X005254Y007842D01*
X005054Y008042D01*
X005354Y008342D01*
X005698Y008342D01*
X005680Y009068D02*
X005454Y009068D01*
X005454Y009816D02*
X006203Y010565D01*
X006203Y010742D01*
X006342Y010603D01*
X006342Y009816D01*
X006366Y009792D01*
X006654Y009792D01*
X006754Y009692D01*
X006754Y009192D01*
X006630Y009068D01*
X006342Y009068D01*
X006292Y009392D02*
X006342Y009442D01*
X007306Y010742D02*
X006812Y011235D01*
X006812Y012128D01*
X007402Y012128D02*
X007402Y011590D01*
X007354Y011542D01*
X007804Y011592D02*
X008004Y011392D01*
X008004Y011342D01*
X007804Y011592D02*
X007804Y013042D01*
X008054Y013292D01*
X008554Y013292D01*
X009004Y012842D01*
X009404Y012842D01*
X009754Y013192D01*
X010004Y013192D01*
X010054Y012692D02*
X010059Y012692D01*
X008715Y011348D01*
X008654Y011348D01*
X008654Y010836D02*
X008654Y010542D01*
X008154Y010042D01*
X008154Y009816D01*
X008630Y009816D01*
X008954Y009492D01*
X008954Y008242D01*
X009454Y008242D02*
X009854Y007842D01*
X009854Y007621D01*
X010346Y007129D01*
X009454Y008242D02*
X009454Y008286D01*
X009454Y008842D02*
X009454Y010692D01*
X009954Y011192D01*
X009954Y012042D01*
X010054Y012142D01*
X010054Y012092D01*
X010650Y012132D02*
X010650Y012692D01*
X010650Y013242D01*
X008004Y010836D02*
X008004Y010442D01*
X007954Y010392D01*
X008154Y009816D02*
X007366Y009816D01*
X007980Y009068D02*
X008154Y009068D01*
X008506Y005999D02*
X008504Y005997D01*
X008504Y005221D01*
X008483Y005199D01*
X008554Y005128D01*
X008554Y003342D01*
X008054Y002842D01*
X008054Y002042D01*
X008554Y001542D02*
X008554Y003090D01*
X009345Y003880D01*
X009345Y005132D01*
X009004Y005190D02*
X009004Y004442D01*
X008954Y004392D01*
X008833Y004271D01*
X008833Y003880D01*
X009504Y003392D02*
X009554Y003342D01*
X009554Y001542D01*
X010054Y001042D01*
X010354Y000492D02*
X010804Y000942D01*
X010804Y004292D01*
X010346Y004751D01*
X010346Y004767D01*
X010554Y003192D02*
X010554Y002342D01*
X010254Y002042D01*
X010054Y002042D01*
X009054Y002042D02*
X009054Y003042D01*
X008554Y001542D02*
X008054Y001042D01*
X007054Y002042D02*
X007604Y002592D01*
X007604Y004692D01*
X007309Y004988D01*
X006878Y004988D01*
X006859Y004692D02*
X005004Y004692D01*
X004704Y004992D01*
X004104Y004342D02*
X004104Y006192D01*
X003554Y006192D01*
X003498Y006247D01*
X003478Y006542D02*
X003498Y006562D01*
X003478Y006542D02*
X002604Y006542D01*
X002690Y006097D02*
X002899Y006097D01*
X003054Y005942D01*
X003489Y005942D01*
X003498Y005932D01*
X003498Y005617D02*
X003466Y005585D01*
X002690Y005585D01*
X002704Y005571D01*
X002704Y005192D01*
X002854Y004992D01*
X003494Y004992D01*
X003498Y004988D01*
X003498Y004673D02*
X002732Y004673D01*
X002708Y004648D01*
X002154Y005242D02*
X002154Y006642D01*
X002654Y007142D01*
X004078Y007142D01*
X004086Y007150D01*
X004401Y007150D02*
X004401Y007542D01*
X003054Y007542D01*
X003054Y008042D01*
X003554Y008542D02*
X003054Y009042D01*
X003554Y008542D02*
X004554Y008542D01*
X004554Y007742D01*
X004716Y007580D01*
X004716Y007150D01*
X005031Y007150D02*
X005031Y008018D01*
X005054Y008042D01*
X004548Y010685D02*
X004705Y010842D01*
X005204Y010842D01*
X002754Y011442D02*
X002254Y011442D01*
X002254Y007699D01*
X001684Y007129D01*
X002154Y005242D02*
X001684Y004772D01*
X001684Y004767D01*
X002708Y003703D02*
X002719Y003692D01*
X003054Y003692D01*
X003498Y004136D01*
X003498Y004358D01*
X004104Y004342D02*
X003154Y003392D01*
X003154Y003142D01*
X003054Y003142D01*
X003054Y003042D01*
X003154Y003142D01*
X003604Y003292D02*
X003604Y002892D01*
X003354Y002642D01*
X002554Y002642D01*
X002554Y001542D01*
X001554Y001542D01*
X001054Y001042D01*
X002054Y002042D02*
X001654Y002442D01*
X001404Y002442D01*
X001254Y002592D01*
X000904Y002592D01*
X000904Y003492D01*
X002004Y002992D02*
X002104Y003092D01*
X002504Y003092D01*
X003054Y002042D02*
X004086Y003073D01*
X004086Y003770D01*
X004401Y003770D02*
X004401Y003088D01*
X003554Y002242D01*
X003554Y001542D01*
X004054Y001042D01*
X004554Y001542D02*
X005054Y001042D01*
X005554Y001542D02*
X006054Y001042D01*
X006554Y000792D02*
X006854Y000492D01*
X010354Y000492D01*
X007204Y003942D02*
X006878Y004268D01*
X006878Y004358D01*
X006878Y004673D02*
X006859Y004692D01*
X006878Y005303D02*
X007275Y005303D01*
X007570Y005007D01*
X007787Y005007D01*
X006654Y003942D02*
X006654Y003742D01*
X007054Y003342D01*
X007054Y003042D01*
X006554Y003042D02*
X006554Y000792D01*
X005554Y001542D02*
X005554Y002342D01*
X005661Y002448D01*
X005661Y003770D01*
X005346Y003770D02*
X005346Y002333D01*
X005054Y002042D01*
X004554Y002242D02*
X005031Y002718D01*
X005031Y003770D01*
X004716Y003770D02*
X004716Y002703D01*
X004054Y002042D01*
X004554Y002242D02*
X004554Y001542D01*
X005976Y002121D02*
X006054Y002042D01*
X005976Y002121D02*
X005976Y003770D01*
X005976Y004242D01*
X006354Y004242D01*
X006654Y003942D01*
X006291Y003770D02*
X006291Y003306D01*
X006554Y003042D01*
X008995Y005199D02*
X009004Y005190D01*
D29*
X000674Y001771D02*
X000674Y001270D01*
X000876Y001472D01*
X001232Y001472D01*
X001245Y001459D01*
X001488Y001702D01*
X001621Y001702D01*
X001786Y001702D01*
X001624Y001864D01*
X001624Y002220D01*
X001637Y002233D01*
X001588Y002282D01*
X001471Y002282D01*
X001465Y002282D01*
X001514Y002232D01*
X001514Y002082D01*
X001094Y002082D01*
X001094Y002002D01*
X001094Y001582D01*
X001245Y001582D01*
X001514Y001851D01*
X001514Y002002D01*
X001094Y002002D01*
X001014Y002002D01*
X001014Y001582D01*
X000864Y001582D01*
X000674Y001771D01*
X000674Y001734D02*
X000711Y001734D01*
X000674Y001656D02*
X000790Y001656D01*
X000674Y001577D02*
X001363Y001577D01*
X001319Y001656D02*
X001442Y001656D01*
X001397Y001734D02*
X001754Y001734D01*
X001675Y001813D02*
X001476Y001813D01*
X001514Y001891D02*
X001624Y001891D01*
X001624Y001970D02*
X001514Y001970D01*
X001624Y002048D02*
X001094Y002048D01*
X001094Y001970D02*
X001014Y001970D01*
X001014Y001891D02*
X001094Y001891D01*
X001094Y001813D02*
X001014Y001813D01*
X001014Y001734D02*
X001094Y001734D01*
X001094Y001656D02*
X001014Y001656D01*
X000824Y001420D02*
X000674Y001420D01*
X000674Y001341D02*
X000746Y001341D01*
X000674Y001499D02*
X001285Y001499D01*
X001514Y002127D02*
X001624Y002127D01*
X001624Y002205D02*
X001514Y002205D01*
X001471Y002602D02*
X001414Y002658D01*
X001370Y002702D01*
X001370Y002953D01*
X001112Y002953D01*
X001112Y002816D01*
X001121Y002780D01*
X001138Y002752D01*
X001064Y002752D01*
X001064Y003203D01*
X001090Y003214D01*
X001182Y003306D01*
X001232Y003427D01*
X001232Y003557D01*
X001182Y003678D01*
X001090Y003770D01*
X000970Y003820D01*
X000839Y003820D01*
X000718Y003770D01*
X000674Y003726D01*
X000674Y004428D01*
X000679Y004424D01*
X000795Y004424D01*
X000877Y004506D01*
X000877Y004537D01*
X001135Y004537D01*
X001217Y004619D01*
X001217Y004735D01*
X001135Y004817D01*
X001047Y004906D01*
X001135Y004906D01*
X001217Y004988D01*
X001217Y005104D01*
X001135Y005186D01*
X001119Y005201D01*
X001160Y005243D01*
X001217Y005299D01*
X001217Y005413D01*
X001217Y005470D01*
X001217Y005529D01*
X001147Y005598D01*
X001217Y005668D01*
X001217Y005781D01*
X001217Y005840D01*
X001217Y005897D01*
X001499Y005897D01*
X001465Y005883D02*
X001356Y005774D01*
X001297Y005632D01*
X001297Y005477D01*
X001356Y005335D01*
X001465Y005226D01*
X001607Y005167D01*
X001761Y005167D01*
X001904Y005226D01*
X001994Y005317D01*
X001994Y005308D01*
X001817Y005131D01*
X001761Y005155D01*
X001607Y005155D01*
X001465Y005096D01*
X001356Y004987D01*
X001297Y004844D01*
X001297Y004690D01*
X001356Y004548D01*
X001465Y004439D01*
X001589Y004387D01*
X001586Y004387D01*
X001524Y004367D01*
X001465Y004337D01*
X001412Y004298D01*
X001366Y004252D01*
X001327Y004198D01*
X001297Y004140D01*
X001277Y004077D01*
X001268Y004018D01*
X001645Y004018D01*
X001645Y003941D01*
X001268Y003941D01*
X001277Y003882D01*
X001297Y003819D01*
X001327Y003761D01*
X001366Y003708D01*
X001412Y003661D01*
X001465Y003623D01*
X001524Y003593D01*
X001586Y003572D01*
X001645Y003563D01*
X001645Y003941D01*
X001723Y003941D01*
X001723Y004018D01*
X002101Y004018D01*
X002091Y004077D01*
X002071Y004140D01*
X002041Y004198D01*
X002003Y004252D01*
X001956Y004298D01*
X001903Y004337D01*
X001844Y004367D01*
X001782Y004387D01*
X001780Y004387D01*
X001904Y004439D01*
X002013Y004548D01*
X002072Y004690D01*
X002072Y004844D01*
X002046Y004907D01*
X002221Y005082D01*
X002314Y005176D01*
X002314Y006385D01*
X002326Y006356D01*
X002386Y006296D01*
X002382Y006289D01*
X002373Y006253D01*
X002373Y006126D01*
X002661Y006126D01*
X002661Y006068D01*
X002373Y006068D01*
X002373Y005941D01*
X002382Y005905D01*
X002401Y005873D01*
X002427Y005847D01*
X002459Y005829D01*
X002462Y005828D01*
X002403Y005769D01*
X002403Y005402D01*
X002426Y005378D01*
X002376Y005257D01*
X002376Y005127D01*
X002426Y005006D01*
X002518Y004914D01*
X002561Y004896D01*
X002328Y004896D01*
X002263Y004832D01*
X002263Y004465D01*
X002297Y004431D01*
X002287Y004426D01*
X002261Y004399D01*
X002243Y004368D01*
X002233Y004332D01*
X002233Y004205D01*
X002679Y004205D01*
X002679Y004147D01*
X002233Y004147D01*
X002233Y004019D01*
X002243Y003984D01*
X002261Y003952D01*
X002287Y003926D01*
X002297Y003920D01*
X002263Y003887D01*
X002263Y003520D01*
X002328Y003456D01*
X002994Y003456D01*
X002994Y003379D01*
X002877Y003379D01*
X002812Y003315D01*
X002812Y002869D01*
X002877Y002805D01*
X003244Y002805D01*
X003308Y002869D01*
X003308Y003069D01*
X003314Y003076D01*
X003314Y003135D01*
X003326Y003106D01*
X003418Y003014D01*
X003444Y003003D01*
X003444Y002958D01*
X003288Y002802D01*
X002488Y002802D01*
X002394Y002708D01*
X002394Y002576D01*
X002394Y002310D01*
X002232Y002472D01*
X001876Y002472D01*
X001863Y002459D01*
X001814Y002508D01*
X001721Y002602D01*
X001471Y002602D01*
X001448Y002694D02*
X001585Y002694D01*
X001621Y002704D01*
X001652Y002722D01*
X001679Y002748D01*
X001697Y002780D01*
X001706Y002816D01*
X001706Y002953D01*
X001448Y002953D01*
X001448Y003031D01*
X001370Y003031D01*
X001370Y003289D01*
X001233Y003289D01*
X001198Y003280D01*
X001166Y003261D01*
X001140Y003235D01*
X001121Y003203D01*
X001112Y003168D01*
X001112Y003031D01*
X001370Y003031D01*
X001370Y002953D01*
X001448Y002953D01*
X001448Y002694D01*
X001396Y002677D02*
X002394Y002677D01*
X002394Y002598D02*
X001724Y002598D01*
X001803Y002520D02*
X002394Y002520D01*
X002394Y002441D02*
X002263Y002441D01*
X002342Y002363D02*
X002394Y002363D01*
X002441Y002755D02*
X002234Y002755D01*
X002203Y002724D02*
X002267Y002789D01*
X002267Y002932D01*
X002301Y002932D01*
X002301Y002869D01*
X002365Y002805D01*
X002732Y002805D01*
X002796Y002869D01*
X002796Y003315D01*
X002732Y003379D01*
X002365Y003379D01*
X002301Y003315D01*
X002301Y003252D01*
X002210Y003252D01*
X002203Y003259D01*
X001797Y003259D01*
X001732Y003195D01*
X001732Y002789D01*
X001797Y002724D01*
X002203Y002724D01*
X002267Y002834D02*
X002336Y002834D01*
X002301Y002912D02*
X002267Y002912D01*
X002301Y003305D02*
X001181Y003305D01*
X001215Y003384D02*
X002994Y003384D01*
X002812Y003305D02*
X002796Y003305D01*
X002796Y003227D02*
X002812Y003227D01*
X002812Y003148D02*
X002796Y003148D01*
X002796Y003069D02*
X002812Y003069D01*
X002812Y002991D02*
X002796Y002991D01*
X002796Y002912D02*
X002812Y002912D01*
X002848Y002834D02*
X002761Y002834D01*
X002321Y003462D02*
X001232Y003462D01*
X001232Y003541D02*
X002263Y003541D01*
X002263Y003619D02*
X001896Y003619D01*
X001903Y003623D02*
X001956Y003661D01*
X002003Y003708D01*
X002041Y003761D01*
X002071Y003819D01*
X002091Y003882D01*
X002101Y003941D01*
X001723Y003941D01*
X001723Y003563D01*
X001782Y003572D01*
X001844Y003593D01*
X001903Y003623D01*
X001993Y003698D02*
X002263Y003698D01*
X002263Y003776D02*
X002049Y003776D01*
X002083Y003855D02*
X002263Y003855D01*
X002280Y003933D02*
X002100Y003933D01*
X002087Y004091D02*
X002233Y004091D01*
X002235Y004012D02*
X001723Y004012D01*
X001645Y004012D02*
X000674Y004012D01*
X000674Y004091D02*
X001281Y004091D01*
X001312Y004169D02*
X000674Y004169D01*
X000674Y004248D02*
X001363Y004248D01*
X001451Y004326D02*
X000674Y004326D01*
X000674Y004405D02*
X001547Y004405D01*
X001420Y004483D02*
X000854Y004483D01*
X001159Y004562D02*
X001350Y004562D01*
X001317Y004640D02*
X001217Y004640D01*
X001217Y004719D02*
X001297Y004719D01*
X001297Y004797D02*
X001155Y004797D01*
X001076Y004876D02*
X001310Y004876D01*
X001342Y004954D02*
X001184Y004954D01*
X001217Y005033D02*
X001402Y005033D01*
X001503Y005112D02*
X001209Y005112D01*
X001135Y005186D02*
X001135Y005186D01*
X001130Y005190D02*
X001551Y005190D01*
X001422Y005269D02*
X001186Y005269D01*
X001217Y005347D02*
X001351Y005347D01*
X001318Y005426D02*
X001217Y005426D01*
X001217Y005413D02*
X001217Y005413D01*
X001217Y005504D02*
X001297Y005504D01*
X001297Y005583D02*
X001163Y005583D01*
X001211Y005661D02*
X001309Y005661D01*
X001342Y005740D02*
X001217Y005740D01*
X001217Y005781D02*
X001217Y005781D01*
X001217Y005818D02*
X001400Y005818D01*
X001465Y005883D02*
X001607Y005942D01*
X001761Y005942D01*
X001904Y005883D01*
X001994Y005792D01*
X001994Y006104D01*
X001904Y006013D01*
X001761Y005954D01*
X001607Y005954D01*
X001465Y006013D01*
X001356Y006122D01*
X001297Y006265D01*
X001297Y006419D01*
X001356Y006561D01*
X001465Y006670D01*
X001607Y006729D01*
X001761Y006729D01*
X001904Y006670D01*
X001994Y006580D01*
X001994Y006708D01*
X002494Y007208D01*
X002588Y007302D01*
X003866Y007302D01*
X003866Y007382D01*
X002988Y007382D01*
X002894Y007476D01*
X002894Y007608D01*
X002894Y007612D01*
X002876Y007612D01*
X002624Y007864D01*
X002624Y008220D01*
X002876Y008472D01*
X003232Y008472D01*
X003484Y008220D01*
X003484Y007864D01*
X003322Y007702D01*
X003786Y007702D01*
X003624Y007864D01*
X003624Y008220D01*
X003786Y008382D01*
X003621Y008382D01*
X003488Y008382D01*
X003245Y008625D01*
X003232Y008612D01*
X002876Y008612D01*
X002624Y008864D01*
X002624Y009220D01*
X002876Y009472D01*
X003232Y009472D01*
X003484Y009220D01*
X003484Y008864D01*
X003471Y008851D01*
X003621Y008702D01*
X003744Y008702D01*
X003594Y008851D01*
X003594Y009002D01*
X004014Y009002D01*
X004014Y009082D01*
X003594Y009082D01*
X003594Y009232D01*
X003864Y009502D01*
X004014Y009502D01*
X004014Y009082D01*
X004094Y009082D01*
X004094Y009502D01*
X004245Y009502D01*
X004514Y009232D01*
X004514Y009082D01*
X004094Y009082D01*
X004094Y009002D01*
X004514Y009002D01*
X004514Y008851D01*
X004365Y008702D01*
X004621Y008702D01*
X004714Y008608D01*
X004714Y008476D01*
X004714Y008310D01*
X004876Y008472D01*
X005232Y008472D01*
X005245Y008459D01*
X005288Y008502D01*
X005421Y008502D01*
X005451Y008502D01*
X005451Y008565D01*
X005515Y008629D01*
X005882Y008629D01*
X005946Y008565D01*
X005946Y008119D01*
X005919Y008092D01*
X005946Y008065D01*
X005946Y007702D01*
X005962Y007702D01*
X005962Y008065D01*
X005990Y008092D01*
X005962Y008119D01*
X005962Y008565D01*
X006027Y008629D01*
X006394Y008629D01*
X006458Y008565D01*
X006458Y008509D01*
X006468Y008520D01*
X006589Y008570D01*
X006720Y008570D01*
X006840Y008520D01*
X006932Y008428D01*
X006943Y008402D01*
X008794Y008402D01*
X008794Y009426D01*
X008564Y009656D01*
X008560Y009656D01*
X008560Y009514D01*
X008500Y009455D01*
X008504Y009454D01*
X008536Y009436D01*
X008562Y009410D01*
X008580Y009378D01*
X008590Y009342D01*
X008590Y009108D01*
X008194Y009108D01*
X008194Y009028D01*
X008194Y008672D01*
X008468Y008672D01*
X008504Y008681D01*
X008536Y008700D01*
X008562Y008726D01*
X008580Y008758D01*
X008590Y008794D01*
X008590Y009028D01*
X008194Y009028D01*
X008114Y009028D01*
X007719Y009028D01*
X007719Y008794D01*
X007729Y008758D01*
X007747Y008726D01*
X007773Y008700D01*
X007805Y008681D01*
X007841Y008672D01*
X008114Y008672D01*
X008114Y009028D01*
X008114Y009108D01*
X007719Y009108D01*
X007719Y009342D01*
X007729Y009378D01*
X007747Y009410D01*
X007773Y009436D01*
X007805Y009454D01*
X007808Y009455D01*
X007749Y009514D01*
X007749Y009656D01*
X007706Y009656D01*
X007648Y009598D01*
X007084Y009598D01*
X007020Y009662D01*
X007020Y009970D01*
X007084Y010034D01*
X007648Y010034D01*
X007706Y009976D01*
X007749Y009976D01*
X007749Y010117D01*
X007757Y010125D01*
X007676Y010206D01*
X007626Y010327D01*
X007626Y010457D01*
X007676Y010578D01*
X007734Y010636D01*
X007717Y010653D01*
X007717Y011019D01*
X007782Y011084D01*
X008227Y011084D01*
X008291Y011019D01*
X008291Y010653D01*
X008227Y010588D01*
X008222Y010588D01*
X008232Y010578D01*
X008282Y010457D01*
X008282Y010396D01*
X008474Y010588D01*
X008432Y010588D01*
X008367Y010653D01*
X008367Y011019D01*
X008432Y011084D01*
X008877Y011084D01*
X008941Y011019D01*
X008941Y010653D01*
X008877Y010588D01*
X008814Y010588D01*
X008814Y010476D01*
X008721Y010382D01*
X008508Y010169D01*
X008560Y010117D01*
X008560Y009976D01*
X008564Y009976D01*
X008697Y009976D01*
X009021Y009652D01*
X009114Y009558D01*
X009114Y008308D01*
X009114Y008176D01*
X009114Y007928D01*
X009147Y007895D01*
X009147Y007782D01*
X009688Y007782D01*
X009694Y007776D02*
X009694Y007741D01*
X009654Y007782D01*
X009147Y007782D01*
X009147Y007861D02*
X009609Y007861D01*
X009531Y007939D02*
X009114Y007939D01*
X009114Y008018D02*
X009452Y008018D01*
X009432Y008038D02*
X009694Y007776D01*
X009905Y008018D02*
X009968Y008018D01*
X009958Y007994D02*
X009958Y007964D01*
X009921Y008002D01*
X009741Y008181D01*
X009741Y008469D01*
X009677Y008534D01*
X009232Y008534D01*
X009167Y008469D01*
X009167Y008103D01*
X009232Y008038D01*
X009432Y008038D01*
X009174Y008096D02*
X009114Y008096D01*
X009114Y008175D02*
X009167Y008175D01*
X009167Y008253D02*
X009114Y008253D01*
X009114Y008332D02*
X009167Y008332D01*
X009167Y008410D02*
X009114Y008410D01*
X009114Y008489D02*
X009187Y008489D01*
X009232Y008550D02*
X009677Y008550D01*
X009741Y008614D01*
X009741Y008981D01*
X009677Y009046D01*
X009614Y009046D01*
X009614Y010626D01*
X009964Y010975D01*
X010017Y010847D01*
X010126Y010738D01*
X010269Y010679D01*
X010423Y010679D01*
X010565Y010738D01*
X010674Y010847D01*
X010733Y010989D01*
X010733Y011143D01*
X010674Y011286D01*
X010565Y011395D01*
X010423Y011454D01*
X010269Y011454D01*
X010126Y011395D01*
X010114Y011383D01*
X010114Y011864D01*
X010262Y011864D01*
X010326Y011929D01*
X010326Y012335D01*
X010262Y012399D01*
X009993Y012399D01*
X010018Y012424D01*
X010262Y012424D01*
X010326Y012489D01*
X010326Y012895D01*
X010262Y012959D01*
X009856Y012959D01*
X009792Y012895D01*
X009792Y012651D01*
X009442Y012301D01*
X009442Y012583D01*
X009378Y012648D01*
X008897Y012648D01*
X008832Y012583D01*
X008832Y012172D01*
X008897Y012108D01*
X009249Y012108D01*
X008736Y011596D01*
X008432Y011596D01*
X008367Y011531D01*
X008367Y011164D01*
X008432Y011100D01*
X008877Y011100D01*
X008941Y011164D01*
X008941Y011348D01*
X009792Y012198D01*
X009792Y011929D01*
X009794Y011926D01*
X009794Y011258D01*
X009294Y010758D01*
X009294Y010626D01*
X009294Y009046D01*
X009232Y009046D01*
X009167Y008981D01*
X009167Y008614D01*
X009232Y008550D01*
X009214Y008567D02*
X009114Y008567D01*
X009114Y008646D02*
X009167Y008646D01*
X009167Y008725D02*
X009114Y008725D01*
X009114Y008803D02*
X009167Y008803D01*
X009167Y008882D02*
X009114Y008882D01*
X009114Y008960D02*
X009167Y008960D01*
X009114Y009039D02*
X009225Y009039D01*
X009294Y009117D02*
X009114Y009117D01*
X009114Y009196D02*
X009294Y009196D01*
X009294Y009274D02*
X009114Y009274D01*
X009114Y009353D02*
X009294Y009353D01*
X009294Y009431D02*
X009114Y009431D01*
X009114Y009510D02*
X009294Y009510D01*
X009294Y009589D02*
X009084Y009589D01*
X009005Y009667D02*
X009294Y009667D01*
X009294Y009746D02*
X008927Y009746D01*
X008848Y009824D02*
X009294Y009824D01*
X009294Y009903D02*
X008770Y009903D01*
X008560Y009981D02*
X009294Y009981D01*
X009294Y010060D02*
X008560Y010060D01*
X008539Y010138D02*
X009294Y010138D01*
X009294Y010217D02*
X008556Y010217D01*
X008634Y010295D02*
X009294Y010295D01*
X009294Y010374D02*
X008713Y010374D01*
X008791Y010453D02*
X009294Y010453D01*
X009294Y010531D02*
X008814Y010531D01*
X008898Y010610D02*
X009294Y010610D01*
X009294Y010688D02*
X008941Y010688D01*
X008941Y010767D02*
X009303Y010767D01*
X009381Y010845D02*
X008941Y010845D01*
X008941Y010924D02*
X009460Y010924D01*
X009539Y011002D02*
X008941Y011002D01*
X008880Y011081D02*
X009617Y011081D01*
X009576Y011159D02*
X009696Y011159D01*
X009661Y011194D02*
X009745Y011279D01*
X009791Y011389D01*
X009791Y011509D01*
X009745Y011619D01*
X009661Y011703D01*
X009550Y011749D01*
X009431Y011749D01*
X009321Y011703D01*
X009236Y011619D01*
X009191Y011509D01*
X009191Y011389D01*
X009236Y011279D01*
X009321Y011194D01*
X009431Y011149D01*
X009550Y011149D01*
X009661Y011194D01*
X009704Y011238D02*
X009774Y011238D01*
X009760Y011316D02*
X009794Y011316D01*
X009791Y011395D02*
X009794Y011395D01*
X009791Y011474D02*
X009794Y011474D01*
X009794Y011552D02*
X009772Y011552D01*
X009794Y011631D02*
X009733Y011631D01*
X009794Y011709D02*
X009646Y011709D01*
X009794Y011788D02*
X009381Y011788D01*
X009335Y011709D02*
X009303Y011709D01*
X009248Y011631D02*
X009224Y011631D01*
X009209Y011552D02*
X009146Y011552D01*
X009191Y011474D02*
X009067Y011474D01*
X008988Y011395D02*
X009191Y011395D01*
X009221Y011316D02*
X008941Y011316D01*
X008941Y011238D02*
X009277Y011238D01*
X009405Y011159D02*
X008936Y011159D01*
X008772Y011631D02*
X007992Y011631D01*
X007964Y011658D02*
X007964Y012976D01*
X008121Y013132D01*
X008488Y013132D01*
X008938Y012682D01*
X009071Y012682D01*
X009471Y012682D01*
X009564Y012776D01*
X009810Y013021D01*
X009856Y012974D01*
X010262Y012974D01*
X010326Y013039D01*
X010326Y013445D01*
X010264Y013508D01*
X010403Y013508D01*
X010380Y013485D01*
X010362Y013453D01*
X010352Y013418D01*
X010352Y013281D01*
X010611Y013281D01*
X010611Y013203D01*
X010688Y013203D01*
X010688Y012944D01*
X010688Y012731D01*
X010611Y012731D01*
X010611Y012944D01*
X010611Y013203D01*
X010352Y013203D01*
X010352Y013066D01*
X010362Y013030D01*
X010380Y012998D01*
X010406Y012972D01*
X010416Y012967D01*
X010406Y012961D01*
X010380Y012935D01*
X010362Y012903D01*
X010352Y012868D01*
X010352Y012731D01*
X010611Y012731D01*
X010611Y012653D01*
X010688Y012653D01*
X010688Y012394D01*
X010688Y012171D01*
X010611Y012171D01*
X010611Y012429D01*
X010611Y012653D01*
X010352Y012653D01*
X010352Y012516D01*
X010362Y012480D01*
X010380Y012448D01*
X010406Y012422D01*
X010424Y012412D01*
X010406Y012401D01*
X010380Y012375D01*
X010362Y012343D01*
X010352Y012308D01*
X010352Y012171D01*
X010611Y012171D01*
X010611Y012093D01*
X010688Y012093D01*
X010688Y011834D01*
X010826Y011834D01*
X010861Y011844D01*
X010867Y011848D01*
X010867Y004455D01*
X010704Y004619D01*
X010733Y004690D01*
X010733Y004844D01*
X010674Y004987D01*
X010565Y005096D01*
X010423Y005155D01*
X010269Y005155D01*
X010126Y005096D01*
X010017Y004987D01*
X010008Y004965D01*
X009982Y005028D01*
X009890Y005120D01*
X009824Y005147D01*
X009882Y005206D01*
X009932Y005327D01*
X009932Y005457D01*
X009882Y005578D01*
X009790Y005670D01*
X009670Y005720D01*
X009539Y005720D01*
X009495Y005702D01*
X009171Y005702D01*
X009147Y005725D01*
X009147Y005790D01*
X009654Y005790D01*
X009702Y005839D01*
X009727Y005839D01*
X009821Y005932D01*
X009914Y006026D01*
X009914Y006426D01*
X009914Y006558D01*
X009881Y006592D01*
X009914Y006626D01*
X009914Y006758D01*
X009914Y007334D01*
X009983Y007266D01*
X009958Y007206D01*
X009958Y007052D01*
X010017Y006910D01*
X010126Y006801D01*
X010269Y006742D01*
X010423Y006742D01*
X010565Y006801D01*
X010674Y006910D01*
X010733Y007052D01*
X010733Y007206D01*
X010674Y007349D01*
X010565Y007458D01*
X010423Y007517D01*
X010269Y007517D01*
X010209Y007492D01*
X010014Y007687D01*
X010014Y007704D01*
X010017Y007697D01*
X010126Y007588D01*
X010269Y007529D01*
X010423Y007529D01*
X010565Y007588D01*
X010674Y007697D01*
X010733Y007840D01*
X010733Y007994D01*
X010674Y008136D01*
X010565Y008245D01*
X010423Y008304D01*
X010269Y008304D01*
X010126Y008245D01*
X010017Y008136D01*
X009958Y007994D01*
X010001Y008096D02*
X009826Y008096D01*
X009748Y008175D02*
X010056Y008175D01*
X010146Y008253D02*
X009741Y008253D01*
X009741Y008332D02*
X010232Y008332D01*
X010269Y008317D02*
X010126Y008376D01*
X010017Y008485D01*
X009958Y008627D01*
X009958Y008781D01*
X010017Y008924D01*
X010126Y009033D01*
X010269Y009092D01*
X010423Y009092D01*
X010565Y009033D01*
X010674Y008924D01*
X010733Y008781D01*
X010733Y008627D01*
X010674Y008485D01*
X010565Y008376D01*
X010423Y008317D01*
X010269Y008317D01*
X010459Y008332D02*
X010867Y008332D01*
X010867Y008410D02*
X010600Y008410D01*
X010676Y008489D02*
X010867Y008489D01*
X010867Y008567D02*
X010708Y008567D01*
X010733Y008646D02*
X010867Y008646D01*
X010867Y008725D02*
X010733Y008725D01*
X010724Y008803D02*
X010867Y008803D01*
X010867Y008882D02*
X010691Y008882D01*
X010637Y008960D02*
X010867Y008960D01*
X010867Y009039D02*
X010550Y009039D01*
X010455Y009117D02*
X010867Y009117D01*
X010867Y009196D02*
X010598Y009196D01*
X010565Y009163D02*
X010674Y009272D01*
X010733Y009414D01*
X010733Y009569D01*
X010674Y009711D01*
X010565Y009820D01*
X010423Y009879D01*
X010269Y009879D01*
X010126Y009820D01*
X010017Y009711D01*
X009958Y009569D01*
X009958Y009414D01*
X010017Y009272D01*
X010126Y009163D01*
X010269Y009104D01*
X010423Y009104D01*
X010565Y009163D01*
X010675Y009274D02*
X010867Y009274D01*
X010867Y009353D02*
X010708Y009353D01*
X010733Y009431D02*
X010867Y009431D01*
X010867Y009510D02*
X010733Y009510D01*
X010725Y009589D02*
X010867Y009589D01*
X010867Y009667D02*
X010692Y009667D01*
X010639Y009746D02*
X010867Y009746D01*
X010867Y009824D02*
X010555Y009824D01*
X010565Y009950D02*
X010674Y010059D01*
X010733Y010202D01*
X010733Y010356D01*
X010674Y010498D01*
X010565Y010607D01*
X010423Y010666D01*
X010269Y010666D01*
X010126Y010607D01*
X010017Y010498D01*
X009958Y010356D01*
X009958Y010202D01*
X010017Y010059D01*
X010126Y009950D01*
X010269Y009891D01*
X010423Y009891D01*
X010565Y009950D01*
X010596Y009981D02*
X010867Y009981D01*
X010867Y009903D02*
X010450Y009903D01*
X010241Y009903D02*
X009614Y009903D01*
X009614Y009981D02*
X010095Y009981D01*
X010017Y010060D02*
X009614Y010060D01*
X009614Y010138D02*
X009984Y010138D01*
X009958Y010217D02*
X009614Y010217D01*
X009614Y010295D02*
X009958Y010295D01*
X009966Y010374D02*
X009614Y010374D01*
X009614Y010453D02*
X009998Y010453D01*
X010050Y010531D02*
X009614Y010531D01*
X009614Y010610D02*
X010132Y010610D01*
X010246Y010688D02*
X009677Y010688D01*
X009755Y010767D02*
X010097Y010767D01*
X010019Y010845D02*
X009834Y010845D01*
X009912Y010924D02*
X009985Y010924D01*
X010114Y011395D02*
X010127Y011395D01*
X010114Y011474D02*
X010867Y011474D01*
X010867Y011552D02*
X010114Y011552D01*
X010114Y011631D02*
X010867Y011631D01*
X010867Y011709D02*
X010114Y011709D01*
X010114Y011788D02*
X010867Y011788D01*
X010688Y011866D02*
X010611Y011866D01*
X010611Y011834D02*
X010611Y012093D01*
X010352Y012093D01*
X010352Y011956D01*
X010362Y011920D01*
X010380Y011888D01*
X010406Y011862D01*
X010438Y011844D01*
X010474Y011834D01*
X010611Y011834D01*
X010611Y011945D02*
X010688Y011945D01*
X010688Y012023D02*
X010611Y012023D01*
X010611Y012102D02*
X010326Y012102D01*
X010326Y012180D02*
X010352Y012180D01*
X010352Y012259D02*
X010326Y012259D01*
X010324Y012338D02*
X010360Y012338D01*
X010417Y012416D02*
X010009Y012416D01*
X009792Y012180D02*
X009774Y012180D01*
X009792Y012102D02*
X009695Y012102D01*
X009617Y012023D02*
X009792Y012023D01*
X009792Y011945D02*
X009538Y011945D01*
X009460Y011866D02*
X009794Y011866D01*
X009479Y012338D02*
X009442Y012338D01*
X009442Y012416D02*
X009557Y012416D01*
X009636Y012495D02*
X009442Y012495D01*
X009442Y012573D02*
X009714Y012573D01*
X009792Y012652D02*
X008545Y012652D01*
X008542Y012646D02*
X008587Y012754D01*
X008587Y012871D01*
X008542Y012980D01*
X008459Y013063D01*
X008351Y013108D01*
X008234Y013108D01*
X008125Y013063D01*
X008042Y012980D01*
X007997Y012871D01*
X007997Y012754D01*
X008042Y012646D01*
X008125Y012563D01*
X008234Y012518D01*
X008351Y012518D01*
X008459Y012563D01*
X008542Y012646D01*
X008577Y012730D02*
X008890Y012730D01*
X008811Y012809D02*
X008587Y012809D01*
X008581Y012887D02*
X008733Y012887D01*
X008654Y012966D02*
X008548Y012966D01*
X008575Y013044D02*
X008478Y013044D01*
X008497Y013123D02*
X008112Y013123D01*
X008107Y013044D02*
X008033Y013044D01*
X008037Y012966D02*
X007964Y012966D01*
X007964Y012887D02*
X008004Y012887D01*
X007997Y012809D02*
X007964Y012809D01*
X007964Y012730D02*
X008007Y012730D01*
X008040Y012652D02*
X007964Y012652D01*
X007964Y012573D02*
X008115Y012573D01*
X007964Y012495D02*
X008359Y012495D01*
X008332Y012468D02*
X008397Y012533D01*
X008768Y012533D01*
X008832Y012468D01*
X008832Y011787D01*
X008768Y011723D01*
X008397Y011723D01*
X008332Y011787D01*
X008332Y012468D01*
X008332Y012416D02*
X007964Y012416D01*
X007964Y012338D02*
X008332Y012338D01*
X008332Y012259D02*
X007964Y012259D01*
X007964Y012180D02*
X008332Y012180D01*
X008332Y012102D02*
X007964Y012102D01*
X007964Y012023D02*
X008332Y012023D01*
X008332Y011945D02*
X007964Y011945D01*
X007964Y011866D02*
X008332Y011866D01*
X008332Y011788D02*
X007964Y011788D01*
X007964Y011709D02*
X008850Y011709D01*
X008832Y011788D02*
X008929Y011788D01*
X009007Y011866D02*
X008832Y011866D01*
X008832Y011945D02*
X009086Y011945D01*
X009164Y012023D02*
X008832Y012023D01*
X008832Y012102D02*
X009243Y012102D01*
X008832Y012180D02*
X008832Y012180D01*
X008832Y012259D02*
X008832Y012259D01*
X008832Y012338D02*
X008832Y012338D01*
X008832Y012416D02*
X008832Y012416D01*
X008832Y012495D02*
X008806Y012495D01*
X008832Y012573D02*
X008470Y012573D01*
X008832Y013240D02*
X008714Y013358D01*
X008621Y013452D01*
X008121Y013452D01*
X007988Y013452D01*
X007738Y013202D01*
X007644Y013108D01*
X007644Y012476D01*
X007588Y012533D01*
X007217Y012533D01*
X007152Y012468D01*
X007152Y011804D01*
X007076Y011728D01*
X007026Y011607D01*
X007026Y011477D01*
X007076Y011356D01*
X007168Y011264D01*
X007289Y011214D01*
X007420Y011214D01*
X007540Y011264D01*
X007632Y011356D01*
X007682Y011477D01*
X007682Y011488D01*
X007717Y011453D01*
X007717Y011164D01*
X007782Y011100D01*
X008227Y011100D01*
X008291Y011164D01*
X008291Y011531D01*
X008227Y011596D01*
X008027Y011596D01*
X007964Y011658D01*
X007696Y011474D02*
X007681Y011474D01*
X007649Y011395D02*
X007717Y011395D01*
X007717Y011316D02*
X007593Y011316D01*
X007548Y011206D02*
X007067Y011206D01*
X006972Y011301D01*
X006972Y011723D01*
X006998Y011723D01*
X007062Y011787D01*
X007062Y012468D01*
X006998Y012533D01*
X006627Y012533D01*
X006572Y012478D01*
X006572Y012583D01*
X006508Y012648D01*
X006027Y012648D01*
X005962Y012583D01*
X005962Y012172D01*
X006027Y012108D01*
X006508Y012108D01*
X006562Y012162D01*
X006562Y011787D01*
X006627Y011723D01*
X006652Y011723D01*
X006652Y011301D01*
X006652Y011169D01*
X006999Y010822D01*
X006999Y010342D01*
X007063Y010278D01*
X007548Y010278D01*
X007612Y010342D01*
X007612Y011142D01*
X007548Y011206D01*
X007595Y011159D02*
X007722Y011159D01*
X007717Y011238D02*
X007478Y011238D01*
X007612Y011081D02*
X007779Y011081D01*
X007717Y011002D02*
X007612Y011002D01*
X007612Y010924D02*
X007717Y010924D01*
X007717Y010845D02*
X007612Y010845D01*
X007612Y010767D02*
X007717Y010767D01*
X007717Y010688D02*
X007612Y010688D01*
X007612Y010610D02*
X007708Y010610D01*
X007657Y010531D02*
X007612Y010531D01*
X007612Y010453D02*
X007626Y010453D01*
X007626Y010374D02*
X007612Y010374D01*
X007639Y010295D02*
X007566Y010295D01*
X007672Y010217D02*
X006502Y010217D01*
X006502Y010295D02*
X007045Y010295D01*
X006999Y010374D02*
X006510Y010374D01*
X006510Y010342D02*
X006510Y011142D01*
X006446Y011206D01*
X005961Y011206D01*
X005896Y011142D01*
X005896Y010484D01*
X005594Y010182D01*
X005113Y010182D01*
X005049Y010117D01*
X005049Y009514D01*
X005108Y009455D01*
X005105Y009454D01*
X005073Y009436D01*
X005047Y009410D01*
X005029Y009378D01*
X005019Y009342D01*
X005019Y009108D01*
X005414Y009108D01*
X005414Y009028D01*
X005019Y009028D01*
X005019Y008794D01*
X005029Y008758D01*
X005047Y008726D01*
X005073Y008700D01*
X005105Y008681D01*
X005141Y008672D01*
X005414Y008672D01*
X005414Y009028D01*
X005494Y009028D01*
X005494Y008672D01*
X005768Y008672D01*
X005804Y008681D01*
X005836Y008700D01*
X005862Y008726D01*
X005880Y008758D01*
X005890Y008794D01*
X005890Y009028D01*
X005494Y009028D01*
X005494Y009108D01*
X005890Y009108D01*
X005890Y009342D01*
X005880Y009378D01*
X005862Y009410D01*
X005836Y009436D01*
X005804Y009454D01*
X005800Y009455D01*
X005860Y009514D01*
X005860Y009995D01*
X006142Y010278D01*
X006182Y010278D01*
X006182Y010034D01*
X006061Y010034D01*
X005996Y009970D01*
X005996Y009662D01*
X006008Y009650D01*
X005994Y009636D01*
X005976Y009604D01*
X005966Y009569D01*
X005966Y009456D01*
X006328Y009456D01*
X006328Y009428D01*
X005966Y009428D01*
X005966Y009315D01*
X005976Y009280D01*
X005994Y009248D01*
X006008Y009234D01*
X005996Y009222D01*
X005996Y008914D01*
X006061Y008850D01*
X006624Y008850D01*
X006683Y008908D01*
X006697Y008908D01*
X006821Y009032D01*
X006914Y009126D01*
X006914Y009626D01*
X006914Y009758D01*
X006814Y009858D01*
X006721Y009952D01*
X006689Y009952D01*
X006689Y009970D01*
X006624Y010034D01*
X006502Y010034D01*
X006502Y010334D01*
X006510Y010342D01*
X006510Y010453D02*
X006999Y010453D01*
X006999Y010531D02*
X006510Y010531D01*
X006510Y010610D02*
X006999Y010610D01*
X006999Y010688D02*
X006510Y010688D01*
X006510Y010767D02*
X006999Y010767D01*
X006976Y010845D02*
X006510Y010845D01*
X006510Y010924D02*
X006897Y010924D01*
X006819Y011002D02*
X006510Y011002D01*
X006510Y011081D02*
X006740Y011081D01*
X006662Y011159D02*
X006492Y011159D01*
X006652Y011238D02*
X004855Y011238D01*
X004855Y011316D02*
X006652Y011316D01*
X006652Y011395D02*
X004855Y011395D01*
X004855Y011474D02*
X006652Y011474D01*
X006652Y011552D02*
X004855Y011552D01*
X004855Y011631D02*
X006652Y011631D01*
X006652Y011709D02*
X004032Y011709D01*
X004043Y011703D02*
X004011Y011721D01*
X003976Y011731D01*
X003801Y011731D01*
X003801Y010725D01*
X004097Y010725D01*
X004097Y011609D01*
X004088Y011645D01*
X004069Y011677D01*
X004043Y011703D01*
X004092Y011631D02*
X004241Y011631D01*
X004241Y011636D02*
X004241Y009734D01*
X004306Y009670D01*
X004790Y009670D01*
X004855Y009734D01*
X004855Y010682D01*
X004915Y010682D01*
X004926Y010656D01*
X005018Y010564D01*
X005139Y010514D01*
X005270Y010514D01*
X005390Y010564D01*
X005482Y010656D01*
X005532Y010777D01*
X005532Y010907D01*
X005482Y011028D01*
X005390Y011120D01*
X005270Y011170D01*
X005139Y011170D01*
X005018Y011120D01*
X004926Y011028D01*
X004915Y011002D01*
X004855Y011002D01*
X004855Y011636D01*
X004790Y011701D01*
X004306Y011701D01*
X004241Y011636D01*
X004241Y011552D02*
X004097Y011552D01*
X004097Y011474D02*
X004241Y011474D01*
X004241Y011395D02*
X004097Y011395D01*
X004097Y011316D02*
X004241Y011316D01*
X004241Y011238D02*
X004097Y011238D01*
X004097Y011159D02*
X004241Y011159D01*
X004241Y011081D02*
X004097Y011081D01*
X004097Y011002D02*
X004241Y011002D01*
X004241Y010924D02*
X004097Y010924D01*
X004097Y010845D02*
X004241Y010845D01*
X004241Y010767D02*
X004097Y010767D01*
X004097Y010645D02*
X003801Y010645D01*
X003801Y010725D01*
X003721Y010725D01*
X003721Y011731D01*
X003545Y011731D01*
X003510Y011721D01*
X003478Y011703D01*
X003452Y011677D01*
X003433Y011645D01*
X003424Y011609D01*
X003424Y010725D01*
X003720Y010725D01*
X003720Y010645D01*
X003424Y010645D01*
X003424Y009761D01*
X003433Y009726D01*
X003452Y009694D01*
X003478Y009668D01*
X003510Y009649D01*
X003545Y009640D01*
X003721Y009640D01*
X003721Y010645D01*
X003801Y010645D01*
X003801Y009640D01*
X003976Y009640D01*
X004011Y009649D01*
X004043Y009668D01*
X004069Y009694D01*
X004088Y009726D01*
X004097Y009761D01*
X004097Y010645D01*
X004097Y010610D02*
X004241Y010610D01*
X004241Y010688D02*
X003801Y010688D01*
X003801Y010610D02*
X003721Y010610D01*
X003720Y010688D02*
X002414Y010688D01*
X002414Y010610D02*
X003424Y010610D01*
X003424Y010531D02*
X002414Y010531D01*
X002414Y010453D02*
X003424Y010453D01*
X003424Y010374D02*
X002414Y010374D01*
X002414Y010295D02*
X003424Y010295D01*
X003424Y010217D02*
X002414Y010217D01*
X002414Y010138D02*
X003424Y010138D01*
X003424Y010060D02*
X002414Y010060D01*
X002414Y009981D02*
X003424Y009981D01*
X003424Y009903D02*
X002414Y009903D01*
X002414Y009824D02*
X003424Y009824D01*
X003428Y009746D02*
X002414Y009746D01*
X002414Y009667D02*
X003479Y009667D01*
X003721Y009667D02*
X003801Y009667D01*
X003801Y009746D02*
X003721Y009746D01*
X003721Y009824D02*
X003801Y009824D01*
X003801Y009903D02*
X003721Y009903D01*
X003721Y009981D02*
X003801Y009981D01*
X003801Y010060D02*
X003721Y010060D01*
X003721Y010138D02*
X003801Y010138D01*
X003801Y010217D02*
X003721Y010217D01*
X003721Y010295D02*
X003801Y010295D01*
X003801Y010374D02*
X003721Y010374D01*
X003721Y010453D02*
X003801Y010453D01*
X003801Y010531D02*
X003721Y010531D01*
X003721Y010767D02*
X003801Y010767D01*
X003801Y010845D02*
X003721Y010845D01*
X003721Y010924D02*
X003801Y010924D01*
X003801Y011002D02*
X003721Y011002D01*
X003721Y011081D02*
X003801Y011081D01*
X003801Y011159D02*
X003721Y011159D01*
X003721Y011238D02*
X003801Y011238D01*
X003801Y011316D02*
X003721Y011316D01*
X003721Y011395D02*
X003801Y011395D01*
X003801Y011474D02*
X003721Y011474D01*
X003721Y011552D02*
X003801Y011552D01*
X003801Y011631D02*
X003721Y011631D01*
X003721Y011709D02*
X003801Y011709D01*
X003489Y011709D02*
X002951Y011709D01*
X002940Y011720D02*
X002820Y011770D01*
X002689Y011770D01*
X002568Y011720D01*
X002476Y011628D01*
X002465Y011602D01*
X002188Y011602D01*
X002094Y011508D01*
X002094Y011376D01*
X002094Y007766D01*
X001821Y007492D01*
X001761Y007517D01*
X001607Y007517D01*
X001465Y007458D01*
X001356Y007349D01*
X001297Y007206D01*
X001297Y007052D01*
X001356Y006910D01*
X001465Y006801D01*
X001607Y006742D01*
X001761Y006742D01*
X001904Y006801D01*
X002013Y006910D01*
X002072Y007052D01*
X002072Y007206D01*
X002047Y007266D01*
X002414Y007633D01*
X002414Y007766D01*
X002414Y011282D01*
X002465Y011282D01*
X002476Y011256D01*
X002568Y011164D01*
X002689Y011114D01*
X002820Y011114D01*
X002940Y011164D01*
X003032Y011256D01*
X003082Y011377D01*
X003082Y011507D01*
X003032Y011628D01*
X002940Y011720D01*
X003029Y011631D02*
X003430Y011631D01*
X003424Y011552D02*
X003064Y011552D01*
X003082Y011474D02*
X003424Y011474D01*
X003424Y011395D02*
X003082Y011395D01*
X003057Y011316D02*
X003424Y011316D01*
X003424Y011238D02*
X003014Y011238D01*
X002930Y011159D02*
X003424Y011159D01*
X003424Y011081D02*
X002414Y011081D01*
X002414Y011159D02*
X002579Y011159D01*
X002494Y011238D02*
X002414Y011238D01*
X002414Y011002D02*
X003424Y011002D01*
X003424Y010924D02*
X002414Y010924D01*
X002414Y010845D02*
X003424Y010845D01*
X003424Y010767D02*
X002414Y010767D01*
X002094Y010767D02*
X001933Y010767D01*
X001904Y010738D02*
X002013Y010847D01*
X002072Y010989D01*
X002072Y011143D01*
X002013Y011286D01*
X001904Y011395D01*
X001761Y011454D01*
X001607Y011454D01*
X001465Y011395D01*
X001356Y011286D01*
X001297Y011143D01*
X001297Y010989D01*
X001356Y010847D01*
X001465Y010738D01*
X001607Y010679D01*
X001761Y010679D01*
X001904Y010738D01*
X001898Y010610D02*
X002094Y010610D01*
X002094Y010688D02*
X001784Y010688D01*
X001761Y010666D02*
X001607Y010666D01*
X001465Y010607D01*
X001356Y010498D01*
X001297Y010356D01*
X001297Y010202D01*
X001356Y010059D01*
X001465Y009950D01*
X001607Y009891D01*
X001761Y009891D01*
X001904Y009950D01*
X002013Y010059D01*
X002072Y010202D01*
X002072Y010356D01*
X002013Y010498D01*
X001904Y010607D01*
X001761Y010666D01*
X001585Y010688D02*
X001091Y010688D01*
X001104Y010701D02*
X001104Y010817D01*
X001104Y010987D01*
X001062Y011028D01*
X001104Y011069D01*
X001104Y011183D01*
X001104Y011240D01*
X001104Y011299D01*
X001091Y011312D01*
X001135Y011356D01*
X001217Y011438D01*
X001217Y011551D01*
X001217Y011551D01*
X001217Y011610D01*
X001217Y011667D01*
X001217Y011667D01*
X001216Y011668D01*
X001135Y011749D01*
X001078Y011806D01*
X001021Y011806D01*
X000964Y011806D01*
X000906Y011806D01*
X000906Y011806D01*
X000906Y011806D01*
X000878Y011779D01*
X000851Y011806D01*
X000735Y011806D01*
X000674Y011745D01*
X000674Y013508D01*
X002451Y013508D01*
X002391Y013447D01*
X002391Y012913D01*
X002357Y012995D01*
X002124Y013228D01*
X001819Y013354D01*
X001489Y013354D01*
X001185Y013228D01*
X000952Y012995D01*
X000826Y012690D01*
X000826Y012360D01*
X000952Y012056D01*
X001185Y011823D01*
X001489Y011697D01*
X001819Y011697D01*
X002124Y011823D01*
X002357Y012056D01*
X002391Y012138D01*
X002391Y012018D01*
X002455Y011953D01*
X003176Y011953D01*
X003241Y012018D01*
X003241Y013447D01*
X003180Y013508D01*
X005128Y013508D01*
X005068Y013447D01*
X005068Y012018D01*
X005132Y011953D01*
X005853Y011953D01*
X005918Y012018D01*
X005918Y013447D01*
X005857Y013508D01*
X006017Y013508D01*
X005962Y013453D01*
X005962Y013042D01*
X006027Y012978D01*
X006508Y012978D01*
X006572Y013042D01*
X006572Y013453D01*
X006518Y013508D01*
X008887Y013508D01*
X008832Y013453D01*
X008832Y013240D01*
X008832Y013280D02*
X008792Y013280D01*
X008832Y013359D02*
X008714Y013359D01*
X008635Y013437D02*
X008832Y013437D01*
X009519Y012730D02*
X009792Y012730D01*
X009792Y012809D02*
X009597Y012809D01*
X009676Y012887D02*
X009792Y012887D01*
X009755Y012966D02*
X010414Y012966D01*
X010358Y013044D02*
X010326Y013044D01*
X010326Y013123D02*
X010352Y013123D01*
X010352Y013202D02*
X010326Y013202D01*
X010326Y013280D02*
X010611Y013280D01*
X010611Y013202D02*
X010688Y013202D01*
X010688Y013123D02*
X010611Y013123D01*
X010611Y013044D02*
X010688Y013044D01*
X010688Y012966D02*
X010611Y012966D01*
X010611Y012887D02*
X010688Y012887D01*
X010688Y012809D02*
X010611Y012809D01*
X010611Y012730D02*
X010326Y012730D01*
X010326Y012652D02*
X010352Y012652D01*
X010352Y012573D02*
X010326Y012573D01*
X010326Y012495D02*
X010358Y012495D01*
X010611Y012495D02*
X010688Y012495D01*
X010688Y012573D02*
X010611Y012573D01*
X010611Y012652D02*
X010688Y012652D01*
X010688Y012416D02*
X010611Y012416D01*
X010611Y012338D02*
X010688Y012338D01*
X010688Y012259D02*
X010611Y012259D01*
X010611Y012180D02*
X010688Y012180D01*
X010355Y011945D02*
X010326Y011945D01*
X010326Y012023D02*
X010352Y012023D01*
X010402Y011866D02*
X010264Y011866D01*
X010564Y011395D02*
X010867Y011395D01*
X010867Y011316D02*
X010643Y011316D01*
X010694Y011238D02*
X010867Y011238D01*
X010867Y011159D02*
X010726Y011159D01*
X010733Y011081D02*
X010867Y011081D01*
X010867Y011002D02*
X010733Y011002D01*
X010706Y010924D02*
X010867Y010924D01*
X010867Y010845D02*
X010673Y010845D01*
X010594Y010767D02*
X010867Y010767D01*
X010867Y010688D02*
X010445Y010688D01*
X010560Y010610D02*
X010867Y010610D01*
X010867Y010531D02*
X010641Y010531D01*
X010693Y010453D02*
X010867Y010453D01*
X010867Y010374D02*
X010726Y010374D01*
X010733Y010295D02*
X010867Y010295D01*
X010867Y010217D02*
X010733Y010217D01*
X010707Y010138D02*
X010867Y010138D01*
X010867Y010060D02*
X010674Y010060D01*
X010136Y009824D02*
X009614Y009824D01*
X009614Y009746D02*
X010052Y009746D01*
X009999Y009667D02*
X009614Y009667D01*
X009614Y009589D02*
X009966Y009589D01*
X009958Y009510D02*
X009614Y009510D01*
X009614Y009431D02*
X009958Y009431D01*
X009984Y009353D02*
X009614Y009353D01*
X009614Y009274D02*
X010016Y009274D01*
X010093Y009196D02*
X009614Y009196D01*
X009614Y009117D02*
X010237Y009117D01*
X010141Y009039D02*
X009684Y009039D01*
X009741Y008960D02*
X010054Y008960D01*
X010000Y008882D02*
X009741Y008882D01*
X009741Y008803D02*
X009967Y008803D01*
X009958Y008725D02*
X009741Y008725D01*
X009741Y008646D02*
X009958Y008646D01*
X009983Y008567D02*
X009695Y008567D01*
X009722Y008489D02*
X010015Y008489D01*
X010091Y008410D02*
X009741Y008410D01*
X010014Y007704D02*
X010015Y007704D01*
X010076Y007625D02*
X010089Y007625D01*
X010155Y007546D02*
X010227Y007546D01*
X010464Y007546D02*
X010867Y007546D01*
X010867Y007468D02*
X010541Y007468D01*
X010634Y007389D02*
X010867Y007389D01*
X010867Y007311D02*
X010690Y007311D01*
X010722Y007232D02*
X010867Y007232D01*
X010867Y007154D02*
X010733Y007154D01*
X010733Y007075D02*
X010867Y007075D01*
X010867Y006997D02*
X010710Y006997D01*
X010678Y006918D02*
X010867Y006918D01*
X010867Y006840D02*
X010604Y006840D01*
X010469Y006761D02*
X010867Y006761D01*
X010867Y006682D02*
X010536Y006682D01*
X010565Y006670D02*
X010423Y006729D01*
X010269Y006729D01*
X010126Y006670D01*
X010017Y006561D01*
X009958Y006419D01*
X009958Y006265D01*
X010017Y006122D01*
X010126Y006013D01*
X010269Y005954D01*
X010423Y005954D01*
X010565Y006013D01*
X010674Y006122D01*
X010733Y006265D01*
X010733Y006419D01*
X010674Y006561D01*
X010565Y006670D01*
X010632Y006604D02*
X010867Y006604D01*
X010867Y006525D02*
X010689Y006525D01*
X010722Y006447D02*
X010867Y006447D01*
X010867Y006368D02*
X010733Y006368D01*
X010733Y006290D02*
X010867Y006290D01*
X010867Y006211D02*
X010711Y006211D01*
X010678Y006133D02*
X010867Y006133D01*
X010867Y006054D02*
X010606Y006054D01*
X010474Y005976D02*
X010867Y005976D01*
X010867Y005897D02*
X010531Y005897D01*
X010565Y005883D02*
X010423Y005942D01*
X010269Y005942D01*
X010126Y005883D01*
X010017Y005774D01*
X009958Y005632D01*
X009958Y005477D01*
X010017Y005335D01*
X010126Y005226D01*
X010269Y005167D01*
X010423Y005167D01*
X010565Y005226D01*
X010674Y005335D01*
X010733Y005477D01*
X010733Y005632D01*
X010674Y005774D01*
X010565Y005883D01*
X010630Y005818D02*
X010867Y005818D01*
X010867Y005740D02*
X010688Y005740D01*
X010721Y005661D02*
X010867Y005661D01*
X010867Y005583D02*
X010733Y005583D01*
X010733Y005504D02*
X010867Y005504D01*
X010867Y005426D02*
X010712Y005426D01*
X010679Y005347D02*
X010867Y005347D01*
X010867Y005269D02*
X010608Y005269D01*
X010479Y005190D02*
X010867Y005190D01*
X010867Y005112D02*
X010526Y005112D01*
X010628Y005033D02*
X010867Y005033D01*
X010867Y004954D02*
X010687Y004954D01*
X010720Y004876D02*
X010867Y004876D01*
X010867Y004797D02*
X010733Y004797D01*
X010733Y004719D02*
X010867Y004719D01*
X010867Y004640D02*
X010713Y004640D01*
X010761Y004562D02*
X010867Y004562D01*
X010867Y004483D02*
X010839Y004483D01*
X010165Y005112D02*
X009899Y005112D01*
X009866Y005190D02*
X010213Y005190D01*
X010084Y005269D02*
X009908Y005269D01*
X009932Y005347D02*
X010012Y005347D01*
X009980Y005426D02*
X009932Y005426D01*
X009913Y005504D02*
X009958Y005504D01*
X009958Y005583D02*
X009877Y005583D01*
X009799Y005661D02*
X009971Y005661D01*
X010003Y005740D02*
X009147Y005740D01*
X009682Y005818D02*
X010062Y005818D01*
X010160Y005897D02*
X009786Y005897D01*
X009864Y005976D02*
X010218Y005976D01*
X010085Y006054D02*
X009914Y006054D01*
X009914Y006133D02*
X010013Y006133D01*
X009980Y006211D02*
X009914Y006211D01*
X009914Y006290D02*
X009958Y006290D01*
X009958Y006368D02*
X009914Y006368D01*
X009914Y006447D02*
X009970Y006447D01*
X010002Y006525D02*
X009914Y006525D01*
X009893Y006604D02*
X010060Y006604D01*
X010155Y006682D02*
X009914Y006682D01*
X009914Y006761D02*
X010222Y006761D01*
X010087Y006840D02*
X009914Y006840D01*
X009914Y006918D02*
X010014Y006918D01*
X009981Y006997D02*
X009914Y006997D01*
X009914Y007075D02*
X009958Y007075D01*
X009958Y007154D02*
X009914Y007154D01*
X009914Y007232D02*
X009969Y007232D01*
X009938Y007311D02*
X009914Y007311D01*
X009381Y007249D02*
X009381Y007182D01*
X009381Y006953D01*
X009363Y006953D01*
X009363Y007182D01*
X009363Y007249D01*
X009381Y007249D01*
X009372Y007258D02*
X009372Y006943D01*
X009363Y006934D02*
X008996Y006934D01*
X008996Y006827D01*
X009005Y006791D01*
X009024Y006759D01*
X009026Y006757D01*
X009026Y006500D01*
X009024Y006498D01*
X009005Y006466D01*
X008996Y006430D01*
X008996Y006323D01*
X009363Y006323D01*
X009363Y006304D01*
X009084Y006304D01*
X009083Y006305D01*
X008795Y006305D01*
X008794Y006304D01*
X008515Y006304D01*
X008515Y006323D01*
X008497Y006323D01*
X008497Y006390D01*
X008497Y006619D01*
X008515Y006619D01*
X008515Y006390D01*
X008515Y006323D01*
X008882Y006323D01*
X008882Y006430D01*
X008873Y006466D01*
X008870Y006471D01*
X008873Y006476D01*
X008882Y006512D01*
X008882Y006619D01*
X008515Y006619D01*
X008515Y006638D01*
X008497Y006638D01*
X008497Y006705D01*
X008497Y006934D01*
X008515Y006934D01*
X008515Y006705D01*
X008515Y006638D01*
X008882Y006638D01*
X008882Y006745D01*
X008873Y006781D01*
X008870Y006786D01*
X008873Y006791D01*
X008882Y006827D01*
X008882Y006934D01*
X008515Y006934D01*
X008515Y006953D01*
X008882Y006953D01*
X008882Y007060D01*
X008873Y007096D01*
X008854Y007128D01*
X008852Y007130D01*
X008852Y007267D01*
X009083Y007267D01*
X009084Y007268D01*
X009363Y007268D01*
X009363Y007249D01*
X008996Y007249D01*
X008996Y007142D01*
X009005Y007106D01*
X009008Y007101D01*
X009005Y007096D01*
X008996Y007060D01*
X008996Y006953D01*
X009363Y006953D01*
X009363Y006934D01*
X009363Y006997D02*
X009381Y006997D01*
X009381Y007075D02*
X009363Y007075D01*
X009363Y007154D02*
X009381Y007154D01*
X009381Y007232D02*
X009363Y007232D01*
X009372Y007573D02*
X009333Y007613D01*
X009372Y007573D02*
X009411Y007613D01*
X008996Y007232D02*
X008852Y007232D01*
X008852Y007154D02*
X008996Y007154D01*
X009000Y007075D02*
X008878Y007075D01*
X008882Y006997D02*
X008996Y006997D01*
X008996Y006918D02*
X008882Y006918D01*
X008882Y006840D02*
X008996Y006840D01*
X009023Y006761D02*
X008878Y006761D01*
X008882Y006682D02*
X009026Y006682D01*
X009026Y006604D02*
X008882Y006604D01*
X008882Y006525D02*
X009026Y006525D01*
X009000Y006447D02*
X008878Y006447D01*
X008882Y006368D02*
X008996Y006368D01*
X008515Y006368D02*
X008497Y006368D01*
X008496Y006323D02*
X008496Y006304D01*
X008130Y006304D01*
X008130Y006197D01*
X008131Y006191D01*
X007514Y006808D01*
X007514Y007176D01*
X007514Y007308D01*
X007214Y007608D01*
X007141Y007682D01*
X007665Y007682D01*
X007676Y007656D01*
X007768Y007564D01*
X007889Y007514D01*
X008020Y007514D01*
X008140Y007564D01*
X008160Y007583D01*
X008160Y007429D01*
X008173Y007416D01*
X008160Y007402D01*
X008160Y007130D01*
X008158Y007128D01*
X008139Y007096D01*
X008130Y007060D01*
X008130Y006953D01*
X008496Y006953D01*
X008496Y006934D01*
X008130Y006934D01*
X008130Y006827D01*
X008139Y006791D01*
X008142Y006786D01*
X008139Y006781D01*
X008130Y006745D01*
X008130Y006638D01*
X008496Y006638D01*
X008496Y006619D01*
X008130Y006619D01*
X008130Y006512D01*
X008139Y006476D01*
X008142Y006471D01*
X008139Y006466D01*
X008130Y006430D01*
X008130Y006323D01*
X008496Y006323D01*
X008497Y006447D02*
X008515Y006447D01*
X008515Y006525D02*
X008497Y006525D01*
X008497Y006604D02*
X008515Y006604D01*
X008515Y006682D02*
X008497Y006682D01*
X008497Y006761D02*
X008515Y006761D01*
X008515Y006840D02*
X008497Y006840D01*
X008497Y006918D02*
X008515Y006918D01*
X008130Y006918D02*
X007514Y006918D01*
X007514Y006840D02*
X008130Y006840D01*
X008134Y006761D02*
X007561Y006761D01*
X007640Y006682D02*
X008130Y006682D01*
X008130Y006604D02*
X007719Y006604D01*
X007797Y006525D02*
X008130Y006525D01*
X008134Y006447D02*
X007876Y006447D01*
X007954Y006368D02*
X008130Y006368D01*
X008130Y006290D02*
X008033Y006290D01*
X008111Y006211D02*
X008130Y006211D01*
X007932Y005938D02*
X008031Y005839D01*
X008164Y005839D01*
X008176Y005839D01*
X008224Y005790D01*
X008344Y005790D01*
X008344Y005486D01*
X008300Y005486D01*
X008235Y005422D01*
X008235Y004977D01*
X008300Y004912D01*
X008394Y004912D01*
X008394Y004310D01*
X008232Y004472D01*
X007876Y004472D01*
X007764Y004360D01*
X007764Y004758D01*
X007763Y004759D01*
X008009Y004759D01*
X008074Y004824D01*
X008074Y005191D01*
X008014Y005250D01*
X008018Y005251D01*
X008050Y005269D01*
X008076Y005295D01*
X008094Y005327D01*
X008104Y005363D01*
X008104Y005490D01*
X007816Y005490D01*
X007816Y005548D01*
X008104Y005548D01*
X008104Y005675D01*
X008094Y005711D01*
X008076Y005743D01*
X008050Y005769D01*
X008018Y005787D01*
X007982Y005797D01*
X007873Y005797D01*
X007882Y005806D01*
X007932Y005927D01*
X007932Y005938D01*
X007920Y005897D02*
X007973Y005897D01*
X007888Y005818D02*
X008196Y005818D01*
X008077Y005740D02*
X008344Y005740D01*
X008344Y005661D02*
X008104Y005661D01*
X008104Y005583D02*
X008344Y005583D01*
X008344Y005504D02*
X007816Y005504D01*
X007757Y005504D02*
X007268Y005504D01*
X007268Y005489D02*
X007261Y005462D01*
X007341Y005462D01*
X007483Y005321D01*
X007479Y005327D01*
X007469Y005363D01*
X007469Y005490D01*
X007757Y005490D01*
X007757Y005548D01*
X007469Y005548D01*
X007469Y005675D01*
X007474Y005691D01*
X007418Y005714D01*
X007326Y005806D01*
X007276Y005927D01*
X007276Y006057D01*
X007286Y006082D01*
X007238Y006082D01*
X007238Y005815D01*
X007240Y005813D01*
X007259Y005781D01*
X007268Y005746D01*
X007268Y005632D01*
X006893Y005632D01*
X006893Y005602D01*
X007268Y005602D01*
X007268Y005489D01*
X007268Y005583D02*
X007469Y005583D01*
X007469Y005661D02*
X007268Y005661D01*
X007268Y005740D02*
X007392Y005740D01*
X007321Y005818D02*
X007238Y005818D01*
X007238Y005897D02*
X007288Y005897D01*
X007276Y005976D02*
X007238Y005976D01*
X007238Y006054D02*
X007276Y006054D01*
X006863Y005632D02*
X006863Y005602D01*
X006488Y005602D01*
X006488Y005489D01*
X006498Y005453D01*
X006516Y005421D01*
X006518Y005419D01*
X006518Y005147D01*
X006520Y005145D01*
X006518Y005143D01*
X006518Y004852D01*
X005071Y004852D01*
X005022Y004901D01*
X005032Y004927D01*
X005032Y005057D01*
X004982Y005178D01*
X004890Y005270D01*
X004770Y005320D01*
X004639Y005320D01*
X004518Y005270D01*
X004426Y005178D01*
X004376Y005057D01*
X004376Y004927D01*
X004426Y004806D01*
X004518Y004714D01*
X004639Y004664D01*
X004770Y004664D01*
X004795Y004674D01*
X004844Y004626D01*
X004938Y004532D01*
X006518Y004532D01*
X006518Y004517D01*
X006520Y004515D01*
X006518Y004513D01*
X006518Y004304D01*
X006514Y004308D01*
X006421Y004402D01*
X006042Y004402D01*
X005909Y004402D01*
X005816Y004308D01*
X005816Y004130D01*
X005505Y004130D01*
X005503Y004128D01*
X005501Y004130D01*
X005190Y004130D01*
X005188Y004128D01*
X005186Y004130D01*
X004875Y004130D01*
X004873Y004128D01*
X004871Y004130D01*
X004560Y004130D01*
X004558Y004128D01*
X004556Y004130D01*
X004245Y004130D01*
X004243Y004128D01*
X004241Y004130D01*
X004119Y004130D01*
X004171Y004182D01*
X004264Y004276D01*
X004264Y006126D01*
X004264Y006258D01*
X004171Y006352D01*
X003858Y006352D01*
X003858Y006403D01*
X003856Y006405D01*
X003858Y006407D01*
X003858Y006718D01*
X003794Y006782D01*
X003203Y006782D01*
X003138Y006718D01*
X003138Y006702D01*
X002893Y006702D01*
X002882Y006728D01*
X002790Y006820D01*
X002670Y006870D01*
X002609Y006870D01*
X002721Y006982D01*
X003866Y006982D01*
X003866Y006854D01*
X003930Y006790D01*
X004241Y006790D01*
X004243Y006792D01*
X004245Y006790D01*
X004556Y006790D01*
X004558Y006792D01*
X004560Y006790D01*
X004871Y006790D01*
X004873Y006792D01*
X004875Y006790D01*
X005017Y006790D01*
X004968Y006770D01*
X004876Y006678D01*
X004826Y006557D01*
X004826Y006427D01*
X004876Y006306D01*
X004968Y006214D01*
X005089Y006164D01*
X005220Y006164D01*
X005294Y006195D01*
X005294Y005931D01*
X005268Y005920D01*
X005176Y005828D01*
X005126Y005707D01*
X005126Y005577D01*
X005176Y005456D01*
X005268Y005364D01*
X005389Y005314D01*
X005520Y005314D01*
X005526Y005317D01*
X005526Y005227D01*
X005576Y005106D01*
X005668Y005014D01*
X005789Y004964D01*
X005920Y004964D01*
X006040Y005014D01*
X006132Y005106D01*
X006182Y005227D01*
X006182Y005357D01*
X006132Y005478D01*
X006074Y005536D01*
X006321Y005782D01*
X006498Y005782D01*
X006498Y005781D01*
X006488Y005746D01*
X006488Y005632D01*
X006863Y005632D01*
X006488Y005661D02*
X006200Y005661D01*
X006122Y005583D02*
X006488Y005583D01*
X006488Y005504D02*
X006106Y005504D01*
X006154Y005426D02*
X006514Y005426D01*
X006518Y005347D02*
X006182Y005347D01*
X006182Y005269D02*
X006518Y005269D01*
X006518Y005190D02*
X006167Y005190D01*
X006135Y005112D02*
X006518Y005112D01*
X006518Y005033D02*
X006059Y005033D01*
X005649Y005033D02*
X005032Y005033D01*
X005032Y004954D02*
X006518Y004954D01*
X006518Y004876D02*
X005046Y004876D01*
X005010Y005112D02*
X005574Y005112D01*
X005541Y005190D02*
X004970Y005190D01*
X004891Y005269D02*
X005526Y005269D01*
X005308Y005347D02*
X004264Y005347D01*
X004264Y005269D02*
X004517Y005269D01*
X004439Y005190D02*
X004264Y005190D01*
X004264Y005112D02*
X004399Y005112D01*
X004376Y005033D02*
X004264Y005033D01*
X004264Y004954D02*
X004376Y004954D01*
X004397Y004876D02*
X004264Y004876D01*
X004264Y004797D02*
X004435Y004797D01*
X004513Y004719D02*
X004264Y004719D01*
X004264Y004640D02*
X004830Y004640D01*
X004844Y004626D02*
X004844Y004626D01*
X004908Y004562D02*
X004264Y004562D01*
X004264Y004483D02*
X006518Y004483D01*
X006518Y004405D02*
X004264Y004405D01*
X004264Y004326D02*
X005834Y004326D01*
X005816Y004248D02*
X004236Y004248D01*
X004158Y004169D02*
X005816Y004169D01*
X006496Y004326D02*
X006518Y004326D01*
X007456Y005347D02*
X007474Y005347D01*
X007469Y005426D02*
X007378Y005426D01*
X007764Y004719D02*
X008394Y004719D01*
X008394Y004797D02*
X008047Y004797D01*
X008074Y004876D02*
X008394Y004876D01*
X008257Y004954D02*
X008074Y004954D01*
X008074Y005033D02*
X008235Y005033D01*
X008235Y005112D02*
X008074Y005112D01*
X008074Y005190D02*
X008235Y005190D01*
X008235Y005269D02*
X008049Y005269D01*
X008100Y005347D02*
X008235Y005347D01*
X008239Y005426D02*
X008104Y005426D01*
X008394Y004640D02*
X007764Y004640D01*
X007764Y004562D02*
X008394Y004562D01*
X008394Y004483D02*
X007764Y004483D01*
X007764Y004405D02*
X007809Y004405D01*
X008300Y004405D02*
X008394Y004405D01*
X008394Y004326D02*
X008378Y004326D01*
X009977Y005033D02*
X010064Y005033D01*
X008130Y006997D02*
X007514Y006997D01*
X007514Y007075D02*
X008134Y007075D01*
X008160Y007154D02*
X007514Y007154D01*
X007514Y007232D02*
X008160Y007232D01*
X008160Y007311D02*
X007512Y007311D01*
X007433Y007389D02*
X008160Y007389D01*
X008160Y007468D02*
X007355Y007468D01*
X007276Y007546D02*
X007810Y007546D01*
X007707Y007625D02*
X007197Y007625D01*
X006940Y008410D02*
X008794Y008410D01*
X008794Y008489D02*
X006871Y008489D01*
X006726Y008567D02*
X008794Y008567D01*
X008794Y008646D02*
X004676Y008646D01*
X004714Y008567D02*
X005454Y008567D01*
X005414Y008725D02*
X005494Y008725D01*
X005494Y008803D02*
X005414Y008803D01*
X005414Y008882D02*
X005494Y008882D01*
X005494Y008960D02*
X005414Y008960D01*
X005414Y009039D02*
X004094Y009039D01*
X004094Y009117D02*
X004014Y009117D01*
X004014Y009039D02*
X003484Y009039D01*
X003484Y009117D02*
X003594Y009117D01*
X003594Y009196D02*
X003484Y009196D01*
X003430Y009274D02*
X003636Y009274D01*
X003715Y009353D02*
X003351Y009353D01*
X003273Y009431D02*
X003793Y009431D01*
X004014Y009431D02*
X004094Y009431D01*
X004094Y009353D02*
X004014Y009353D01*
X004014Y009274D02*
X004094Y009274D01*
X004094Y009196D02*
X004014Y009196D01*
X004315Y009431D02*
X005069Y009431D01*
X005053Y009510D02*
X002414Y009510D01*
X002414Y009589D02*
X005049Y009589D01*
X005049Y009667D02*
X004042Y009667D01*
X004093Y009746D02*
X004241Y009746D01*
X004241Y009824D02*
X004097Y009824D01*
X004097Y009903D02*
X004241Y009903D01*
X004241Y009981D02*
X004097Y009981D01*
X004097Y010060D02*
X004241Y010060D01*
X004241Y010138D02*
X004097Y010138D01*
X004097Y010217D02*
X004241Y010217D01*
X004241Y010295D02*
X004097Y010295D01*
X004097Y010374D02*
X004241Y010374D01*
X004241Y010453D02*
X004097Y010453D01*
X004097Y010531D02*
X004241Y010531D01*
X004855Y010531D02*
X005097Y010531D01*
X004973Y010610D02*
X004855Y010610D01*
X004855Y010453D02*
X005865Y010453D01*
X005896Y010531D02*
X005311Y010531D01*
X005436Y010610D02*
X005896Y010610D01*
X005896Y010688D02*
X005496Y010688D01*
X005528Y010767D02*
X005896Y010767D01*
X005896Y010845D02*
X005532Y010845D01*
X005526Y010924D02*
X005896Y010924D01*
X005896Y011002D02*
X005493Y011002D01*
X005429Y011081D02*
X005896Y011081D01*
X005914Y011159D02*
X005295Y011159D01*
X005114Y011159D02*
X004855Y011159D01*
X004855Y011081D02*
X004979Y011081D01*
X004916Y011002D02*
X004855Y011002D01*
X004855Y010374D02*
X005786Y010374D01*
X005708Y010295D02*
X004855Y010295D01*
X004855Y010217D02*
X005629Y010217D01*
X005860Y009981D02*
X006008Y009981D01*
X005996Y009903D02*
X005860Y009903D01*
X005860Y009824D02*
X005996Y009824D01*
X005996Y009746D02*
X005860Y009746D01*
X005860Y009667D02*
X005996Y009667D01*
X005972Y009589D02*
X005860Y009589D01*
X005855Y009510D02*
X005966Y009510D01*
X005840Y009431D02*
X006328Y009431D01*
X005966Y009353D02*
X005887Y009353D01*
X005890Y009274D02*
X005979Y009274D01*
X005996Y009196D02*
X005890Y009196D01*
X005890Y009117D02*
X005996Y009117D01*
X005996Y009039D02*
X005494Y009039D01*
X005890Y008960D02*
X005996Y008960D01*
X006029Y008882D02*
X005890Y008882D01*
X005890Y008803D02*
X007719Y008803D01*
X007719Y008882D02*
X007680Y008882D01*
X007648Y008850D02*
X007712Y008914D01*
X007712Y009222D01*
X007648Y009286D01*
X007084Y009286D01*
X007020Y009222D01*
X007020Y008914D01*
X007084Y008850D01*
X007648Y008850D01*
X007712Y008960D02*
X007719Y008960D01*
X007712Y009039D02*
X008114Y009039D01*
X008114Y008960D02*
X008194Y008960D01*
X008194Y008882D02*
X008114Y008882D01*
X008114Y008803D02*
X008194Y008803D01*
X008194Y008725D02*
X008114Y008725D01*
X008194Y009039D02*
X008794Y009039D01*
X008794Y009117D02*
X008590Y009117D01*
X008590Y009196D02*
X008794Y009196D01*
X008794Y009274D02*
X008590Y009274D01*
X008587Y009353D02*
X008794Y009353D01*
X008788Y009431D02*
X008540Y009431D01*
X008555Y009510D02*
X008710Y009510D01*
X008631Y009589D02*
X008560Y009589D01*
X008590Y008960D02*
X008794Y008960D01*
X008794Y008882D02*
X008590Y008882D01*
X008590Y008803D02*
X008794Y008803D01*
X008794Y008725D02*
X008560Y008725D01*
X007748Y008725D02*
X005860Y008725D01*
X005943Y008567D02*
X005965Y008567D01*
X005962Y008489D02*
X005946Y008489D01*
X005946Y008410D02*
X005962Y008410D01*
X005962Y008332D02*
X005946Y008332D01*
X005946Y008253D02*
X005962Y008253D01*
X005962Y008175D02*
X005946Y008175D01*
X005923Y008096D02*
X005985Y008096D01*
X005962Y008018D02*
X005946Y008018D01*
X005946Y007939D02*
X005962Y007939D01*
X005962Y007861D02*
X005946Y007861D01*
X005946Y007782D02*
X005962Y007782D01*
X005962Y007704D02*
X005946Y007704D01*
X006455Y008567D02*
X006583Y008567D01*
X006656Y008882D02*
X007052Y008882D01*
X007020Y008960D02*
X006749Y008960D01*
X006827Y009039D02*
X007020Y009039D01*
X007020Y009117D02*
X006906Y009117D01*
X006914Y009196D02*
X007020Y009196D01*
X007073Y009274D02*
X006914Y009274D01*
X006914Y009353D02*
X007722Y009353D01*
X007719Y009274D02*
X007660Y009274D01*
X007712Y009196D02*
X007719Y009196D01*
X007712Y009117D02*
X007719Y009117D01*
X007769Y009431D02*
X006914Y009431D01*
X006914Y009510D02*
X007753Y009510D01*
X007749Y009589D02*
X006914Y009589D01*
X006914Y009667D02*
X007020Y009667D01*
X007020Y009746D02*
X006914Y009746D01*
X006848Y009824D02*
X007020Y009824D01*
X007020Y009903D02*
X006770Y009903D01*
X006677Y009981D02*
X007031Y009981D01*
X006502Y010060D02*
X007749Y010060D01*
X007744Y010138D02*
X006502Y010138D01*
X006182Y010138D02*
X006003Y010138D01*
X005924Y010060D02*
X006182Y010060D01*
X006182Y010217D02*
X006082Y010217D01*
X006972Y011316D02*
X007116Y011316D01*
X007060Y011395D02*
X006972Y011395D01*
X006972Y011474D02*
X007027Y011474D01*
X007026Y011552D02*
X006972Y011552D01*
X006972Y011631D02*
X007036Y011631D01*
X007069Y011709D02*
X006972Y011709D01*
X007062Y011788D02*
X007136Y011788D01*
X007152Y011866D02*
X007062Y011866D01*
X007062Y011945D02*
X007152Y011945D01*
X007152Y012023D02*
X007062Y012023D01*
X007062Y012102D02*
X007152Y012102D01*
X007152Y012180D02*
X007062Y012180D01*
X007062Y012259D02*
X007152Y012259D01*
X007152Y012338D02*
X007062Y012338D01*
X007062Y012416D02*
X007152Y012416D01*
X007179Y012495D02*
X007036Y012495D01*
X007054Y012518D02*
X007171Y012518D01*
X007279Y012563D01*
X007362Y012646D01*
X007407Y012754D01*
X007407Y012871D01*
X007362Y012980D01*
X007279Y013063D01*
X007171Y013108D01*
X007054Y013108D01*
X006945Y013063D01*
X006862Y012980D01*
X006817Y012871D01*
X006817Y012754D01*
X006862Y012646D01*
X006945Y012563D01*
X007054Y012518D01*
X006935Y012573D02*
X006572Y012573D01*
X006572Y012495D02*
X006589Y012495D01*
X006860Y012652D02*
X005918Y012652D01*
X005918Y012730D02*
X006827Y012730D01*
X006817Y012809D02*
X005918Y012809D01*
X005918Y012887D02*
X006824Y012887D01*
X006857Y012966D02*
X005918Y012966D01*
X005918Y013044D02*
X005962Y013044D01*
X005962Y013123D02*
X005918Y013123D01*
X005918Y013202D02*
X005962Y013202D01*
X005962Y013280D02*
X005918Y013280D01*
X005918Y013359D02*
X005962Y013359D01*
X005962Y013437D02*
X005918Y013437D01*
X006572Y013437D02*
X007973Y013437D01*
X007895Y013359D02*
X006572Y013359D01*
X006572Y013280D02*
X007816Y013280D01*
X007738Y013202D02*
X006572Y013202D01*
X006572Y013123D02*
X007659Y013123D01*
X007644Y013044D02*
X007298Y013044D01*
X007368Y012966D02*
X007644Y012966D01*
X007644Y012887D02*
X007401Y012887D01*
X007407Y012809D02*
X007644Y012809D01*
X007644Y012730D02*
X007397Y012730D01*
X007365Y012652D02*
X007644Y012652D01*
X007644Y012573D02*
X007290Y012573D01*
X007626Y012495D02*
X007644Y012495D01*
X006927Y013044D02*
X006572Y013044D01*
X005962Y012573D02*
X005918Y012573D01*
X005918Y012495D02*
X005962Y012495D01*
X005962Y012416D02*
X005918Y012416D01*
X005918Y012338D02*
X005962Y012338D01*
X005962Y012259D02*
X005918Y012259D01*
X005918Y012180D02*
X005962Y012180D01*
X005918Y012102D02*
X006562Y012102D01*
X006562Y012023D02*
X005918Y012023D01*
X006562Y011945D02*
X002246Y011945D01*
X002324Y012023D02*
X002391Y012023D01*
X002391Y012102D02*
X002376Y012102D01*
X002167Y011866D02*
X006562Y011866D01*
X006562Y011788D02*
X002039Y011788D01*
X001849Y011709D02*
X002558Y011709D01*
X002479Y011631D02*
X001217Y011631D01*
X001217Y011552D02*
X002138Y011552D01*
X002094Y011474D02*
X001217Y011474D01*
X001174Y011395D02*
X001465Y011395D01*
X001386Y011316D02*
X001096Y011316D01*
X001104Y011238D02*
X001336Y011238D01*
X001303Y011159D02*
X001104Y011159D01*
X001104Y011183D02*
X001104Y011183D01*
X001104Y011081D02*
X001297Y011081D01*
X001297Y011002D02*
X001088Y011002D01*
X001104Y010924D02*
X001324Y010924D01*
X001357Y010845D02*
X001104Y010845D01*
X001104Y010767D02*
X001436Y010767D01*
X001470Y010610D02*
X001056Y010610D01*
X001034Y010632D02*
X001047Y010644D01*
X001104Y010701D01*
X001034Y010632D02*
X001104Y010562D01*
X001104Y010504D01*
X001104Y010446D01*
X001104Y010446D01*
X001104Y010276D01*
X001062Y010235D01*
X001104Y010194D01*
X001104Y010135D01*
X001104Y010078D01*
X001104Y010078D01*
X001104Y009964D01*
X001091Y009952D01*
X001135Y009908D01*
X001135Y009908D01*
X001216Y009827D01*
X001217Y009826D01*
X001217Y009826D01*
X001217Y009768D01*
X001217Y009710D01*
X001217Y009710D01*
X001217Y009596D01*
X001135Y009514D01*
X001119Y009498D01*
X001160Y009457D01*
X001160Y009341D01*
X001104Y009285D01*
X001104Y009285D01*
X001067Y009248D01*
X001104Y009212D01*
X001104Y009098D01*
X001104Y008982D01*
X001047Y008926D01*
X001034Y008913D01*
X001102Y008844D01*
X001103Y008844D01*
X001104Y008843D01*
X001104Y008786D01*
X001104Y008728D01*
X001104Y008727D01*
X001104Y008557D01*
X001062Y008516D01*
X001104Y008475D01*
X001104Y008417D01*
X001104Y008359D01*
X001104Y008359D01*
X001104Y008246D01*
X001047Y008189D01*
X000965Y008107D01*
X000908Y008107D01*
X000792Y008107D01*
X000735Y008164D01*
X000679Y008164D01*
X000674Y008168D01*
X000674Y007079D01*
X000735Y007141D01*
X000851Y007141D01*
X001020Y007141D01*
X001078Y007141D01*
X001078Y007141D01*
X001078Y007141D01*
X001135Y007084D01*
X001135Y007084D01*
X001217Y007002D01*
X001217Y006943D01*
X001217Y006886D01*
X001217Y006886D01*
X001217Y006772D01*
X001160Y006716D01*
X001160Y006716D01*
X001091Y006646D01*
X001135Y006602D01*
X001135Y006602D01*
X001215Y006522D01*
X001217Y006520D01*
X001217Y006404D01*
X001217Y006404D01*
X001136Y006323D01*
X001135Y006322D01*
X001022Y006322D01*
X000974Y006274D01*
X001203Y006121D01*
X001226Y006008D01*
X001178Y005936D01*
X001216Y005898D01*
X001217Y005897D01*
X001217Y005897D01*
X001204Y005976D02*
X001556Y005976D01*
X001424Y006054D02*
X001216Y006054D01*
X001186Y006133D02*
X001351Y006133D01*
X001319Y006211D02*
X001068Y006211D01*
X000989Y006290D02*
X001297Y006290D01*
X001297Y006368D02*
X001181Y006368D01*
X001217Y006447D02*
X001308Y006447D01*
X001341Y006525D02*
X001212Y006525D01*
X001133Y006604D02*
X001398Y006604D01*
X001494Y006682D02*
X001127Y006682D01*
X001205Y006761D02*
X001561Y006761D01*
X001426Y006840D02*
X001217Y006840D01*
X001217Y006918D02*
X001352Y006918D01*
X001320Y006997D02*
X001217Y006997D01*
X001144Y007075D02*
X001297Y007075D01*
X001297Y007154D02*
X000674Y007154D01*
X000674Y007232D02*
X001308Y007232D01*
X001340Y007311D02*
X000674Y007311D01*
X000674Y007389D02*
X000830Y007389D01*
X000849Y007370D02*
X000965Y007370D01*
X001047Y007452D01*
X001047Y007795D01*
X000965Y007877D01*
X000849Y007877D01*
X000767Y007795D01*
X000767Y007452D01*
X000849Y007370D01*
X000767Y007468D02*
X000674Y007468D01*
X000674Y007546D02*
X000767Y007546D01*
X000767Y007625D02*
X000674Y007625D01*
X000674Y007704D02*
X000767Y007704D01*
X000767Y007782D02*
X000674Y007782D01*
X000674Y007861D02*
X000832Y007861D01*
X000981Y007861D02*
X001297Y007861D01*
X001297Y007840D02*
X001356Y007697D01*
X001465Y007588D01*
X001607Y007529D01*
X001761Y007529D01*
X001904Y007588D01*
X002013Y007697D01*
X002072Y007840D01*
X002072Y007994D01*
X002013Y008136D01*
X001904Y008245D01*
X001761Y008304D01*
X001607Y008304D01*
X001465Y008245D01*
X001356Y008136D01*
X001297Y007994D01*
X001297Y007840D01*
X001321Y007782D02*
X001047Y007782D01*
X001047Y007704D02*
X001353Y007704D01*
X001428Y007625D02*
X001047Y007625D01*
X001047Y007546D02*
X001566Y007546D01*
X001489Y007468D02*
X001047Y007468D01*
X000984Y007389D02*
X001396Y007389D01*
X001803Y007546D02*
X001875Y007546D01*
X001940Y007625D02*
X001954Y007625D01*
X002015Y007704D02*
X002032Y007704D01*
X002048Y007782D02*
X002094Y007782D01*
X002094Y007861D02*
X002072Y007861D01*
X002072Y007939D02*
X002094Y007939D01*
X002094Y008018D02*
X002062Y008018D01*
X002029Y008096D02*
X002094Y008096D01*
X002094Y008175D02*
X001974Y008175D01*
X001884Y008253D02*
X002094Y008253D01*
X002094Y008332D02*
X001798Y008332D01*
X001761Y008317D02*
X001904Y008376D01*
X002013Y008485D01*
X002072Y008627D01*
X002072Y008781D01*
X002013Y008924D01*
X001904Y009033D01*
X001761Y009092D01*
X001607Y009092D01*
X001465Y009033D01*
X001356Y008924D01*
X001297Y008781D01*
X001297Y008627D01*
X001356Y008485D01*
X001465Y008376D01*
X001607Y008317D01*
X001761Y008317D01*
X001570Y008332D02*
X001104Y008332D01*
X001104Y008410D02*
X001430Y008410D01*
X001354Y008489D02*
X001090Y008489D01*
X001104Y008567D02*
X001321Y008567D01*
X001297Y008646D02*
X001104Y008646D01*
X001104Y008725D02*
X001297Y008725D01*
X001306Y008803D02*
X001104Y008803D01*
X001065Y008882D02*
X001338Y008882D01*
X001392Y008960D02*
X001081Y008960D01*
X001104Y009039D02*
X001480Y009039D01*
X001575Y009117D02*
X001104Y009117D01*
X001104Y009196D02*
X001432Y009196D01*
X001465Y009163D02*
X001356Y009272D01*
X001297Y009414D01*
X001297Y009569D01*
X001356Y009711D01*
X001465Y009820D01*
X001607Y009879D01*
X001761Y009879D01*
X001904Y009820D01*
X002013Y009711D01*
X002072Y009569D01*
X002072Y009414D01*
X002013Y009272D01*
X001904Y009163D01*
X001761Y009104D01*
X001607Y009104D01*
X001465Y009163D01*
X001355Y009274D02*
X001093Y009274D01*
X001160Y009353D02*
X001322Y009353D01*
X001297Y009431D02*
X001160Y009431D01*
X001131Y009510D02*
X001297Y009510D01*
X001305Y009589D02*
X001209Y009589D01*
X001217Y009667D02*
X001338Y009667D01*
X001390Y009746D02*
X001217Y009746D01*
X001217Y009824D02*
X001475Y009824D01*
X001580Y009903D02*
X001140Y009903D01*
X001104Y009981D02*
X001434Y009981D01*
X001356Y010060D02*
X001104Y010060D01*
X001104Y010138D02*
X001323Y010138D01*
X001297Y010217D02*
X001081Y010217D01*
X001104Y010295D02*
X001297Y010295D01*
X001304Y010374D02*
X001104Y010374D01*
X001104Y010453D02*
X001337Y010453D01*
X001388Y010531D02*
X001104Y010531D01*
X001789Y009903D02*
X002094Y009903D01*
X002094Y009981D02*
X001935Y009981D01*
X002013Y010060D02*
X002094Y010060D01*
X002094Y010138D02*
X002045Y010138D01*
X002072Y010217D02*
X002094Y010217D01*
X002094Y010295D02*
X002072Y010295D01*
X002064Y010374D02*
X002094Y010374D01*
X002094Y010453D02*
X002032Y010453D01*
X001980Y010531D02*
X002094Y010531D01*
X002094Y010845D02*
X002011Y010845D01*
X002045Y010924D02*
X002094Y010924D01*
X002094Y011002D02*
X002072Y011002D01*
X002072Y011081D02*
X002094Y011081D01*
X002094Y011159D02*
X002065Y011159D01*
X002094Y011238D02*
X002033Y011238D01*
X001982Y011316D02*
X002094Y011316D01*
X002094Y011395D02*
X001903Y011395D01*
X001459Y011709D02*
X001175Y011709D01*
X001135Y011749D02*
X001135Y011749D01*
X001096Y011788D02*
X001270Y011788D01*
X001141Y011866D02*
X000674Y011866D01*
X000674Y011788D02*
X000717Y011788D01*
X000869Y011788D02*
X000888Y011788D01*
X001063Y011945D02*
X000674Y011945D01*
X000674Y012023D02*
X000984Y012023D01*
X000933Y012102D02*
X000674Y012102D01*
X000674Y012180D02*
X000900Y012180D01*
X000868Y012259D02*
X000674Y012259D01*
X000674Y012338D02*
X000835Y012338D01*
X000826Y012416D02*
X000674Y012416D01*
X000674Y012495D02*
X000826Y012495D01*
X000826Y012573D02*
X000674Y012573D01*
X000674Y012652D02*
X000826Y012652D01*
X000842Y012730D02*
X000674Y012730D01*
X000674Y012809D02*
X000875Y012809D01*
X000907Y012887D02*
X000674Y012887D01*
X000674Y012966D02*
X000940Y012966D01*
X001002Y013044D02*
X000674Y013044D01*
X000674Y013123D02*
X001080Y013123D01*
X001159Y013202D02*
X000674Y013202D01*
X000674Y013280D02*
X001311Y013280D01*
X000674Y013359D02*
X002391Y013359D01*
X002391Y013437D02*
X000674Y013437D01*
X001998Y013280D02*
X002391Y013280D01*
X002391Y013202D02*
X002150Y013202D01*
X002229Y013123D02*
X002391Y013123D01*
X002391Y013044D02*
X002307Y013044D01*
X002369Y012966D02*
X002391Y012966D01*
X003241Y012966D02*
X005068Y012966D01*
X005068Y013044D02*
X003241Y013044D01*
X003241Y013123D02*
X005068Y013123D01*
X005068Y013202D02*
X003241Y013202D01*
X003241Y013280D02*
X005068Y013280D01*
X005068Y013359D02*
X003241Y013359D01*
X003241Y013437D02*
X005068Y013437D01*
X005068Y012887D02*
X003241Y012887D01*
X003241Y012809D02*
X005068Y012809D01*
X005068Y012730D02*
X003241Y012730D01*
X003241Y012652D02*
X005068Y012652D01*
X005068Y012573D02*
X003241Y012573D01*
X003241Y012495D02*
X005068Y012495D01*
X005068Y012416D02*
X003241Y012416D01*
X003241Y012338D02*
X005068Y012338D01*
X005068Y012259D02*
X003241Y012259D01*
X003241Y012180D02*
X005068Y012180D01*
X005068Y012102D02*
X003241Y012102D01*
X003241Y012023D02*
X005068Y012023D01*
X005070Y010138D02*
X004855Y010138D01*
X004855Y010060D02*
X005049Y010060D01*
X005049Y009981D02*
X004855Y009981D01*
X004855Y009903D02*
X005049Y009903D01*
X005049Y009824D02*
X004855Y009824D01*
X004855Y009746D02*
X005049Y009746D01*
X005022Y009353D02*
X004394Y009353D01*
X004472Y009274D02*
X005019Y009274D01*
X005019Y009196D02*
X004514Y009196D01*
X004514Y009117D02*
X005019Y009117D01*
X005019Y008960D02*
X004514Y008960D01*
X004514Y008882D02*
X005019Y008882D01*
X005019Y008803D02*
X004466Y008803D01*
X004387Y008725D02*
X005048Y008725D01*
X005275Y008489D02*
X004714Y008489D01*
X004714Y008410D02*
X004815Y008410D01*
X004736Y008332D02*
X004714Y008332D01*
X003866Y007311D02*
X002092Y007311D01*
X002061Y007232D02*
X002518Y007232D01*
X002440Y007154D02*
X002072Y007154D01*
X002072Y007075D02*
X002361Y007075D01*
X002283Y006997D02*
X002049Y006997D01*
X002016Y006918D02*
X002204Y006918D01*
X002126Y006840D02*
X001942Y006840D01*
X002047Y006761D02*
X001808Y006761D01*
X001875Y006682D02*
X001994Y006682D01*
X001994Y006604D02*
X001970Y006604D01*
X002314Y006368D02*
X002321Y006368D01*
X002314Y006290D02*
X002383Y006290D01*
X002373Y006211D02*
X002314Y006211D01*
X002314Y006133D02*
X002373Y006133D01*
X002373Y006054D02*
X002314Y006054D01*
X002314Y005976D02*
X002373Y005976D01*
X002387Y005897D02*
X002314Y005897D01*
X002314Y005818D02*
X002453Y005818D01*
X002403Y005740D02*
X002314Y005740D01*
X002314Y005661D02*
X002403Y005661D01*
X002403Y005583D02*
X002314Y005583D01*
X002314Y005504D02*
X002403Y005504D01*
X002403Y005426D02*
X002314Y005426D01*
X002314Y005347D02*
X002414Y005347D01*
X002426Y005378D02*
X002426Y005378D01*
X002381Y005269D02*
X002314Y005269D01*
X002314Y005190D02*
X002376Y005190D01*
X002382Y005112D02*
X002250Y005112D01*
X002172Y005033D02*
X002415Y005033D01*
X002478Y004954D02*
X002093Y004954D01*
X002059Y004876D02*
X002308Y004876D01*
X002263Y004797D02*
X002072Y004797D01*
X002072Y004719D02*
X002263Y004719D01*
X002263Y004640D02*
X002051Y004640D01*
X002019Y004562D02*
X002263Y004562D01*
X002263Y004483D02*
X001948Y004483D01*
X001822Y004405D02*
X002266Y004405D01*
X002233Y004326D02*
X001918Y004326D01*
X002006Y004248D02*
X002233Y004248D01*
X002056Y004169D02*
X002679Y004169D01*
X002737Y004169D02*
X003171Y004169D01*
X003182Y004147D02*
X003182Y004046D01*
X003274Y004138D01*
X003203Y004138D01*
X003138Y004202D01*
X003138Y004205D01*
X002737Y004205D01*
X002737Y004147D01*
X003182Y004147D01*
X003182Y004091D02*
X003227Y004091D01*
X003858Y004322D02*
X003858Y004513D01*
X003856Y004515D01*
X003858Y004517D01*
X003858Y004828D01*
X003856Y004830D01*
X003858Y004832D01*
X003858Y005104D01*
X003860Y005107D01*
X003879Y005138D01*
X003888Y005174D01*
X003888Y005287D01*
X003513Y005287D01*
X003513Y005318D01*
X003888Y005318D01*
X003888Y005431D01*
X003879Y005467D01*
X003860Y005498D01*
X003858Y005501D01*
X003858Y005734D01*
X003860Y005736D01*
X003879Y005768D01*
X003888Y005804D01*
X003888Y005917D01*
X003513Y005917D01*
X003513Y005947D01*
X003888Y005947D01*
X003888Y006032D01*
X003944Y006032D01*
X003944Y004408D01*
X003858Y004322D01*
X003858Y004326D02*
X003862Y004326D01*
X003858Y004405D02*
X003941Y004405D01*
X003944Y004483D02*
X003858Y004483D01*
X003858Y004562D02*
X003944Y004562D01*
X003944Y004640D02*
X003858Y004640D01*
X003858Y004719D02*
X003944Y004719D01*
X003944Y004797D02*
X003858Y004797D01*
X003858Y004876D02*
X003944Y004876D01*
X003944Y004954D02*
X003858Y004954D01*
X003858Y005033D02*
X003944Y005033D01*
X003944Y005112D02*
X003863Y005112D01*
X003888Y005190D02*
X003944Y005190D01*
X003944Y005269D02*
X003888Y005269D01*
X003888Y005347D02*
X003944Y005347D01*
X003944Y005426D02*
X003888Y005426D01*
X003858Y005504D02*
X003944Y005504D01*
X003944Y005583D02*
X003858Y005583D01*
X003858Y005661D02*
X003944Y005661D01*
X003944Y005740D02*
X003862Y005740D01*
X003888Y005818D02*
X003944Y005818D01*
X003944Y005897D02*
X003888Y005897D01*
X003888Y005976D02*
X003944Y005976D01*
X004264Y005976D02*
X005294Y005976D01*
X005294Y006054D02*
X004264Y006054D01*
X004264Y006133D02*
X005294Y006133D01*
X005245Y005897D02*
X004264Y005897D01*
X004264Y005818D02*
X005172Y005818D01*
X005140Y005740D02*
X004264Y005740D01*
X004264Y005661D02*
X005126Y005661D01*
X005126Y005583D02*
X004264Y005583D01*
X004264Y005504D02*
X005156Y005504D01*
X005206Y005426D02*
X004264Y005426D01*
X004264Y006211D02*
X004975Y006211D01*
X004892Y006290D02*
X004233Y006290D01*
X003858Y006368D02*
X004850Y006368D01*
X004826Y006447D02*
X003858Y006447D01*
X003858Y006525D02*
X004826Y006525D01*
X004846Y006604D02*
X003858Y006604D01*
X003858Y006682D02*
X004881Y006682D01*
X004959Y006761D02*
X003815Y006761D01*
X003881Y006840D02*
X002743Y006840D01*
X002657Y006918D02*
X003866Y006918D01*
X003181Y006761D02*
X002849Y006761D01*
X002893Y006382D02*
X003138Y006382D01*
X003138Y006130D01*
X003136Y006128D01*
X003118Y006096D01*
X003108Y006061D01*
X003108Y005947D01*
X003483Y005947D01*
X003483Y005917D01*
X003108Y005917D01*
X003108Y005804D01*
X003118Y005768D01*
X003131Y005745D01*
X002977Y005745D01*
X002977Y005769D01*
X002918Y005828D01*
X002921Y005829D01*
X002953Y005847D01*
X002979Y005873D01*
X002997Y005905D01*
X003007Y005941D01*
X003007Y006068D01*
X002719Y006068D01*
X002719Y006126D01*
X003007Y006126D01*
X003007Y006253D01*
X002997Y006289D01*
X002979Y006321D01*
X002953Y006347D01*
X002921Y006365D01*
X002890Y006374D01*
X002893Y006382D01*
X002910Y006368D02*
X003138Y006368D01*
X003138Y006290D02*
X002997Y006290D01*
X003007Y006211D02*
X003138Y006211D01*
X003138Y006133D02*
X003007Y006133D01*
X003007Y006054D02*
X003108Y006054D01*
X003108Y005976D02*
X003007Y005976D01*
X002993Y005897D02*
X003108Y005897D01*
X003108Y005818D02*
X002927Y005818D01*
X002977Y005425D02*
X003108Y005425D01*
X003108Y005318D01*
X003483Y005318D01*
X003483Y005287D01*
X003108Y005287D01*
X003108Y005174D01*
X003114Y005152D01*
X003032Y005152D01*
X003032Y005257D01*
X002982Y005378D01*
X002968Y005393D01*
X002977Y005402D01*
X002977Y005425D01*
X002995Y005347D02*
X003108Y005347D01*
X003108Y005269D02*
X003028Y005269D01*
X003032Y005190D02*
X003108Y005190D01*
X001955Y005269D02*
X001946Y005269D01*
X001876Y005190D02*
X001817Y005190D01*
X001968Y005818D02*
X001994Y005818D01*
X001994Y005897D02*
X001870Y005897D01*
X001812Y005976D02*
X001994Y005976D01*
X001994Y006054D02*
X001944Y006054D01*
X002170Y007389D02*
X002981Y007389D01*
X002902Y007468D02*
X002249Y007468D01*
X002328Y007546D02*
X002894Y007546D01*
X002863Y007625D02*
X002406Y007625D01*
X002414Y007704D02*
X002785Y007704D01*
X002706Y007782D02*
X002414Y007782D01*
X002414Y007861D02*
X002628Y007861D01*
X002624Y007939D02*
X002414Y007939D01*
X002414Y008018D02*
X002624Y008018D01*
X002624Y008096D02*
X002414Y008096D01*
X002414Y008175D02*
X002624Y008175D01*
X002658Y008253D02*
X002414Y008253D01*
X002414Y008332D02*
X002736Y008332D01*
X002815Y008410D02*
X002414Y008410D01*
X002414Y008489D02*
X003381Y008489D01*
X003302Y008567D02*
X002414Y008567D01*
X002414Y008646D02*
X002842Y008646D01*
X002764Y008725D02*
X002414Y008725D01*
X002414Y008803D02*
X002685Y008803D01*
X002624Y008882D02*
X002414Y008882D01*
X002414Y008960D02*
X002624Y008960D01*
X002624Y009039D02*
X002414Y009039D01*
X002414Y009117D02*
X002624Y009117D01*
X002624Y009196D02*
X002414Y009196D01*
X002414Y009274D02*
X002679Y009274D01*
X002757Y009353D02*
X002414Y009353D01*
X002414Y009431D02*
X002836Y009431D01*
X003484Y008960D02*
X003594Y008960D01*
X003594Y008882D02*
X003484Y008882D01*
X003519Y008803D02*
X003643Y008803D01*
X003598Y008725D02*
X003721Y008725D01*
X003460Y008410D02*
X003294Y008410D01*
X003372Y008332D02*
X003736Y008332D01*
X003658Y008253D02*
X003451Y008253D01*
X003484Y008175D02*
X003624Y008175D01*
X003624Y008096D02*
X003484Y008096D01*
X003484Y008018D02*
X003624Y008018D01*
X003624Y007939D02*
X003484Y007939D01*
X003481Y007861D02*
X003628Y007861D01*
X003706Y007782D02*
X003403Y007782D01*
X003324Y007704D02*
X003785Y007704D01*
X002094Y008410D02*
X001939Y008410D01*
X002014Y008489D02*
X002094Y008489D01*
X002094Y008567D02*
X002047Y008567D01*
X002072Y008646D02*
X002094Y008646D01*
X002094Y008725D02*
X002072Y008725D01*
X002063Y008803D02*
X002094Y008803D01*
X002094Y008882D02*
X002030Y008882D01*
X001976Y008960D02*
X002094Y008960D01*
X002094Y009039D02*
X001889Y009039D01*
X001793Y009117D02*
X002094Y009117D01*
X002094Y009196D02*
X001937Y009196D01*
X002014Y009274D02*
X002094Y009274D01*
X002094Y009353D02*
X002046Y009353D01*
X002072Y009431D02*
X002094Y009431D01*
X002094Y009510D02*
X002072Y009510D01*
X002063Y009589D02*
X002094Y009589D01*
X002094Y009667D02*
X002031Y009667D01*
X001978Y009746D02*
X002094Y009746D01*
X002094Y009824D02*
X001894Y009824D01*
X001484Y008253D02*
X001104Y008253D01*
X001033Y008175D02*
X001394Y008175D01*
X001339Y008096D02*
X000674Y008096D01*
X000674Y008018D02*
X001307Y008018D01*
X001297Y007939D02*
X000674Y007939D01*
X001078Y011806D02*
X001078Y011806D01*
X001078Y011806D01*
X006279Y005740D02*
X006488Y005740D01*
X008098Y007546D02*
X008160Y007546D01*
X007749Y009981D02*
X007701Y009981D01*
X008282Y010453D02*
X008339Y010453D01*
X008417Y010531D02*
X008252Y010531D01*
X008248Y010610D02*
X008410Y010610D01*
X008367Y010688D02*
X008291Y010688D01*
X008291Y010767D02*
X008367Y010767D01*
X008367Y010845D02*
X008291Y010845D01*
X008291Y010924D02*
X008367Y010924D01*
X008367Y011002D02*
X008291Y011002D01*
X008230Y011081D02*
X008429Y011081D01*
X008372Y011159D02*
X008286Y011159D01*
X008291Y011238D02*
X008367Y011238D01*
X008367Y011316D02*
X008291Y011316D01*
X008291Y011395D02*
X008367Y011395D01*
X008367Y011474D02*
X008291Y011474D01*
X008270Y011552D02*
X008388Y011552D01*
X007231Y011238D02*
X007036Y011238D01*
X010326Y012809D02*
X010352Y012809D01*
X010357Y012887D02*
X010326Y012887D01*
X010326Y013359D02*
X010352Y013359D01*
X010357Y013437D02*
X010326Y013437D01*
X010545Y008253D02*
X010867Y008253D01*
X010867Y008175D02*
X010636Y008175D01*
X010691Y008096D02*
X010867Y008096D01*
X010867Y008018D02*
X010723Y008018D01*
X010733Y007939D02*
X010867Y007939D01*
X010867Y007861D02*
X010733Y007861D01*
X010709Y007782D02*
X010867Y007782D01*
X010867Y007704D02*
X010677Y007704D01*
X010602Y007625D02*
X010867Y007625D01*
X003444Y002991D02*
X003308Y002991D01*
X003308Y003069D02*
X003363Y003069D01*
X003399Y002912D02*
X003308Y002912D01*
X003320Y002834D02*
X003273Y002834D01*
X001766Y002755D02*
X001682Y002755D01*
X001706Y002834D02*
X001732Y002834D01*
X001732Y002912D02*
X001706Y002912D01*
X001732Y002991D02*
X001448Y002991D01*
X001448Y003031D02*
X001706Y003031D01*
X001706Y003168D01*
X001697Y003203D01*
X001679Y003235D01*
X001652Y003261D01*
X001621Y003280D01*
X001585Y003289D01*
X001448Y003289D01*
X001448Y003031D01*
X001448Y003069D02*
X001370Y003069D01*
X001370Y002991D02*
X001064Y002991D01*
X001064Y003069D02*
X001112Y003069D01*
X001112Y003148D02*
X001064Y003148D01*
X001103Y003227D02*
X001134Y003227D01*
X001370Y003227D02*
X001448Y003227D01*
X001448Y003148D02*
X001370Y003148D01*
X001370Y002912D02*
X001448Y002912D01*
X001448Y002834D02*
X001370Y002834D01*
X001370Y002755D02*
X001448Y002755D01*
X001706Y003069D02*
X001732Y003069D01*
X001732Y003148D02*
X001706Y003148D01*
X001684Y003227D02*
X001764Y003227D01*
X001723Y003619D02*
X001645Y003619D01*
X001645Y003698D02*
X001723Y003698D01*
X001723Y003776D02*
X001645Y003776D01*
X001645Y003855D02*
X001723Y003855D01*
X001723Y003933D02*
X001645Y003933D01*
X001376Y003698D02*
X001162Y003698D01*
X001207Y003619D02*
X001472Y003619D01*
X001319Y003776D02*
X001075Y003776D01*
X001286Y003855D02*
X000674Y003855D01*
X000674Y003933D02*
X001269Y003933D01*
X000734Y003776D02*
X000674Y003776D01*
X001064Y002912D02*
X001112Y002912D01*
X001112Y002834D02*
X001064Y002834D01*
X001064Y002755D02*
X001136Y002755D01*
D30*
X000904Y003492D03*
X002704Y005192D03*
X002604Y006542D03*
X004704Y004992D03*
X005304Y005092D03*
X005454Y005642D03*
X005804Y006042D03*
X005854Y005292D03*
X005154Y006492D03*
X006654Y008242D03*
X006854Y007042D03*
X007604Y005992D03*
X007954Y007242D03*
X007954Y007842D03*
X009604Y005392D03*
X009704Y004842D03*
X008954Y004392D03*
X009504Y003392D03*
X009054Y003042D03*
X007204Y003942D03*
X003604Y003292D03*
X007954Y010392D03*
X007354Y011542D03*
X005204Y010842D03*
X002754Y011442D03*
M02*
