G75*
G70*
%OFA0B0*%
%FSLAX24Y24*%
%IPPOS*%
%LPD*%
%AMOC8*
5,1,8,0,0,1.08239X$1,22.5*
%
%ADD10C,0.1497*%
%ADD11C,0.0081*%
%ADD12C,0.0635*%
%ADD13C,0.0080*%
%ADD14C,0.0082*%
%ADD15C,0.0081*%
%ADD16C,0.0085*%
%ADD17C,0.0083*%
%ADD18C,0.0083*%
%ADD19C,0.0080*%
%ADD20C,0.0440*%
%ADD21C,0.0080*%
%ADD22C,0.0083*%
%ADD23C,0.0430*%
%ADD24OC8,0.0720*%
D10*
X001705Y012525D03*
D11*
X004026Y006900D02*
X004246Y006900D01*
X004026Y006900D02*
X004026Y007400D01*
X004246Y007400D01*
X004246Y006900D01*
X004246Y006980D02*
X004026Y006980D01*
X004026Y007060D02*
X004246Y007060D01*
X004246Y007140D02*
X004026Y007140D01*
X004026Y007220D02*
X004246Y007220D01*
X004246Y007300D02*
X004026Y007300D01*
X004026Y007380D02*
X004246Y007380D01*
X004341Y006900D02*
X004561Y006900D01*
X004341Y006900D02*
X004341Y007400D01*
X004561Y007400D01*
X004561Y006900D01*
X004561Y006980D02*
X004341Y006980D01*
X004341Y007060D02*
X004561Y007060D01*
X004561Y007140D02*
X004341Y007140D01*
X004341Y007220D02*
X004561Y007220D01*
X004561Y007300D02*
X004341Y007300D01*
X004341Y007380D02*
X004561Y007380D01*
X004656Y006900D02*
X004876Y006900D01*
X004656Y006900D02*
X004656Y007400D01*
X004876Y007400D01*
X004876Y006900D01*
X004876Y006980D02*
X004656Y006980D01*
X004656Y007060D02*
X004876Y007060D01*
X004876Y007140D02*
X004656Y007140D01*
X004656Y007220D02*
X004876Y007220D01*
X004876Y007300D02*
X004656Y007300D01*
X004656Y007380D02*
X004876Y007380D01*
X004971Y006900D02*
X005191Y006900D01*
X004971Y006900D02*
X004971Y007400D01*
X005191Y007400D01*
X005191Y006900D01*
X005191Y006980D02*
X004971Y006980D01*
X004971Y007060D02*
X005191Y007060D01*
X005191Y007140D02*
X004971Y007140D01*
X004971Y007220D02*
X005191Y007220D01*
X005191Y007300D02*
X004971Y007300D01*
X004971Y007380D02*
X005191Y007380D01*
X005286Y006900D02*
X005506Y006900D01*
X005286Y006900D02*
X005286Y007400D01*
X005506Y007400D01*
X005506Y006900D01*
X005506Y006980D02*
X005286Y006980D01*
X005286Y007060D02*
X005506Y007060D01*
X005506Y007140D02*
X005286Y007140D01*
X005286Y007220D02*
X005506Y007220D01*
X005506Y007300D02*
X005286Y007300D01*
X005286Y007380D02*
X005506Y007380D01*
X005601Y006900D02*
X005821Y006900D01*
X005601Y006900D02*
X005601Y007400D01*
X005821Y007400D01*
X005821Y006900D01*
X005821Y006980D02*
X005601Y006980D01*
X005601Y007060D02*
X005821Y007060D01*
X005821Y007140D02*
X005601Y007140D01*
X005601Y007220D02*
X005821Y007220D01*
X005821Y007300D02*
X005601Y007300D01*
X005601Y007380D02*
X005821Y007380D01*
X005916Y006900D02*
X006136Y006900D01*
X005916Y006900D02*
X005916Y007400D01*
X006136Y007400D01*
X006136Y006900D01*
X006136Y006980D02*
X005916Y006980D01*
X005916Y007060D02*
X006136Y007060D01*
X006136Y007140D02*
X005916Y007140D01*
X005916Y007220D02*
X006136Y007220D01*
X006136Y007300D02*
X005916Y007300D01*
X005916Y007380D02*
X006136Y007380D01*
X006231Y006900D02*
X006451Y006900D01*
X006231Y006900D02*
X006231Y007400D01*
X006451Y007400D01*
X006451Y006900D01*
X006451Y006980D02*
X006231Y006980D01*
X006231Y007060D02*
X006451Y007060D01*
X006451Y007140D02*
X006231Y007140D01*
X006231Y007220D02*
X006451Y007220D01*
X006451Y007300D02*
X006231Y007300D01*
X006231Y007380D02*
X006451Y007380D01*
X006679Y006452D02*
X007179Y006452D01*
X006679Y006452D02*
X006679Y006672D01*
X007179Y006672D01*
X007179Y006452D01*
X007179Y006532D02*
X006679Y006532D01*
X006679Y006612D02*
X007179Y006612D01*
X007179Y006137D02*
X006679Y006137D01*
X006679Y006357D01*
X007179Y006357D01*
X007179Y006137D01*
X007179Y006217D02*
X006679Y006217D01*
X006679Y006297D02*
X007179Y006297D01*
X007179Y005822D02*
X006679Y005822D01*
X006679Y006042D01*
X007179Y006042D01*
X007179Y005822D01*
X007179Y005902D02*
X006679Y005902D01*
X006679Y005982D02*
X007179Y005982D01*
X007179Y005507D02*
X006679Y005507D01*
X006679Y005727D01*
X007179Y005727D01*
X007179Y005507D01*
X007179Y005587D02*
X006679Y005587D01*
X006679Y005667D02*
X007179Y005667D01*
X007179Y005193D02*
X006679Y005193D01*
X006679Y005413D01*
X007179Y005413D01*
X007179Y005193D01*
X007179Y005273D02*
X006679Y005273D01*
X006679Y005353D02*
X007179Y005353D01*
X007179Y004878D02*
X006679Y004878D01*
X006679Y005098D01*
X007179Y005098D01*
X007179Y004878D01*
X007179Y004958D02*
X006679Y004958D01*
X006679Y005038D02*
X007179Y005038D01*
X007179Y004563D02*
X006679Y004563D01*
X006679Y004783D01*
X007179Y004783D01*
X007179Y004563D01*
X007179Y004643D02*
X006679Y004643D01*
X006679Y004723D02*
X007179Y004723D01*
X007179Y004248D02*
X006679Y004248D01*
X006679Y004468D01*
X007179Y004468D01*
X007179Y004248D01*
X007179Y004328D02*
X006679Y004328D01*
X006679Y004408D02*
X007179Y004408D01*
X006451Y003520D02*
X006231Y003520D01*
X006231Y004020D01*
X006451Y004020D01*
X006451Y003520D01*
X006451Y003600D02*
X006231Y003600D01*
X006231Y003680D02*
X006451Y003680D01*
X006451Y003760D02*
X006231Y003760D01*
X006231Y003840D02*
X006451Y003840D01*
X006451Y003920D02*
X006231Y003920D01*
X006231Y004000D02*
X006451Y004000D01*
X006136Y003520D02*
X005916Y003520D01*
X005916Y004020D01*
X006136Y004020D01*
X006136Y003520D01*
X006136Y003600D02*
X005916Y003600D01*
X005916Y003680D02*
X006136Y003680D01*
X006136Y003760D02*
X005916Y003760D01*
X005916Y003840D02*
X006136Y003840D01*
X006136Y003920D02*
X005916Y003920D01*
X005916Y004000D02*
X006136Y004000D01*
X005821Y003520D02*
X005601Y003520D01*
X005601Y004020D01*
X005821Y004020D01*
X005821Y003520D01*
X005821Y003600D02*
X005601Y003600D01*
X005601Y003680D02*
X005821Y003680D01*
X005821Y003760D02*
X005601Y003760D01*
X005601Y003840D02*
X005821Y003840D01*
X005821Y003920D02*
X005601Y003920D01*
X005601Y004000D02*
X005821Y004000D01*
X005506Y003520D02*
X005286Y003520D01*
X005286Y004020D01*
X005506Y004020D01*
X005506Y003520D01*
X005506Y003600D02*
X005286Y003600D01*
X005286Y003680D02*
X005506Y003680D01*
X005506Y003760D02*
X005286Y003760D01*
X005286Y003840D02*
X005506Y003840D01*
X005506Y003920D02*
X005286Y003920D01*
X005286Y004000D02*
X005506Y004000D01*
X005191Y003520D02*
X004971Y003520D01*
X004971Y004020D01*
X005191Y004020D01*
X005191Y003520D01*
X005191Y003600D02*
X004971Y003600D01*
X004971Y003680D02*
X005191Y003680D01*
X005191Y003760D02*
X004971Y003760D01*
X004971Y003840D02*
X005191Y003840D01*
X005191Y003920D02*
X004971Y003920D01*
X004971Y004000D02*
X005191Y004000D01*
X004876Y003520D02*
X004656Y003520D01*
X004656Y004020D01*
X004876Y004020D01*
X004876Y003520D01*
X004876Y003600D02*
X004656Y003600D01*
X004656Y003680D02*
X004876Y003680D01*
X004876Y003760D02*
X004656Y003760D01*
X004656Y003840D02*
X004876Y003840D01*
X004876Y003920D02*
X004656Y003920D01*
X004656Y004000D02*
X004876Y004000D01*
X004561Y003520D02*
X004341Y003520D01*
X004341Y004020D01*
X004561Y004020D01*
X004561Y003520D01*
X004561Y003600D02*
X004341Y003600D01*
X004341Y003680D02*
X004561Y003680D01*
X004561Y003760D02*
X004341Y003760D01*
X004341Y003840D02*
X004561Y003840D01*
X004561Y003920D02*
X004341Y003920D01*
X004341Y004000D02*
X004561Y004000D01*
X004246Y003520D02*
X004026Y003520D01*
X004026Y004020D01*
X004246Y004020D01*
X004246Y003520D01*
X004246Y003600D02*
X004026Y003600D01*
X004026Y003680D02*
X004246Y003680D01*
X004246Y003760D02*
X004026Y003760D01*
X004026Y003840D02*
X004246Y003840D01*
X004246Y003920D02*
X004026Y003920D01*
X004026Y004000D02*
X004246Y004000D01*
X003799Y004248D02*
X003299Y004248D01*
X003299Y004468D01*
X003799Y004468D01*
X003799Y004248D01*
X003799Y004328D02*
X003299Y004328D01*
X003299Y004408D02*
X003799Y004408D01*
X003799Y004563D02*
X003299Y004563D01*
X003299Y004783D01*
X003799Y004783D01*
X003799Y004563D01*
X003799Y004643D02*
X003299Y004643D01*
X003299Y004723D02*
X003799Y004723D01*
X003799Y004878D02*
X003299Y004878D01*
X003299Y005098D01*
X003799Y005098D01*
X003799Y004878D01*
X003799Y004958D02*
X003299Y004958D01*
X003299Y005038D02*
X003799Y005038D01*
X003799Y005193D02*
X003299Y005193D01*
X003299Y005413D01*
X003799Y005413D01*
X003799Y005193D01*
X003799Y005273D02*
X003299Y005273D01*
X003299Y005353D02*
X003799Y005353D01*
X003799Y005507D02*
X003299Y005507D01*
X003299Y005727D01*
X003799Y005727D01*
X003799Y005507D01*
X003799Y005587D02*
X003299Y005587D01*
X003299Y005667D02*
X003799Y005667D01*
X003799Y005822D02*
X003299Y005822D01*
X003299Y006042D01*
X003799Y006042D01*
X003799Y005822D01*
X003799Y005902D02*
X003299Y005902D01*
X003299Y005982D02*
X003799Y005982D01*
X003799Y006137D02*
X003299Y006137D01*
X003299Y006357D01*
X003799Y006357D01*
X003799Y006137D01*
X003799Y006217D02*
X003299Y006217D01*
X003299Y006297D02*
X003799Y006297D01*
X003799Y006452D02*
X003299Y006452D01*
X003299Y006672D01*
X003799Y006672D01*
X003799Y006452D01*
X003799Y006532D02*
X003299Y006532D01*
X003299Y006612D02*
X003799Y006612D01*
D12*
X001735Y006342D03*
X001735Y005554D03*
X001735Y004767D03*
X001735Y003980D03*
X001735Y007129D03*
X001735Y007917D03*
X001735Y008704D03*
X001735Y009491D03*
X001735Y010279D03*
X001735Y011066D03*
X010396Y011066D03*
X010396Y010279D03*
X010396Y009491D03*
X010396Y008704D03*
X010396Y007917D03*
X010396Y007129D03*
X010396Y006342D03*
X010396Y005554D03*
X010396Y004767D03*
X010396Y003980D03*
D13*
X007181Y008960D02*
X007181Y009176D01*
X007653Y009176D01*
X007653Y008960D01*
X007181Y008960D01*
X007181Y009039D02*
X007653Y009039D01*
X007653Y009118D02*
X007181Y009118D01*
X007181Y009708D02*
X007181Y009924D01*
X007653Y009924D01*
X007653Y009708D01*
X007181Y009708D01*
X007181Y009787D02*
X007653Y009787D01*
X007653Y009866D02*
X007181Y009866D01*
X006157Y009924D02*
X006157Y009708D01*
X006157Y009924D02*
X006629Y009924D01*
X006629Y009708D01*
X006157Y009708D01*
X006157Y009787D02*
X006629Y009787D01*
X006629Y009866D02*
X006157Y009866D01*
X006157Y009550D02*
X006157Y009334D01*
X006157Y009550D02*
X006629Y009550D01*
X006629Y009334D01*
X006157Y009334D01*
X006157Y009413D02*
X006629Y009413D01*
X006629Y009492D02*
X006157Y009492D01*
X006157Y009176D02*
X006157Y008960D01*
X006157Y009176D02*
X006629Y009176D01*
X006629Y008960D01*
X006157Y008960D01*
X006157Y009039D02*
X006629Y009039D01*
X006629Y009118D02*
X006157Y009118D01*
D14*
X006124Y008166D02*
X006398Y008166D01*
X006124Y008166D02*
X006124Y008518D01*
X006398Y008518D01*
X006398Y008166D01*
X006398Y008247D02*
X006124Y008247D01*
X006124Y008328D02*
X006398Y008328D01*
X006398Y008409D02*
X006124Y008409D01*
X006124Y008490D02*
X006398Y008490D01*
X006398Y008018D02*
X006124Y008018D01*
X006398Y008018D02*
X006398Y007666D01*
X006124Y007666D01*
X006124Y008018D01*
X006124Y007747D02*
X006398Y007747D01*
X006398Y007828D02*
X006124Y007828D01*
X006124Y007909D02*
X006398Y007909D01*
X006398Y007990D02*
X006124Y007990D01*
X005886Y008018D02*
X005612Y008018D01*
X005886Y008018D02*
X005886Y007666D01*
X005612Y007666D01*
X005612Y008018D01*
X005612Y007747D02*
X005886Y007747D01*
X005886Y007828D02*
X005612Y007828D01*
X005612Y007909D02*
X005886Y007909D01*
X005886Y007990D02*
X005612Y007990D01*
X005612Y008166D02*
X005886Y008166D01*
X005612Y008166D02*
X005612Y008518D01*
X005886Y008518D01*
X005886Y008166D01*
X005886Y008247D02*
X005612Y008247D01*
X005612Y008328D02*
X005886Y008328D01*
X005886Y008409D02*
X005612Y008409D01*
X005612Y008490D02*
X005886Y008490D01*
X008231Y010699D02*
X008231Y010973D01*
X008231Y010699D02*
X007879Y010699D01*
X007879Y010973D01*
X008231Y010973D01*
X008231Y010780D02*
X007879Y010780D01*
X007879Y010861D02*
X008231Y010861D01*
X008231Y010942D02*
X007879Y010942D01*
X008231Y011211D02*
X008231Y011485D01*
X008231Y011211D02*
X007879Y011211D01*
X007879Y011485D01*
X008231Y011485D01*
X008231Y011292D02*
X007879Y011292D01*
X007879Y011373D02*
X008231Y011373D01*
X008231Y011454D02*
X007879Y011454D01*
X008881Y011485D02*
X008881Y011211D01*
X008529Y011211D01*
X008529Y011485D01*
X008881Y011485D01*
X008881Y011292D02*
X008529Y011292D01*
X008529Y011373D02*
X008881Y011373D01*
X008881Y011454D02*
X008529Y011454D01*
X008881Y010973D02*
X008881Y010699D01*
X008529Y010699D01*
X008529Y010973D01*
X008881Y010973D01*
X008881Y010780D02*
X008529Y010780D01*
X008529Y010861D02*
X008881Y010861D01*
X008881Y010942D02*
X008529Y010942D01*
X009681Y008935D02*
X009681Y008661D01*
X009329Y008661D01*
X009329Y008935D01*
X009681Y008935D01*
X009681Y008742D02*
X009329Y008742D01*
X009329Y008823D02*
X009681Y008823D01*
X009681Y008904D02*
X009329Y008904D01*
X009681Y008423D02*
X009681Y008149D01*
X009329Y008149D01*
X009329Y008423D01*
X009681Y008423D01*
X009681Y008230D02*
X009329Y008230D01*
X009329Y008311D02*
X009681Y008311D01*
X009681Y008392D02*
X009329Y008392D01*
X007661Y005656D02*
X007661Y005382D01*
X007661Y005656D02*
X008013Y005656D01*
X008013Y005382D01*
X007661Y005382D01*
X007661Y005463D02*
X008013Y005463D01*
X008013Y005544D02*
X007661Y005544D01*
X007661Y005625D02*
X008013Y005625D01*
X007661Y005144D02*
X007661Y004870D01*
X007661Y005144D02*
X008013Y005144D01*
X008013Y004870D01*
X007661Y004870D01*
X007661Y004951D02*
X008013Y004951D01*
X008013Y005032D02*
X007661Y005032D01*
X007661Y005113D02*
X008013Y005113D01*
X008396Y005375D02*
X008670Y005375D01*
X008670Y005023D01*
X008396Y005023D01*
X008396Y005375D01*
X008396Y005104D02*
X008670Y005104D01*
X008670Y005185D02*
X008396Y005185D01*
X008396Y005266D02*
X008670Y005266D01*
X008670Y005347D02*
X008396Y005347D01*
X008908Y005375D02*
X009182Y005375D01*
X009182Y005023D01*
X008908Y005023D01*
X008908Y005375D01*
X008908Y005104D02*
X009182Y005104D01*
X009182Y005185D02*
X008908Y005185D01*
X008908Y005266D02*
X009182Y005266D01*
X009182Y005347D02*
X008908Y005347D01*
X009020Y003704D02*
X008746Y003704D01*
X008746Y004056D01*
X009020Y004056D01*
X009020Y003704D01*
X009020Y003785D02*
X008746Y003785D01*
X008746Y003866D02*
X009020Y003866D01*
X009020Y003947D02*
X008746Y003947D01*
X008746Y004028D02*
X009020Y004028D01*
X009258Y003704D02*
X009532Y003704D01*
X009258Y003704D02*
X009258Y004056D01*
X009532Y004056D01*
X009532Y003704D01*
X009532Y003785D02*
X009258Y003785D01*
X009258Y003866D02*
X009532Y003866D01*
X009532Y003947D02*
X009258Y003947D01*
X009258Y004028D02*
X009532Y004028D01*
X003198Y003218D02*
X002924Y003218D01*
X003198Y003218D02*
X003198Y002866D01*
X002924Y002866D01*
X002924Y003218D01*
X002924Y002947D02*
X003198Y002947D01*
X003198Y003028D02*
X002924Y003028D01*
X002924Y003109D02*
X003198Y003109D01*
X003198Y003190D02*
X002924Y003190D01*
X002686Y003218D02*
X002412Y003218D01*
X002686Y003218D02*
X002686Y002866D01*
X002412Y002866D01*
X002412Y003218D01*
X002412Y002947D02*
X002686Y002947D01*
X002686Y003028D02*
X002412Y003028D01*
X002412Y003109D02*
X002686Y003109D01*
X002686Y003190D02*
X002412Y003190D01*
X002425Y003566D02*
X002425Y003840D01*
X003091Y003840D01*
X003091Y003566D01*
X002425Y003566D01*
X002425Y003647D02*
X003091Y003647D01*
X003091Y003728D02*
X002425Y003728D01*
X002425Y003809D02*
X003091Y003809D01*
X002425Y004039D02*
X002425Y004313D01*
X003091Y004313D01*
X003091Y004039D01*
X002425Y004039D01*
X002425Y004120D02*
X003091Y004120D01*
X003091Y004201D02*
X002425Y004201D01*
X002425Y004282D02*
X003091Y004282D01*
X002425Y004511D02*
X002425Y004785D01*
X003091Y004785D01*
X003091Y004511D01*
X002425Y004511D01*
X002425Y004592D02*
X003091Y004592D01*
X003091Y004673D02*
X002425Y004673D01*
X002425Y004754D02*
X003091Y004754D01*
X002916Y005448D02*
X002916Y005722D01*
X002916Y005448D02*
X002564Y005448D01*
X002564Y005722D01*
X002916Y005722D01*
X002916Y005529D02*
X002564Y005529D01*
X002564Y005610D02*
X002916Y005610D01*
X002916Y005691D02*
X002564Y005691D01*
X002916Y005960D02*
X002916Y006234D01*
X002916Y005960D02*
X002564Y005960D01*
X002564Y006234D01*
X002916Y006234D01*
X002916Y006041D02*
X002564Y006041D01*
X002564Y006122D02*
X002916Y006122D01*
X002916Y006203D02*
X002564Y006203D01*
D15*
X003614Y009780D02*
X004008Y009780D01*
X003614Y009780D02*
X003614Y011590D01*
X004008Y011590D01*
X004008Y009780D01*
X004008Y009860D02*
X003614Y009860D01*
X003614Y009940D02*
X004008Y009940D01*
X004008Y010020D02*
X003614Y010020D01*
X003614Y010100D02*
X004008Y010100D01*
X004008Y010180D02*
X003614Y010180D01*
X003614Y010260D02*
X004008Y010260D01*
X004008Y010340D02*
X003614Y010340D01*
X003614Y010420D02*
X004008Y010420D01*
X004008Y010500D02*
X003614Y010500D01*
X003614Y010580D02*
X004008Y010580D01*
X004008Y010660D02*
X003614Y010660D01*
X003614Y010740D02*
X004008Y010740D01*
X004008Y010820D02*
X003614Y010820D01*
X003614Y010900D02*
X004008Y010900D01*
X004008Y010980D02*
X003614Y010980D01*
X003614Y011060D02*
X004008Y011060D01*
X004008Y011140D02*
X003614Y011140D01*
X003614Y011220D02*
X004008Y011220D01*
X004008Y011300D02*
X003614Y011300D01*
X003614Y011380D02*
X004008Y011380D01*
X004008Y011460D02*
X003614Y011460D01*
X003614Y011540D02*
X004008Y011540D01*
X004401Y009780D02*
X004795Y009780D01*
X004401Y009780D02*
X004401Y011590D01*
X004795Y011590D01*
X004795Y009780D01*
X004795Y009860D02*
X004401Y009860D01*
X004401Y009940D02*
X004795Y009940D01*
X004795Y010020D02*
X004401Y010020D01*
X004401Y010100D02*
X004795Y010100D01*
X004795Y010180D02*
X004401Y010180D01*
X004401Y010260D02*
X004795Y010260D01*
X004795Y010340D02*
X004401Y010340D01*
X004401Y010420D02*
X004795Y010420D01*
X004795Y010500D02*
X004401Y010500D01*
X004401Y010580D02*
X004795Y010580D01*
X004795Y010660D02*
X004401Y010660D01*
X004401Y010740D02*
X004795Y010740D01*
X004795Y010820D02*
X004401Y010820D01*
X004401Y010900D02*
X004795Y010900D01*
X004795Y010980D02*
X004401Y010980D01*
X004401Y011060D02*
X004795Y011060D01*
X004795Y011140D02*
X004401Y011140D01*
X004401Y011220D02*
X004795Y011220D01*
X004795Y011300D02*
X004401Y011300D01*
X004401Y011380D02*
X004795Y011380D01*
X004795Y011460D02*
X004401Y011460D01*
X004401Y011540D02*
X004795Y011540D01*
X006057Y011096D02*
X006451Y011096D01*
X006451Y010388D01*
X006057Y010388D01*
X006057Y011096D01*
X006057Y010468D02*
X006451Y010468D01*
X006451Y010548D02*
X006057Y010548D01*
X006057Y010628D02*
X006451Y010628D01*
X006451Y010708D02*
X006057Y010708D01*
X006057Y010788D02*
X006451Y010788D01*
X006451Y010868D02*
X006057Y010868D01*
X006057Y010948D02*
X006451Y010948D01*
X006451Y011028D02*
X006057Y011028D01*
X007159Y011096D02*
X007553Y011096D01*
X007553Y010388D01*
X007159Y010388D01*
X007159Y011096D01*
X007159Y010468D02*
X007553Y010468D01*
X007553Y010548D02*
X007159Y010548D01*
X007159Y010628D02*
X007553Y010628D01*
X007553Y010708D02*
X007159Y010708D01*
X007159Y010788D02*
X007553Y010788D01*
X007553Y010868D02*
X007159Y010868D01*
X007159Y010948D02*
X007553Y010948D01*
X007553Y011028D02*
X007159Y011028D01*
D16*
X005856Y012065D02*
X005856Y013399D01*
X005856Y012065D02*
X005230Y012065D01*
X005230Y013399D01*
X005856Y013399D01*
X005856Y012149D02*
X005230Y012149D01*
X005230Y012233D02*
X005856Y012233D01*
X005856Y012317D02*
X005230Y012317D01*
X005230Y012401D02*
X005856Y012401D01*
X005856Y012485D02*
X005230Y012485D01*
X005230Y012569D02*
X005856Y012569D01*
X005856Y012653D02*
X005230Y012653D01*
X005230Y012737D02*
X005856Y012737D01*
X005856Y012821D02*
X005230Y012821D01*
X005230Y012905D02*
X005856Y012905D01*
X005856Y012989D02*
X005230Y012989D01*
X005230Y013073D02*
X005856Y013073D01*
X005856Y013157D02*
X005230Y013157D01*
X005230Y013241D02*
X005856Y013241D01*
X005856Y013325D02*
X005230Y013325D01*
X003179Y013399D02*
X003179Y012065D01*
X002553Y012065D01*
X002553Y013399D01*
X003179Y013399D01*
X003179Y012149D02*
X002553Y012149D01*
X002553Y012233D02*
X003179Y012233D01*
X003179Y012317D02*
X002553Y012317D01*
X002553Y012401D02*
X003179Y012401D01*
X003179Y012485D02*
X002553Y012485D01*
X002553Y012569D02*
X003179Y012569D01*
X003179Y012653D02*
X002553Y012653D01*
X002553Y012737D02*
X003179Y012737D01*
X003179Y012821D02*
X002553Y012821D01*
X002553Y012905D02*
X003179Y012905D01*
X003179Y012989D02*
X002553Y012989D01*
X002553Y013073D02*
X003179Y013073D01*
X003179Y013157D02*
X002553Y013157D01*
X002553Y013241D02*
X003179Y013241D01*
X003179Y013325D02*
X002553Y013325D01*
D17*
X009953Y013398D02*
X009953Y013086D01*
X009953Y013398D02*
X010265Y013398D01*
X010265Y013086D01*
X009953Y013086D01*
X009953Y013168D02*
X010265Y013168D01*
X010265Y013250D02*
X009953Y013250D01*
X009953Y013332D02*
X010265Y013332D01*
X010544Y013398D02*
X010544Y013086D01*
X010544Y013398D02*
X010856Y013398D01*
X010856Y013086D01*
X010544Y013086D01*
X010544Y013168D02*
X010856Y013168D01*
X010856Y013250D02*
X010544Y013250D01*
X010544Y013332D02*
X010856Y013332D01*
X010544Y012848D02*
X010544Y012536D01*
X010544Y012848D02*
X010856Y012848D01*
X010856Y012536D01*
X010544Y012536D01*
X010544Y012618D02*
X010856Y012618D01*
X010856Y012700D02*
X010544Y012700D01*
X010544Y012782D02*
X010856Y012782D01*
X010544Y012288D02*
X010544Y011976D01*
X010544Y012288D02*
X010856Y012288D01*
X010856Y011976D01*
X010544Y011976D01*
X010544Y012058D02*
X010856Y012058D01*
X010856Y012140D02*
X010544Y012140D01*
X010544Y012222D02*
X010856Y012222D01*
X009953Y012288D02*
X009953Y011976D01*
X009953Y012288D02*
X010265Y012288D01*
X010265Y011976D01*
X009953Y011976D01*
X009953Y012058D02*
X010265Y012058D01*
X010265Y012140D02*
X009953Y012140D01*
X009953Y012222D02*
X010265Y012222D01*
X009953Y012536D02*
X009953Y012848D01*
X010265Y012848D01*
X010265Y012536D01*
X009953Y012536D01*
X009953Y012618D02*
X010265Y012618D01*
X010265Y012700D02*
X009953Y012700D01*
X009953Y012782D02*
X010265Y012782D01*
X001361Y003381D02*
X001049Y003381D01*
X001049Y003693D01*
X001361Y003693D01*
X001361Y003381D01*
X001361Y003463D02*
X001049Y003463D01*
X001049Y003545D02*
X001361Y003545D01*
X001361Y003627D02*
X001049Y003627D01*
X001049Y002791D02*
X001361Y002791D01*
X001049Y002791D02*
X001049Y003103D01*
X001361Y003103D01*
X001361Y002791D01*
X001361Y002873D02*
X001049Y002873D01*
X001049Y002955D02*
X001361Y002955D01*
X001361Y003037D02*
X001049Y003037D01*
D18*
X005211Y008813D02*
X005211Y009323D01*
X005799Y009323D01*
X005799Y008813D01*
X005211Y008813D01*
X005211Y008895D02*
X005799Y008895D01*
X005799Y008977D02*
X005211Y008977D01*
X005211Y009059D02*
X005799Y009059D01*
X005799Y009141D02*
X005211Y009141D01*
X005211Y009223D02*
X005799Y009223D01*
X005799Y009305D02*
X005211Y009305D01*
X005211Y009561D02*
X005211Y010071D01*
X005799Y010071D01*
X005799Y009561D01*
X005211Y009561D01*
X005211Y009643D02*
X005799Y009643D01*
X005799Y009725D02*
X005211Y009725D01*
X005211Y009807D02*
X005799Y009807D01*
X005799Y009889D02*
X005211Y009889D01*
X005211Y009971D02*
X005799Y009971D01*
X005799Y010053D02*
X005211Y010053D01*
X007911Y010071D02*
X007911Y009561D01*
X007911Y010071D02*
X008499Y010071D01*
X008499Y009561D01*
X007911Y009561D01*
X007911Y009643D02*
X008499Y009643D01*
X008499Y009725D02*
X007911Y009725D01*
X007911Y009807D02*
X008499Y009807D01*
X008499Y009889D02*
X007911Y009889D01*
X007911Y009971D02*
X008499Y009971D01*
X008499Y010053D02*
X007911Y010053D01*
X007911Y009323D02*
X007911Y008813D01*
X007911Y009323D02*
X008499Y009323D01*
X008499Y008813D01*
X007911Y008813D01*
X007911Y008895D02*
X008499Y008895D01*
X008499Y008977D02*
X007911Y008977D01*
X007911Y009059D02*
X008499Y009059D01*
X008499Y009141D02*
X007911Y009141D01*
X007911Y009223D02*
X008499Y009223D01*
X008499Y009305D02*
X007911Y009305D01*
D19*
X008792Y007671D02*
X008792Y007475D01*
X008320Y007475D01*
X008320Y007671D01*
X008792Y007671D01*
X008792Y007554D02*
X008320Y007554D01*
X008320Y007633D02*
X008792Y007633D01*
X008891Y007849D02*
X009087Y007849D01*
X009087Y007377D01*
X008891Y007377D01*
X008891Y007849D01*
X008891Y007456D02*
X009087Y007456D01*
X009087Y007535D02*
X008891Y007535D01*
X008891Y007614D02*
X009087Y007614D01*
X009087Y007693D02*
X008891Y007693D01*
X008891Y007772D02*
X009087Y007772D01*
X009658Y007671D02*
X009658Y007475D01*
X009186Y007475D01*
X009186Y007671D01*
X009658Y007671D01*
X009658Y007554D02*
X009186Y007554D01*
X009186Y007633D02*
X009658Y007633D01*
X009658Y007356D02*
X009658Y007160D01*
X009186Y007160D01*
X009186Y007356D01*
X009658Y007356D01*
X009658Y007239D02*
X009186Y007239D01*
X009186Y007318D02*
X009658Y007318D01*
X009658Y007041D02*
X009658Y006845D01*
X009186Y006845D01*
X009186Y007041D01*
X009658Y007041D01*
X009658Y006924D02*
X009186Y006924D01*
X009186Y007003D02*
X009658Y007003D01*
X009658Y006727D02*
X009658Y006531D01*
X009186Y006531D01*
X009186Y006727D01*
X009658Y006727D01*
X009658Y006610D02*
X009186Y006610D01*
X009186Y006689D02*
X009658Y006689D01*
X009658Y006412D02*
X009658Y006216D01*
X009186Y006216D01*
X009186Y006412D01*
X009658Y006412D01*
X009658Y006295D02*
X009186Y006295D01*
X009186Y006374D02*
X009658Y006374D01*
X009186Y006097D02*
X009186Y005901D01*
X009186Y006097D02*
X009658Y006097D01*
X009658Y005901D01*
X009186Y005901D01*
X009186Y005980D02*
X009658Y005980D01*
X009658Y006059D02*
X009186Y006059D01*
X009087Y005723D02*
X008891Y005723D01*
X008891Y006195D01*
X009087Y006195D01*
X009087Y005723D01*
X009087Y005802D02*
X008891Y005802D01*
X008891Y005881D02*
X009087Y005881D01*
X009087Y005960D02*
X008891Y005960D01*
X008891Y006039D02*
X009087Y006039D01*
X009087Y006118D02*
X008891Y006118D01*
X008320Y006097D02*
X008320Y005901D01*
X008320Y006097D02*
X008792Y006097D01*
X008792Y005901D01*
X008320Y005901D01*
X008320Y005980D02*
X008792Y005980D01*
X008792Y006059D02*
X008320Y006059D01*
X008320Y006216D02*
X008320Y006412D01*
X008792Y006412D01*
X008792Y006216D01*
X008320Y006216D01*
X008320Y006295D02*
X008792Y006295D01*
X008792Y006374D02*
X008320Y006374D01*
X008320Y006531D02*
X008320Y006727D01*
X008792Y006727D01*
X008792Y006531D01*
X008320Y006531D01*
X008320Y006610D02*
X008792Y006610D01*
X008792Y006689D02*
X008320Y006689D01*
X008320Y006845D02*
X008320Y007041D01*
X008792Y007041D01*
X008792Y006845D01*
X008320Y006845D01*
X008320Y006924D02*
X008792Y006924D01*
X008792Y007003D02*
X008320Y007003D01*
X008792Y007160D02*
X008792Y007356D01*
X008792Y007160D02*
X008320Y007160D01*
X008320Y007356D01*
X008792Y007356D01*
X008792Y007239D02*
X008320Y007239D01*
X008320Y007318D02*
X008792Y007318D01*
D20*
X008121Y003393D03*
X009541Y011449D03*
D21*
X008993Y012218D02*
X008993Y012538D01*
X009383Y012538D01*
X009383Y012218D01*
X008993Y012218D01*
X008993Y012297D02*
X009383Y012297D01*
X009383Y012376D02*
X008993Y012376D01*
X008993Y012455D02*
X009383Y012455D01*
X009383Y012534D02*
X008993Y012534D01*
X008993Y013088D02*
X008993Y013408D01*
X009383Y013408D01*
X009383Y013088D01*
X008993Y013088D01*
X008993Y013167D02*
X009383Y013167D01*
X009383Y013246D02*
X008993Y013246D01*
X008993Y013325D02*
X009383Y013325D01*
X009383Y013404D02*
X008993Y013404D01*
X006123Y013408D02*
X006123Y013088D01*
X006123Y013408D02*
X006513Y013408D01*
X006513Y013088D01*
X006123Y013088D01*
X006123Y013167D02*
X006513Y013167D01*
X006513Y013246D02*
X006123Y013246D01*
X006123Y013325D02*
X006513Y013325D01*
X006513Y013404D02*
X006123Y013404D01*
X006123Y012538D02*
X006123Y012218D01*
X006123Y012538D02*
X006513Y012538D01*
X006513Y012218D01*
X006123Y012218D01*
X006123Y012297D02*
X006513Y012297D01*
X006513Y012376D02*
X006123Y012376D01*
X006123Y012455D02*
X006513Y012455D01*
X006513Y012534D02*
X006123Y012534D01*
D22*
X006724Y012422D02*
X007002Y012422D01*
X007002Y011834D01*
X006724Y011834D01*
X006724Y012422D01*
X006724Y011916D02*
X007002Y011916D01*
X007002Y011998D02*
X006724Y011998D01*
X006724Y012080D02*
X007002Y012080D01*
X007002Y012162D02*
X006724Y012162D01*
X006724Y012244D02*
X007002Y012244D01*
X007002Y012326D02*
X006724Y012326D01*
X006724Y012408D02*
X007002Y012408D01*
X007314Y012422D02*
X007592Y012422D01*
X007592Y011834D01*
X007314Y011834D01*
X007314Y012422D01*
X007314Y011916D02*
X007592Y011916D01*
X007592Y011998D02*
X007314Y011998D01*
X007314Y012080D02*
X007592Y012080D01*
X007592Y012162D02*
X007314Y012162D01*
X007314Y012244D02*
X007592Y012244D01*
X007592Y012326D02*
X007314Y012326D01*
X007314Y012408D02*
X007592Y012408D01*
X008494Y012422D02*
X008772Y012422D01*
X008772Y011834D01*
X008494Y011834D01*
X008494Y012422D01*
X008494Y011916D02*
X008772Y011916D01*
X008772Y011998D02*
X008494Y011998D01*
X008494Y012080D02*
X008772Y012080D01*
X008772Y012162D02*
X008494Y012162D01*
X008494Y012244D02*
X008772Y012244D01*
X008772Y012326D02*
X008494Y012326D01*
X008494Y012408D02*
X008772Y012408D01*
D23*
X008343Y012813D03*
X007163Y012813D03*
D24*
X001105Y001042D03*
X001105Y002042D03*
X002105Y002042D03*
X002105Y001042D03*
X003105Y001042D03*
X003105Y002042D03*
X004105Y002042D03*
X004105Y001042D03*
X005105Y001042D03*
X005105Y002042D03*
X006105Y002042D03*
X006105Y001042D03*
X007105Y001042D03*
X007105Y002042D03*
X007105Y003042D03*
X008105Y004042D03*
X008105Y002042D03*
X008105Y001042D03*
X009105Y001042D03*
X009105Y002042D03*
X010105Y002042D03*
X010105Y003042D03*
X010105Y001042D03*
X005105Y008042D03*
X004105Y008042D03*
X004105Y009042D03*
X003105Y009042D03*
X003105Y008042D03*
M02*
