G75*
G70*
%OFA0B0*%
%FSLAX24Y24*%
%IPPOS*%
%LPD*%
%AMOC8*
5,1,8,0,0,1.08239X$1,22.5*
%
%ADD10C,0.0000*%
D10*
X000605Y000242D02*
X000605Y013628D01*
X011038Y013628D01*
X011038Y000242D01*
X000605Y000242D01*
X007941Y003393D02*
X007943Y003419D01*
X007949Y003445D01*
X007958Y003469D01*
X007971Y003492D01*
X007987Y003513D01*
X008006Y003531D01*
X008027Y003547D01*
X008051Y003559D01*
X008075Y003567D01*
X008101Y003572D01*
X008128Y003573D01*
X008154Y003570D01*
X008179Y003563D01*
X008203Y003553D01*
X008226Y003539D01*
X008246Y003523D01*
X008263Y003503D01*
X008278Y003481D01*
X008289Y003457D01*
X008297Y003432D01*
X008301Y003406D01*
X008301Y003380D01*
X008297Y003354D01*
X008289Y003329D01*
X008278Y003305D01*
X008263Y003283D01*
X008246Y003263D01*
X008226Y003247D01*
X008203Y003233D01*
X008179Y003223D01*
X008154Y003216D01*
X008128Y003213D01*
X008101Y003214D01*
X008075Y003219D01*
X008051Y003227D01*
X008027Y003239D01*
X008006Y003255D01*
X007987Y003273D01*
X007971Y003294D01*
X007958Y003317D01*
X007949Y003341D01*
X007943Y003367D01*
X007941Y003393D01*
X009361Y011449D02*
X009363Y011475D01*
X009369Y011501D01*
X009378Y011525D01*
X009391Y011548D01*
X009407Y011569D01*
X009426Y011587D01*
X009447Y011603D01*
X009471Y011615D01*
X009495Y011623D01*
X009521Y011628D01*
X009548Y011629D01*
X009574Y011626D01*
X009599Y011619D01*
X009623Y011609D01*
X009646Y011595D01*
X009666Y011579D01*
X009683Y011559D01*
X009698Y011537D01*
X009709Y011513D01*
X009717Y011488D01*
X009721Y011462D01*
X009721Y011436D01*
X009717Y011410D01*
X009709Y011385D01*
X009698Y011361D01*
X009683Y011339D01*
X009666Y011319D01*
X009646Y011303D01*
X009623Y011289D01*
X009599Y011279D01*
X009574Y011272D01*
X009548Y011269D01*
X009521Y011270D01*
X009495Y011275D01*
X009471Y011283D01*
X009447Y011295D01*
X009426Y011311D01*
X009407Y011329D01*
X009391Y011350D01*
X009378Y011373D01*
X009369Y011397D01*
X009363Y011423D01*
X009361Y011449D01*
X008168Y012813D02*
X008170Y012839D01*
X008176Y012865D01*
X008185Y012889D01*
X008198Y012912D01*
X008215Y012932D01*
X008234Y012950D01*
X008256Y012965D01*
X008279Y012976D01*
X008304Y012984D01*
X008330Y012988D01*
X008356Y012988D01*
X008382Y012984D01*
X008407Y012976D01*
X008431Y012965D01*
X008452Y012950D01*
X008471Y012932D01*
X008488Y012912D01*
X008501Y012889D01*
X008510Y012865D01*
X008516Y012839D01*
X008518Y012813D01*
X008516Y012787D01*
X008510Y012761D01*
X008501Y012737D01*
X008488Y012714D01*
X008471Y012694D01*
X008452Y012676D01*
X008430Y012661D01*
X008407Y012650D01*
X008382Y012642D01*
X008356Y012638D01*
X008330Y012638D01*
X008304Y012642D01*
X008279Y012650D01*
X008255Y012661D01*
X008234Y012676D01*
X008215Y012694D01*
X008198Y012714D01*
X008185Y012737D01*
X008176Y012761D01*
X008170Y012787D01*
X008168Y012813D01*
X006988Y012813D02*
X006990Y012839D01*
X006996Y012865D01*
X007005Y012889D01*
X007018Y012912D01*
X007035Y012932D01*
X007054Y012950D01*
X007076Y012965D01*
X007099Y012976D01*
X007124Y012984D01*
X007150Y012988D01*
X007176Y012988D01*
X007202Y012984D01*
X007227Y012976D01*
X007251Y012965D01*
X007272Y012950D01*
X007291Y012932D01*
X007308Y012912D01*
X007321Y012889D01*
X007330Y012865D01*
X007336Y012839D01*
X007338Y012813D01*
X007336Y012787D01*
X007330Y012761D01*
X007321Y012737D01*
X007308Y012714D01*
X007291Y012694D01*
X007272Y012676D01*
X007250Y012661D01*
X007227Y012650D01*
X007202Y012642D01*
X007176Y012638D01*
X007150Y012638D01*
X007124Y012642D01*
X007099Y012650D01*
X007075Y012661D01*
X007054Y012676D01*
X007035Y012694D01*
X007018Y012714D01*
X007005Y012737D01*
X006996Y012761D01*
X006990Y012787D01*
X006988Y012813D01*
X000996Y012525D02*
X000998Y012578D01*
X001004Y012631D01*
X001014Y012683D01*
X001027Y012734D01*
X001045Y012784D01*
X001066Y012833D01*
X001091Y012880D01*
X001119Y012924D01*
X001151Y012967D01*
X001185Y013007D01*
X001223Y013045D01*
X001263Y013079D01*
X001306Y013111D01*
X001351Y013139D01*
X001397Y013164D01*
X001446Y013185D01*
X001496Y013203D01*
X001547Y013216D01*
X001599Y013226D01*
X001652Y013232D01*
X001705Y013234D01*
X001758Y013232D01*
X001811Y013226D01*
X001863Y013216D01*
X001914Y013203D01*
X001964Y013185D01*
X002013Y013164D01*
X002060Y013139D01*
X002104Y013111D01*
X002147Y013079D01*
X002187Y013045D01*
X002225Y013007D01*
X002259Y012967D01*
X002291Y012924D01*
X002319Y012880D01*
X002344Y012833D01*
X002365Y012784D01*
X002383Y012734D01*
X002396Y012683D01*
X002406Y012631D01*
X002412Y012578D01*
X002414Y012525D01*
X002412Y012472D01*
X002406Y012419D01*
X002396Y012367D01*
X002383Y012316D01*
X002365Y012266D01*
X002344Y012217D01*
X002319Y012170D01*
X002291Y012126D01*
X002259Y012083D01*
X002225Y012043D01*
X002187Y012005D01*
X002147Y011971D01*
X002104Y011939D01*
X002059Y011911D01*
X002013Y011886D01*
X001964Y011865D01*
X001914Y011847D01*
X001863Y011834D01*
X001811Y011824D01*
X001758Y011818D01*
X001705Y011816D01*
X001652Y011818D01*
X001599Y011824D01*
X001547Y011834D01*
X001496Y011847D01*
X001446Y011865D01*
X001397Y011886D01*
X001350Y011911D01*
X001306Y011939D01*
X001263Y011971D01*
X001223Y012005D01*
X001185Y012043D01*
X001151Y012083D01*
X001119Y012126D01*
X001091Y012171D01*
X001066Y012217D01*
X001045Y012266D01*
X001027Y012316D01*
X001014Y012367D01*
X001004Y012419D01*
X000998Y012472D01*
X000996Y012525D01*
M02*
