%
M48
M72
T01C0.0236
T02C0.0315
T03C0.0350
T04C0.0360
T05C0.0400
T06C0.1417
%
T01
X904Y3492
X2704Y5192
X2604Y6542
X4704Y4992
X5454Y5642
X5804Y6042
X5854Y5292
X5154Y6492
X6654Y8242
X6854Y7042
X7604Y5992
X7954Y7242
X7954Y7842
X9604Y5392
X9704Y4842
X8954Y4392
X9504Y3392
X9054Y3042
X7204Y3942
X3604Y3292
X7954Y10392
X7354Y11542
X5204Y10842
X2754Y11442
T02
X1684Y11066
X1684Y10279
X1684Y9491
X1684Y8704
X1684Y7917
X1684Y7129
X1684Y6342
X1684Y5554
X1684Y4767
X1684Y3980
X10346Y3980
X10346Y4767
X10346Y5554
X10346Y6342
X10346Y7129
X10346Y7917
X10346Y8704
X10346Y9491
X10346Y10279
X10346Y11066
T03
X8292Y12813
X7112Y12813
T04
X9491Y11449
X8070Y3393
T05
X1054Y1042
X1054Y2042
X2054Y2042
X2054Y1042
X3054Y1042
X3054Y2042
X4054Y2042
X4054Y1042
X5054Y1042
X5054Y2042
X6054Y2042
X6054Y1042
X7054Y1042
X7054Y2042
X7054Y3042
X8054Y4042
X8054Y2042
X8054Y1042
X9054Y1042
X9054Y2042
X10054Y2042
X10054Y3042
X10054Y1042
X5054Y8042
X4054Y8042
X4054Y9042
X3054Y9042
X3054Y8042
T06
X1654Y12525
M30
