G75*
G70*
%OFA0B0*%
%FSLAX24Y24*%
%IPPOS*%
%LPD*%
%AMOC8*
5,1,8,0,0,1.08239X$1,22.5*
%
%ADD10C,0.1497*%
%ADD11C,0.0635*%
%ADD12C,0.0086*%
%ADD13C,0.0440*%
%ADD14C,0.0430*%
%ADD15OC8,0.0720*%
D10*
X001654Y012525D03*
D11*
X001684Y011066D03*
X001684Y010279D03*
X001684Y009491D03*
X001684Y008704D03*
X001684Y007917D03*
X001684Y007129D03*
X001684Y006342D03*
X001684Y005554D03*
X001684Y004767D03*
X001684Y003980D03*
X010346Y003980D03*
X010346Y004767D03*
X010346Y005554D03*
X010346Y006342D03*
X010346Y007129D03*
X010346Y007917D03*
X010346Y008704D03*
X010346Y009491D03*
X010346Y010279D03*
X010346Y011066D03*
D12*
X007265Y011228D02*
X007093Y010250D01*
X005623Y010510D01*
X005795Y011488D01*
X007265Y011228D01*
X007108Y010335D02*
X006612Y010335D01*
X006132Y010420D02*
X007123Y010420D01*
X007138Y010505D02*
X005651Y010505D01*
X005637Y010590D02*
X007153Y010590D01*
X007168Y010675D02*
X005652Y010675D01*
X005667Y010760D02*
X007183Y010760D01*
X007198Y010845D02*
X005682Y010845D01*
X005697Y010930D02*
X007213Y010930D01*
X007228Y011015D02*
X005712Y011015D01*
X005727Y011100D02*
X007242Y011100D01*
X007257Y011185D02*
X005742Y011185D01*
X005757Y011270D02*
X007028Y011270D01*
X006547Y011355D02*
X005772Y011355D01*
X005787Y011440D02*
X006066Y011440D01*
X005973Y003901D02*
X005801Y002923D01*
X004331Y003183D01*
X004503Y004161D01*
X005973Y003901D01*
X005816Y003008D02*
X005320Y003008D01*
X004840Y003093D02*
X005831Y003093D01*
X005846Y003178D02*
X004359Y003178D01*
X004345Y003263D02*
X005861Y003263D01*
X005876Y003348D02*
X004360Y003348D01*
X004375Y003433D02*
X005891Y003433D01*
X005906Y003518D02*
X004390Y003518D01*
X004405Y003603D02*
X005921Y003603D01*
X005936Y003688D02*
X004420Y003688D01*
X004435Y003773D02*
X005950Y003773D01*
X005965Y003858D02*
X004450Y003858D01*
X004465Y003943D02*
X005736Y003943D01*
X005255Y004028D02*
X004480Y004028D01*
X004495Y004113D02*
X004774Y004113D01*
D13*
X008070Y003393D03*
X009491Y011449D03*
D14*
X008292Y012813D03*
X007112Y012813D03*
D15*
X001054Y001042D03*
X001054Y002042D03*
X002054Y002042D03*
X002054Y001042D03*
X003054Y001042D03*
X003054Y002042D03*
X004054Y002042D03*
X004054Y001042D03*
X005054Y001042D03*
X005054Y002042D03*
X006054Y002042D03*
X006054Y001042D03*
X007054Y001042D03*
X007054Y002042D03*
X007054Y003042D03*
X008054Y004042D03*
X008054Y002042D03*
X008054Y001042D03*
X009054Y001042D03*
X009054Y002042D03*
X010054Y002042D03*
X010054Y003042D03*
X010054Y001042D03*
X005054Y008042D03*
X004054Y008042D03*
X004054Y009042D03*
X003054Y009042D03*
X003054Y008042D03*
M02*
