G75*
G70*
%OFA0B0*%
%FSLAX24Y24*%
%IPPOS*%
%LPD*%
%AMOC8*
5,1,8,0,0,1.08239X$1,22.5*
%
%ADD10C,0.1497*%
%ADD11C,0.0635*%
%ADD12C,0.0086*%
%ADD13C,0.0440*%
%ADD14C,0.0430*%
%ADD15OC8,0.0720*%
D10*
X001241Y012425D03*
D11*
X001271Y010966D03*
X001271Y010178D03*
X001271Y009391D03*
X001271Y008603D03*
X001271Y007816D03*
X001271Y007029D03*
X001271Y006241D03*
X001271Y005454D03*
X001271Y004666D03*
X001271Y003879D03*
X009932Y003879D03*
X009932Y004666D03*
X009932Y005454D03*
X009932Y006241D03*
X009932Y007029D03*
X009932Y007816D03*
X009932Y008603D03*
X009932Y009391D03*
X009932Y010178D03*
X009932Y010966D03*
D12*
X006851Y011127D02*
X006679Y010149D01*
X005209Y010409D01*
X005381Y011387D01*
X006851Y011127D01*
X006694Y010234D02*
X006198Y010234D01*
X005718Y010319D02*
X006709Y010319D01*
X006724Y010404D02*
X005237Y010404D01*
X005223Y010489D02*
X006739Y010489D01*
X006754Y010574D02*
X005238Y010574D01*
X005253Y010659D02*
X006769Y010659D01*
X006784Y010744D02*
X005268Y010744D01*
X005283Y010829D02*
X006799Y010829D01*
X006814Y010914D02*
X005298Y010914D01*
X005313Y010999D02*
X006828Y010999D01*
X006843Y011084D02*
X005328Y011084D01*
X005343Y011169D02*
X006614Y011169D01*
X006133Y011254D02*
X005358Y011254D01*
X005373Y011339D02*
X005652Y011339D01*
X005559Y003800D02*
X005387Y002822D01*
X003917Y003082D01*
X004089Y004060D01*
X005559Y003800D01*
X005402Y002907D02*
X004906Y002907D01*
X004426Y002992D02*
X005417Y002992D01*
X005432Y003077D02*
X003945Y003077D01*
X003931Y003162D02*
X005447Y003162D01*
X005462Y003247D02*
X003946Y003247D01*
X003961Y003332D02*
X005477Y003332D01*
X005492Y003417D02*
X003976Y003417D01*
X003991Y003502D02*
X005507Y003502D01*
X005522Y003587D02*
X004006Y003587D01*
X004021Y003672D02*
X005536Y003672D01*
X005551Y003757D02*
X004036Y003757D01*
X004051Y003842D02*
X005322Y003842D01*
X004841Y003927D02*
X004066Y003927D01*
X004081Y004012D02*
X004360Y004012D01*
D13*
X007657Y003292D03*
X009077Y011348D03*
D14*
X007879Y012712D03*
X006699Y012712D03*
D15*
X000641Y000941D03*
X000641Y001941D03*
X001641Y001941D03*
X001641Y000941D03*
X002641Y000941D03*
X002641Y001941D03*
X003641Y001941D03*
X003641Y000941D03*
X004641Y000941D03*
X004641Y001941D03*
X005641Y001941D03*
X005641Y000941D03*
X006641Y000941D03*
X006641Y001941D03*
X006641Y002941D03*
X007641Y001941D03*
X007641Y000941D03*
X008641Y000941D03*
X008641Y001941D03*
X009641Y001941D03*
X009641Y000941D03*
X009641Y002941D03*
X007641Y003941D03*
X004641Y007941D03*
X003641Y007941D03*
X003641Y008941D03*
X002641Y008941D03*
X002641Y007941D03*
M02*
