G75*
G70*
%OFA0B0*%
%FSLAX24Y24*%
%IPPOS*%
%LPD*%
%AMOC8*
5,1,8,0,0,1.08239X$1,22.5*
%
%ADD10C,0.0555*%
%ADD11R,0.1000X0.1500*%
%ADD12OC8,0.0640*%
%ADD13C,0.0080*%
%ADD14C,0.0436*%
%ADD15C,0.0100*%
D10*
X001271Y003879D03*
X001271Y004666D03*
X001271Y005454D03*
X001271Y006241D03*
X001271Y007029D03*
X001271Y007816D03*
X001271Y008603D03*
X001271Y009391D03*
X001271Y010178D03*
X001271Y010966D03*
X009932Y010966D03*
X009932Y010178D03*
X009932Y009391D03*
X009932Y008603D03*
X009932Y007816D03*
X009932Y007029D03*
X009932Y006241D03*
X009932Y005454D03*
X009932Y004666D03*
X009932Y003879D03*
D11*
G36*
X005563Y003803D02*
X005389Y002819D01*
X003913Y003079D01*
X004087Y004063D01*
X005563Y003803D01*
G37*
G36*
X006855Y011130D02*
X006681Y010146D01*
X005205Y010406D01*
X005379Y011390D01*
X006855Y011130D01*
G37*
D12*
X004641Y007941D03*
X003641Y007941D03*
X003641Y008941D03*
X002641Y008941D03*
X002641Y007941D03*
X006641Y002941D03*
X006641Y001941D03*
X006641Y000941D03*
X005641Y000941D03*
X005641Y001941D03*
X004641Y001941D03*
X004641Y000941D03*
X003641Y000941D03*
X003641Y001941D03*
X002641Y001941D03*
X002641Y000941D03*
X001641Y000941D03*
X001641Y001941D03*
X000641Y001941D03*
X000641Y000941D03*
X007641Y000941D03*
X007641Y001941D03*
X008641Y001941D03*
X008641Y000941D03*
X009641Y000941D03*
X009641Y001941D03*
X009641Y002941D03*
X007641Y003941D03*
D13*
X000261Y000713D02*
X000261Y000261D01*
X010454Y000261D01*
X010454Y002328D01*
X010407Y002281D01*
X010275Y002281D01*
X009909Y002281D01*
X010071Y002119D01*
X010071Y001763D01*
X009819Y001511D01*
X009463Y001511D01*
X009211Y001763D01*
X009211Y002119D01*
X009373Y002281D01*
X008909Y002281D01*
X009071Y002119D01*
X009071Y001763D01*
X008819Y001511D01*
X008463Y001511D01*
X008211Y001763D01*
X008211Y002119D01*
X008373Y002281D01*
X007909Y002281D01*
X008071Y002119D01*
X008071Y001763D01*
X007909Y001601D01*
X008207Y001601D01*
X008301Y001507D01*
X008450Y001358D01*
X008463Y001371D01*
X008819Y001371D01*
X009071Y001119D01*
X009071Y000763D01*
X008819Y000511D01*
X008463Y000511D01*
X008211Y000763D01*
X008211Y001119D01*
X008224Y001132D01*
X008075Y001281D01*
X007909Y001281D01*
X008071Y001119D01*
X008071Y000763D01*
X007819Y000511D01*
X007463Y000511D01*
X007211Y000763D01*
X007211Y001119D01*
X007374Y001282D01*
X007075Y001581D01*
X006982Y001674D01*
X006819Y001511D01*
X006463Y001511D01*
X006301Y001673D01*
X006301Y001507D01*
X006450Y001358D01*
X006463Y001371D01*
X006819Y001371D01*
X007071Y001119D01*
X007071Y000763D01*
X006819Y000511D01*
X006463Y000511D01*
X006211Y000763D01*
X006211Y001119D01*
X006224Y001132D01*
X006075Y001281D01*
X006075Y001281D01*
X005981Y001375D01*
X005981Y001673D01*
X005819Y001511D01*
X005463Y001511D01*
X005211Y001763D01*
X005211Y002119D01*
X005463Y002371D01*
X005785Y002371D01*
X005681Y002475D01*
X005681Y002607D01*
X005681Y003663D01*
X005622Y003326D01*
X004785Y003474D01*
X004706Y003488D01*
X004810Y004079D01*
X004093Y004205D01*
X004056Y004202D01*
X004021Y004189D01*
X003991Y004168D01*
X003968Y004140D01*
X003952Y004106D01*
X003869Y003635D01*
X004706Y003488D01*
X004692Y003409D01*
X003855Y003557D01*
X003772Y003085D01*
X003775Y003049D01*
X003788Y003014D01*
X003809Y002984D01*
X003837Y002960D01*
X003871Y002945D01*
X004588Y002818D01*
X004692Y003409D01*
X004771Y003395D01*
X004785Y003474D01*
X004889Y004065D01*
X005606Y003938D01*
X005640Y003923D01*
X005668Y003899D01*
X005681Y003880D01*
X005681Y004275D01*
X005281Y004675D01*
X005281Y004807D01*
X005281Y004902D01*
X005255Y004913D01*
X005163Y005005D01*
X005113Y005126D01*
X005113Y005216D01*
X005106Y005213D01*
X004976Y005213D01*
X004855Y005263D01*
X004763Y005355D01*
X004713Y005476D01*
X004713Y005587D01*
X004701Y005575D01*
X004701Y005180D01*
X004727Y005169D01*
X004819Y005077D01*
X004869Y004956D01*
X004869Y004826D01*
X004819Y004705D01*
X004727Y004613D01*
X004606Y004563D01*
X004476Y004563D01*
X004355Y004613D01*
X004263Y004705D01*
X004213Y004826D01*
X004213Y004956D01*
X004263Y005077D01*
X004355Y005169D01*
X004381Y005180D01*
X004381Y005575D01*
X004131Y005825D01*
X004131Y005957D01*
X004131Y006381D01*
X003848Y006381D01*
X003877Y006369D01*
X003969Y006277D01*
X004019Y006156D01*
X004019Y006026D01*
X003969Y005905D01*
X003877Y005813D01*
X003851Y005802D01*
X003851Y004375D01*
X003757Y004281D01*
X003757Y004281D01*
X002301Y002825D01*
X002301Y002209D01*
X002463Y002371D01*
X002819Y002371D01*
X003071Y002119D01*
X003071Y001763D01*
X002819Y001511D01*
X002467Y001511D01*
X002469Y001506D01*
X002469Y001376D01*
X002467Y001371D01*
X002819Y001371D01*
X003071Y001119D01*
X003071Y000763D01*
X002819Y000511D01*
X002463Y000511D01*
X002211Y000763D01*
X002211Y001115D01*
X002206Y001113D01*
X002076Y001113D01*
X002071Y001115D01*
X002071Y000763D01*
X001819Y000511D01*
X001463Y000511D01*
X001211Y000763D01*
X001211Y001119D01*
X001249Y001157D01*
X001075Y001331D01*
X000981Y001425D01*
X000981Y001631D01*
X000832Y001481D01*
X000681Y001481D01*
X000681Y001901D01*
X000601Y001901D01*
X000601Y001481D01*
X000451Y001481D01*
X000261Y001671D01*
X000261Y001169D01*
X000463Y001371D01*
X000819Y001371D01*
X001071Y001119D01*
X001071Y000763D01*
X000819Y000511D01*
X000463Y000511D01*
X000261Y000713D01*
X000261Y000691D02*
X000283Y000691D01*
X000261Y000612D02*
X000362Y000612D01*
X000440Y000534D02*
X000261Y000534D01*
X000261Y000455D02*
X010454Y000455D01*
X010454Y000377D02*
X000261Y000377D01*
X000261Y000298D02*
X010454Y000298D01*
X010454Y000534D02*
X009842Y000534D01*
X009819Y000511D02*
X010071Y000763D01*
X010071Y001119D01*
X009819Y001371D01*
X009463Y001371D01*
X009211Y001119D01*
X009211Y000763D01*
X009463Y000511D01*
X009819Y000511D01*
X009920Y000612D02*
X010454Y000612D01*
X010454Y000691D02*
X009999Y000691D01*
X010071Y000769D02*
X010454Y000769D01*
X010454Y000848D02*
X010071Y000848D01*
X010071Y000927D02*
X010454Y000927D01*
X010454Y001005D02*
X010071Y001005D01*
X010071Y001084D02*
X010454Y001084D01*
X010454Y001162D02*
X010028Y001162D01*
X009950Y001241D02*
X010454Y001241D01*
X010454Y001319D02*
X009871Y001319D01*
X009863Y001555D02*
X010454Y001555D01*
X010454Y001633D02*
X009941Y001633D01*
X010020Y001712D02*
X010454Y001712D01*
X010454Y001791D02*
X010071Y001791D01*
X010071Y001869D02*
X010454Y001869D01*
X010454Y001948D02*
X010071Y001948D01*
X010071Y002026D02*
X010454Y002026D01*
X010454Y002105D02*
X010071Y002105D01*
X010007Y002183D02*
X010454Y002183D01*
X010454Y002262D02*
X009928Y002262D01*
X009419Y001555D02*
X008863Y001555D01*
X008941Y001633D02*
X009341Y001633D01*
X009262Y001712D02*
X009020Y001712D01*
X009071Y001791D02*
X009211Y001791D01*
X009211Y001869D02*
X009071Y001869D01*
X009071Y001948D02*
X009211Y001948D01*
X009211Y002026D02*
X009071Y002026D01*
X009071Y002105D02*
X009211Y002105D01*
X009275Y002183D02*
X009007Y002183D01*
X008928Y002262D02*
X009354Y002262D01*
X009411Y001319D02*
X008871Y001319D01*
X008950Y001241D02*
X009333Y001241D01*
X009254Y001162D02*
X009028Y001162D01*
X009071Y001084D02*
X009211Y001084D01*
X009211Y001005D02*
X009071Y001005D01*
X009071Y000927D02*
X009211Y000927D01*
X009211Y000848D02*
X009071Y000848D01*
X009071Y000769D02*
X009211Y000769D01*
X009283Y000691D02*
X008999Y000691D01*
X008920Y000612D02*
X009362Y000612D01*
X009440Y000534D02*
X008842Y000534D01*
X008440Y000534D02*
X007842Y000534D01*
X007920Y000612D02*
X008362Y000612D01*
X008283Y000691D02*
X007999Y000691D01*
X008071Y000769D02*
X008211Y000769D01*
X008211Y000848D02*
X008071Y000848D01*
X008071Y000927D02*
X008211Y000927D01*
X008211Y001005D02*
X008071Y001005D01*
X008071Y001084D02*
X008211Y001084D01*
X008194Y001162D02*
X008028Y001162D01*
X007950Y001241D02*
X008115Y001241D01*
X008332Y001476D02*
X010454Y001476D01*
X010454Y001398D02*
X008411Y001398D01*
X008419Y001555D02*
X008254Y001555D01*
X008341Y001633D02*
X007941Y001633D01*
X008020Y001712D02*
X008262Y001712D01*
X008211Y001791D02*
X008071Y001791D01*
X008071Y001869D02*
X008211Y001869D01*
X008211Y001948D02*
X008071Y001948D01*
X008071Y002026D02*
X008211Y002026D01*
X008211Y002105D02*
X008071Y002105D01*
X008007Y002183D02*
X008275Y002183D01*
X008354Y002262D02*
X007928Y002262D01*
X007180Y001476D02*
X006332Y001476D01*
X006301Y001555D02*
X006419Y001555D01*
X006341Y001633D02*
X006301Y001633D01*
X006411Y001398D02*
X007258Y001398D01*
X007337Y001319D02*
X006871Y001319D01*
X006950Y001241D02*
X007333Y001241D01*
X007254Y001162D02*
X007028Y001162D01*
X007071Y001084D02*
X007211Y001084D01*
X007211Y001005D02*
X007071Y001005D01*
X007071Y000927D02*
X007211Y000927D01*
X007211Y000848D02*
X007071Y000848D01*
X007071Y000769D02*
X007211Y000769D01*
X007283Y000691D02*
X006999Y000691D01*
X006920Y000612D02*
X007362Y000612D01*
X007440Y000534D02*
X006842Y000534D01*
X006440Y000534D02*
X005842Y000534D01*
X005819Y000511D02*
X006071Y000763D01*
X006071Y001119D01*
X005819Y001371D01*
X005463Y001371D01*
X005211Y001119D01*
X005211Y000763D01*
X005463Y000511D01*
X005819Y000511D01*
X005920Y000612D02*
X006362Y000612D01*
X006283Y000691D02*
X005999Y000691D01*
X006071Y000769D02*
X006211Y000769D01*
X006211Y000848D02*
X006071Y000848D01*
X006071Y000927D02*
X006211Y000927D01*
X006211Y001005D02*
X006071Y001005D01*
X006071Y001084D02*
X006211Y001084D01*
X006194Y001162D02*
X006028Y001162D01*
X005950Y001241D02*
X006115Y001241D01*
X006037Y001319D02*
X005871Y001319D01*
X005981Y001398D02*
X002469Y001398D01*
X002469Y001476D02*
X005981Y001476D01*
X005981Y001555D02*
X005863Y001555D01*
X005941Y001633D02*
X005981Y001633D01*
X005419Y001555D02*
X004863Y001555D01*
X004819Y001511D02*
X005071Y001763D01*
X005071Y002119D01*
X004819Y002371D01*
X004463Y002371D01*
X004211Y002119D01*
X004211Y001763D01*
X004463Y001511D01*
X004819Y001511D01*
X004819Y001371D02*
X004463Y001371D01*
X004211Y001119D01*
X004211Y000763D01*
X004463Y000511D01*
X004819Y000511D01*
X005071Y000763D01*
X005071Y001119D01*
X004819Y001371D01*
X004871Y001319D02*
X005411Y001319D01*
X005333Y001241D02*
X004950Y001241D01*
X005028Y001162D02*
X005254Y001162D01*
X005211Y001084D02*
X005071Y001084D01*
X005071Y001005D02*
X005211Y001005D01*
X005211Y000927D02*
X005071Y000927D01*
X005071Y000848D02*
X005211Y000848D01*
X005211Y000769D02*
X005071Y000769D01*
X004999Y000691D02*
X005283Y000691D01*
X005362Y000612D02*
X004920Y000612D01*
X004842Y000534D02*
X005440Y000534D01*
X005341Y001633D02*
X004941Y001633D01*
X005020Y001712D02*
X005262Y001712D01*
X005211Y001791D02*
X005071Y001791D01*
X005071Y001869D02*
X005211Y001869D01*
X005211Y001948D02*
X005071Y001948D01*
X005071Y002026D02*
X005211Y002026D01*
X005211Y002105D02*
X005071Y002105D01*
X005007Y002183D02*
X005275Y002183D01*
X005354Y002262D02*
X004928Y002262D01*
X004850Y002340D02*
X005432Y002340D01*
X005681Y002497D02*
X002301Y002497D01*
X002301Y002419D02*
X005737Y002419D01*
X005681Y002576D02*
X002301Y002576D01*
X002301Y002654D02*
X005681Y002654D01*
X005681Y002733D02*
X005501Y002733D01*
X005509Y002743D02*
X005525Y002776D01*
X005608Y003248D01*
X004771Y003395D01*
X004667Y002804D01*
X005384Y002678D01*
X005421Y002681D01*
X005455Y002693D01*
X005486Y002715D01*
X005509Y002743D01*
X005531Y002812D02*
X005681Y002812D01*
X005681Y002890D02*
X005545Y002890D01*
X005559Y002969D02*
X005681Y002969D01*
X005681Y003047D02*
X005573Y003047D01*
X005586Y003126D02*
X005681Y003126D01*
X005681Y003204D02*
X005600Y003204D01*
X005681Y003283D02*
X005408Y003283D01*
X005422Y003361D02*
X004962Y003361D01*
X004976Y003440D02*
X004779Y003440D01*
X004793Y003518D02*
X004711Y003518D01*
X004697Y003440D02*
X004516Y003440D01*
X004531Y003518D02*
X004071Y003518D01*
X004085Y003597D02*
X003073Y003597D01*
X002995Y003518D02*
X003848Y003518D01*
X003835Y003440D02*
X002916Y003440D01*
X002838Y003361D02*
X003821Y003361D01*
X003807Y003283D02*
X002759Y003283D01*
X002681Y003204D02*
X003793Y003204D01*
X003779Y003126D02*
X002602Y003126D01*
X002523Y003047D02*
X003776Y003047D01*
X003827Y002969D02*
X002445Y002969D01*
X002366Y002890D02*
X004179Y002890D01*
X004601Y002890D02*
X004682Y002890D01*
X004668Y002812D02*
X002301Y002812D01*
X002301Y002733D02*
X005070Y002733D01*
X004737Y003204D02*
X004656Y003204D01*
X004642Y003126D02*
X004723Y003126D01*
X004709Y003047D02*
X004628Y003047D01*
X004615Y002969D02*
X004696Y002969D01*
X004670Y003283D02*
X004751Y003283D01*
X004765Y003361D02*
X004684Y003361D01*
X004725Y003597D02*
X004806Y003597D01*
X004820Y003676D02*
X004739Y003676D01*
X004753Y003754D02*
X004834Y003754D01*
X004848Y003833D02*
X004767Y003833D01*
X004781Y003911D02*
X004862Y003911D01*
X004876Y003990D02*
X004795Y003990D01*
X004808Y004068D02*
X005681Y004068D01*
X005681Y003990D02*
X005314Y003990D01*
X005653Y003911D02*
X005681Y003911D01*
X005681Y004147D02*
X004423Y004147D01*
X004350Y004618D02*
X003851Y004618D01*
X003851Y004540D02*
X005416Y004540D01*
X005338Y004618D02*
X004732Y004618D01*
X004811Y004697D02*
X005281Y004697D01*
X005281Y004775D02*
X004848Y004775D01*
X004869Y004854D02*
X005281Y004854D01*
X005236Y004932D02*
X004869Y004932D01*
X004847Y005011D02*
X005161Y005011D01*
X005128Y005089D02*
X004807Y005089D01*
X004728Y005168D02*
X005113Y005168D01*
X004895Y005246D02*
X004701Y005246D01*
X004701Y005325D02*
X004793Y005325D01*
X004743Y005404D02*
X004701Y005404D01*
X004701Y005482D02*
X004713Y005482D01*
X004701Y005561D02*
X004713Y005561D01*
X004381Y005561D02*
X003851Y005561D01*
X003851Y005639D02*
X004317Y005639D01*
X004238Y005718D02*
X003851Y005718D01*
X003851Y005796D02*
X004160Y005796D01*
X004131Y005875D02*
X003939Y005875D01*
X003989Y005953D02*
X004131Y005953D01*
X004131Y006032D02*
X004019Y006032D01*
X004019Y006110D02*
X004131Y006110D01*
X004131Y006189D02*
X004006Y006189D01*
X003973Y006267D02*
X004131Y006267D01*
X004131Y006346D02*
X003900Y006346D01*
X003801Y006701D02*
X003801Y007511D01*
X003819Y007511D01*
X004071Y007763D01*
X004071Y008119D01*
X003819Y008371D01*
X003463Y008371D01*
X003211Y008119D01*
X003211Y007763D01*
X003463Y007511D01*
X003481Y007511D01*
X003481Y006701D01*
X002875Y006701D01*
X002781Y006607D01*
X002498Y006324D01*
X002519Y006376D01*
X002519Y006506D01*
X002469Y006627D01*
X002377Y006719D01*
X002256Y006769D01*
X002126Y006769D01*
X002005Y006719D01*
X001913Y006627D01*
X001863Y006506D01*
X001863Y006376D01*
X001874Y006350D01*
X001638Y006114D01*
X001658Y006164D01*
X001658Y006318D01*
X001599Y006461D01*
X001490Y006570D01*
X001348Y006629D01*
X001194Y006629D01*
X001052Y006570D01*
X000943Y006461D01*
X000884Y006318D01*
X000884Y006164D01*
X000943Y006022D01*
X001052Y005913D01*
X001194Y005854D01*
X001348Y005854D01*
X001490Y005913D01*
X001581Y006003D01*
X001581Y005925D01*
X001581Y005691D01*
X001490Y005782D01*
X001348Y005841D01*
X001194Y005841D01*
X001052Y005782D01*
X000943Y005673D01*
X000884Y005531D01*
X000884Y005377D01*
X000943Y005234D01*
X001052Y005125D01*
X001194Y005066D01*
X001348Y005066D01*
X001490Y005125D01*
X001581Y005216D01*
X001581Y004904D01*
X001490Y004995D01*
X001348Y005054D01*
X001194Y005054D01*
X001052Y004995D01*
X000943Y004886D01*
X000884Y004743D01*
X000884Y004589D01*
X000943Y004447D01*
X001052Y004338D01*
X001176Y004286D01*
X001173Y004286D01*
X001111Y004266D01*
X001052Y004236D01*
X000999Y004197D01*
X000953Y004151D01*
X000914Y004098D01*
X000884Y004039D01*
X000864Y003977D01*
X000854Y003918D01*
X001232Y003918D01*
X001232Y003840D01*
X000854Y003840D01*
X000864Y003781D01*
X000884Y003719D01*
X000914Y003660D01*
X000953Y003607D01*
X000999Y003560D01*
X001052Y003522D01*
X001111Y003492D01*
X001173Y003472D01*
X001232Y003462D01*
X001232Y003840D01*
X001310Y003840D01*
X001310Y003462D01*
X001341Y003467D01*
X000981Y003107D01*
X000981Y002975D01*
X000981Y002252D01*
X000832Y002401D01*
X000681Y002401D01*
X000681Y001981D01*
X000601Y001981D01*
X000601Y002401D01*
X000451Y002401D01*
X000261Y002212D01*
X000261Y013407D01*
X010454Y013407D01*
X010454Y007520D01*
X010295Y007679D01*
X010320Y007739D01*
X010320Y007893D01*
X010261Y008035D01*
X010152Y008144D01*
X010009Y008203D01*
X009855Y008203D01*
X009713Y008144D01*
X009604Y008035D01*
X009545Y007893D01*
X009545Y007739D01*
X009604Y007596D01*
X009713Y007487D01*
X009855Y007428D01*
X010009Y007428D01*
X010069Y007453D01*
X010231Y007291D01*
X010231Y007278D01*
X010152Y007357D01*
X010009Y007416D01*
X009855Y007416D01*
X009713Y007357D01*
X009604Y007248D01*
X009545Y007106D01*
X009545Y006951D01*
X009604Y006809D01*
X009713Y006700D01*
X009855Y006641D01*
X010009Y006641D01*
X010152Y006700D01*
X010231Y006779D01*
X010231Y006490D01*
X010152Y006570D01*
X010009Y006629D01*
X009855Y006629D01*
X009713Y006570D01*
X009604Y006461D01*
X009545Y006318D01*
X009545Y006164D01*
X009604Y006022D01*
X009713Y005913D01*
X009855Y005854D01*
X010009Y005854D01*
X010152Y005913D01*
X010231Y005992D01*
X010231Y005703D01*
X010152Y005782D01*
X010009Y005841D01*
X009855Y005841D01*
X009713Y005782D01*
X009604Y005673D01*
X009545Y005531D01*
X009545Y005377D01*
X009604Y005234D01*
X009713Y005125D01*
X009855Y005066D01*
X010009Y005066D01*
X010152Y005125D01*
X010231Y005204D01*
X010231Y004916D01*
X010152Y004995D01*
X010009Y005054D01*
X009855Y005054D01*
X009713Y004995D01*
X009604Y004886D01*
X009595Y004864D01*
X009569Y004927D01*
X009477Y005019D01*
X009411Y005047D01*
X009469Y005105D01*
X009519Y005226D01*
X009519Y005356D01*
X009469Y005477D01*
X009377Y005569D01*
X009256Y005619D01*
X009126Y005619D01*
X009005Y005569D01*
X008913Y005477D01*
X008902Y005451D01*
X008857Y005451D01*
X006901Y007407D01*
X006807Y007501D01*
X005827Y007501D01*
X006150Y007824D01*
X006176Y007813D01*
X006306Y007813D01*
X006427Y007863D01*
X006519Y007955D01*
X006569Y008076D01*
X006569Y008206D01*
X006519Y008327D01*
X006427Y008419D01*
X006306Y008469D01*
X006176Y008469D01*
X006150Y008458D01*
X003483Y011125D01*
X003350Y011125D01*
X001624Y011125D01*
X001599Y011185D01*
X001490Y011294D01*
X005250Y011294D01*
X005236Y011216D02*
X001569Y011216D01*
X001619Y011137D02*
X005222Y011137D01*
X005208Y011059D02*
X004882Y011059D01*
X004856Y011069D02*
X004726Y011069D01*
X004605Y011019D01*
X004513Y010927D01*
X004463Y010806D01*
X004463Y010676D01*
X004513Y010555D01*
X004605Y010463D01*
X004726Y010413D01*
X004856Y010413D01*
X004977Y010463D01*
X005069Y010555D01*
X005091Y010608D01*
X005129Y010608D01*
X005089Y010380D01*
X005141Y010306D01*
X006708Y010029D01*
X006783Y010082D01*
X006964Y011113D01*
X007006Y011113D01*
X007127Y011163D01*
X007219Y011255D01*
X007269Y011376D01*
X007269Y011487D01*
X007381Y011375D01*
X007381Y010580D01*
X007355Y010569D01*
X007263Y010477D01*
X007213Y010356D01*
X007213Y010226D01*
X007263Y010105D01*
X007355Y010013D01*
X007476Y009963D01*
X007606Y009963D01*
X007727Y010013D01*
X007819Y010105D01*
X007869Y010226D01*
X007869Y010356D01*
X007819Y010477D01*
X007727Y010569D01*
X007701Y010580D01*
X007701Y011375D01*
X007701Y011507D01*
X007201Y012007D01*
X007107Y012101D01*
X002207Y012101D01*
X002075Y012101D01*
X001954Y011980D01*
X002070Y012260D01*
X002070Y012589D01*
X001944Y012894D01*
X001710Y013127D01*
X001406Y013253D01*
X001076Y013253D01*
X000772Y013127D01*
X000539Y012894D01*
X000412Y012589D01*
X000412Y012260D01*
X000539Y011955D01*
X000772Y011722D01*
X000966Y011642D01*
X000775Y011451D01*
X000681Y011357D01*
X000681Y007525D01*
X000681Y007392D01*
X000908Y007165D01*
X000884Y007106D01*
X000884Y006951D01*
X000943Y006809D01*
X001052Y006700D01*
X001194Y006641D01*
X001348Y006641D01*
X001490Y006700D01*
X001599Y006809D01*
X001658Y006951D01*
X001658Y007106D01*
X001599Y007248D01*
X001490Y007357D01*
X001348Y007416D01*
X001194Y007416D01*
X001134Y007391D01*
X001001Y007525D01*
X001001Y007538D01*
X001052Y007487D01*
X001194Y007428D01*
X001348Y007428D01*
X001490Y007487D01*
X001599Y007596D01*
X001658Y007739D01*
X001658Y007893D01*
X001599Y008035D01*
X001490Y008144D01*
X001348Y008203D01*
X001194Y008203D01*
X001052Y008144D01*
X001001Y008094D01*
X001001Y008325D01*
X001052Y008275D01*
X001194Y008216D01*
X001348Y008216D01*
X001490Y008275D01*
X001599Y008384D01*
X001658Y008526D01*
X001658Y008680D01*
X001646Y008710D01*
X002224Y008132D01*
X002211Y008119D01*
X002211Y007763D01*
X002463Y007511D01*
X002819Y007511D01*
X003071Y007763D01*
X003071Y008119D01*
X002819Y008371D01*
X002463Y008371D01*
X002450Y008358D01*
X001611Y009198D01*
X001658Y009314D01*
X001658Y009468D01*
X001599Y009610D01*
X001490Y009719D01*
X001348Y009778D01*
X001194Y009778D01*
X001052Y009719D01*
X001001Y009669D01*
X001001Y009900D01*
X001052Y009850D01*
X001194Y009791D01*
X001348Y009791D01*
X001490Y009850D01*
X001498Y009858D01*
X002224Y009132D01*
X002211Y009119D01*
X002211Y008763D01*
X002463Y008511D01*
X002819Y008511D01*
X003071Y008763D01*
X003071Y009119D01*
X002819Y009371D01*
X002463Y009371D01*
X002450Y009358D01*
X001658Y010150D01*
X001658Y010255D01*
X001599Y010398D01*
X001490Y010507D01*
X001348Y010566D01*
X001194Y010566D01*
X001052Y010507D01*
X001001Y010456D01*
X001001Y010688D01*
X001052Y010637D01*
X001194Y010578D01*
X001348Y010578D01*
X001490Y010637D01*
X001599Y010746D01*
X001624Y010806D01*
X003350Y010806D01*
X005924Y008232D01*
X005913Y008206D01*
X005913Y008076D01*
X005924Y008050D01*
X005625Y007751D01*
X005275Y007751D01*
X005181Y007657D01*
X004225Y006701D01*
X004225Y006701D01*
X003801Y006701D01*
X003801Y006739D02*
X004263Y006739D01*
X004341Y006817D02*
X003801Y006817D01*
X003801Y006896D02*
X004420Y006896D01*
X004498Y006974D02*
X003801Y006974D01*
X003801Y007053D02*
X004577Y007053D01*
X004655Y007131D02*
X003801Y007131D01*
X003801Y007210D02*
X004734Y007210D01*
X004812Y007289D02*
X003801Y007289D01*
X003801Y007367D02*
X004891Y007367D01*
X004969Y007446D02*
X003801Y007446D01*
X003832Y007524D02*
X004450Y007524D01*
X004463Y007511D02*
X004819Y007511D01*
X005071Y007763D01*
X005071Y008119D01*
X004819Y008371D01*
X004463Y008371D01*
X004211Y008119D01*
X004211Y007763D01*
X004463Y007511D01*
X004371Y007603D02*
X003911Y007603D01*
X003989Y007681D02*
X004293Y007681D01*
X004214Y007760D02*
X004068Y007760D01*
X004071Y007838D02*
X004211Y007838D01*
X004211Y007917D02*
X004071Y007917D01*
X004071Y007995D02*
X004211Y007995D01*
X004211Y008074D02*
X004071Y008074D01*
X004038Y008153D02*
X004244Y008153D01*
X004323Y008231D02*
X003959Y008231D01*
X003881Y008310D02*
X004402Y008310D01*
X004053Y008702D02*
X005454Y008702D01*
X005532Y008624D02*
X003974Y008624D01*
X003896Y008545D02*
X005611Y008545D01*
X005689Y008467D02*
X002342Y008467D01*
X002263Y008545D02*
X002429Y008545D01*
X002350Y008624D02*
X002185Y008624D01*
X002106Y008702D02*
X002272Y008702D01*
X002211Y008781D02*
X002028Y008781D01*
X001949Y008859D02*
X002211Y008859D01*
X002211Y008938D02*
X001870Y008938D01*
X001792Y009016D02*
X002211Y009016D01*
X002211Y009095D02*
X001713Y009095D01*
X001635Y009174D02*
X002182Y009174D01*
X002104Y009252D02*
X001633Y009252D01*
X001658Y009331D02*
X002025Y009331D01*
X001947Y009409D02*
X001658Y009409D01*
X001650Y009488D02*
X001868Y009488D01*
X001790Y009566D02*
X001618Y009566D01*
X001565Y009645D02*
X001711Y009645D01*
X001633Y009723D02*
X001480Y009723D01*
X001554Y009802D02*
X001375Y009802D01*
X001167Y009802D02*
X001001Y009802D01*
X001001Y009880D02*
X001021Y009880D01*
X001001Y009723D02*
X001062Y009723D01*
X000681Y009723D02*
X000261Y009723D01*
X000261Y009645D02*
X000681Y009645D01*
X000681Y009566D02*
X000261Y009566D01*
X000261Y009488D02*
X000681Y009488D01*
X000681Y009409D02*
X000261Y009409D01*
X000261Y009331D02*
X000681Y009331D01*
X000681Y009252D02*
X000261Y009252D01*
X000261Y009174D02*
X000681Y009174D01*
X000681Y009095D02*
X000261Y009095D01*
X000261Y009016D02*
X000681Y009016D01*
X000681Y008938D02*
X000261Y008938D01*
X000261Y008859D02*
X000681Y008859D01*
X000681Y008781D02*
X000261Y008781D01*
X000261Y008702D02*
X000681Y008702D01*
X000681Y008624D02*
X000261Y008624D01*
X000261Y008545D02*
X000681Y008545D01*
X000681Y008467D02*
X000261Y008467D01*
X000261Y008388D02*
X000681Y008388D01*
X000681Y008310D02*
X000261Y008310D01*
X000261Y008231D02*
X000681Y008231D01*
X000681Y008153D02*
X000261Y008153D01*
X000261Y008074D02*
X000681Y008074D01*
X000681Y007995D02*
X000261Y007995D01*
X000261Y007917D02*
X000681Y007917D01*
X000681Y007838D02*
X000261Y007838D01*
X000261Y007760D02*
X000681Y007760D01*
X000681Y007681D02*
X000261Y007681D01*
X000261Y007603D02*
X000681Y007603D01*
X000681Y007524D02*
X000261Y007524D01*
X000261Y007446D02*
X000681Y007446D01*
X000706Y007367D02*
X000261Y007367D01*
X000261Y007289D02*
X000785Y007289D01*
X000863Y007210D02*
X000261Y007210D01*
X000261Y007131D02*
X000894Y007131D01*
X000884Y007053D02*
X000261Y007053D01*
X000261Y006974D02*
X000884Y006974D01*
X000907Y006896D02*
X000261Y006896D01*
X000261Y006817D02*
X000939Y006817D01*
X001013Y006739D02*
X000261Y006739D01*
X000261Y006660D02*
X001148Y006660D01*
X001081Y006582D02*
X000261Y006582D01*
X000261Y006503D02*
X000985Y006503D01*
X000928Y006425D02*
X000261Y006425D01*
X000261Y006346D02*
X000895Y006346D01*
X000884Y006267D02*
X000261Y006267D01*
X000261Y006189D02*
X000884Y006189D01*
X000906Y006110D02*
X000261Y006110D01*
X000261Y006032D02*
X000938Y006032D01*
X001011Y005953D02*
X000261Y005953D01*
X000261Y005875D02*
X001143Y005875D01*
X001085Y005796D02*
X000261Y005796D01*
X000261Y005718D02*
X000987Y005718D01*
X000928Y005639D02*
X000261Y005639D01*
X000261Y005561D02*
X000896Y005561D01*
X000884Y005482D02*
X000261Y005482D01*
X000261Y005404D02*
X000884Y005404D01*
X000905Y005325D02*
X000261Y005325D01*
X000261Y005246D02*
X000937Y005246D01*
X001009Y005168D02*
X000261Y005168D01*
X000261Y005089D02*
X001138Y005089D01*
X001090Y005011D02*
X000261Y005011D01*
X000261Y004932D02*
X000989Y004932D01*
X000929Y004854D02*
X000261Y004854D01*
X000261Y004775D02*
X000897Y004775D01*
X000884Y004697D02*
X000261Y004697D01*
X000261Y004618D02*
X000884Y004618D01*
X000904Y004540D02*
X000261Y004540D01*
X000261Y004461D02*
X000937Y004461D01*
X001007Y004382D02*
X000261Y004382D01*
X000261Y004304D02*
X001133Y004304D01*
X001038Y004225D02*
X000261Y004225D01*
X000261Y004147D02*
X000950Y004147D01*
X000899Y004068D02*
X000261Y004068D01*
X000261Y003990D02*
X000868Y003990D01*
X000856Y003833D02*
X000261Y003833D01*
X000261Y003911D02*
X001232Y003911D01*
X001232Y003833D02*
X001310Y003833D01*
X001310Y003754D02*
X001232Y003754D01*
X001232Y003676D02*
X001310Y003676D01*
X001310Y003597D02*
X001232Y003597D01*
X001232Y003518D02*
X001310Y003518D01*
X001314Y003440D02*
X000261Y003440D01*
X000261Y003518D02*
X001059Y003518D01*
X000962Y003597D02*
X000261Y003597D01*
X000261Y003676D02*
X000906Y003676D01*
X000873Y003754D02*
X000261Y003754D01*
X000261Y003361D02*
X001235Y003361D01*
X001157Y003283D02*
X000261Y003283D01*
X000261Y003204D02*
X001078Y003204D01*
X001000Y003126D02*
X000261Y003126D01*
X000261Y003047D02*
X000981Y003047D01*
X000981Y002969D02*
X000261Y002969D01*
X000261Y002890D02*
X000981Y002890D01*
X000981Y002812D02*
X000261Y002812D01*
X000261Y002733D02*
X000981Y002733D01*
X000981Y002654D02*
X000261Y002654D01*
X000261Y002576D02*
X000981Y002576D01*
X000981Y002497D02*
X000261Y002497D01*
X000261Y002419D02*
X000981Y002419D01*
X000981Y002340D02*
X000892Y002340D01*
X000971Y002262D02*
X000981Y002262D01*
X000681Y002262D02*
X000601Y002262D01*
X000601Y002340D02*
X000681Y002340D01*
X000681Y002183D02*
X000601Y002183D01*
X000601Y002105D02*
X000681Y002105D01*
X000681Y002026D02*
X000601Y002026D01*
X000601Y001869D02*
X000681Y001869D01*
X000681Y001791D02*
X000601Y001791D01*
X000601Y001712D02*
X000681Y001712D01*
X000681Y001633D02*
X000601Y001633D01*
X000601Y001555D02*
X000681Y001555D01*
X000905Y001555D02*
X000981Y001555D01*
X000981Y001476D02*
X000261Y001476D01*
X000261Y001398D02*
X001008Y001398D01*
X001087Y001319D02*
X000871Y001319D01*
X000950Y001241D02*
X001165Y001241D01*
X001244Y001162D02*
X001028Y001162D01*
X001071Y001084D02*
X001211Y001084D01*
X001211Y001005D02*
X001071Y001005D01*
X001071Y000927D02*
X001211Y000927D01*
X001211Y000848D02*
X001071Y000848D01*
X001071Y000769D02*
X001211Y000769D01*
X001283Y000691D02*
X000999Y000691D01*
X000920Y000612D02*
X001362Y000612D01*
X001440Y000534D02*
X000842Y000534D01*
X000333Y001241D02*
X000261Y001241D01*
X000261Y001319D02*
X000411Y001319D01*
X000377Y001555D02*
X000261Y001555D01*
X000261Y001633D02*
X000298Y001633D01*
X000311Y002262D02*
X000261Y002262D01*
X000261Y002340D02*
X000390Y002340D01*
X001301Y002340D02*
X001390Y002340D01*
X001451Y002401D02*
X001301Y002252D01*
X001301Y002975D01*
X001807Y003481D01*
X001901Y003575D01*
X001901Y005925D01*
X002100Y006124D01*
X002126Y006113D01*
X002256Y006113D01*
X002308Y006135D01*
X002131Y005957D01*
X002131Y005825D01*
X002131Y005330D01*
X002105Y005319D01*
X002013Y005227D01*
X001963Y005106D01*
X001963Y004976D01*
X002013Y004855D01*
X002105Y004763D01*
X002226Y004713D01*
X002356Y004713D01*
X002477Y004763D01*
X002569Y004855D01*
X002619Y004976D01*
X002619Y005106D01*
X002569Y005227D01*
X002477Y005319D01*
X002451Y005330D01*
X002451Y005825D01*
X003007Y006381D01*
X003534Y006381D01*
X003505Y006369D01*
X003413Y006277D01*
X003363Y006156D01*
X003363Y006026D01*
X003413Y005905D01*
X003505Y005813D01*
X003531Y005802D01*
X003531Y004507D01*
X002075Y003051D01*
X002075Y003051D01*
X001981Y002957D01*
X001981Y002252D01*
X001832Y002401D01*
X001681Y002401D01*
X001681Y001981D01*
X001601Y001981D01*
X001601Y002401D01*
X001451Y002401D01*
X001301Y002419D02*
X001981Y002419D01*
X001981Y002497D02*
X001301Y002497D01*
X001301Y002576D02*
X001981Y002576D01*
X001981Y002654D02*
X001301Y002654D01*
X001301Y002733D02*
X001981Y002733D01*
X001981Y002812D02*
X001301Y002812D01*
X001301Y002890D02*
X001981Y002890D01*
X001992Y002969D02*
X001301Y002969D01*
X001373Y003047D02*
X002071Y003047D01*
X002150Y003126D02*
X001452Y003126D01*
X001531Y003204D02*
X002228Y003204D01*
X002307Y003283D02*
X001609Y003283D01*
X001688Y003361D02*
X002385Y003361D01*
X002464Y003440D02*
X001766Y003440D01*
X001845Y003518D02*
X002542Y003518D01*
X002621Y003597D02*
X001901Y003597D01*
X001901Y003676D02*
X002699Y003676D01*
X002778Y003754D02*
X001901Y003754D01*
X001901Y003833D02*
X002856Y003833D01*
X002935Y003911D02*
X001901Y003911D01*
X001901Y003990D02*
X003014Y003990D01*
X003092Y004068D02*
X001901Y004068D01*
X001901Y004147D02*
X003171Y004147D01*
X003249Y004225D02*
X001901Y004225D01*
X001901Y004304D02*
X003328Y004304D01*
X003406Y004382D02*
X001901Y004382D01*
X001901Y004461D02*
X003485Y004461D01*
X003531Y004540D02*
X001901Y004540D01*
X001901Y004618D02*
X003531Y004618D01*
X003531Y004697D02*
X001901Y004697D01*
X001901Y004775D02*
X002093Y004775D01*
X002014Y004854D02*
X001901Y004854D01*
X001901Y004932D02*
X001981Y004932D01*
X001963Y005011D02*
X001901Y005011D01*
X001901Y005089D02*
X001963Y005089D01*
X001989Y005168D02*
X001901Y005168D01*
X001901Y005246D02*
X002032Y005246D01*
X002119Y005325D02*
X001901Y005325D01*
X001901Y005404D02*
X002131Y005404D01*
X002131Y005482D02*
X001901Y005482D01*
X001901Y005561D02*
X002131Y005561D01*
X002131Y005639D02*
X001901Y005639D01*
X001901Y005718D02*
X002131Y005718D01*
X002131Y005796D02*
X001901Y005796D01*
X001901Y005875D02*
X002131Y005875D01*
X002131Y005953D02*
X001930Y005953D01*
X002008Y006032D02*
X002206Y006032D01*
X002284Y006110D02*
X002087Y006110D01*
X001870Y006346D02*
X001647Y006346D01*
X001658Y006267D02*
X001791Y006267D01*
X001713Y006189D02*
X001658Y006189D01*
X001614Y006425D02*
X001863Y006425D01*
X001863Y006503D02*
X001557Y006503D01*
X001461Y006582D02*
X001894Y006582D01*
X001946Y006660D02*
X001394Y006660D01*
X001529Y006739D02*
X002052Y006739D01*
X002330Y006739D02*
X003481Y006739D01*
X003481Y006817D02*
X001603Y006817D01*
X001635Y006896D02*
X003481Y006896D01*
X003481Y006974D02*
X001658Y006974D01*
X001658Y007053D02*
X003481Y007053D01*
X003481Y007131D02*
X001648Y007131D01*
X001615Y007210D02*
X003481Y007210D01*
X003481Y007289D02*
X001559Y007289D01*
X001466Y007367D02*
X003481Y007367D01*
X003481Y007446D02*
X001390Y007446D01*
X001527Y007524D02*
X002450Y007524D01*
X002371Y007603D02*
X001602Y007603D01*
X001635Y007681D02*
X002293Y007681D01*
X002214Y007760D02*
X001658Y007760D01*
X001658Y007838D02*
X002211Y007838D01*
X002211Y007917D02*
X001649Y007917D01*
X001616Y007995D02*
X002211Y007995D01*
X002211Y008074D02*
X001561Y008074D01*
X001471Y008153D02*
X002203Y008153D01*
X002125Y008231D02*
X001385Y008231D01*
X001525Y008310D02*
X002046Y008310D01*
X001968Y008388D02*
X001601Y008388D01*
X001634Y008467D02*
X001889Y008467D01*
X001811Y008545D02*
X001658Y008545D01*
X001658Y008624D02*
X001732Y008624D01*
X001654Y008702D02*
X001649Y008702D01*
X001157Y008231D02*
X001001Y008231D01*
X001001Y008153D02*
X001071Y008153D01*
X001017Y008310D02*
X001001Y008310D01*
X001002Y007524D02*
X001015Y007524D01*
X001080Y007446D02*
X001152Y007446D01*
X001531Y005953D02*
X001581Y005953D01*
X001581Y005875D02*
X001399Y005875D01*
X001457Y005796D02*
X001581Y005796D01*
X001581Y005718D02*
X001555Y005718D01*
X001533Y005168D02*
X001581Y005168D01*
X001581Y005089D02*
X001404Y005089D01*
X001452Y005011D02*
X001581Y005011D01*
X001581Y004932D02*
X001553Y004932D01*
X002463Y005325D02*
X003531Y005325D01*
X003531Y005404D02*
X002451Y005404D01*
X002451Y005482D02*
X003531Y005482D01*
X003531Y005561D02*
X002451Y005561D01*
X002451Y005639D02*
X003531Y005639D01*
X003531Y005718D02*
X002451Y005718D01*
X002451Y005796D02*
X003531Y005796D01*
X003443Y005875D02*
X002501Y005875D01*
X002580Y005953D02*
X003393Y005953D01*
X003363Y006032D02*
X002658Y006032D01*
X002737Y006110D02*
X003363Y006110D01*
X003376Y006189D02*
X002815Y006189D01*
X002894Y006267D02*
X003409Y006267D01*
X003482Y006346D02*
X002972Y006346D01*
X002755Y006582D02*
X002488Y006582D01*
X002519Y006503D02*
X002677Y006503D01*
X002598Y006425D02*
X002519Y006425D01*
X002507Y006346D02*
X002520Y006346D01*
X002436Y006660D02*
X002834Y006660D01*
X002832Y007524D02*
X003450Y007524D01*
X003371Y007603D02*
X002911Y007603D01*
X002989Y007681D02*
X003293Y007681D01*
X003214Y007760D02*
X003068Y007760D01*
X003071Y007838D02*
X003211Y007838D01*
X003211Y007917D02*
X003071Y007917D01*
X003071Y007995D02*
X003211Y007995D01*
X003211Y008074D02*
X003071Y008074D01*
X003038Y008153D02*
X003244Y008153D01*
X003323Y008231D02*
X002959Y008231D01*
X002881Y008310D02*
X003402Y008310D01*
X003451Y008481D02*
X003601Y008481D01*
X003601Y008901D01*
X003681Y008901D01*
X003681Y008481D01*
X003832Y008481D01*
X004101Y008751D01*
X004101Y008901D01*
X003681Y008901D01*
X003681Y008981D01*
X004101Y008981D01*
X004101Y009132D01*
X003832Y009401D01*
X003681Y009401D01*
X003681Y008981D01*
X003601Y008981D01*
X003601Y008901D01*
X003181Y008901D01*
X003181Y008751D01*
X003451Y008481D01*
X003386Y008545D02*
X002853Y008545D01*
X002932Y008624D02*
X003308Y008624D01*
X003229Y008702D02*
X003010Y008702D01*
X003071Y008781D02*
X003181Y008781D01*
X003181Y008859D02*
X003071Y008859D01*
X003071Y008938D02*
X003601Y008938D01*
X003601Y008981D02*
X003181Y008981D01*
X003181Y009132D01*
X003451Y009401D01*
X003601Y009401D01*
X003601Y008981D01*
X003601Y009016D02*
X003681Y009016D01*
X003681Y008938D02*
X005218Y008938D01*
X005139Y009016D02*
X004101Y009016D01*
X004101Y009095D02*
X005061Y009095D01*
X004982Y009174D02*
X004059Y009174D01*
X003981Y009252D02*
X004904Y009252D01*
X004825Y009331D02*
X003902Y009331D01*
X003681Y009331D02*
X003601Y009331D01*
X003601Y009252D02*
X003681Y009252D01*
X003681Y009174D02*
X003601Y009174D01*
X003601Y009095D02*
X003681Y009095D01*
X003681Y008859D02*
X003601Y008859D01*
X003601Y008781D02*
X003681Y008781D01*
X003681Y008702D02*
X003601Y008702D01*
X003601Y008624D02*
X003681Y008624D01*
X003681Y008545D02*
X003601Y008545D01*
X003181Y009016D02*
X003071Y009016D01*
X003071Y009095D02*
X003181Y009095D01*
X003223Y009174D02*
X003017Y009174D01*
X002938Y009252D02*
X003302Y009252D01*
X003380Y009331D02*
X002860Y009331D01*
X002399Y009409D02*
X004747Y009409D01*
X004668Y009488D02*
X002321Y009488D01*
X002242Y009566D02*
X004590Y009566D01*
X004511Y009645D02*
X002164Y009645D01*
X002085Y009723D02*
X004433Y009723D01*
X004354Y009802D02*
X002006Y009802D01*
X001928Y009880D02*
X004275Y009880D01*
X004197Y009959D02*
X001849Y009959D01*
X001771Y010038D02*
X004118Y010038D01*
X004040Y010116D02*
X001692Y010116D01*
X001658Y010195D02*
X003961Y010195D01*
X003883Y010273D02*
X001651Y010273D01*
X001619Y010352D02*
X003804Y010352D01*
X003726Y010430D02*
X001567Y010430D01*
X001485Y010509D02*
X003647Y010509D01*
X003569Y010587D02*
X001371Y010587D01*
X001519Y010666D02*
X003490Y010666D01*
X003411Y010744D02*
X001598Y010744D01*
X001171Y010587D02*
X001001Y010587D01*
X001001Y010509D02*
X001057Y010509D01*
X001023Y010666D02*
X001001Y010666D01*
X000681Y010666D02*
X000261Y010666D01*
X000261Y010744D02*
X000681Y010744D01*
X000681Y010823D02*
X000261Y010823D01*
X000261Y010902D02*
X000681Y010902D01*
X000681Y010980D02*
X000261Y010980D01*
X000261Y011059D02*
X000681Y011059D01*
X000681Y011137D02*
X000261Y011137D01*
X000261Y011216D02*
X000681Y011216D01*
X000681Y011294D02*
X000261Y011294D01*
X000261Y011373D02*
X000697Y011373D01*
X000775Y011451D02*
X000261Y011451D01*
X000261Y011530D02*
X000854Y011530D01*
X000932Y011608D02*
X000261Y011608D01*
X000261Y011687D02*
X000856Y011687D01*
X000728Y011766D02*
X000261Y011766D01*
X000261Y011844D02*
X000650Y011844D01*
X000571Y011923D02*
X000261Y011923D01*
X000261Y012001D02*
X000520Y012001D01*
X000487Y012080D02*
X000261Y012080D01*
X000261Y012158D02*
X000454Y012158D01*
X000422Y012237D02*
X000261Y012237D01*
X000261Y012315D02*
X000412Y012315D01*
X000412Y012394D02*
X000261Y012394D01*
X000261Y012472D02*
X000412Y012472D01*
X000412Y012551D02*
X000261Y012551D01*
X000261Y012629D02*
X000429Y012629D01*
X000462Y012708D02*
X000261Y012708D01*
X000261Y012787D02*
X000494Y012787D01*
X000527Y012865D02*
X000261Y012865D01*
X000261Y012944D02*
X000588Y012944D01*
X000667Y013022D02*
X000261Y013022D01*
X000261Y013101D02*
X000745Y013101D01*
X000898Y013179D02*
X000261Y013179D01*
X000261Y013258D02*
X010454Y013258D01*
X010454Y013336D02*
X000261Y013336D01*
X001584Y013179D02*
X010454Y013179D01*
X010454Y013101D02*
X001737Y013101D01*
X001815Y013022D02*
X010454Y013022D01*
X010454Y012944D02*
X008065Y012944D01*
X008046Y012962D02*
X008129Y012879D01*
X008174Y012771D01*
X008174Y012653D01*
X008129Y012545D01*
X008046Y012462D01*
X007938Y012417D01*
X007820Y012417D01*
X007712Y012462D01*
X007629Y012545D01*
X007584Y012653D01*
X007584Y012771D01*
X007629Y012879D01*
X007712Y012962D01*
X007820Y013007D01*
X007938Y013007D01*
X008046Y012962D01*
X008135Y012865D02*
X010454Y012865D01*
X010454Y012787D02*
X008168Y012787D01*
X008174Y012708D02*
X010454Y012708D01*
X010454Y012629D02*
X008164Y012629D01*
X008132Y012551D02*
X010454Y012551D01*
X010454Y012472D02*
X008057Y012472D01*
X007701Y012472D02*
X006877Y012472D01*
X006866Y012462D02*
X006949Y012545D01*
X006994Y012653D01*
X006994Y012771D01*
X006949Y012879D01*
X006866Y012962D01*
X006758Y013007D01*
X006640Y013007D01*
X006532Y012962D01*
X006449Y012879D01*
X006404Y012771D01*
X006404Y012653D01*
X006449Y012545D01*
X006532Y012462D01*
X006640Y012417D01*
X006758Y012417D01*
X006866Y012462D01*
X006952Y012551D02*
X007626Y012551D01*
X007594Y012629D02*
X006984Y012629D01*
X006994Y012708D02*
X007584Y012708D01*
X007591Y012787D02*
X006988Y012787D01*
X006955Y012865D02*
X007623Y012865D01*
X007694Y012944D02*
X006885Y012944D01*
X006514Y012944D02*
X001894Y012944D01*
X001956Y012865D02*
X006443Y012865D01*
X006411Y012787D02*
X001988Y012787D01*
X002021Y012708D02*
X006404Y012708D01*
X006414Y012629D02*
X002053Y012629D01*
X002070Y012551D02*
X006446Y012551D01*
X006521Y012472D02*
X002070Y012472D01*
X002070Y012394D02*
X010454Y012394D01*
X010454Y012315D02*
X002070Y012315D01*
X002060Y012237D02*
X010454Y012237D01*
X010454Y012158D02*
X002028Y012158D01*
X002053Y012080D02*
X001995Y012080D01*
X001975Y012001D02*
X001963Y012001D01*
X002192Y011766D02*
X006867Y011766D01*
X006876Y011769D02*
X006755Y011719D01*
X006663Y011627D01*
X006613Y011506D01*
X006613Y011376D01*
X006624Y011350D01*
X006567Y011293D01*
X005353Y011507D01*
X005278Y011455D01*
X005185Y010928D01*
X005068Y010928D01*
X004977Y011019D01*
X004856Y011069D01*
X005016Y010980D02*
X005194Y010980D01*
X005125Y010587D02*
X005083Y010587D01*
X005111Y010509D02*
X005023Y010509D01*
X005098Y010430D02*
X004898Y010430D01*
X004684Y010430D02*
X004178Y010430D01*
X004257Y010352D02*
X005109Y010352D01*
X005326Y010273D02*
X004335Y010273D01*
X004414Y010195D02*
X005771Y010195D01*
X006217Y010116D02*
X004492Y010116D01*
X004571Y010038D02*
X006662Y010038D01*
X006719Y010038D02*
X007331Y010038D01*
X007258Y010116D02*
X006789Y010116D01*
X006802Y010195D02*
X007226Y010195D01*
X007213Y010273D02*
X006816Y010273D01*
X006830Y010352D02*
X007213Y010352D01*
X007244Y010430D02*
X006844Y010430D01*
X006858Y010509D02*
X007295Y010509D01*
X007381Y010587D02*
X006872Y010587D01*
X006886Y010666D02*
X007381Y010666D01*
X007381Y010744D02*
X006899Y010744D01*
X006913Y010823D02*
X007381Y010823D01*
X007381Y010902D02*
X006927Y010902D01*
X006941Y010980D02*
X007381Y010980D01*
X007381Y011059D02*
X006955Y011059D01*
X007065Y011137D02*
X007381Y011137D01*
X007381Y011216D02*
X007180Y011216D01*
X007235Y011294D02*
X007381Y011294D01*
X007381Y011373D02*
X007268Y011373D01*
X007269Y011451D02*
X007305Y011451D01*
X007521Y011687D02*
X010454Y011687D01*
X010454Y011766D02*
X007443Y011766D01*
X007364Y011844D02*
X010454Y011844D01*
X010454Y011923D02*
X007286Y011923D01*
X007207Y012001D02*
X010454Y012001D01*
X010454Y012080D02*
X007129Y012080D01*
X006975Y011781D02*
X006987Y011769D01*
X006876Y011769D01*
X006975Y011781D02*
X002207Y011781D01*
X001901Y011475D01*
X001807Y011381D01*
X001157Y011381D01*
X001083Y011307D01*
X001194Y011353D01*
X001348Y011353D01*
X001490Y011294D01*
X001149Y011373D02*
X005264Y011373D01*
X005278Y011451D02*
X001878Y011451D01*
X001956Y011530D02*
X006623Y011530D01*
X006613Y011451D02*
X005669Y011451D01*
X006115Y011373D02*
X006614Y011373D01*
X006568Y011294D02*
X006560Y011294D01*
X006655Y011608D02*
X002035Y011608D01*
X002113Y011687D02*
X006723Y011687D01*
X007600Y011608D02*
X008922Y011608D01*
X008907Y011602D02*
X008823Y011518D01*
X008777Y011408D01*
X008777Y011288D01*
X008823Y011178D01*
X008907Y011094D01*
X009018Y011048D01*
X009137Y011048D01*
X009247Y011094D01*
X009332Y011178D01*
X009377Y011288D01*
X009377Y011408D01*
X009332Y011518D01*
X009247Y011602D01*
X009137Y011648D01*
X009018Y011648D01*
X008907Y011602D01*
X008835Y011530D02*
X007679Y011530D01*
X007701Y011451D02*
X008795Y011451D01*
X008777Y011373D02*
X007701Y011373D01*
X007701Y011294D02*
X008777Y011294D01*
X008807Y011216D02*
X007701Y011216D01*
X007701Y011137D02*
X008864Y011137D01*
X008992Y011059D02*
X007701Y011059D01*
X007701Y010980D02*
X009545Y010980D01*
X009545Y011043D02*
X009545Y010888D01*
X009604Y010746D01*
X009713Y010637D01*
X009855Y010578D01*
X010009Y010578D01*
X010152Y010637D01*
X010261Y010746D01*
X010320Y010888D01*
X010320Y011043D01*
X010261Y011185D01*
X010152Y011294D01*
X010009Y011353D01*
X009855Y011353D01*
X009713Y011294D01*
X009604Y011185D01*
X009545Y011043D01*
X009552Y011059D02*
X009163Y011059D01*
X009291Y011137D02*
X009584Y011137D01*
X009635Y011216D02*
X009347Y011216D01*
X009377Y011294D02*
X009714Y011294D01*
X009377Y011373D02*
X010454Y011373D01*
X010454Y011451D02*
X009359Y011451D01*
X009320Y011530D02*
X010454Y011530D01*
X010454Y011608D02*
X009233Y011608D01*
X009545Y010902D02*
X007701Y010902D01*
X007701Y010823D02*
X009572Y010823D01*
X009606Y010744D02*
X007701Y010744D01*
X007701Y010666D02*
X009684Y010666D01*
X009718Y010509D02*
X007787Y010509D01*
X007839Y010430D02*
X009637Y010430D01*
X009604Y010398D02*
X009545Y010255D01*
X009545Y010101D01*
X009604Y009959D01*
X004649Y009959D01*
X004728Y009880D02*
X009682Y009880D01*
X009713Y009850D02*
X009855Y009791D01*
X010009Y009791D01*
X010152Y009850D01*
X010261Y009959D01*
X010454Y009959D01*
X010454Y009880D02*
X010183Y009880D01*
X010261Y009959D02*
X010320Y010101D01*
X010320Y010255D01*
X010261Y010398D01*
X010152Y010507D01*
X010009Y010566D01*
X009855Y010566D01*
X009713Y010507D01*
X009604Y010398D01*
X009585Y010352D02*
X007869Y010352D01*
X007869Y010273D02*
X009552Y010273D01*
X009545Y010195D02*
X007856Y010195D01*
X007824Y010116D02*
X009545Y010116D01*
X009571Y010038D02*
X007752Y010038D01*
X007701Y010587D02*
X009833Y010587D01*
X010032Y010587D02*
X010454Y010587D01*
X010454Y010509D02*
X010146Y010509D01*
X010228Y010430D02*
X010454Y010430D01*
X010454Y010352D02*
X010280Y010352D01*
X010312Y010273D02*
X010454Y010273D01*
X010454Y010195D02*
X010320Y010195D01*
X010320Y010116D02*
X010454Y010116D01*
X010454Y010038D02*
X010294Y010038D01*
X010454Y009802D02*
X010037Y009802D01*
X010009Y009778D02*
X009855Y009778D01*
X009713Y009719D01*
X009604Y009610D01*
X009545Y009468D01*
X009545Y009314D01*
X009604Y009171D01*
X009713Y009062D01*
X009855Y009003D01*
X010009Y009003D01*
X010152Y009062D01*
X010261Y009171D01*
X010320Y009314D01*
X010320Y009468D01*
X010261Y009610D01*
X010152Y009719D01*
X010009Y009778D01*
X010142Y009723D02*
X010454Y009723D01*
X010454Y009645D02*
X010226Y009645D01*
X010279Y009566D02*
X010454Y009566D01*
X010454Y009488D02*
X010312Y009488D01*
X010320Y009409D02*
X010454Y009409D01*
X010454Y009331D02*
X010320Y009331D01*
X010294Y009252D02*
X010454Y009252D01*
X010454Y009174D02*
X010262Y009174D01*
X010185Y009095D02*
X010454Y009095D01*
X010454Y009016D02*
X010041Y009016D01*
X010009Y008991D02*
X009855Y008991D01*
X009713Y008932D01*
X009604Y008823D01*
X009574Y008751D01*
X008325Y008751D01*
X008231Y008657D01*
X007632Y008058D01*
X007606Y008069D01*
X007476Y008069D01*
X007355Y008019D01*
X007263Y007927D01*
X007213Y007806D01*
X007213Y007676D01*
X007263Y007555D01*
X007355Y007463D01*
X007476Y007413D01*
X007606Y007413D01*
X007727Y007463D01*
X007819Y007555D01*
X007869Y007676D01*
X007869Y007806D01*
X007858Y007832D01*
X008213Y008187D01*
X008213Y008076D01*
X008263Y007955D01*
X008355Y007863D01*
X008476Y007813D01*
X008606Y007813D01*
X008727Y007863D01*
X008819Y007955D01*
X008869Y008076D01*
X008869Y008206D01*
X008819Y008327D01*
X008727Y008419D01*
X008698Y008431D01*
X009584Y008431D01*
X009604Y008384D01*
X009713Y008275D01*
X009855Y008216D01*
X010009Y008216D01*
X010152Y008275D01*
X010261Y008384D01*
X010320Y008526D01*
X010320Y008680D01*
X010261Y008823D01*
X010152Y008932D01*
X010009Y008991D01*
X010137Y008938D02*
X010454Y008938D01*
X010454Y008859D02*
X010224Y008859D01*
X010278Y008781D02*
X010454Y008781D01*
X010454Y008702D02*
X010311Y008702D01*
X010320Y008624D02*
X010454Y008624D01*
X010454Y008545D02*
X010320Y008545D01*
X010295Y008467D02*
X010454Y008467D01*
X010454Y008388D02*
X010263Y008388D01*
X010187Y008310D02*
X010454Y008310D01*
X010454Y008231D02*
X010046Y008231D01*
X010132Y008153D02*
X010454Y008153D01*
X010454Y008074D02*
X010222Y008074D01*
X010277Y007995D02*
X010454Y007995D01*
X010454Y007917D02*
X010310Y007917D01*
X010320Y007838D02*
X010454Y007838D01*
X010454Y007760D02*
X010320Y007760D01*
X010296Y007681D02*
X010454Y007681D01*
X010454Y007603D02*
X010372Y007603D01*
X010450Y007524D02*
X010454Y007524D01*
X010231Y007289D02*
X010220Y007289D01*
X010155Y007367D02*
X010127Y007367D01*
X010076Y007446D02*
X010051Y007446D01*
X009814Y007446D02*
X007685Y007446D01*
X007788Y007524D02*
X009676Y007524D01*
X009601Y007603D02*
X007839Y007603D01*
X007869Y007681D02*
X009569Y007681D01*
X009545Y007760D02*
X007869Y007760D01*
X007865Y007838D02*
X008415Y007838D01*
X008301Y007917D02*
X007943Y007917D01*
X008022Y007995D02*
X008246Y007995D01*
X008214Y008074D02*
X008100Y008074D01*
X008179Y008153D02*
X008213Y008153D01*
X007962Y008388D02*
X006458Y008388D01*
X006526Y008310D02*
X007883Y008310D01*
X007805Y008231D02*
X006559Y008231D01*
X006569Y008153D02*
X007726Y008153D01*
X007648Y008074D02*
X006568Y008074D01*
X006536Y007995D02*
X007331Y007995D01*
X007259Y007917D02*
X006481Y007917D01*
X006368Y007838D02*
X007226Y007838D01*
X007213Y007760D02*
X006086Y007760D01*
X006007Y007681D02*
X007213Y007681D01*
X007243Y007603D02*
X005929Y007603D01*
X005850Y007524D02*
X007294Y007524D01*
X007397Y007446D02*
X006863Y007446D01*
X006941Y007367D02*
X009737Y007367D01*
X009645Y007289D02*
X007020Y007289D01*
X007098Y007210D02*
X009588Y007210D01*
X009556Y007131D02*
X007177Y007131D01*
X007256Y007053D02*
X009545Y007053D01*
X009545Y006974D02*
X007334Y006974D01*
X007413Y006896D02*
X009568Y006896D01*
X009601Y006817D02*
X007491Y006817D01*
X007570Y006739D02*
X009674Y006739D01*
X009809Y006660D02*
X007648Y006660D01*
X007727Y006582D02*
X009742Y006582D01*
X009646Y006503D02*
X007805Y006503D01*
X007884Y006425D02*
X009589Y006425D01*
X009557Y006346D02*
X007962Y006346D01*
X008041Y006267D02*
X009545Y006267D01*
X009545Y006189D02*
X008119Y006189D01*
X008198Y006110D02*
X009567Y006110D01*
X009600Y006032D02*
X008277Y006032D01*
X008355Y005953D02*
X009672Y005953D01*
X009747Y005796D02*
X008512Y005796D01*
X008591Y005718D02*
X009648Y005718D01*
X009590Y005639D02*
X008669Y005639D01*
X008748Y005561D02*
X008997Y005561D01*
X008918Y005482D02*
X008826Y005482D01*
X008434Y005875D02*
X009804Y005875D01*
X010061Y005875D02*
X010231Y005875D01*
X010231Y005953D02*
X010193Y005953D01*
X010231Y005796D02*
X010118Y005796D01*
X010216Y005718D02*
X010231Y005718D01*
X010231Y005168D02*
X010195Y005168D01*
X010231Y005089D02*
X010065Y005089D01*
X010113Y005011D02*
X010231Y005011D01*
X010231Y004932D02*
X010214Y004932D01*
X009800Y005089D02*
X009453Y005089D01*
X009485Y005011D02*
X009752Y005011D01*
X009650Y004932D02*
X009564Y004932D01*
X009495Y005168D02*
X009670Y005168D01*
X009599Y005246D02*
X009519Y005246D01*
X009519Y005325D02*
X009566Y005325D01*
X009545Y005404D02*
X009500Y005404D01*
X009464Y005482D02*
X009545Y005482D01*
X009557Y005561D02*
X009386Y005561D01*
X010123Y006582D02*
X010231Y006582D01*
X010231Y006660D02*
X010056Y006660D01*
X010191Y006739D02*
X010231Y006739D01*
X010218Y006503D02*
X010231Y006503D01*
X009545Y007838D02*
X008668Y007838D01*
X008781Y007917D02*
X009555Y007917D01*
X009587Y007995D02*
X008836Y007995D01*
X008868Y008074D02*
X009643Y008074D01*
X009733Y008153D02*
X008869Y008153D01*
X008859Y008231D02*
X009819Y008231D01*
X009678Y008310D02*
X008826Y008310D01*
X008758Y008388D02*
X009602Y008388D01*
X009587Y008781D02*
X005828Y008781D01*
X005906Y008702D02*
X008276Y008702D01*
X008198Y008624D02*
X005985Y008624D01*
X006063Y008545D02*
X008119Y008545D01*
X008040Y008467D02*
X006312Y008467D01*
X006170Y008467D02*
X006142Y008467D01*
X005923Y008231D02*
X004959Y008231D01*
X004881Y008310D02*
X005846Y008310D01*
X005768Y008388D02*
X002420Y008388D01*
X004101Y008781D02*
X005375Y008781D01*
X005296Y008859D02*
X004101Y008859D01*
X004806Y009802D02*
X009828Y009802D01*
X009713Y009850D02*
X009604Y009959D01*
X009723Y009723D02*
X004885Y009723D01*
X004964Y009645D02*
X009639Y009645D01*
X009586Y009566D02*
X005042Y009566D01*
X005121Y009488D02*
X009553Y009488D01*
X009545Y009409D02*
X005199Y009409D01*
X005278Y009331D02*
X009545Y009331D01*
X009570Y009252D02*
X005356Y009252D01*
X005435Y009174D02*
X009603Y009174D01*
X009680Y009095D02*
X005513Y009095D01*
X005592Y009016D02*
X009823Y009016D01*
X009728Y008938D02*
X005670Y008938D01*
X005749Y008859D02*
X009641Y008859D01*
X010181Y010666D02*
X010454Y010666D01*
X010454Y010744D02*
X010259Y010744D01*
X010293Y010823D02*
X010454Y010823D01*
X010454Y010902D02*
X010320Y010902D01*
X010320Y010980D02*
X010454Y010980D01*
X010454Y011059D02*
X010313Y011059D01*
X010281Y011137D02*
X010454Y011137D01*
X010454Y011216D02*
X010230Y011216D01*
X010151Y011294D02*
X010454Y011294D01*
X005914Y008074D02*
X005071Y008074D01*
X005071Y007995D02*
X005869Y007995D01*
X005791Y007917D02*
X005071Y007917D01*
X005071Y007838D02*
X005712Y007838D01*
X005634Y007760D02*
X005068Y007760D01*
X004989Y007681D02*
X005205Y007681D01*
X005181Y007657D02*
X005181Y007657D01*
X005126Y007603D02*
X004911Y007603D01*
X004832Y007524D02*
X005048Y007524D01*
X005038Y008153D02*
X005913Y008153D01*
X004559Y010509D02*
X004100Y010509D01*
X004021Y010587D02*
X004500Y010587D01*
X004467Y010666D02*
X003943Y010666D01*
X003864Y010744D02*
X004463Y010744D01*
X004470Y010823D02*
X003785Y010823D01*
X003707Y010902D02*
X004502Y010902D01*
X004566Y010980D02*
X003628Y010980D01*
X003550Y011059D02*
X004700Y011059D01*
X000681Y010587D02*
X000261Y010587D01*
X000261Y010509D02*
X000681Y010509D01*
X000681Y010430D02*
X000261Y010430D01*
X000261Y010352D02*
X000681Y010352D01*
X000681Y010273D02*
X000261Y010273D01*
X000261Y010195D02*
X000681Y010195D01*
X000681Y010116D02*
X000261Y010116D01*
X000261Y010038D02*
X000681Y010038D01*
X000681Y009959D02*
X000261Y009959D01*
X000261Y009880D02*
X000681Y009880D01*
X000681Y009802D02*
X000261Y009802D01*
X002550Y005246D02*
X003531Y005246D01*
X003531Y005168D02*
X002594Y005168D01*
X002619Y005089D02*
X003531Y005089D01*
X003531Y005011D02*
X002619Y005011D01*
X002601Y004932D02*
X003531Y004932D01*
X003531Y004854D02*
X002568Y004854D01*
X002489Y004775D02*
X003531Y004775D01*
X003851Y004775D02*
X004234Y004775D01*
X004213Y004854D02*
X003851Y004854D01*
X003851Y004932D02*
X004213Y004932D01*
X004236Y005011D02*
X003851Y005011D01*
X003851Y005089D02*
X004275Y005089D01*
X004354Y005168D02*
X003851Y005168D01*
X003851Y005246D02*
X004381Y005246D01*
X004381Y005325D02*
X003851Y005325D01*
X003851Y005404D02*
X004381Y005404D01*
X004381Y005482D02*
X003851Y005482D01*
X003851Y004697D02*
X004272Y004697D01*
X003851Y004461D02*
X005495Y004461D01*
X005573Y004382D02*
X003851Y004382D01*
X003780Y004304D02*
X005652Y004304D01*
X005681Y004225D02*
X003702Y004225D01*
X003623Y004147D02*
X003973Y004147D01*
X003945Y004068D02*
X003544Y004068D01*
X003466Y003990D02*
X003931Y003990D01*
X003918Y003911D02*
X003387Y003911D01*
X003309Y003833D02*
X003904Y003833D01*
X003890Y003754D02*
X003230Y003754D01*
X003152Y003676D02*
X003876Y003676D01*
X003819Y002371D02*
X003463Y002371D01*
X003211Y002119D01*
X003211Y001763D01*
X003463Y001511D01*
X003819Y001511D01*
X004071Y001763D01*
X004071Y002119D01*
X003819Y002371D01*
X003850Y002340D02*
X004432Y002340D01*
X004354Y002262D02*
X003928Y002262D01*
X004007Y002183D02*
X004275Y002183D01*
X004211Y002105D02*
X004071Y002105D01*
X004071Y002026D02*
X004211Y002026D01*
X004211Y001948D02*
X004071Y001948D01*
X004071Y001869D02*
X004211Y001869D01*
X004211Y001791D02*
X004071Y001791D01*
X004020Y001712D02*
X004262Y001712D01*
X004341Y001633D02*
X003941Y001633D01*
X003863Y001555D02*
X004419Y001555D01*
X004411Y001319D02*
X003871Y001319D01*
X003819Y001371D02*
X003463Y001371D01*
X003211Y001119D01*
X003211Y000763D01*
X003463Y000511D01*
X003819Y000511D01*
X004071Y000763D01*
X004071Y001119D01*
X003819Y001371D01*
X003950Y001241D02*
X004333Y001241D01*
X004254Y001162D02*
X004028Y001162D01*
X004071Y001084D02*
X004211Y001084D01*
X004211Y001005D02*
X004071Y001005D01*
X004071Y000927D02*
X004211Y000927D01*
X004211Y000848D02*
X004071Y000848D01*
X004071Y000769D02*
X004211Y000769D01*
X004283Y000691D02*
X003999Y000691D01*
X003920Y000612D02*
X004362Y000612D01*
X004440Y000534D02*
X003842Y000534D01*
X003440Y000534D02*
X002842Y000534D01*
X002920Y000612D02*
X003362Y000612D01*
X003283Y000691D02*
X002999Y000691D01*
X003071Y000769D02*
X003211Y000769D01*
X003211Y000848D02*
X003071Y000848D01*
X003071Y000927D02*
X003211Y000927D01*
X003211Y001005D02*
X003071Y001005D01*
X003071Y001084D02*
X003211Y001084D01*
X003254Y001162D02*
X003028Y001162D01*
X002950Y001241D02*
X003333Y001241D01*
X003411Y001319D02*
X002871Y001319D01*
X002863Y001555D02*
X003419Y001555D01*
X003341Y001633D02*
X002941Y001633D01*
X003020Y001712D02*
X003262Y001712D01*
X003211Y001791D02*
X003071Y001791D01*
X003071Y001869D02*
X003211Y001869D01*
X003211Y001948D02*
X003071Y001948D01*
X003071Y002026D02*
X003211Y002026D01*
X003211Y002105D02*
X003071Y002105D01*
X003007Y002183D02*
X003275Y002183D01*
X003354Y002262D02*
X002928Y002262D01*
X002850Y002340D02*
X003432Y002340D01*
X002432Y002340D02*
X002301Y002340D01*
X002301Y002262D02*
X002354Y002262D01*
X001981Y002262D02*
X001971Y002262D01*
X001981Y002340D02*
X001892Y002340D01*
X001681Y002340D02*
X001601Y002340D01*
X001601Y002262D02*
X001681Y002262D01*
X001681Y002183D02*
X001601Y002183D01*
X001601Y002105D02*
X001681Y002105D01*
X001681Y002026D02*
X001601Y002026D01*
X001601Y001901D02*
X001681Y001901D01*
X001681Y001481D01*
X001813Y001481D01*
X001813Y001376D01*
X001815Y001371D01*
X001487Y001371D01*
X001301Y001557D01*
X001301Y001631D01*
X001451Y001481D01*
X001601Y001481D01*
X001601Y001901D01*
X001601Y001869D02*
X001681Y001869D01*
X001681Y001791D02*
X001601Y001791D01*
X001601Y001712D02*
X001681Y001712D01*
X001681Y001633D02*
X001601Y001633D01*
X001601Y001555D02*
X001681Y001555D01*
X001813Y001476D02*
X001382Y001476D01*
X001377Y001555D02*
X001304Y001555D01*
X001461Y001398D02*
X001813Y001398D01*
X002071Y001084D02*
X002211Y001084D01*
X002211Y001005D02*
X002071Y001005D01*
X002071Y000927D02*
X002211Y000927D01*
X002211Y000848D02*
X002071Y000848D01*
X002071Y000769D02*
X002211Y000769D01*
X002283Y000691D02*
X001999Y000691D01*
X001920Y000612D02*
X002362Y000612D01*
X002440Y000534D02*
X001842Y000534D01*
X001311Y002262D02*
X001301Y002262D01*
X005628Y003361D02*
X005681Y003361D01*
X005681Y003440D02*
X005642Y003440D01*
X005656Y003518D02*
X005681Y003518D01*
X005670Y003597D02*
X005681Y003597D01*
X006941Y001633D02*
X007022Y001633D01*
X007101Y001555D02*
X006863Y001555D01*
D14*
X006791Y003841D03*
X005441Y005191D03*
X005041Y005541D03*
X005391Y005941D03*
X004741Y006391D03*
X004041Y005541D03*
X003691Y006091D03*
X004541Y004891D03*
X002841Y003041D03*
X001641Y002841D03*
X002141Y001441D03*
X002291Y005041D03*
X002191Y006441D03*
X004791Y010741D03*
X006241Y008141D03*
X007141Y008541D03*
X007541Y007741D03*
X007541Y007141D03*
X007191Y005891D03*
X006441Y006941D03*
X008541Y008141D03*
X007541Y010291D03*
X006941Y011441D03*
X010241Y011541D03*
X009191Y005291D03*
X009291Y004741D03*
X008541Y004291D03*
X009091Y003291D03*
X008641Y002941D03*
D15*
X008641Y003641D01*
X007541Y004741D01*
X006941Y004741D01*
X005741Y005941D01*
X005391Y005941D01*
X005191Y006291D02*
X004541Y005641D01*
X004291Y005891D01*
X004291Y006541D01*
X003641Y006541D01*
X003641Y007941D01*
X002641Y007941D02*
X001271Y009311D01*
X001271Y009391D01*
X001271Y010178D02*
X001404Y010178D01*
X002641Y008941D01*
X000841Y007458D02*
X001271Y007029D01*
X000841Y007458D02*
X000841Y011291D01*
X001091Y011541D01*
X001741Y011541D01*
X002141Y011941D01*
X007041Y011941D01*
X007541Y011441D01*
X007541Y010291D01*
X006941Y011441D02*
X006241Y010741D01*
X006058Y010741D01*
X006030Y010768D01*
X004818Y010768D01*
X004791Y010741D01*
X003417Y010966D02*
X006241Y008141D01*
X005691Y007591D01*
X005341Y007591D01*
X004291Y006541D01*
X004741Y006391D02*
X005691Y007341D01*
X006741Y007341D01*
X008791Y005291D01*
X009191Y005291D01*
X009241Y004741D02*
X009291Y004741D01*
X008991Y004741D01*
X007841Y005891D01*
X007191Y005891D01*
X007091Y005491D02*
X006541Y006041D01*
X006541Y006841D01*
X006441Y006941D01*
X005991Y006291D02*
X007041Y005241D01*
X007591Y005241D01*
X008541Y004291D01*
X008941Y004741D02*
X008991Y004741D01*
X009091Y004291D02*
X007891Y005491D01*
X007091Y005491D01*
X006141Y005141D02*
X006141Y002641D01*
X006341Y002441D01*
X006891Y002441D01*
X007141Y002191D01*
X007141Y001741D01*
X007441Y001441D01*
X008141Y001441D01*
X008641Y000941D01*
X007841Y002441D02*
X010341Y002441D01*
X010391Y002491D01*
X010391Y007357D01*
X009932Y007816D01*
X009920Y008591D02*
X009932Y008603D01*
X009920Y008591D02*
X008391Y008591D01*
X007541Y007741D01*
X007141Y007541D02*
X007141Y008541D01*
X007141Y008741D01*
X009941Y011541D01*
X010241Y011541D01*
X007141Y007541D02*
X007541Y007141D01*
X005741Y005541D02*
X006141Y005141D01*
X005741Y005541D02*
X005041Y005541D01*
X004541Y005641D02*
X004541Y004891D01*
X004041Y004841D02*
X004041Y005541D01*
X003691Y006091D02*
X003691Y004441D01*
X002141Y002891D01*
X002141Y001441D01*
X001641Y000991D02*
X001641Y000941D01*
X001641Y000991D02*
X001141Y001491D01*
X001141Y003041D01*
X001741Y003641D01*
X001741Y005991D01*
X002191Y006441D01*
X002291Y005891D02*
X002941Y006541D01*
X003641Y006541D01*
X002291Y005891D02*
X002291Y005041D01*
X003241Y003441D02*
X004738Y003441D01*
X004738Y004144D01*
X004041Y004841D01*
X003241Y003441D02*
X002841Y003041D01*
X001641Y002841D02*
X001641Y001941D01*
X005191Y006291D02*
X005991Y006291D01*
X005441Y005191D02*
X005441Y004741D01*
X005841Y004341D01*
X005841Y002541D01*
X006141Y002241D01*
X006141Y001441D01*
X006641Y000941D01*
X007841Y002441D02*
X006791Y003491D01*
X006791Y003841D01*
X007541Y003841D01*
X007641Y003941D01*
X009091Y004291D02*
X009091Y003341D01*
X009516Y003241D02*
X009641Y003241D01*
X009641Y002941D01*
X009516Y003241D02*
X009516Y004216D01*
X009941Y004641D01*
X003417Y010966D02*
X001271Y010966D01*
M02*
