G75*
G70*
%OFA0B0*%
%FSLAX24Y24*%
%IPPOS*%
%LPD*%
%AMOC8*
5,1,8,0,0,1.08239X$1,22.5*
%
%ADD10C,0.0040*%
%ADD11R,0.0500X0.0220*%
%ADD12R,0.0220X0.0500*%
%ADD13C,0.0555*%
%ADD14R,0.0472X0.0217*%
%ADD15R,0.0354X0.0276*%
%ADD16R,0.0276X0.0354*%
%ADD17R,0.0394X0.1811*%
%ADD18R,0.0630X0.1339*%
%ADD19R,0.0315X0.0315*%
%ADD20R,0.0591X0.0512*%
%ADD21R,0.0394X0.0709*%
%ADD22R,0.0472X0.0197*%
%ADD23R,0.0197X0.0472*%
%ADD24R,0.0669X0.0276*%
%ADD25R,0.0390X0.0320*%
%ADD26R,0.0280X0.0590*%
%ADD27OC8,0.0640*%
%ADD28C,0.0100*%
%ADD29C,0.0080*%
%ADD30C,0.0436*%
D10*
X008869Y009391D02*
X008869Y009457D01*
X008902Y009491D01*
X009035Y009357D01*
X009069Y009391D01*
X009069Y009457D01*
X009035Y009491D01*
X008902Y009491D01*
X008935Y009578D02*
X008869Y009645D01*
X009069Y009645D01*
X009069Y009578D02*
X009069Y009712D01*
X009069Y009799D02*
X008869Y009933D01*
X008902Y010020D02*
X008869Y010053D01*
X008869Y010120D01*
X008902Y010154D01*
X008935Y010154D01*
X009069Y010020D01*
X009069Y010154D01*
X009035Y010241D02*
X008902Y010375D01*
X009035Y010375D01*
X009069Y010341D01*
X009069Y010274D01*
X009035Y010241D01*
X008902Y010241D01*
X008869Y010274D01*
X008869Y010341D01*
X008902Y010375D01*
X008935Y010462D02*
X008869Y010529D01*
X009069Y010529D01*
X009069Y010462D02*
X009069Y010596D01*
X009069Y010683D02*
X009069Y010816D01*
X009069Y010750D02*
X008869Y010750D01*
X008935Y010683D01*
X008869Y009391D02*
X008902Y009357D01*
X009035Y009357D01*
D11*
X006465Y006462D03*
X006465Y006147D03*
X006465Y005832D03*
X006465Y005517D03*
X006465Y005202D03*
X006465Y004887D03*
X006465Y004572D03*
X006465Y004257D03*
X003085Y004257D03*
X003085Y004572D03*
X003085Y004887D03*
X003085Y005202D03*
X003085Y005517D03*
X003085Y005832D03*
X003085Y006147D03*
X003085Y006462D03*
D12*
X003673Y007049D03*
X003988Y007049D03*
X004303Y007049D03*
X004617Y007049D03*
X004932Y007049D03*
X005247Y007049D03*
X005562Y007049D03*
X005877Y007049D03*
X005877Y003669D03*
X005562Y003669D03*
X005247Y003669D03*
X004932Y003669D03*
X004617Y003669D03*
X004303Y003669D03*
X003988Y003669D03*
X003673Y003669D03*
D13*
X001271Y003879D03*
X001271Y004666D03*
X001271Y005454D03*
X001271Y006241D03*
X001271Y007029D03*
X001271Y007816D03*
X001271Y008603D03*
X001271Y009391D03*
X001271Y010178D03*
X001271Y010966D03*
X009932Y010966D03*
X009932Y010178D03*
X009932Y009391D03*
X009932Y008603D03*
X009932Y007816D03*
X009932Y007029D03*
X009932Y006241D03*
X009932Y005454D03*
X009932Y004666D03*
X009932Y003879D03*
D14*
X006953Y008967D03*
X006953Y009715D03*
X005929Y009715D03*
X005929Y009341D03*
X005929Y008967D03*
D15*
X007591Y010735D03*
X007591Y011247D03*
X008241Y011247D03*
X008241Y010735D03*
X009041Y008697D03*
X009041Y008185D03*
X007373Y005418D03*
X007373Y004906D03*
X002277Y005484D03*
X002277Y005996D03*
D16*
X005285Y007741D03*
X005285Y008241D03*
X005797Y008241D03*
X005797Y007741D03*
X008070Y005099D03*
X008582Y005099D03*
X008420Y003779D03*
X008932Y003779D03*
D17*
X004135Y010584D03*
X003347Y010584D03*
D18*
X002403Y012632D03*
X005080Y012632D03*
D19*
X009646Y012591D03*
X009646Y013141D03*
X010236Y013141D03*
X010236Y012591D03*
X010236Y012031D03*
X009646Y012031D03*
D20*
X007741Y009715D03*
X007741Y008967D03*
X005041Y008967D03*
X005041Y009715D03*
D21*
X005790Y010641D03*
X006892Y010641D03*
D22*
X008093Y007473D03*
X008093Y007158D03*
X008093Y006843D03*
X008093Y006528D03*
X008093Y006213D03*
X008093Y005898D03*
X008959Y005898D03*
X008959Y006213D03*
X008959Y006528D03*
X008959Y006843D03*
X008959Y007158D03*
X008959Y007473D03*
D23*
X008526Y007512D03*
X008526Y005858D03*
D24*
X002295Y004547D03*
X002295Y004075D03*
X002295Y003603D03*
D25*
X005854Y012277D03*
X005854Y013147D03*
X008724Y013147D03*
X008724Y012277D03*
D26*
X008169Y012027D03*
X006989Y012027D03*
X006399Y012027D03*
D27*
X003641Y008941D03*
X003641Y007941D03*
X002641Y007941D03*
X002641Y008941D03*
X004641Y007941D03*
X007641Y003941D03*
X006641Y002941D03*
X006641Y001941D03*
X006641Y000941D03*
X005641Y000941D03*
X005641Y001941D03*
X004641Y001941D03*
X004641Y000941D03*
X003641Y000941D03*
X003641Y001941D03*
X002641Y001941D03*
X002641Y000941D03*
X001641Y000941D03*
X001641Y001941D03*
X000641Y001941D03*
X000641Y000941D03*
X007641Y000941D03*
X007641Y001941D03*
X008641Y001941D03*
X008641Y000941D03*
X009641Y000941D03*
X009641Y001941D03*
X009641Y002941D03*
D28*
X009141Y003241D02*
X009091Y003291D01*
X009141Y003241D02*
X009141Y001441D01*
X009641Y000941D01*
X009941Y000391D02*
X010391Y000841D01*
X010391Y004191D01*
X009932Y004650D01*
X009932Y004666D01*
X009441Y004741D02*
X009291Y004741D01*
X009441Y004741D02*
X009441Y003741D01*
X009491Y003741D01*
X010141Y003091D01*
X010141Y002241D01*
X009841Y001941D01*
X009641Y001941D01*
X008641Y001941D02*
X008641Y002941D01*
X008141Y002989D02*
X008932Y003779D01*
X008932Y005032D01*
X009191Y005291D01*
X009191Y005441D01*
X008691Y005441D01*
X008541Y005591D01*
X008541Y005843D01*
X008526Y005858D01*
X008341Y006241D02*
X008391Y006291D01*
X008691Y006291D01*
X008741Y006241D01*
X008930Y006241D01*
X008959Y006213D01*
X008995Y006491D02*
X008959Y006528D01*
X008995Y006491D02*
X009241Y006491D01*
X009341Y006591D01*
X009341Y007291D01*
X009160Y007473D01*
X008959Y007473D01*
X008919Y007512D02*
X008526Y007512D01*
X008541Y007527D01*
X008541Y008141D01*
X006241Y008141D01*
X006141Y008241D01*
X005797Y008241D01*
X005467Y008541D02*
X005041Y008967D01*
X005267Y008967D01*
X005591Y009291D01*
X005879Y009291D01*
X005929Y009341D01*
X005953Y009691D02*
X005929Y009715D01*
X005929Y010502D01*
X005790Y010641D01*
X005790Y010464D01*
X005041Y009715D01*
X004791Y010741D02*
X004291Y010741D01*
X004135Y010584D01*
X004141Y009441D02*
X002641Y009441D01*
X002641Y008941D01*
X002641Y007941D02*
X002641Y007441D01*
X003988Y007441D01*
X003988Y007049D01*
X004303Y007049D02*
X004303Y007480D01*
X004141Y007641D01*
X004141Y009441D01*
X004941Y008241D02*
X004641Y007941D01*
X004841Y007741D01*
X005285Y007741D01*
X005341Y007441D02*
X006641Y007441D01*
X006941Y007141D01*
X006941Y006641D01*
X007684Y005898D01*
X008093Y005898D01*
X008091Y005896D01*
X008091Y005120D01*
X008070Y005099D01*
X008141Y005027D01*
X008141Y003241D01*
X007641Y002741D01*
X007641Y001941D01*
X008141Y001441D02*
X008141Y002989D01*
X008420Y003779D02*
X008420Y004170D01*
X008541Y004291D01*
X008591Y004341D01*
X008591Y005089D01*
X008582Y005099D01*
X008959Y005898D02*
X009248Y005898D01*
X009341Y005991D01*
X009341Y006391D01*
X009241Y006491D01*
X008959Y006843D02*
X008093Y006843D01*
X007840Y006843D01*
X007541Y007141D01*
X007541Y007741D02*
X005797Y007741D01*
X005341Y007441D02*
X005241Y007341D01*
X005241Y007056D01*
X005247Y007049D01*
X004932Y007049D02*
X004932Y006582D01*
X004741Y006391D01*
X005041Y006141D02*
X005041Y005541D01*
X005441Y005441D02*
X005441Y005191D01*
X005441Y005441D02*
X005841Y005841D01*
X006456Y005841D01*
X006465Y005832D01*
X006470Y006141D02*
X006465Y006147D01*
X006470Y006141D02*
X006941Y006141D01*
X007191Y005891D01*
X006862Y005517D02*
X006960Y005418D01*
X007373Y005418D01*
X007373Y004906D02*
X007157Y004906D01*
X006862Y005202D01*
X006465Y005202D01*
X006465Y005517D02*
X005917Y005517D01*
X005841Y005441D01*
X005841Y005041D01*
X005641Y004841D01*
X005241Y004841D01*
X004541Y005541D01*
X004041Y005541D01*
X003541Y005541D01*
X003541Y005291D01*
X003452Y005202D01*
X003085Y005202D01*
X003053Y005484D02*
X003085Y005517D01*
X003053Y005484D02*
X002277Y005484D01*
X002291Y005470D01*
X002291Y005041D01*
X002441Y004891D01*
X003081Y004891D01*
X003085Y004887D01*
X003085Y004572D02*
X002319Y004572D01*
X002295Y004547D01*
X002295Y004075D02*
X001467Y004075D01*
X001271Y003879D01*
X001641Y003509D01*
X001641Y002841D01*
X002641Y002841D01*
X002841Y003041D01*
X002641Y003591D02*
X002306Y003591D01*
X002295Y003603D01*
X002641Y003591D02*
X003085Y004035D01*
X003085Y004257D01*
X003441Y004041D02*
X004291Y004891D01*
X004541Y004891D01*
X004991Y004441D01*
X005341Y004441D01*
X005491Y004591D01*
X006446Y004591D01*
X006465Y004572D01*
X006465Y004887D02*
X006895Y004887D01*
X007191Y004591D01*
X007191Y002491D01*
X006641Y001941D01*
X006641Y002941D02*
X006641Y003241D01*
X006241Y003641D01*
X006241Y003841D01*
X005941Y004141D01*
X005562Y004141D01*
X005562Y003669D01*
X005562Y002020D01*
X005641Y001941D01*
X005247Y002347D02*
X005141Y002241D01*
X005141Y001441D01*
X005641Y000941D01*
X006141Y000691D02*
X006441Y000391D01*
X009941Y000391D01*
X008141Y001441D02*
X007641Y000941D01*
X006141Y000691D02*
X006141Y002941D01*
X005877Y003205D01*
X005877Y003669D01*
X005247Y003669D02*
X005247Y002347D01*
X004932Y002232D02*
X004641Y001941D01*
X004932Y002232D02*
X004932Y003669D01*
X004617Y003669D02*
X004617Y002617D01*
X004141Y002141D01*
X004141Y001441D01*
X004641Y000941D01*
X003641Y000941D02*
X003141Y001441D01*
X003141Y002141D01*
X003988Y002988D01*
X003988Y003669D01*
X004303Y003669D02*
X004303Y002603D01*
X003641Y001941D01*
X002841Y002441D02*
X003441Y003041D01*
X003441Y004041D01*
X003673Y003669D02*
X003673Y002973D01*
X002641Y001941D01*
X002841Y002441D02*
X001441Y002441D01*
X001141Y002141D01*
X001141Y001441D01*
X000641Y000941D01*
X000641Y001941D02*
X000641Y003249D01*
X001271Y003879D01*
X001271Y004666D02*
X001271Y004671D01*
X001741Y005141D01*
X001741Y006541D01*
X002241Y007041D01*
X003664Y007041D01*
X003673Y007049D01*
X003085Y006462D02*
X003064Y006441D01*
X002191Y006441D01*
X002277Y005996D02*
X002486Y005996D01*
X002641Y005841D01*
X003076Y005841D01*
X003085Y005832D01*
X003451Y005832D01*
X003541Y005741D01*
X003541Y005541D01*
X003691Y006091D02*
X003140Y006091D01*
X003085Y006147D01*
X004617Y007049D02*
X004617Y007917D01*
X004641Y007941D01*
X004941Y008241D02*
X005285Y008241D01*
X005467Y008541D02*
X007141Y008541D01*
X007567Y008967D01*
X007741Y008967D01*
X007741Y009715D02*
X008217Y009715D01*
X008541Y009391D01*
X008541Y008141D01*
X009041Y008141D02*
X009441Y007741D01*
X009441Y007520D01*
X009932Y007029D01*
X009041Y008141D02*
X009041Y008185D01*
X009047Y008697D02*
X009441Y009091D01*
X009441Y011041D01*
X009641Y011241D01*
X009641Y012026D01*
X009646Y012031D01*
X009646Y012591D02*
X008302Y011247D01*
X008241Y011247D01*
X008241Y010735D02*
X008241Y010441D01*
X007741Y009941D01*
X007741Y009715D01*
X006953Y009715D01*
X006341Y009591D02*
X006341Y009091D01*
X006217Y008967D01*
X005929Y008967D01*
X006341Y009591D02*
X006241Y009691D01*
X005953Y009691D01*
X006892Y010641D02*
X006399Y011134D01*
X006399Y012027D01*
X006941Y011441D02*
X006989Y011489D01*
X006989Y012027D01*
X007441Y011641D02*
X007591Y011491D01*
X007591Y011247D01*
X007441Y011641D02*
X007441Y012891D01*
X007691Y013141D01*
X008091Y013141D01*
X008491Y012741D01*
X009141Y012741D01*
X009541Y013141D01*
X009646Y013141D01*
X009646Y012591D02*
X009641Y012591D01*
X010236Y012591D02*
X010236Y012031D01*
X010236Y011546D01*
X010241Y011541D01*
X010236Y012591D02*
X010236Y013141D01*
X007591Y010735D02*
X007591Y010341D01*
X007541Y010291D01*
X009041Y008697D02*
X009047Y008697D01*
X008093Y006843D02*
X008093Y006528D01*
X008093Y006213D01*
X008263Y006213D01*
X008291Y006241D01*
X008341Y006241D01*
X006862Y005517D02*
X006465Y005517D01*
X005877Y006427D02*
X005391Y005941D01*
X005041Y006141D02*
X005562Y006662D01*
X005562Y007049D01*
X005877Y007049D02*
X005877Y006427D01*
X006441Y006485D02*
X006465Y006462D01*
X006441Y006485D02*
X006441Y006941D01*
X006465Y004257D02*
X006465Y004167D01*
X006791Y003841D01*
X002641Y000941D02*
X002141Y001441D01*
D29*
X000261Y000261D02*
X006345Y000261D01*
X006281Y000325D01*
X005981Y000625D01*
X005981Y000673D01*
X005819Y000511D01*
X005463Y000511D01*
X005211Y000763D01*
X005211Y001119D01*
X005224Y001132D01*
X004981Y001375D01*
X004981Y001507D01*
X004981Y001673D01*
X004819Y001511D01*
X004463Y001511D01*
X004301Y001673D01*
X004301Y001507D01*
X004450Y001358D01*
X004463Y001371D01*
X004819Y001371D01*
X005071Y001119D01*
X005071Y000763D01*
X004819Y000511D01*
X004463Y000511D01*
X004211Y000763D01*
X004211Y001119D01*
X004224Y001132D01*
X003981Y001375D01*
X003981Y001507D01*
X003981Y001673D01*
X003819Y001511D01*
X003463Y001511D01*
X003301Y001673D01*
X003301Y001507D01*
X003450Y001358D01*
X003463Y001371D01*
X003819Y001371D01*
X004071Y001119D01*
X004071Y000763D01*
X003819Y000511D01*
X003463Y000511D01*
X003211Y000763D01*
X003211Y001119D01*
X003224Y001132D01*
X002981Y001375D01*
X002981Y001507D01*
X002981Y001673D01*
X002819Y001511D01*
X002467Y001511D01*
X002469Y001506D01*
X002469Y001376D01*
X002467Y001371D01*
X002819Y001371D01*
X003071Y001119D01*
X003071Y000763D01*
X002819Y000511D01*
X002463Y000511D01*
X002211Y000763D01*
X002211Y001115D01*
X002206Y001113D01*
X002076Y001113D01*
X002071Y001115D01*
X002071Y000763D01*
X001819Y000511D01*
X001463Y000511D01*
X001211Y000763D01*
X001211Y001119D01*
X001463Y001371D01*
X001815Y001371D01*
X001813Y001376D01*
X001813Y001481D01*
X001681Y001481D01*
X001681Y001901D01*
X001601Y001901D01*
X001601Y001481D01*
X001451Y001481D01*
X001301Y001631D01*
X001301Y001375D01*
X001207Y001281D01*
X001058Y001132D01*
X001071Y001119D01*
X001071Y000763D01*
X000819Y000511D01*
X000463Y000511D01*
X000261Y000713D01*
X000261Y000261D01*
X000261Y000298D02*
X006308Y000298D01*
X006229Y000377D02*
X000261Y000377D01*
X000261Y000455D02*
X006151Y000455D01*
X006072Y000534D02*
X005842Y000534D01*
X005920Y000612D02*
X005994Y000612D01*
X005440Y000534D02*
X004842Y000534D01*
X004920Y000612D02*
X005362Y000612D01*
X005283Y000691D02*
X004999Y000691D01*
X005071Y000769D02*
X005211Y000769D01*
X005211Y000848D02*
X005071Y000848D01*
X005071Y000927D02*
X005211Y000927D01*
X005211Y001005D02*
X005071Y001005D01*
X005071Y001084D02*
X005211Y001084D01*
X005194Y001162D02*
X005028Y001162D01*
X004950Y001241D02*
X005115Y001241D01*
X005037Y001319D02*
X004871Y001319D01*
X004981Y001398D02*
X004411Y001398D01*
X004332Y001476D02*
X004981Y001476D01*
X004981Y001555D02*
X004863Y001555D01*
X004941Y001633D02*
X004981Y001633D01*
X004419Y001555D02*
X004301Y001555D01*
X004301Y001633D02*
X004341Y001633D01*
X003981Y001633D02*
X003941Y001633D01*
X003981Y001555D02*
X003863Y001555D01*
X003981Y001476D02*
X003332Y001476D01*
X003301Y001555D02*
X003419Y001555D01*
X003341Y001633D02*
X003301Y001633D01*
X003411Y001398D02*
X003981Y001398D01*
X004037Y001319D02*
X003871Y001319D01*
X003950Y001241D02*
X004115Y001241D01*
X004194Y001162D02*
X004028Y001162D01*
X004071Y001084D02*
X004211Y001084D01*
X004211Y001005D02*
X004071Y001005D01*
X004071Y000927D02*
X004211Y000927D01*
X004211Y000848D02*
X004071Y000848D01*
X004071Y000769D02*
X004211Y000769D01*
X004283Y000691D02*
X003999Y000691D01*
X003920Y000612D02*
X004362Y000612D01*
X004440Y000534D02*
X003842Y000534D01*
X003440Y000534D02*
X002842Y000534D01*
X002920Y000612D02*
X003362Y000612D01*
X003283Y000691D02*
X002999Y000691D01*
X003071Y000769D02*
X003211Y000769D01*
X003211Y000848D02*
X003071Y000848D01*
X003071Y000927D02*
X003211Y000927D01*
X003211Y001005D02*
X003071Y001005D01*
X003071Y001084D02*
X003211Y001084D01*
X003194Y001162D02*
X003028Y001162D01*
X002950Y001241D02*
X003115Y001241D01*
X003037Y001319D02*
X002871Y001319D01*
X002981Y001398D02*
X002469Y001398D01*
X002469Y001476D02*
X002981Y001476D01*
X002981Y001555D02*
X002863Y001555D01*
X002941Y001633D02*
X002981Y001633D01*
X002373Y002281D02*
X002211Y002119D01*
X002211Y001767D01*
X002206Y001769D01*
X002101Y001769D01*
X002101Y001901D01*
X001681Y001901D01*
X001681Y001981D01*
X002101Y001981D01*
X002101Y002132D01*
X001952Y002281D01*
X002373Y002281D01*
X002354Y002262D02*
X001971Y002262D01*
X002049Y002183D02*
X002275Y002183D01*
X002211Y002105D02*
X002101Y002105D01*
X002101Y002026D02*
X002211Y002026D01*
X002211Y001948D02*
X001681Y001948D01*
X001681Y001869D02*
X001601Y001869D01*
X001601Y001791D02*
X001681Y001791D01*
X001681Y001712D02*
X001601Y001712D01*
X001601Y001633D02*
X001681Y001633D01*
X001681Y001555D02*
X001601Y001555D01*
X001377Y001555D02*
X001301Y001555D01*
X001301Y001476D02*
X001813Y001476D01*
X001813Y001398D02*
X001301Y001398D01*
X001246Y001319D02*
X001411Y001319D01*
X001333Y001241D02*
X001167Y001241D01*
X001088Y001162D02*
X001254Y001162D01*
X001211Y001084D02*
X001071Y001084D01*
X001071Y001005D02*
X001211Y001005D01*
X001211Y000927D02*
X001071Y000927D01*
X001071Y000848D02*
X001211Y000848D01*
X001211Y000769D02*
X001071Y000769D01*
X000999Y000691D02*
X001283Y000691D01*
X001362Y000612D02*
X000920Y000612D01*
X000842Y000534D02*
X001440Y000534D01*
X001842Y000534D02*
X002440Y000534D01*
X002362Y000612D02*
X001920Y000612D01*
X001999Y000691D02*
X002283Y000691D01*
X002211Y000769D02*
X002071Y000769D01*
X002071Y000848D02*
X002211Y000848D01*
X002211Y000927D02*
X002071Y000927D01*
X002071Y001005D02*
X002211Y001005D01*
X002211Y001084D02*
X002071Y001084D01*
X002101Y001791D02*
X002211Y001791D01*
X002211Y001869D02*
X002101Y001869D01*
X001507Y002601D02*
X001375Y002601D01*
X001003Y002229D01*
X000832Y002401D01*
X000681Y002401D01*
X000681Y001981D01*
X000601Y001981D01*
X000601Y002401D01*
X000451Y002401D01*
X000261Y002212D01*
X000261Y013407D01*
X002038Y013407D01*
X001978Y013346D01*
X001978Y012812D01*
X001944Y012894D01*
X001710Y013127D01*
X001406Y013253D01*
X001076Y013253D01*
X000772Y013127D01*
X000539Y012894D01*
X000412Y012589D01*
X000412Y012260D01*
X000539Y011955D01*
X000772Y011722D01*
X001076Y011596D01*
X001406Y011596D01*
X001710Y011722D01*
X001944Y011955D01*
X001978Y012037D01*
X001978Y011917D01*
X002042Y011852D01*
X002763Y011852D01*
X002827Y011917D01*
X002827Y013346D01*
X002767Y013407D01*
X004715Y013407D01*
X004655Y013346D01*
X004655Y011917D01*
X004719Y011852D01*
X005440Y011852D01*
X005505Y011917D01*
X005505Y013346D01*
X005444Y013407D01*
X005604Y013407D01*
X005549Y013353D01*
X005549Y012941D01*
X005614Y012877D01*
X006095Y012877D01*
X006159Y012941D01*
X006159Y013353D01*
X006105Y013407D01*
X008474Y013407D01*
X008419Y013353D01*
X008419Y013039D01*
X008251Y013207D01*
X008251Y013207D01*
X008157Y013301D01*
X007757Y013301D01*
X007625Y013301D01*
X007375Y013051D01*
X007281Y012957D01*
X007281Y011707D01*
X007281Y011575D01*
X007365Y011491D01*
X007304Y011430D01*
X007304Y011064D01*
X007368Y010999D01*
X007814Y010999D01*
X007878Y011064D01*
X007878Y011430D01*
X007814Y011495D01*
X007751Y011495D01*
X007751Y011557D01*
X007657Y011651D01*
X007601Y011707D01*
X007601Y012612D01*
X007629Y012545D01*
X007712Y012462D01*
X007820Y012417D01*
X007938Y012417D01*
X008046Y012462D01*
X008129Y012545D01*
X008174Y012653D01*
X008174Y012771D01*
X008131Y012875D01*
X008331Y012675D01*
X008425Y012581D01*
X009207Y012581D01*
X009301Y012675D01*
X009378Y012752D01*
X009378Y012550D01*
X009029Y012201D01*
X009029Y012483D01*
X008965Y012547D01*
X008484Y012547D01*
X008419Y012483D01*
X008419Y012071D01*
X008484Y012007D01*
X008835Y012007D01*
X008323Y011495D01*
X008018Y011495D01*
X007954Y011430D01*
X007954Y011064D01*
X008018Y010999D01*
X008464Y010999D01*
X008528Y011064D01*
X008528Y011247D01*
X009378Y012097D01*
X009378Y011828D01*
X009443Y011764D01*
X009481Y011764D01*
X009481Y011307D01*
X009281Y011107D01*
X009281Y010975D01*
X009281Y009157D01*
X009069Y008945D01*
X008818Y008945D01*
X008754Y008880D01*
X008754Y008514D01*
X008818Y008449D01*
X009264Y008449D01*
X009328Y008514D01*
X009328Y008752D01*
X009507Y008931D01*
X009601Y009025D01*
X009601Y009178D01*
X009604Y009171D01*
X009713Y009062D01*
X009855Y009003D01*
X010009Y009003D01*
X010152Y009062D01*
X010261Y009171D01*
X010320Y009314D01*
X010320Y009468D01*
X010261Y009610D01*
X010152Y009719D01*
X010009Y009778D01*
X009855Y009778D01*
X009713Y009719D01*
X009604Y009610D01*
X009601Y009603D01*
X009601Y009966D01*
X009604Y009959D01*
X009601Y009959D01*
X009604Y009959D02*
X009713Y009850D01*
X009855Y009791D01*
X010009Y009791D01*
X010152Y009850D01*
X010261Y009959D01*
X010454Y009959D01*
X010454Y009880D02*
X010183Y009880D01*
X010261Y009959D02*
X010320Y010101D01*
X010320Y010255D01*
X010261Y010398D01*
X010152Y010507D01*
X010009Y010566D01*
X009855Y010566D01*
X009713Y010507D01*
X009604Y010398D01*
X009601Y010391D01*
X009601Y010753D01*
X009604Y010746D01*
X009713Y010637D01*
X009855Y010578D01*
X010009Y010578D01*
X010152Y010637D01*
X010261Y010746D01*
X010320Y010888D01*
X010320Y011043D01*
X010261Y011185D01*
X010152Y011294D01*
X010009Y011353D01*
X009855Y011353D01*
X009801Y011330D01*
X009801Y011764D01*
X009849Y011764D01*
X009913Y011828D01*
X009913Y012234D01*
X009849Y012299D01*
X009579Y012299D01*
X009605Y012324D01*
X009849Y012324D01*
X009913Y012388D01*
X009913Y012794D01*
X009849Y012859D01*
X009485Y012859D01*
X009500Y012874D01*
X009849Y012874D01*
X009913Y012938D01*
X009913Y013344D01*
X009850Y013407D01*
X009989Y013407D01*
X009967Y013385D01*
X009948Y013353D01*
X009939Y013317D01*
X009939Y013180D01*
X010197Y013180D01*
X010197Y013102D01*
X009939Y013102D01*
X009939Y012965D01*
X009948Y012930D01*
X009967Y012898D01*
X009993Y012872D01*
X010002Y012866D01*
X009993Y012861D01*
X009967Y012835D01*
X009948Y012803D01*
X009939Y012767D01*
X009939Y012630D01*
X010197Y012630D01*
X010197Y012552D01*
X009939Y012552D01*
X009939Y012415D01*
X009948Y012380D01*
X009967Y012348D01*
X009993Y012322D01*
X010011Y012311D01*
X009993Y012301D01*
X009967Y012275D01*
X009948Y012243D01*
X009939Y012207D01*
X009939Y012070D01*
X010197Y012070D01*
X010197Y011992D01*
X009939Y011992D01*
X009939Y011855D01*
X009948Y011820D01*
X009967Y011788D01*
X009993Y011762D01*
X010025Y011743D01*
X010060Y011734D01*
X010198Y011734D01*
X010198Y011992D01*
X010275Y011992D01*
X010275Y011734D01*
X010412Y011734D01*
X010448Y011743D01*
X010454Y011747D01*
X010454Y004354D01*
X010290Y004518D01*
X010320Y004589D01*
X010320Y004743D01*
X010261Y004886D01*
X010152Y004995D01*
X010009Y005054D01*
X009855Y005054D01*
X009713Y004995D01*
X009604Y004886D01*
X009595Y004864D01*
X009569Y004927D01*
X009477Y005019D01*
X009411Y005047D01*
X009469Y005105D01*
X009519Y005226D01*
X009519Y005356D01*
X009469Y005477D01*
X009377Y005569D01*
X009256Y005619D01*
X009126Y005619D01*
X009082Y005601D01*
X008757Y005601D01*
X008734Y005624D01*
X008734Y005689D01*
X009241Y005689D01*
X009289Y005738D01*
X009314Y005738D01*
X009407Y005831D01*
X009501Y005925D01*
X009501Y006325D01*
X009501Y006457D01*
X009467Y006491D01*
X009501Y006525D01*
X009501Y006657D01*
X009501Y007234D01*
X009570Y007165D01*
X009545Y007106D01*
X009545Y006951D01*
X009604Y006809D01*
X009713Y006700D01*
X009855Y006641D01*
X010009Y006641D01*
X010152Y006700D01*
X010261Y006809D01*
X010320Y006951D01*
X010320Y007106D01*
X010261Y007248D01*
X010152Y007357D01*
X010009Y007416D01*
X009855Y007416D01*
X009796Y007391D01*
X009601Y007586D01*
X009601Y007603D01*
X009601Y007603D01*
X009604Y007596D01*
X009713Y007487D01*
X009855Y007428D01*
X010009Y007428D01*
X010152Y007487D01*
X010261Y007596D01*
X010320Y007739D01*
X010320Y007893D01*
X010261Y008035D01*
X010152Y008144D01*
X010009Y008203D01*
X009855Y008203D01*
X009713Y008144D01*
X009604Y008035D01*
X009545Y007893D01*
X009545Y007863D01*
X009507Y007901D01*
X009328Y008080D01*
X009328Y008369D01*
X009264Y008433D01*
X008818Y008433D01*
X008766Y008380D01*
X008727Y008419D01*
X008701Y008430D01*
X008701Y009457D01*
X008607Y009551D01*
X008377Y009781D01*
X008377Y009781D01*
X008283Y009875D01*
X008146Y009875D01*
X008146Y010017D01*
X008095Y010068D01*
X008307Y010281D01*
X008401Y010375D01*
X008401Y010487D01*
X008464Y010487D01*
X008528Y010552D01*
X008528Y010919D01*
X008464Y010983D01*
X008018Y010983D01*
X007954Y010919D01*
X007954Y010552D01*
X008018Y010487D01*
X008061Y010487D01*
X007869Y010295D01*
X007869Y010356D01*
X007819Y010477D01*
X007809Y010487D01*
X007814Y010487D01*
X007878Y010552D01*
X007878Y010919D01*
X007814Y010983D01*
X007368Y010983D01*
X007304Y010919D01*
X007304Y010552D01*
X007321Y010535D01*
X007263Y010477D01*
X007213Y010356D01*
X007213Y010226D01*
X007263Y010105D01*
X007344Y010024D01*
X007336Y010017D01*
X007336Y009875D01*
X007293Y009875D01*
X007235Y009933D01*
X006671Y009933D01*
X006607Y009869D01*
X006607Y009561D01*
X006671Y009497D01*
X007235Y009497D01*
X007293Y009555D01*
X007336Y009555D01*
X007336Y009414D01*
X007395Y009354D01*
X007392Y009353D01*
X007360Y009335D01*
X007334Y009309D01*
X007315Y009277D01*
X007306Y009241D01*
X007306Y009007D01*
X007701Y009007D01*
X007701Y008927D01*
X007306Y008927D01*
X007306Y008693D01*
X007315Y008657D01*
X007334Y008625D01*
X007360Y008599D01*
X007392Y008581D01*
X007427Y008571D01*
X007701Y008571D01*
X007701Y008927D01*
X007781Y008927D01*
X007781Y008571D01*
X008055Y008571D01*
X008090Y008581D01*
X008122Y008599D01*
X008148Y008625D01*
X008167Y008657D01*
X008176Y008693D01*
X008176Y008927D01*
X007781Y008927D01*
X007781Y009007D01*
X008176Y009007D01*
X008176Y009241D01*
X008167Y009277D01*
X008148Y009309D01*
X008122Y009335D01*
X008090Y009353D01*
X008087Y009354D01*
X008146Y009414D01*
X008146Y009555D01*
X008151Y009555D01*
X008381Y009325D01*
X008381Y008430D01*
X008355Y008419D01*
X008263Y008327D01*
X008252Y008301D01*
X006530Y008301D01*
X006519Y008327D01*
X006427Y008419D01*
X006306Y008469D01*
X006176Y008469D01*
X006055Y008419D01*
X006045Y008409D01*
X006045Y008464D01*
X005980Y008528D01*
X005614Y008528D01*
X005549Y008464D01*
X005549Y008018D01*
X005576Y007991D01*
X005549Y007964D01*
X005549Y007601D01*
X005533Y007601D01*
X005533Y007964D01*
X005506Y007991D01*
X005533Y008018D01*
X005533Y008464D01*
X005469Y008528D01*
X005102Y008528D01*
X005037Y008464D01*
X005037Y008401D01*
X005007Y008401D01*
X004875Y008401D01*
X004832Y008358D01*
X004819Y008371D01*
X004463Y008371D01*
X004301Y008209D01*
X004301Y009375D01*
X004301Y009507D01*
X004239Y009569D01*
X004377Y009569D01*
X004442Y009633D01*
X004442Y010581D01*
X004502Y010581D01*
X004513Y010555D01*
X004605Y010463D01*
X004726Y010413D01*
X004856Y010413D01*
X004977Y010463D01*
X005069Y010555D01*
X005119Y010676D01*
X005119Y010806D01*
X005069Y010927D01*
X004977Y011019D01*
X004856Y011069D01*
X004726Y011069D01*
X004605Y011019D01*
X004513Y010927D01*
X004502Y010901D01*
X004442Y010901D01*
X004442Y011535D01*
X004377Y011600D01*
X003892Y011600D01*
X003828Y011535D01*
X003828Y009633D01*
X003860Y009601D01*
X003661Y009601D01*
X003675Y009625D01*
X003684Y009660D01*
X003684Y010544D01*
X003388Y010544D01*
X003388Y010624D01*
X003684Y010624D01*
X003684Y011508D01*
X003675Y011544D01*
X003656Y011576D01*
X003630Y011602D01*
X003598Y011620D01*
X003563Y011630D01*
X003387Y011630D01*
X003387Y010625D01*
X003307Y010625D01*
X003307Y011630D01*
X003132Y011630D01*
X003096Y011620D01*
X003065Y011602D01*
X003039Y011576D01*
X003020Y011544D01*
X003011Y011508D01*
X003011Y010624D01*
X003307Y010624D01*
X003307Y010544D01*
X003011Y010544D01*
X003011Y009660D01*
X003020Y009625D01*
X003034Y009601D01*
X002707Y009601D01*
X002575Y009601D01*
X002481Y009507D01*
X002481Y009371D01*
X002463Y009371D01*
X002211Y009119D01*
X002211Y008763D01*
X002463Y008511D01*
X002819Y008511D01*
X003071Y008763D01*
X003071Y009119D01*
X002909Y009281D01*
X003331Y009281D01*
X003181Y009132D01*
X003181Y008981D01*
X003601Y008981D01*
X003601Y008901D01*
X003681Y008901D01*
X003681Y008481D01*
X003832Y008481D01*
X003981Y008631D01*
X003981Y008209D01*
X003819Y008371D01*
X003463Y008371D01*
X003211Y008119D01*
X003211Y007763D01*
X003373Y007601D01*
X002909Y007601D01*
X003071Y007763D01*
X003071Y008119D01*
X002819Y008371D01*
X002463Y008371D01*
X002211Y008119D01*
X002211Y007763D01*
X002463Y007511D01*
X002481Y007511D01*
X002481Y007507D01*
X002481Y007375D01*
X002575Y007281D01*
X003453Y007281D01*
X003453Y007201D01*
X002175Y007201D01*
X002081Y007107D01*
X001581Y006607D01*
X001581Y006479D01*
X001490Y006570D01*
X001348Y006629D01*
X001194Y006629D01*
X001052Y006570D01*
X000943Y006461D01*
X000884Y006318D01*
X000884Y006164D01*
X000943Y006022D01*
X001052Y005913D01*
X001194Y005854D01*
X001348Y005854D01*
X001490Y005913D01*
X001581Y006003D01*
X001581Y005691D01*
X001490Y005782D01*
X001348Y005841D01*
X001194Y005841D01*
X001052Y005782D01*
X000943Y005673D01*
X000884Y005531D01*
X000884Y005377D01*
X000943Y005234D01*
X001052Y005125D01*
X001194Y005066D01*
X001348Y005066D01*
X001490Y005125D01*
X001581Y005216D01*
X001581Y005207D01*
X001404Y005030D01*
X001348Y005054D01*
X001194Y005054D01*
X001052Y004995D01*
X000943Y004886D01*
X000884Y004743D01*
X000884Y004589D01*
X000943Y004447D01*
X001052Y004338D01*
X001176Y004286D01*
X001173Y004286D01*
X001111Y004266D01*
X001052Y004236D01*
X000999Y004197D01*
X000953Y004151D01*
X000914Y004098D01*
X000884Y004039D01*
X000864Y003977D01*
X000854Y003918D01*
X001232Y003918D01*
X001232Y003840D01*
X000854Y003840D01*
X000864Y003781D01*
X000884Y003719D01*
X000914Y003660D01*
X000953Y003607D01*
X000999Y003560D01*
X001052Y003522D01*
X001111Y003492D01*
X001173Y003472D01*
X001232Y003462D01*
X001232Y003840D01*
X001310Y003840D01*
X001310Y003918D01*
X001688Y003918D01*
X001678Y003977D01*
X001658Y004039D01*
X001628Y004098D01*
X001589Y004151D01*
X001543Y004197D01*
X001490Y004236D01*
X001431Y004266D01*
X001369Y004286D01*
X001366Y004286D01*
X001490Y004338D01*
X001599Y004447D01*
X001658Y004589D01*
X001658Y004743D01*
X001632Y004806D01*
X001807Y004981D01*
X001901Y005075D01*
X001901Y006284D01*
X001913Y006255D01*
X001973Y006195D01*
X001969Y006188D01*
X001959Y006152D01*
X001959Y006025D01*
X002247Y006025D01*
X002247Y005967D01*
X001959Y005967D01*
X001959Y005840D01*
X001969Y005804D01*
X001987Y005772D01*
X002013Y005746D01*
X002045Y005728D01*
X002049Y005727D01*
X001989Y005668D01*
X001989Y005301D01*
X002038Y005252D01*
X002013Y005227D01*
X001963Y005106D01*
X001963Y004976D01*
X002013Y004855D01*
X002073Y004795D01*
X001914Y004795D01*
X001850Y004731D01*
X001850Y004364D01*
X001884Y004330D01*
X001874Y004325D01*
X001848Y004299D01*
X001830Y004267D01*
X001820Y004231D01*
X001820Y004104D01*
X002265Y004104D01*
X002265Y004046D01*
X001820Y004046D01*
X001820Y003919D01*
X001830Y003883D01*
X001848Y003851D01*
X001874Y003825D01*
X001884Y003820D01*
X001850Y003786D01*
X001850Y003419D01*
X001914Y003355D01*
X002675Y003355D01*
X002739Y003419D01*
X002739Y003463D01*
X002801Y003525D01*
X003245Y003969D01*
X003245Y004037D01*
X003281Y004037D01*
X003281Y003975D01*
X003281Y003107D01*
X002775Y002601D01*
X001507Y002601D01*
X001350Y002576D02*
X000261Y002576D01*
X000261Y002654D02*
X002828Y002654D01*
X002907Y002733D02*
X000261Y002733D01*
X000261Y002812D02*
X002985Y002812D01*
X003064Y002890D02*
X000261Y002890D01*
X000261Y002969D02*
X003142Y002969D01*
X003221Y003047D02*
X000261Y003047D01*
X000261Y003126D02*
X003281Y003126D01*
X003281Y003204D02*
X000261Y003204D01*
X000261Y003283D02*
X003281Y003283D01*
X003281Y003361D02*
X002681Y003361D01*
X002739Y003440D02*
X003281Y003440D01*
X003281Y003518D02*
X002795Y003518D01*
X002873Y003597D02*
X003281Y003597D01*
X003281Y003676D02*
X002952Y003676D01*
X003030Y003754D02*
X003281Y003754D01*
X003281Y003833D02*
X003109Y003833D01*
X003187Y003911D02*
X003281Y003911D01*
X003281Y003990D02*
X003245Y003990D01*
X003445Y004271D02*
X003445Y004412D01*
X003443Y004414D01*
X003445Y004416D01*
X003445Y004727D01*
X003443Y004729D01*
X003445Y004731D01*
X003445Y005004D01*
X003447Y005006D01*
X003465Y005038D01*
X003475Y005073D01*
X003475Y005187D01*
X003100Y005187D01*
X003100Y005217D01*
X003475Y005217D01*
X003475Y005330D01*
X003465Y005366D01*
X003447Y005398D01*
X003445Y005400D01*
X003445Y005634D01*
X003447Y005636D01*
X003465Y005668D01*
X003475Y005703D01*
X003475Y005817D01*
X003100Y005817D01*
X003100Y005847D01*
X003472Y005847D01*
X003505Y005813D01*
X003626Y005763D01*
X003756Y005763D01*
X003877Y005813D01*
X003969Y005905D01*
X004019Y006026D01*
X004019Y006156D01*
X003969Y006277D01*
X003877Y006369D01*
X003756Y006419D01*
X003626Y006419D01*
X003505Y006369D01*
X003445Y006309D01*
X003445Y006617D01*
X003381Y006682D01*
X002789Y006682D01*
X002725Y006617D01*
X002725Y006601D01*
X002480Y006601D01*
X002469Y006627D01*
X002377Y006719D01*
X002256Y006769D01*
X002195Y006769D01*
X002307Y006881D01*
X003453Y006881D01*
X003453Y006754D01*
X003517Y006689D01*
X003828Y006689D01*
X003830Y006691D01*
X003832Y006689D01*
X004143Y006689D01*
X004145Y006691D01*
X004147Y006689D01*
X004458Y006689D01*
X004460Y006691D01*
X004462Y006689D01*
X004604Y006689D01*
X004555Y006669D01*
X004463Y006577D01*
X004413Y006456D01*
X004413Y006326D01*
X004463Y006205D01*
X004555Y006113D01*
X004676Y006063D01*
X004806Y006063D01*
X004881Y006094D01*
X004881Y005830D01*
X004855Y005819D01*
X004763Y005727D01*
X004713Y005606D01*
X004713Y005476D01*
X004763Y005355D01*
X004855Y005263D01*
X004976Y005213D01*
X005106Y005213D01*
X005113Y005216D01*
X005113Y005126D01*
X005163Y005005D01*
X005255Y004913D01*
X005376Y004863D01*
X005506Y004863D01*
X005627Y004913D01*
X005719Y005005D01*
X005769Y005126D01*
X005769Y005256D01*
X005719Y005377D01*
X005661Y005435D01*
X005907Y005681D01*
X006085Y005681D01*
X006084Y005681D01*
X006075Y005645D01*
X006075Y005532D01*
X006450Y005532D01*
X006450Y005502D01*
X006075Y005502D01*
X006075Y005388D01*
X006084Y005353D01*
X006103Y005321D01*
X006105Y005319D01*
X006105Y005046D01*
X006107Y005044D01*
X006105Y005042D01*
X006105Y004751D01*
X005557Y004751D01*
X005425Y004751D01*
X005275Y004601D01*
X005057Y004601D01*
X004858Y004800D01*
X004869Y004826D01*
X004869Y004956D01*
X004819Y005077D01*
X004727Y005169D01*
X004606Y005219D01*
X004476Y005219D01*
X004355Y005169D01*
X004263Y005077D01*
X004252Y005051D01*
X004225Y005051D01*
X004131Y004957D01*
X003445Y004271D01*
X003445Y004304D02*
X003478Y004304D01*
X003445Y004382D02*
X003556Y004382D01*
X003635Y004461D02*
X003445Y004461D01*
X003445Y004540D02*
X003713Y004540D01*
X003792Y004618D02*
X003445Y004618D01*
X003445Y004697D02*
X003870Y004697D01*
X003949Y004775D02*
X003445Y004775D01*
X003445Y004854D02*
X004027Y004854D01*
X004106Y004932D02*
X003445Y004932D01*
X003450Y005011D02*
X004185Y005011D01*
X004131Y004957D02*
X004131Y004957D01*
X004275Y005089D02*
X003475Y005089D01*
X003475Y005168D02*
X004354Y005168D01*
X004728Y005168D02*
X005113Y005168D01*
X005128Y005089D02*
X004807Y005089D01*
X004847Y005011D02*
X005161Y005011D01*
X005236Y004932D02*
X004869Y004932D01*
X004869Y004854D02*
X006105Y004854D01*
X006105Y004932D02*
X005646Y004932D01*
X005721Y005011D02*
X006105Y005011D01*
X006105Y005089D02*
X005754Y005089D01*
X005769Y005168D02*
X006105Y005168D01*
X006105Y005246D02*
X005769Y005246D01*
X005741Y005325D02*
X006100Y005325D01*
X006075Y005404D02*
X005693Y005404D01*
X005708Y005482D02*
X006075Y005482D01*
X006075Y005561D02*
X005787Y005561D01*
X005865Y005639D02*
X006075Y005639D01*
X006480Y005532D02*
X006855Y005532D01*
X006855Y005645D01*
X006845Y005681D01*
X006827Y005713D01*
X006825Y005715D01*
X006825Y005981D01*
X006873Y005981D01*
X006863Y005956D01*
X006863Y005826D01*
X006913Y005705D01*
X007005Y005613D01*
X007060Y005590D01*
X007056Y005574D01*
X007056Y005447D01*
X007344Y005447D01*
X007344Y005389D01*
X007056Y005389D01*
X007056Y005262D01*
X007066Y005226D01*
X007069Y005220D01*
X006928Y005362D01*
X006848Y005362D01*
X006855Y005388D01*
X006855Y005502D01*
X006480Y005502D01*
X006480Y005532D01*
X006855Y005561D02*
X007056Y005561D01*
X007056Y005482D02*
X006855Y005482D01*
X006855Y005404D02*
X007344Y005404D01*
X007403Y005404D02*
X007931Y005404D01*
X007931Y005386D02*
X007886Y005386D01*
X007822Y005321D01*
X007822Y004876D01*
X007886Y004811D01*
X007981Y004811D01*
X007981Y004209D01*
X007819Y004371D01*
X007463Y004371D01*
X007351Y004259D01*
X007351Y004657D01*
X007350Y004659D01*
X007596Y004659D01*
X007661Y004723D01*
X007661Y005090D01*
X007601Y005149D01*
X007605Y005150D01*
X007636Y005168D01*
X007822Y005168D01*
X007822Y005246D02*
X007686Y005246D01*
X007691Y005262D02*
X007691Y005389D01*
X007403Y005389D01*
X007403Y005447D01*
X007691Y005447D01*
X007691Y005574D01*
X007681Y005610D01*
X007663Y005642D01*
X007636Y005668D01*
X007605Y005686D01*
X007569Y005696D01*
X007460Y005696D01*
X007469Y005705D01*
X007519Y005826D01*
X007519Y005837D01*
X007618Y005738D01*
X007751Y005738D01*
X007762Y005738D01*
X007811Y005689D01*
X007931Y005689D01*
X007931Y005386D01*
X007931Y005482D02*
X007691Y005482D01*
X007691Y005561D02*
X007931Y005561D01*
X007931Y005639D02*
X007664Y005639D01*
X007783Y005718D02*
X007474Y005718D01*
X007507Y005796D02*
X007560Y005796D01*
X007718Y006090D02*
X007101Y006707D01*
X007101Y007075D01*
X007101Y007207D01*
X006801Y007507D01*
X006727Y007581D01*
X007252Y007581D01*
X007263Y007555D01*
X007355Y007463D01*
X007476Y007413D01*
X007606Y007413D01*
X007727Y007463D01*
X007746Y007483D01*
X007746Y007329D01*
X007760Y007315D01*
X007746Y007302D01*
X007746Y007029D01*
X007744Y007027D01*
X007726Y006995D01*
X007716Y006960D01*
X007716Y006852D01*
X008083Y006852D01*
X008083Y006833D01*
X007716Y006833D01*
X007716Y006726D01*
X007726Y006690D01*
X007729Y006685D01*
X007726Y006680D01*
X007716Y006645D01*
X007716Y006537D01*
X008083Y006537D01*
X008083Y006518D01*
X008102Y006518D01*
X008102Y006289D01*
X008102Y006222D01*
X008469Y006222D01*
X008469Y006330D01*
X008459Y006365D01*
X008456Y006370D01*
X008459Y006375D01*
X008469Y006411D01*
X008469Y006518D01*
X008102Y006518D01*
X008102Y006537D01*
X008469Y006537D01*
X008469Y006645D01*
X008459Y006680D01*
X008456Y006685D01*
X008459Y006690D01*
X008469Y006726D01*
X008469Y006833D01*
X008102Y006833D01*
X008102Y006604D01*
X008102Y006537D01*
X008083Y006537D01*
X008083Y006604D01*
X008083Y006833D01*
X008102Y006833D01*
X008102Y006852D01*
X008469Y006852D01*
X008469Y006960D01*
X008459Y006995D01*
X008441Y007027D01*
X008439Y007029D01*
X008439Y007166D01*
X008670Y007166D01*
X008671Y007167D01*
X008949Y007167D01*
X008949Y007148D01*
X008583Y007148D01*
X008583Y007041D01*
X008592Y007005D01*
X008595Y007000D01*
X008592Y006995D01*
X008583Y006960D01*
X008583Y006852D01*
X008949Y006852D01*
X008949Y006833D01*
X008583Y006833D01*
X008583Y006726D01*
X008592Y006690D01*
X008611Y006658D01*
X008613Y006656D01*
X008613Y006399D01*
X008611Y006397D01*
X008592Y006365D01*
X008583Y006330D01*
X008583Y006222D01*
X008949Y006222D01*
X008949Y006203D01*
X008671Y006203D01*
X008670Y006205D01*
X008382Y006205D01*
X008381Y006203D01*
X008102Y006203D01*
X008102Y006222D01*
X008083Y006222D01*
X008083Y006203D01*
X007716Y006203D01*
X007716Y006096D01*
X007718Y006090D01*
X007716Y006110D02*
X007698Y006110D01*
X007716Y006189D02*
X007619Y006189D01*
X007716Y006222D02*
X007716Y006330D01*
X007726Y006365D01*
X007729Y006370D01*
X007726Y006375D01*
X007716Y006411D01*
X007716Y006518D01*
X008083Y006518D01*
X008083Y006289D01*
X008083Y006222D01*
X007716Y006222D01*
X007716Y006267D02*
X007541Y006267D01*
X007462Y006346D02*
X007721Y006346D01*
X007716Y006425D02*
X007384Y006425D01*
X007305Y006503D02*
X007716Y006503D01*
X007716Y006582D02*
X007227Y006582D01*
X007148Y006660D02*
X007721Y006660D01*
X007716Y006739D02*
X007101Y006739D01*
X007101Y006817D02*
X007716Y006817D01*
X007716Y006896D02*
X007101Y006896D01*
X007101Y006974D02*
X007720Y006974D01*
X007746Y007053D02*
X007101Y007053D01*
X007101Y007131D02*
X007746Y007131D01*
X007746Y007210D02*
X007098Y007210D01*
X007020Y007289D02*
X007746Y007289D01*
X007746Y007367D02*
X006941Y007367D01*
X006863Y007446D02*
X007397Y007446D01*
X007294Y007524D02*
X006784Y007524D01*
X006526Y008310D02*
X008256Y008310D01*
X008324Y008388D02*
X006458Y008388D01*
X006312Y008467D02*
X008381Y008467D01*
X008381Y008545D02*
X004301Y008545D01*
X004301Y008467D02*
X005040Y008467D01*
X005001Y008571D02*
X005001Y008927D01*
X004606Y008927D01*
X004606Y008693D01*
X004615Y008657D01*
X004634Y008625D01*
X004660Y008599D01*
X004692Y008581D01*
X004727Y008571D01*
X005001Y008571D01*
X005001Y008624D02*
X005081Y008624D01*
X005081Y008571D02*
X005355Y008571D01*
X005390Y008581D01*
X005422Y008599D01*
X005448Y008625D01*
X005467Y008657D01*
X005476Y008693D01*
X005476Y008927D01*
X005081Y008927D01*
X005081Y008571D01*
X005081Y008702D02*
X005001Y008702D01*
X005001Y008781D02*
X005081Y008781D01*
X005081Y008859D02*
X005001Y008859D01*
X005001Y008927D02*
X005081Y008927D01*
X005081Y009007D01*
X005476Y009007D01*
X005476Y009241D01*
X005467Y009277D01*
X005448Y009309D01*
X005422Y009335D01*
X005390Y009353D01*
X005387Y009354D01*
X005446Y009414D01*
X005446Y009894D01*
X005729Y010177D01*
X005769Y010177D01*
X005769Y009933D01*
X005647Y009933D01*
X005583Y009869D01*
X005583Y009561D01*
X005595Y009549D01*
X005581Y009535D01*
X005563Y009503D01*
X005553Y009468D01*
X005553Y009355D01*
X005915Y009355D01*
X005915Y009327D01*
X005553Y009327D01*
X005553Y009214D01*
X005563Y009179D01*
X005581Y009147D01*
X005595Y009133D01*
X005583Y009121D01*
X005583Y008813D01*
X005647Y008749D01*
X006211Y008749D01*
X006269Y008807D01*
X006283Y008807D01*
X006407Y008931D01*
X006501Y009025D01*
X006501Y009525D01*
X006501Y009657D01*
X006401Y009757D01*
X006307Y009851D01*
X006275Y009851D01*
X006275Y009869D01*
X006211Y009933D01*
X006089Y009933D01*
X006089Y010234D01*
X006097Y010241D01*
X006097Y011041D01*
X006032Y011105D01*
X005547Y011105D01*
X005483Y011041D01*
X005483Y010383D01*
X005181Y010081D01*
X004700Y010081D01*
X004636Y010017D01*
X004636Y009414D01*
X004695Y009354D01*
X004692Y009353D01*
X004660Y009335D01*
X004634Y009309D01*
X004615Y009277D01*
X004606Y009241D01*
X004606Y009007D01*
X005001Y009007D01*
X005001Y008927D01*
X005001Y008938D02*
X004301Y008938D01*
X004301Y009016D02*
X004606Y009016D01*
X004606Y009095D02*
X004301Y009095D01*
X004301Y009174D02*
X004606Y009174D01*
X004609Y009252D02*
X004301Y009252D01*
X004301Y009331D02*
X004656Y009331D01*
X004640Y009409D02*
X004301Y009409D01*
X004301Y009488D02*
X004636Y009488D01*
X004636Y009566D02*
X004242Y009566D01*
X004442Y009645D02*
X004636Y009645D01*
X004636Y009723D02*
X004442Y009723D01*
X004442Y009802D02*
X004636Y009802D01*
X004636Y009880D02*
X004442Y009880D01*
X004442Y009959D02*
X004636Y009959D01*
X004657Y010038D02*
X004442Y010038D01*
X004442Y010116D02*
X005216Y010116D01*
X005294Y010195D02*
X004442Y010195D01*
X004442Y010273D02*
X005373Y010273D01*
X005451Y010352D02*
X004442Y010352D01*
X004442Y010430D02*
X004684Y010430D01*
X004559Y010509D02*
X004442Y010509D01*
X004442Y010902D02*
X004502Y010902D01*
X004442Y010980D02*
X004566Y010980D01*
X004442Y011059D02*
X004700Y011059D01*
X004882Y011059D02*
X005501Y011059D01*
X005483Y010980D02*
X005016Y010980D01*
X005080Y010902D02*
X005483Y010902D01*
X005483Y010823D02*
X005112Y010823D01*
X005119Y010744D02*
X005483Y010744D01*
X005483Y010666D02*
X005115Y010666D01*
X005083Y010587D02*
X005483Y010587D01*
X005483Y010509D02*
X005023Y010509D01*
X004898Y010430D02*
X005483Y010430D01*
X005668Y010116D02*
X005769Y010116D01*
X005769Y010038D02*
X005590Y010038D01*
X005511Y009959D02*
X005769Y009959D01*
X005595Y009880D02*
X005446Y009880D01*
X005446Y009802D02*
X005583Y009802D01*
X005583Y009723D02*
X005446Y009723D01*
X005446Y009645D02*
X005583Y009645D01*
X005583Y009566D02*
X005446Y009566D01*
X005446Y009488D02*
X005558Y009488D01*
X005553Y009409D02*
X005442Y009409D01*
X005427Y009331D02*
X005915Y009331D01*
X006336Y008859D02*
X006607Y008859D01*
X006607Y008813D02*
X006671Y008749D01*
X007235Y008749D01*
X007299Y008813D01*
X007299Y009121D01*
X007235Y009185D01*
X006671Y009185D01*
X006607Y009121D01*
X006607Y008813D01*
X006639Y008781D02*
X006243Y008781D01*
X006414Y008938D02*
X006607Y008938D01*
X006607Y009016D02*
X006493Y009016D01*
X006501Y009095D02*
X006607Y009095D01*
X006659Y009174D02*
X006501Y009174D01*
X006501Y009252D02*
X007309Y009252D01*
X007306Y009174D02*
X007246Y009174D01*
X007299Y009095D02*
X007306Y009095D01*
X007299Y009016D02*
X007306Y009016D01*
X007299Y008938D02*
X007701Y008938D01*
X007701Y008859D02*
X007781Y008859D01*
X007781Y008781D02*
X007701Y008781D01*
X007701Y008702D02*
X007781Y008702D01*
X007781Y008624D02*
X007701Y008624D01*
X007781Y008938D02*
X008381Y008938D01*
X008381Y009016D02*
X008176Y009016D01*
X008176Y009095D02*
X008381Y009095D01*
X008381Y009174D02*
X008176Y009174D01*
X008174Y009252D02*
X008381Y009252D01*
X008375Y009331D02*
X008127Y009331D01*
X008142Y009409D02*
X008297Y009409D01*
X008218Y009488D02*
X008146Y009488D01*
X008356Y009802D02*
X008830Y009802D01*
X008815Y009775D02*
X008871Y009775D01*
X008752Y009854D01*
X008731Y009960D01*
X008750Y009989D01*
X008739Y010000D01*
X008739Y010000D01*
X008739Y010000D01*
X008739Y010053D01*
X008739Y010066D01*
X008739Y010066D01*
X008739Y010086D01*
X008739Y010107D01*
X008739Y010107D01*
X008739Y010120D01*
X008739Y010174D01*
X008739Y010174D01*
X008739Y010174D01*
X008762Y010197D01*
X008739Y010221D01*
X008739Y010221D01*
X008739Y010221D01*
X008739Y010275D01*
X008739Y010287D01*
X008739Y010287D01*
X008739Y010308D01*
X008739Y010328D01*
X008739Y010328D01*
X008739Y010342D01*
X008739Y010395D01*
X008739Y010395D01*
X008739Y010395D01*
X008776Y010432D01*
X008779Y010435D01*
X008739Y010475D01*
X008739Y010475D01*
X008739Y010583D01*
X008777Y010621D01*
X008795Y010639D01*
X008739Y010696D01*
X008739Y010804D01*
X008739Y010804D01*
X008757Y010822D01*
X008815Y010880D01*
X008922Y010880D01*
X008948Y010880D01*
X009015Y010946D01*
X009123Y010946D01*
X009199Y010870D01*
X009199Y010649D01*
X009199Y010408D01*
X009192Y010402D01*
X009199Y010395D01*
X009199Y010328D01*
X009199Y010221D01*
X009192Y010214D01*
X009199Y010207D01*
X009199Y010074D01*
X009199Y009966D01*
X009140Y009908D01*
X009186Y009877D01*
X009207Y009772D01*
X009199Y009760D01*
X009199Y009524D01*
X009192Y009518D01*
X009199Y009511D01*
X009199Y009444D01*
X009199Y009337D01*
X009165Y009303D01*
X009089Y009227D01*
X008982Y009227D01*
X008903Y009227D01*
X008848Y009227D01*
X008815Y009261D01*
X008815Y009261D01*
X008775Y009301D01*
X008739Y009337D01*
X008739Y009337D01*
X008739Y009337D01*
X008739Y009391D01*
X008739Y009403D01*
X008739Y009403D01*
X008739Y009424D01*
X008739Y009444D01*
X008739Y009444D01*
X008739Y009458D01*
X008739Y009511D01*
X008739Y009511D01*
X008739Y009511D01*
X008776Y009548D01*
X008779Y009551D01*
X008739Y009591D01*
X008739Y009591D01*
X008739Y009699D01*
X008777Y009737D01*
X008815Y009775D01*
X008815Y009775D01*
X008763Y009723D02*
X008435Y009723D01*
X008514Y009645D02*
X008739Y009645D01*
X008763Y009566D02*
X008592Y009566D01*
X008607Y009551D02*
X008607Y009551D01*
X008671Y009488D02*
X008739Y009488D01*
X008739Y009409D02*
X008701Y009409D01*
X008701Y009331D02*
X008745Y009331D01*
X008701Y009252D02*
X008823Y009252D01*
X008848Y009227D02*
X008848Y009227D01*
X008848Y009227D01*
X008701Y009174D02*
X009281Y009174D01*
X009281Y009252D02*
X009114Y009252D01*
X009193Y009331D02*
X009281Y009331D01*
X009281Y009409D02*
X009199Y009409D01*
X009199Y009488D02*
X009281Y009488D01*
X009281Y009566D02*
X009199Y009566D01*
X009199Y009645D02*
X009281Y009645D01*
X009281Y009723D02*
X009199Y009723D01*
X009201Y009802D02*
X009281Y009802D01*
X009281Y009880D02*
X009181Y009880D01*
X009191Y009959D02*
X009281Y009959D01*
X009281Y010038D02*
X009199Y010038D01*
X009199Y010116D02*
X009281Y010116D01*
X009281Y010195D02*
X009199Y010195D01*
X009199Y010273D02*
X009281Y010273D01*
X009281Y010352D02*
X009199Y010352D01*
X009199Y010430D02*
X009281Y010430D01*
X009281Y010509D02*
X009199Y010509D01*
X009199Y010587D02*
X009281Y010587D01*
X009281Y010666D02*
X009199Y010666D01*
X009199Y010744D02*
X009281Y010744D01*
X009281Y010823D02*
X009199Y010823D01*
X009167Y010902D02*
X009281Y010902D01*
X009281Y010980D02*
X008467Y010980D01*
X008523Y011059D02*
X008992Y011059D01*
X009018Y011048D02*
X009137Y011048D01*
X009247Y011094D01*
X009332Y011178D01*
X009377Y011288D01*
X009377Y011408D01*
X009332Y011518D01*
X009247Y011602D01*
X009137Y011648D01*
X009018Y011648D01*
X008907Y011602D01*
X008823Y011518D01*
X008777Y011408D01*
X008777Y011288D01*
X008823Y011178D01*
X008907Y011094D01*
X009018Y011048D01*
X008970Y010902D02*
X008528Y010902D01*
X008528Y010823D02*
X008758Y010823D01*
X008739Y010744D02*
X008528Y010744D01*
X008528Y010666D02*
X008769Y010666D01*
X008743Y010587D02*
X008528Y010587D01*
X008485Y010509D02*
X008739Y010509D01*
X008774Y010430D02*
X008401Y010430D01*
X008378Y010352D02*
X008739Y010352D01*
X008739Y010273D02*
X008299Y010273D01*
X008221Y010195D02*
X008759Y010195D01*
X008739Y010116D02*
X008142Y010116D01*
X008125Y010038D02*
X008739Y010038D01*
X008731Y009959D02*
X008146Y009959D01*
X008146Y009880D02*
X008746Y009880D01*
X008701Y009095D02*
X009219Y009095D01*
X009140Y009016D02*
X008701Y009016D01*
X008701Y008938D02*
X008812Y008938D01*
X008754Y008859D02*
X008701Y008859D01*
X008701Y008781D02*
X008754Y008781D01*
X008754Y008702D02*
X008701Y008702D01*
X008701Y008624D02*
X008754Y008624D01*
X008754Y008545D02*
X008701Y008545D01*
X008701Y008467D02*
X008801Y008467D01*
X008774Y008388D02*
X008758Y008388D01*
X008381Y008624D02*
X008147Y008624D01*
X008176Y008702D02*
X008381Y008702D01*
X008381Y008781D02*
X008176Y008781D01*
X008176Y008859D02*
X008381Y008859D01*
X009328Y008702D02*
X009554Y008702D01*
X009545Y008680D02*
X009545Y008526D01*
X009604Y008384D01*
X009713Y008275D01*
X009855Y008216D01*
X010009Y008216D01*
X010152Y008275D01*
X010261Y008384D01*
X010320Y008526D01*
X010320Y008680D01*
X010261Y008823D01*
X010152Y008932D01*
X010009Y008991D01*
X009855Y008991D01*
X009713Y008932D01*
X009604Y008823D01*
X009545Y008680D01*
X009545Y008624D02*
X009328Y008624D01*
X009328Y008545D02*
X009545Y008545D01*
X009570Y008467D02*
X009281Y008467D01*
X009309Y008388D02*
X009602Y008388D01*
X009678Y008310D02*
X009328Y008310D01*
X009328Y008231D02*
X009819Y008231D01*
X009733Y008153D02*
X009328Y008153D01*
X009334Y008074D02*
X009643Y008074D01*
X009587Y007995D02*
X009413Y007995D01*
X009492Y007917D02*
X009555Y007917D01*
X009663Y007524D02*
X009676Y007524D01*
X009742Y007446D02*
X009814Y007446D01*
X010051Y007446D02*
X010454Y007446D01*
X010454Y007524D02*
X010189Y007524D01*
X010264Y007603D02*
X010454Y007603D01*
X010454Y007681D02*
X010296Y007681D01*
X010320Y007760D02*
X010454Y007760D01*
X010454Y007838D02*
X010320Y007838D01*
X010310Y007917D02*
X010454Y007917D01*
X010454Y007995D02*
X010277Y007995D01*
X010222Y008074D02*
X010454Y008074D01*
X010454Y008153D02*
X010132Y008153D01*
X010046Y008231D02*
X010454Y008231D01*
X010454Y008310D02*
X010187Y008310D01*
X010263Y008388D02*
X010454Y008388D01*
X010454Y008467D02*
X010295Y008467D01*
X010320Y008545D02*
X010454Y008545D01*
X010454Y008624D02*
X010320Y008624D01*
X010311Y008702D02*
X010454Y008702D01*
X010454Y008781D02*
X010278Y008781D01*
X010224Y008859D02*
X010454Y008859D01*
X010454Y008938D02*
X010137Y008938D01*
X010041Y009016D02*
X010454Y009016D01*
X010454Y009095D02*
X010185Y009095D01*
X010262Y009174D02*
X010454Y009174D01*
X010454Y009252D02*
X010294Y009252D01*
X010320Y009331D02*
X010454Y009331D01*
X010454Y009409D02*
X010320Y009409D01*
X010312Y009488D02*
X010454Y009488D01*
X010454Y009566D02*
X010279Y009566D01*
X010226Y009645D02*
X010454Y009645D01*
X010454Y009723D02*
X010142Y009723D01*
X010037Y009802D02*
X010454Y009802D01*
X010454Y010038D02*
X010294Y010038D01*
X010320Y010116D02*
X010454Y010116D01*
X010454Y010195D02*
X010320Y010195D01*
X010312Y010273D02*
X010454Y010273D01*
X010454Y010352D02*
X010280Y010352D01*
X010228Y010430D02*
X010454Y010430D01*
X010454Y010509D02*
X010146Y010509D01*
X010032Y010587D02*
X010454Y010587D01*
X010454Y010666D02*
X010181Y010666D01*
X010259Y010744D02*
X010454Y010744D01*
X010454Y010823D02*
X010293Y010823D01*
X010320Y010902D02*
X010454Y010902D01*
X010454Y010980D02*
X010320Y010980D01*
X010313Y011059D02*
X010454Y011059D01*
X010454Y011137D02*
X010281Y011137D01*
X010230Y011216D02*
X010454Y011216D01*
X010454Y011294D02*
X010151Y011294D01*
X010454Y011373D02*
X009801Y011373D01*
X009801Y011451D02*
X010454Y011451D01*
X010454Y011530D02*
X009801Y011530D01*
X009801Y011608D02*
X010454Y011608D01*
X010454Y011687D02*
X009801Y011687D01*
X009851Y011766D02*
X009989Y011766D01*
X009942Y011844D02*
X009913Y011844D01*
X009913Y011923D02*
X009939Y011923D01*
X009913Y012001D02*
X010197Y012001D01*
X010198Y012070D02*
X010198Y012329D01*
X010198Y012552D01*
X010275Y012552D01*
X010275Y012329D01*
X010275Y012070D01*
X010198Y012070D01*
X010198Y012080D02*
X010275Y012080D01*
X010275Y012158D02*
X010198Y012158D01*
X010198Y012237D02*
X010275Y012237D01*
X010275Y012315D02*
X010198Y012315D01*
X010198Y012394D02*
X010275Y012394D01*
X010275Y012472D02*
X010198Y012472D01*
X010198Y012551D02*
X010275Y012551D01*
X010275Y012630D02*
X010198Y012630D01*
X010198Y012844D01*
X010198Y013102D01*
X010275Y013102D01*
X010275Y012844D01*
X010275Y012630D01*
X010197Y012629D02*
X009913Y012629D01*
X009913Y012551D02*
X009939Y012551D01*
X009939Y012472D02*
X009913Y012472D01*
X009913Y012394D02*
X009945Y012394D01*
X010004Y012315D02*
X009596Y012315D01*
X009378Y012080D02*
X009361Y012080D01*
X009378Y012001D02*
X009282Y012001D01*
X009204Y011923D02*
X009378Y011923D01*
X009378Y011844D02*
X009125Y011844D01*
X009046Y011766D02*
X009441Y011766D01*
X009481Y011687D02*
X008968Y011687D01*
X008922Y011608D02*
X008889Y011608D01*
X008835Y011530D02*
X008811Y011530D01*
X008795Y011451D02*
X008732Y011451D01*
X008777Y011373D02*
X008654Y011373D01*
X008575Y011294D02*
X008777Y011294D01*
X008807Y011216D02*
X008528Y011216D01*
X008528Y011137D02*
X008864Y011137D01*
X009163Y011059D02*
X009281Y011059D01*
X009291Y011137D02*
X009311Y011137D01*
X009347Y011216D02*
X009389Y011216D01*
X009377Y011294D02*
X009468Y011294D01*
X009481Y011373D02*
X009377Y011373D01*
X009359Y011451D02*
X009481Y011451D01*
X009481Y011530D02*
X009320Y011530D01*
X009233Y011608D02*
X009481Y011608D01*
X009913Y012080D02*
X009939Y012080D01*
X009939Y012158D02*
X009913Y012158D01*
X009911Y012237D02*
X009947Y012237D01*
X010198Y011923D02*
X010275Y011923D01*
X010275Y011844D02*
X010198Y011844D01*
X010198Y011766D02*
X010275Y011766D01*
X010275Y012708D02*
X010198Y012708D01*
X010198Y012787D02*
X010275Y012787D01*
X010275Y012865D02*
X010198Y012865D01*
X010198Y012944D02*
X010275Y012944D01*
X010275Y013022D02*
X010198Y013022D01*
X010198Y013101D02*
X010275Y013101D01*
X010197Y013179D02*
X009913Y013179D01*
X009913Y013101D02*
X009939Y013101D01*
X009939Y013022D02*
X009913Y013022D01*
X009913Y012944D02*
X009945Y012944D01*
X010001Y012865D02*
X009491Y012865D01*
X009378Y012708D02*
X009334Y012708D01*
X009378Y012629D02*
X009256Y012629D01*
X009378Y012551D02*
X008132Y012551D01*
X008164Y012629D02*
X008376Y012629D01*
X008331Y012675D02*
X008331Y012675D01*
X008298Y012708D02*
X008174Y012708D01*
X008168Y012787D02*
X008219Y012787D01*
X008141Y012865D02*
X008135Y012865D01*
X008358Y013101D02*
X008419Y013101D01*
X008419Y013179D02*
X008279Y013179D01*
X008201Y013258D02*
X008419Y013258D01*
X008419Y013336D02*
X006159Y013336D01*
X006159Y013258D02*
X007582Y013258D01*
X007503Y013179D02*
X006159Y013179D01*
X006159Y013101D02*
X007424Y013101D01*
X007346Y013022D02*
X006159Y013022D01*
X006159Y012944D02*
X006514Y012944D01*
X006532Y012962D02*
X006449Y012879D01*
X006404Y012771D01*
X006404Y012653D01*
X006449Y012545D01*
X006532Y012462D01*
X006640Y012417D01*
X006758Y012417D01*
X006866Y012462D01*
X006949Y012545D01*
X006994Y012653D01*
X006994Y012771D01*
X006949Y012879D01*
X006866Y012962D01*
X006758Y013007D01*
X006640Y013007D01*
X006532Y012962D01*
X006443Y012865D02*
X005505Y012865D01*
X005505Y012787D02*
X006411Y012787D01*
X006404Y012708D02*
X005505Y012708D01*
X005505Y012629D02*
X006414Y012629D01*
X006446Y012551D02*
X005505Y012551D01*
X005505Y012472D02*
X005549Y012472D01*
X005549Y012483D02*
X005549Y012071D01*
X005614Y012007D01*
X006095Y012007D01*
X006149Y012061D01*
X006149Y011686D01*
X006214Y011622D01*
X006239Y011622D01*
X006239Y011068D01*
X006333Y010974D01*
X006585Y010722D01*
X006585Y010241D01*
X006650Y010177D01*
X007135Y010177D01*
X007199Y010241D01*
X007199Y011041D01*
X007135Y011105D01*
X006654Y011105D01*
X006559Y011200D01*
X006559Y011622D01*
X006585Y011622D01*
X006649Y011686D01*
X006649Y012368D01*
X006585Y012432D01*
X006214Y012432D01*
X006159Y012377D01*
X006159Y012483D01*
X006095Y012547D01*
X005614Y012547D01*
X005549Y012483D01*
X005549Y012394D02*
X005505Y012394D01*
X005505Y012315D02*
X005549Y012315D01*
X005549Y012237D02*
X005505Y012237D01*
X005505Y012158D02*
X005549Y012158D01*
X005549Y012080D02*
X005505Y012080D01*
X005505Y012001D02*
X006149Y012001D01*
X006149Y011923D02*
X005505Y011923D01*
X006149Y011844D02*
X001832Y011844D01*
X001754Y011766D02*
X006149Y011766D01*
X006149Y011687D02*
X001626Y011687D01*
X001436Y011608D02*
X003076Y011608D01*
X003016Y011530D02*
X000261Y011530D01*
X000261Y011608D02*
X001046Y011608D01*
X000856Y011687D02*
X000261Y011687D01*
X000261Y011766D02*
X000728Y011766D01*
X000650Y011844D02*
X000261Y011844D01*
X000261Y011923D02*
X000571Y011923D01*
X000520Y012001D02*
X000261Y012001D01*
X000261Y012080D02*
X000487Y012080D01*
X000454Y012158D02*
X000261Y012158D01*
X000261Y012237D02*
X000422Y012237D01*
X000412Y012315D02*
X000261Y012315D01*
X000261Y012394D02*
X000412Y012394D01*
X000412Y012472D02*
X000261Y012472D01*
X000261Y012551D02*
X000412Y012551D01*
X000429Y012629D02*
X000261Y012629D01*
X000261Y012708D02*
X000462Y012708D01*
X000494Y012787D02*
X000261Y012787D01*
X000261Y012865D02*
X000527Y012865D01*
X000588Y012944D02*
X000261Y012944D01*
X000261Y013022D02*
X000667Y013022D01*
X000745Y013101D02*
X000261Y013101D01*
X000261Y013179D02*
X000898Y013179D01*
X000261Y013258D02*
X001978Y013258D01*
X001978Y013336D02*
X000261Y013336D01*
X001584Y013179D02*
X001978Y013179D01*
X001978Y013101D02*
X001737Y013101D01*
X001815Y013022D02*
X001978Y013022D01*
X001978Y012944D02*
X001894Y012944D01*
X001956Y012865D02*
X001978Y012865D01*
X001963Y012001D02*
X001978Y012001D01*
X001978Y011923D02*
X001911Y011923D01*
X001490Y011294D02*
X001348Y011353D01*
X001194Y011353D01*
X001052Y011294D01*
X000261Y011294D01*
X000261Y011216D02*
X000973Y011216D01*
X000943Y011185D02*
X000884Y011043D01*
X000884Y010888D01*
X000943Y010746D01*
X001052Y010637D01*
X001194Y010578D01*
X001348Y010578D01*
X001490Y010637D01*
X001599Y010746D01*
X001658Y010888D01*
X001658Y011043D01*
X001599Y011185D01*
X001490Y011294D01*
X003011Y011294D01*
X003011Y011216D02*
X001569Y011216D01*
X001619Y011137D02*
X003011Y011137D01*
X003011Y011059D02*
X001652Y011059D01*
X001658Y010980D02*
X003011Y010980D01*
X003011Y010902D02*
X001658Y010902D01*
X001631Y010823D02*
X003011Y010823D01*
X003011Y010744D02*
X001598Y010744D01*
X001519Y010666D02*
X003011Y010666D01*
X003011Y010509D02*
X001485Y010509D01*
X001490Y010507D02*
X001348Y010566D01*
X001194Y010566D01*
X001052Y010507D01*
X000943Y010398D01*
X000884Y010255D01*
X000884Y010101D01*
X000943Y009959D01*
X001052Y009850D01*
X001194Y009791D01*
X001348Y009791D01*
X001490Y009850D01*
X001599Y009959D01*
X001658Y010101D01*
X001658Y010255D01*
X001599Y010398D01*
X001490Y010507D01*
X001567Y010430D02*
X003011Y010430D01*
X003011Y010352D02*
X001619Y010352D01*
X001651Y010273D02*
X003011Y010273D01*
X003011Y010195D02*
X001658Y010195D01*
X001658Y010116D02*
X003011Y010116D01*
X003011Y010038D02*
X001632Y010038D01*
X001600Y009959D02*
X003011Y009959D01*
X003011Y009880D02*
X001521Y009880D01*
X001480Y009723D02*
X003011Y009723D01*
X003015Y009645D02*
X001565Y009645D01*
X001599Y009610D02*
X001490Y009719D01*
X001348Y009778D01*
X001194Y009778D01*
X001052Y009719D01*
X000943Y009610D01*
X000884Y009468D01*
X000884Y009314D01*
X000943Y009171D01*
X001052Y009062D01*
X001194Y009003D01*
X001348Y009003D01*
X001490Y009062D01*
X001599Y009171D01*
X001658Y009314D01*
X001658Y009468D01*
X001599Y009610D01*
X001618Y009566D02*
X002540Y009566D01*
X002481Y009488D02*
X001650Y009488D01*
X001658Y009409D02*
X002481Y009409D01*
X002423Y009331D02*
X001658Y009331D01*
X001633Y009252D02*
X002344Y009252D01*
X002266Y009174D02*
X001600Y009174D01*
X001523Y009095D02*
X002211Y009095D01*
X002211Y009016D02*
X001380Y009016D01*
X001348Y008991D02*
X001194Y008991D01*
X001052Y008932D01*
X000943Y008823D01*
X000884Y008680D01*
X000884Y008526D01*
X000943Y008384D01*
X001052Y008275D01*
X001194Y008216D01*
X001348Y008216D01*
X001490Y008275D01*
X001599Y008384D01*
X001658Y008526D01*
X001658Y008680D01*
X001599Y008823D01*
X001490Y008932D01*
X001348Y008991D01*
X001476Y008938D02*
X002211Y008938D01*
X002211Y008859D02*
X001563Y008859D01*
X001617Y008781D02*
X002211Y008781D01*
X002272Y008702D02*
X001649Y008702D01*
X001658Y008624D02*
X002350Y008624D01*
X002429Y008545D02*
X001658Y008545D01*
X001634Y008467D02*
X003981Y008467D01*
X003981Y008545D02*
X003896Y008545D01*
X003974Y008624D02*
X003981Y008624D01*
X003981Y008388D02*
X001601Y008388D01*
X001525Y008310D02*
X002402Y008310D01*
X002323Y008231D02*
X001385Y008231D01*
X001348Y008203D02*
X001194Y008203D01*
X001052Y008144D01*
X000943Y008035D01*
X000884Y007893D01*
X000884Y007739D01*
X000943Y007596D01*
X001052Y007487D01*
X001194Y007428D01*
X001348Y007428D01*
X001490Y007487D01*
X001599Y007596D01*
X001658Y007739D01*
X001658Y007893D01*
X001599Y008035D01*
X001490Y008144D01*
X001348Y008203D01*
X001471Y008153D02*
X002244Y008153D01*
X002211Y008074D02*
X001561Y008074D01*
X001616Y007995D02*
X002211Y007995D01*
X002211Y007917D02*
X001649Y007917D01*
X001658Y007838D02*
X002211Y007838D01*
X002214Y007760D02*
X001658Y007760D01*
X001635Y007681D02*
X002293Y007681D01*
X002371Y007603D02*
X001602Y007603D01*
X001527Y007524D02*
X002450Y007524D01*
X002481Y007446D02*
X001390Y007446D01*
X001348Y007416D02*
X001194Y007416D01*
X001052Y007357D01*
X000943Y007248D01*
X000884Y007106D01*
X000884Y006951D01*
X000943Y006809D01*
X001052Y006700D01*
X001194Y006641D01*
X001348Y006641D01*
X001490Y006700D01*
X001599Y006809D01*
X001658Y006951D01*
X001658Y007106D01*
X001599Y007248D01*
X001490Y007357D01*
X001348Y007416D01*
X001466Y007367D02*
X002489Y007367D01*
X002567Y007289D02*
X001559Y007289D01*
X001615Y007210D02*
X003453Y007210D01*
X003453Y006817D02*
X002244Y006817D01*
X002330Y006739D02*
X003467Y006739D01*
X003402Y006660D02*
X004546Y006660D01*
X004468Y006582D02*
X003445Y006582D01*
X003445Y006503D02*
X004432Y006503D01*
X004413Y006425D02*
X003445Y006425D01*
X003445Y006346D02*
X003482Y006346D01*
X003900Y006346D02*
X004413Y006346D01*
X004437Y006267D02*
X003973Y006267D01*
X004006Y006189D02*
X004479Y006189D01*
X004561Y006110D02*
X004019Y006110D01*
X004019Y006032D02*
X004881Y006032D01*
X004881Y005953D02*
X003989Y005953D01*
X003939Y005875D02*
X004881Y005875D01*
X004832Y005796D02*
X003837Y005796D01*
X003546Y005796D02*
X003475Y005796D01*
X003475Y005718D02*
X004759Y005718D01*
X004727Y005639D02*
X003449Y005639D01*
X003445Y005561D02*
X004713Y005561D01*
X004713Y005482D02*
X003445Y005482D01*
X003445Y005404D02*
X004743Y005404D01*
X004793Y005325D02*
X003475Y005325D01*
X003475Y005246D02*
X004895Y005246D01*
X004883Y004775D02*
X006105Y004775D01*
X005370Y004697D02*
X004962Y004697D01*
X005040Y004618D02*
X005292Y004618D01*
X006855Y005639D02*
X006979Y005639D01*
X006908Y005718D02*
X006825Y005718D01*
X006825Y005796D02*
X006875Y005796D01*
X006863Y005875D02*
X006825Y005875D01*
X006825Y005953D02*
X006863Y005953D01*
X006965Y005325D02*
X007056Y005325D01*
X007060Y005246D02*
X007043Y005246D01*
X007351Y004618D02*
X007981Y004618D01*
X007981Y004540D02*
X007351Y004540D01*
X007351Y004461D02*
X007981Y004461D01*
X007981Y004382D02*
X007351Y004382D01*
X007351Y004304D02*
X007396Y004304D01*
X007634Y004697D02*
X007981Y004697D01*
X007981Y004775D02*
X007661Y004775D01*
X007661Y004854D02*
X007844Y004854D01*
X007822Y004932D02*
X007661Y004932D01*
X007661Y005011D02*
X007822Y005011D01*
X007822Y005089D02*
X007661Y005089D01*
X007636Y005168D02*
X007663Y005194D01*
X007681Y005226D01*
X007691Y005262D01*
X007691Y005325D02*
X007826Y005325D01*
X008083Y006267D02*
X008102Y006267D01*
X008102Y006346D02*
X008083Y006346D01*
X008083Y006425D02*
X008102Y006425D01*
X008102Y006503D02*
X008083Y006503D01*
X008083Y006582D02*
X008102Y006582D01*
X008102Y006660D02*
X008083Y006660D01*
X008083Y006739D02*
X008102Y006739D01*
X008102Y006817D02*
X008083Y006817D01*
X008469Y006817D02*
X008583Y006817D01*
X008583Y006739D02*
X008469Y006739D01*
X008465Y006660D02*
X008609Y006660D01*
X008613Y006582D02*
X008469Y006582D01*
X008469Y006503D02*
X008613Y006503D01*
X008613Y006425D02*
X008469Y006425D01*
X008464Y006346D02*
X008587Y006346D01*
X008583Y006267D02*
X008469Y006267D01*
X008734Y005639D02*
X009590Y005639D01*
X009604Y005673D02*
X009545Y005531D01*
X009545Y005377D01*
X009604Y005234D01*
X009713Y005125D01*
X009855Y005066D01*
X010009Y005066D01*
X010152Y005125D01*
X010261Y005234D01*
X010320Y005377D01*
X010320Y005531D01*
X010261Y005673D01*
X010152Y005782D01*
X010009Y005841D01*
X009855Y005841D01*
X009713Y005782D01*
X009604Y005673D01*
X009648Y005718D02*
X009269Y005718D01*
X009372Y005796D02*
X009747Y005796D01*
X009804Y005875D02*
X009451Y005875D01*
X009501Y005953D02*
X009672Y005953D01*
X009713Y005913D02*
X009604Y006022D01*
X009545Y006164D01*
X009545Y006318D01*
X009604Y006461D01*
X009713Y006570D01*
X009855Y006629D01*
X010009Y006629D01*
X010152Y006570D01*
X010261Y006461D01*
X010320Y006318D01*
X010320Y006164D01*
X010261Y006022D01*
X010152Y005913D01*
X010009Y005854D01*
X009855Y005854D01*
X009713Y005913D01*
X009600Y006032D02*
X009501Y006032D01*
X009501Y006110D02*
X009567Y006110D01*
X009545Y006189D02*
X009501Y006189D01*
X009501Y006267D02*
X009545Y006267D01*
X009557Y006346D02*
X009501Y006346D01*
X009501Y006425D02*
X009589Y006425D01*
X009646Y006503D02*
X009479Y006503D01*
X009501Y006582D02*
X009742Y006582D01*
X009809Y006660D02*
X009501Y006660D01*
X009501Y006739D02*
X009674Y006739D01*
X009601Y006817D02*
X009501Y006817D01*
X009501Y006896D02*
X009568Y006896D01*
X009545Y006974D02*
X009501Y006974D01*
X009501Y007053D02*
X009545Y007053D01*
X009556Y007131D02*
X009501Y007131D01*
X009501Y007210D02*
X009525Y007210D01*
X008968Y007148D02*
X008968Y006919D01*
X008968Y006852D01*
X008950Y006852D01*
X008950Y006919D01*
X008950Y007148D01*
X008968Y007148D01*
X008959Y007158D02*
X008959Y006843D01*
X008950Y006896D02*
X008968Y006896D01*
X008968Y006974D02*
X008950Y006974D01*
X008950Y007053D02*
X008968Y007053D01*
X008968Y007131D02*
X008950Y007131D01*
X008959Y007473D02*
X008919Y007512D01*
X008959Y007473D02*
X008998Y007512D01*
X008583Y007131D02*
X008439Y007131D01*
X008439Y007053D02*
X008583Y007053D01*
X008587Y006974D02*
X008465Y006974D01*
X008469Y006896D02*
X008583Y006896D01*
X007746Y007446D02*
X007685Y007446D01*
X007335Y008624D02*
X005447Y008624D01*
X005476Y008702D02*
X007306Y008702D01*
X007306Y008781D02*
X007267Y008781D01*
X007299Y008859D02*
X007306Y008859D01*
X007356Y009331D02*
X006501Y009331D01*
X006501Y009409D02*
X007340Y009409D01*
X007336Y009488D02*
X006501Y009488D01*
X006501Y009566D02*
X006607Y009566D01*
X006607Y009645D02*
X006501Y009645D01*
X006435Y009723D02*
X006607Y009723D01*
X006607Y009802D02*
X006356Y009802D01*
X006264Y009880D02*
X006618Y009880D01*
X006632Y010195D02*
X006089Y010195D01*
X006097Y010273D02*
X006585Y010273D01*
X006585Y010352D02*
X006097Y010352D01*
X006097Y010430D02*
X006585Y010430D01*
X006585Y010509D02*
X006097Y010509D01*
X006097Y010587D02*
X006585Y010587D01*
X006585Y010666D02*
X006097Y010666D01*
X006097Y010744D02*
X006563Y010744D01*
X006484Y010823D02*
X006097Y010823D01*
X006097Y010902D02*
X006406Y010902D01*
X006333Y010974D02*
X006333Y010974D01*
X006327Y010980D02*
X006097Y010980D01*
X006079Y011059D02*
X006248Y011059D01*
X006239Y011137D02*
X004442Y011137D01*
X004442Y011216D02*
X006239Y011216D01*
X006239Y011294D02*
X004442Y011294D01*
X004442Y011373D02*
X006239Y011373D01*
X006239Y011451D02*
X004442Y011451D01*
X004442Y011530D02*
X006239Y011530D01*
X006239Y011608D02*
X003619Y011608D01*
X003678Y011530D02*
X003828Y011530D01*
X003828Y011451D02*
X003684Y011451D01*
X003684Y011373D02*
X003828Y011373D01*
X003828Y011294D02*
X003684Y011294D01*
X003684Y011216D02*
X003828Y011216D01*
X003828Y011137D02*
X003684Y011137D01*
X003684Y011059D02*
X003828Y011059D01*
X003828Y010980D02*
X003684Y010980D01*
X003684Y010902D02*
X003828Y010902D01*
X003828Y010823D02*
X003684Y010823D01*
X003684Y010744D02*
X003828Y010744D01*
X003828Y010666D02*
X003684Y010666D01*
X003684Y010509D02*
X003828Y010509D01*
X003828Y010587D02*
X003388Y010587D01*
X003387Y010666D02*
X003307Y010666D01*
X003307Y010744D02*
X003387Y010744D01*
X003387Y010823D02*
X003307Y010823D01*
X003307Y010902D02*
X003387Y010902D01*
X003387Y010980D02*
X003307Y010980D01*
X003307Y011059D02*
X003387Y011059D01*
X003387Y011137D02*
X003307Y011137D01*
X003307Y011216D02*
X003387Y011216D01*
X003387Y011294D02*
X003307Y011294D01*
X003307Y011373D02*
X003387Y011373D01*
X003387Y011451D02*
X003307Y011451D01*
X003307Y011530D02*
X003387Y011530D01*
X003387Y011608D02*
X003307Y011608D01*
X003011Y011451D02*
X000261Y011451D01*
X000261Y011373D02*
X003011Y011373D01*
X002827Y011923D02*
X004655Y011923D01*
X004655Y012001D02*
X002827Y012001D01*
X002827Y012080D02*
X004655Y012080D01*
X004655Y012158D02*
X002827Y012158D01*
X002827Y012237D02*
X004655Y012237D01*
X004655Y012315D02*
X002827Y012315D01*
X002827Y012394D02*
X004655Y012394D01*
X004655Y012472D02*
X002827Y012472D01*
X002827Y012551D02*
X004655Y012551D01*
X004655Y012629D02*
X002827Y012629D01*
X002827Y012708D02*
X004655Y012708D01*
X004655Y012787D02*
X002827Y012787D01*
X002827Y012865D02*
X004655Y012865D01*
X004655Y012944D02*
X002827Y012944D01*
X002827Y013022D02*
X004655Y013022D01*
X004655Y013101D02*
X002827Y013101D01*
X002827Y013179D02*
X004655Y013179D01*
X004655Y013258D02*
X002827Y013258D01*
X002827Y013336D02*
X004655Y013336D01*
X005505Y013336D02*
X005549Y013336D01*
X005549Y013258D02*
X005505Y013258D01*
X005505Y013179D02*
X005549Y013179D01*
X005549Y013101D02*
X005505Y013101D01*
X005505Y013022D02*
X005549Y013022D01*
X005549Y012944D02*
X005505Y012944D01*
X006159Y012472D02*
X006521Y012472D01*
X006623Y012394D02*
X006765Y012394D01*
X006739Y012368D02*
X006804Y012432D01*
X007175Y012432D01*
X007239Y012368D01*
X007239Y011686D01*
X007199Y011647D01*
X007219Y011627D01*
X007269Y011506D01*
X007269Y011376D01*
X007219Y011255D01*
X007127Y011163D01*
X007006Y011113D01*
X006876Y011113D01*
X006755Y011163D01*
X006663Y011255D01*
X006613Y011376D01*
X006613Y011506D01*
X006663Y011627D01*
X006739Y011703D01*
X006739Y012368D01*
X006739Y012315D02*
X006649Y012315D01*
X006649Y012237D02*
X006739Y012237D01*
X006739Y012158D02*
X006649Y012158D01*
X006649Y012080D02*
X006739Y012080D01*
X006739Y012001D02*
X006649Y012001D01*
X006649Y011923D02*
X006739Y011923D01*
X006739Y011844D02*
X006649Y011844D01*
X006649Y011766D02*
X006739Y011766D01*
X006723Y011687D02*
X006649Y011687D01*
X006655Y011608D02*
X006559Y011608D01*
X006559Y011530D02*
X006623Y011530D01*
X006613Y011451D02*
X006559Y011451D01*
X006559Y011373D02*
X006614Y011373D01*
X006647Y011294D02*
X006559Y011294D01*
X006559Y011216D02*
X006702Y011216D01*
X006622Y011137D02*
X006817Y011137D01*
X007065Y011137D02*
X007304Y011137D01*
X007309Y011059D02*
X007181Y011059D01*
X007199Y010980D02*
X007365Y010980D01*
X007304Y010902D02*
X007199Y010902D01*
X007199Y010823D02*
X007304Y010823D01*
X007304Y010744D02*
X007199Y010744D01*
X007199Y010666D02*
X007304Y010666D01*
X007304Y010587D02*
X007199Y010587D01*
X007199Y010509D02*
X007295Y010509D01*
X007244Y010430D02*
X007199Y010430D01*
X007199Y010352D02*
X007213Y010352D01*
X007213Y010273D02*
X007199Y010273D01*
X007226Y010195D02*
X007153Y010195D01*
X007258Y010116D02*
X006089Y010116D01*
X006089Y010038D02*
X007331Y010038D01*
X007336Y009959D02*
X006089Y009959D01*
X005553Y009252D02*
X005474Y009252D01*
X005476Y009174D02*
X005566Y009174D01*
X005583Y009095D02*
X005476Y009095D01*
X005476Y009016D02*
X005583Y009016D01*
X005583Y008938D02*
X005081Y008938D01*
X005476Y008859D02*
X005583Y008859D01*
X005615Y008781D02*
X005476Y008781D01*
X005530Y008467D02*
X005552Y008467D01*
X005549Y008388D02*
X005533Y008388D01*
X005533Y008310D02*
X005549Y008310D01*
X005549Y008231D02*
X005533Y008231D01*
X005533Y008153D02*
X005549Y008153D01*
X005549Y008074D02*
X005533Y008074D01*
X005510Y007995D02*
X005572Y007995D01*
X005549Y007917D02*
X005533Y007917D01*
X005533Y007838D02*
X005549Y007838D01*
X005549Y007760D02*
X005533Y007760D01*
X005533Y007681D02*
X005549Y007681D01*
X005549Y007603D02*
X005533Y007603D01*
X006042Y008467D02*
X006170Y008467D01*
X007288Y009880D02*
X007336Y009880D01*
X007839Y010430D02*
X008004Y010430D01*
X007997Y010509D02*
X007835Y010509D01*
X007878Y010587D02*
X007954Y010587D01*
X007954Y010666D02*
X007878Y010666D01*
X007878Y010744D02*
X007954Y010744D01*
X007954Y010823D02*
X007878Y010823D01*
X007878Y010902D02*
X007954Y010902D01*
X008015Y010980D02*
X007817Y010980D01*
X007873Y011059D02*
X007959Y011059D01*
X007954Y011137D02*
X007878Y011137D01*
X007878Y011216D02*
X007954Y011216D01*
X007954Y011294D02*
X007878Y011294D01*
X007878Y011373D02*
X007954Y011373D01*
X007975Y011451D02*
X007857Y011451D01*
X007751Y011530D02*
X008358Y011530D01*
X008355Y011622D02*
X008419Y011686D01*
X008419Y012368D01*
X008355Y012432D01*
X007984Y012432D01*
X007919Y012368D01*
X007919Y011686D01*
X007984Y011622D01*
X008355Y011622D01*
X008437Y011608D02*
X007700Y011608D01*
X007621Y011687D02*
X007919Y011687D01*
X007919Y011766D02*
X007601Y011766D01*
X007601Y011844D02*
X007919Y011844D01*
X007919Y011923D02*
X007601Y011923D01*
X007601Y012001D02*
X007919Y012001D01*
X007919Y012080D02*
X007601Y012080D01*
X007601Y012158D02*
X007919Y012158D01*
X007919Y012237D02*
X007601Y012237D01*
X007601Y012315D02*
X007919Y012315D01*
X007945Y012394D02*
X007601Y012394D01*
X007601Y012472D02*
X007701Y012472D01*
X007626Y012551D02*
X007601Y012551D01*
X007281Y012551D02*
X006952Y012551D01*
X006984Y012629D02*
X007281Y012629D01*
X007281Y012708D02*
X006994Y012708D01*
X006988Y012787D02*
X007281Y012787D01*
X007281Y012865D02*
X006955Y012865D01*
X006885Y012944D02*
X007281Y012944D01*
X007281Y012472D02*
X006877Y012472D01*
X007213Y012394D02*
X007281Y012394D01*
X007281Y012315D02*
X007239Y012315D01*
X007239Y012237D02*
X007281Y012237D01*
X007281Y012158D02*
X007239Y012158D01*
X007239Y012080D02*
X007281Y012080D01*
X007281Y012001D02*
X007239Y012001D01*
X007239Y011923D02*
X007281Y011923D01*
X007281Y011844D02*
X007239Y011844D01*
X007239Y011766D02*
X007281Y011766D01*
X007281Y011687D02*
X007239Y011687D01*
X007227Y011608D02*
X007281Y011608D01*
X007259Y011530D02*
X007326Y011530D01*
X007325Y011451D02*
X007269Y011451D01*
X007268Y011373D02*
X007304Y011373D01*
X007304Y011294D02*
X007235Y011294D01*
X007180Y011216D02*
X007304Y011216D01*
X007869Y010352D02*
X007926Y010352D01*
X008419Y011687D02*
X008515Y011687D01*
X008594Y011766D02*
X008419Y011766D01*
X008419Y011844D02*
X008673Y011844D01*
X008751Y011923D02*
X008419Y011923D01*
X008419Y012001D02*
X008830Y012001D01*
X009029Y012237D02*
X009065Y012237D01*
X009029Y012315D02*
X009144Y012315D01*
X009222Y012394D02*
X009029Y012394D01*
X009029Y012472D02*
X009301Y012472D01*
X009913Y012708D02*
X009939Y012708D01*
X009944Y012787D02*
X009913Y012787D01*
X009913Y013258D02*
X009939Y013258D01*
X009944Y013336D02*
X009913Y013336D01*
X008419Y012472D02*
X008057Y012472D01*
X008393Y012394D02*
X008419Y012394D01*
X008419Y012315D02*
X008419Y012315D01*
X008419Y012237D02*
X008419Y012237D01*
X008419Y012158D02*
X008419Y012158D01*
X008419Y012080D02*
X008419Y012080D01*
X009601Y010744D02*
X009606Y010744D01*
X009601Y010666D02*
X009684Y010666D01*
X009601Y010587D02*
X009833Y010587D01*
X009718Y010509D02*
X009601Y010509D01*
X009601Y010430D02*
X009637Y010430D01*
X009601Y009880D02*
X009682Y009880D01*
X009601Y009802D02*
X009828Y009802D01*
X009723Y009723D02*
X009601Y009723D01*
X009601Y009645D02*
X009639Y009645D01*
X009601Y009174D02*
X009603Y009174D01*
X009601Y009095D02*
X009680Y009095D01*
X009593Y009016D02*
X009823Y009016D01*
X009728Y008938D02*
X009514Y008938D01*
X009436Y008859D02*
X009641Y008859D01*
X009587Y008781D02*
X009357Y008781D01*
X010127Y007367D02*
X010454Y007367D01*
X010454Y007289D02*
X010220Y007289D01*
X010277Y007210D02*
X010454Y007210D01*
X010454Y007131D02*
X010309Y007131D01*
X010320Y007053D02*
X010454Y007053D01*
X010454Y006974D02*
X010320Y006974D01*
X010297Y006896D02*
X010454Y006896D01*
X010454Y006817D02*
X010264Y006817D01*
X010191Y006739D02*
X010454Y006739D01*
X010454Y006660D02*
X010056Y006660D01*
X010123Y006582D02*
X010454Y006582D01*
X010454Y006503D02*
X010218Y006503D01*
X010276Y006425D02*
X010454Y006425D01*
X010454Y006346D02*
X010308Y006346D01*
X010320Y006267D02*
X010454Y006267D01*
X010454Y006189D02*
X010320Y006189D01*
X010298Y006110D02*
X010454Y006110D01*
X010454Y006032D02*
X010265Y006032D01*
X010193Y005953D02*
X010454Y005953D01*
X010454Y005875D02*
X010061Y005875D01*
X010118Y005796D02*
X010454Y005796D01*
X010454Y005718D02*
X010216Y005718D01*
X010275Y005639D02*
X010454Y005639D01*
X010454Y005561D02*
X010308Y005561D01*
X010320Y005482D02*
X010454Y005482D01*
X010454Y005404D02*
X010320Y005404D01*
X010298Y005325D02*
X010454Y005325D01*
X010454Y005246D02*
X010266Y005246D01*
X010195Y005168D02*
X010454Y005168D01*
X010454Y005089D02*
X010065Y005089D01*
X010113Y005011D02*
X010454Y005011D01*
X010454Y004932D02*
X010214Y004932D01*
X010274Y004854D02*
X010454Y004854D01*
X010454Y004775D02*
X010307Y004775D01*
X010320Y004697D02*
X010454Y004697D01*
X010454Y004618D02*
X010320Y004618D01*
X010299Y004540D02*
X010454Y004540D01*
X010454Y004461D02*
X010347Y004461D01*
X010426Y004382D02*
X010454Y004382D01*
X009800Y005089D02*
X009453Y005089D01*
X009485Y005011D02*
X009752Y005011D01*
X009650Y004932D02*
X009564Y004932D01*
X009495Y005168D02*
X009670Y005168D01*
X009599Y005246D02*
X009519Y005246D01*
X009519Y005325D02*
X009566Y005325D01*
X009545Y005404D02*
X009500Y005404D01*
X009464Y005482D02*
X009545Y005482D01*
X009557Y005561D02*
X009386Y005561D01*
X007981Y004304D02*
X007886Y004304D01*
X007965Y004225D02*
X007981Y004225D01*
X004862Y008388D02*
X004301Y008388D01*
X004301Y008310D02*
X004402Y008310D01*
X004323Y008231D02*
X004301Y008231D01*
X003981Y008231D02*
X003959Y008231D01*
X003981Y008310D02*
X003881Y008310D01*
X003681Y008545D02*
X003601Y008545D01*
X003601Y008481D02*
X003601Y008901D01*
X003181Y008901D01*
X003181Y008751D01*
X003451Y008481D01*
X003601Y008481D01*
X003601Y008624D02*
X003681Y008624D01*
X003681Y008702D02*
X003601Y008702D01*
X003601Y008781D02*
X003681Y008781D01*
X003681Y008859D02*
X003601Y008859D01*
X003601Y008938D02*
X003071Y008938D01*
X003071Y009016D02*
X003181Y009016D01*
X003181Y009095D02*
X003071Y009095D01*
X003017Y009174D02*
X003223Y009174D01*
X003302Y009252D02*
X002938Y009252D01*
X003071Y008859D02*
X003181Y008859D01*
X003181Y008781D02*
X003071Y008781D01*
X003010Y008702D02*
X003229Y008702D01*
X003308Y008624D02*
X002932Y008624D01*
X002853Y008545D02*
X003386Y008545D01*
X003402Y008310D02*
X002881Y008310D01*
X002959Y008231D02*
X003323Y008231D01*
X003244Y008153D02*
X003038Y008153D01*
X003071Y008074D02*
X003211Y008074D01*
X003211Y007995D02*
X003071Y007995D01*
X003071Y007917D02*
X003211Y007917D01*
X003211Y007838D02*
X003071Y007838D01*
X003068Y007760D02*
X003214Y007760D01*
X003293Y007681D02*
X002989Y007681D01*
X002911Y007603D02*
X003371Y007603D01*
X002768Y006660D02*
X002436Y006660D01*
X002480Y006281D02*
X002725Y006281D01*
X002725Y006030D01*
X002723Y006028D01*
X002704Y005996D01*
X002695Y005960D01*
X002695Y005847D01*
X003070Y005847D01*
X003070Y005817D01*
X002695Y005817D01*
X002695Y005703D01*
X002704Y005668D01*
X002718Y005644D01*
X002564Y005644D01*
X002564Y005668D01*
X002504Y005727D01*
X002508Y005728D01*
X002540Y005746D01*
X002566Y005772D01*
X002584Y005804D01*
X002594Y005840D01*
X002594Y005967D01*
X002306Y005967D01*
X002306Y006025D01*
X002594Y006025D01*
X002594Y006152D01*
X002584Y006188D01*
X002566Y006220D01*
X002540Y006246D01*
X002508Y006264D01*
X002476Y006273D01*
X002480Y006281D01*
X002496Y006267D02*
X002725Y006267D01*
X002725Y006189D02*
X002584Y006189D01*
X002594Y006110D02*
X002725Y006110D01*
X002725Y006032D02*
X002594Y006032D01*
X002594Y005953D02*
X002695Y005953D01*
X002695Y005875D02*
X002594Y005875D01*
X002579Y005796D02*
X002695Y005796D01*
X002695Y005718D02*
X002514Y005718D01*
X002564Y005324D02*
X002695Y005324D01*
X002695Y005217D01*
X003070Y005217D01*
X003070Y005187D01*
X002695Y005187D01*
X002695Y005073D01*
X002701Y005051D01*
X002619Y005051D01*
X002619Y005106D01*
X002569Y005227D01*
X002529Y005267D01*
X002564Y005301D01*
X002564Y005324D01*
X002550Y005246D02*
X002695Y005246D01*
X002695Y005168D02*
X002594Y005168D01*
X002619Y005089D02*
X002695Y005089D01*
X002032Y005246D02*
X001901Y005246D01*
X001901Y005168D02*
X001989Y005168D01*
X001963Y005089D02*
X001901Y005089D01*
X001963Y005011D02*
X001837Y005011D01*
X001758Y004932D02*
X001981Y004932D01*
X002014Y004854D02*
X001680Y004854D01*
X001645Y004775D02*
X001894Y004775D01*
X001850Y004697D02*
X001658Y004697D01*
X001658Y004618D02*
X001850Y004618D01*
X001850Y004540D02*
X001638Y004540D01*
X001605Y004461D02*
X001850Y004461D01*
X001850Y004382D02*
X001535Y004382D01*
X001409Y004304D02*
X001853Y004304D01*
X001820Y004225D02*
X001504Y004225D01*
X001592Y004147D02*
X001820Y004147D01*
X001820Y003990D02*
X001674Y003990D01*
X001643Y004068D02*
X002265Y004068D01*
X002324Y004068D02*
X002758Y004068D01*
X002769Y004046D02*
X002769Y003945D01*
X002861Y004037D01*
X002789Y004037D01*
X002725Y004101D01*
X002725Y004104D01*
X002324Y004104D01*
X002324Y004046D01*
X002769Y004046D01*
X002769Y003990D02*
X002814Y003990D01*
X001866Y003833D02*
X001686Y003833D01*
X001688Y003840D02*
X001310Y003840D01*
X001310Y003462D01*
X001369Y003472D01*
X001431Y003492D01*
X001490Y003522D01*
X001543Y003560D01*
X001589Y003607D01*
X001628Y003660D01*
X001658Y003719D01*
X001678Y003781D01*
X001688Y003840D01*
X001669Y003754D02*
X001850Y003754D01*
X001850Y003676D02*
X001636Y003676D01*
X001580Y003597D02*
X001850Y003597D01*
X001850Y003518D02*
X001483Y003518D01*
X001310Y003518D02*
X001232Y003518D01*
X001232Y003597D02*
X001310Y003597D01*
X001310Y003676D02*
X001232Y003676D01*
X001232Y003754D02*
X001310Y003754D01*
X001310Y003833D02*
X001232Y003833D01*
X001232Y003911D02*
X000261Y003911D01*
X000261Y003833D02*
X000856Y003833D01*
X000873Y003754D02*
X000261Y003754D01*
X000261Y003676D02*
X000906Y003676D01*
X000962Y003597D02*
X000261Y003597D01*
X000261Y003518D02*
X001059Y003518D01*
X001310Y003911D02*
X001822Y003911D01*
X001850Y003440D02*
X000261Y003440D01*
X000261Y003361D02*
X001908Y003361D01*
X001271Y002497D02*
X000261Y002497D01*
X000261Y002419D02*
X001193Y002419D01*
X001114Y002340D02*
X000892Y002340D01*
X000971Y002262D02*
X001036Y002262D01*
X000681Y002262D02*
X000601Y002262D01*
X000601Y002340D02*
X000681Y002340D01*
X000681Y002183D02*
X000601Y002183D01*
X000601Y002105D02*
X000681Y002105D01*
X000681Y002026D02*
X000601Y002026D01*
X000601Y001901D02*
X000681Y001901D01*
X000681Y001481D01*
X000832Y001481D01*
X000981Y001631D01*
X000981Y001507D01*
X000832Y001358D01*
X000819Y001371D01*
X000463Y001371D01*
X000261Y001169D01*
X000261Y001671D01*
X000451Y001481D01*
X000601Y001481D01*
X000601Y001901D01*
X000601Y001869D02*
X000681Y001869D01*
X000681Y001791D02*
X000601Y001791D01*
X000601Y001712D02*
X000681Y001712D01*
X000681Y001633D02*
X000601Y001633D01*
X000601Y001555D02*
X000681Y001555D01*
X000905Y001555D02*
X000981Y001555D01*
X000950Y001476D02*
X000261Y001476D01*
X000261Y001398D02*
X000872Y001398D01*
X000411Y001319D02*
X000261Y001319D01*
X000261Y001241D02*
X000333Y001241D01*
X000377Y001555D02*
X000261Y001555D01*
X000261Y001633D02*
X000298Y001633D01*
X000311Y002262D02*
X000261Y002262D01*
X000261Y002340D02*
X000390Y002340D01*
X000283Y000691D02*
X000261Y000691D01*
X000261Y000612D02*
X000362Y000612D01*
X000440Y000534D02*
X000261Y000534D01*
X000261Y003990D02*
X000868Y003990D01*
X000899Y004068D02*
X000261Y004068D01*
X000261Y004147D02*
X000950Y004147D01*
X001038Y004225D02*
X000261Y004225D01*
X000261Y004304D02*
X001133Y004304D01*
X001007Y004382D02*
X000261Y004382D01*
X000261Y004461D02*
X000937Y004461D01*
X000904Y004540D02*
X000261Y004540D01*
X000261Y004618D02*
X000884Y004618D01*
X000884Y004697D02*
X000261Y004697D01*
X000261Y004775D02*
X000897Y004775D01*
X000929Y004854D02*
X000261Y004854D01*
X000261Y004932D02*
X000989Y004932D01*
X001090Y005011D02*
X000261Y005011D01*
X000261Y005089D02*
X001138Y005089D01*
X001009Y005168D02*
X000261Y005168D01*
X000261Y005246D02*
X000937Y005246D01*
X000905Y005325D02*
X000261Y005325D01*
X000261Y005404D02*
X000884Y005404D01*
X000884Y005482D02*
X000261Y005482D01*
X000261Y005561D02*
X000896Y005561D01*
X000928Y005639D02*
X000261Y005639D01*
X000261Y005718D02*
X000987Y005718D01*
X001085Y005796D02*
X000261Y005796D01*
X000261Y005875D02*
X001143Y005875D01*
X001011Y005953D02*
X000261Y005953D01*
X000261Y006032D02*
X000938Y006032D01*
X000906Y006110D02*
X000261Y006110D01*
X000261Y006189D02*
X000884Y006189D01*
X000884Y006267D02*
X000261Y006267D01*
X000261Y006346D02*
X000895Y006346D01*
X000928Y006425D02*
X000261Y006425D01*
X000261Y006503D02*
X000985Y006503D01*
X001081Y006582D02*
X000261Y006582D01*
X000261Y006660D02*
X001148Y006660D01*
X001013Y006739D02*
X000261Y006739D01*
X000261Y006817D02*
X000939Y006817D01*
X000907Y006896D02*
X000261Y006896D01*
X000261Y006974D02*
X000884Y006974D01*
X000884Y007053D02*
X000261Y007053D01*
X000261Y007131D02*
X000894Y007131D01*
X000927Y007210D02*
X000261Y007210D01*
X000261Y007289D02*
X000983Y007289D01*
X001076Y007367D02*
X000261Y007367D01*
X000261Y007446D02*
X001152Y007446D01*
X001015Y007524D02*
X000261Y007524D01*
X000261Y007603D02*
X000940Y007603D01*
X000907Y007681D02*
X000261Y007681D01*
X000261Y007760D02*
X000884Y007760D01*
X000884Y007838D02*
X000261Y007838D01*
X000261Y007917D02*
X000893Y007917D01*
X000926Y007995D02*
X000261Y007995D01*
X000261Y008074D02*
X000981Y008074D01*
X001071Y008153D02*
X000261Y008153D01*
X000261Y008231D02*
X001157Y008231D01*
X001017Y008310D02*
X000261Y008310D01*
X000261Y008388D02*
X000941Y008388D01*
X000908Y008467D02*
X000261Y008467D01*
X000261Y008545D02*
X000884Y008545D01*
X000884Y008624D02*
X000261Y008624D01*
X000261Y008702D02*
X000893Y008702D01*
X000925Y008781D02*
X000261Y008781D01*
X000261Y008859D02*
X000979Y008859D01*
X001066Y008938D02*
X000261Y008938D01*
X000261Y009016D02*
X001162Y009016D01*
X001019Y009095D02*
X000261Y009095D01*
X000261Y009174D02*
X000942Y009174D01*
X000909Y009252D02*
X000261Y009252D01*
X000261Y009331D02*
X000884Y009331D01*
X000884Y009409D02*
X000261Y009409D01*
X000261Y009488D02*
X000892Y009488D01*
X000924Y009566D02*
X000261Y009566D01*
X000261Y009645D02*
X000977Y009645D01*
X001062Y009723D02*
X000261Y009723D01*
X000261Y009802D02*
X001167Y009802D01*
X001021Y009880D02*
X000261Y009880D01*
X000261Y009959D02*
X000942Y009959D01*
X000910Y010038D02*
X000261Y010038D01*
X000261Y010116D02*
X000884Y010116D01*
X000884Y010195D02*
X000261Y010195D01*
X000261Y010273D02*
X000891Y010273D01*
X000924Y010352D02*
X000261Y010352D01*
X000261Y010430D02*
X000975Y010430D01*
X001057Y010509D02*
X000261Y010509D01*
X000261Y010587D02*
X001171Y010587D01*
X001023Y010666D02*
X000261Y010666D01*
X000261Y010744D02*
X000944Y010744D01*
X000911Y010823D02*
X000261Y010823D01*
X000261Y010902D02*
X000884Y010902D01*
X000884Y010980D02*
X000261Y010980D01*
X000261Y011059D02*
X000890Y011059D01*
X000923Y011137D02*
X000261Y011137D01*
X000943Y011185D02*
X001052Y011294D01*
X001371Y010587D02*
X003307Y010587D01*
X003684Y010430D02*
X003828Y010430D01*
X003828Y010352D02*
X003684Y010352D01*
X003684Y010273D02*
X003828Y010273D01*
X003828Y010195D02*
X003684Y010195D01*
X003684Y010116D02*
X003828Y010116D01*
X003828Y010038D02*
X003684Y010038D01*
X003684Y009959D02*
X003828Y009959D01*
X003828Y009880D02*
X003684Y009880D01*
X003684Y009802D02*
X003828Y009802D01*
X003828Y009723D02*
X003684Y009723D01*
X003680Y009645D02*
X003828Y009645D01*
X004301Y008859D02*
X004606Y008859D01*
X004606Y008781D02*
X004301Y008781D01*
X004301Y008702D02*
X004606Y008702D01*
X004635Y008624D02*
X004301Y008624D01*
X003011Y009802D02*
X001375Y009802D01*
X001648Y007131D02*
X002105Y007131D01*
X002027Y007053D02*
X001658Y007053D01*
X001658Y006974D02*
X001948Y006974D01*
X001870Y006896D02*
X001635Y006896D01*
X001603Y006817D02*
X001791Y006817D01*
X001712Y006739D02*
X001529Y006739D01*
X001634Y006660D02*
X001394Y006660D01*
X001461Y006582D02*
X001581Y006582D01*
X001581Y006503D02*
X001557Y006503D01*
X001901Y006267D02*
X001908Y006267D01*
X001901Y006189D02*
X001969Y006189D01*
X001959Y006110D02*
X001901Y006110D01*
X001901Y006032D02*
X001959Y006032D01*
X001959Y005953D02*
X001901Y005953D01*
X001901Y005875D02*
X001959Y005875D01*
X001974Y005796D02*
X001901Y005796D01*
X001901Y005718D02*
X002039Y005718D01*
X001989Y005639D02*
X001901Y005639D01*
X001901Y005561D02*
X001989Y005561D01*
X001989Y005482D02*
X001901Y005482D01*
X001901Y005404D02*
X001989Y005404D01*
X001989Y005325D02*
X001901Y005325D01*
X001542Y005168D02*
X001533Y005168D01*
X001463Y005089D02*
X001404Y005089D01*
X001555Y005718D02*
X001581Y005718D01*
X001581Y005796D02*
X001457Y005796D01*
X001399Y005875D02*
X001581Y005875D01*
X001581Y005953D02*
X001531Y005953D01*
X006159Y012394D02*
X006176Y012394D01*
D30*
X006941Y011441D03*
X007541Y010291D03*
X007141Y008541D03*
X007541Y007741D03*
X007541Y007141D03*
X007191Y005891D03*
X006441Y006941D03*
X006241Y008141D03*
X004741Y006391D03*
X005391Y005941D03*
X005041Y005541D03*
X005441Y005191D03*
X004541Y004891D03*
X004041Y005541D03*
X003691Y006091D03*
X002291Y005041D03*
X002191Y006441D03*
X002841Y003041D03*
X001641Y002841D03*
X002141Y001441D03*
X006791Y003841D03*
X008541Y004291D03*
X009291Y004741D03*
X009191Y005291D03*
X009091Y003291D03*
X008641Y002941D03*
X008541Y008141D03*
X010241Y011541D03*
X004791Y010741D03*
M02*
