G75*
G70*
%OFA0B0*%
%FSLAX24Y24*%
%IPPOS*%
%LPD*%
%AMOC8*
5,1,8,0,0,1.08239X$1,22.5*
%
%ADD10C,0.0030*%
%ADD11OC8,0.0600*%
%ADD12R,0.0740X0.0740*%
%ADD13OC8,0.0740*%
%ADD14R,0.0515X0.0515*%
%ADD15C,0.0515*%
%ADD16C,0.0740*%
%ADD17C,0.0080*%
%ADD18C,0.0120*%
D10*
X002708Y001976D02*
X002708Y002170D01*
X002757Y002218D01*
X002902Y002218D01*
X002902Y001928D01*
X002757Y001928D01*
X002708Y001976D01*
X003003Y002121D02*
X003100Y001928D01*
X003196Y002121D01*
X003298Y002073D02*
X003298Y002024D01*
X003491Y002024D01*
X003491Y001976D02*
X003491Y002073D01*
X003443Y002121D01*
X003346Y002121D01*
X003298Y002073D01*
X003346Y001928D02*
X003443Y001928D01*
X003491Y001976D01*
X003592Y002121D02*
X003640Y002121D01*
X003737Y002024D01*
X003737Y001928D02*
X003737Y002121D01*
X004132Y002073D02*
X004326Y002073D01*
X004721Y002121D02*
X004769Y002121D01*
X004866Y002024D01*
X004866Y001928D02*
X004866Y002121D01*
X004967Y002073D02*
X004967Y002024D01*
X005161Y002024D01*
X005161Y001976D02*
X005161Y002073D01*
X005112Y002121D01*
X005016Y002121D01*
X004967Y002073D01*
X005016Y001928D02*
X005112Y001928D01*
X005161Y001976D01*
X005262Y001928D02*
X005262Y002073D01*
X005310Y002121D01*
X005359Y002073D01*
X005359Y001928D01*
X005455Y001928D02*
X005455Y002121D01*
X005407Y002121D01*
X005359Y002073D01*
X005557Y002073D02*
X005557Y001928D01*
X005653Y001928D02*
X005653Y002073D01*
X005605Y002121D01*
X005557Y002073D01*
X005653Y002073D02*
X005702Y002121D01*
X005750Y002121D01*
X005750Y001928D01*
X005851Y001928D02*
X005851Y002073D01*
X005900Y002121D01*
X005996Y002121D01*
X005996Y002024D02*
X005851Y002024D01*
X005851Y001928D02*
X005996Y001928D01*
X006045Y001976D01*
X005996Y002024D01*
X006145Y002121D02*
X006193Y002121D01*
X006290Y002024D01*
X006290Y001928D02*
X006290Y002121D01*
X006391Y002121D02*
X006536Y002121D01*
X006585Y002073D01*
X006585Y001976D01*
X006536Y001928D01*
X006391Y001928D01*
X006391Y001879D02*
X006391Y002121D01*
X006391Y001879D02*
X006440Y001831D01*
X006488Y001831D01*
X006686Y001976D02*
X006686Y002073D01*
X006734Y002121D01*
X006831Y002121D01*
X006879Y002073D01*
X006879Y001976D01*
X006831Y001928D01*
X006734Y001928D01*
X006686Y001976D01*
X006980Y002121D02*
X007028Y002121D01*
X007125Y002024D01*
X007125Y001928D02*
X007125Y002121D01*
X007226Y002073D02*
X007226Y001976D01*
X007275Y001928D01*
X007420Y001928D01*
X007420Y001831D02*
X007420Y002121D01*
X007275Y002121D01*
X007226Y002073D01*
D11*
X007045Y002941D03*
X008045Y003941D03*
X010045Y002941D03*
X005045Y007941D03*
X004045Y007941D03*
X004045Y008941D03*
X003045Y008941D03*
X003045Y007941D03*
D12*
X002145Y011391D03*
X007045Y012591D03*
D13*
X007045Y011591D03*
X006045Y011591D03*
X006045Y012591D03*
X005045Y012591D03*
X005045Y011591D03*
D14*
X000845Y002691D03*
D15*
X000845Y003479D03*
X000845Y004266D03*
X000845Y005053D03*
X000845Y005841D03*
X000845Y006628D03*
X000845Y007416D03*
X000845Y008203D03*
X000845Y008990D03*
X000845Y009778D03*
D16*
X002145Y009391D03*
X002145Y008391D03*
X002145Y010391D03*
D17*
X000585Y002294D02*
X000585Y002144D01*
X000701Y002211D01*
X000994Y002290D01*
X001296Y002290D01*
X001588Y002211D01*
X001850Y002060D01*
X002064Y001846D01*
X002215Y001584D01*
X002294Y001292D01*
X002294Y000990D01*
X002215Y000698D01*
X002148Y000581D01*
X008824Y000581D01*
X008756Y000698D01*
X008678Y000990D01*
X008678Y001292D01*
X008756Y001584D01*
X008908Y001846D01*
X009121Y002060D01*
X009383Y002211D01*
X009676Y002290D01*
X009978Y002290D01*
X010270Y002211D01*
X010388Y002143D01*
X010390Y002664D01*
X010227Y002501D01*
X009863Y002501D01*
X009605Y002759D01*
X009605Y003123D01*
X009845Y003363D01*
X009845Y009655D01*
X007291Y012081D01*
X007276Y012081D01*
X007555Y011802D01*
X007555Y011380D01*
X007256Y011081D01*
X006872Y011081D01*
X007125Y010841D01*
X007128Y010841D01*
X007185Y010784D01*
X007243Y010729D01*
X007243Y010726D01*
X007245Y010724D01*
X007245Y010643D01*
X007247Y010563D01*
X007245Y010561D01*
X007245Y003363D01*
X007485Y003123D01*
X007485Y002759D01*
X007227Y002501D01*
X006863Y002501D01*
X006605Y002759D01*
X006605Y003123D01*
X006845Y003363D01*
X006845Y010555D01*
X006273Y011098D01*
X006256Y011081D01*
X005834Y011081D01*
X005545Y011370D01*
X005256Y011081D01*
X005085Y011081D01*
X005085Y011551D01*
X005005Y011551D01*
X005005Y011081D01*
X004834Y011081D01*
X004535Y011380D01*
X004535Y011551D01*
X005005Y011551D01*
X005005Y011631D01*
X004535Y011631D01*
X004535Y011802D01*
X004824Y012091D01*
X004786Y012128D01*
X004495Y011895D01*
X004495Y010474D01*
X005245Y009724D01*
X005245Y009558D01*
X005245Y008363D01*
X005485Y008123D01*
X005485Y007759D01*
X005227Y007501D01*
X004863Y007501D01*
X004605Y007759D01*
X004605Y008123D01*
X004845Y008363D01*
X004845Y009558D01*
X004095Y010308D01*
X004095Y010474D01*
X004095Y011921D01*
X004087Y011931D01*
X004095Y012002D01*
X004095Y012074D01*
X004104Y012083D01*
X004105Y012096D01*
X004161Y012140D01*
X004212Y012191D01*
X004225Y012191D01*
X004535Y012439D01*
X004535Y012802D01*
X004834Y013101D01*
X005256Y013101D01*
X005545Y012812D01*
X005834Y013101D01*
X006256Y013101D01*
X006535Y012822D01*
X006535Y013019D01*
X006617Y013101D01*
X007473Y013101D01*
X007555Y013019D01*
X007555Y012382D01*
X010125Y009941D01*
X010128Y009941D01*
X010185Y009884D01*
X010243Y009829D01*
X010243Y009826D01*
X010245Y009824D01*
X010245Y009743D01*
X010247Y009663D01*
X010245Y009661D01*
X010245Y003363D01*
X010392Y003216D01*
X010423Y011759D01*
X010270Y011671D01*
X009978Y011592D01*
X009676Y011592D01*
X009383Y011671D01*
X009121Y011822D01*
X008908Y012036D01*
X008756Y012298D01*
X008678Y012590D01*
X008678Y012892D01*
X008756Y013184D01*
X008816Y013287D01*
X002156Y013287D01*
X002215Y013184D01*
X002294Y012892D01*
X002294Y012590D01*
X002215Y012298D01*
X002064Y012036D01*
X001929Y011901D01*
X002105Y011901D01*
X002105Y011431D01*
X002185Y011431D01*
X002655Y011431D01*
X002655Y011780D01*
X002645Y011815D01*
X002627Y011847D01*
X002601Y011873D01*
X002569Y011892D01*
X002533Y011901D01*
X002185Y011901D01*
X002185Y011431D01*
X002185Y011351D01*
X002655Y011351D01*
X002655Y011003D01*
X002645Y010967D01*
X002627Y010935D01*
X002601Y010909D01*
X002569Y010891D01*
X002533Y010881D01*
X002294Y010881D01*
X002434Y010823D01*
X004095Y010823D01*
X004095Y010902D02*
X002588Y010902D01*
X002649Y010980D02*
X004095Y010980D01*
X004095Y011059D02*
X002655Y011059D01*
X002655Y011137D02*
X004095Y011137D01*
X004095Y011216D02*
X002655Y011216D01*
X002655Y011294D02*
X004095Y011294D01*
X004095Y011373D02*
X002185Y011373D01*
X002185Y011451D02*
X002105Y011451D01*
X002105Y011431D02*
X002105Y011351D01*
X001635Y011351D01*
X001635Y011003D01*
X001644Y010967D01*
X001663Y010935D01*
X001689Y010909D01*
X001721Y010891D01*
X001756Y010881D01*
X001995Y010881D01*
X001856Y010823D01*
X000585Y010823D01*
X000585Y010902D02*
X001702Y010902D01*
X001641Y010980D02*
X000585Y010980D01*
X000585Y011059D02*
X001635Y011059D01*
X001635Y011137D02*
X000585Y011137D01*
X000585Y011216D02*
X001635Y011216D01*
X001635Y011294D02*
X000585Y011294D01*
X000585Y011373D02*
X002105Y011373D01*
X002105Y011431D02*
X001635Y011431D01*
X001635Y011698D01*
X001588Y011671D01*
X001296Y011592D01*
X000994Y011592D01*
X000701Y011671D01*
X000585Y011738D01*
X000585Y010080D01*
X000620Y010115D01*
X000766Y010175D01*
X000924Y010175D01*
X001070Y010115D01*
X001182Y010003D01*
X001242Y009857D01*
X001242Y009699D01*
X001198Y009591D01*
X001329Y009591D01*
X001676Y009591D01*
X001713Y009680D01*
X001856Y009823D01*
X002019Y009891D01*
X001856Y009959D01*
X001200Y009959D01*
X001233Y009880D02*
X001994Y009880D01*
X001856Y009959D02*
X001713Y010102D01*
X001635Y010290D01*
X001635Y010493D01*
X001713Y010680D01*
X001856Y010823D01*
X001777Y010744D02*
X000585Y010744D01*
X000585Y010666D02*
X001707Y010666D01*
X001674Y010587D02*
X000585Y010587D01*
X000585Y010509D02*
X001642Y010509D01*
X001635Y010430D02*
X000585Y010430D01*
X000585Y010352D02*
X001635Y010352D01*
X001642Y010273D02*
X000585Y010273D01*
X000585Y010195D02*
X001674Y010195D01*
X001707Y010116D02*
X001066Y010116D01*
X001147Y010038D02*
X001777Y010038D01*
X001834Y009802D02*
X001242Y009802D01*
X001242Y009723D02*
X001756Y009723D01*
X001698Y009645D02*
X001220Y009645D01*
X000623Y010116D02*
X000585Y010116D01*
X000585Y011451D02*
X001635Y011451D01*
X001635Y011530D02*
X000585Y011530D01*
X000585Y011608D02*
X000934Y011608D01*
X000673Y011687D02*
X000585Y011687D01*
X001356Y011608D02*
X001635Y011608D01*
X001635Y011687D02*
X001616Y011687D01*
X001951Y011923D02*
X004094Y011923D01*
X004095Y012001D02*
X002029Y012001D01*
X002089Y012080D02*
X004101Y012080D01*
X004179Y012158D02*
X002135Y012158D01*
X002180Y012237D02*
X004282Y012237D01*
X004380Y012315D02*
X002220Y012315D01*
X002241Y012394D02*
X004478Y012394D01*
X004535Y012472D02*
X002262Y012472D01*
X002283Y012551D02*
X004535Y012551D01*
X004535Y012629D02*
X002294Y012629D01*
X002294Y012708D02*
X004535Y012708D01*
X004535Y012787D02*
X002294Y012787D01*
X002294Y012865D02*
X004598Y012865D01*
X004676Y012944D02*
X002280Y012944D01*
X002259Y013022D02*
X004755Y013022D01*
X004833Y013101D02*
X002238Y013101D01*
X002217Y013179D02*
X008755Y013179D01*
X008734Y013101D02*
X007473Y013101D01*
X007552Y013022D02*
X008713Y013022D01*
X008692Y012944D02*
X007555Y012944D01*
X007555Y012865D02*
X008678Y012865D01*
X008678Y012787D02*
X007555Y012787D01*
X007555Y012708D02*
X008678Y012708D01*
X008678Y012629D02*
X007555Y012629D01*
X007555Y012551D02*
X008689Y012551D01*
X008710Y012472D02*
X007555Y012472D01*
X007555Y012394D02*
X008731Y012394D01*
X008752Y012315D02*
X007625Y012315D01*
X007708Y012237D02*
X008792Y012237D01*
X008837Y012158D02*
X007791Y012158D01*
X007874Y012080D02*
X008882Y012080D01*
X008942Y012001D02*
X007956Y012001D01*
X008039Y011923D02*
X009021Y011923D01*
X009099Y011844D02*
X008122Y011844D01*
X008204Y011766D02*
X009219Y011766D01*
X009355Y011687D02*
X008287Y011687D01*
X008370Y011608D02*
X009616Y011608D01*
X010038Y011608D02*
X010423Y011608D01*
X010422Y011530D02*
X008452Y011530D01*
X008535Y011451D02*
X010422Y011451D01*
X010422Y011373D02*
X008618Y011373D01*
X008700Y011294D02*
X010422Y011294D01*
X010421Y011216D02*
X008783Y011216D01*
X008866Y011137D02*
X010421Y011137D01*
X010421Y011059D02*
X008948Y011059D01*
X009031Y010980D02*
X010420Y010980D01*
X010420Y010902D02*
X009114Y010902D01*
X009196Y010823D02*
X010420Y010823D01*
X010420Y010744D02*
X009279Y010744D01*
X009362Y010666D02*
X010419Y010666D01*
X010419Y010587D02*
X009444Y010587D01*
X009527Y010509D02*
X010419Y010509D01*
X010418Y010430D02*
X009610Y010430D01*
X009692Y010352D02*
X010418Y010352D01*
X010418Y010273D02*
X009775Y010273D01*
X009858Y010195D02*
X010417Y010195D01*
X010417Y010116D02*
X009940Y010116D01*
X010023Y010038D02*
X010417Y010038D01*
X010417Y009959D02*
X010106Y009959D01*
X010188Y009880D02*
X010416Y009880D01*
X010416Y009802D02*
X010245Y009802D01*
X010245Y009723D02*
X010416Y009723D01*
X010415Y009645D02*
X010245Y009645D01*
X010245Y009566D02*
X010415Y009566D01*
X010415Y009488D02*
X010245Y009488D01*
X010245Y009409D02*
X010415Y009409D01*
X010414Y009331D02*
X010245Y009331D01*
X010245Y009252D02*
X010414Y009252D01*
X010414Y009174D02*
X010245Y009174D01*
X010245Y009095D02*
X010413Y009095D01*
X010413Y009016D02*
X010245Y009016D01*
X010245Y008938D02*
X010413Y008938D01*
X010413Y008859D02*
X010245Y008859D01*
X010245Y008781D02*
X010412Y008781D01*
X010412Y008702D02*
X010245Y008702D01*
X010245Y008624D02*
X010412Y008624D01*
X010411Y008545D02*
X010245Y008545D01*
X010245Y008467D02*
X010411Y008467D01*
X010411Y008388D02*
X010245Y008388D01*
X010245Y008310D02*
X010411Y008310D01*
X010410Y008231D02*
X010245Y008231D01*
X010245Y008153D02*
X010410Y008153D01*
X010410Y008074D02*
X010245Y008074D01*
X010245Y007995D02*
X010409Y007995D01*
X010409Y007917D02*
X010245Y007917D01*
X010245Y007838D02*
X010409Y007838D01*
X010409Y007760D02*
X010245Y007760D01*
X010245Y007681D02*
X010408Y007681D01*
X010408Y007603D02*
X010245Y007603D01*
X010245Y007524D02*
X010408Y007524D01*
X010407Y007446D02*
X010245Y007446D01*
X010245Y007367D02*
X010407Y007367D01*
X010407Y007289D02*
X010245Y007289D01*
X010245Y007210D02*
X010407Y007210D01*
X010406Y007131D02*
X010245Y007131D01*
X010245Y007053D02*
X010406Y007053D01*
X010406Y006974D02*
X010245Y006974D01*
X010245Y006896D02*
X010405Y006896D01*
X010405Y006817D02*
X010245Y006817D01*
X010245Y006739D02*
X010405Y006739D01*
X010404Y006660D02*
X010245Y006660D01*
X010245Y006582D02*
X010404Y006582D01*
X010404Y006503D02*
X010245Y006503D01*
X010245Y006425D02*
X010404Y006425D01*
X010403Y006346D02*
X010245Y006346D01*
X010245Y006267D02*
X010403Y006267D01*
X010403Y006189D02*
X010245Y006189D01*
X010245Y006110D02*
X010402Y006110D01*
X010402Y006032D02*
X010245Y006032D01*
X010245Y005953D02*
X010402Y005953D01*
X010402Y005875D02*
X010245Y005875D01*
X010245Y005796D02*
X010401Y005796D01*
X010401Y005718D02*
X010245Y005718D01*
X010245Y005639D02*
X010401Y005639D01*
X010400Y005561D02*
X010245Y005561D01*
X010245Y005482D02*
X010400Y005482D01*
X010400Y005404D02*
X010245Y005404D01*
X010245Y005325D02*
X010400Y005325D01*
X010399Y005246D02*
X010245Y005246D01*
X010245Y005168D02*
X010399Y005168D01*
X010399Y005089D02*
X010245Y005089D01*
X010245Y005011D02*
X010398Y005011D01*
X010398Y004932D02*
X010245Y004932D01*
X010245Y004854D02*
X010398Y004854D01*
X010398Y004775D02*
X010245Y004775D01*
X010245Y004697D02*
X010397Y004697D01*
X010397Y004618D02*
X010245Y004618D01*
X010245Y004540D02*
X010397Y004540D01*
X010396Y004461D02*
X010245Y004461D01*
X010245Y004382D02*
X010396Y004382D01*
X010396Y004304D02*
X010245Y004304D01*
X010245Y004225D02*
X010396Y004225D01*
X010395Y004147D02*
X010245Y004147D01*
X010245Y004068D02*
X010395Y004068D01*
X010395Y003990D02*
X010245Y003990D01*
X010245Y003911D02*
X010394Y003911D01*
X010394Y003833D02*
X010245Y003833D01*
X010245Y003754D02*
X010394Y003754D01*
X010394Y003676D02*
X010245Y003676D01*
X010245Y003597D02*
X010393Y003597D01*
X010393Y003518D02*
X010245Y003518D01*
X010245Y003440D02*
X010393Y003440D01*
X010392Y003361D02*
X010247Y003361D01*
X010325Y003283D02*
X010392Y003283D01*
X010380Y002654D02*
X010390Y002654D01*
X010389Y002576D02*
X010302Y002576D01*
X010389Y002497D02*
X001242Y002497D01*
X001242Y002419D02*
X010389Y002419D01*
X010389Y002340D02*
X002999Y002340D01*
X002966Y002373D02*
X003057Y002282D01*
X003057Y002267D01*
X003100Y002252D01*
X003208Y002289D01*
X003266Y002260D01*
X003282Y002276D01*
X003410Y002276D01*
X003507Y002276D01*
X003517Y002266D01*
X003527Y002276D01*
X003704Y002276D01*
X003801Y002276D01*
X003892Y002185D01*
X003892Y002089D01*
X003892Y001960D01*
X003892Y001864D01*
X003801Y001773D01*
X003672Y001773D01*
X003590Y001856D01*
X003507Y001773D01*
X003282Y001773D01*
X003229Y001826D01*
X003226Y001818D01*
X003215Y001812D01*
X003210Y001801D01*
X003159Y001784D01*
X003112Y001760D01*
X003100Y001764D01*
X003088Y001760D01*
X003040Y001784D01*
X002993Y001800D01*
X002966Y001773D01*
X002821Y001773D01*
X002693Y001773D01*
X002644Y001821D01*
X002553Y001912D01*
X002553Y002169D01*
X002553Y002234D01*
X002602Y002282D01*
X002602Y002282D01*
X002624Y002304D01*
X002692Y002373D01*
X002692Y002373D01*
X002693Y002373D01*
X002757Y002373D01*
X002821Y002373D01*
X002821Y002373D01*
X002966Y002373D01*
X003071Y002262D02*
X003128Y002262D01*
X003262Y002262D02*
X003267Y002262D01*
X003264Y001791D02*
X003178Y001791D01*
X003021Y001791D02*
X002984Y001791D01*
X002675Y001791D02*
X002096Y001791D01*
X002142Y001712D02*
X006340Y001712D01*
X006305Y001747D02*
X006375Y001676D01*
X006375Y001676D01*
X006376Y001676D01*
X006439Y001676D01*
X006504Y001676D01*
X006552Y001676D01*
X006643Y001767D01*
X006643Y001800D01*
X006670Y001773D01*
X006767Y001773D01*
X006895Y001773D01*
X006978Y001856D01*
X007061Y001773D01*
X007189Y001773D01*
X007200Y001783D01*
X007210Y001773D01*
X007265Y001773D01*
X007265Y001767D01*
X007355Y001676D01*
X007484Y001676D01*
X007575Y001767D01*
X007575Y001864D01*
X007575Y001992D01*
X007575Y002057D01*
X007575Y002185D01*
X007484Y002276D01*
X007339Y002276D01*
X007210Y002276D01*
X007200Y002266D01*
X007189Y002276D01*
X007092Y002276D01*
X006916Y002276D01*
X006906Y002266D01*
X006895Y002276D01*
X006767Y002276D01*
X006670Y002276D01*
X006635Y002241D01*
X006601Y002276D01*
X006472Y002276D01*
X006354Y002276D01*
X006258Y002276D01*
X006081Y002276D01*
X006071Y002266D01*
X006061Y002276D01*
X005835Y002276D01*
X005825Y002266D01*
X005814Y002276D01*
X005702Y002276D01*
X005669Y002276D01*
X005669Y002276D01*
X005653Y002276D01*
X005638Y002276D01*
X005606Y002276D01*
X005541Y002276D01*
X005541Y002276D01*
X005541Y002276D01*
X005530Y002266D01*
X005520Y002276D01*
X005408Y002276D01*
X005374Y002276D01*
X005358Y002276D01*
X005343Y002276D01*
X005311Y002276D01*
X005246Y002276D01*
X005211Y002241D01*
X005177Y002276D01*
X005080Y002276D01*
X004951Y002276D01*
X004941Y002266D01*
X004930Y002276D01*
X004834Y002276D01*
X004657Y002276D01*
X004566Y002185D01*
X004566Y002057D01*
X004657Y001966D01*
X004705Y001966D01*
X004711Y001960D01*
X004711Y001864D01*
X004802Y001773D01*
X004930Y001773D01*
X004941Y001783D01*
X004951Y001773D01*
X005048Y001773D01*
X005177Y001773D01*
X005187Y001783D01*
X005198Y001773D01*
X005326Y001773D01*
X005423Y001773D01*
X005520Y001773D01*
X005621Y001773D01*
X005717Y001773D01*
X005814Y001773D01*
X005932Y001773D01*
X006061Y001773D01*
X006109Y001821D01*
X006143Y001856D01*
X006226Y001773D01*
X006279Y001773D01*
X006285Y001767D01*
X006305Y001747D01*
X006285Y001767D02*
X006285Y001767D01*
X006208Y001791D02*
X006078Y001791D01*
X006504Y001676D02*
X006504Y001676D01*
X006588Y001712D02*
X007319Y001712D01*
X007520Y001712D02*
X008830Y001712D01*
X008875Y001791D02*
X007575Y001791D01*
X007575Y001869D02*
X008930Y001869D01*
X009009Y001948D02*
X007575Y001948D01*
X007575Y002026D02*
X009087Y002026D01*
X009198Y002105D02*
X007575Y002105D01*
X007575Y002183D02*
X009335Y002183D01*
X009571Y002262D02*
X007498Y002262D01*
X007302Y002576D02*
X009788Y002576D01*
X009709Y002654D02*
X007380Y002654D01*
X007459Y002733D02*
X009631Y002733D01*
X009605Y002812D02*
X007485Y002812D01*
X007485Y002890D02*
X009605Y002890D01*
X009605Y002969D02*
X007485Y002969D01*
X007485Y003047D02*
X009605Y003047D01*
X009607Y003126D02*
X007482Y003126D01*
X007404Y003204D02*
X009686Y003204D01*
X009764Y003283D02*
X007325Y003283D01*
X007247Y003361D02*
X009843Y003361D01*
X009845Y003440D02*
X007245Y003440D01*
X007245Y003518D02*
X007845Y003518D01*
X007863Y003501D02*
X008227Y003501D01*
X008485Y003759D01*
X008485Y004123D01*
X008227Y004381D01*
X007863Y004381D01*
X007605Y004123D01*
X007605Y003759D01*
X007863Y003501D01*
X007767Y003597D02*
X007245Y003597D01*
X007245Y003676D02*
X007688Y003676D01*
X007610Y003754D02*
X007245Y003754D01*
X007245Y003833D02*
X007605Y003833D01*
X007605Y003911D02*
X007245Y003911D01*
X007245Y003990D02*
X007605Y003990D01*
X007605Y004068D02*
X007245Y004068D01*
X007245Y004147D02*
X007628Y004147D01*
X007707Y004225D02*
X007245Y004225D01*
X007245Y004304D02*
X007785Y004304D01*
X008304Y004304D02*
X009845Y004304D01*
X009845Y004382D02*
X007245Y004382D01*
X007245Y004461D02*
X009845Y004461D01*
X009845Y004540D02*
X007245Y004540D01*
X007245Y004618D02*
X009845Y004618D01*
X009845Y004697D02*
X007245Y004697D01*
X007245Y004775D02*
X009845Y004775D01*
X009845Y004854D02*
X007245Y004854D01*
X007245Y004932D02*
X009845Y004932D01*
X009845Y005011D02*
X007245Y005011D01*
X007245Y005089D02*
X009845Y005089D01*
X009845Y005168D02*
X007245Y005168D01*
X007245Y005246D02*
X009845Y005246D01*
X009845Y005325D02*
X007245Y005325D01*
X007245Y005404D02*
X009845Y005404D01*
X009845Y005482D02*
X007245Y005482D01*
X007245Y005561D02*
X009845Y005561D01*
X009845Y005639D02*
X007245Y005639D01*
X007245Y005718D02*
X009845Y005718D01*
X009845Y005796D02*
X007245Y005796D01*
X007245Y005875D02*
X009845Y005875D01*
X009845Y005953D02*
X007245Y005953D01*
X007245Y006032D02*
X009845Y006032D01*
X009845Y006110D02*
X007245Y006110D01*
X007245Y006189D02*
X009845Y006189D01*
X009845Y006267D02*
X007245Y006267D01*
X007245Y006346D02*
X009845Y006346D01*
X009845Y006425D02*
X007245Y006425D01*
X007245Y006503D02*
X009845Y006503D01*
X009845Y006582D02*
X007245Y006582D01*
X007245Y006660D02*
X009845Y006660D01*
X009845Y006739D02*
X007245Y006739D01*
X007245Y006817D02*
X009845Y006817D01*
X009845Y006896D02*
X007245Y006896D01*
X007245Y006974D02*
X009845Y006974D01*
X009845Y007053D02*
X007245Y007053D01*
X007245Y007131D02*
X009845Y007131D01*
X009845Y007210D02*
X007245Y007210D01*
X007245Y007289D02*
X009845Y007289D01*
X009845Y007367D02*
X007245Y007367D01*
X007245Y007446D02*
X009845Y007446D01*
X009845Y007524D02*
X007245Y007524D01*
X007245Y007603D02*
X009845Y007603D01*
X009845Y007681D02*
X007245Y007681D01*
X007245Y007760D02*
X009845Y007760D01*
X009845Y007838D02*
X007245Y007838D01*
X007245Y007917D02*
X009845Y007917D01*
X009845Y007995D02*
X007245Y007995D01*
X007245Y008074D02*
X009845Y008074D01*
X009845Y008153D02*
X007245Y008153D01*
X007245Y008231D02*
X009845Y008231D01*
X009845Y008310D02*
X007245Y008310D01*
X007245Y008388D02*
X009845Y008388D01*
X009845Y008467D02*
X007245Y008467D01*
X007245Y008545D02*
X009845Y008545D01*
X009845Y008624D02*
X007245Y008624D01*
X007245Y008702D02*
X009845Y008702D01*
X009845Y008781D02*
X007245Y008781D01*
X007245Y008859D02*
X009845Y008859D01*
X009845Y008938D02*
X007245Y008938D01*
X007245Y009016D02*
X009845Y009016D01*
X009845Y009095D02*
X007245Y009095D01*
X007245Y009174D02*
X009845Y009174D01*
X009845Y009252D02*
X007245Y009252D01*
X007245Y009331D02*
X009845Y009331D01*
X009845Y009409D02*
X007245Y009409D01*
X007245Y009488D02*
X009845Y009488D01*
X009845Y009566D02*
X007245Y009566D01*
X007245Y009645D02*
X009845Y009645D01*
X009773Y009723D02*
X007245Y009723D01*
X007245Y009802D02*
X009690Y009802D01*
X009608Y009880D02*
X007245Y009880D01*
X007245Y009959D02*
X009525Y009959D01*
X009442Y010038D02*
X007245Y010038D01*
X007245Y010116D02*
X009360Y010116D01*
X009277Y010195D02*
X007245Y010195D01*
X007245Y010273D02*
X009194Y010273D01*
X009112Y010352D02*
X007245Y010352D01*
X007245Y010430D02*
X009029Y010430D01*
X008946Y010509D02*
X007245Y010509D01*
X007246Y010587D02*
X008864Y010587D01*
X008781Y010666D02*
X007245Y010666D01*
X007226Y010744D02*
X008698Y010744D01*
X008616Y010823D02*
X007146Y010823D01*
X007061Y010902D02*
X008533Y010902D01*
X008450Y010980D02*
X006978Y010980D01*
X006896Y011059D02*
X008368Y011059D01*
X008285Y011137D02*
X007312Y011137D01*
X007391Y011216D02*
X008202Y011216D01*
X008120Y011294D02*
X007469Y011294D01*
X007548Y011373D02*
X008037Y011373D01*
X007954Y011451D02*
X007555Y011451D01*
X007555Y011530D02*
X007872Y011530D01*
X007789Y011608D02*
X007555Y011608D01*
X007555Y011687D02*
X007706Y011687D01*
X007624Y011766D02*
X007555Y011766D01*
X007541Y011844D02*
X007513Y011844D01*
X007458Y011923D02*
X007435Y011923D01*
X007376Y012001D02*
X007356Y012001D01*
X007293Y012080D02*
X007277Y012080D01*
X006535Y012865D02*
X006492Y012865D01*
X006535Y012944D02*
X006414Y012944D01*
X006335Y013022D02*
X006538Y013022D01*
X006617Y013101D02*
X006256Y013101D01*
X005833Y013101D02*
X005256Y013101D01*
X005335Y013022D02*
X005755Y013022D01*
X005676Y012944D02*
X005414Y012944D01*
X005492Y012865D02*
X005598Y012865D01*
X004812Y012080D02*
X004726Y012080D01*
X004734Y012001D02*
X004628Y012001D01*
X004655Y011923D02*
X004529Y011923D01*
X004495Y011844D02*
X004577Y011844D01*
X004535Y011766D02*
X004495Y011766D01*
X004495Y011687D02*
X004535Y011687D01*
X004495Y011608D02*
X005005Y011608D01*
X005005Y011530D02*
X005085Y011530D01*
X005085Y011451D02*
X005005Y011451D01*
X005005Y011373D02*
X005085Y011373D01*
X005085Y011294D02*
X005005Y011294D01*
X005005Y011216D02*
X005085Y011216D01*
X005085Y011137D02*
X005005Y011137D01*
X004778Y011137D02*
X004495Y011137D01*
X004495Y011059D02*
X006315Y011059D01*
X006398Y010980D02*
X004495Y010980D01*
X004495Y010902D02*
X006480Y010902D01*
X006563Y010823D02*
X004495Y010823D01*
X004495Y010744D02*
X006646Y010744D01*
X006728Y010666D02*
X004495Y010666D01*
X004495Y010587D02*
X006811Y010587D01*
X006845Y010509D02*
X004495Y010509D01*
X004539Y010430D02*
X006845Y010430D01*
X006845Y010352D02*
X004617Y010352D01*
X004696Y010273D02*
X006845Y010273D01*
X006845Y010195D02*
X004774Y010195D01*
X004853Y010116D02*
X006845Y010116D01*
X006845Y010038D02*
X004931Y010038D01*
X005010Y009959D02*
X006845Y009959D01*
X006845Y009880D02*
X005088Y009880D01*
X005167Y009802D02*
X006845Y009802D01*
X006845Y009723D02*
X005245Y009723D01*
X005245Y009645D02*
X006845Y009645D01*
X006845Y009566D02*
X005245Y009566D01*
X005245Y009488D02*
X006845Y009488D01*
X006845Y009409D02*
X005245Y009409D01*
X005245Y009331D02*
X006845Y009331D01*
X006845Y009252D02*
X005245Y009252D01*
X005245Y009174D02*
X006845Y009174D01*
X006845Y009095D02*
X005245Y009095D01*
X005245Y009016D02*
X006845Y009016D01*
X006845Y008938D02*
X005245Y008938D01*
X005245Y008859D02*
X006845Y008859D01*
X006845Y008781D02*
X005245Y008781D01*
X005245Y008702D02*
X006845Y008702D01*
X006845Y008624D02*
X005245Y008624D01*
X005245Y008545D02*
X006845Y008545D01*
X006845Y008467D02*
X005245Y008467D01*
X005245Y008388D02*
X006845Y008388D01*
X006845Y008310D02*
X005299Y008310D01*
X005377Y008231D02*
X006845Y008231D01*
X006845Y008153D02*
X005456Y008153D01*
X005485Y008074D02*
X006845Y008074D01*
X006845Y007995D02*
X005485Y007995D01*
X005485Y007917D02*
X006845Y007917D01*
X006845Y007838D02*
X005485Y007838D01*
X005485Y007760D02*
X006845Y007760D01*
X006845Y007681D02*
X005407Y007681D01*
X005329Y007603D02*
X006845Y007603D01*
X006845Y007524D02*
X005250Y007524D01*
X004840Y007524D02*
X004250Y007524D01*
X004227Y007501D02*
X004485Y007759D01*
X004485Y008123D01*
X004227Y008381D01*
X003863Y008381D01*
X003605Y008123D01*
X003605Y007759D01*
X003863Y007501D01*
X004227Y007501D01*
X004329Y007603D02*
X004761Y007603D01*
X004682Y007681D02*
X004407Y007681D01*
X004485Y007760D02*
X004605Y007760D01*
X004605Y007838D02*
X004485Y007838D01*
X004485Y007917D02*
X004605Y007917D01*
X004605Y007995D02*
X004485Y007995D01*
X004485Y008074D02*
X004605Y008074D01*
X004634Y008153D02*
X004456Y008153D01*
X004377Y008231D02*
X004713Y008231D01*
X004791Y008310D02*
X004299Y008310D01*
X004227Y008501D02*
X004085Y008501D01*
X004085Y008901D01*
X004085Y008981D01*
X004485Y008981D01*
X004485Y009123D01*
X004227Y009381D01*
X004085Y009381D01*
X004085Y008981D01*
X004005Y008981D01*
X004005Y009381D01*
X003863Y009381D01*
X003605Y009123D01*
X003605Y008981D01*
X004005Y008981D01*
X004005Y008901D01*
X004085Y008901D01*
X004485Y008901D01*
X004485Y008759D01*
X004227Y008501D01*
X004271Y008545D02*
X004845Y008545D01*
X004845Y008467D02*
X002655Y008467D01*
X002655Y008493D02*
X002577Y008680D01*
X002516Y008741D01*
X002623Y008741D01*
X002863Y008501D01*
X003227Y008501D01*
X003485Y008759D01*
X003485Y009123D01*
X003227Y009381D01*
X002863Y009381D01*
X002650Y009169D01*
X002618Y009201D01*
X002655Y009290D01*
X002655Y009493D01*
X002577Y009680D01*
X002434Y009823D01*
X002270Y009891D01*
X002434Y009959D01*
X004444Y009959D01*
X004366Y010038D02*
X002513Y010038D01*
X002577Y010102D02*
X002434Y009959D01*
X002455Y009802D02*
X004601Y009802D01*
X004523Y009880D02*
X002296Y009880D01*
X002534Y009723D02*
X004680Y009723D01*
X004758Y009645D02*
X002592Y009645D01*
X002624Y009566D02*
X004837Y009566D01*
X004845Y009488D02*
X002655Y009488D01*
X002655Y009409D02*
X004845Y009409D01*
X004845Y009331D02*
X004277Y009331D01*
X004356Y009252D02*
X004845Y009252D01*
X004845Y009174D02*
X004435Y009174D01*
X004485Y009095D02*
X004845Y009095D01*
X004845Y009016D02*
X004485Y009016D01*
X004485Y008859D02*
X004845Y008859D01*
X004845Y008781D02*
X004485Y008781D01*
X004428Y008702D02*
X004845Y008702D01*
X004845Y008624D02*
X004350Y008624D01*
X004085Y008624D02*
X004005Y008624D01*
X004005Y008702D02*
X004085Y008702D01*
X004085Y008781D02*
X004005Y008781D01*
X004005Y008859D02*
X004085Y008859D01*
X004085Y008938D02*
X004845Y008938D01*
X004845Y008388D02*
X002655Y008388D01*
X002655Y008310D02*
X002791Y008310D01*
X002863Y008381D02*
X002650Y008169D01*
X002618Y008201D01*
X002655Y008290D01*
X002655Y008493D01*
X002633Y008545D02*
X002819Y008545D01*
X002740Y008624D02*
X002601Y008624D01*
X002555Y008702D02*
X002661Y008702D01*
X002863Y008381D02*
X003227Y008381D01*
X003485Y008123D01*
X003485Y007759D01*
X003227Y007501D01*
X002863Y007501D01*
X002623Y007741D01*
X002512Y007741D01*
X002335Y007918D01*
X002246Y007881D01*
X002043Y007881D01*
X001856Y007959D01*
X001713Y008102D01*
X001676Y008191D01*
X001242Y008191D01*
X001242Y008124D01*
X001182Y007978D01*
X001070Y007866D01*
X000933Y007809D01*
X001070Y007752D01*
X001182Y007641D01*
X001242Y007495D01*
X001242Y007336D01*
X001182Y007190D01*
X001070Y007079D01*
X000933Y007022D01*
X001070Y006965D01*
X001182Y006853D01*
X001242Y006707D01*
X001242Y006549D01*
X001182Y006403D01*
X001070Y006291D01*
X000933Y006234D01*
X001070Y006178D01*
X001182Y006066D01*
X001242Y005920D01*
X001242Y005762D01*
X001182Y005616D01*
X001070Y005504D01*
X000933Y005447D01*
X001070Y005390D01*
X001182Y005278D01*
X001242Y005132D01*
X001242Y004974D01*
X001182Y004828D01*
X001070Y004716D01*
X000933Y004660D01*
X001070Y004603D01*
X001182Y004491D01*
X001242Y004345D01*
X001242Y004187D01*
X001182Y004041D01*
X001070Y003929D01*
X000933Y003872D01*
X001070Y003815D01*
X001182Y003704D01*
X001242Y003558D01*
X001242Y003399D01*
X001182Y003253D01*
X001070Y003142D01*
X000942Y003089D01*
X001121Y003089D01*
X001156Y003079D01*
X001188Y003061D01*
X001214Y003035D01*
X001233Y003003D01*
X001242Y002967D01*
X001242Y002730D01*
X000884Y002730D01*
X000884Y002652D01*
X001242Y002652D01*
X001242Y002415D01*
X001233Y002380D01*
X001214Y002348D01*
X001188Y002322D01*
X001156Y002303D01*
X001121Y002294D01*
X000884Y002294D01*
X000884Y002652D01*
X000806Y002652D01*
X000806Y002294D01*
X000585Y002294D01*
X000585Y002262D02*
X000889Y002262D01*
X000884Y002340D02*
X000806Y002340D01*
X000806Y002419D02*
X000884Y002419D01*
X000884Y002497D02*
X000806Y002497D01*
X000806Y002576D02*
X000884Y002576D01*
X000884Y002654D02*
X006709Y002654D01*
X006788Y002576D02*
X001242Y002576D01*
X001242Y002733D02*
X006631Y002733D01*
X006605Y002812D02*
X001242Y002812D01*
X001242Y002890D02*
X006605Y002890D01*
X006605Y002969D02*
X001242Y002969D01*
X001202Y003047D02*
X006605Y003047D01*
X006607Y003126D02*
X001032Y003126D01*
X001133Y003204D02*
X006686Y003204D01*
X006764Y003283D02*
X001194Y003283D01*
X001227Y003361D02*
X006843Y003361D01*
X006845Y003440D02*
X001242Y003440D01*
X001242Y003518D02*
X006845Y003518D01*
X006845Y003597D02*
X001226Y003597D01*
X001193Y003676D02*
X006845Y003676D01*
X006845Y003754D02*
X001131Y003754D01*
X001028Y003833D02*
X006845Y003833D01*
X006845Y003911D02*
X001027Y003911D01*
X001131Y003990D02*
X006845Y003990D01*
X006845Y004068D02*
X001193Y004068D01*
X001226Y004147D02*
X006845Y004147D01*
X006845Y004225D02*
X001242Y004225D01*
X001242Y004304D02*
X006845Y004304D01*
X006845Y004382D02*
X001227Y004382D01*
X001194Y004461D02*
X006845Y004461D01*
X006845Y004540D02*
X001133Y004540D01*
X001033Y004618D02*
X006845Y004618D01*
X006845Y004697D02*
X001022Y004697D01*
X001129Y004775D02*
X006845Y004775D01*
X006845Y004854D02*
X001192Y004854D01*
X001225Y004932D02*
X006845Y004932D01*
X006845Y005011D02*
X001242Y005011D01*
X001242Y005089D02*
X006845Y005089D01*
X006845Y005168D02*
X001228Y005168D01*
X001195Y005246D02*
X006845Y005246D01*
X006845Y005325D02*
X001135Y005325D01*
X001038Y005404D02*
X006845Y005404D01*
X006845Y005482D02*
X001018Y005482D01*
X001127Y005561D02*
X006845Y005561D01*
X006845Y005639D02*
X001192Y005639D01*
X001224Y005718D02*
X006845Y005718D01*
X006845Y005796D02*
X001242Y005796D01*
X001242Y005875D02*
X006845Y005875D01*
X006845Y005953D02*
X001228Y005953D01*
X001196Y006032D02*
X006845Y006032D01*
X006845Y006110D02*
X001137Y006110D01*
X001043Y006189D02*
X006845Y006189D01*
X006845Y006267D02*
X001013Y006267D01*
X001125Y006346D02*
X006845Y006346D01*
X006845Y006425D02*
X001191Y006425D01*
X001223Y006503D02*
X006845Y006503D01*
X006845Y006582D02*
X001242Y006582D01*
X001242Y006660D02*
X006845Y006660D01*
X006845Y006739D02*
X001229Y006739D01*
X001197Y006817D02*
X006845Y006817D01*
X006845Y006896D02*
X001139Y006896D01*
X001047Y006974D02*
X006845Y006974D01*
X006845Y007053D02*
X001008Y007053D01*
X001123Y007131D02*
X006845Y007131D01*
X006845Y007210D02*
X001190Y007210D01*
X001222Y007289D02*
X006845Y007289D01*
X006845Y007367D02*
X001242Y007367D01*
X001242Y007446D02*
X006845Y007446D01*
X008383Y004225D02*
X009845Y004225D01*
X009845Y004147D02*
X008461Y004147D01*
X008485Y004068D02*
X009845Y004068D01*
X009845Y003990D02*
X008485Y003990D01*
X008485Y003911D02*
X009845Y003911D01*
X009845Y003833D02*
X008485Y003833D01*
X008480Y003754D02*
X009845Y003754D01*
X009845Y003676D02*
X008402Y003676D01*
X008323Y003597D02*
X009845Y003597D01*
X009845Y003518D02*
X008244Y003518D01*
X007043Y001791D02*
X006913Y001791D01*
X006652Y001791D02*
X006643Y001791D01*
X006615Y002262D02*
X006656Y002262D01*
X005638Y002276D02*
X005638Y002276D01*
X005374Y002276D02*
X005374Y002276D01*
X005343Y002276D02*
X005343Y002276D01*
X005246Y002276D02*
X005246Y002276D01*
X005246Y002276D01*
X005232Y002262D02*
X005191Y002262D01*
X004784Y001791D02*
X003819Y001791D01*
X003892Y001869D02*
X004711Y001869D01*
X004711Y001948D02*
X004420Y001948D01*
X004390Y001918D02*
X004481Y002009D01*
X004481Y002137D01*
X004390Y002228D01*
X004068Y002228D01*
X003977Y002137D01*
X003977Y002009D01*
X004068Y001918D01*
X004390Y001918D01*
X004481Y002026D02*
X004597Y002026D01*
X004566Y002105D02*
X004481Y002105D01*
X004435Y002183D02*
X004566Y002183D01*
X004642Y002262D02*
X003815Y002262D01*
X003892Y002183D02*
X004024Y002183D01*
X003977Y002105D02*
X003892Y002105D01*
X003892Y002026D02*
X003977Y002026D01*
X004039Y001948D02*
X003892Y001948D01*
X003655Y001791D02*
X003525Y001791D01*
X002660Y002340D02*
X001207Y002340D01*
X001400Y002262D02*
X002581Y002262D01*
X002553Y002183D02*
X001637Y002183D01*
X001773Y002105D02*
X002553Y002105D01*
X002553Y002026D02*
X001884Y002026D01*
X001963Y001948D02*
X002553Y001948D01*
X002596Y001869D02*
X002041Y001869D01*
X002187Y001633D02*
X008785Y001633D01*
X008748Y001555D02*
X002223Y001555D01*
X002244Y001476D02*
X008727Y001476D01*
X008706Y001398D02*
X002265Y001398D01*
X002286Y001319D02*
X008685Y001319D01*
X008678Y001241D02*
X002294Y001241D01*
X002294Y001162D02*
X008678Y001162D01*
X008678Y001084D02*
X002294Y001084D01*
X002294Y001005D02*
X008678Y001005D01*
X008695Y000927D02*
X002277Y000927D01*
X002255Y000848D02*
X008716Y000848D01*
X008737Y000769D02*
X002234Y000769D01*
X002211Y000691D02*
X008760Y000691D01*
X008806Y000612D02*
X002166Y000612D01*
X000653Y002183D02*
X000585Y002183D01*
X001230Y007524D02*
X002840Y007524D01*
X002761Y007603D02*
X001198Y007603D01*
X001141Y007681D02*
X002682Y007681D01*
X002493Y007760D02*
X001052Y007760D01*
X001003Y007838D02*
X002415Y007838D01*
X002336Y007917D02*
X002333Y007917D01*
X002631Y008231D02*
X002713Y008231D01*
X003299Y008310D02*
X003791Y008310D01*
X003713Y008231D02*
X003377Y008231D01*
X003456Y008153D02*
X003634Y008153D01*
X003605Y008074D02*
X003485Y008074D01*
X003485Y007995D02*
X003605Y007995D01*
X003605Y007917D02*
X003485Y007917D01*
X003485Y007838D02*
X003605Y007838D01*
X003605Y007760D02*
X003485Y007760D01*
X003407Y007681D02*
X003682Y007681D01*
X003761Y007603D02*
X003329Y007603D01*
X003250Y007524D02*
X003840Y007524D01*
X003863Y008501D02*
X004005Y008501D01*
X004005Y008901D01*
X003605Y008901D01*
X003605Y008759D01*
X003863Y008501D01*
X003819Y008545D02*
X003271Y008545D01*
X003350Y008624D02*
X003740Y008624D01*
X003661Y008702D02*
X003428Y008702D01*
X003485Y008781D02*
X003605Y008781D01*
X003605Y008859D02*
X003485Y008859D01*
X003485Y008938D02*
X004005Y008938D01*
X004005Y009016D02*
X004085Y009016D01*
X004085Y009095D02*
X004005Y009095D01*
X004005Y009174D02*
X004085Y009174D01*
X004085Y009252D02*
X004005Y009252D01*
X004005Y009331D02*
X004085Y009331D01*
X003812Y009331D02*
X003277Y009331D01*
X003356Y009252D02*
X003734Y009252D01*
X003655Y009174D02*
X003435Y009174D01*
X003485Y009095D02*
X003605Y009095D01*
X003605Y009016D02*
X003485Y009016D01*
X004005Y008545D02*
X004085Y008545D01*
X004287Y010116D02*
X002583Y010116D01*
X002577Y010102D02*
X002655Y010290D01*
X002655Y010493D01*
X002577Y010680D01*
X002434Y010823D01*
X002513Y010744D02*
X004095Y010744D01*
X004095Y010666D02*
X002583Y010666D01*
X002616Y010587D02*
X004095Y010587D01*
X004095Y010509D02*
X002648Y010509D01*
X002655Y010430D02*
X004095Y010430D01*
X004095Y010352D02*
X002655Y010352D01*
X002648Y010273D02*
X004130Y010273D01*
X004208Y010195D02*
X002615Y010195D01*
X002655Y009331D02*
X002812Y009331D01*
X002734Y009252D02*
X002639Y009252D01*
X002645Y009174D02*
X002655Y009174D01*
X001692Y008153D02*
X001242Y008153D01*
X001222Y008074D02*
X001741Y008074D01*
X001819Y007995D02*
X001189Y007995D01*
X001121Y007917D02*
X001957Y007917D01*
X004495Y011216D02*
X004699Y011216D01*
X004620Y011294D02*
X004495Y011294D01*
X004495Y011373D02*
X004542Y011373D01*
X004535Y011451D02*
X004495Y011451D01*
X004495Y011530D02*
X004535Y011530D01*
X004095Y011530D02*
X002655Y011530D01*
X002655Y011608D02*
X004095Y011608D01*
X004095Y011687D02*
X002655Y011687D01*
X002655Y011766D02*
X004095Y011766D01*
X004095Y011844D02*
X002629Y011844D01*
X002655Y011451D02*
X004095Y011451D01*
X005312Y011137D02*
X005778Y011137D01*
X005699Y011216D02*
X005391Y011216D01*
X005469Y011294D02*
X005620Y011294D01*
X008799Y013258D02*
X002173Y013258D01*
X002185Y011844D02*
X002105Y011844D01*
X002105Y011766D02*
X002185Y011766D01*
X002185Y011687D02*
X002105Y011687D01*
X002105Y011608D02*
X002185Y011608D01*
X002185Y011530D02*
X002105Y011530D01*
X010082Y002262D02*
X010388Y002262D01*
X010388Y002183D02*
X010319Y002183D01*
X010298Y011687D02*
X010423Y011687D01*
D18*
X010045Y009741D02*
X007045Y012591D01*
X006045Y011591D02*
X007045Y010641D01*
X007045Y002941D01*
X010045Y002941D02*
X010045Y009741D01*
X005045Y009641D02*
X005045Y007941D01*
X005045Y009641D02*
X004295Y010391D01*
X004295Y011991D01*
X005045Y012591D01*
X003045Y008941D02*
X002595Y008941D01*
X002145Y009391D01*
X001246Y009391D01*
X000845Y008990D01*
X001033Y008391D02*
X000845Y008203D01*
X001033Y008391D02*
X002145Y008391D01*
X002595Y007941D01*
X003045Y007941D01*
M02*
