%
M48
M72
T01C0.0350
T02C0.0430
T03C0.1300
%
T01
X845Y2691
X845Y3479
X845Y4266
X845Y5053
X845Y5841
X845Y6628
X845Y7416
X845Y8203
X845Y8990
X845Y9778
T02
X2145Y9391
X2145Y8391
X3045Y7941
X3045Y8941
X4045Y8941
X4045Y7941
X5045Y7941
X5045Y11591
X5045Y12591
X6045Y12591
X6045Y11591
X7045Y11591
X7045Y12591
X2145Y11391
X2145Y10391
X7045Y2941
X8045Y3941
X10045Y2941
T03
X1145Y1141
X9827Y1141
X9827Y12741
X1145Y12741
M30
