G75*
G70*
%OFA0B0*%
%FSLAX24Y24*%
%IPPOS*%
%LPD*%
%AMOC8*
5,1,8,0,0,1.08239X$1,22.5*
%
%ADD10C,0.0050*%
%ADD11OC8,0.0600*%
%ADD12R,0.0740X0.0740*%
%ADD13OC8,0.0740*%
%ADD14R,0.0515X0.0515*%
%ADD15C,0.0515*%
%ADD16C,0.0740*%
%ADD17C,0.0080*%
%ADD18C,0.0120*%
D10*
X002549Y000597D02*
X002504Y000642D01*
X002549Y000597D02*
X002639Y000597D01*
X002684Y000642D01*
X002684Y000687D01*
X002639Y000732D01*
X002549Y000732D01*
X002504Y000777D01*
X002504Y000822D01*
X002549Y000867D01*
X002639Y000867D01*
X002684Y000822D01*
X002799Y000732D02*
X002799Y000642D01*
X002844Y000597D01*
X002934Y000597D01*
X002979Y000687D02*
X002979Y000732D01*
X002934Y000777D01*
X002844Y000777D01*
X002799Y000732D01*
X002799Y000687D02*
X002979Y000687D01*
X003093Y000597D02*
X003093Y000777D01*
X003229Y000777D01*
X003274Y000732D01*
X003274Y000597D01*
X003388Y000597D02*
X003523Y000597D01*
X003568Y000642D01*
X003523Y000687D01*
X003433Y000687D01*
X003388Y000732D01*
X003433Y000777D01*
X003568Y000777D01*
X003683Y000732D02*
X003683Y000642D01*
X003728Y000597D01*
X003818Y000597D01*
X003863Y000687D02*
X003863Y000732D01*
X003818Y000777D01*
X003728Y000777D01*
X003683Y000732D01*
X003683Y000687D02*
X003863Y000687D01*
X003977Y000642D02*
X004022Y000597D01*
X004112Y000597D01*
X004157Y000642D01*
X004157Y000687D01*
X004112Y000732D01*
X004022Y000732D01*
X003977Y000777D01*
X003977Y000822D01*
X004022Y000867D01*
X004112Y000867D01*
X004157Y000822D01*
X004272Y000777D02*
X004362Y000777D01*
X004317Y000822D02*
X004317Y000642D01*
X004362Y000597D01*
X004468Y000642D02*
X004513Y000687D01*
X004649Y000687D01*
X004649Y000732D02*
X004649Y000597D01*
X004513Y000597D01*
X004468Y000642D01*
X004513Y000777D02*
X004604Y000777D01*
X004649Y000732D01*
X004763Y000732D02*
X004763Y000642D01*
X004808Y000597D01*
X004943Y000597D01*
X004943Y000552D02*
X004943Y000777D01*
X004808Y000777D01*
X004763Y000732D01*
X004853Y000507D02*
X004898Y000507D01*
X004943Y000552D01*
X005058Y000642D02*
X005058Y000732D01*
X005103Y000777D01*
X005193Y000777D01*
X005238Y000732D01*
X005238Y000687D01*
X005058Y000687D01*
X005058Y000642D02*
X005103Y000597D01*
X005193Y000597D01*
X005647Y000732D02*
X005827Y000732D01*
X006236Y000642D02*
X006416Y000822D01*
X006416Y000642D01*
X006371Y000597D01*
X006281Y000597D01*
X006236Y000642D01*
X006236Y000822D01*
X006281Y000867D01*
X006371Y000867D01*
X006416Y000822D01*
X006531Y000867D02*
X006531Y000732D01*
X006621Y000777D01*
X006666Y000777D01*
X006711Y000732D01*
X006711Y000642D01*
X006666Y000597D01*
X006576Y000597D01*
X006531Y000642D01*
X006531Y000867D02*
X006711Y000867D01*
X006826Y000597D02*
X007006Y000867D01*
X007120Y000822D02*
X007165Y000867D01*
X007255Y000867D01*
X007300Y000822D01*
X007300Y000777D01*
X007120Y000597D01*
X007300Y000597D01*
X007415Y000642D02*
X007415Y000822D01*
X007460Y000867D01*
X007550Y000867D01*
X007595Y000822D01*
X007415Y000642D01*
X007460Y000597D01*
X007550Y000597D01*
X007595Y000642D01*
X007595Y000822D01*
X007710Y000777D02*
X007800Y000867D01*
X007800Y000597D01*
X007710Y000597D02*
X007890Y000597D01*
X008004Y000597D02*
X008184Y000597D01*
X008094Y000597D02*
X008094Y000867D01*
X008004Y000777D01*
D11*
X007045Y002941D03*
X008045Y003941D03*
X010045Y002941D03*
X005045Y007941D03*
X004045Y007941D03*
X004045Y008941D03*
X003045Y008941D03*
X003045Y007941D03*
D12*
X002145Y011391D03*
X007045Y012591D03*
D13*
X007045Y011591D03*
X006045Y011591D03*
X006045Y012591D03*
X005045Y012591D03*
X005045Y011591D03*
D14*
X000845Y002691D03*
D15*
X000845Y003479D03*
X000845Y004266D03*
X000845Y005053D03*
X000845Y005841D03*
X000845Y006628D03*
X000845Y007416D03*
X000845Y008203D03*
X000845Y008990D03*
X000845Y009778D03*
D16*
X002145Y009391D03*
X002145Y008391D03*
X002145Y010391D03*
D17*
X000585Y002294D02*
X000585Y002144D01*
X000701Y002211D01*
X000994Y002290D01*
X001296Y002290D01*
X001588Y002211D01*
X001850Y002060D01*
X002064Y001846D01*
X002215Y001584D01*
X002294Y001292D01*
X002294Y000990D01*
X002215Y000698D01*
X002148Y000581D01*
X002339Y000581D01*
X002339Y000709D01*
X002339Y000709D01*
X002339Y000778D01*
X002339Y000823D01*
X002339Y000891D01*
X002339Y000891D01*
X002384Y000936D01*
X002384Y000936D01*
X002480Y001031D01*
X002481Y001032D01*
X002481Y001032D01*
X002548Y001032D01*
X002617Y001032D01*
X002617Y001032D01*
X002708Y001032D01*
X002798Y000942D01*
X002844Y000942D01*
X002912Y000942D01*
X002912Y000942D01*
X003002Y000942D01*
X003014Y000931D01*
X003025Y000942D01*
X003160Y000942D01*
X003297Y000942D01*
X003331Y000908D01*
X003365Y000942D01*
X003434Y000942D01*
X003501Y000942D01*
X003501Y000942D01*
X003637Y000942D01*
X003648Y000931D01*
X003659Y000942D01*
X003728Y000942D01*
X003796Y000942D01*
X003796Y000942D01*
X003864Y000942D01*
X003953Y001031D01*
X003954Y001032D01*
X003954Y001032D01*
X004022Y001032D01*
X004091Y001032D01*
X004091Y001032D01*
X004181Y001032D01*
X004237Y000976D01*
X004249Y000987D01*
X004385Y000987D01*
X004430Y000942D01*
X004438Y000935D01*
X004445Y000942D01*
X004535Y000942D01*
X004672Y000942D01*
X004706Y000908D01*
X004739Y000941D01*
X004740Y000942D01*
X004740Y000942D01*
X004807Y000942D01*
X004876Y000942D01*
X004876Y000942D01*
X005012Y000942D01*
X005023Y000931D01*
X005034Y000942D01*
X005103Y000942D01*
X005171Y000942D01*
X005171Y000942D01*
X005261Y000942D01*
X005306Y000897D01*
X005403Y000801D01*
X005403Y000756D01*
X005403Y000619D01*
X005365Y000581D01*
X005565Y000581D01*
X005482Y000664D01*
X005482Y000801D01*
X005579Y000897D01*
X005895Y000897D01*
X005992Y000801D01*
X005992Y000664D01*
X005909Y000581D01*
X006071Y000581D01*
X006071Y000711D01*
X006071Y000711D01*
X006071Y000822D01*
X006071Y000891D01*
X006071Y000891D01*
X006116Y000936D01*
X006116Y000936D01*
X006213Y001032D01*
X006282Y001032D01*
X006350Y001032D01*
X006350Y001032D01*
X006440Y001032D01*
X006451Y001021D01*
X006463Y001032D01*
X006599Y001032D01*
X006779Y001032D01*
X006862Y000950D01*
X006906Y001016D01*
X007040Y001043D01*
X007080Y001016D01*
X007096Y001031D01*
X007097Y001032D01*
X007097Y001032D01*
X007164Y001032D01*
X007234Y001032D01*
X007234Y001032D01*
X007324Y001032D01*
X007358Y000998D01*
X007391Y001032D01*
X007461Y001032D01*
X007528Y001032D01*
X007528Y001032D01*
X007618Y001032D01*
X007675Y000976D01*
X007731Y001032D01*
X007868Y001032D01*
X007947Y000953D01*
X008026Y001032D01*
X008163Y001032D01*
X008259Y000936D01*
X008259Y000756D01*
X008349Y000666D01*
X008349Y000581D01*
X008824Y000581D01*
X008756Y000698D01*
X008678Y000990D01*
X008678Y001292D01*
X008756Y001584D01*
X008908Y001846D01*
X009121Y002060D01*
X009383Y002211D01*
X009676Y002290D01*
X009978Y002290D01*
X010270Y002211D01*
X010388Y002143D01*
X010390Y002664D01*
X010227Y002501D01*
X009863Y002501D01*
X009605Y002759D01*
X009605Y003123D01*
X009863Y003381D01*
X010227Y003381D01*
X010392Y003216D01*
X010423Y011759D01*
X010270Y011671D01*
X009978Y011592D01*
X009676Y011592D01*
X009383Y011671D01*
X009121Y011822D01*
X008908Y012036D01*
X008756Y012298D01*
X008678Y012590D01*
X008678Y012892D01*
X008756Y013184D01*
X008816Y013287D01*
X008032Y013287D01*
X008128Y013191D01*
X008245Y013074D01*
X008245Y004363D01*
X008485Y004123D01*
X008485Y003759D01*
X008227Y003501D01*
X007863Y003501D01*
X007605Y003759D01*
X007605Y004123D01*
X007845Y004363D01*
X007845Y012908D01*
X007712Y013041D01*
X007533Y013041D01*
X007555Y013019D01*
X007555Y012163D01*
X007473Y012081D01*
X007276Y012081D01*
X007555Y011802D01*
X007555Y011380D01*
X007256Y011081D01*
X007245Y011081D01*
X007245Y011024D01*
X007245Y010858D01*
X005345Y008958D01*
X005228Y008841D01*
X004485Y008098D01*
X004485Y007759D01*
X004227Y007501D01*
X003863Y007501D01*
X003605Y007759D01*
X003605Y008123D01*
X003863Y008381D01*
X004202Y008381D01*
X004862Y009041D01*
X003712Y010191D01*
X002614Y010191D01*
X002577Y010102D01*
X002434Y009959D01*
X003944Y009959D01*
X003866Y010038D02*
X002513Y010038D01*
X002583Y010116D02*
X003787Y010116D01*
X004023Y009880D02*
X002296Y009880D01*
X002270Y009891D02*
X002434Y009959D01*
X002434Y009823D02*
X002270Y009891D01*
X002434Y009823D02*
X002577Y009680D01*
X002655Y009493D01*
X002655Y009290D01*
X002577Y009102D01*
X002434Y008959D01*
X002270Y008891D01*
X002434Y008823D01*
X002577Y008680D01*
X002655Y008493D01*
X002655Y008290D01*
X002577Y008102D01*
X002434Y007959D01*
X002246Y007881D01*
X002043Y007881D01*
X001856Y007959D01*
X001713Y008102D01*
X001635Y008290D01*
X001635Y008493D01*
X001713Y008680D01*
X001856Y008823D01*
X002019Y008891D01*
X001856Y008959D01*
X001713Y009102D01*
X001635Y009290D01*
X001635Y009493D01*
X001713Y009680D01*
X001856Y009823D01*
X002019Y009891D01*
X001856Y009959D01*
X001309Y009959D01*
X001232Y009882D02*
X001541Y010191D01*
X001676Y010191D01*
X001713Y010102D01*
X001856Y009959D01*
X001777Y010038D02*
X001388Y010038D01*
X001466Y010116D02*
X001707Y010116D01*
X001834Y009802D02*
X001242Y009802D01*
X001242Y009857D02*
X001242Y009699D01*
X001182Y009553D01*
X001070Y009441D01*
X000933Y009384D01*
X001070Y009327D01*
X001182Y009215D01*
X001242Y009069D01*
X001242Y008911D01*
X001182Y008765D01*
X001070Y008653D01*
X000933Y008597D01*
X001070Y008540D01*
X001182Y008428D01*
X001242Y008282D01*
X001242Y008124D01*
X001182Y007978D01*
X001070Y007866D01*
X000933Y007809D01*
X001070Y007752D01*
X001182Y007641D01*
X001242Y007495D01*
X001242Y007336D01*
X001182Y007190D01*
X001070Y007079D01*
X000933Y007022D01*
X001070Y006965D01*
X001182Y006853D01*
X001242Y006707D01*
X001242Y006549D01*
X001182Y006403D01*
X001070Y006291D01*
X000933Y006234D01*
X001070Y006178D01*
X001182Y006066D01*
X001242Y005920D01*
X001242Y005762D01*
X001182Y005616D01*
X001070Y005504D01*
X000933Y005447D01*
X001070Y005390D01*
X001182Y005278D01*
X001242Y005132D01*
X001242Y004974D01*
X001182Y004828D01*
X001070Y004716D01*
X000933Y004660D01*
X001070Y004603D01*
X001182Y004491D01*
X001242Y004345D01*
X001242Y004187D01*
X001182Y004041D01*
X001070Y003929D01*
X000933Y003872D01*
X001070Y003815D01*
X001182Y003704D01*
X001242Y003558D01*
X001242Y003399D01*
X001182Y003253D01*
X001070Y003142D01*
X000942Y003089D01*
X001121Y003089D01*
X001156Y003079D01*
X001188Y003061D01*
X001214Y003035D01*
X001233Y003003D01*
X001242Y002967D01*
X001242Y002730D01*
X000884Y002730D01*
X000884Y002652D01*
X001242Y002652D01*
X001242Y002415D01*
X001233Y002380D01*
X001214Y002348D01*
X001188Y002322D01*
X001156Y002303D01*
X001121Y002294D01*
X000884Y002294D01*
X000884Y002652D01*
X000806Y002652D01*
X000806Y002294D01*
X000585Y002294D01*
X000585Y002262D02*
X000889Y002262D01*
X000884Y002340D02*
X000806Y002340D01*
X000806Y002419D02*
X000884Y002419D01*
X000884Y002497D02*
X000806Y002497D01*
X000806Y002576D02*
X000884Y002576D01*
X000884Y002654D02*
X006709Y002654D01*
X006788Y002576D02*
X001242Y002576D01*
X001242Y002497D02*
X010389Y002497D01*
X010389Y002419D02*
X001242Y002419D01*
X001207Y002340D02*
X010389Y002340D01*
X010388Y002262D02*
X010082Y002262D01*
X010319Y002183D02*
X010388Y002183D01*
X010389Y002576D02*
X010302Y002576D01*
X010380Y002654D02*
X010390Y002654D01*
X010392Y003283D02*
X010325Y003283D01*
X010392Y003361D02*
X010247Y003361D01*
X010393Y003440D02*
X001242Y003440D01*
X001242Y003518D02*
X007845Y003518D01*
X007767Y003597D02*
X001226Y003597D01*
X001193Y003676D02*
X007688Y003676D01*
X007610Y003754D02*
X001131Y003754D01*
X001028Y003833D02*
X007605Y003833D01*
X007605Y003911D02*
X001027Y003911D01*
X001131Y003990D02*
X007605Y003990D01*
X007605Y004068D02*
X001193Y004068D01*
X001226Y004147D02*
X007628Y004147D01*
X007707Y004225D02*
X001242Y004225D01*
X001242Y004304D02*
X007786Y004304D01*
X007845Y004382D02*
X001227Y004382D01*
X001194Y004461D02*
X007845Y004461D01*
X007845Y004540D02*
X001133Y004540D01*
X001033Y004618D02*
X007845Y004618D01*
X007845Y004697D02*
X001022Y004697D01*
X001129Y004775D02*
X007845Y004775D01*
X007845Y004854D02*
X001192Y004854D01*
X001225Y004932D02*
X007845Y004932D01*
X007845Y005011D02*
X001242Y005011D01*
X001242Y005089D02*
X007845Y005089D01*
X007845Y005168D02*
X001228Y005168D01*
X001195Y005246D02*
X007845Y005246D01*
X007845Y005325D02*
X001135Y005325D01*
X001038Y005404D02*
X007845Y005404D01*
X007845Y005482D02*
X001018Y005482D01*
X001127Y005561D02*
X007845Y005561D01*
X007845Y005639D02*
X001192Y005639D01*
X001224Y005718D02*
X007845Y005718D01*
X007845Y005796D02*
X001242Y005796D01*
X001242Y005875D02*
X007845Y005875D01*
X007845Y005953D02*
X001228Y005953D01*
X001196Y006032D02*
X007845Y006032D01*
X007845Y006110D02*
X001137Y006110D01*
X001043Y006189D02*
X007845Y006189D01*
X007845Y006267D02*
X001013Y006267D01*
X001125Y006346D02*
X007845Y006346D01*
X007845Y006425D02*
X001191Y006425D01*
X001223Y006503D02*
X007845Y006503D01*
X007845Y006582D02*
X001242Y006582D01*
X001242Y006660D02*
X007845Y006660D01*
X007845Y006739D02*
X001229Y006739D01*
X001197Y006817D02*
X007845Y006817D01*
X007845Y006896D02*
X001139Y006896D01*
X001047Y006974D02*
X007845Y006974D01*
X007845Y007053D02*
X001008Y007053D01*
X001123Y007131D02*
X007845Y007131D01*
X007845Y007210D02*
X001190Y007210D01*
X001222Y007289D02*
X007845Y007289D01*
X007845Y007367D02*
X001242Y007367D01*
X001242Y007446D02*
X007845Y007446D01*
X007845Y007524D02*
X005250Y007524D01*
X005227Y007501D02*
X005485Y007759D01*
X005485Y008123D01*
X005227Y008381D01*
X004863Y008381D01*
X004605Y008123D01*
X004605Y007759D01*
X004863Y007501D01*
X005227Y007501D01*
X005329Y007603D02*
X007845Y007603D01*
X007845Y007681D02*
X005407Y007681D01*
X005485Y007760D02*
X007845Y007760D01*
X007845Y007838D02*
X005485Y007838D01*
X005485Y007917D02*
X007845Y007917D01*
X007845Y007995D02*
X005485Y007995D01*
X005485Y008074D02*
X007845Y008074D01*
X007845Y008153D02*
X005456Y008153D01*
X005377Y008231D02*
X007845Y008231D01*
X007845Y008310D02*
X005299Y008310D01*
X005010Y008624D02*
X007845Y008624D01*
X007845Y008702D02*
X005089Y008702D01*
X005167Y008781D02*
X007845Y008781D01*
X007845Y008859D02*
X005246Y008859D01*
X005325Y008938D02*
X007845Y008938D01*
X007845Y009016D02*
X005403Y009016D01*
X005482Y009095D02*
X007845Y009095D01*
X007845Y009174D02*
X005560Y009174D01*
X005639Y009252D02*
X007845Y009252D01*
X007845Y009331D02*
X005717Y009331D01*
X005796Y009409D02*
X007845Y009409D01*
X007845Y009488D02*
X005874Y009488D01*
X005953Y009566D02*
X007845Y009566D01*
X007845Y009645D02*
X006031Y009645D01*
X006110Y009723D02*
X007845Y009723D01*
X007845Y009802D02*
X006189Y009802D01*
X006267Y009880D02*
X007845Y009880D01*
X007845Y009959D02*
X006346Y009959D01*
X006424Y010038D02*
X007845Y010038D01*
X007845Y010116D02*
X006503Y010116D01*
X006581Y010195D02*
X007845Y010195D01*
X007845Y010273D02*
X006660Y010273D01*
X006738Y010352D02*
X007845Y010352D01*
X007845Y010430D02*
X006817Y010430D01*
X006895Y010509D02*
X007845Y010509D01*
X007845Y010587D02*
X006974Y010587D01*
X007053Y010666D02*
X007845Y010666D01*
X007845Y010744D02*
X007131Y010744D01*
X007210Y010823D02*
X007845Y010823D01*
X007845Y010902D02*
X007245Y010902D01*
X007245Y010980D02*
X007845Y010980D01*
X007845Y011059D02*
X007245Y011059D01*
X007312Y011137D02*
X007845Y011137D01*
X007845Y011216D02*
X007391Y011216D01*
X007469Y011294D02*
X007845Y011294D01*
X007845Y011373D02*
X007548Y011373D01*
X007555Y011451D02*
X007845Y011451D01*
X007845Y011530D02*
X007555Y011530D01*
X007555Y011608D02*
X007845Y011608D01*
X007845Y011687D02*
X007555Y011687D01*
X007555Y011766D02*
X007845Y011766D01*
X007845Y011844D02*
X007513Y011844D01*
X007435Y011923D02*
X007845Y011923D01*
X007845Y012001D02*
X007356Y012001D01*
X007277Y012080D02*
X007845Y012080D01*
X007845Y012158D02*
X007550Y012158D01*
X007555Y012237D02*
X007845Y012237D01*
X007845Y012315D02*
X007555Y012315D01*
X007555Y012394D02*
X007845Y012394D01*
X007845Y012472D02*
X007555Y012472D01*
X007555Y012551D02*
X007845Y012551D01*
X007845Y012629D02*
X007555Y012629D01*
X007555Y012708D02*
X007845Y012708D01*
X007845Y012787D02*
X007555Y012787D01*
X007555Y012865D02*
X007845Y012865D01*
X007809Y012944D02*
X007555Y012944D01*
X007552Y013022D02*
X007731Y013022D01*
X008061Y013258D02*
X008799Y013258D01*
X008755Y013179D02*
X008139Y013179D01*
X008218Y013101D02*
X008734Y013101D01*
X008713Y013022D02*
X008245Y013022D01*
X008245Y012944D02*
X008692Y012944D01*
X008678Y012865D02*
X008245Y012865D01*
X008245Y012787D02*
X008678Y012787D01*
X008678Y012708D02*
X008245Y012708D01*
X008245Y012629D02*
X008678Y012629D01*
X008689Y012551D02*
X008245Y012551D01*
X008245Y012472D02*
X008710Y012472D01*
X008731Y012394D02*
X008245Y012394D01*
X008245Y012315D02*
X008752Y012315D01*
X008792Y012237D02*
X008245Y012237D01*
X008245Y012158D02*
X008837Y012158D01*
X008882Y012080D02*
X008245Y012080D01*
X008245Y012001D02*
X008942Y012001D01*
X009021Y011923D02*
X008245Y011923D01*
X008245Y011844D02*
X009099Y011844D01*
X009219Y011766D02*
X008245Y011766D01*
X008245Y011687D02*
X009355Y011687D01*
X009616Y011608D02*
X008245Y011608D01*
X008245Y011530D02*
X010422Y011530D01*
X010423Y011608D02*
X010038Y011608D01*
X010298Y011687D02*
X010423Y011687D01*
X010422Y011451D02*
X008245Y011451D01*
X008245Y011373D02*
X010422Y011373D01*
X010422Y011294D02*
X008245Y011294D01*
X008245Y011216D02*
X010421Y011216D01*
X010421Y011137D02*
X008245Y011137D01*
X008245Y011059D02*
X010421Y011059D01*
X010420Y010980D02*
X008245Y010980D01*
X008245Y010902D02*
X010420Y010902D01*
X010420Y010823D02*
X008245Y010823D01*
X008245Y010744D02*
X010420Y010744D01*
X010419Y010666D02*
X008245Y010666D01*
X008245Y010587D02*
X010419Y010587D01*
X010419Y010509D02*
X008245Y010509D01*
X008245Y010430D02*
X010418Y010430D01*
X010418Y010352D02*
X008245Y010352D01*
X008245Y010273D02*
X010418Y010273D01*
X010417Y010195D02*
X008245Y010195D01*
X008245Y010116D02*
X010417Y010116D01*
X010417Y010038D02*
X008245Y010038D01*
X008245Y009959D02*
X010417Y009959D01*
X010416Y009880D02*
X008245Y009880D01*
X008245Y009802D02*
X010416Y009802D01*
X010416Y009723D02*
X008245Y009723D01*
X008245Y009645D02*
X010415Y009645D01*
X010415Y009566D02*
X008245Y009566D01*
X008245Y009488D02*
X010415Y009488D01*
X010415Y009409D02*
X008245Y009409D01*
X008245Y009331D02*
X010414Y009331D01*
X010414Y009252D02*
X008245Y009252D01*
X008245Y009174D02*
X010414Y009174D01*
X010413Y009095D02*
X008245Y009095D01*
X008245Y009016D02*
X010413Y009016D01*
X010413Y008938D02*
X008245Y008938D01*
X008245Y008859D02*
X010413Y008859D01*
X010412Y008781D02*
X008245Y008781D01*
X008245Y008702D02*
X010412Y008702D01*
X010412Y008624D02*
X008245Y008624D01*
X008245Y008545D02*
X010411Y008545D01*
X010411Y008467D02*
X008245Y008467D01*
X008245Y008388D02*
X010411Y008388D01*
X010411Y008310D02*
X008245Y008310D01*
X008245Y008231D02*
X010410Y008231D01*
X010410Y008153D02*
X008245Y008153D01*
X008245Y008074D02*
X010410Y008074D01*
X010409Y007995D02*
X008245Y007995D01*
X008245Y007917D02*
X010409Y007917D01*
X010409Y007838D02*
X008245Y007838D01*
X008245Y007760D02*
X010409Y007760D01*
X010408Y007681D02*
X008245Y007681D01*
X008245Y007603D02*
X010408Y007603D01*
X010408Y007524D02*
X008245Y007524D01*
X008245Y007446D02*
X010407Y007446D01*
X010407Y007367D02*
X008245Y007367D01*
X008245Y007289D02*
X010407Y007289D01*
X010407Y007210D02*
X008245Y007210D01*
X008245Y007131D02*
X010406Y007131D01*
X010406Y007053D02*
X008245Y007053D01*
X008245Y006974D02*
X010406Y006974D01*
X010405Y006896D02*
X008245Y006896D01*
X008245Y006817D02*
X010405Y006817D01*
X010405Y006739D02*
X008245Y006739D01*
X008245Y006660D02*
X010404Y006660D01*
X010404Y006582D02*
X008245Y006582D01*
X008245Y006503D02*
X010404Y006503D01*
X010404Y006425D02*
X008245Y006425D01*
X008245Y006346D02*
X010403Y006346D01*
X010403Y006267D02*
X008245Y006267D01*
X008245Y006189D02*
X010403Y006189D01*
X010402Y006110D02*
X008245Y006110D01*
X008245Y006032D02*
X010402Y006032D01*
X010402Y005953D02*
X008245Y005953D01*
X008245Y005875D02*
X010402Y005875D01*
X010401Y005796D02*
X008245Y005796D01*
X008245Y005718D02*
X010401Y005718D01*
X010401Y005639D02*
X008245Y005639D01*
X008245Y005561D02*
X010400Y005561D01*
X010400Y005482D02*
X008245Y005482D01*
X008245Y005404D02*
X010400Y005404D01*
X010400Y005325D02*
X008245Y005325D01*
X008245Y005246D02*
X010399Y005246D01*
X010399Y005168D02*
X008245Y005168D01*
X008245Y005089D02*
X010399Y005089D01*
X010398Y005011D02*
X008245Y005011D01*
X008245Y004932D02*
X010398Y004932D01*
X010398Y004854D02*
X008245Y004854D01*
X008245Y004775D02*
X010398Y004775D01*
X010397Y004697D02*
X008245Y004697D01*
X008245Y004618D02*
X010397Y004618D01*
X010397Y004540D02*
X008245Y004540D01*
X008245Y004461D02*
X010396Y004461D01*
X010396Y004382D02*
X008245Y004382D01*
X008304Y004304D02*
X010396Y004304D01*
X010396Y004225D02*
X008383Y004225D01*
X008461Y004147D02*
X010395Y004147D01*
X010395Y004068D02*
X008485Y004068D01*
X008485Y003990D02*
X010395Y003990D01*
X010394Y003911D02*
X008485Y003911D01*
X008485Y003833D02*
X010394Y003833D01*
X010394Y003754D02*
X008480Y003754D01*
X008402Y003676D02*
X010394Y003676D01*
X010393Y003597D02*
X008323Y003597D01*
X008244Y003518D02*
X010393Y003518D01*
X009843Y003361D02*
X007247Y003361D01*
X007227Y003381D02*
X006863Y003381D01*
X006605Y003123D01*
X006605Y002759D01*
X006863Y002501D01*
X007227Y002501D01*
X007485Y002759D01*
X007485Y003123D01*
X007227Y003381D01*
X007325Y003283D02*
X009764Y003283D01*
X009686Y003204D02*
X007404Y003204D01*
X007482Y003126D02*
X009607Y003126D01*
X009605Y003047D02*
X007485Y003047D01*
X007485Y002969D02*
X009605Y002969D01*
X009605Y002890D02*
X007485Y002890D01*
X007485Y002812D02*
X009605Y002812D01*
X009631Y002733D02*
X007459Y002733D01*
X007380Y002654D02*
X009709Y002654D01*
X009788Y002576D02*
X007302Y002576D01*
X006764Y003283D02*
X001194Y003283D01*
X001227Y003361D02*
X006843Y003361D01*
X006686Y003204D02*
X001133Y003204D01*
X001032Y003126D02*
X006607Y003126D01*
X006605Y003047D02*
X001202Y003047D01*
X001242Y002969D02*
X006605Y002969D01*
X006605Y002890D02*
X001242Y002890D01*
X001242Y002812D02*
X006605Y002812D01*
X006631Y002733D02*
X001242Y002733D01*
X001400Y002262D02*
X009571Y002262D01*
X009335Y002183D02*
X001637Y002183D01*
X001773Y002105D02*
X009198Y002105D01*
X009087Y002026D02*
X001884Y002026D01*
X001963Y001948D02*
X009009Y001948D01*
X008930Y001869D02*
X002041Y001869D01*
X002096Y001791D02*
X008875Y001791D01*
X008830Y001712D02*
X002142Y001712D01*
X002187Y001633D02*
X008785Y001633D01*
X008748Y001555D02*
X002223Y001555D01*
X002244Y001476D02*
X008727Y001476D01*
X008706Y001398D02*
X002265Y001398D01*
X002286Y001319D02*
X008685Y001319D01*
X008678Y001241D02*
X002294Y001241D01*
X002294Y001162D02*
X008678Y001162D01*
X008678Y001084D02*
X002294Y001084D01*
X002294Y001005D02*
X002454Y001005D01*
X002375Y000927D02*
X002277Y000927D01*
X002339Y000891D02*
X002339Y000891D01*
X002339Y000848D02*
X002255Y000848D01*
X002234Y000769D02*
X002339Y000769D01*
X002339Y000691D02*
X002211Y000691D01*
X002166Y000612D02*
X002339Y000612D01*
X002735Y001005D02*
X003927Y001005D01*
X004208Y001005D02*
X006186Y001005D01*
X006107Y000927D02*
X005277Y000927D01*
X005355Y000848D02*
X005529Y000848D01*
X005482Y000769D02*
X005403Y000769D01*
X005403Y000691D02*
X005482Y000691D01*
X005534Y000612D02*
X005396Y000612D01*
X005941Y000612D02*
X006071Y000612D01*
X006071Y000691D02*
X005992Y000691D01*
X005992Y000769D02*
X006071Y000769D01*
X006071Y000848D02*
X005945Y000848D01*
X006071Y000891D02*
X006071Y000891D01*
X006807Y001005D02*
X006899Y001005D01*
X007351Y001005D02*
X007364Y001005D01*
X007646Y001005D02*
X007704Y001005D01*
X007895Y001005D02*
X007999Y001005D01*
X008190Y001005D02*
X008678Y001005D01*
X008695Y000927D02*
X008259Y000927D01*
X008259Y000848D02*
X008716Y000848D01*
X008737Y000769D02*
X008259Y000769D01*
X008324Y000691D02*
X008760Y000691D01*
X008806Y000612D02*
X008349Y000612D01*
X004724Y000927D02*
X004688Y000927D01*
X003349Y000927D02*
X003313Y000927D01*
X000653Y002183D02*
X000585Y002183D01*
X001230Y007524D02*
X002840Y007524D01*
X002863Y007501D02*
X003227Y007501D01*
X003485Y007759D01*
X003485Y008123D01*
X003227Y008381D01*
X002863Y008381D01*
X002605Y008123D01*
X002605Y007759D01*
X002863Y007501D01*
X002761Y007603D02*
X001198Y007603D01*
X001141Y007681D02*
X002682Y007681D01*
X002605Y007760D02*
X001052Y007760D01*
X001003Y007838D02*
X002605Y007838D01*
X002605Y007917D02*
X002333Y007917D01*
X002470Y007995D02*
X002605Y007995D01*
X002605Y008074D02*
X002549Y008074D01*
X002598Y008153D02*
X002634Y008153D01*
X002631Y008231D02*
X002713Y008231D01*
X002655Y008310D02*
X002791Y008310D01*
X002655Y008388D02*
X004209Y008388D01*
X004288Y008467D02*
X002655Y008467D01*
X002633Y008545D02*
X002819Y008545D01*
X002863Y008501D02*
X003227Y008501D01*
X003485Y008759D01*
X003485Y009123D01*
X003227Y009381D01*
X002863Y009381D01*
X002605Y009123D01*
X002605Y008759D01*
X002863Y008501D01*
X002740Y008624D02*
X002601Y008624D01*
X002555Y008702D02*
X002661Y008702D01*
X002605Y008781D02*
X002476Y008781D01*
X002347Y008859D02*
X002605Y008859D01*
X002605Y008938D02*
X002384Y008938D01*
X002491Y009016D02*
X002605Y009016D01*
X002605Y009095D02*
X002570Y009095D01*
X002607Y009174D02*
X002655Y009174D01*
X002639Y009252D02*
X002734Y009252D01*
X002655Y009331D02*
X002812Y009331D01*
X002655Y009409D02*
X004494Y009409D01*
X004572Y009331D02*
X004277Y009331D01*
X004227Y009381D02*
X004085Y009381D01*
X004085Y008981D01*
X004485Y008981D01*
X004485Y009123D01*
X004227Y009381D01*
X004085Y009331D02*
X004005Y009331D01*
X004005Y009381D02*
X003863Y009381D01*
X003605Y009123D01*
X003605Y008981D01*
X004005Y008981D01*
X004005Y009381D01*
X004005Y009252D02*
X004085Y009252D01*
X004085Y009174D02*
X004005Y009174D01*
X004005Y009095D02*
X004085Y009095D01*
X004085Y009016D02*
X004005Y009016D01*
X004005Y008981D02*
X004085Y008981D01*
X004085Y008901D01*
X004485Y008901D01*
X004485Y008759D01*
X004227Y008501D01*
X004085Y008501D01*
X004085Y008901D01*
X004005Y008901D01*
X004005Y008501D01*
X003863Y008501D01*
X003605Y008759D01*
X003605Y008901D01*
X004005Y008901D01*
X004005Y008981D01*
X004005Y008938D02*
X003485Y008938D01*
X003485Y009016D02*
X003605Y009016D01*
X003605Y009095D02*
X003485Y009095D01*
X003435Y009174D02*
X003655Y009174D01*
X003734Y009252D02*
X003356Y009252D01*
X003277Y009331D02*
X003812Y009331D01*
X004085Y008938D02*
X004759Y008938D01*
X004837Y009016D02*
X004485Y009016D01*
X004485Y009095D02*
X004808Y009095D01*
X004730Y009174D02*
X004435Y009174D01*
X004356Y009252D02*
X004651Y009252D01*
X004415Y009488D02*
X002655Y009488D01*
X002624Y009566D02*
X004337Y009566D01*
X004258Y009645D02*
X002592Y009645D01*
X002534Y009723D02*
X004180Y009723D01*
X004101Y009802D02*
X002455Y009802D01*
X001994Y009880D02*
X001233Y009880D01*
X001232Y009882D02*
X001242Y009857D01*
X001242Y009723D02*
X001756Y009723D01*
X001698Y009645D02*
X001220Y009645D01*
X001187Y009566D02*
X001665Y009566D01*
X001635Y009488D02*
X001117Y009488D01*
X000994Y009409D02*
X001635Y009409D01*
X001635Y009331D02*
X001062Y009331D01*
X001145Y009252D02*
X001650Y009252D01*
X001683Y009174D02*
X001199Y009174D01*
X001232Y009095D02*
X001720Y009095D01*
X001798Y009016D02*
X001242Y009016D01*
X001242Y008938D02*
X001906Y008938D01*
X001943Y008859D02*
X001221Y008859D01*
X001188Y008781D02*
X001813Y008781D01*
X001735Y008702D02*
X001119Y008702D01*
X000999Y008624D02*
X001689Y008624D01*
X001657Y008545D02*
X001057Y008545D01*
X001143Y008467D02*
X001635Y008467D01*
X001635Y008388D02*
X001198Y008388D01*
X001231Y008310D02*
X001635Y008310D01*
X001659Y008231D02*
X001242Y008231D01*
X001242Y008153D02*
X001692Y008153D01*
X001741Y008074D02*
X001222Y008074D01*
X001189Y007995D02*
X001819Y007995D01*
X001957Y007917D02*
X001121Y007917D01*
X000585Y010080D02*
X000585Y011738D01*
X000701Y011671D01*
X000994Y011592D01*
X001296Y011592D01*
X001588Y011671D01*
X001635Y011698D01*
X001635Y011431D01*
X002105Y011431D01*
X002105Y011901D01*
X001929Y011901D01*
X002064Y012036D01*
X002215Y012298D01*
X002294Y012590D01*
X002294Y012892D01*
X002215Y013184D01*
X002156Y013287D01*
X005845Y013287D01*
X005845Y013158D01*
X005845Y013101D01*
X005834Y013101D01*
X005545Y012812D01*
X005256Y013101D01*
X004834Y013101D01*
X004535Y012802D01*
X004535Y012380D01*
X004824Y012091D01*
X004535Y011802D01*
X004535Y011631D01*
X005005Y011631D01*
X005005Y011551D01*
X005085Y011551D01*
X005085Y011081D01*
X005256Y011081D01*
X005545Y011370D01*
X005834Y011081D01*
X006256Y011081D01*
X006545Y011370D01*
X006834Y011081D01*
X006845Y011081D01*
X006845Y011024D01*
X005145Y009324D01*
X003878Y010591D01*
X003712Y010591D01*
X002614Y010591D01*
X002577Y010680D01*
X002434Y010823D01*
X006644Y010823D01*
X006723Y010902D02*
X002588Y010902D01*
X002601Y010909D02*
X002627Y010935D01*
X002645Y010967D01*
X002655Y011003D01*
X002655Y011351D01*
X002185Y011351D01*
X002185Y011431D01*
X002655Y011431D01*
X002655Y011780D01*
X002645Y011815D01*
X002627Y011847D01*
X002601Y011873D01*
X002569Y011892D01*
X002533Y011901D01*
X002185Y011901D01*
X002185Y011431D01*
X002105Y011431D01*
X002105Y011351D01*
X001635Y011351D01*
X001635Y011003D01*
X001644Y010967D01*
X001663Y010935D01*
X001689Y010909D01*
X001721Y010891D01*
X001756Y010881D01*
X001995Y010881D01*
X001856Y010823D01*
X000585Y010823D01*
X000585Y010902D02*
X001702Y010902D01*
X001641Y010980D02*
X000585Y010980D01*
X000585Y011059D02*
X001635Y011059D01*
X001635Y011137D02*
X000585Y011137D01*
X000585Y011216D02*
X001635Y011216D01*
X001635Y011294D02*
X000585Y011294D01*
X000585Y011373D02*
X002105Y011373D01*
X002105Y011451D02*
X002185Y011451D01*
X002185Y011373D02*
X004542Y011373D01*
X004535Y011380D02*
X004834Y011081D01*
X005005Y011081D01*
X005005Y011551D01*
X004535Y011551D01*
X004535Y011380D01*
X004535Y011451D02*
X002655Y011451D01*
X002655Y011530D02*
X004535Y011530D01*
X004535Y011687D02*
X002655Y011687D01*
X002655Y011766D02*
X004535Y011766D01*
X004577Y011844D02*
X002629Y011844D01*
X002655Y011608D02*
X005005Y011608D01*
X005005Y011530D02*
X005085Y011530D01*
X005085Y011451D02*
X005005Y011451D01*
X005005Y011373D02*
X005085Y011373D01*
X005085Y011294D02*
X005005Y011294D01*
X005005Y011216D02*
X005085Y011216D01*
X005085Y011137D02*
X005005Y011137D01*
X004778Y011137D02*
X002655Y011137D01*
X002655Y011059D02*
X006845Y011059D01*
X006801Y010980D02*
X002649Y010980D01*
X002601Y010909D02*
X002569Y010891D01*
X002533Y010881D01*
X002294Y010881D01*
X002434Y010823D01*
X002513Y010744D02*
X006565Y010744D01*
X006487Y010666D02*
X002583Y010666D01*
X002655Y011216D02*
X004699Y011216D01*
X004620Y011294D02*
X002655Y011294D01*
X002185Y011530D02*
X002105Y011530D01*
X002105Y011608D02*
X002185Y011608D01*
X002185Y011687D02*
X002105Y011687D01*
X002105Y011766D02*
X002185Y011766D01*
X002185Y011844D02*
X002105Y011844D01*
X002029Y012001D02*
X004734Y012001D01*
X004812Y012080D02*
X002089Y012080D01*
X002135Y012158D02*
X004756Y012158D01*
X004678Y012237D02*
X002180Y012237D01*
X002220Y012315D02*
X004599Y012315D01*
X004535Y012394D02*
X002241Y012394D01*
X002262Y012472D02*
X004535Y012472D01*
X004535Y012551D02*
X002283Y012551D01*
X002294Y012629D02*
X004535Y012629D01*
X004535Y012708D02*
X002294Y012708D01*
X002294Y012787D02*
X004535Y012787D01*
X004598Y012865D02*
X002294Y012865D01*
X002280Y012944D02*
X004676Y012944D01*
X004755Y013022D02*
X002259Y013022D01*
X002238Y013101D02*
X004833Y013101D01*
X005256Y013101D02*
X005833Y013101D01*
X005845Y013179D02*
X002217Y013179D01*
X002173Y013258D02*
X005845Y013258D01*
X005755Y013022D02*
X005335Y013022D01*
X005414Y012944D02*
X005676Y012944D01*
X005598Y012865D02*
X005492Y012865D01*
X004655Y011923D02*
X001951Y011923D01*
X001635Y011687D02*
X001616Y011687D01*
X001635Y011608D02*
X001356Y011608D01*
X001635Y011530D02*
X000585Y011530D01*
X000585Y011608D02*
X000934Y011608D01*
X000673Y011687D02*
X000585Y011687D01*
X000585Y011451D02*
X001635Y011451D01*
X001856Y010823D02*
X001713Y010680D01*
X001676Y010591D01*
X001541Y010591D01*
X001375Y010591D01*
X000949Y010165D01*
X000924Y010175D01*
X000766Y010175D01*
X000620Y010115D01*
X000585Y010080D01*
X000585Y010116D02*
X000623Y010116D01*
X000585Y010195D02*
X000979Y010195D01*
X001058Y010273D02*
X000585Y010273D01*
X000585Y010352D02*
X001136Y010352D01*
X001215Y010430D02*
X000585Y010430D01*
X000585Y010509D02*
X001293Y010509D01*
X001372Y010587D02*
X000585Y010587D01*
X000585Y010666D02*
X001707Y010666D01*
X001777Y010744D02*
X000585Y010744D01*
X003271Y008545D02*
X003819Y008545D01*
X003740Y008624D02*
X003350Y008624D01*
X003428Y008702D02*
X003661Y008702D01*
X003605Y008781D02*
X003485Y008781D01*
X003485Y008859D02*
X003605Y008859D01*
X004005Y008859D02*
X004085Y008859D01*
X004085Y008781D02*
X004005Y008781D01*
X004005Y008702D02*
X004085Y008702D01*
X004085Y008624D02*
X004005Y008624D01*
X004005Y008545D02*
X004085Y008545D01*
X004271Y008545D02*
X004366Y008545D01*
X004350Y008624D02*
X004445Y008624D01*
X004428Y008702D02*
X004523Y008702D01*
X004485Y008781D02*
X004602Y008781D01*
X004680Y008859D02*
X004485Y008859D01*
X004775Y008388D02*
X007845Y008388D01*
X007845Y008467D02*
X004853Y008467D01*
X004932Y008545D02*
X007845Y008545D01*
X006330Y010509D02*
X003960Y010509D01*
X003881Y010587D02*
X006408Y010587D01*
X006251Y010430D02*
X004039Y010430D01*
X004117Y010352D02*
X006173Y010352D01*
X006094Y010273D02*
X004196Y010273D01*
X004274Y010195D02*
X006016Y010195D01*
X005937Y010116D02*
X004353Y010116D01*
X004431Y010038D02*
X005859Y010038D01*
X005780Y009959D02*
X004510Y009959D01*
X004588Y009880D02*
X005701Y009880D01*
X005623Y009802D02*
X004667Y009802D01*
X004745Y009723D02*
X005544Y009723D01*
X005466Y009645D02*
X004824Y009645D01*
X004902Y009566D02*
X005387Y009566D01*
X005309Y009488D02*
X004981Y009488D01*
X005060Y009409D02*
X005230Y009409D01*
X005152Y009331D02*
X005138Y009331D01*
X004791Y008310D02*
X004696Y008310D01*
X004713Y008231D02*
X004618Y008231D01*
X004634Y008153D02*
X004539Y008153D01*
X004485Y008074D02*
X004605Y008074D01*
X004605Y007995D02*
X004485Y007995D01*
X004485Y007917D02*
X004605Y007917D01*
X004605Y007838D02*
X004485Y007838D01*
X004485Y007760D02*
X004605Y007760D01*
X004682Y007681D02*
X004407Y007681D01*
X004329Y007603D02*
X004761Y007603D01*
X004840Y007524D02*
X004250Y007524D01*
X003840Y007524D02*
X003250Y007524D01*
X003329Y007603D02*
X003761Y007603D01*
X003682Y007681D02*
X003407Y007681D01*
X003485Y007760D02*
X003605Y007760D01*
X003605Y007838D02*
X003485Y007838D01*
X003485Y007917D02*
X003605Y007917D01*
X003605Y007995D02*
X003485Y007995D01*
X003485Y008074D02*
X003605Y008074D01*
X003634Y008153D02*
X003456Y008153D01*
X003377Y008231D02*
X003713Y008231D01*
X003791Y008310D02*
X003299Y008310D01*
X005312Y011137D02*
X005778Y011137D01*
X005699Y011216D02*
X005391Y011216D01*
X005469Y011294D02*
X005620Y011294D01*
X006312Y011137D02*
X006778Y011137D01*
X006699Y011216D02*
X006391Y011216D01*
X006469Y011294D02*
X006620Y011294D01*
D18*
X007045Y011591D02*
X007045Y010941D01*
X005145Y009041D01*
X003795Y010391D01*
X002145Y010391D01*
X001458Y010391D01*
X000845Y009778D01*
X004045Y007941D02*
X005145Y009041D01*
X006045Y012591D02*
X006045Y013241D01*
X007795Y013241D01*
X008045Y012991D01*
X008045Y003941D01*
M02*
