G75*
G70*
%OFA0B0*%
%FSLAX24Y24*%
%IPPOS*%
%LPD*%
%AMOC8*
5,1,8,0,0,1.08239X$1,22.5*
%
%ADD10C,0.1497*%
%ADD11C,0.0635*%
%ADD12R,0.1080X0.1580*%
%ADD13C,0.0440*%
%ADD14C,0.0430*%
%ADD15OC8,0.0720*%
D10*
X001302Y012523D03*
D11*
X001332Y011064D03*
X001332Y010276D03*
X001332Y009489D03*
X001332Y008702D03*
X001332Y007914D03*
X001332Y007127D03*
X001332Y006339D03*
X001332Y005552D03*
X001332Y004765D03*
X001332Y003977D03*
X009993Y003977D03*
X009993Y004765D03*
X009993Y005552D03*
X009993Y006339D03*
X009993Y007127D03*
X009993Y007914D03*
X009993Y008702D03*
X009993Y009489D03*
X009993Y010276D03*
X009993Y011064D03*
D12*
G36*
X006962Y011261D02*
X006775Y010199D01*
X005220Y010473D01*
X005407Y011535D01*
X006962Y011261D01*
G37*
G36*
X005670Y003934D02*
X005483Y002872D01*
X003928Y003146D01*
X004115Y004208D01*
X005670Y003934D01*
G37*
D13*
X007717Y003391D03*
X009138Y011446D03*
D14*
X007940Y012810D03*
X006759Y012810D03*
D15*
X000702Y001039D03*
X000702Y002039D03*
X001702Y002039D03*
X001702Y001039D03*
X002702Y001039D03*
X002702Y002039D03*
X003702Y002039D03*
X003702Y001039D03*
X004702Y001039D03*
X004702Y002039D03*
X005702Y002039D03*
X005702Y001039D03*
X006702Y001039D03*
X006702Y002039D03*
X006702Y003039D03*
X007702Y002039D03*
X007702Y001039D03*
X008702Y001039D03*
X008702Y002039D03*
X009702Y002039D03*
X009702Y001039D03*
X009702Y003039D03*
X007702Y004039D03*
X004702Y008039D03*
X003702Y008039D03*
X003702Y009039D03*
X002702Y009039D03*
X002702Y008039D03*
M02*
