M48
INCH,TZ
T10C0.024
T11C0.032
T12C0.035
T13C0.036
T14C0.040
T15C0.142
%
T10
X000552Y003489
X002352Y005189
X002252Y006539
X004352Y004989
X004952Y005089
X005102Y005639
X005452Y006039
X005502Y005289
X004802Y006489
X006302Y008239
X006502Y007039
X007252Y005989
X007602Y007239
X007602Y007839
X009252Y005389
X009352Y004839
X008602Y004389
X009152Y003389
X008702Y003039
X006852Y003939
X003252Y003289
X007602Y010389
X007002Y011539
X004852Y010839
X002402Y011439
T11
X001332Y011064
X001332Y010276
X001332Y009489
X001332Y008702
X001332Y007914
X001332Y007127
X001332Y006339
X001332Y005552
X001332Y004765
X001332Y003977
X009993Y003977
X009993Y004765
X009993Y005552
X009993Y006339
X009993Y007127
X009993Y007914
X009993Y008702
X009993Y009489
X009993Y010276
X009993Y011064
T12
X007940Y012810
X006759Y012810
T13
X009138Y011446
X007717Y003391
T14
X000702Y001039
X000702Y002039
X001702Y002039
X001702Y001039
X002702Y001039
X002702Y002039
X003702Y002039
X003702Y001039
X004702Y001039
X004702Y002039
X005702Y002039
X005702Y001039
X006702Y001039
X006702Y002039
X006702Y003039
X007702Y002039
X007702Y001039
X008702Y001039
X008702Y002039
X009702Y002039
X009702Y001039
X009702Y003039
X007702Y004039
X004702Y008039
X003702Y008039
X003702Y009039
X002702Y009039
X002702Y008039
T15
X001302Y012523
M30

