G75*
G70*
%OFA0B0*%
%FSLAX24Y24*%
%IPPOS*%
%LPD*%
%AMOC8*
5,1,8,0,0,1.08239X$1,22.5*
%
%ADD10C,0.1497*%
%ADD11C,0.0081*%
%ADD12C,0.0635*%
%ADD13C,0.0080*%
%ADD14C,0.0082*%
%ADD15C,0.0081*%
%ADD16C,0.0085*%
%ADD17C,0.0083*%
%ADD18C,0.0083*%
%ADD19C,0.0080*%
%ADD20C,0.0440*%
%ADD21C,0.0080*%
%ADD22C,0.0083*%
%ADD23C,0.0430*%
%ADD24OC8,0.0720*%
D10*
X001312Y012525D03*
D11*
X003633Y006900D02*
X003853Y006900D01*
X003633Y006900D02*
X003633Y007400D01*
X003853Y007400D01*
X003853Y006900D01*
X003853Y006980D02*
X003633Y006980D01*
X003633Y007060D02*
X003853Y007060D01*
X003853Y007140D02*
X003633Y007140D01*
X003633Y007220D02*
X003853Y007220D01*
X003853Y007300D02*
X003633Y007300D01*
X003633Y007380D02*
X003853Y007380D01*
X003948Y006900D02*
X004168Y006900D01*
X003948Y006900D02*
X003948Y007400D01*
X004168Y007400D01*
X004168Y006900D01*
X004168Y006980D02*
X003948Y006980D01*
X003948Y007060D02*
X004168Y007060D01*
X004168Y007140D02*
X003948Y007140D01*
X003948Y007220D02*
X004168Y007220D01*
X004168Y007300D02*
X003948Y007300D01*
X003948Y007380D02*
X004168Y007380D01*
X004263Y006900D02*
X004483Y006900D01*
X004263Y006900D02*
X004263Y007400D01*
X004483Y007400D01*
X004483Y006900D01*
X004483Y006980D02*
X004263Y006980D01*
X004263Y007060D02*
X004483Y007060D01*
X004483Y007140D02*
X004263Y007140D01*
X004263Y007220D02*
X004483Y007220D01*
X004483Y007300D02*
X004263Y007300D01*
X004263Y007380D02*
X004483Y007380D01*
X004578Y006900D02*
X004798Y006900D01*
X004578Y006900D02*
X004578Y007400D01*
X004798Y007400D01*
X004798Y006900D01*
X004798Y006980D02*
X004578Y006980D01*
X004578Y007060D02*
X004798Y007060D01*
X004798Y007140D02*
X004578Y007140D01*
X004578Y007220D02*
X004798Y007220D01*
X004798Y007300D02*
X004578Y007300D01*
X004578Y007380D02*
X004798Y007380D01*
X004893Y006900D02*
X005113Y006900D01*
X004893Y006900D02*
X004893Y007400D01*
X005113Y007400D01*
X005113Y006900D01*
X005113Y006980D02*
X004893Y006980D01*
X004893Y007060D02*
X005113Y007060D01*
X005113Y007140D02*
X004893Y007140D01*
X004893Y007220D02*
X005113Y007220D01*
X005113Y007300D02*
X004893Y007300D01*
X004893Y007380D02*
X005113Y007380D01*
X005208Y006900D02*
X005428Y006900D01*
X005208Y006900D02*
X005208Y007400D01*
X005428Y007400D01*
X005428Y006900D01*
X005428Y006980D02*
X005208Y006980D01*
X005208Y007060D02*
X005428Y007060D01*
X005428Y007140D02*
X005208Y007140D01*
X005208Y007220D02*
X005428Y007220D01*
X005428Y007300D02*
X005208Y007300D01*
X005208Y007380D02*
X005428Y007380D01*
X005523Y006900D02*
X005743Y006900D01*
X005523Y006900D02*
X005523Y007400D01*
X005743Y007400D01*
X005743Y006900D01*
X005743Y006980D02*
X005523Y006980D01*
X005523Y007060D02*
X005743Y007060D01*
X005743Y007140D02*
X005523Y007140D01*
X005523Y007220D02*
X005743Y007220D01*
X005743Y007300D02*
X005523Y007300D01*
X005523Y007380D02*
X005743Y007380D01*
X005838Y006900D02*
X006058Y006900D01*
X005838Y006900D02*
X005838Y007400D01*
X006058Y007400D01*
X006058Y006900D01*
X006058Y006980D02*
X005838Y006980D01*
X005838Y007060D02*
X006058Y007060D01*
X006058Y007140D02*
X005838Y007140D01*
X005838Y007220D02*
X006058Y007220D01*
X006058Y007300D02*
X005838Y007300D01*
X005838Y007380D02*
X006058Y007380D01*
X006286Y006452D02*
X006786Y006452D01*
X006286Y006452D02*
X006286Y006672D01*
X006786Y006672D01*
X006786Y006452D01*
X006786Y006532D02*
X006286Y006532D01*
X006286Y006612D02*
X006786Y006612D01*
X006786Y006137D02*
X006286Y006137D01*
X006286Y006357D01*
X006786Y006357D01*
X006786Y006137D01*
X006786Y006217D02*
X006286Y006217D01*
X006286Y006297D02*
X006786Y006297D01*
X006786Y005822D02*
X006286Y005822D01*
X006286Y006042D01*
X006786Y006042D01*
X006786Y005822D01*
X006786Y005902D02*
X006286Y005902D01*
X006286Y005982D02*
X006786Y005982D01*
X006786Y005507D02*
X006286Y005507D01*
X006286Y005727D01*
X006786Y005727D01*
X006786Y005507D01*
X006786Y005587D02*
X006286Y005587D01*
X006286Y005667D02*
X006786Y005667D01*
X006786Y005193D02*
X006286Y005193D01*
X006286Y005413D01*
X006786Y005413D01*
X006786Y005193D01*
X006786Y005273D02*
X006286Y005273D01*
X006286Y005353D02*
X006786Y005353D01*
X006786Y004878D02*
X006286Y004878D01*
X006286Y005098D01*
X006786Y005098D01*
X006786Y004878D01*
X006786Y004958D02*
X006286Y004958D01*
X006286Y005038D02*
X006786Y005038D01*
X006786Y004563D02*
X006286Y004563D01*
X006286Y004783D01*
X006786Y004783D01*
X006786Y004563D01*
X006786Y004643D02*
X006286Y004643D01*
X006286Y004723D02*
X006786Y004723D01*
X006786Y004248D02*
X006286Y004248D01*
X006286Y004468D01*
X006786Y004468D01*
X006786Y004248D01*
X006786Y004328D02*
X006286Y004328D01*
X006286Y004408D02*
X006786Y004408D01*
X006058Y003520D02*
X005838Y003520D01*
X005838Y004020D01*
X006058Y004020D01*
X006058Y003520D01*
X006058Y003600D02*
X005838Y003600D01*
X005838Y003680D02*
X006058Y003680D01*
X006058Y003760D02*
X005838Y003760D01*
X005838Y003840D02*
X006058Y003840D01*
X006058Y003920D02*
X005838Y003920D01*
X005838Y004000D02*
X006058Y004000D01*
X005743Y003520D02*
X005523Y003520D01*
X005523Y004020D01*
X005743Y004020D01*
X005743Y003520D01*
X005743Y003600D02*
X005523Y003600D01*
X005523Y003680D02*
X005743Y003680D01*
X005743Y003760D02*
X005523Y003760D01*
X005523Y003840D02*
X005743Y003840D01*
X005743Y003920D02*
X005523Y003920D01*
X005523Y004000D02*
X005743Y004000D01*
X005428Y003520D02*
X005208Y003520D01*
X005208Y004020D01*
X005428Y004020D01*
X005428Y003520D01*
X005428Y003600D02*
X005208Y003600D01*
X005208Y003680D02*
X005428Y003680D01*
X005428Y003760D02*
X005208Y003760D01*
X005208Y003840D02*
X005428Y003840D01*
X005428Y003920D02*
X005208Y003920D01*
X005208Y004000D02*
X005428Y004000D01*
X005113Y003520D02*
X004893Y003520D01*
X004893Y004020D01*
X005113Y004020D01*
X005113Y003520D01*
X005113Y003600D02*
X004893Y003600D01*
X004893Y003680D02*
X005113Y003680D01*
X005113Y003760D02*
X004893Y003760D01*
X004893Y003840D02*
X005113Y003840D01*
X005113Y003920D02*
X004893Y003920D01*
X004893Y004000D02*
X005113Y004000D01*
X004798Y003520D02*
X004578Y003520D01*
X004578Y004020D01*
X004798Y004020D01*
X004798Y003520D01*
X004798Y003600D02*
X004578Y003600D01*
X004578Y003680D02*
X004798Y003680D01*
X004798Y003760D02*
X004578Y003760D01*
X004578Y003840D02*
X004798Y003840D01*
X004798Y003920D02*
X004578Y003920D01*
X004578Y004000D02*
X004798Y004000D01*
X004483Y003520D02*
X004263Y003520D01*
X004263Y004020D01*
X004483Y004020D01*
X004483Y003520D01*
X004483Y003600D02*
X004263Y003600D01*
X004263Y003680D02*
X004483Y003680D01*
X004483Y003760D02*
X004263Y003760D01*
X004263Y003840D02*
X004483Y003840D01*
X004483Y003920D02*
X004263Y003920D01*
X004263Y004000D02*
X004483Y004000D01*
X004168Y003520D02*
X003948Y003520D01*
X003948Y004020D01*
X004168Y004020D01*
X004168Y003520D01*
X004168Y003600D02*
X003948Y003600D01*
X003948Y003680D02*
X004168Y003680D01*
X004168Y003760D02*
X003948Y003760D01*
X003948Y003840D02*
X004168Y003840D01*
X004168Y003920D02*
X003948Y003920D01*
X003948Y004000D02*
X004168Y004000D01*
X003853Y003520D02*
X003633Y003520D01*
X003633Y004020D01*
X003853Y004020D01*
X003853Y003520D01*
X003853Y003600D02*
X003633Y003600D01*
X003633Y003680D02*
X003853Y003680D01*
X003853Y003760D02*
X003633Y003760D01*
X003633Y003840D02*
X003853Y003840D01*
X003853Y003920D02*
X003633Y003920D01*
X003633Y004000D02*
X003853Y004000D01*
X003406Y004248D02*
X002906Y004248D01*
X002906Y004468D01*
X003406Y004468D01*
X003406Y004248D01*
X003406Y004328D02*
X002906Y004328D01*
X002906Y004408D02*
X003406Y004408D01*
X003406Y004563D02*
X002906Y004563D01*
X002906Y004783D01*
X003406Y004783D01*
X003406Y004563D01*
X003406Y004643D02*
X002906Y004643D01*
X002906Y004723D02*
X003406Y004723D01*
X003406Y004878D02*
X002906Y004878D01*
X002906Y005098D01*
X003406Y005098D01*
X003406Y004878D01*
X003406Y004958D02*
X002906Y004958D01*
X002906Y005038D02*
X003406Y005038D01*
X003406Y005193D02*
X002906Y005193D01*
X002906Y005413D01*
X003406Y005413D01*
X003406Y005193D01*
X003406Y005273D02*
X002906Y005273D01*
X002906Y005353D02*
X003406Y005353D01*
X003406Y005507D02*
X002906Y005507D01*
X002906Y005727D01*
X003406Y005727D01*
X003406Y005507D01*
X003406Y005587D02*
X002906Y005587D01*
X002906Y005667D02*
X003406Y005667D01*
X003406Y005822D02*
X002906Y005822D01*
X002906Y006042D01*
X003406Y006042D01*
X003406Y005822D01*
X003406Y005902D02*
X002906Y005902D01*
X002906Y005982D02*
X003406Y005982D01*
X003406Y006137D02*
X002906Y006137D01*
X002906Y006357D01*
X003406Y006357D01*
X003406Y006137D01*
X003406Y006217D02*
X002906Y006217D01*
X002906Y006297D02*
X003406Y006297D01*
X003406Y006452D02*
X002906Y006452D01*
X002906Y006672D01*
X003406Y006672D01*
X003406Y006452D01*
X003406Y006532D02*
X002906Y006532D01*
X002906Y006612D02*
X003406Y006612D01*
D12*
X001342Y006342D03*
X001342Y005554D03*
X001342Y004767D03*
X001342Y003980D03*
X001342Y007129D03*
X001342Y007917D03*
X001342Y008704D03*
X001342Y009491D03*
X001342Y010279D03*
X001342Y011066D03*
X010003Y011066D03*
X010003Y010279D03*
X010003Y009491D03*
X010003Y008704D03*
X010003Y007917D03*
X010003Y007129D03*
X010003Y006342D03*
X010003Y005554D03*
X010003Y004767D03*
X010003Y003980D03*
D13*
X006788Y008960D02*
X006788Y009176D01*
X007260Y009176D01*
X007260Y008960D01*
X006788Y008960D01*
X006788Y009039D02*
X007260Y009039D01*
X007260Y009118D02*
X006788Y009118D01*
X006788Y009708D02*
X006788Y009924D01*
X007260Y009924D01*
X007260Y009708D01*
X006788Y009708D01*
X006788Y009787D02*
X007260Y009787D01*
X007260Y009866D02*
X006788Y009866D01*
X005764Y009924D02*
X005764Y009708D01*
X005764Y009924D02*
X006236Y009924D01*
X006236Y009708D01*
X005764Y009708D01*
X005764Y009787D02*
X006236Y009787D01*
X006236Y009866D02*
X005764Y009866D01*
X005764Y009550D02*
X005764Y009334D01*
X005764Y009550D02*
X006236Y009550D01*
X006236Y009334D01*
X005764Y009334D01*
X005764Y009413D02*
X006236Y009413D01*
X006236Y009492D02*
X005764Y009492D01*
X005764Y009176D02*
X005764Y008960D01*
X005764Y009176D02*
X006236Y009176D01*
X006236Y008960D01*
X005764Y008960D01*
X005764Y009039D02*
X006236Y009039D01*
X006236Y009118D02*
X005764Y009118D01*
D14*
X005731Y008166D02*
X006005Y008166D01*
X005731Y008166D02*
X005731Y008518D01*
X006005Y008518D01*
X006005Y008166D01*
X006005Y008247D02*
X005731Y008247D01*
X005731Y008328D02*
X006005Y008328D01*
X006005Y008409D02*
X005731Y008409D01*
X005731Y008490D02*
X006005Y008490D01*
X006005Y008018D02*
X005731Y008018D01*
X006005Y008018D02*
X006005Y007666D01*
X005731Y007666D01*
X005731Y008018D01*
X005731Y007747D02*
X006005Y007747D01*
X006005Y007828D02*
X005731Y007828D01*
X005731Y007909D02*
X006005Y007909D01*
X006005Y007990D02*
X005731Y007990D01*
X005493Y008018D02*
X005219Y008018D01*
X005493Y008018D02*
X005493Y007666D01*
X005219Y007666D01*
X005219Y008018D01*
X005219Y007747D02*
X005493Y007747D01*
X005493Y007828D02*
X005219Y007828D01*
X005219Y007909D02*
X005493Y007909D01*
X005493Y007990D02*
X005219Y007990D01*
X005219Y008166D02*
X005493Y008166D01*
X005219Y008166D02*
X005219Y008518D01*
X005493Y008518D01*
X005493Y008166D01*
X005493Y008247D02*
X005219Y008247D01*
X005219Y008328D02*
X005493Y008328D01*
X005493Y008409D02*
X005219Y008409D01*
X005219Y008490D02*
X005493Y008490D01*
X007838Y010699D02*
X007838Y010973D01*
X007838Y010699D02*
X007486Y010699D01*
X007486Y010973D01*
X007838Y010973D01*
X007838Y010780D02*
X007486Y010780D01*
X007486Y010861D02*
X007838Y010861D01*
X007838Y010942D02*
X007486Y010942D01*
X007838Y011211D02*
X007838Y011485D01*
X007838Y011211D02*
X007486Y011211D01*
X007486Y011485D01*
X007838Y011485D01*
X007838Y011292D02*
X007486Y011292D01*
X007486Y011373D02*
X007838Y011373D01*
X007838Y011454D02*
X007486Y011454D01*
X008488Y011485D02*
X008488Y011211D01*
X008136Y011211D01*
X008136Y011485D01*
X008488Y011485D01*
X008488Y011292D02*
X008136Y011292D01*
X008136Y011373D02*
X008488Y011373D01*
X008488Y011454D02*
X008136Y011454D01*
X008488Y010973D02*
X008488Y010699D01*
X008136Y010699D01*
X008136Y010973D01*
X008488Y010973D01*
X008488Y010780D02*
X008136Y010780D01*
X008136Y010861D02*
X008488Y010861D01*
X008488Y010942D02*
X008136Y010942D01*
X009288Y008935D02*
X009288Y008661D01*
X008936Y008661D01*
X008936Y008935D01*
X009288Y008935D01*
X009288Y008742D02*
X008936Y008742D01*
X008936Y008823D02*
X009288Y008823D01*
X009288Y008904D02*
X008936Y008904D01*
X009288Y008423D02*
X009288Y008149D01*
X008936Y008149D01*
X008936Y008423D01*
X009288Y008423D01*
X009288Y008230D02*
X008936Y008230D01*
X008936Y008311D02*
X009288Y008311D01*
X009288Y008392D02*
X008936Y008392D01*
X007268Y005656D02*
X007268Y005382D01*
X007268Y005656D02*
X007620Y005656D01*
X007620Y005382D01*
X007268Y005382D01*
X007268Y005463D02*
X007620Y005463D01*
X007620Y005544D02*
X007268Y005544D01*
X007268Y005625D02*
X007620Y005625D01*
X007268Y005144D02*
X007268Y004870D01*
X007268Y005144D02*
X007620Y005144D01*
X007620Y004870D01*
X007268Y004870D01*
X007268Y004951D02*
X007620Y004951D01*
X007620Y005032D02*
X007268Y005032D01*
X007268Y005113D02*
X007620Y005113D01*
X008003Y005375D02*
X008277Y005375D01*
X008277Y005023D01*
X008003Y005023D01*
X008003Y005375D01*
X008003Y005104D02*
X008277Y005104D01*
X008277Y005185D02*
X008003Y005185D01*
X008003Y005266D02*
X008277Y005266D01*
X008277Y005347D02*
X008003Y005347D01*
X008515Y005375D02*
X008789Y005375D01*
X008789Y005023D01*
X008515Y005023D01*
X008515Y005375D01*
X008515Y005104D02*
X008789Y005104D01*
X008789Y005185D02*
X008515Y005185D01*
X008515Y005266D02*
X008789Y005266D01*
X008789Y005347D02*
X008515Y005347D01*
X008627Y003704D02*
X008353Y003704D01*
X008353Y004056D01*
X008627Y004056D01*
X008627Y003704D01*
X008627Y003785D02*
X008353Y003785D01*
X008353Y003866D02*
X008627Y003866D01*
X008627Y003947D02*
X008353Y003947D01*
X008353Y004028D02*
X008627Y004028D01*
X008865Y003704D02*
X009139Y003704D01*
X008865Y003704D02*
X008865Y004056D01*
X009139Y004056D01*
X009139Y003704D01*
X009139Y003785D02*
X008865Y003785D01*
X008865Y003866D02*
X009139Y003866D01*
X009139Y003947D02*
X008865Y003947D01*
X008865Y004028D02*
X009139Y004028D01*
X002855Y003268D02*
X002581Y003268D01*
X002855Y003268D02*
X002855Y002916D01*
X002581Y002916D01*
X002581Y003268D01*
X002581Y002997D02*
X002855Y002997D01*
X002855Y003078D02*
X002581Y003078D01*
X002581Y003159D02*
X002855Y003159D01*
X002855Y003240D02*
X002581Y003240D01*
X002343Y003268D02*
X002069Y003268D01*
X002343Y003268D02*
X002343Y002916D01*
X002069Y002916D01*
X002069Y003268D01*
X002069Y002997D02*
X002343Y002997D01*
X002343Y003078D02*
X002069Y003078D01*
X002069Y003159D02*
X002343Y003159D01*
X002343Y003240D02*
X002069Y003240D01*
X002032Y003566D02*
X002032Y003840D01*
X002698Y003840D01*
X002698Y003566D01*
X002032Y003566D01*
X002032Y003647D02*
X002698Y003647D01*
X002698Y003728D02*
X002032Y003728D01*
X002032Y003809D02*
X002698Y003809D01*
X002032Y004039D02*
X002032Y004313D01*
X002698Y004313D01*
X002698Y004039D01*
X002032Y004039D01*
X002032Y004120D02*
X002698Y004120D01*
X002698Y004201D02*
X002032Y004201D01*
X002032Y004282D02*
X002698Y004282D01*
X002032Y004511D02*
X002032Y004785D01*
X002698Y004785D01*
X002698Y004511D01*
X002032Y004511D01*
X002032Y004592D02*
X002698Y004592D01*
X002698Y004673D02*
X002032Y004673D01*
X002032Y004754D02*
X002698Y004754D01*
X002523Y005448D02*
X002523Y005722D01*
X002523Y005448D02*
X002171Y005448D01*
X002171Y005722D01*
X002523Y005722D01*
X002523Y005529D02*
X002171Y005529D01*
X002171Y005610D02*
X002523Y005610D01*
X002523Y005691D02*
X002171Y005691D01*
X002523Y005960D02*
X002523Y006234D01*
X002523Y005960D02*
X002171Y005960D01*
X002171Y006234D01*
X002523Y006234D01*
X002523Y006041D02*
X002171Y006041D01*
X002171Y006122D02*
X002523Y006122D01*
X002523Y006203D02*
X002171Y006203D01*
D15*
X003221Y009780D02*
X003615Y009780D01*
X003221Y009780D02*
X003221Y011590D01*
X003615Y011590D01*
X003615Y009780D01*
X003615Y009860D02*
X003221Y009860D01*
X003221Y009940D02*
X003615Y009940D01*
X003615Y010020D02*
X003221Y010020D01*
X003221Y010100D02*
X003615Y010100D01*
X003615Y010180D02*
X003221Y010180D01*
X003221Y010260D02*
X003615Y010260D01*
X003615Y010340D02*
X003221Y010340D01*
X003221Y010420D02*
X003615Y010420D01*
X003615Y010500D02*
X003221Y010500D01*
X003221Y010580D02*
X003615Y010580D01*
X003615Y010660D02*
X003221Y010660D01*
X003221Y010740D02*
X003615Y010740D01*
X003615Y010820D02*
X003221Y010820D01*
X003221Y010900D02*
X003615Y010900D01*
X003615Y010980D02*
X003221Y010980D01*
X003221Y011060D02*
X003615Y011060D01*
X003615Y011140D02*
X003221Y011140D01*
X003221Y011220D02*
X003615Y011220D01*
X003615Y011300D02*
X003221Y011300D01*
X003221Y011380D02*
X003615Y011380D01*
X003615Y011460D02*
X003221Y011460D01*
X003221Y011540D02*
X003615Y011540D01*
X004008Y009780D02*
X004402Y009780D01*
X004008Y009780D02*
X004008Y011590D01*
X004402Y011590D01*
X004402Y009780D01*
X004402Y009860D02*
X004008Y009860D01*
X004008Y009940D02*
X004402Y009940D01*
X004402Y010020D02*
X004008Y010020D01*
X004008Y010100D02*
X004402Y010100D01*
X004402Y010180D02*
X004008Y010180D01*
X004008Y010260D02*
X004402Y010260D01*
X004402Y010340D02*
X004008Y010340D01*
X004008Y010420D02*
X004402Y010420D01*
X004402Y010500D02*
X004008Y010500D01*
X004008Y010580D02*
X004402Y010580D01*
X004402Y010660D02*
X004008Y010660D01*
X004008Y010740D02*
X004402Y010740D01*
X004402Y010820D02*
X004008Y010820D01*
X004008Y010900D02*
X004402Y010900D01*
X004402Y010980D02*
X004008Y010980D01*
X004008Y011060D02*
X004402Y011060D01*
X004402Y011140D02*
X004008Y011140D01*
X004008Y011220D02*
X004402Y011220D01*
X004402Y011300D02*
X004008Y011300D01*
X004008Y011380D02*
X004402Y011380D01*
X004402Y011460D02*
X004008Y011460D01*
X004008Y011540D02*
X004402Y011540D01*
X005663Y011096D02*
X006057Y011096D01*
X006057Y010388D01*
X005663Y010388D01*
X005663Y011096D01*
X005663Y010468D02*
X006057Y010468D01*
X006057Y010548D02*
X005663Y010548D01*
X005663Y010628D02*
X006057Y010628D01*
X006057Y010708D02*
X005663Y010708D01*
X005663Y010788D02*
X006057Y010788D01*
X006057Y010868D02*
X005663Y010868D01*
X005663Y010948D02*
X006057Y010948D01*
X006057Y011028D02*
X005663Y011028D01*
X006766Y011096D02*
X007160Y011096D01*
X007160Y010388D01*
X006766Y010388D01*
X006766Y011096D01*
X006766Y010468D02*
X007160Y010468D01*
X007160Y010548D02*
X006766Y010548D01*
X006766Y010628D02*
X007160Y010628D01*
X007160Y010708D02*
X006766Y010708D01*
X006766Y010788D02*
X007160Y010788D01*
X007160Y010868D02*
X006766Y010868D01*
X006766Y010948D02*
X007160Y010948D01*
X007160Y011028D02*
X006766Y011028D01*
D16*
X005463Y012065D02*
X005463Y013399D01*
X005463Y012065D02*
X004837Y012065D01*
X004837Y013399D01*
X005463Y013399D01*
X005463Y012149D02*
X004837Y012149D01*
X004837Y012233D02*
X005463Y012233D01*
X005463Y012317D02*
X004837Y012317D01*
X004837Y012401D02*
X005463Y012401D01*
X005463Y012485D02*
X004837Y012485D01*
X004837Y012569D02*
X005463Y012569D01*
X005463Y012653D02*
X004837Y012653D01*
X004837Y012737D02*
X005463Y012737D01*
X005463Y012821D02*
X004837Y012821D01*
X004837Y012905D02*
X005463Y012905D01*
X005463Y012989D02*
X004837Y012989D01*
X004837Y013073D02*
X005463Y013073D01*
X005463Y013157D02*
X004837Y013157D01*
X004837Y013241D02*
X005463Y013241D01*
X005463Y013325D02*
X004837Y013325D01*
X002786Y013399D02*
X002786Y012065D01*
X002160Y012065D01*
X002160Y013399D01*
X002786Y013399D01*
X002786Y012149D02*
X002160Y012149D01*
X002160Y012233D02*
X002786Y012233D01*
X002786Y012317D02*
X002160Y012317D01*
X002160Y012401D02*
X002786Y012401D01*
X002786Y012485D02*
X002160Y012485D01*
X002160Y012569D02*
X002786Y012569D01*
X002786Y012653D02*
X002160Y012653D01*
X002160Y012737D02*
X002786Y012737D01*
X002786Y012821D02*
X002160Y012821D01*
X002160Y012905D02*
X002786Y012905D01*
X002786Y012989D02*
X002160Y012989D01*
X002160Y013073D02*
X002786Y013073D01*
X002786Y013157D02*
X002160Y013157D01*
X002160Y013241D02*
X002786Y013241D01*
X002786Y013325D02*
X002160Y013325D01*
D17*
X009560Y013398D02*
X009560Y013086D01*
X009560Y013398D02*
X009872Y013398D01*
X009872Y013086D01*
X009560Y013086D01*
X009560Y013168D02*
X009872Y013168D01*
X009872Y013250D02*
X009560Y013250D01*
X009560Y013332D02*
X009872Y013332D01*
X010151Y013398D02*
X010151Y013086D01*
X010151Y013398D02*
X010463Y013398D01*
X010463Y013086D01*
X010151Y013086D01*
X010151Y013168D02*
X010463Y013168D01*
X010463Y013250D02*
X010151Y013250D01*
X010151Y013332D02*
X010463Y013332D01*
X010151Y012848D02*
X010151Y012536D01*
X010151Y012848D02*
X010463Y012848D01*
X010463Y012536D01*
X010151Y012536D01*
X010151Y012618D02*
X010463Y012618D01*
X010463Y012700D02*
X010151Y012700D01*
X010151Y012782D02*
X010463Y012782D01*
X010151Y012288D02*
X010151Y011976D01*
X010151Y012288D02*
X010463Y012288D01*
X010463Y011976D01*
X010151Y011976D01*
X010151Y012058D02*
X010463Y012058D01*
X010463Y012140D02*
X010151Y012140D01*
X010151Y012222D02*
X010463Y012222D01*
X009560Y012288D02*
X009560Y011976D01*
X009560Y012288D02*
X009872Y012288D01*
X009872Y011976D01*
X009560Y011976D01*
X009560Y012058D02*
X009872Y012058D01*
X009872Y012140D02*
X009560Y012140D01*
X009560Y012222D02*
X009872Y012222D01*
X009560Y012536D02*
X009560Y012848D01*
X009872Y012848D01*
X009872Y012536D01*
X009560Y012536D01*
X009560Y012618D02*
X009872Y012618D01*
X009872Y012700D02*
X009560Y012700D01*
X009560Y012782D02*
X009872Y012782D01*
X001813Y003148D02*
X001813Y002836D01*
X001501Y002836D01*
X001501Y003148D01*
X001813Y003148D01*
X001813Y002918D02*
X001501Y002918D01*
X001501Y003000D02*
X001813Y003000D01*
X001813Y003082D02*
X001501Y003082D01*
X001222Y003148D02*
X001222Y002836D01*
X000910Y002836D01*
X000910Y003148D01*
X001222Y003148D01*
X001222Y002918D02*
X000910Y002918D01*
X000910Y003000D02*
X001222Y003000D01*
X001222Y003082D02*
X000910Y003082D01*
D18*
X004818Y008813D02*
X004818Y009323D01*
X005406Y009323D01*
X005406Y008813D01*
X004818Y008813D01*
X004818Y008895D02*
X005406Y008895D01*
X005406Y008977D02*
X004818Y008977D01*
X004818Y009059D02*
X005406Y009059D01*
X005406Y009141D02*
X004818Y009141D01*
X004818Y009223D02*
X005406Y009223D01*
X005406Y009305D02*
X004818Y009305D01*
X004818Y009561D02*
X004818Y010071D01*
X005406Y010071D01*
X005406Y009561D01*
X004818Y009561D01*
X004818Y009643D02*
X005406Y009643D01*
X005406Y009725D02*
X004818Y009725D01*
X004818Y009807D02*
X005406Y009807D01*
X005406Y009889D02*
X004818Y009889D01*
X004818Y009971D02*
X005406Y009971D01*
X005406Y010053D02*
X004818Y010053D01*
X007518Y010071D02*
X007518Y009561D01*
X007518Y010071D02*
X008106Y010071D01*
X008106Y009561D01*
X007518Y009561D01*
X007518Y009643D02*
X008106Y009643D01*
X008106Y009725D02*
X007518Y009725D01*
X007518Y009807D02*
X008106Y009807D01*
X008106Y009889D02*
X007518Y009889D01*
X007518Y009971D02*
X008106Y009971D01*
X008106Y010053D02*
X007518Y010053D01*
X007518Y009323D02*
X007518Y008813D01*
X007518Y009323D02*
X008106Y009323D01*
X008106Y008813D01*
X007518Y008813D01*
X007518Y008895D02*
X008106Y008895D01*
X008106Y008977D02*
X007518Y008977D01*
X007518Y009059D02*
X008106Y009059D01*
X008106Y009141D02*
X007518Y009141D01*
X007518Y009223D02*
X008106Y009223D01*
X008106Y009305D02*
X007518Y009305D01*
D19*
X008399Y007671D02*
X008399Y007475D01*
X007927Y007475D01*
X007927Y007671D01*
X008399Y007671D01*
X008399Y007554D02*
X007927Y007554D01*
X007927Y007633D02*
X008399Y007633D01*
X008498Y007849D02*
X008694Y007849D01*
X008694Y007377D01*
X008498Y007377D01*
X008498Y007849D01*
X008498Y007456D02*
X008694Y007456D01*
X008694Y007535D02*
X008498Y007535D01*
X008498Y007614D02*
X008694Y007614D01*
X008694Y007693D02*
X008498Y007693D01*
X008498Y007772D02*
X008694Y007772D01*
X009265Y007671D02*
X009265Y007475D01*
X008793Y007475D01*
X008793Y007671D01*
X009265Y007671D01*
X009265Y007554D02*
X008793Y007554D01*
X008793Y007633D02*
X009265Y007633D01*
X009265Y007356D02*
X009265Y007160D01*
X008793Y007160D01*
X008793Y007356D01*
X009265Y007356D01*
X009265Y007239D02*
X008793Y007239D01*
X008793Y007318D02*
X009265Y007318D01*
X009265Y007041D02*
X009265Y006845D01*
X008793Y006845D01*
X008793Y007041D01*
X009265Y007041D01*
X009265Y006924D02*
X008793Y006924D01*
X008793Y007003D02*
X009265Y007003D01*
X009265Y006727D02*
X009265Y006531D01*
X008793Y006531D01*
X008793Y006727D01*
X009265Y006727D01*
X009265Y006610D02*
X008793Y006610D01*
X008793Y006689D02*
X009265Y006689D01*
X009265Y006412D02*
X009265Y006216D01*
X008793Y006216D01*
X008793Y006412D01*
X009265Y006412D01*
X009265Y006295D02*
X008793Y006295D01*
X008793Y006374D02*
X009265Y006374D01*
X008793Y006097D02*
X008793Y005901D01*
X008793Y006097D02*
X009265Y006097D01*
X009265Y005901D01*
X008793Y005901D01*
X008793Y005980D02*
X009265Y005980D01*
X009265Y006059D02*
X008793Y006059D01*
X008694Y005723D02*
X008498Y005723D01*
X008498Y006195D01*
X008694Y006195D01*
X008694Y005723D01*
X008694Y005802D02*
X008498Y005802D01*
X008498Y005881D02*
X008694Y005881D01*
X008694Y005960D02*
X008498Y005960D01*
X008498Y006039D02*
X008694Y006039D01*
X008694Y006118D02*
X008498Y006118D01*
X007927Y006097D02*
X007927Y005901D01*
X007927Y006097D02*
X008399Y006097D01*
X008399Y005901D01*
X007927Y005901D01*
X007927Y005980D02*
X008399Y005980D01*
X008399Y006059D02*
X007927Y006059D01*
X007927Y006216D02*
X007927Y006412D01*
X008399Y006412D01*
X008399Y006216D01*
X007927Y006216D01*
X007927Y006295D02*
X008399Y006295D01*
X008399Y006374D02*
X007927Y006374D01*
X007927Y006531D02*
X007927Y006727D01*
X008399Y006727D01*
X008399Y006531D01*
X007927Y006531D01*
X007927Y006610D02*
X008399Y006610D01*
X008399Y006689D02*
X007927Y006689D01*
X007927Y006845D02*
X007927Y007041D01*
X008399Y007041D01*
X008399Y006845D01*
X007927Y006845D01*
X007927Y006924D02*
X008399Y006924D01*
X008399Y007003D02*
X007927Y007003D01*
X008399Y007160D02*
X008399Y007356D01*
X008399Y007160D02*
X007927Y007160D01*
X007927Y007356D01*
X008399Y007356D01*
X008399Y007239D02*
X007927Y007239D01*
X007927Y007318D02*
X008399Y007318D01*
D20*
X007727Y003393D03*
X009148Y011449D03*
D21*
X008600Y012218D02*
X008600Y012538D01*
X008990Y012538D01*
X008990Y012218D01*
X008600Y012218D01*
X008600Y012297D02*
X008990Y012297D01*
X008990Y012376D02*
X008600Y012376D01*
X008600Y012455D02*
X008990Y012455D01*
X008990Y012534D02*
X008600Y012534D01*
X008600Y013088D02*
X008600Y013408D01*
X008990Y013408D01*
X008990Y013088D01*
X008600Y013088D01*
X008600Y013167D02*
X008990Y013167D01*
X008990Y013246D02*
X008600Y013246D01*
X008600Y013325D02*
X008990Y013325D01*
X008990Y013404D02*
X008600Y013404D01*
X005730Y013408D02*
X005730Y013088D01*
X005730Y013408D02*
X006120Y013408D01*
X006120Y013088D01*
X005730Y013088D01*
X005730Y013167D02*
X006120Y013167D01*
X006120Y013246D02*
X005730Y013246D01*
X005730Y013325D02*
X006120Y013325D01*
X006120Y013404D02*
X005730Y013404D01*
X005730Y012538D02*
X005730Y012218D01*
X005730Y012538D02*
X006120Y012538D01*
X006120Y012218D01*
X005730Y012218D01*
X005730Y012297D02*
X006120Y012297D01*
X006120Y012376D02*
X005730Y012376D01*
X005730Y012455D02*
X006120Y012455D01*
X006120Y012534D02*
X005730Y012534D01*
D22*
X006331Y012422D02*
X006609Y012422D01*
X006609Y011834D01*
X006331Y011834D01*
X006331Y012422D01*
X006331Y011916D02*
X006609Y011916D01*
X006609Y011998D02*
X006331Y011998D01*
X006331Y012080D02*
X006609Y012080D01*
X006609Y012162D02*
X006331Y012162D01*
X006331Y012244D02*
X006609Y012244D01*
X006609Y012326D02*
X006331Y012326D01*
X006331Y012408D02*
X006609Y012408D01*
X006921Y012422D02*
X007199Y012422D01*
X007199Y011834D01*
X006921Y011834D01*
X006921Y012422D01*
X006921Y011916D02*
X007199Y011916D01*
X007199Y011998D02*
X006921Y011998D01*
X006921Y012080D02*
X007199Y012080D01*
X007199Y012162D02*
X006921Y012162D01*
X006921Y012244D02*
X007199Y012244D01*
X007199Y012326D02*
X006921Y012326D01*
X006921Y012408D02*
X007199Y012408D01*
X008101Y012422D02*
X008379Y012422D01*
X008379Y011834D01*
X008101Y011834D01*
X008101Y012422D01*
X008101Y011916D02*
X008379Y011916D01*
X008379Y011998D02*
X008101Y011998D01*
X008101Y012080D02*
X008379Y012080D01*
X008379Y012162D02*
X008101Y012162D01*
X008101Y012244D02*
X008379Y012244D01*
X008379Y012326D02*
X008101Y012326D01*
X008101Y012408D02*
X008379Y012408D01*
D23*
X007950Y012813D03*
X006770Y012813D03*
D24*
X000712Y001042D03*
X000712Y002042D03*
X001712Y002042D03*
X001712Y001042D03*
X002712Y001042D03*
X002712Y002042D03*
X003712Y002042D03*
X003712Y001042D03*
X004712Y001042D03*
X004712Y002042D03*
X005712Y002042D03*
X005712Y001042D03*
X006712Y001042D03*
X006712Y002042D03*
X006712Y003042D03*
X007712Y004042D03*
X007712Y002042D03*
X007712Y001042D03*
X008712Y001042D03*
X008712Y002042D03*
X009712Y002042D03*
X009712Y003042D03*
X009712Y001042D03*
X004712Y008042D03*
X003712Y008042D03*
X003712Y009042D03*
X002712Y009042D03*
X002712Y008042D03*
M02*
