G75*
G70*
%OFA0B0*%
%FSLAX24Y24*%
%IPPOS*%
%LPD*%
%AMOC8*
5,1,8,0,0,1.08239X$1,22.5*
%
%ADD10C,0.0000*%
%ADD11C,0.0060*%
%ADD12C,0.0080*%
%ADD13C,0.0100*%
%ADD14C,0.0050*%
D10*
X000202Y000239D02*
X000202Y013625D01*
X010635Y013625D01*
X010635Y000239D01*
X000202Y000239D01*
X007537Y003391D02*
X007539Y003417D01*
X007545Y003443D01*
X007554Y003467D01*
X007567Y003490D01*
X007583Y003511D01*
X007602Y003529D01*
X007623Y003545D01*
X007647Y003557D01*
X007671Y003565D01*
X007697Y003570D01*
X007724Y003571D01*
X007750Y003568D01*
X007775Y003561D01*
X007799Y003551D01*
X007822Y003537D01*
X007842Y003521D01*
X007859Y003501D01*
X007874Y003479D01*
X007885Y003455D01*
X007893Y003430D01*
X007897Y003404D01*
X007897Y003378D01*
X007893Y003352D01*
X007885Y003327D01*
X007874Y003303D01*
X007859Y003281D01*
X007842Y003261D01*
X007822Y003245D01*
X007799Y003231D01*
X007775Y003221D01*
X007750Y003214D01*
X007724Y003211D01*
X007697Y003212D01*
X007671Y003217D01*
X007647Y003225D01*
X007623Y003237D01*
X007602Y003253D01*
X007583Y003271D01*
X007567Y003292D01*
X007554Y003315D01*
X007545Y003339D01*
X007539Y003365D01*
X007537Y003391D01*
X008958Y011446D02*
X008960Y011472D01*
X008966Y011498D01*
X008975Y011522D01*
X008988Y011545D01*
X009004Y011566D01*
X009023Y011584D01*
X009044Y011600D01*
X009068Y011612D01*
X009092Y011620D01*
X009118Y011625D01*
X009145Y011626D01*
X009171Y011623D01*
X009196Y011616D01*
X009220Y011606D01*
X009243Y011592D01*
X009263Y011576D01*
X009280Y011556D01*
X009295Y011534D01*
X009306Y011510D01*
X009314Y011485D01*
X009318Y011459D01*
X009318Y011433D01*
X009314Y011407D01*
X009306Y011382D01*
X009295Y011358D01*
X009280Y011336D01*
X009263Y011316D01*
X009243Y011300D01*
X009220Y011286D01*
X009196Y011276D01*
X009171Y011269D01*
X009145Y011266D01*
X009118Y011267D01*
X009092Y011272D01*
X009068Y011280D01*
X009044Y011292D01*
X009023Y011308D01*
X009004Y011326D01*
X008988Y011347D01*
X008975Y011370D01*
X008966Y011394D01*
X008960Y011420D01*
X008958Y011446D01*
X007765Y012810D02*
X007767Y012836D01*
X007773Y012862D01*
X007782Y012886D01*
X007795Y012909D01*
X007812Y012929D01*
X007831Y012947D01*
X007853Y012962D01*
X007876Y012973D01*
X007901Y012981D01*
X007927Y012985D01*
X007953Y012985D01*
X007979Y012981D01*
X008004Y012973D01*
X008028Y012962D01*
X008049Y012947D01*
X008068Y012929D01*
X008085Y012909D01*
X008098Y012886D01*
X008107Y012862D01*
X008113Y012836D01*
X008115Y012810D01*
X008113Y012784D01*
X008107Y012758D01*
X008098Y012734D01*
X008085Y012711D01*
X008068Y012691D01*
X008049Y012673D01*
X008027Y012658D01*
X008004Y012647D01*
X007979Y012639D01*
X007953Y012635D01*
X007927Y012635D01*
X007901Y012639D01*
X007876Y012647D01*
X007852Y012658D01*
X007831Y012673D01*
X007812Y012691D01*
X007795Y012711D01*
X007782Y012734D01*
X007773Y012758D01*
X007767Y012784D01*
X007765Y012810D01*
X006584Y012810D02*
X006586Y012836D01*
X006592Y012862D01*
X006601Y012886D01*
X006614Y012909D01*
X006631Y012929D01*
X006650Y012947D01*
X006672Y012962D01*
X006695Y012973D01*
X006720Y012981D01*
X006746Y012985D01*
X006772Y012985D01*
X006798Y012981D01*
X006823Y012973D01*
X006847Y012962D01*
X006868Y012947D01*
X006887Y012929D01*
X006904Y012909D01*
X006917Y012886D01*
X006926Y012862D01*
X006932Y012836D01*
X006934Y012810D01*
X006932Y012784D01*
X006926Y012758D01*
X006917Y012734D01*
X006904Y012711D01*
X006887Y012691D01*
X006868Y012673D01*
X006846Y012658D01*
X006823Y012647D01*
X006798Y012639D01*
X006772Y012635D01*
X006746Y012635D01*
X006720Y012639D01*
X006695Y012647D01*
X006671Y012658D01*
X006650Y012673D01*
X006631Y012691D01*
X006614Y012711D01*
X006601Y012734D01*
X006592Y012758D01*
X006586Y012784D01*
X006584Y012810D01*
X000593Y012523D02*
X000595Y012576D01*
X000601Y012629D01*
X000611Y012681D01*
X000624Y012732D01*
X000642Y012782D01*
X000663Y012831D01*
X000688Y012878D01*
X000716Y012922D01*
X000748Y012965D01*
X000782Y013005D01*
X000820Y013043D01*
X000860Y013077D01*
X000903Y013109D01*
X000948Y013137D01*
X000994Y013162D01*
X001043Y013183D01*
X001093Y013201D01*
X001144Y013214D01*
X001196Y013224D01*
X001249Y013230D01*
X001302Y013232D01*
X001355Y013230D01*
X001408Y013224D01*
X001460Y013214D01*
X001511Y013201D01*
X001561Y013183D01*
X001610Y013162D01*
X001657Y013137D01*
X001701Y013109D01*
X001744Y013077D01*
X001784Y013043D01*
X001822Y013005D01*
X001856Y012965D01*
X001888Y012922D01*
X001916Y012877D01*
X001941Y012831D01*
X001962Y012782D01*
X001980Y012732D01*
X001993Y012681D01*
X002003Y012629D01*
X002009Y012576D01*
X002011Y012523D01*
X002009Y012470D01*
X002003Y012417D01*
X001993Y012365D01*
X001980Y012314D01*
X001962Y012264D01*
X001941Y012215D01*
X001916Y012168D01*
X001888Y012124D01*
X001856Y012081D01*
X001822Y012041D01*
X001784Y012003D01*
X001744Y011969D01*
X001701Y011937D01*
X001656Y011909D01*
X001610Y011884D01*
X001561Y011863D01*
X001511Y011845D01*
X001460Y011832D01*
X001408Y011822D01*
X001355Y011816D01*
X001302Y011814D01*
X001249Y011816D01*
X001196Y011822D01*
X001144Y011832D01*
X001093Y011845D01*
X001043Y011863D01*
X000994Y011884D01*
X000947Y011909D01*
X000903Y011937D01*
X000860Y011969D01*
X000820Y012003D01*
X000782Y012041D01*
X000748Y012081D01*
X000716Y012124D01*
X000688Y012169D01*
X000663Y012215D01*
X000642Y012264D01*
X000624Y012314D01*
X000611Y012365D01*
X000601Y012417D01*
X000595Y012470D01*
X000593Y012523D01*
D11*
X002463Y009785D02*
X002636Y009524D01*
X002758Y009524D02*
X002844Y009611D01*
X002801Y009611D02*
X002931Y009611D01*
X002931Y009524D02*
X002931Y009785D01*
X002801Y009785D01*
X002758Y009741D01*
X002758Y009655D01*
X002801Y009611D01*
X002636Y009785D02*
X002463Y009524D01*
X003364Y009553D02*
X003364Y009727D01*
X003407Y009770D01*
X003537Y009770D01*
X003537Y009510D01*
X003407Y009510D01*
X003364Y009553D01*
X003659Y009510D02*
X003659Y009770D01*
X003832Y009770D02*
X003659Y009510D01*
X003832Y009510D02*
X003832Y009770D01*
X003953Y009727D02*
X003997Y009770D01*
X004083Y009770D01*
X004127Y009727D01*
X004127Y009553D01*
X004083Y009510D01*
X003997Y009510D01*
X003953Y009553D01*
X003953Y009640D01*
X004040Y009640D01*
X003974Y007524D02*
X003887Y007524D01*
X003843Y007481D01*
X003843Y007438D01*
X003887Y007394D01*
X003843Y007351D01*
X003843Y007308D01*
X003887Y007264D01*
X003974Y007264D01*
X004017Y007308D01*
X003930Y007394D02*
X003887Y007394D01*
X004017Y007481D02*
X003974Y007524D01*
X003722Y007438D02*
X003636Y007264D01*
X003549Y007438D01*
X003428Y007481D02*
X003384Y007524D01*
X003298Y007524D01*
X003254Y007481D01*
X003254Y007438D01*
X003298Y007394D01*
X003254Y007351D01*
X003254Y007308D01*
X003298Y007264D01*
X003384Y007264D01*
X003428Y007308D01*
X003341Y007394D02*
X003298Y007394D01*
X002926Y007535D02*
X002753Y007535D01*
X002840Y007535D02*
X002840Y007274D01*
X002632Y007274D02*
X002458Y007535D01*
X002632Y007535D02*
X002458Y007274D01*
X004330Y007510D02*
X004504Y007510D01*
X004417Y007510D02*
X004417Y007250D01*
X004625Y007293D02*
X004668Y007250D01*
X004755Y007250D01*
X004798Y007293D01*
X004755Y007380D02*
X004668Y007380D01*
X004625Y007336D01*
X004625Y007293D01*
X004625Y007467D02*
X004668Y007510D01*
X004755Y007510D01*
X004798Y007467D01*
X004798Y007423D01*
X004755Y007380D01*
X004919Y007380D02*
X004963Y007336D01*
X005093Y007336D01*
X005093Y007250D02*
X005093Y007510D01*
X004963Y007510D01*
X004919Y007467D01*
X004919Y007380D01*
X005006Y007336D02*
X004919Y007250D01*
X007336Y004710D02*
X007293Y004666D01*
X007293Y004623D01*
X007336Y004579D01*
X007293Y004536D01*
X007293Y004493D01*
X007336Y004449D01*
X007423Y004449D01*
X007466Y004493D01*
X007380Y004579D02*
X007336Y004579D01*
X007336Y004710D02*
X007423Y004710D01*
X007466Y004666D01*
X007674Y004710D02*
X007674Y004449D01*
X007761Y004449D02*
X007587Y004449D01*
X007761Y004623D02*
X007674Y004710D01*
X007882Y004666D02*
X007882Y004493D01*
X007925Y004449D01*
X008056Y004449D01*
X008056Y004710D01*
X007925Y004710D01*
X007882Y004666D01*
X007132Y003532D02*
X007132Y003359D01*
X007132Y003445D02*
X007392Y003445D01*
X007305Y003359D01*
X007132Y003238D02*
X007132Y003064D01*
X007132Y003151D02*
X007392Y003151D01*
X007305Y003064D01*
X007348Y002943D02*
X007175Y002943D01*
X007132Y002899D01*
X007132Y002769D01*
X007392Y002769D01*
X007392Y002899D01*
X007348Y002943D01*
X007402Y002695D02*
X007315Y002608D01*
X007315Y002435D01*
X007315Y002565D02*
X007489Y002565D01*
X007489Y002608D02*
X007402Y002695D01*
X007489Y002608D02*
X007489Y002435D01*
X007610Y002478D02*
X007610Y002652D01*
X007653Y002695D01*
X007783Y002695D01*
X007783Y002435D01*
X007653Y002435D01*
X007610Y002478D01*
X007904Y002478D02*
X007948Y002435D01*
X008035Y002435D01*
X008078Y002478D01*
X008035Y002565D02*
X007948Y002565D01*
X007904Y002521D01*
X007904Y002478D01*
X008035Y002565D02*
X008078Y002608D01*
X008078Y002652D01*
X008035Y002695D01*
X007948Y002695D01*
X007904Y002652D01*
X008488Y002652D02*
X008531Y002695D01*
X008618Y002695D01*
X008661Y002652D01*
X008782Y002608D02*
X008782Y002435D01*
X008661Y002435D02*
X008488Y002608D01*
X008488Y002652D01*
X008488Y002435D02*
X008661Y002435D01*
X008782Y002565D02*
X008956Y002565D01*
X008956Y002608D02*
X008869Y002695D01*
X008782Y002608D01*
X008956Y002608D02*
X008956Y002435D01*
X009511Y002478D02*
X009555Y002435D01*
X009641Y002435D01*
X009685Y002478D01*
X009511Y002652D01*
X009511Y002478D01*
X009511Y002652D02*
X009555Y002695D01*
X009641Y002695D01*
X009685Y002652D01*
X009685Y002478D01*
X009806Y002435D02*
X009806Y002608D01*
X009893Y002695D01*
X009980Y002608D01*
X009980Y002435D01*
X009980Y002565D02*
X009806Y002565D01*
X010132Y002769D02*
X010132Y002899D01*
X010175Y002943D01*
X010348Y002943D01*
X010392Y002899D01*
X010392Y002769D01*
X010132Y002769D01*
X010132Y003064D02*
X010132Y003238D01*
X010132Y003151D02*
X010392Y003151D01*
X010305Y003064D01*
X010348Y003359D02*
X010392Y003402D01*
X010392Y003489D01*
X010348Y003532D01*
X010305Y003532D01*
X010132Y003359D01*
X010132Y003532D01*
X009793Y000608D02*
X009706Y000522D01*
X009706Y000348D01*
X009706Y000478D02*
X009880Y000478D01*
X009880Y000522D02*
X009793Y000608D01*
X009880Y000522D02*
X009880Y000348D01*
X009585Y000348D02*
X009411Y000348D01*
X009498Y000348D02*
X009498Y000608D01*
X009585Y000522D01*
X008956Y000522D02*
X008956Y000348D01*
X008956Y000478D02*
X008782Y000478D01*
X008782Y000522D02*
X008782Y000348D01*
X008661Y000391D02*
X008618Y000348D01*
X008531Y000348D01*
X008488Y000391D01*
X008488Y000435D01*
X008531Y000478D01*
X008575Y000478D01*
X008531Y000478D02*
X008488Y000522D01*
X008488Y000565D01*
X008531Y000608D01*
X008618Y000608D01*
X008661Y000565D01*
X008782Y000522D02*
X008869Y000608D01*
X008956Y000522D01*
X008078Y000522D02*
X008035Y000478D01*
X007948Y000478D01*
X007904Y000435D01*
X007904Y000391D01*
X007948Y000348D01*
X008035Y000348D01*
X008078Y000391D01*
X008078Y000522D02*
X008078Y000565D01*
X008035Y000608D01*
X007948Y000608D01*
X007904Y000565D01*
X007783Y000565D02*
X007783Y000391D01*
X007740Y000348D01*
X007653Y000348D01*
X007610Y000391D01*
X007489Y000348D02*
X007315Y000348D01*
X007489Y000348D02*
X007489Y000608D01*
X007610Y000565D02*
X007653Y000608D01*
X007740Y000608D01*
X007783Y000565D01*
X006887Y000522D02*
X006887Y000348D01*
X006887Y000478D02*
X006714Y000478D01*
X006714Y000522D02*
X006714Y000348D01*
X006593Y000348D02*
X006593Y000391D01*
X006419Y000565D01*
X006419Y000608D01*
X006593Y000608D01*
X006714Y000522D02*
X006801Y000608D01*
X006887Y000522D01*
X006167Y000608D02*
X006167Y000348D01*
X006037Y000348D01*
X005993Y000391D01*
X005993Y000565D01*
X006037Y000608D01*
X006167Y000608D01*
X005872Y000522D02*
X005786Y000608D01*
X005786Y000348D01*
X005872Y000348D02*
X005699Y000348D01*
X005578Y000391D02*
X005404Y000565D01*
X005404Y000391D01*
X005448Y000348D01*
X005534Y000348D01*
X005578Y000391D01*
X005578Y000565D01*
X005534Y000608D01*
X005448Y000608D01*
X005404Y000565D01*
X005283Y000522D02*
X005153Y000522D01*
X005109Y000478D01*
X005109Y000391D01*
X005153Y000348D01*
X005283Y000348D01*
X005283Y000261D02*
X005283Y000522D01*
X004880Y000608D02*
X004880Y000348D01*
X004749Y000348D01*
X004706Y000391D01*
X004706Y000565D01*
X004749Y000608D01*
X004880Y000608D01*
X004585Y000565D02*
X004585Y000522D01*
X004541Y000478D01*
X004455Y000478D01*
X004411Y000435D01*
X004411Y000391D01*
X004455Y000348D01*
X004541Y000348D01*
X004585Y000391D01*
X004585Y000435D01*
X004541Y000478D01*
X004455Y000478D02*
X004411Y000522D01*
X004411Y000565D01*
X004455Y000608D01*
X004541Y000608D01*
X004585Y000565D01*
X004038Y000608D02*
X004038Y000348D01*
X003908Y000348D01*
X003864Y000391D01*
X003864Y000565D01*
X003908Y000608D01*
X004038Y000608D01*
X003743Y000478D02*
X003743Y000391D01*
X003700Y000348D01*
X003613Y000348D01*
X003570Y000391D01*
X003570Y000435D01*
X003613Y000478D01*
X003743Y000478D01*
X003656Y000565D01*
X003570Y000608D01*
X003448Y000522D02*
X003318Y000522D01*
X003275Y000478D01*
X003275Y000391D01*
X003318Y000348D01*
X003448Y000348D01*
X003448Y000261D02*
X003448Y000522D01*
X003069Y000608D02*
X003069Y000348D01*
X002939Y000348D01*
X002896Y000391D01*
X002896Y000565D01*
X002939Y000608D01*
X003069Y000608D01*
X002775Y000565D02*
X002731Y000608D01*
X002645Y000608D01*
X002601Y000565D01*
X002601Y000522D01*
X002645Y000478D01*
X002601Y000435D01*
X002601Y000391D01*
X002645Y000348D01*
X002731Y000348D01*
X002775Y000391D01*
X002688Y000478D02*
X002645Y000478D01*
X002480Y000522D02*
X002350Y000522D01*
X002306Y000478D01*
X002306Y000391D01*
X002350Y000348D01*
X002480Y000348D01*
X002480Y000261D02*
X002480Y000522D01*
X001961Y000595D02*
X001787Y000595D01*
X001874Y000595D02*
X001874Y000335D01*
X001666Y000335D02*
X001492Y000595D01*
X001666Y000595D02*
X001492Y000335D01*
X001098Y000373D02*
X001054Y000330D01*
X000968Y000330D01*
X000924Y000373D01*
X000924Y000417D01*
X000968Y000460D01*
X001011Y000460D01*
X000968Y000460D02*
X000924Y000503D01*
X000924Y000547D01*
X000968Y000590D01*
X001054Y000590D01*
X001098Y000547D01*
X000803Y000590D02*
X000803Y000417D01*
X000716Y000330D01*
X000629Y000417D01*
X000629Y000590D01*
X000508Y000547D02*
X000465Y000590D01*
X000378Y000590D01*
X000335Y000547D01*
X000335Y000503D01*
X000378Y000460D01*
X000335Y000417D01*
X000335Y000373D01*
X000378Y000330D01*
X000465Y000330D01*
X000508Y000373D01*
X000422Y000460D02*
X000378Y000460D01*
X000341Y002435D02*
X000298Y002478D01*
X000298Y002652D01*
X000341Y002695D01*
X000471Y002695D01*
X000471Y002435D01*
X000341Y002435D01*
X000592Y002435D02*
X000592Y002695D01*
X000766Y002695D02*
X000592Y002435D01*
X000766Y002435D02*
X000766Y002695D01*
X000887Y002652D02*
X000931Y002695D01*
X001017Y002695D01*
X001061Y002652D01*
X001061Y002478D01*
X001017Y002435D01*
X000931Y002435D01*
X000887Y002478D01*
X000887Y002565D01*
X000974Y002565D01*
X001492Y002695D02*
X001666Y002435D01*
X001787Y002435D02*
X001874Y002521D01*
X001831Y002521D02*
X001787Y002565D01*
X001787Y002652D01*
X001831Y002695D01*
X001961Y002695D01*
X001961Y002435D01*
X001961Y002521D02*
X001831Y002521D01*
X001666Y002695D02*
X001492Y002435D01*
X002330Y002478D02*
X002373Y002435D01*
X002504Y002435D01*
X002504Y002348D02*
X002504Y002608D01*
X002373Y002608D01*
X002330Y002565D01*
X002330Y002478D01*
X002625Y002478D02*
X002668Y002435D01*
X002755Y002435D01*
X002798Y002478D01*
X002798Y002565D02*
X002712Y002608D01*
X002668Y002608D01*
X002625Y002565D01*
X002625Y002478D01*
X002798Y002565D02*
X002798Y002695D01*
X002625Y002695D01*
X002919Y002652D02*
X002919Y002478D01*
X002963Y002435D01*
X003093Y002435D01*
X003093Y002695D01*
X002963Y002695D01*
X002919Y002652D01*
X003427Y002652D02*
X003601Y002478D01*
X003601Y002435D01*
X003722Y002478D02*
X003722Y002652D01*
X003765Y002695D01*
X003895Y002695D01*
X003895Y002435D01*
X003765Y002435D01*
X003722Y002478D01*
X003601Y002695D02*
X003427Y002695D01*
X003427Y002652D01*
X004199Y002565D02*
X004199Y002478D01*
X004242Y002435D01*
X004372Y002435D01*
X004372Y002348D02*
X004372Y002608D01*
X004242Y002608D01*
X004199Y002565D01*
X004493Y002565D02*
X004623Y002565D01*
X004667Y002608D01*
X004667Y002652D01*
X004623Y002695D01*
X004537Y002695D01*
X004493Y002652D01*
X004493Y002478D01*
X004537Y002435D01*
X004623Y002435D01*
X004667Y002478D01*
X004788Y002478D02*
X004788Y002652D01*
X004831Y002695D01*
X004961Y002695D01*
X004961Y002435D01*
X004831Y002435D01*
X004788Y002478D01*
X005109Y002478D02*
X005153Y002435D01*
X005283Y002435D01*
X005283Y002348D02*
X005283Y002608D01*
X005153Y002608D01*
X005109Y002565D01*
X005109Y002478D01*
X005404Y002435D02*
X005578Y002435D01*
X005491Y002435D02*
X005491Y002695D01*
X005578Y002608D01*
X005699Y002435D02*
X005872Y002435D01*
X005786Y002435D02*
X005786Y002695D01*
X005872Y002608D01*
X005993Y002652D02*
X005993Y002478D01*
X006037Y002435D01*
X006167Y002435D01*
X006167Y002695D01*
X006037Y002695D01*
X005993Y002652D01*
X006419Y002695D02*
X006506Y002652D01*
X006593Y002565D01*
X006463Y002565D01*
X006419Y002521D01*
X006419Y002478D01*
X006463Y002435D01*
X006549Y002435D01*
X006593Y002478D01*
X006593Y002565D01*
X006714Y002565D02*
X006887Y002565D01*
X006887Y002608D02*
X006801Y002695D01*
X006714Y002608D01*
X006714Y002435D01*
X006887Y002435D02*
X006887Y002608D01*
X009063Y012019D02*
X009020Y012063D01*
X009063Y012019D02*
X009150Y012019D01*
X009193Y012063D01*
X009193Y012236D01*
X009150Y012280D01*
X009063Y012280D01*
X009020Y012236D01*
X009314Y012236D02*
X009314Y012063D01*
X009358Y012019D01*
X009444Y012019D01*
X009488Y012063D01*
X009488Y012236D01*
X009444Y012280D01*
X009358Y012280D01*
X009314Y012236D01*
X009609Y012236D02*
X009652Y012280D01*
X009739Y012280D01*
X009782Y012236D01*
X009782Y012193D01*
X009739Y012149D01*
X009652Y012149D01*
X009609Y012106D01*
X009609Y012063D01*
X009652Y012019D01*
X009739Y012019D01*
X009782Y012063D01*
X009904Y012063D02*
X009947Y012019D01*
X010034Y012019D01*
X010077Y012063D01*
X010034Y012149D02*
X009947Y012149D01*
X009904Y012106D01*
X009904Y012063D01*
X009904Y012236D02*
X009947Y012280D01*
X010034Y012280D01*
X010077Y012236D01*
X010077Y012193D01*
X010034Y012149D01*
X010198Y012149D02*
X010372Y012149D01*
X010372Y012193D02*
X010285Y012280D01*
X010198Y012193D01*
X010198Y012019D01*
X010372Y012019D02*
X010372Y012193D01*
X010372Y012569D02*
X010372Y012830D01*
X010242Y012830D01*
X010198Y012786D01*
X010198Y012699D01*
X010242Y012656D01*
X010372Y012656D01*
X010077Y012613D02*
X010034Y012569D01*
X009947Y012569D01*
X009904Y012613D01*
X009904Y012786D01*
X009947Y012830D01*
X010034Y012830D01*
X010077Y012786D01*
X010077Y012613D01*
X009782Y012569D02*
X009696Y012656D01*
X009609Y012569D01*
X009609Y012830D01*
X009488Y012830D02*
X009488Y012569D01*
X009314Y012569D01*
X009193Y012569D02*
X009193Y012830D01*
X009063Y012830D01*
X009020Y012786D01*
X009020Y012699D01*
X009063Y012656D01*
X009193Y012656D01*
X009106Y012656D02*
X009020Y012569D01*
X009314Y012830D02*
X009488Y012830D01*
X009488Y012699D02*
X009401Y012699D01*
X009782Y012830D02*
X009782Y012569D01*
X009739Y013119D02*
X009652Y013119D01*
X009609Y013163D01*
X009488Y013206D02*
X009488Y013380D01*
X009609Y013336D02*
X009652Y013380D01*
X009739Y013380D01*
X009782Y013336D01*
X009782Y013163D01*
X009739Y013119D01*
X009904Y013119D02*
X010077Y013119D01*
X010077Y013380D01*
X009904Y013380D01*
X009990Y013249D02*
X010077Y013249D01*
X010198Y013249D02*
X010198Y013336D01*
X010242Y013380D01*
X010372Y013380D01*
X010372Y013119D01*
X010372Y013206D02*
X010242Y013206D01*
X010198Y013249D01*
X010285Y013206D02*
X010198Y013119D01*
X009488Y013206D02*
X009401Y013119D01*
X009314Y013206D01*
X009314Y013380D01*
D12*
X002282Y008680D02*
X001962Y008680D01*
X001882Y008760D01*
X001962Y008943D02*
X001882Y009023D01*
X001882Y009264D01*
X002122Y009264D01*
X002202Y009184D01*
X002202Y009023D01*
X002202Y008760D02*
X002202Y008600D01*
X002202Y008404D02*
X002202Y008164D01*
X002122Y008084D01*
X002042Y008164D01*
X002042Y008324D01*
X001962Y008404D01*
X001882Y008324D01*
X001882Y008084D01*
X002042Y007889D02*
X002042Y007568D01*
X001962Y007568D02*
X002122Y007568D01*
X002202Y007648D01*
X002202Y007809D01*
X002122Y007889D01*
X002042Y007889D01*
X001882Y007809D02*
X001882Y007648D01*
X001962Y007568D01*
X001962Y007373D02*
X002042Y007293D01*
X002042Y007133D01*
X002122Y007053D01*
X002202Y007133D01*
X002202Y007373D01*
X001962Y007373D02*
X001882Y007293D01*
X001882Y007053D01*
X001882Y006857D02*
X002122Y006857D01*
X002202Y006777D01*
X002202Y006537D01*
X001882Y006537D01*
X002042Y006342D02*
X002042Y006021D01*
X001962Y006021D02*
X002122Y006021D01*
X002202Y006101D01*
X002202Y006262D01*
X002122Y006342D01*
X002042Y006342D01*
X001882Y006262D02*
X001882Y006101D01*
X001962Y006021D01*
X001962Y005826D02*
X002042Y005746D01*
X002042Y005586D01*
X002122Y005506D01*
X002202Y005586D01*
X002202Y005826D01*
X001962Y005826D02*
X001882Y005746D01*
X001882Y005506D01*
X001882Y005328D02*
X001882Y005248D01*
X001962Y005248D01*
X001962Y005328D01*
X001882Y005328D01*
X001962Y005053D02*
X001882Y004972D01*
X001962Y004892D01*
X001882Y004812D01*
X001962Y004732D01*
X002202Y004732D01*
X002202Y004537D02*
X001962Y004537D01*
X001882Y004457D01*
X001962Y004377D01*
X001882Y004297D01*
X001962Y004217D01*
X002202Y004217D01*
X002202Y004021D02*
X001962Y004021D01*
X001882Y003941D01*
X001962Y003861D01*
X001882Y003781D01*
X001962Y003701D01*
X002202Y003701D01*
X002202Y005053D02*
X001962Y005053D01*
X000862Y005672D02*
X000782Y005592D01*
X000702Y005592D01*
X000622Y005672D01*
X000622Y005832D01*
X000542Y005912D01*
X000462Y005912D01*
X000382Y005832D01*
X000382Y005672D01*
X000462Y005592D01*
X000542Y005396D02*
X000542Y005076D01*
X000622Y005076D02*
X000702Y005156D01*
X000702Y005316D01*
X000622Y005396D01*
X000542Y005396D01*
X000382Y005316D02*
X000382Y005156D01*
X000462Y005076D01*
X000622Y005076D01*
X000702Y004881D02*
X000702Y004640D01*
X000622Y004560D01*
X000542Y004640D01*
X000542Y004801D01*
X000462Y004881D01*
X000382Y004801D01*
X000382Y004560D01*
X000382Y004365D02*
X000622Y004365D01*
X000702Y004285D01*
X000702Y004045D01*
X000382Y004045D01*
X000542Y003849D02*
X000542Y003529D01*
X000622Y003529D02*
X000702Y003609D01*
X000702Y003769D01*
X000622Y003849D01*
X000542Y003849D01*
X000382Y003769D02*
X000382Y003609D01*
X000462Y003529D01*
X000622Y003529D01*
X000542Y003334D02*
X000462Y003334D01*
X000382Y003254D01*
X000382Y003094D01*
X000462Y003013D01*
X000622Y003094D02*
X000622Y003254D01*
X000542Y003334D01*
X000782Y003334D02*
X000862Y003254D01*
X000862Y003094D01*
X000782Y003013D01*
X000702Y003013D01*
X000622Y003094D01*
X000862Y005672D02*
X000862Y005832D01*
X000782Y005912D01*
X000702Y006107D02*
X000702Y006267D01*
X000782Y006187D02*
X000462Y006187D01*
X000382Y006267D01*
X000462Y006451D02*
X000542Y006531D01*
X000542Y006771D01*
X000622Y006771D02*
X000382Y006771D01*
X000382Y006531D01*
X000462Y006451D01*
X000702Y006531D02*
X000702Y006691D01*
X000622Y006771D01*
X000622Y006967D02*
X000462Y006967D01*
X000382Y007047D01*
X000382Y007287D01*
X000302Y007287D02*
X000702Y007287D01*
X000702Y007047D01*
X000622Y006967D01*
X000222Y007127D02*
X000222Y007207D01*
X000302Y007287D01*
X000462Y007482D02*
X000382Y007562D01*
X000382Y007723D01*
X000542Y007803D02*
X000542Y007482D01*
X000622Y007482D02*
X000702Y007562D01*
X000702Y007723D01*
X000622Y007803D01*
X000542Y007803D01*
X000462Y007482D02*
X000622Y007482D01*
X000382Y008514D02*
X000862Y008514D01*
X000702Y008674D01*
X000862Y008834D01*
X000382Y008834D01*
X000382Y009029D02*
X000382Y009189D01*
X000382Y009109D02*
X000702Y009109D01*
X000702Y009029D01*
X000862Y009109D02*
X000942Y009109D01*
X000702Y009373D02*
X000702Y009613D01*
X000622Y009693D01*
X000382Y009693D01*
X000382Y009889D02*
X000382Y010049D01*
X000382Y009969D02*
X000702Y009969D01*
X000702Y009889D01*
X000862Y009969D02*
X000942Y009969D01*
X000862Y010232D02*
X000862Y010473D01*
X000782Y010553D01*
X000702Y010553D01*
X000622Y010473D01*
X000622Y010232D01*
X000382Y010232D02*
X000862Y010232D01*
X000622Y010473D02*
X000542Y010553D01*
X000462Y010553D01*
X000382Y010473D01*
X000382Y010232D01*
X000462Y010748D02*
X000382Y010828D01*
X000382Y010988D01*
X000462Y010748D02*
X000622Y010748D01*
X000702Y010828D01*
X000702Y010988D01*
X000622Y011068D01*
X000542Y011068D01*
X000542Y010748D01*
X000542Y011264D02*
X000542Y011584D01*
X000622Y011584D01*
X000702Y011504D01*
X000702Y011344D01*
X000622Y011264D01*
X000462Y011264D01*
X000382Y011344D01*
X000382Y011504D01*
X001802Y009779D02*
X001722Y009699D01*
X001722Y009619D01*
X001802Y009779D02*
X002202Y009779D01*
X002202Y009539D01*
X002122Y009459D01*
X001962Y009459D01*
X001882Y009539D01*
X001882Y009779D01*
X001962Y009975D02*
X002122Y009975D01*
X002202Y010055D01*
X002202Y010215D01*
X002122Y010295D01*
X002042Y010295D01*
X002042Y009975D01*
X001962Y009975D02*
X001882Y010055D01*
X001882Y010215D01*
X001882Y010490D02*
X001882Y010570D01*
X001962Y010570D01*
X001962Y010490D01*
X001882Y010490D01*
X001962Y010748D02*
X001882Y010828D01*
X001882Y010988D01*
X002042Y011068D02*
X002042Y010748D01*
X001962Y010748D02*
X002122Y010748D01*
X002202Y010828D01*
X002202Y010988D01*
X002122Y011068D01*
X002042Y011068D01*
X001962Y011264D02*
X001882Y011344D01*
X001882Y011584D01*
X002202Y011584D01*
X002202Y011264D02*
X001962Y011264D01*
X000702Y009373D02*
X000382Y009373D01*
X001962Y008943D02*
X002042Y009023D01*
X002042Y009264D01*
D13*
X002520Y012689D02*
X002787Y012689D01*
X002653Y012689D02*
X002653Y013090D01*
X002787Y012956D01*
X002980Y013023D02*
X002980Y012756D01*
X003047Y012689D01*
X003247Y012689D01*
X003247Y013090D01*
X003047Y013090D01*
X002980Y013023D01*
X003441Y012956D02*
X003574Y012689D01*
X003708Y012956D01*
X003901Y012890D02*
X003901Y012823D01*
X004168Y012823D01*
X004168Y012756D02*
X004168Y012890D01*
X004101Y012956D01*
X003968Y012956D01*
X003901Y012890D01*
X003968Y012689D02*
X004101Y012689D01*
X004168Y012756D01*
X004351Y012956D02*
X004418Y012956D01*
X004552Y012823D01*
X004552Y012956D02*
X004552Y012689D01*
D14*
X001577Y003135D02*
X001487Y003045D01*
X001396Y003135D01*
X001396Y002864D01*
X001282Y002864D02*
X001102Y002864D01*
X001192Y002999D02*
X001282Y002999D01*
X001282Y002864D02*
X001282Y003135D01*
X001102Y003135D01*
X001577Y003135D02*
X001577Y002864D01*
M02*
