G75*
G70*
%OFA0B0*%
%FSLAX24Y24*%
%IPPOS*%
%LPD*%
%AMOC8*
5,1,8,0,0,1.08239X$1,22.5*
%
%ADD10C,0.0555*%
%ADD11R,0.1000X0.1500*%
%ADD12OC8,0.0640*%
%ADD13C,0.0436*%
%ADD14C,0.0080*%
%ADD15C,0.0100*%
D10*
X001332Y003977D03*
X001332Y004765D03*
X001332Y005552D03*
X001332Y006339D03*
X001332Y007127D03*
X001332Y007914D03*
X001332Y008702D03*
X001332Y009489D03*
X001332Y010276D03*
X001332Y011064D03*
X009993Y011064D03*
X009993Y010276D03*
X009993Y009489D03*
X009993Y008702D03*
X009993Y007914D03*
X009993Y007127D03*
X009993Y006339D03*
X009993Y005552D03*
X009993Y004765D03*
X009993Y003977D03*
D11*
G36*
X005624Y003902D02*
X005450Y002918D01*
X003974Y003178D01*
X004148Y004162D01*
X005624Y003902D01*
G37*
G36*
X006916Y011229D02*
X006742Y010245D01*
X005266Y010505D01*
X005440Y011489D01*
X006916Y011229D01*
G37*
D12*
X004702Y008039D03*
X003702Y008039D03*
X003702Y009039D03*
X002702Y009039D03*
X002702Y008039D03*
X006702Y003039D03*
X006702Y002039D03*
X006702Y001039D03*
X007702Y001039D03*
X007702Y002039D03*
X008702Y002039D03*
X008702Y001039D03*
X009702Y001039D03*
X009702Y002039D03*
X009702Y003039D03*
X007702Y004039D03*
X005702Y002039D03*
X005702Y001039D03*
X004702Y001039D03*
X004702Y002039D03*
X003702Y002039D03*
X003702Y001039D03*
X002702Y001039D03*
X002702Y002039D03*
X001702Y002039D03*
X001702Y001039D03*
X000702Y001039D03*
X000702Y002039D03*
D13*
X000552Y003489D03*
X002352Y005189D03*
X002252Y006539D03*
X004352Y004989D03*
X004952Y005089D03*
X005102Y005639D03*
X005452Y006039D03*
X005502Y005289D03*
X004802Y006489D03*
X006302Y008239D03*
X006502Y007039D03*
X007252Y005989D03*
X007602Y007239D03*
X007602Y007839D03*
X009252Y005389D03*
X009352Y004839D03*
X008602Y004389D03*
X009152Y003389D03*
X008702Y003039D03*
X006852Y003939D03*
X003252Y003289D03*
X007602Y010389D03*
X007002Y011539D03*
X004852Y010839D03*
X002402Y011439D03*
D14*
X000322Y000811D02*
X000322Y000359D01*
X010515Y000359D01*
X010515Y002426D01*
X010468Y002379D01*
X009970Y002379D01*
X010132Y002217D01*
X010132Y001861D01*
X009880Y001609D01*
X009524Y001609D01*
X009272Y001861D01*
X009272Y002217D01*
X009434Y002379D01*
X008970Y002379D01*
X009132Y002217D01*
X009132Y001861D01*
X008880Y001609D01*
X008524Y001609D01*
X008272Y001861D01*
X008272Y002217D01*
X008434Y002379D01*
X007970Y002379D01*
X008132Y002217D01*
X008132Y001861D01*
X007970Y001699D01*
X008268Y001699D01*
X008362Y001606D01*
X008511Y001457D01*
X008524Y001469D01*
X008880Y001469D01*
X009132Y001217D01*
X009132Y000861D01*
X008880Y000609D01*
X008524Y000609D01*
X008272Y000861D01*
X008272Y001217D01*
X008284Y001230D01*
X008135Y001379D01*
X007970Y001379D01*
X008132Y001217D01*
X008132Y000861D01*
X007880Y000609D01*
X007524Y000609D01*
X007272Y000861D01*
X007272Y001217D01*
X007434Y001380D01*
X007135Y001679D01*
X007043Y001772D01*
X006880Y001609D01*
X006524Y001609D01*
X006362Y001771D01*
X006362Y001606D01*
X006511Y001457D01*
X006524Y001469D01*
X006880Y001469D01*
X007132Y001217D01*
X007132Y000861D01*
X006880Y000609D01*
X006524Y000609D01*
X006272Y000861D01*
X006272Y001217D01*
X006284Y001230D01*
X006135Y001379D01*
X006135Y001379D01*
X006042Y001473D01*
X006042Y001771D01*
X005880Y001609D01*
X005524Y001609D01*
X005272Y001861D01*
X005272Y002217D01*
X005524Y002469D01*
X005845Y002469D01*
X005742Y002573D01*
X005742Y003760D01*
X005682Y003424D01*
X004845Y003572D01*
X004767Y003586D01*
X004871Y004177D01*
X004153Y004303D01*
X004117Y004300D01*
X004082Y004288D01*
X004052Y004266D01*
X004028Y004238D01*
X004013Y004205D01*
X003929Y003734D01*
X004767Y003586D01*
X004753Y003507D01*
X004831Y003493D01*
X004727Y002902D01*
X005445Y002776D01*
X005481Y002779D01*
X005516Y002792D01*
X005546Y002813D01*
X005570Y002841D01*
X005585Y002875D01*
X005669Y003346D01*
X004831Y003493D01*
X004845Y003572D01*
X004950Y004163D01*
X005667Y004036D01*
X005700Y004021D01*
X005729Y003997D01*
X005742Y003978D01*
X005742Y004373D01*
X005342Y004773D01*
X005342Y005001D01*
X005316Y005011D01*
X005223Y005104D01*
X005174Y005224D01*
X005174Y005314D01*
X005167Y005311D01*
X005036Y005311D01*
X004916Y005361D01*
X004823Y005454D01*
X004774Y005574D01*
X004774Y005685D01*
X004512Y005423D01*
X004512Y005278D01*
X004538Y005268D01*
X004630Y005175D01*
X004680Y005055D01*
X004680Y004924D01*
X004630Y004804D01*
X004538Y004711D01*
X004417Y004661D01*
X004286Y004661D01*
X004261Y004672D01*
X003412Y003823D01*
X003412Y003578D01*
X003438Y003568D01*
X003530Y003475D01*
X003580Y003355D01*
X003580Y003224D01*
X003530Y003104D01*
X003438Y003011D01*
X003317Y002961D01*
X003186Y002961D01*
X003066Y003011D01*
X002973Y003104D01*
X002924Y003224D01*
X002924Y003355D01*
X002973Y003475D01*
X003066Y003568D01*
X003092Y003578D01*
X003092Y003956D01*
X004034Y004898D01*
X004024Y004924D01*
X004024Y005029D01*
X002641Y005029D01*
X002630Y005004D01*
X002538Y004911D01*
X002417Y004861D01*
X002286Y004861D01*
X002166Y004911D01*
X002073Y005004D01*
X002024Y005124D01*
X002024Y005255D01*
X002073Y005375D01*
X002166Y005468D01*
X002286Y005517D01*
X002417Y005517D01*
X002538Y005468D01*
X002630Y005375D01*
X002641Y005349D01*
X004192Y005349D01*
X004192Y006479D01*
X003635Y006479D01*
X003542Y006573D01*
X003542Y007609D01*
X003524Y007609D01*
X003272Y007861D01*
X003272Y008217D01*
X003284Y008230D01*
X003135Y008379D01*
X003042Y008473D01*
X003042Y008771D01*
X002880Y008609D01*
X002524Y008609D01*
X002272Y008861D01*
X002272Y009217D01*
X002284Y009230D01*
X001559Y009956D01*
X001551Y009948D01*
X001409Y009889D01*
X001254Y009889D01*
X001165Y009926D01*
X001062Y009823D01*
X001062Y009767D01*
X001112Y009817D01*
X001254Y009876D01*
X001409Y009876D01*
X001551Y009817D01*
X001660Y009708D01*
X001719Y009566D01*
X001719Y009412D01*
X001671Y009296D01*
X002511Y008457D01*
X002524Y008469D01*
X002880Y008469D01*
X003132Y008217D01*
X003132Y007861D01*
X002880Y007609D01*
X002524Y007609D01*
X002272Y007861D01*
X002272Y008217D01*
X002284Y008230D01*
X001707Y008808D01*
X001719Y008779D01*
X001719Y008624D01*
X001660Y008482D01*
X001551Y008373D01*
X001409Y008314D01*
X001254Y008314D01*
X001112Y008373D01*
X001062Y008424D01*
X001062Y008192D01*
X001112Y008243D01*
X001254Y008302D01*
X001409Y008302D01*
X001551Y008243D01*
X001660Y008134D01*
X001719Y007991D01*
X001719Y007837D01*
X001660Y007695D01*
X001551Y007586D01*
X001409Y007527D01*
X001254Y007527D01*
X001112Y007586D01*
X001062Y007636D01*
X001062Y007405D01*
X001112Y007455D01*
X001254Y007514D01*
X001409Y007514D01*
X001551Y007455D01*
X001660Y007346D01*
X001719Y007204D01*
X001719Y007050D01*
X001660Y006907D01*
X001551Y006798D01*
X001409Y006739D01*
X001254Y006739D01*
X001112Y006798D01*
X001062Y006849D01*
X001062Y006617D01*
X001112Y006668D01*
X001254Y006727D01*
X001409Y006727D01*
X001551Y006668D01*
X001660Y006559D01*
X001719Y006416D01*
X001719Y006262D01*
X001698Y006212D01*
X001934Y006448D01*
X001924Y006474D01*
X001924Y006605D01*
X001973Y006725D01*
X002066Y006818D01*
X002186Y006867D01*
X002317Y006867D01*
X002438Y006818D01*
X002530Y006725D01*
X002580Y006605D01*
X002580Y006474D01*
X002530Y006354D01*
X002438Y006261D01*
X002317Y006211D01*
X002186Y006211D01*
X002161Y006222D01*
X001962Y006023D01*
X001962Y003773D01*
X001868Y003679D01*
X001462Y003273D01*
X001462Y003206D01*
X002361Y002307D01*
X002524Y002469D01*
X002880Y002469D01*
X003132Y002217D01*
X003132Y001861D01*
X002880Y001609D01*
X002524Y001609D01*
X002362Y001771D01*
X002362Y001606D01*
X002511Y001457D01*
X002524Y001469D01*
X002880Y001469D01*
X003132Y001217D01*
X003132Y000861D01*
X002880Y000609D01*
X002524Y000609D01*
X002272Y000861D01*
X002272Y001217D01*
X002284Y001230D01*
X002042Y001473D01*
X002042Y001771D01*
X001880Y001609D01*
X001524Y001609D01*
X001362Y001771D01*
X001362Y001606D01*
X001511Y001457D01*
X001524Y001469D01*
X001880Y001469D01*
X002132Y001217D01*
X002132Y000861D01*
X001880Y000609D01*
X001524Y000609D01*
X001272Y000861D01*
X001272Y001217D01*
X001284Y001230D01*
X001042Y001473D01*
X001042Y001729D01*
X000892Y001579D01*
X000742Y001579D01*
X000742Y001999D01*
X000662Y001999D01*
X000662Y001579D01*
X000511Y001579D01*
X000322Y001769D01*
X000322Y001267D01*
X000524Y001469D01*
X000880Y001469D01*
X001132Y001217D01*
X001132Y000861D01*
X000880Y000609D01*
X000524Y000609D01*
X000322Y000811D01*
X000322Y000789D02*
X000344Y000789D01*
X000322Y000710D02*
X000423Y000710D01*
X000501Y000632D02*
X000322Y000632D01*
X000322Y000553D02*
X010515Y000553D01*
X010515Y000475D02*
X000322Y000475D01*
X000322Y000396D02*
X010515Y000396D01*
X010515Y000632D02*
X009902Y000632D01*
X009880Y000609D02*
X010132Y000861D01*
X010132Y001217D01*
X009880Y001469D01*
X009524Y001469D01*
X009272Y001217D01*
X009272Y000861D01*
X009524Y000609D01*
X009880Y000609D01*
X009981Y000710D02*
X010515Y000710D01*
X010515Y000789D02*
X010059Y000789D01*
X010132Y000867D02*
X010515Y000867D01*
X010515Y000946D02*
X010132Y000946D01*
X010132Y001024D02*
X010515Y001024D01*
X010515Y001103D02*
X010132Y001103D01*
X010132Y001181D02*
X010515Y001181D01*
X010515Y001260D02*
X010089Y001260D01*
X010011Y001338D02*
X010515Y001338D01*
X010515Y001417D02*
X009932Y001417D01*
X009923Y001652D02*
X010515Y001652D01*
X010515Y001574D02*
X008393Y001574D01*
X008315Y001652D02*
X008481Y001652D01*
X008402Y001731D02*
X008001Y001731D01*
X008080Y001809D02*
X008324Y001809D01*
X008272Y001888D02*
X008132Y001888D01*
X008132Y001966D02*
X008272Y001966D01*
X008272Y002045D02*
X008132Y002045D01*
X008132Y002123D02*
X008272Y002123D01*
X008272Y002202D02*
X008132Y002202D01*
X008069Y002280D02*
X008335Y002280D01*
X008413Y002359D02*
X007990Y002359D01*
X008472Y001495D02*
X010515Y001495D01*
X010515Y001731D02*
X010001Y001731D01*
X010080Y001809D02*
X010515Y001809D01*
X010515Y001888D02*
X010132Y001888D01*
X010132Y001966D02*
X010515Y001966D01*
X010515Y002045D02*
X010132Y002045D01*
X010132Y002123D02*
X010515Y002123D01*
X010515Y002202D02*
X010132Y002202D01*
X010069Y002280D02*
X010515Y002280D01*
X010515Y002359D02*
X009990Y002359D01*
X009413Y002359D02*
X008990Y002359D01*
X009069Y002280D02*
X009335Y002280D01*
X009272Y002202D02*
X009132Y002202D01*
X009132Y002123D02*
X009272Y002123D01*
X009272Y002045D02*
X009132Y002045D01*
X009132Y001966D02*
X009272Y001966D01*
X009272Y001888D02*
X009132Y001888D01*
X009080Y001809D02*
X009324Y001809D01*
X009402Y001731D02*
X009001Y001731D01*
X008923Y001652D02*
X009481Y001652D01*
X009471Y001417D02*
X008932Y001417D01*
X009011Y001338D02*
X009393Y001338D01*
X009314Y001260D02*
X009089Y001260D01*
X009132Y001181D02*
X009272Y001181D01*
X009272Y001103D02*
X009132Y001103D01*
X009132Y001024D02*
X009272Y001024D01*
X009272Y000946D02*
X009132Y000946D01*
X009132Y000867D02*
X009272Y000867D01*
X009344Y000789D02*
X009059Y000789D01*
X008981Y000710D02*
X009423Y000710D01*
X009501Y000632D02*
X008902Y000632D01*
X008501Y000632D02*
X007902Y000632D01*
X007981Y000710D02*
X008423Y000710D01*
X008344Y000789D02*
X008059Y000789D01*
X008132Y000867D02*
X008272Y000867D01*
X008272Y000946D02*
X008132Y000946D01*
X008132Y001024D02*
X008272Y001024D01*
X008272Y001103D02*
X008132Y001103D01*
X008132Y001181D02*
X008272Y001181D01*
X008255Y001260D02*
X008089Y001260D01*
X008011Y001338D02*
X008176Y001338D01*
X007501Y000632D02*
X006902Y000632D01*
X006981Y000710D02*
X007423Y000710D01*
X007344Y000789D02*
X007059Y000789D01*
X007132Y000867D02*
X007272Y000867D01*
X007272Y000946D02*
X007132Y000946D01*
X007132Y001024D02*
X007272Y001024D01*
X007272Y001103D02*
X007132Y001103D01*
X007132Y001181D02*
X007272Y001181D01*
X007314Y001260D02*
X007089Y001260D01*
X007011Y001338D02*
X007393Y001338D01*
X007398Y001417D02*
X006932Y001417D01*
X006923Y001652D02*
X007162Y001652D01*
X007241Y001574D02*
X006393Y001574D01*
X006362Y001652D02*
X006481Y001652D01*
X006402Y001731D02*
X006362Y001731D01*
X006472Y001495D02*
X007319Y001495D01*
X007084Y001731D02*
X007001Y001731D01*
X006255Y001260D02*
X006089Y001260D01*
X006132Y001217D02*
X005880Y001469D01*
X005524Y001469D01*
X005272Y001217D01*
X005272Y000861D01*
X005524Y000609D01*
X005880Y000609D01*
X006132Y000861D01*
X006132Y001217D01*
X006132Y001181D02*
X006272Y001181D01*
X006272Y001103D02*
X006132Y001103D01*
X006132Y001024D02*
X006272Y001024D01*
X006272Y000946D02*
X006132Y000946D01*
X006132Y000867D02*
X006272Y000867D01*
X006344Y000789D02*
X006059Y000789D01*
X005981Y000710D02*
X006423Y000710D01*
X006501Y000632D02*
X005902Y000632D01*
X005501Y000632D02*
X004902Y000632D01*
X004880Y000609D02*
X005132Y000861D01*
X005132Y001217D01*
X004880Y001469D01*
X004524Y001469D01*
X004272Y001217D01*
X004272Y000861D01*
X004524Y000609D01*
X004880Y000609D01*
X004981Y000710D02*
X005423Y000710D01*
X005344Y000789D02*
X005059Y000789D01*
X005132Y000867D02*
X005272Y000867D01*
X005272Y000946D02*
X005132Y000946D01*
X005132Y001024D02*
X005272Y001024D01*
X005272Y001103D02*
X005132Y001103D01*
X005132Y001181D02*
X005272Y001181D01*
X005314Y001260D02*
X005089Y001260D01*
X005011Y001338D02*
X005393Y001338D01*
X005471Y001417D02*
X004932Y001417D01*
X004880Y001609D02*
X005132Y001861D01*
X005132Y002217D01*
X004880Y002469D01*
X004524Y002469D01*
X004272Y002217D01*
X004272Y001861D01*
X004524Y001609D01*
X004880Y001609D01*
X004923Y001652D02*
X005481Y001652D01*
X005402Y001731D02*
X005001Y001731D01*
X005080Y001809D02*
X005324Y001809D01*
X005272Y001888D02*
X005132Y001888D01*
X005132Y001966D02*
X005272Y001966D01*
X005272Y002045D02*
X005132Y002045D01*
X005132Y002123D02*
X005272Y002123D01*
X005272Y002202D02*
X005132Y002202D01*
X005069Y002280D02*
X005335Y002280D01*
X005413Y002359D02*
X004990Y002359D01*
X004912Y002437D02*
X005492Y002437D01*
X005742Y002594D02*
X002073Y002594D01*
X002151Y002516D02*
X005799Y002516D01*
X005742Y002673D02*
X001994Y002673D01*
X001916Y002751D02*
X005742Y002751D01*
X005742Y002830D02*
X005560Y002830D01*
X005591Y002908D02*
X005742Y002908D01*
X005742Y002987D02*
X005605Y002987D01*
X005619Y003065D02*
X005742Y003065D01*
X005742Y003144D02*
X005633Y003144D01*
X005647Y003222D02*
X005742Y003222D01*
X005742Y003301D02*
X005661Y003301D01*
X005742Y003379D02*
X005478Y003379D01*
X005493Y003458D02*
X005032Y003458D01*
X005048Y003536D02*
X004839Y003536D01*
X004825Y003458D02*
X004744Y003458D01*
X004753Y003507D02*
X004648Y002916D01*
X003931Y003043D01*
X003898Y003058D01*
X003869Y003082D01*
X003848Y003112D01*
X003836Y003147D01*
X003832Y003184D01*
X003916Y003655D01*
X004753Y003507D01*
X004758Y003536D02*
X004587Y003536D01*
X004603Y003615D02*
X004142Y003615D01*
X004157Y003693D02*
X003412Y003693D01*
X003412Y003615D02*
X003909Y003615D01*
X003895Y003536D02*
X003469Y003536D01*
X003537Y003458D02*
X003881Y003458D01*
X003867Y003379D02*
X003570Y003379D01*
X003580Y003301D02*
X003853Y003301D01*
X003839Y003222D02*
X003579Y003222D01*
X003547Y003144D02*
X003837Y003144D01*
X003889Y003065D02*
X003492Y003065D01*
X003379Y002987D02*
X004248Y002987D01*
X004661Y002987D02*
X004742Y002987D01*
X004756Y003065D02*
X004675Y003065D01*
X004689Y003144D02*
X004770Y003144D01*
X004784Y003222D02*
X004702Y003222D01*
X004716Y003301D02*
X004798Y003301D01*
X004811Y003379D02*
X004730Y003379D01*
X004772Y003615D02*
X004853Y003615D01*
X004867Y003693D02*
X004785Y003693D01*
X004799Y003772D02*
X004881Y003772D01*
X004894Y003850D02*
X004813Y003850D01*
X004827Y003929D02*
X004908Y003929D01*
X004922Y004007D02*
X004841Y004007D01*
X004855Y004086D02*
X004936Y004086D01*
X004869Y004164D02*
X005742Y004164D01*
X005742Y004086D02*
X005387Y004086D01*
X005636Y004478D02*
X004067Y004478D01*
X003988Y004400D02*
X005715Y004400D01*
X005742Y004321D02*
X003910Y004321D01*
X003831Y004243D02*
X004032Y004243D01*
X004005Y004164D02*
X003753Y004164D01*
X003674Y004086D02*
X003992Y004086D01*
X003978Y004007D02*
X003596Y004007D01*
X003517Y003929D02*
X003964Y003929D01*
X003950Y003850D02*
X003439Y003850D01*
X003412Y003772D02*
X003936Y003772D01*
X003457Y004321D02*
X001962Y004321D01*
X001962Y004243D02*
X003379Y004243D01*
X003300Y004164D02*
X001962Y004164D01*
X001962Y004086D02*
X003222Y004086D01*
X003143Y004007D02*
X001962Y004007D01*
X001962Y003929D02*
X003092Y003929D01*
X003092Y003850D02*
X001962Y003850D01*
X001960Y003772D02*
X003092Y003772D01*
X003092Y003693D02*
X001882Y003693D01*
X001803Y003615D02*
X003092Y003615D01*
X003035Y003536D02*
X001725Y003536D01*
X001646Y003458D02*
X002966Y003458D01*
X002934Y003379D02*
X001568Y003379D01*
X001489Y003301D02*
X002924Y003301D01*
X002924Y003222D02*
X001462Y003222D01*
X001523Y003144D02*
X002957Y003144D01*
X003012Y003065D02*
X001602Y003065D01*
X001680Y002987D02*
X003125Y002987D01*
X002912Y002437D02*
X003492Y002437D01*
X003524Y002469D02*
X003272Y002217D01*
X003272Y001861D01*
X003524Y001609D01*
X003880Y001609D01*
X004132Y001861D01*
X004132Y002217D01*
X003880Y002469D01*
X003524Y002469D01*
X003413Y002359D02*
X002990Y002359D01*
X003069Y002280D02*
X003335Y002280D01*
X003272Y002202D02*
X003132Y002202D01*
X003132Y002123D02*
X003272Y002123D01*
X003272Y002045D02*
X003132Y002045D01*
X003132Y001966D02*
X003272Y001966D01*
X003272Y001888D02*
X003132Y001888D01*
X003080Y001809D02*
X003324Y001809D01*
X003402Y001731D02*
X003001Y001731D01*
X002923Y001652D02*
X003481Y001652D01*
X003524Y001469D02*
X003272Y001217D01*
X003272Y000861D01*
X003524Y000609D01*
X003880Y000609D01*
X004132Y000861D01*
X004132Y001217D01*
X003880Y001469D01*
X003524Y001469D01*
X003471Y001417D02*
X002932Y001417D01*
X003011Y001338D02*
X003393Y001338D01*
X003314Y001260D02*
X003089Y001260D01*
X003132Y001181D02*
X003272Y001181D01*
X003272Y001103D02*
X003132Y001103D01*
X003132Y001024D02*
X003272Y001024D01*
X003272Y000946D02*
X003132Y000946D01*
X003132Y000867D02*
X003272Y000867D01*
X003344Y000789D02*
X003059Y000789D01*
X002981Y000710D02*
X003423Y000710D01*
X003501Y000632D02*
X002902Y000632D01*
X002501Y000632D02*
X001902Y000632D01*
X001981Y000710D02*
X002423Y000710D01*
X002344Y000789D02*
X002059Y000789D01*
X002132Y000867D02*
X002272Y000867D01*
X002272Y000946D02*
X002132Y000946D01*
X002132Y001024D02*
X002272Y001024D01*
X002272Y001103D02*
X002132Y001103D01*
X002132Y001181D02*
X002272Y001181D01*
X002255Y001260D02*
X002089Y001260D01*
X002011Y001338D02*
X002176Y001338D01*
X002098Y001417D02*
X001932Y001417D01*
X002042Y001495D02*
X001472Y001495D01*
X001393Y001574D02*
X002042Y001574D01*
X002042Y001652D02*
X001923Y001652D01*
X002001Y001731D02*
X002042Y001731D01*
X002362Y001731D02*
X002402Y001731D01*
X002362Y001652D02*
X002481Y001652D01*
X002393Y001574D02*
X006042Y001574D01*
X006042Y001652D02*
X005923Y001652D01*
X006001Y001731D02*
X006042Y001731D01*
X006042Y001495D02*
X002472Y001495D01*
X002413Y002359D02*
X002308Y002359D01*
X002230Y002437D02*
X002492Y002437D01*
X001837Y002830D02*
X005139Y002830D01*
X004728Y002908D02*
X001759Y002908D01*
X001194Y003458D02*
X001062Y003458D01*
X001062Y003536D02*
X001272Y003536D01*
X001293Y003561D02*
X001293Y003938D01*
X001370Y003938D01*
X001370Y003634D01*
X001142Y003406D01*
X001142Y003126D01*
X001062Y003206D01*
X001062Y003657D01*
X001113Y003620D01*
X001171Y003590D01*
X001234Y003570D01*
X001293Y003561D01*
X001293Y003615D02*
X001351Y003615D01*
X001370Y003693D02*
X001293Y003693D01*
X001293Y003772D02*
X001370Y003772D01*
X001370Y003850D02*
X001293Y003850D01*
X001293Y003929D02*
X001370Y003929D01*
X001123Y003615D02*
X001062Y003615D01*
X001062Y003379D02*
X001142Y003379D01*
X001142Y003301D02*
X001062Y003301D01*
X001062Y003222D02*
X001142Y003222D01*
X001142Y003144D02*
X001123Y003144D01*
X000906Y002908D02*
X000322Y002908D01*
X000322Y002830D02*
X000985Y002830D01*
X001042Y002773D02*
X001042Y002350D01*
X000892Y002499D01*
X000742Y002499D01*
X000742Y002079D01*
X000662Y002079D01*
X000662Y002499D01*
X000511Y002499D01*
X000322Y002310D01*
X000322Y003255D01*
X000366Y003211D01*
X000486Y003161D01*
X000617Y003161D01*
X000738Y003211D01*
X000742Y003215D01*
X000742Y003073D01*
X001042Y002773D01*
X001042Y002751D02*
X000322Y002751D01*
X000322Y002673D02*
X001042Y002673D01*
X001042Y002594D02*
X000322Y002594D01*
X000322Y002516D02*
X001042Y002516D01*
X001042Y002437D02*
X000954Y002437D01*
X001033Y002359D02*
X001042Y002359D01*
X000742Y002359D02*
X000662Y002359D01*
X000662Y002437D02*
X000742Y002437D01*
X000742Y002280D02*
X000662Y002280D01*
X000662Y002202D02*
X000742Y002202D01*
X000742Y002123D02*
X000662Y002123D01*
X000662Y001966D02*
X000742Y001966D01*
X000742Y001888D02*
X000662Y001888D01*
X000662Y001809D02*
X000742Y001809D01*
X000742Y001731D02*
X000662Y001731D01*
X000662Y001652D02*
X000742Y001652D01*
X000965Y001652D02*
X001042Y001652D01*
X001042Y001574D02*
X000322Y001574D01*
X000322Y001652D02*
X000438Y001652D01*
X000360Y001731D02*
X000322Y001731D01*
X000322Y001495D02*
X001042Y001495D01*
X001098Y001417D02*
X000932Y001417D01*
X001011Y001338D02*
X001176Y001338D01*
X001255Y001260D02*
X001089Y001260D01*
X001132Y001181D02*
X001272Y001181D01*
X001272Y001103D02*
X001132Y001103D01*
X001132Y001024D02*
X001272Y001024D01*
X001272Y000946D02*
X001132Y000946D01*
X001132Y000867D02*
X001272Y000867D01*
X001344Y000789D02*
X001059Y000789D01*
X000981Y000710D02*
X001423Y000710D01*
X001501Y000632D02*
X000902Y000632D01*
X000393Y001338D02*
X000322Y001338D01*
X000322Y001417D02*
X000471Y001417D01*
X000371Y002359D02*
X000322Y002359D01*
X000322Y002437D02*
X000449Y002437D01*
X000322Y002987D02*
X000828Y002987D01*
X000749Y003065D02*
X000322Y003065D01*
X000322Y003144D02*
X000742Y003144D01*
X000355Y003222D02*
X000322Y003222D01*
X000322Y003723D02*
X000322Y013505D01*
X010515Y013505D01*
X010515Y007619D01*
X010356Y007778D01*
X010380Y007837D01*
X010380Y007991D01*
X010321Y008134D01*
X010212Y008243D01*
X010070Y008302D01*
X009916Y008302D01*
X009773Y008243D01*
X009664Y008134D01*
X009606Y007991D01*
X009606Y007837D01*
X009664Y007695D01*
X009773Y007586D01*
X009916Y007527D01*
X010070Y007527D01*
X010130Y007551D01*
X010292Y007389D01*
X010292Y007376D01*
X010212Y007455D01*
X010070Y007514D01*
X009916Y007514D01*
X009773Y007455D01*
X009664Y007346D01*
X009606Y007204D01*
X009606Y007050D01*
X009664Y006907D01*
X009773Y006798D01*
X009916Y006739D01*
X010070Y006739D01*
X010212Y006798D01*
X010292Y006877D01*
X010292Y006589D01*
X010212Y006668D01*
X010070Y006727D01*
X009916Y006727D01*
X009773Y006668D01*
X009664Y006559D01*
X009606Y006416D01*
X009606Y006262D01*
X009664Y006120D01*
X009773Y006011D01*
X009916Y005952D01*
X010070Y005952D01*
X010212Y006011D01*
X010292Y006090D01*
X010292Y005801D01*
X010212Y005880D01*
X010070Y005939D01*
X009916Y005939D01*
X009773Y005880D01*
X009664Y005771D01*
X009606Y005629D01*
X009606Y005475D01*
X009664Y005332D01*
X009773Y005223D01*
X009916Y005164D01*
X010070Y005164D01*
X010212Y005223D01*
X010292Y005303D01*
X010292Y005014D01*
X010212Y005093D01*
X010070Y005152D01*
X009916Y005152D01*
X009773Y005093D01*
X009664Y004984D01*
X009656Y004963D01*
X009630Y005025D01*
X009538Y005118D01*
X009471Y005145D01*
X009530Y005204D01*
X009580Y005324D01*
X009580Y005455D01*
X009530Y005575D01*
X009438Y005668D01*
X009317Y005717D01*
X009186Y005717D01*
X009066Y005668D01*
X008973Y005575D01*
X008963Y005549D01*
X008918Y005549D01*
X006962Y007506D01*
X006868Y007599D01*
X005888Y007599D01*
X006211Y007922D01*
X006236Y007911D01*
X006367Y007911D01*
X006488Y007961D01*
X006580Y008054D01*
X006630Y008174D01*
X006630Y008305D01*
X006580Y008425D01*
X006488Y008518D01*
X006367Y008567D01*
X006236Y008567D01*
X006116Y008518D01*
X006023Y008425D01*
X005974Y008305D01*
X005974Y008174D01*
X005984Y008148D01*
X005685Y007849D01*
X005335Y007849D01*
X005242Y007756D01*
X005242Y007756D01*
X004285Y006799D01*
X003862Y006799D01*
X003862Y007609D01*
X003880Y007609D01*
X004132Y007861D01*
X004132Y008217D01*
X003880Y008469D01*
X003524Y008469D01*
X003511Y008457D01*
X003362Y008606D01*
X003362Y008729D01*
X003511Y008579D01*
X003662Y008579D01*
X003662Y008999D01*
X003742Y008999D01*
X003742Y009079D01*
X004162Y009079D01*
X004162Y009230D01*
X003892Y009499D01*
X003742Y009499D01*
X003742Y009079D01*
X003662Y009079D01*
X003662Y009499D01*
X003511Y009499D01*
X003340Y009328D01*
X001708Y010960D01*
X001719Y010987D01*
X001719Y011141D01*
X001660Y011283D01*
X001551Y011392D01*
X001409Y011451D01*
X001254Y011451D01*
X001112Y011392D01*
X001003Y011283D01*
X000944Y011141D01*
X000944Y010987D01*
X001003Y010844D01*
X001112Y010735D01*
X001254Y010676D01*
X001409Y010676D01*
X001500Y010714D01*
X002745Y009469D01*
X002524Y009469D01*
X002511Y009457D01*
X001719Y010248D01*
X001719Y010353D01*
X001660Y010496D01*
X001551Y010605D01*
X001409Y010664D01*
X001254Y010664D01*
X001112Y010605D01*
X001003Y010496D01*
X000944Y010353D01*
X000944Y010199D01*
X000956Y010170D01*
X000742Y009956D01*
X000742Y009606D01*
X000485Y009349D01*
X000392Y009256D01*
X000392Y003778D01*
X000366Y003768D01*
X000322Y003723D01*
X000322Y003772D02*
X000376Y003772D01*
X000392Y003850D02*
X000322Y003850D01*
X000322Y003929D02*
X000392Y003929D01*
X000392Y004007D02*
X000322Y004007D01*
X000322Y004086D02*
X000392Y004086D01*
X000392Y004164D02*
X000322Y004164D01*
X000322Y004243D02*
X000392Y004243D01*
X000392Y004321D02*
X000322Y004321D01*
X000322Y004400D02*
X000392Y004400D01*
X000392Y004478D02*
X000322Y004478D01*
X000322Y004557D02*
X000392Y004557D01*
X000392Y004635D02*
X000322Y004635D01*
X000322Y004714D02*
X000392Y004714D01*
X000392Y004792D02*
X000322Y004792D01*
X000322Y004871D02*
X000392Y004871D01*
X000392Y004949D02*
X000322Y004949D01*
X000322Y005028D02*
X000392Y005028D01*
X000392Y005106D02*
X000322Y005106D01*
X000322Y005185D02*
X000392Y005185D01*
X000392Y005263D02*
X000322Y005263D01*
X000322Y005342D02*
X000392Y005342D01*
X000392Y005420D02*
X000322Y005420D01*
X000322Y005499D02*
X000392Y005499D01*
X000392Y005577D02*
X000322Y005577D01*
X000322Y005656D02*
X000392Y005656D01*
X000392Y005734D02*
X000322Y005734D01*
X000322Y005813D02*
X000392Y005813D01*
X000392Y005891D02*
X000322Y005891D01*
X000322Y005970D02*
X000392Y005970D01*
X000392Y006048D02*
X000322Y006048D01*
X000322Y006127D02*
X000392Y006127D01*
X000392Y006205D02*
X000322Y006205D01*
X000322Y006284D02*
X000392Y006284D01*
X000392Y006362D02*
X000322Y006362D01*
X000322Y006441D02*
X000392Y006441D01*
X000392Y006519D02*
X000322Y006519D01*
X000322Y006598D02*
X000392Y006598D01*
X000392Y006676D02*
X000322Y006676D01*
X000322Y006755D02*
X000392Y006755D01*
X000392Y006833D02*
X000322Y006833D01*
X000322Y006912D02*
X000392Y006912D01*
X000392Y006990D02*
X000322Y006990D01*
X000322Y007069D02*
X000392Y007069D01*
X000392Y007147D02*
X000322Y007147D01*
X000322Y007226D02*
X000392Y007226D01*
X000392Y007304D02*
X000322Y007304D01*
X000322Y007383D02*
X000392Y007383D01*
X000392Y007461D02*
X000322Y007461D01*
X000322Y007540D02*
X000392Y007540D01*
X000392Y007618D02*
X000322Y007618D01*
X000322Y007697D02*
X000392Y007697D01*
X000392Y007775D02*
X000322Y007775D01*
X000322Y007854D02*
X000392Y007854D01*
X000392Y007932D02*
X000322Y007932D01*
X000322Y008011D02*
X000392Y008011D01*
X000392Y008089D02*
X000322Y008089D01*
X000322Y008168D02*
X000392Y008168D01*
X000392Y008246D02*
X000322Y008246D01*
X000322Y008325D02*
X000392Y008325D01*
X000392Y008403D02*
X000322Y008403D01*
X000322Y008482D02*
X000392Y008482D01*
X000392Y008560D02*
X000322Y008560D01*
X000322Y008639D02*
X000392Y008639D01*
X000392Y008717D02*
X000322Y008717D01*
X000322Y008796D02*
X000392Y008796D01*
X000392Y008874D02*
X000322Y008874D01*
X000322Y008953D02*
X000392Y008953D01*
X000392Y009031D02*
X000322Y009031D01*
X000322Y009110D02*
X000392Y009110D01*
X000392Y009188D02*
X000322Y009188D01*
X000322Y009267D02*
X000403Y009267D01*
X000481Y009345D02*
X000322Y009345D01*
X000322Y009424D02*
X000560Y009424D01*
X000638Y009502D02*
X000322Y009502D01*
X000322Y009581D02*
X000717Y009581D01*
X000742Y009659D02*
X000322Y009659D01*
X000322Y009738D02*
X000742Y009738D01*
X000742Y009816D02*
X000322Y009816D01*
X000322Y009895D02*
X000742Y009895D01*
X000759Y009973D02*
X000322Y009973D01*
X000322Y010052D02*
X000838Y010052D01*
X000916Y010130D02*
X000322Y010130D01*
X000322Y010209D02*
X000944Y010209D01*
X000944Y010287D02*
X000322Y010287D01*
X000322Y010366D02*
X000949Y010366D01*
X000982Y010444D02*
X000322Y010444D01*
X000322Y010523D02*
X001030Y010523D01*
X001109Y010601D02*
X000322Y010601D01*
X000322Y010680D02*
X001246Y010680D01*
X001089Y010758D02*
X000322Y010758D01*
X000322Y010837D02*
X001010Y010837D01*
X000974Y010915D02*
X000322Y010915D01*
X000322Y010994D02*
X000944Y010994D01*
X000944Y011072D02*
X000322Y011072D01*
X000322Y011151D02*
X000948Y011151D01*
X000981Y011229D02*
X000322Y011229D01*
X000322Y011308D02*
X001028Y011308D01*
X001106Y011386D02*
X000322Y011386D01*
X000322Y011465D02*
X002074Y011465D01*
X002074Y011505D02*
X002074Y011374D01*
X002123Y011254D01*
X002216Y011161D01*
X002336Y011111D01*
X002467Y011111D01*
X002588Y011161D01*
X002680Y011254D01*
X002730Y011374D01*
X002730Y011505D01*
X002719Y011530D01*
X003068Y011879D01*
X007035Y011879D01*
X007047Y011867D01*
X006936Y011867D01*
X006816Y011818D01*
X006723Y011725D01*
X006674Y011605D01*
X006674Y011474D01*
X006684Y011448D01*
X006627Y011391D01*
X005413Y011606D01*
X005339Y011553D01*
X005246Y011027D01*
X005128Y011027D01*
X005038Y011118D01*
X004917Y011167D01*
X004786Y011167D01*
X004666Y011118D01*
X004573Y011025D01*
X004524Y010905D01*
X004524Y010774D01*
X004573Y010654D01*
X004666Y010561D01*
X004786Y010511D01*
X004917Y010511D01*
X005038Y010561D01*
X005130Y010654D01*
X005152Y010707D01*
X005189Y010707D01*
X005149Y010479D01*
X005202Y010404D01*
X006768Y010128D01*
X006843Y010180D01*
X007025Y011211D01*
X007067Y011211D01*
X007188Y011261D01*
X007280Y011354D01*
X007330Y011474D01*
X007330Y011585D01*
X007442Y011473D01*
X007442Y010678D01*
X007416Y010668D01*
X007323Y010575D01*
X007274Y010455D01*
X007274Y010324D01*
X007323Y010204D01*
X007416Y010111D01*
X007536Y010061D01*
X007667Y010061D01*
X007788Y010111D01*
X007880Y010204D01*
X007930Y010324D01*
X007930Y010455D01*
X007880Y010575D01*
X007788Y010668D01*
X007762Y010678D01*
X007762Y011473D01*
X007762Y011606D01*
X007262Y012106D01*
X007168Y012199D01*
X002935Y012199D01*
X002493Y011757D01*
X002467Y011767D01*
X002336Y011767D01*
X002216Y011718D01*
X002123Y011625D01*
X002074Y011505D01*
X002090Y011543D02*
X000322Y011543D01*
X000322Y011622D02*
X002122Y011622D01*
X002199Y011700D02*
X001482Y011700D01*
X001466Y011694D02*
X001771Y011820D01*
X002004Y012053D01*
X002130Y012358D01*
X002130Y012688D01*
X002004Y012992D01*
X001771Y013225D01*
X001466Y013351D01*
X001137Y013351D01*
X000832Y013225D01*
X000599Y012992D01*
X000473Y012688D01*
X000473Y012358D01*
X000599Y012053D01*
X000832Y011820D01*
X001137Y011694D01*
X001466Y011694D01*
X001671Y011779D02*
X002515Y011779D01*
X002593Y011857D02*
X001808Y011857D01*
X001887Y011936D02*
X002672Y011936D01*
X002750Y012014D02*
X001965Y012014D01*
X002020Y012093D02*
X002829Y012093D01*
X002907Y012171D02*
X002053Y012171D01*
X002086Y012250D02*
X010515Y012250D01*
X010515Y012328D02*
X002118Y012328D01*
X002130Y012407D02*
X010515Y012407D01*
X010515Y012485D02*
X002130Y012485D01*
X002130Y012564D02*
X006588Y012564D01*
X006592Y012560D02*
X006700Y012515D01*
X006818Y012515D01*
X006926Y012560D01*
X007009Y012643D01*
X007054Y012752D01*
X007054Y012869D01*
X007009Y012977D01*
X006926Y013060D01*
X006818Y013105D01*
X006700Y013105D01*
X006592Y013060D01*
X006509Y012977D01*
X006464Y012869D01*
X006464Y012752D01*
X006509Y012643D01*
X006592Y012560D01*
X006510Y012642D02*
X002130Y012642D01*
X002117Y012721D02*
X006477Y012721D01*
X006464Y012799D02*
X002084Y012799D01*
X002052Y012878D02*
X006468Y012878D01*
X006500Y012956D02*
X002019Y012956D01*
X001961Y013035D02*
X006567Y013035D01*
X006952Y013035D02*
X007748Y013035D01*
X007773Y013060D02*
X007690Y012977D01*
X007645Y012869D01*
X007645Y012752D01*
X007690Y012643D01*
X007773Y012560D01*
X007882Y012515D01*
X007999Y012515D01*
X008107Y012560D01*
X008190Y012643D01*
X008235Y012752D01*
X008235Y012869D01*
X008190Y012977D01*
X008107Y013060D01*
X007999Y013105D01*
X007882Y013105D01*
X007773Y013060D01*
X007681Y012956D02*
X007018Y012956D01*
X007050Y012878D02*
X007649Y012878D01*
X007645Y012799D02*
X007054Y012799D01*
X007041Y012721D02*
X007658Y012721D01*
X007691Y012642D02*
X007008Y012642D01*
X006930Y012564D02*
X007769Y012564D01*
X008111Y012564D02*
X010515Y012564D01*
X010515Y012642D02*
X008190Y012642D01*
X008223Y012721D02*
X010515Y012721D01*
X010515Y012799D02*
X008235Y012799D01*
X008232Y012878D02*
X010515Y012878D01*
X010515Y012956D02*
X008199Y012956D01*
X008133Y013035D02*
X010515Y013035D01*
X010515Y013113D02*
X001883Y013113D01*
X001804Y013192D02*
X010515Y013192D01*
X010515Y013270D02*
X001662Y013270D01*
X001473Y013349D02*
X010515Y013349D01*
X010515Y013427D02*
X000322Y013427D01*
X000322Y013349D02*
X001131Y013349D01*
X000941Y013270D02*
X000322Y013270D01*
X000322Y013192D02*
X000799Y013192D01*
X000720Y013113D02*
X000322Y013113D01*
X000322Y013035D02*
X000642Y013035D01*
X000584Y012956D02*
X000322Y012956D01*
X000322Y012878D02*
X000552Y012878D01*
X000519Y012799D02*
X000322Y012799D01*
X000322Y012721D02*
X000487Y012721D01*
X000473Y012642D02*
X000322Y012642D01*
X000322Y012564D02*
X000473Y012564D01*
X000473Y012485D02*
X000322Y012485D01*
X000322Y012407D02*
X000473Y012407D01*
X000485Y012328D02*
X000322Y012328D01*
X000322Y012250D02*
X000518Y012250D01*
X000550Y012171D02*
X000322Y012171D01*
X000322Y012093D02*
X000583Y012093D01*
X000638Y012014D02*
X000322Y012014D01*
X000322Y011936D02*
X000717Y011936D01*
X000795Y011857D02*
X000322Y011857D01*
X000322Y011779D02*
X000932Y011779D01*
X001122Y011700D02*
X000322Y011700D01*
X001417Y010680D02*
X001535Y010680D01*
X001555Y010601D02*
X001613Y010601D01*
X001633Y010523D02*
X001692Y010523D01*
X001681Y010444D02*
X001770Y010444D01*
X001714Y010366D02*
X001849Y010366D01*
X001927Y010287D02*
X001719Y010287D01*
X001758Y010209D02*
X002006Y010209D01*
X002084Y010130D02*
X001837Y010130D01*
X001915Y010052D02*
X002163Y010052D01*
X002241Y009973D02*
X001994Y009973D01*
X002072Y009895D02*
X002320Y009895D01*
X002398Y009816D02*
X002151Y009816D01*
X002229Y009738D02*
X002477Y009738D01*
X002555Y009659D02*
X002308Y009659D01*
X002386Y009581D02*
X002634Y009581D01*
X002712Y009502D02*
X002465Y009502D01*
X002248Y009267D02*
X001700Y009267D01*
X001691Y009345D02*
X002169Y009345D01*
X002091Y009424D02*
X001719Y009424D01*
X001719Y009502D02*
X002012Y009502D01*
X001934Y009581D02*
X001713Y009581D01*
X001680Y009659D02*
X001855Y009659D01*
X001777Y009738D02*
X001631Y009738D01*
X001698Y009816D02*
X001552Y009816D01*
X001620Y009895D02*
X001423Y009895D01*
X001240Y009895D02*
X001133Y009895D01*
X001111Y009816D02*
X001062Y009816D01*
X001779Y009188D02*
X002272Y009188D01*
X002272Y009110D02*
X001857Y009110D01*
X001936Y009031D02*
X002272Y009031D01*
X002272Y008953D02*
X002014Y008953D01*
X002093Y008874D02*
X002272Y008874D01*
X002337Y008796D02*
X002171Y008796D01*
X002250Y008717D02*
X002416Y008717D01*
X002494Y008639D02*
X002328Y008639D01*
X002407Y008560D02*
X003042Y008560D01*
X003042Y008482D02*
X002485Y008482D01*
X002268Y008246D02*
X001542Y008246D01*
X001626Y008168D02*
X002272Y008168D01*
X002272Y008089D02*
X001678Y008089D01*
X001711Y008011D02*
X002272Y008011D01*
X002272Y007932D02*
X001719Y007932D01*
X001719Y007854D02*
X002279Y007854D01*
X002358Y007775D02*
X001693Y007775D01*
X001661Y007697D02*
X002436Y007697D01*
X002515Y007618D02*
X001584Y007618D01*
X001441Y007540D02*
X003542Y007540D01*
X003542Y007461D02*
X001536Y007461D01*
X001623Y007383D02*
X003542Y007383D01*
X003542Y007304D02*
X001677Y007304D01*
X001710Y007226D02*
X003542Y007226D01*
X003542Y007147D02*
X001719Y007147D01*
X001719Y007069D02*
X003542Y007069D01*
X003542Y006990D02*
X001694Y006990D01*
X001662Y006912D02*
X003542Y006912D01*
X003542Y006833D02*
X002399Y006833D01*
X002500Y006755D02*
X003542Y006755D01*
X003542Y006676D02*
X002550Y006676D01*
X002580Y006598D02*
X003542Y006598D01*
X003595Y006519D02*
X002580Y006519D01*
X002566Y006441D02*
X004192Y006441D01*
X004192Y006362D02*
X002533Y006362D01*
X002460Y006284D02*
X004192Y006284D01*
X004192Y006205D02*
X002144Y006205D01*
X002065Y006127D02*
X004192Y006127D01*
X004192Y006048D02*
X001987Y006048D01*
X001962Y005970D02*
X004192Y005970D01*
X004192Y005891D02*
X001962Y005891D01*
X001962Y005813D02*
X004192Y005813D01*
X004192Y005734D02*
X001962Y005734D01*
X001962Y005656D02*
X004192Y005656D01*
X004192Y005577D02*
X001962Y005577D01*
X001962Y005499D02*
X002241Y005499D01*
X002119Y005420D02*
X001962Y005420D01*
X001962Y005342D02*
X002060Y005342D01*
X002027Y005263D02*
X001962Y005263D01*
X001962Y005185D02*
X002024Y005185D01*
X002031Y005106D02*
X001962Y005106D01*
X001962Y005028D02*
X002063Y005028D01*
X002128Y004949D02*
X001962Y004949D01*
X001962Y004871D02*
X002263Y004871D01*
X002440Y004871D02*
X004007Y004871D01*
X004024Y004949D02*
X002576Y004949D01*
X002640Y005028D02*
X004024Y005028D01*
X003928Y004792D02*
X001962Y004792D01*
X001962Y004714D02*
X003850Y004714D01*
X003771Y004635D02*
X001962Y004635D01*
X001962Y004557D02*
X003693Y004557D01*
X003614Y004478D02*
X001962Y004478D01*
X001962Y004400D02*
X003536Y004400D01*
X004145Y004557D02*
X005558Y004557D01*
X005479Y004635D02*
X004224Y004635D01*
X004496Y004243D02*
X005742Y004243D01*
X005742Y004007D02*
X005716Y004007D01*
X005730Y003693D02*
X005742Y003693D01*
X005742Y003615D02*
X005716Y003615D01*
X005702Y003536D02*
X005742Y003536D01*
X005742Y003458D02*
X005688Y003458D01*
X005401Y004714D02*
X004540Y004714D01*
X004619Y004792D02*
X005342Y004792D01*
X005342Y004871D02*
X004658Y004871D01*
X004680Y004949D02*
X005342Y004949D01*
X005299Y005028D02*
X004680Y005028D01*
X004658Y005106D02*
X005222Y005106D01*
X005190Y005185D02*
X004620Y005185D01*
X004542Y005263D02*
X005174Y005263D01*
X004962Y005342D02*
X004512Y005342D01*
X004512Y005420D02*
X004857Y005420D01*
X004805Y005499D02*
X004587Y005499D01*
X004666Y005577D02*
X004774Y005577D01*
X004774Y005656D02*
X004744Y005656D01*
X004192Y005499D02*
X002462Y005499D01*
X002585Y005420D02*
X004192Y005420D01*
X004319Y006833D02*
X003862Y006833D01*
X003862Y006912D02*
X004398Y006912D01*
X004476Y006990D02*
X003862Y006990D01*
X003862Y007069D02*
X004555Y007069D01*
X004633Y007147D02*
X003862Y007147D01*
X003862Y007226D02*
X004712Y007226D01*
X004790Y007304D02*
X003862Y007304D01*
X003862Y007383D02*
X004869Y007383D01*
X004947Y007461D02*
X003862Y007461D01*
X003862Y007540D02*
X005026Y007540D01*
X005104Y007618D02*
X004889Y007618D01*
X004880Y007609D02*
X005132Y007861D01*
X005132Y008217D01*
X004880Y008469D01*
X004524Y008469D01*
X004272Y008217D01*
X004272Y007861D01*
X004524Y007609D01*
X004880Y007609D01*
X004967Y007697D02*
X005183Y007697D01*
X005261Y007775D02*
X005046Y007775D01*
X005124Y007854D02*
X005690Y007854D01*
X005768Y007932D02*
X005132Y007932D01*
X005132Y008011D02*
X005847Y008011D01*
X005925Y008089D02*
X005132Y008089D01*
X005132Y008168D02*
X005976Y008168D01*
X005974Y008246D02*
X005103Y008246D01*
X005024Y008325D02*
X005982Y008325D01*
X006014Y008403D02*
X004946Y008403D01*
X004458Y008403D02*
X003946Y008403D01*
X004024Y008325D02*
X004379Y008325D01*
X004301Y008246D02*
X004103Y008246D01*
X004132Y008168D02*
X004272Y008168D01*
X004272Y008089D02*
X004132Y008089D01*
X004132Y008011D02*
X004272Y008011D01*
X004272Y007932D02*
X004132Y007932D01*
X004124Y007854D02*
X004279Y007854D01*
X004358Y007775D02*
X004046Y007775D01*
X003967Y007697D02*
X004436Y007697D01*
X004515Y007618D02*
X003889Y007618D01*
X003515Y007618D02*
X002889Y007618D01*
X002967Y007697D02*
X003436Y007697D01*
X003358Y007775D02*
X003046Y007775D01*
X003124Y007854D02*
X003279Y007854D01*
X003272Y007932D02*
X003132Y007932D01*
X003132Y008011D02*
X003272Y008011D01*
X003272Y008089D02*
X003132Y008089D01*
X003132Y008168D02*
X003272Y008168D01*
X003268Y008246D02*
X003103Y008246D01*
X003024Y008325D02*
X003190Y008325D01*
X003111Y008403D02*
X002946Y008403D01*
X002909Y008639D02*
X003042Y008639D01*
X003042Y008717D02*
X002988Y008717D01*
X003362Y008717D02*
X003373Y008717D01*
X003362Y008639D02*
X003452Y008639D01*
X003407Y008560D02*
X006219Y008560D01*
X006080Y008482D02*
X003485Y008482D01*
X003662Y008639D02*
X003742Y008639D01*
X003742Y008579D02*
X003892Y008579D01*
X004162Y008849D01*
X004162Y008999D01*
X003742Y008999D01*
X003742Y008579D01*
X003742Y008717D02*
X003662Y008717D01*
X003662Y008796D02*
X003742Y008796D01*
X003742Y008874D02*
X003662Y008874D01*
X003662Y008953D02*
X003742Y008953D01*
X003742Y009031D02*
X009777Y009031D01*
X009773Y009030D02*
X009664Y008921D01*
X009635Y008849D01*
X008385Y008849D01*
X008292Y008756D01*
X007693Y008157D01*
X007667Y008167D01*
X007536Y008167D01*
X007416Y008118D01*
X007323Y008025D01*
X007274Y007905D01*
X007274Y007774D01*
X007323Y007654D01*
X007416Y007561D01*
X007536Y007511D01*
X007667Y007511D01*
X007788Y007561D01*
X007880Y007654D01*
X007930Y007774D01*
X007930Y007905D01*
X007919Y007930D01*
X008518Y008529D01*
X009645Y008529D01*
X009664Y008482D01*
X009773Y008373D01*
X009916Y008314D01*
X010070Y008314D01*
X010212Y008373D01*
X010321Y008482D01*
X010515Y008482D01*
X010515Y008560D02*
X010354Y008560D01*
X010380Y008624D02*
X010380Y008779D01*
X010321Y008921D01*
X010212Y009030D01*
X010070Y009089D01*
X009916Y009089D01*
X009773Y009030D01*
X009696Y008953D02*
X004162Y008953D01*
X004162Y008874D02*
X009645Y008874D01*
X009773Y009160D02*
X009916Y009101D01*
X010070Y009101D01*
X010212Y009160D01*
X010321Y009269D01*
X010380Y009412D01*
X010380Y009566D01*
X010321Y009708D01*
X010212Y009817D01*
X010070Y009876D01*
X009916Y009876D01*
X009773Y009817D01*
X009664Y009708D01*
X009606Y009566D01*
X009606Y009412D01*
X009664Y009269D01*
X009773Y009160D01*
X009746Y009188D02*
X004162Y009188D01*
X004162Y009110D02*
X009896Y009110D01*
X010090Y009110D02*
X010515Y009110D01*
X010515Y009188D02*
X010240Y009188D01*
X010319Y009267D02*
X010515Y009267D01*
X010515Y009345D02*
X010353Y009345D01*
X010380Y009424D02*
X010515Y009424D01*
X010515Y009502D02*
X010380Y009502D01*
X010374Y009581D02*
X010515Y009581D01*
X010515Y009659D02*
X010342Y009659D01*
X010292Y009738D02*
X010515Y009738D01*
X010515Y009816D02*
X010214Y009816D01*
X010212Y009948D02*
X010070Y009889D01*
X009916Y009889D01*
X009773Y009948D01*
X009664Y010057D01*
X009606Y010199D01*
X009606Y010353D01*
X009664Y010496D01*
X009773Y010605D01*
X009916Y010664D01*
X010070Y010664D01*
X010212Y010605D01*
X010321Y010496D01*
X010380Y010353D01*
X010380Y010199D01*
X010321Y010057D01*
X010212Y009948D01*
X010238Y009973D02*
X010515Y009973D01*
X010515Y009895D02*
X010085Y009895D01*
X009901Y009895D02*
X002772Y009895D01*
X002694Y009973D02*
X009748Y009973D01*
X009669Y010052D02*
X002615Y010052D01*
X002537Y010130D02*
X006753Y010130D01*
X006772Y010130D02*
X007397Y010130D01*
X007321Y010209D02*
X006848Y010209D01*
X006862Y010287D02*
X007289Y010287D01*
X007274Y010366D02*
X006876Y010366D01*
X006890Y010444D02*
X007274Y010444D01*
X007302Y010523D02*
X006904Y010523D01*
X006917Y010601D02*
X007350Y010601D01*
X007442Y010680D02*
X006931Y010680D01*
X006945Y010758D02*
X007442Y010758D01*
X007442Y010837D02*
X006959Y010837D01*
X006973Y010915D02*
X007442Y010915D01*
X007442Y010994D02*
X006987Y010994D01*
X007000Y011072D02*
X007442Y011072D01*
X007442Y011151D02*
X007014Y011151D01*
X007111Y011229D02*
X007442Y011229D01*
X007442Y011308D02*
X007234Y011308D01*
X007293Y011386D02*
X007442Y011386D01*
X007442Y011465D02*
X007326Y011465D01*
X007330Y011543D02*
X007371Y011543D01*
X007588Y011779D02*
X010515Y011779D01*
X010515Y011857D02*
X007510Y011857D01*
X007431Y011936D02*
X010515Y011936D01*
X010515Y012014D02*
X007353Y012014D01*
X007274Y012093D02*
X010515Y012093D01*
X010515Y012171D02*
X007196Y012171D01*
X006912Y011857D02*
X003046Y011857D01*
X002967Y011779D02*
X006777Y011779D01*
X006713Y011700D02*
X002889Y011700D01*
X002810Y011622D02*
X006681Y011622D01*
X006674Y011543D02*
X005766Y011543D01*
X005337Y011543D02*
X002732Y011543D01*
X002730Y011465D02*
X005323Y011465D01*
X005309Y011386D02*
X002730Y011386D01*
X002702Y011308D02*
X005295Y011308D01*
X005282Y011229D02*
X002656Y011229D01*
X002563Y011151D02*
X004746Y011151D01*
X004621Y011072D02*
X001719Y011072D01*
X001719Y010994D02*
X004561Y010994D01*
X004528Y010915D02*
X001752Y010915D01*
X001830Y010837D02*
X004524Y010837D01*
X004530Y010758D02*
X001909Y010758D01*
X001987Y010680D02*
X004563Y010680D01*
X004626Y010601D02*
X002066Y010601D01*
X002144Y010523D02*
X004758Y010523D01*
X004945Y010523D02*
X005157Y010523D01*
X005171Y010601D02*
X005078Y010601D01*
X005141Y010680D02*
X005185Y010680D01*
X005173Y010444D02*
X002223Y010444D01*
X002301Y010366D02*
X005418Y010366D01*
X005863Y010287D02*
X002380Y010287D01*
X002458Y010209D02*
X006308Y010209D01*
X006211Y011465D02*
X006677Y011465D01*
X007667Y011700D02*
X008968Y011700D01*
X008968Y011701D02*
X008884Y011616D01*
X008838Y011506D01*
X008838Y011387D01*
X008884Y011276D01*
X008968Y011192D01*
X009078Y011146D01*
X009198Y011146D01*
X009308Y011192D01*
X009392Y011276D01*
X009438Y011387D01*
X009438Y011506D01*
X009392Y011616D01*
X009308Y011701D01*
X009198Y011746D01*
X009078Y011746D01*
X008968Y011701D01*
X008889Y011622D02*
X007745Y011622D01*
X007762Y011543D02*
X008853Y011543D01*
X008838Y011465D02*
X007762Y011465D01*
X007762Y011386D02*
X008838Y011386D01*
X008871Y011308D02*
X007762Y011308D01*
X007762Y011229D02*
X008931Y011229D01*
X009067Y011151D02*
X007762Y011151D01*
X007762Y011072D02*
X009606Y011072D01*
X009606Y011141D02*
X009606Y010987D01*
X009664Y010844D01*
X009773Y010735D01*
X009916Y010676D01*
X010070Y010676D01*
X010212Y010735D01*
X010321Y010844D01*
X010380Y010987D01*
X010380Y011141D01*
X010321Y011283D01*
X010212Y011392D01*
X010070Y011451D01*
X009916Y011451D01*
X009773Y011392D01*
X009664Y011283D01*
X009606Y011141D01*
X009610Y011151D02*
X009209Y011151D01*
X009345Y011229D02*
X009642Y011229D01*
X009689Y011308D02*
X009405Y011308D01*
X009438Y011386D02*
X009768Y011386D01*
X009438Y011465D02*
X010515Y011465D01*
X010515Y011543D02*
X009422Y011543D01*
X009387Y011622D02*
X010515Y011622D01*
X010515Y011700D02*
X009308Y011700D01*
X009606Y010994D02*
X007762Y010994D01*
X007762Y010915D02*
X009635Y010915D01*
X009672Y010837D02*
X007762Y010837D01*
X007762Y010758D02*
X009750Y010758D01*
X009770Y010601D02*
X007854Y010601D01*
X007901Y010523D02*
X009692Y010523D01*
X009643Y010444D02*
X007930Y010444D01*
X007930Y010366D02*
X009611Y010366D01*
X009606Y010287D02*
X007915Y010287D01*
X007882Y010209D02*
X009606Y010209D01*
X009634Y010130D02*
X007807Y010130D01*
X007762Y010680D02*
X009907Y010680D01*
X010079Y010680D02*
X010515Y010680D01*
X010515Y010758D02*
X010236Y010758D01*
X010314Y010837D02*
X010515Y010837D01*
X010515Y010915D02*
X010351Y010915D01*
X010380Y010994D02*
X010515Y010994D01*
X010515Y011072D02*
X010380Y011072D01*
X010376Y011151D02*
X010515Y011151D01*
X010515Y011229D02*
X010344Y011229D01*
X010297Y011308D02*
X010515Y011308D01*
X010515Y011386D02*
X010218Y011386D01*
X010216Y010601D02*
X010515Y010601D01*
X010515Y010523D02*
X010294Y010523D01*
X010343Y010444D02*
X010515Y010444D01*
X010515Y010366D02*
X010375Y010366D01*
X010380Y010287D02*
X010515Y010287D01*
X010515Y010209D02*
X010380Y010209D01*
X010352Y010130D02*
X010515Y010130D01*
X010515Y010052D02*
X010316Y010052D01*
X009772Y009816D02*
X002851Y009816D01*
X002929Y009738D02*
X009694Y009738D01*
X009644Y009659D02*
X003008Y009659D01*
X003086Y009581D02*
X009612Y009581D01*
X009606Y009502D02*
X003165Y009502D01*
X003243Y009424D02*
X003436Y009424D01*
X003357Y009345D02*
X003322Y009345D01*
X003662Y009345D02*
X003742Y009345D01*
X003742Y009267D02*
X003662Y009267D01*
X003662Y009188D02*
X003742Y009188D01*
X003742Y009110D02*
X003662Y009110D01*
X003662Y009424D02*
X003742Y009424D01*
X003968Y009424D02*
X009606Y009424D01*
X009633Y009345D02*
X004046Y009345D01*
X004125Y009267D02*
X009667Y009267D01*
X010209Y009031D02*
X010515Y009031D01*
X010515Y008953D02*
X010290Y008953D01*
X010341Y008874D02*
X010515Y008874D01*
X010515Y008796D02*
X010373Y008796D01*
X010380Y008717D02*
X010515Y008717D01*
X010515Y008639D02*
X010380Y008639D01*
X010380Y008624D02*
X010321Y008482D01*
X010243Y008403D02*
X010515Y008403D01*
X010515Y008325D02*
X010096Y008325D01*
X010203Y008246D02*
X010515Y008246D01*
X010515Y008168D02*
X010287Y008168D01*
X010340Y008089D02*
X010515Y008089D01*
X010515Y008011D02*
X010372Y008011D01*
X010380Y007932D02*
X010515Y007932D01*
X010515Y007854D02*
X010380Y007854D01*
X010358Y007775D02*
X010515Y007775D01*
X010515Y007697D02*
X010437Y007697D01*
X010219Y007461D02*
X010198Y007461D01*
X010141Y007540D02*
X010102Y007540D01*
X009884Y007540D02*
X007736Y007540D01*
X007845Y007618D02*
X009741Y007618D01*
X009664Y007697D02*
X007898Y007697D01*
X007930Y007775D02*
X009631Y007775D01*
X009606Y007854D02*
X007930Y007854D01*
X007921Y007932D02*
X009606Y007932D01*
X009614Y008011D02*
X007999Y008011D01*
X008078Y008089D02*
X009646Y008089D01*
X009699Y008168D02*
X008156Y008168D01*
X008235Y008246D02*
X009783Y008246D01*
X009890Y008325D02*
X008313Y008325D01*
X008392Y008403D02*
X009743Y008403D01*
X009665Y008482D02*
X008470Y008482D01*
X008253Y008717D02*
X004030Y008717D01*
X003952Y008639D02*
X008175Y008639D01*
X008096Y008560D02*
X006384Y008560D01*
X006523Y008482D02*
X008018Y008482D01*
X007939Y008403D02*
X006589Y008403D01*
X006621Y008325D02*
X007861Y008325D01*
X007782Y008246D02*
X006630Y008246D01*
X006627Y008168D02*
X007704Y008168D01*
X007388Y008089D02*
X006595Y008089D01*
X006537Y008011D02*
X007318Y008011D01*
X007285Y007932D02*
X006418Y007932D01*
X006142Y007854D02*
X007274Y007854D01*
X007274Y007775D02*
X006064Y007775D01*
X005985Y007697D02*
X007306Y007697D01*
X007359Y007618D02*
X005907Y007618D01*
X006927Y007540D02*
X007467Y007540D01*
X007241Y007226D02*
X009615Y007226D01*
X009606Y007147D02*
X007320Y007147D01*
X007398Y007069D02*
X009606Y007069D01*
X009630Y006990D02*
X007477Y006990D01*
X007555Y006912D02*
X009663Y006912D01*
X009738Y006833D02*
X007634Y006833D01*
X007712Y006755D02*
X009878Y006755D01*
X009794Y006676D02*
X007791Y006676D01*
X007869Y006598D02*
X009704Y006598D01*
X009648Y006519D02*
X007948Y006519D01*
X008026Y006441D02*
X009616Y006441D01*
X009606Y006362D02*
X008105Y006362D01*
X008183Y006284D02*
X009606Y006284D01*
X009629Y006205D02*
X008262Y006205D01*
X008340Y006127D02*
X009662Y006127D01*
X009736Y006048D02*
X008419Y006048D01*
X008497Y005970D02*
X009872Y005970D01*
X009800Y005891D02*
X008576Y005891D01*
X008654Y005813D02*
X009706Y005813D01*
X009649Y005734D02*
X008733Y005734D01*
X008811Y005656D02*
X009054Y005656D01*
X008976Y005577D02*
X008890Y005577D01*
X009449Y005656D02*
X009617Y005656D01*
X009606Y005577D02*
X009528Y005577D01*
X009561Y005499D02*
X009606Y005499D01*
X009628Y005420D02*
X009580Y005420D01*
X009580Y005342D02*
X009661Y005342D01*
X009734Y005263D02*
X009555Y005263D01*
X009511Y005185D02*
X009867Y005185D01*
X009806Y005106D02*
X009549Y005106D01*
X009627Y005028D02*
X009708Y005028D01*
X010119Y005185D02*
X010292Y005185D01*
X010292Y005263D02*
X010252Y005263D01*
X010292Y005106D02*
X010180Y005106D01*
X010278Y005028D02*
X010292Y005028D01*
X010280Y005813D02*
X010292Y005813D01*
X010292Y005891D02*
X010186Y005891D01*
X010114Y005970D02*
X010292Y005970D01*
X010292Y006048D02*
X010250Y006048D01*
X010282Y006598D02*
X010292Y006598D01*
X010292Y006676D02*
X010192Y006676D01*
X010108Y006755D02*
X010292Y006755D01*
X010292Y006833D02*
X010248Y006833D01*
X010285Y007383D02*
X010292Y007383D01*
X009788Y007461D02*
X007006Y007461D01*
X006962Y007506D02*
X006962Y007506D01*
X007084Y007383D02*
X009701Y007383D01*
X009647Y007304D02*
X007163Y007304D01*
X008332Y008796D02*
X004109Y008796D01*
X005083Y011072D02*
X005254Y011072D01*
X005268Y011151D02*
X004957Y011151D01*
X002241Y011151D02*
X001715Y011151D01*
X001682Y011229D02*
X002148Y011229D01*
X002101Y011308D02*
X001635Y011308D01*
X001557Y011386D02*
X002074Y011386D01*
X001719Y008796D02*
X001712Y008796D01*
X001719Y008717D02*
X001797Y008717D01*
X001719Y008639D02*
X001876Y008639D01*
X001954Y008560D02*
X001692Y008560D01*
X001660Y008482D02*
X002033Y008482D01*
X002111Y008403D02*
X001581Y008403D01*
X001435Y008325D02*
X002190Y008325D01*
X001228Y008325D02*
X001062Y008325D01*
X001062Y008403D02*
X001082Y008403D01*
X001062Y008246D02*
X001121Y008246D01*
X001079Y007618D02*
X001062Y007618D01*
X001062Y007540D02*
X001223Y007540D01*
X001127Y007461D02*
X001062Y007461D01*
X001062Y006833D02*
X001077Y006833D01*
X001062Y006755D02*
X001217Y006755D01*
X001133Y006676D02*
X001062Y006676D01*
X001446Y006755D02*
X002003Y006755D01*
X001953Y006676D02*
X001530Y006676D01*
X001621Y006598D02*
X001924Y006598D01*
X001924Y006519D02*
X001676Y006519D01*
X001709Y006441D02*
X001927Y006441D01*
X001848Y006362D02*
X001719Y006362D01*
X001719Y006284D02*
X001770Y006284D01*
X001586Y006833D02*
X002104Y006833D01*
X003912Y002437D02*
X004492Y002437D01*
X004413Y002359D02*
X003990Y002359D01*
X004069Y002280D02*
X004335Y002280D01*
X004272Y002202D02*
X004132Y002202D01*
X004132Y002123D02*
X004272Y002123D01*
X004272Y002045D02*
X004132Y002045D01*
X004132Y001966D02*
X004272Y001966D01*
X004272Y001888D02*
X004132Y001888D01*
X004080Y001809D02*
X004324Y001809D01*
X004402Y001731D02*
X004001Y001731D01*
X003923Y001652D02*
X004481Y001652D01*
X004471Y001417D02*
X003932Y001417D01*
X004011Y001338D02*
X004393Y001338D01*
X004314Y001260D02*
X004089Y001260D01*
X004132Y001181D02*
X004272Y001181D01*
X004272Y001103D02*
X004132Y001103D01*
X004132Y001024D02*
X004272Y001024D01*
X004272Y000946D02*
X004132Y000946D01*
X004132Y000867D02*
X004272Y000867D01*
X004344Y000789D02*
X004059Y000789D01*
X003981Y000710D02*
X004423Y000710D01*
X004501Y000632D02*
X003902Y000632D01*
X005932Y001417D02*
X006098Y001417D01*
X006176Y001338D02*
X006011Y001338D01*
X001481Y001652D02*
X001362Y001652D01*
X001362Y001731D02*
X001402Y001731D01*
D15*
X001202Y001539D02*
X001702Y001039D01*
X001202Y001539D02*
X001202Y002839D01*
X000902Y003139D01*
X000902Y009027D01*
X000902Y009039D02*
X001302Y009439D01*
X001332Y009409D02*
X002702Y008039D01*
X003202Y008539D02*
X003202Y009239D01*
X001402Y011039D01*
X001302Y011039D01*
X001302Y010289D02*
X000902Y009889D01*
X000902Y009539D01*
X000552Y009189D01*
X000552Y003489D01*
X001302Y003339D02*
X001302Y003139D01*
X002202Y002239D01*
X002202Y001539D01*
X002702Y001039D01*
X003252Y003289D02*
X003252Y003889D01*
X004352Y004989D01*
X004152Y005189D01*
X002352Y005189D01*
X001802Y006089D02*
X002252Y006539D01*
X001802Y006089D02*
X001802Y003839D01*
X001302Y003339D01*
X003702Y006639D02*
X003702Y008039D01*
X003202Y008539D01*
X002702Y009039D02*
X001465Y010276D01*
X001332Y010276D01*
X001352Y010289D02*
X001302Y010289D01*
X002402Y011439D02*
X003002Y012039D01*
X007102Y012039D01*
X007602Y011539D01*
X007602Y010389D01*
X007002Y011539D02*
X006302Y010839D01*
X006118Y010839D01*
X006091Y010867D01*
X004879Y010867D01*
X004852Y010839D01*
X006302Y008239D02*
X005752Y007689D01*
X005402Y007689D01*
X004352Y006639D01*
X004352Y005489D01*
X004352Y004989D01*
X004352Y005489D02*
X005252Y006389D01*
X006052Y006389D01*
X007102Y005339D01*
X007652Y005339D01*
X008602Y004389D01*
X009152Y004389D02*
X007952Y005589D01*
X007152Y005589D01*
X006602Y006139D01*
X006602Y006939D01*
X006502Y007039D01*
X006802Y007439D02*
X005752Y007439D01*
X004802Y006489D01*
X004352Y006639D02*
X003702Y006639D01*
X005102Y005639D02*
X005802Y005639D01*
X006202Y005239D01*
X006202Y002739D01*
X006402Y002539D01*
X006952Y002539D01*
X007202Y002289D01*
X007202Y001839D01*
X007502Y001539D01*
X008202Y001539D01*
X008702Y001039D01*
X007902Y002539D02*
X010402Y002539D01*
X010452Y002589D01*
X010452Y007456D01*
X009993Y007914D01*
X009981Y008689D02*
X009993Y008702D01*
X009981Y008689D02*
X008452Y008689D01*
X007602Y007839D01*
X006802Y007439D02*
X008852Y005389D01*
X009252Y005389D01*
X009302Y004839D02*
X009352Y004839D01*
X009052Y004839D01*
X007902Y005989D01*
X007252Y005989D01*
X007002Y004839D02*
X007602Y004839D01*
X008702Y003739D01*
X008702Y003039D01*
X009152Y003439D02*
X009152Y004389D01*
X009502Y004289D02*
X009502Y003239D01*
X009702Y003039D01*
X009502Y004289D02*
X010002Y004789D01*
X007902Y002539D02*
X006852Y003589D01*
X006852Y003939D01*
X007602Y003939D01*
X007702Y004039D01*
X007002Y004839D02*
X005802Y006039D01*
X005452Y006039D01*
X005502Y005289D02*
X005502Y004839D01*
X005902Y004439D01*
X005902Y002639D01*
X006202Y002339D01*
X006202Y001539D01*
X006702Y001039D01*
M02*
