G75*
G70*
%OFA0B0*%
%FSLAX24Y24*%
%IPPOS*%
%LPD*%
%AMOC8*
5,1,8,0,0,1.08239X$1,22.5*
%
%ADD10C,0.0060*%
%ADD11R,0.0500X0.0220*%
%ADD12R,0.0220X0.0500*%
%ADD13C,0.0555*%
%ADD14R,0.0472X0.0217*%
%ADD15R,0.0354X0.0276*%
%ADD16R,0.0276X0.0354*%
%ADD17R,0.0394X0.1811*%
%ADD18R,0.0630X0.1339*%
%ADD19R,0.0315X0.0315*%
%ADD20R,0.0591X0.0512*%
%ADD21R,0.0394X0.0709*%
%ADD22R,0.0472X0.0197*%
%ADD23R,0.0197X0.0472*%
%ADD24R,0.0669X0.0276*%
%ADD25R,0.0390X0.0320*%
%ADD26R,0.0280X0.0590*%
%ADD27OC8,0.0640*%
%ADD28C,0.0100*%
%ADD29C,0.0080*%
%ADD30C,0.0436*%
D10*
X000394Y004564D02*
X000394Y004791D01*
X000394Y004677D02*
X000734Y004677D01*
X000621Y004791D01*
X000394Y004932D02*
X000394Y005159D01*
X000394Y005046D02*
X000734Y005046D01*
X000621Y005159D01*
X000678Y005301D02*
X000451Y005301D01*
X000394Y005357D01*
X000394Y005471D01*
X000451Y005527D01*
X000678Y005301D01*
X000734Y005357D01*
X000734Y005471D01*
X000678Y005527D01*
X000451Y005527D01*
X000394Y005669D02*
X000394Y005896D01*
X000621Y005669D01*
X000678Y005669D01*
X000734Y005726D01*
X000734Y005839D01*
X000678Y005896D01*
X000734Y006037D02*
X000394Y006264D01*
X000394Y006462D02*
X000734Y006462D01*
X000564Y006632D01*
X000564Y006405D01*
X000451Y006774D02*
X000394Y006831D01*
X000394Y006944D01*
X000451Y007001D01*
X000678Y006774D01*
X000451Y006774D01*
X000678Y006774D02*
X000734Y006831D01*
X000734Y006944D01*
X000678Y007001D01*
X000451Y007001D01*
X000564Y007510D02*
X000564Y007737D01*
X000564Y008247D02*
X000507Y008247D01*
X000507Y008474D01*
X000451Y008474D02*
X000564Y008474D01*
X000621Y008417D01*
X000621Y008304D01*
X000564Y008247D01*
X000394Y008417D02*
X000451Y008474D01*
X000394Y008417D02*
X000394Y008304D01*
X000394Y008615D02*
X000394Y008785D01*
X000451Y008842D01*
X000564Y008842D01*
X000621Y008785D01*
X000621Y008615D01*
X000337Y008615D01*
X000281Y008672D01*
X000281Y008729D01*
X000394Y008984D02*
X000394Y009154D01*
X000451Y009210D01*
X000507Y009154D01*
X000507Y008984D01*
X000564Y008984D02*
X000394Y008984D01*
X000564Y008984D02*
X000621Y009040D01*
X000621Y009154D01*
X000621Y009343D02*
X000621Y009456D01*
X000678Y009399D02*
X000451Y009399D01*
X000394Y009343D01*
X000451Y009597D02*
X000394Y009654D01*
X000394Y009768D01*
X000451Y009824D01*
X000564Y009768D02*
X000564Y009654D01*
X000507Y009597D01*
X000451Y009597D01*
X000564Y009768D02*
X000621Y009824D01*
X000678Y009824D01*
X000734Y009768D01*
X000734Y009654D01*
X000678Y009597D01*
X000564Y009966D02*
X000507Y009966D01*
X000507Y010193D01*
X000451Y010193D02*
X000564Y010193D01*
X000621Y010136D01*
X000621Y010022D01*
X000564Y009966D01*
X000394Y010022D02*
X000394Y010136D01*
X000451Y010193D01*
X000451Y010334D02*
X000394Y010391D01*
X000394Y010561D01*
X000507Y010504D02*
X000507Y010391D01*
X000451Y010334D01*
X000621Y010334D02*
X000621Y010504D01*
X000564Y010561D01*
X000507Y010504D01*
X000564Y010702D02*
X000394Y010702D01*
X000564Y010702D02*
X000621Y010759D01*
X000621Y010929D01*
X000394Y010929D01*
X000507Y011071D02*
X000507Y011298D01*
X000451Y011298D02*
X000564Y011298D01*
X000621Y011241D01*
X000621Y011127D01*
X000564Y011071D01*
X000507Y011071D01*
X000394Y011127D02*
X000394Y011241D01*
X000451Y011298D01*
X000451Y011439D02*
X000394Y011496D01*
X000394Y011609D01*
X000451Y011666D01*
X000564Y011609D02*
X000564Y011496D01*
X000507Y011439D01*
X000451Y011439D01*
X000564Y011609D02*
X000621Y011666D01*
X000678Y011666D01*
X000734Y011609D01*
X000734Y011496D01*
X000678Y011439D01*
D11*
X003156Y006562D03*
X003156Y006247D03*
X003156Y005932D03*
X003156Y005617D03*
X003156Y005303D03*
X003156Y004988D03*
X003156Y004673D03*
X003156Y004358D03*
X006536Y004358D03*
X006536Y004673D03*
X006536Y004988D03*
X006536Y005303D03*
X006536Y005617D03*
X006536Y005932D03*
X006536Y006247D03*
X006536Y006562D03*
D12*
X005948Y007150D03*
X005633Y007150D03*
X005318Y007150D03*
X005003Y007150D03*
X004688Y007150D03*
X004373Y007150D03*
X004058Y007150D03*
X003743Y007150D03*
X003743Y003770D03*
X004058Y003770D03*
X004373Y003770D03*
X004688Y003770D03*
X005003Y003770D03*
X005318Y003770D03*
X005633Y003770D03*
X005948Y003770D03*
D13*
X010003Y003980D03*
X010003Y004767D03*
X010003Y005554D03*
X010003Y006342D03*
X010003Y007129D03*
X010003Y007917D03*
X010003Y008704D03*
X010003Y009491D03*
X010003Y010279D03*
X010003Y011066D03*
X001342Y011066D03*
X001342Y010279D03*
X001342Y009491D03*
X001342Y008704D03*
X001342Y007917D03*
X001342Y007129D03*
X001342Y006342D03*
X001342Y005554D03*
X001342Y004767D03*
X001342Y003980D03*
D14*
X006000Y009068D03*
X006000Y009442D03*
X006000Y009816D03*
X007024Y009816D03*
X007024Y009068D03*
D15*
X007662Y010836D03*
X007662Y011348D03*
X008312Y011348D03*
X008312Y010836D03*
X009112Y008798D03*
X009112Y008286D03*
X007444Y005519D03*
X007444Y005007D03*
X002347Y005585D03*
X002347Y006097D03*
D16*
X002206Y003092D03*
X002718Y003092D03*
X005356Y007842D03*
X005356Y008342D03*
X005868Y008342D03*
X005868Y007842D03*
X008140Y005199D03*
X008652Y005199D03*
X008490Y003880D03*
X009002Y003880D03*
D17*
X004205Y010685D03*
X003418Y010685D03*
D18*
X002473Y012732D03*
X005150Y012732D03*
D19*
X009716Y012692D03*
X009716Y013242D03*
X010307Y013242D03*
X010307Y012692D03*
X010307Y012132D03*
X009716Y012132D03*
X001657Y002992D03*
X001066Y002992D03*
D20*
X005112Y009068D03*
X005112Y009816D03*
X007812Y009816D03*
X007812Y009068D03*
D21*
X006963Y010742D03*
X005860Y010742D03*
D22*
X008163Y007573D03*
X008163Y007258D03*
X008163Y006943D03*
X008163Y006629D03*
X008163Y006314D03*
X008163Y005999D03*
X009029Y005999D03*
X009029Y006314D03*
X009029Y006629D03*
X009029Y006943D03*
X009029Y007258D03*
X009029Y007573D03*
D23*
X008596Y007613D03*
X008596Y005959D03*
D24*
X002365Y004648D03*
X002365Y004176D03*
X002365Y003703D03*
D25*
X005925Y012378D03*
X005925Y013248D03*
X008795Y013248D03*
X008795Y012378D03*
D26*
X008240Y012128D03*
X007060Y012128D03*
X006470Y012128D03*
D27*
X000712Y001042D03*
X000712Y002042D03*
X001712Y002042D03*
X001712Y001042D03*
X002712Y001042D03*
X002712Y002042D03*
X003712Y002042D03*
X003712Y001042D03*
X004712Y001042D03*
X004712Y002042D03*
X005712Y002042D03*
X005712Y001042D03*
X006712Y001042D03*
X006712Y002042D03*
X006712Y003042D03*
X007712Y004042D03*
X007712Y002042D03*
X007712Y001042D03*
X008712Y001042D03*
X008712Y002042D03*
X009712Y002042D03*
X009712Y003042D03*
X009712Y001042D03*
X004712Y008042D03*
X003712Y008042D03*
X003712Y009042D03*
X002712Y009042D03*
X002712Y008042D03*
D28*
X002712Y007542D01*
X004058Y007542D01*
X004058Y007150D01*
X003743Y007150D02*
X003735Y007142D01*
X002312Y007142D01*
X001812Y006642D01*
X001812Y005242D01*
X001342Y004772D01*
X001342Y004767D01*
X002365Y004648D02*
X002390Y004673D01*
X003156Y004673D01*
X003156Y004988D02*
X003151Y004992D01*
X002512Y004992D01*
X002362Y005192D01*
X002362Y005571D01*
X002347Y005585D01*
X003123Y005585D01*
X003156Y005617D01*
X003156Y005932D02*
X003146Y005942D01*
X002712Y005942D01*
X002557Y006097D01*
X002347Y006097D01*
X002262Y006542D02*
X003135Y006542D01*
X003156Y006562D01*
X003156Y006247D02*
X003211Y006192D01*
X003762Y006192D01*
X003762Y004342D01*
X002812Y003392D01*
X002812Y003142D01*
X002712Y003142D01*
X002712Y003042D01*
X002812Y003142D01*
X003262Y003292D02*
X003262Y002892D01*
X003012Y002642D01*
X002212Y002642D01*
X002212Y001542D01*
X001212Y001542D01*
X000712Y001042D01*
X001712Y002042D02*
X001312Y002442D01*
X001062Y002442D01*
X000912Y002592D01*
X000562Y002592D01*
X000562Y003492D01*
X001662Y002992D02*
X001762Y003092D01*
X002162Y003092D01*
X002377Y003692D02*
X002365Y003703D01*
X002377Y003692D02*
X002712Y003692D01*
X003156Y004136D01*
X003156Y004358D01*
X003743Y003770D02*
X003743Y003073D01*
X002712Y002042D01*
X003212Y002242D02*
X003212Y001542D01*
X003712Y001042D01*
X004212Y001542D02*
X004712Y001042D01*
X004212Y001542D02*
X004212Y002242D01*
X004688Y002718D01*
X004688Y003770D01*
X004373Y003770D02*
X004373Y002703D01*
X003712Y002042D01*
X003212Y002242D02*
X004058Y003088D01*
X004058Y003770D01*
X004662Y004692D02*
X004362Y004992D01*
X004662Y004692D02*
X006516Y004692D01*
X006536Y004673D01*
X006536Y004988D02*
X006966Y004988D01*
X007262Y004692D01*
X007262Y002592D01*
X006712Y002042D01*
X006712Y003042D02*
X006712Y003342D01*
X006312Y003742D01*
X006312Y003942D01*
X006012Y004242D01*
X005633Y004242D01*
X005633Y003770D01*
X005633Y002121D01*
X005712Y002042D01*
X005318Y002448D02*
X005212Y002342D01*
X005212Y001542D01*
X005712Y001042D01*
X006212Y000792D02*
X006512Y000492D01*
X010012Y000492D01*
X010462Y000942D01*
X010462Y004292D01*
X010003Y004751D01*
X010003Y004767D01*
X009512Y004692D02*
X009362Y004842D01*
X009512Y004692D02*
X009512Y003892D01*
X010212Y003192D01*
X010212Y002342D01*
X009912Y002042D01*
X009712Y002042D01*
X009212Y001542D02*
X009212Y003342D01*
X009162Y003392D01*
X009002Y003880D02*
X009002Y005132D01*
X009262Y005392D01*
X009262Y005542D01*
X008762Y005542D01*
X008612Y005692D01*
X008612Y005944D01*
X008596Y005959D01*
X008412Y006342D02*
X008462Y006392D01*
X008762Y006392D01*
X008812Y006342D01*
X009001Y006342D01*
X009029Y006314D01*
X009066Y006592D02*
X009029Y006629D01*
X009066Y006592D02*
X009312Y006592D01*
X009412Y006692D01*
X009412Y007392D01*
X009230Y007573D01*
X009029Y007573D01*
X008990Y007613D02*
X008596Y007613D01*
X008612Y007628D01*
X008612Y008242D01*
X006312Y008242D01*
X006212Y008342D01*
X005868Y008342D01*
X005868Y007842D02*
X007612Y007842D01*
X007612Y007242D02*
X007910Y006943D01*
X008163Y006943D01*
X009029Y006943D01*
X009312Y006592D02*
X009412Y006492D01*
X009412Y006092D01*
X009318Y005999D01*
X009029Y005999D01*
X008412Y006342D02*
X008362Y006342D01*
X008333Y006314D01*
X008163Y006314D01*
X008163Y006629D01*
X008163Y006943D01*
X008163Y005999D02*
X007755Y005999D01*
X007012Y006742D01*
X007012Y007242D01*
X006712Y007542D01*
X005412Y007542D01*
X005312Y007442D01*
X005312Y007156D01*
X005318Y007150D01*
X005633Y007150D02*
X005633Y006763D01*
X005112Y006242D01*
X005112Y005642D01*
X005462Y006042D02*
X005948Y006528D01*
X005948Y007150D01*
X006512Y007042D02*
X006512Y006586D01*
X006536Y006562D01*
X006536Y006247D02*
X006541Y006242D01*
X007012Y006242D01*
X007262Y005992D01*
X006932Y005617D02*
X007031Y005519D01*
X007444Y005519D01*
X007444Y005007D02*
X007227Y005007D01*
X006932Y005303D01*
X006536Y005303D01*
X006536Y005617D02*
X006932Y005617D01*
X006536Y005932D02*
X006526Y005942D01*
X005912Y005942D01*
X005512Y005542D01*
X005512Y005292D01*
X004812Y006492D02*
X005003Y006683D01*
X005003Y007150D01*
X004688Y007150D02*
X004688Y008018D01*
X004712Y008042D01*
X005012Y008342D01*
X005356Y008342D01*
X005356Y007842D02*
X004912Y007842D01*
X004712Y008042D01*
X004373Y007580D02*
X004373Y007150D01*
X004373Y007580D02*
X004212Y007742D01*
X004212Y008542D01*
X003212Y008542D01*
X002712Y009042D01*
X001912Y007699D02*
X001342Y007129D01*
X001912Y007699D02*
X001912Y011442D01*
X002412Y011442D01*
X004205Y010685D02*
X004362Y010842D01*
X004862Y010842D01*
X005860Y010565D02*
X005112Y009816D01*
X005112Y009068D02*
X005338Y009068D01*
X006000Y009068D02*
X006288Y009068D01*
X006412Y009192D01*
X006412Y009692D01*
X006312Y009792D01*
X006024Y009792D01*
X006000Y009816D01*
X006000Y010603D01*
X005860Y010742D01*
X005860Y010565D01*
X006470Y011235D02*
X006963Y010742D01*
X006470Y011235D02*
X006470Y012128D01*
X007012Y011542D02*
X007060Y011590D01*
X007060Y012128D01*
X007462Y011592D02*
X007662Y011392D01*
X007662Y011342D01*
X007462Y011592D02*
X007462Y013042D01*
X007712Y013292D01*
X008212Y013292D01*
X008662Y012842D01*
X009062Y012842D01*
X009412Y013192D01*
X009662Y013192D01*
X009716Y012692D02*
X009712Y012692D01*
X009716Y012692D02*
X008372Y011348D01*
X008312Y011348D01*
X008312Y010836D02*
X008312Y010542D01*
X007812Y010042D01*
X007812Y009816D01*
X008288Y009816D01*
X008612Y009492D01*
X008612Y008242D01*
X009112Y008242D02*
X009512Y007842D01*
X009512Y007621D01*
X010003Y007129D01*
X009112Y008242D02*
X009112Y008286D01*
X009112Y008842D02*
X009112Y010692D01*
X009612Y011192D01*
X009612Y012042D01*
X009712Y012142D01*
X009712Y012092D01*
X010307Y012132D02*
X010307Y012692D01*
X010307Y013242D01*
X007812Y009816D02*
X007024Y009816D01*
X007612Y010392D02*
X007662Y010442D01*
X007662Y010836D01*
X007638Y009068D02*
X007812Y009068D01*
X006000Y009442D02*
X005950Y009392D01*
X008163Y005999D02*
X008162Y005997D01*
X008162Y005221D01*
X008140Y005199D01*
X008212Y005128D01*
X008212Y003342D01*
X007712Y002842D01*
X007712Y002042D01*
X008212Y001542D02*
X008212Y003090D01*
X009002Y003880D01*
X008612Y004392D02*
X008490Y004271D01*
X008490Y003880D01*
X008612Y004392D02*
X008662Y004442D01*
X008662Y005190D01*
X008652Y005199D01*
X008712Y003042D02*
X008712Y002042D01*
X008212Y001542D02*
X007712Y001042D01*
X006212Y000792D02*
X006212Y003042D01*
X005948Y003306D01*
X005948Y003770D01*
X006536Y004268D02*
X006862Y003942D01*
X006536Y004268D02*
X006536Y004358D01*
X005318Y003770D02*
X005318Y002448D01*
X005003Y002333D02*
X004712Y002042D01*
X005003Y002333D02*
X005003Y003770D01*
X009212Y001542D02*
X009712Y001042D01*
D29*
X008052Y004310D02*
X007890Y004472D01*
X007534Y004472D01*
X007422Y004360D01*
X007422Y004758D01*
X007420Y004759D01*
X007667Y004759D01*
X007731Y004824D01*
X007731Y005191D01*
X007672Y005250D01*
X007675Y005251D01*
X007707Y005269D01*
X007733Y005295D01*
X007752Y005327D01*
X007761Y005363D01*
X007761Y005490D01*
X007473Y005490D01*
X007473Y005548D01*
X007761Y005548D01*
X007761Y005675D01*
X007752Y005711D01*
X007733Y005743D01*
X007707Y005769D01*
X007675Y005787D01*
X007640Y005797D01*
X007531Y005797D01*
X007540Y005806D01*
X007590Y005927D01*
X007590Y005938D01*
X007689Y005839D01*
X007821Y005839D01*
X007833Y005839D01*
X007881Y005790D01*
X008002Y005790D01*
X008002Y005486D01*
X007957Y005486D01*
X007893Y005422D01*
X007893Y004977D01*
X007957Y004912D01*
X008052Y004912D01*
X008052Y004310D01*
X008052Y004326D02*
X008035Y004326D01*
X008052Y004405D02*
X007957Y004405D01*
X008052Y004483D02*
X007422Y004483D01*
X007422Y004405D02*
X007466Y004405D01*
X007422Y004562D02*
X008052Y004562D01*
X008052Y004640D02*
X007422Y004640D01*
X007422Y004719D02*
X008052Y004719D01*
X008052Y004797D02*
X007705Y004797D01*
X007731Y004876D02*
X008052Y004876D01*
X007915Y004954D02*
X007731Y004954D01*
X007731Y005033D02*
X007893Y005033D01*
X007893Y005112D02*
X007731Y005112D01*
X007731Y005190D02*
X007893Y005190D01*
X007893Y005269D02*
X007706Y005269D01*
X007757Y005347D02*
X007893Y005347D01*
X007896Y005426D02*
X007761Y005426D01*
X007761Y005583D02*
X008002Y005583D01*
X008002Y005661D02*
X007761Y005661D01*
X007735Y005740D02*
X008002Y005740D01*
X007853Y005818D02*
X007545Y005818D01*
X007577Y005897D02*
X007630Y005897D01*
X007788Y006191D02*
X007172Y006808D01*
X007172Y007176D01*
X007172Y007308D01*
X006872Y007608D01*
X006798Y007682D01*
X007323Y007682D01*
X007334Y007656D01*
X007426Y007564D01*
X007546Y007514D01*
X007677Y007514D01*
X007797Y007564D01*
X007817Y007583D01*
X007817Y007429D01*
X007831Y007416D01*
X007817Y007402D01*
X007817Y007130D01*
X007815Y007128D01*
X007797Y007096D01*
X007787Y007060D01*
X007787Y006953D01*
X008154Y006953D01*
X008154Y006934D01*
X008172Y006934D01*
X008172Y006705D01*
X008172Y006638D01*
X008154Y006638D01*
X008154Y006705D01*
X008154Y006934D01*
X007787Y006934D01*
X007787Y006827D01*
X007797Y006791D01*
X007799Y006786D01*
X007797Y006781D01*
X007787Y006745D01*
X007787Y006638D01*
X008154Y006638D01*
X008154Y006619D01*
X008172Y006619D01*
X008172Y006390D01*
X008172Y006323D01*
X008154Y006323D01*
X008154Y006390D01*
X008154Y006619D01*
X007787Y006619D01*
X007787Y006512D01*
X007797Y006476D01*
X007799Y006471D01*
X007797Y006466D01*
X007787Y006430D01*
X007787Y006323D01*
X008154Y006323D01*
X008154Y006304D01*
X007787Y006304D01*
X007787Y006197D01*
X007788Y006191D01*
X007787Y006211D02*
X007769Y006211D01*
X007787Y006290D02*
X007690Y006290D01*
X007611Y006368D02*
X007787Y006368D01*
X007791Y006447D02*
X007533Y006447D01*
X007454Y006525D02*
X007787Y006525D01*
X007787Y006604D02*
X007376Y006604D01*
X007297Y006682D02*
X007787Y006682D01*
X007791Y006761D02*
X007219Y006761D01*
X007172Y006840D02*
X007787Y006840D01*
X007787Y006918D02*
X007172Y006918D01*
X007172Y006997D02*
X007787Y006997D01*
X007791Y007075D02*
X007172Y007075D01*
X007172Y007154D02*
X007817Y007154D01*
X007817Y007232D02*
X007172Y007232D01*
X007169Y007311D02*
X007817Y007311D01*
X007817Y007389D02*
X007090Y007389D01*
X007012Y007468D02*
X007817Y007468D01*
X007817Y007546D02*
X007756Y007546D01*
X007468Y007546D02*
X006933Y007546D01*
X006855Y007625D02*
X007365Y007625D01*
X008173Y006953D02*
X008539Y006953D01*
X008539Y007060D01*
X008530Y007096D01*
X008511Y007128D01*
X008509Y007130D01*
X008509Y007267D01*
X008740Y007267D01*
X008741Y007268D01*
X009020Y007268D01*
X009020Y007249D01*
X009039Y007249D01*
X009039Y007182D01*
X009039Y006953D01*
X009020Y006953D01*
X009020Y007182D01*
X009020Y007249D01*
X008653Y007249D01*
X008653Y007142D01*
X008663Y007106D01*
X008666Y007101D01*
X008663Y007096D01*
X008653Y007060D01*
X008653Y006953D01*
X009020Y006953D01*
X009020Y006934D01*
X008653Y006934D01*
X008653Y006827D01*
X008663Y006791D01*
X008681Y006759D01*
X008683Y006757D01*
X008683Y006500D01*
X008681Y006498D01*
X008663Y006466D01*
X008653Y006430D01*
X008653Y006323D01*
X009020Y006323D01*
X009020Y006304D01*
X008741Y006304D01*
X008740Y006305D01*
X008452Y006305D01*
X008451Y006304D01*
X008173Y006304D01*
X008173Y006323D01*
X008539Y006323D01*
X008539Y006430D01*
X008530Y006466D01*
X008527Y006471D01*
X008530Y006476D01*
X008539Y006512D01*
X008539Y006619D01*
X008173Y006619D01*
X008173Y006638D01*
X008539Y006638D01*
X008539Y006745D01*
X008530Y006781D01*
X008527Y006786D01*
X008530Y006791D01*
X008539Y006827D01*
X008539Y006934D01*
X008173Y006934D01*
X008173Y006953D01*
X008172Y006918D02*
X008154Y006918D01*
X008154Y006840D02*
X008172Y006840D01*
X008172Y006761D02*
X008154Y006761D01*
X008154Y006682D02*
X008172Y006682D01*
X008172Y006604D02*
X008154Y006604D01*
X008154Y006525D02*
X008172Y006525D01*
X008172Y006447D02*
X008154Y006447D01*
X008154Y006368D02*
X008172Y006368D01*
X008539Y006368D02*
X008653Y006368D01*
X008658Y006447D02*
X008535Y006447D01*
X008539Y006525D02*
X008683Y006525D01*
X008683Y006604D02*
X008539Y006604D01*
X008539Y006682D02*
X008683Y006682D01*
X008680Y006761D02*
X008535Y006761D01*
X008539Y006840D02*
X008653Y006840D01*
X008653Y006918D02*
X008539Y006918D01*
X008539Y006997D02*
X008653Y006997D01*
X008657Y007075D02*
X008535Y007075D01*
X008509Y007154D02*
X008653Y007154D01*
X008653Y007232D02*
X008509Y007232D01*
X008805Y007782D02*
X008805Y007895D01*
X008772Y007928D01*
X008772Y008176D01*
X008772Y008308D01*
X008772Y009558D01*
X008678Y009652D01*
X008354Y009976D01*
X008221Y009976D01*
X008217Y009976D01*
X008217Y010117D01*
X008165Y010169D01*
X008378Y010382D01*
X008472Y010476D01*
X008472Y010588D01*
X008534Y010588D01*
X008599Y010653D01*
X008599Y011019D01*
X008534Y011084D01*
X008089Y011084D01*
X008024Y011019D01*
X008024Y010653D01*
X008089Y010588D01*
X008132Y010588D01*
X007940Y010396D01*
X007940Y010457D01*
X007890Y010578D01*
X007879Y010588D01*
X007884Y010588D01*
X007949Y010653D01*
X007949Y011019D01*
X007884Y011084D01*
X007439Y011084D01*
X007374Y011019D01*
X007374Y010653D01*
X007391Y010636D01*
X007334Y010578D01*
X007284Y010457D01*
X007284Y010327D01*
X007334Y010206D01*
X007414Y010125D01*
X007406Y010117D01*
X007406Y009976D01*
X007364Y009976D01*
X007305Y010034D01*
X006742Y010034D01*
X006677Y009970D01*
X006677Y009662D01*
X006742Y009598D01*
X007305Y009598D01*
X007364Y009656D01*
X007406Y009656D01*
X007406Y009514D01*
X007466Y009455D01*
X007462Y009454D01*
X007430Y009436D01*
X007404Y009410D01*
X007386Y009378D01*
X007376Y009342D01*
X007376Y009108D01*
X007771Y009108D01*
X007771Y009028D01*
X007376Y009028D01*
X007376Y008794D01*
X007386Y008758D01*
X007404Y008726D01*
X007430Y008700D01*
X007462Y008681D01*
X007498Y008672D01*
X007772Y008672D01*
X007772Y009028D01*
X007852Y009028D01*
X007852Y009108D01*
X008247Y009108D01*
X008247Y009342D01*
X008237Y009378D01*
X008219Y009410D01*
X008193Y009436D01*
X008161Y009454D01*
X008158Y009455D01*
X008217Y009514D01*
X008217Y009656D01*
X008221Y009656D01*
X008452Y009426D01*
X008452Y008402D01*
X006600Y008402D01*
X006590Y008428D01*
X006497Y008520D01*
X006377Y008570D01*
X006246Y008570D01*
X006126Y008520D01*
X006115Y008509D01*
X006115Y008565D01*
X006051Y008629D01*
X005684Y008629D01*
X005620Y008565D01*
X005620Y008119D01*
X005647Y008092D01*
X005620Y008065D01*
X005620Y007702D01*
X005604Y007702D01*
X005604Y008065D01*
X005576Y008092D01*
X005604Y008119D01*
X005604Y008565D01*
X005539Y008629D01*
X005172Y008629D01*
X005108Y008565D01*
X005108Y008502D01*
X005078Y008502D01*
X004945Y008502D01*
X004903Y008459D01*
X004890Y008472D01*
X004534Y008472D01*
X004372Y008310D01*
X004372Y008476D01*
X004372Y008608D01*
X004278Y008702D01*
X004022Y008702D01*
X004172Y008851D01*
X004172Y009002D01*
X003752Y009002D01*
X003752Y009082D01*
X004172Y009082D01*
X004172Y009232D01*
X003902Y009502D01*
X003752Y009502D01*
X003752Y009082D01*
X003672Y009082D01*
X003672Y009502D01*
X003521Y009502D01*
X003252Y009232D01*
X003252Y009082D01*
X003671Y009082D01*
X003671Y009002D01*
X003252Y009002D01*
X003252Y008851D01*
X003401Y008702D01*
X003278Y008702D01*
X003129Y008851D01*
X003142Y008864D01*
X003142Y009220D01*
X002890Y009472D01*
X002534Y009472D01*
X002282Y009220D01*
X002282Y008864D01*
X002534Y008612D01*
X002890Y008612D01*
X002903Y008625D01*
X003145Y008382D01*
X003278Y008382D01*
X003444Y008382D01*
X003282Y008220D01*
X003282Y007864D01*
X003444Y007702D01*
X002980Y007702D01*
X003142Y007864D01*
X003142Y008220D01*
X002890Y008472D01*
X002534Y008472D01*
X002282Y008220D01*
X002282Y007864D01*
X002534Y007612D01*
X002552Y007612D01*
X002552Y007608D01*
X002552Y007476D01*
X002645Y007382D01*
X003523Y007382D01*
X003523Y007302D01*
X002245Y007302D01*
X002152Y007208D01*
X001652Y006708D01*
X001652Y006580D01*
X001561Y006670D01*
X001419Y006729D01*
X001264Y006729D01*
X001122Y006670D01*
X001013Y006561D01*
X000954Y006419D01*
X000954Y006265D01*
X001013Y006122D01*
X001122Y006013D01*
X001264Y005954D01*
X001419Y005954D01*
X001561Y006013D01*
X001652Y006104D01*
X001652Y005792D01*
X001561Y005883D01*
X001419Y005942D01*
X001264Y005942D01*
X001122Y005883D01*
X001013Y005774D01*
X000954Y005632D01*
X000954Y005477D01*
X001013Y005335D01*
X001122Y005226D01*
X001264Y005167D01*
X001419Y005167D01*
X001561Y005226D01*
X001652Y005317D01*
X001652Y005308D01*
X001475Y005131D01*
X001419Y005155D01*
X001264Y005155D01*
X001122Y005096D01*
X001013Y004987D01*
X000954Y004844D01*
X000954Y004690D01*
X001013Y004548D01*
X001122Y004439D01*
X001246Y004387D01*
X001244Y004387D01*
X001181Y004367D01*
X001123Y004337D01*
X001070Y004298D01*
X001023Y004252D01*
X000985Y004198D01*
X000955Y004140D01*
X000934Y004077D01*
X000925Y004018D01*
X001303Y004018D01*
X001303Y003941D01*
X001380Y003941D01*
X001380Y003563D01*
X001439Y003572D01*
X001502Y003593D01*
X001560Y003623D01*
X001614Y003661D01*
X001660Y003708D01*
X001699Y003761D01*
X001728Y003819D01*
X001749Y003882D01*
X001758Y003941D01*
X001381Y003941D01*
X001381Y004018D01*
X001758Y004018D01*
X001749Y004077D01*
X001728Y004140D01*
X001699Y004198D01*
X001660Y004252D01*
X001614Y004298D01*
X001560Y004337D01*
X001502Y004367D01*
X001439Y004387D01*
X001437Y004387D01*
X001561Y004439D01*
X001670Y004548D01*
X001729Y004690D01*
X001729Y004844D01*
X001703Y004907D01*
X001878Y005082D01*
X001972Y005176D01*
X001972Y006385D01*
X001984Y006356D01*
X002044Y006296D01*
X002039Y006289D01*
X002030Y006253D01*
X002030Y006126D01*
X002318Y006126D01*
X002318Y006068D01*
X002030Y006068D01*
X002030Y005941D01*
X002039Y005905D01*
X002058Y005873D01*
X002084Y005847D01*
X002116Y005829D01*
X002119Y005828D01*
X002060Y005769D01*
X002060Y005402D01*
X002084Y005378D01*
X002084Y005378D01*
X002034Y005257D01*
X002034Y005127D01*
X002084Y005006D01*
X002176Y004914D01*
X002219Y004896D01*
X001985Y004896D01*
X001921Y004832D01*
X001921Y004465D01*
X001954Y004431D01*
X001945Y004426D01*
X001919Y004399D01*
X001900Y004368D01*
X001891Y004332D01*
X001891Y004205D01*
X002336Y004205D01*
X002336Y004147D01*
X001891Y004147D01*
X001891Y004019D01*
X001900Y003984D01*
X001919Y003952D01*
X001945Y003926D01*
X001954Y003920D01*
X001921Y003887D01*
X001921Y003520D01*
X001985Y003456D01*
X002652Y003456D01*
X002652Y003379D01*
X002534Y003379D01*
X002470Y003315D01*
X002470Y002869D01*
X002534Y002805D01*
X002901Y002805D01*
X002965Y002869D01*
X002965Y003069D01*
X002972Y003076D01*
X002972Y003135D01*
X002984Y003106D01*
X003076Y003014D01*
X003102Y003003D01*
X003102Y002958D01*
X002945Y002802D01*
X002145Y002802D01*
X002052Y002708D01*
X002052Y002576D01*
X002052Y002310D01*
X001890Y002472D01*
X001534Y002472D01*
X001521Y002459D01*
X001472Y002508D01*
X001378Y002602D01*
X001128Y002602D01*
X001072Y002658D01*
X001028Y002702D01*
X001028Y002953D01*
X001105Y002953D01*
X001105Y002694D01*
X001242Y002694D01*
X001278Y002704D01*
X001310Y002722D01*
X001336Y002748D01*
X001354Y002780D01*
X001364Y002816D01*
X001364Y002953D01*
X001105Y002953D01*
X001105Y003031D01*
X001028Y003031D01*
X001028Y003289D01*
X000890Y003289D01*
X000855Y003280D01*
X000823Y003261D01*
X000797Y003235D01*
X000778Y003203D01*
X000769Y003168D01*
X000769Y003031D01*
X001027Y003031D01*
X001027Y002953D01*
X000769Y002953D01*
X000769Y002816D01*
X000778Y002780D01*
X000795Y002752D01*
X000722Y002752D01*
X000722Y003203D01*
X000747Y003214D01*
X000840Y003306D01*
X000890Y003427D01*
X000890Y003557D01*
X000840Y003678D01*
X000747Y003770D01*
X000627Y003820D01*
X000496Y003820D01*
X000376Y003770D01*
X000332Y003726D01*
X000332Y004428D01*
X000336Y004424D01*
X000452Y004424D01*
X000534Y004506D01*
X000534Y004537D01*
X000792Y004537D01*
X000874Y004619D01*
X000874Y004735D01*
X000792Y004817D01*
X000704Y004906D01*
X000792Y004906D01*
X000874Y004988D01*
X000874Y005104D01*
X000792Y005186D01*
X000776Y005201D01*
X000818Y005243D01*
X000874Y005299D01*
X000874Y005413D01*
X000874Y005470D01*
X000874Y005529D01*
X000805Y005598D01*
X000874Y005668D01*
X000874Y005781D01*
X000874Y005781D01*
X000874Y005840D01*
X000874Y005897D01*
X000873Y005898D01*
X000835Y005936D01*
X000883Y006008D01*
X000860Y006121D01*
X000631Y006274D01*
X000679Y006322D01*
X000792Y006322D01*
X000793Y006323D01*
X000874Y006404D01*
X000874Y006520D01*
X000872Y006522D01*
X000792Y006602D01*
X000748Y006646D01*
X000818Y006716D01*
X000874Y006772D01*
X000874Y006886D01*
X000874Y006886D01*
X000874Y006943D01*
X000874Y007002D01*
X000792Y007084D01*
X000736Y007141D01*
X000736Y007141D01*
X000735Y007141D02*
X000677Y007141D01*
X000509Y007141D01*
X000393Y007141D01*
X000332Y007079D01*
X000332Y008168D01*
X000336Y008164D01*
X000393Y008164D01*
X000449Y008107D01*
X000565Y008107D01*
X000622Y008107D01*
X000704Y008189D01*
X000761Y008246D01*
X000761Y008359D01*
X000761Y008417D01*
X000761Y008475D01*
X000720Y008516D01*
X000761Y008557D01*
X000761Y008727D01*
X000761Y008728D01*
X000761Y008786D01*
X000761Y008843D01*
X000761Y008844D01*
X000760Y008844D01*
X000691Y008913D01*
X000704Y008926D01*
X000761Y008982D01*
X000761Y009098D01*
X000761Y009212D01*
X000724Y009248D01*
X000761Y009285D01*
X000818Y009341D01*
X000818Y009457D01*
X000776Y009498D01*
X000792Y009514D01*
X000874Y009596D01*
X000874Y009710D01*
X000874Y009768D01*
X000874Y009826D01*
X000873Y009827D01*
X000792Y009908D01*
X000748Y009952D01*
X000761Y009964D01*
X000761Y010078D01*
X000761Y010135D01*
X000761Y010194D01*
X000720Y010235D01*
X000761Y010276D01*
X000761Y010446D01*
X000761Y010504D01*
X000761Y010562D01*
X000691Y010632D01*
X000704Y010644D01*
X000761Y010701D01*
X000761Y010817D01*
X000761Y010987D01*
X000720Y011028D01*
X000761Y011069D01*
X000761Y011183D01*
X000761Y011240D01*
X000761Y011299D01*
X000748Y011312D01*
X000792Y011356D01*
X000874Y011438D01*
X000874Y011551D01*
X000874Y011551D01*
X000874Y011610D01*
X000874Y011667D01*
X000873Y011668D01*
X000792Y011749D01*
X000736Y011806D01*
X000736Y011806D01*
X000735Y011806D02*
X000678Y011806D01*
X000621Y011806D01*
X000563Y011806D01*
X000563Y011806D01*
X000563Y011806D01*
X000536Y011779D01*
X000509Y011806D01*
X000393Y011806D01*
X000332Y011745D01*
X000332Y013508D01*
X002109Y013508D01*
X002048Y013447D01*
X002048Y012913D01*
X002014Y012995D01*
X001781Y013228D01*
X001476Y013354D01*
X001147Y013354D01*
X000842Y013228D01*
X000609Y012995D01*
X000483Y012690D01*
X000483Y012360D01*
X000609Y012056D01*
X000842Y011823D01*
X001147Y011697D01*
X001476Y011697D01*
X001781Y011823D01*
X002014Y012056D01*
X002048Y012138D01*
X002048Y012018D01*
X002113Y011953D01*
X002834Y011953D01*
X002898Y012018D01*
X002898Y013447D01*
X002838Y013508D01*
X004786Y013508D01*
X004725Y013447D01*
X004725Y012018D01*
X004790Y011953D01*
X005511Y011953D01*
X005575Y012018D01*
X005575Y013447D01*
X005515Y013508D01*
X005674Y013508D01*
X005620Y013453D01*
X005620Y013042D01*
X005684Y012978D01*
X006165Y012978D01*
X006230Y013042D01*
X006230Y013453D01*
X006175Y013508D01*
X008544Y013508D01*
X008490Y013453D01*
X008490Y013240D01*
X008372Y013358D01*
X008278Y013452D01*
X007778Y013452D01*
X007645Y013452D01*
X007395Y013202D01*
X007302Y013108D01*
X007302Y012476D01*
X007245Y012533D01*
X006874Y012533D01*
X006810Y012468D01*
X006810Y011804D01*
X006734Y011728D01*
X006684Y011607D01*
X006684Y011477D01*
X006734Y011356D01*
X006826Y011264D01*
X006946Y011214D01*
X007077Y011214D01*
X007197Y011264D01*
X007290Y011356D01*
X007340Y011477D01*
X007340Y011488D01*
X007374Y011453D01*
X007374Y011164D01*
X007439Y011100D01*
X007884Y011100D01*
X007949Y011164D01*
X007949Y011531D01*
X007884Y011596D01*
X007684Y011596D01*
X007622Y011658D01*
X007622Y012976D01*
X007778Y013132D01*
X008145Y013132D01*
X008595Y012682D01*
X008728Y012682D01*
X009128Y012682D01*
X009222Y012776D01*
X009467Y013021D01*
X009513Y012974D01*
X009919Y012974D01*
X009984Y013039D01*
X009984Y013445D01*
X009921Y013508D01*
X010060Y013508D01*
X010037Y013485D01*
X010019Y013453D01*
X010009Y013418D01*
X010009Y013281D01*
X010268Y013281D01*
X010268Y013203D01*
X010009Y013203D01*
X010009Y013066D01*
X010019Y013030D01*
X010037Y012998D01*
X010063Y012972D01*
X010073Y012967D01*
X010063Y012961D01*
X010037Y012935D01*
X010019Y012903D01*
X010009Y012868D01*
X010009Y012731D01*
X010268Y012731D01*
X010268Y012944D01*
X010268Y013203D01*
X010346Y013203D01*
X010346Y012944D01*
X010346Y012731D01*
X010268Y012731D01*
X010268Y012653D01*
X010009Y012653D01*
X010009Y012516D01*
X010019Y012480D01*
X010037Y012448D01*
X010063Y012422D01*
X010082Y012412D01*
X010063Y012401D01*
X010037Y012375D01*
X010019Y012343D01*
X010009Y012308D01*
X010009Y012171D01*
X010268Y012171D01*
X010268Y012429D01*
X010268Y012653D01*
X010346Y012653D01*
X010346Y012394D01*
X010346Y012171D01*
X010268Y012171D01*
X010268Y012093D01*
X010009Y012093D01*
X010009Y011956D01*
X010019Y011920D01*
X010037Y011888D01*
X010063Y011862D01*
X010095Y011844D01*
X010131Y011834D01*
X010268Y011834D01*
X010268Y012093D01*
X010346Y012093D01*
X010346Y011834D01*
X010483Y011834D01*
X010518Y011844D01*
X010525Y011848D01*
X010525Y004455D01*
X010361Y004619D01*
X010390Y004690D01*
X010390Y004844D01*
X010331Y004987D01*
X010222Y005096D01*
X010080Y005155D01*
X009926Y005155D01*
X009784Y005096D01*
X009674Y004987D01*
X009666Y004965D01*
X009640Y005028D01*
X009547Y005120D01*
X009481Y005147D01*
X009540Y005206D01*
X009590Y005327D01*
X009590Y005457D01*
X009540Y005578D01*
X009447Y005670D01*
X009327Y005720D01*
X009196Y005720D01*
X009153Y005702D01*
X008828Y005702D01*
X008805Y005725D01*
X008805Y005790D01*
X009311Y005790D01*
X009360Y005839D01*
X009385Y005839D01*
X009478Y005932D01*
X009572Y006026D01*
X009572Y006426D01*
X009572Y006558D01*
X009538Y006592D01*
X009572Y006626D01*
X009572Y006758D01*
X009572Y007334D01*
X009640Y007266D01*
X009616Y007206D01*
X009616Y007052D01*
X009674Y006910D01*
X009784Y006801D01*
X009926Y006742D01*
X010080Y006742D01*
X010222Y006801D01*
X010331Y006910D01*
X010390Y007052D01*
X010390Y007206D01*
X010331Y007349D01*
X010222Y007458D01*
X010080Y007517D01*
X009926Y007517D01*
X009866Y007492D01*
X009672Y007687D01*
X009672Y007704D01*
X009674Y007697D01*
X009784Y007588D01*
X009926Y007529D01*
X010080Y007529D01*
X010222Y007588D01*
X010331Y007697D01*
X010390Y007840D01*
X010390Y007994D01*
X010331Y008136D01*
X010222Y008245D01*
X010080Y008304D01*
X009926Y008304D01*
X009784Y008245D01*
X009674Y008136D01*
X009616Y007994D01*
X009616Y007964D01*
X009578Y008002D01*
X009399Y008181D01*
X009399Y008469D01*
X009334Y008534D01*
X008889Y008534D01*
X008824Y008469D01*
X008824Y008103D01*
X008889Y008038D01*
X009089Y008038D01*
X009352Y007776D01*
X009352Y007741D01*
X009311Y007782D01*
X008805Y007782D01*
X009345Y007782D01*
X009267Y007861D02*
X008805Y007861D01*
X008772Y007939D02*
X009188Y007939D01*
X009110Y008018D02*
X008772Y008018D01*
X008772Y008096D02*
X008831Y008096D01*
X008824Y008175D02*
X008772Y008175D01*
X008772Y008253D02*
X008824Y008253D01*
X008824Y008332D02*
X008772Y008332D01*
X008772Y008410D02*
X008824Y008410D01*
X008844Y008489D02*
X008772Y008489D01*
X008772Y008567D02*
X008871Y008567D01*
X008889Y008550D02*
X009334Y008550D01*
X009399Y008614D01*
X009399Y008981D01*
X009334Y009046D01*
X009272Y009046D01*
X009272Y010626D01*
X009621Y010975D01*
X009674Y010847D01*
X009784Y010738D01*
X009926Y010679D01*
X010080Y010679D01*
X010222Y010738D01*
X010331Y010847D01*
X010390Y010989D01*
X010390Y011143D01*
X010331Y011286D01*
X010222Y011395D01*
X010525Y011395D01*
X010525Y011316D02*
X010301Y011316D01*
X010351Y011238D02*
X010525Y011238D01*
X010525Y011159D02*
X010384Y011159D01*
X010390Y011081D02*
X010525Y011081D01*
X010525Y011002D02*
X010390Y011002D01*
X010363Y010924D02*
X010525Y010924D01*
X010525Y010845D02*
X010330Y010845D01*
X010251Y010767D02*
X010525Y010767D01*
X010525Y010688D02*
X010103Y010688D01*
X010080Y010666D02*
X009926Y010666D01*
X009784Y010607D01*
X009674Y010498D01*
X009616Y010356D01*
X009616Y010202D01*
X009674Y010059D01*
X009784Y009950D01*
X009926Y009891D01*
X010080Y009891D01*
X010222Y009950D01*
X010331Y010059D01*
X010390Y010202D01*
X010390Y010356D01*
X010331Y010498D01*
X010222Y010607D01*
X010080Y010666D01*
X010217Y010610D02*
X010525Y010610D01*
X010525Y010531D02*
X010299Y010531D01*
X010350Y010453D02*
X010525Y010453D01*
X010525Y010374D02*
X010383Y010374D01*
X010390Y010295D02*
X010525Y010295D01*
X010525Y010217D02*
X010390Y010217D01*
X010364Y010138D02*
X010525Y010138D01*
X010525Y010060D02*
X010332Y010060D01*
X010253Y009981D02*
X010525Y009981D01*
X010525Y009903D02*
X010107Y009903D01*
X010080Y009879D02*
X009926Y009879D01*
X009784Y009820D01*
X009674Y009711D01*
X009616Y009569D01*
X009616Y009414D01*
X009674Y009272D01*
X009784Y009163D01*
X009926Y009104D01*
X010080Y009104D01*
X010222Y009163D01*
X010331Y009272D01*
X010390Y009414D01*
X010390Y009569D01*
X010331Y009711D01*
X010222Y009820D01*
X010080Y009879D01*
X010212Y009824D02*
X010525Y009824D01*
X010525Y009746D02*
X010297Y009746D01*
X010350Y009667D02*
X010525Y009667D01*
X010525Y009589D02*
X010382Y009589D01*
X010390Y009510D02*
X010525Y009510D01*
X010525Y009431D02*
X010390Y009431D01*
X010365Y009353D02*
X010525Y009353D01*
X010525Y009274D02*
X010332Y009274D01*
X010255Y009196D02*
X010525Y009196D01*
X010525Y009117D02*
X010112Y009117D01*
X010080Y009092D02*
X009926Y009092D01*
X009784Y009033D01*
X009674Y008924D01*
X009616Y008781D01*
X009616Y008627D01*
X009674Y008485D01*
X009784Y008376D01*
X009926Y008317D01*
X010080Y008317D01*
X010222Y008376D01*
X010331Y008485D01*
X010390Y008627D01*
X010390Y008781D01*
X010331Y008924D01*
X010222Y009033D01*
X010080Y009092D01*
X010208Y009039D02*
X010525Y009039D01*
X010525Y008960D02*
X010295Y008960D01*
X010349Y008882D02*
X010525Y008882D01*
X010525Y008803D02*
X010381Y008803D01*
X010390Y008725D02*
X010525Y008725D01*
X010525Y008646D02*
X010390Y008646D01*
X010366Y008567D02*
X010525Y008567D01*
X010525Y008489D02*
X010333Y008489D01*
X010257Y008410D02*
X010525Y008410D01*
X010525Y008332D02*
X010117Y008332D01*
X010203Y008253D02*
X010525Y008253D01*
X010525Y008175D02*
X010293Y008175D01*
X010348Y008096D02*
X010525Y008096D01*
X010525Y008018D02*
X010381Y008018D01*
X010390Y007939D02*
X010525Y007939D01*
X010525Y007861D02*
X010390Y007861D01*
X010367Y007782D02*
X010525Y007782D01*
X010525Y007704D02*
X010334Y007704D01*
X010259Y007625D02*
X010525Y007625D01*
X010525Y007546D02*
X010122Y007546D01*
X010198Y007468D02*
X010525Y007468D01*
X010525Y007389D02*
X010291Y007389D01*
X010347Y007311D02*
X010525Y007311D01*
X010525Y007232D02*
X010380Y007232D01*
X010390Y007154D02*
X010525Y007154D01*
X010525Y007075D02*
X010390Y007075D01*
X010367Y006997D02*
X010525Y006997D01*
X010525Y006918D02*
X010335Y006918D01*
X010261Y006840D02*
X010525Y006840D01*
X010525Y006761D02*
X010126Y006761D01*
X010080Y006729D02*
X009926Y006729D01*
X009784Y006670D01*
X009674Y006561D01*
X009616Y006419D01*
X009616Y006265D01*
X009674Y006122D01*
X009784Y006013D01*
X009926Y005954D01*
X010080Y005954D01*
X010222Y006013D01*
X010331Y006122D01*
X010390Y006265D01*
X010390Y006419D01*
X010331Y006561D01*
X010222Y006670D01*
X010080Y006729D01*
X010193Y006682D02*
X010525Y006682D01*
X010525Y006604D02*
X010289Y006604D01*
X010346Y006525D02*
X010525Y006525D01*
X010525Y006447D02*
X010379Y006447D01*
X010390Y006368D02*
X010525Y006368D01*
X010525Y006290D02*
X010390Y006290D01*
X010368Y006211D02*
X010525Y006211D01*
X010525Y006133D02*
X010336Y006133D01*
X010263Y006054D02*
X010525Y006054D01*
X010525Y005976D02*
X010131Y005976D01*
X010080Y005942D02*
X009926Y005942D01*
X009784Y005883D01*
X009674Y005774D01*
X009616Y005632D01*
X009616Y005477D01*
X009674Y005335D01*
X009784Y005226D01*
X009926Y005167D01*
X010080Y005167D01*
X010222Y005226D01*
X010331Y005335D01*
X010390Y005477D01*
X010390Y005632D01*
X010331Y005774D01*
X010222Y005883D01*
X010080Y005942D01*
X010189Y005897D02*
X010525Y005897D01*
X010525Y005818D02*
X010287Y005818D01*
X010346Y005740D02*
X010525Y005740D01*
X010525Y005661D02*
X010378Y005661D01*
X010390Y005583D02*
X010525Y005583D01*
X010525Y005504D02*
X010390Y005504D01*
X010369Y005426D02*
X010525Y005426D01*
X010525Y005347D02*
X010336Y005347D01*
X010265Y005269D02*
X010525Y005269D01*
X010525Y005190D02*
X010136Y005190D01*
X010184Y005112D02*
X010525Y005112D01*
X010525Y005033D02*
X010285Y005033D01*
X010345Y004954D02*
X010525Y004954D01*
X010525Y004876D02*
X010377Y004876D01*
X010390Y004797D02*
X010525Y004797D01*
X010525Y004719D02*
X010390Y004719D01*
X010370Y004640D02*
X010525Y004640D01*
X010525Y004562D02*
X010418Y004562D01*
X010497Y004483D02*
X010525Y004483D01*
X009822Y005112D02*
X009556Y005112D01*
X009524Y005190D02*
X009870Y005190D01*
X009741Y005269D02*
X009566Y005269D01*
X009590Y005347D02*
X009669Y005347D01*
X009637Y005426D02*
X009590Y005426D01*
X009570Y005504D02*
X009616Y005504D01*
X009616Y005583D02*
X009535Y005583D01*
X009456Y005661D02*
X009628Y005661D01*
X009660Y005740D02*
X008805Y005740D01*
X009339Y005818D02*
X009719Y005818D01*
X009817Y005897D02*
X009443Y005897D01*
X009522Y005976D02*
X009875Y005976D01*
X009743Y006054D02*
X009572Y006054D01*
X009572Y006133D02*
X009670Y006133D01*
X009638Y006211D02*
X009572Y006211D01*
X009572Y006290D02*
X009616Y006290D01*
X009616Y006368D02*
X009572Y006368D01*
X009572Y006447D02*
X009627Y006447D01*
X009660Y006525D02*
X009572Y006525D01*
X009550Y006604D02*
X009717Y006604D01*
X009813Y006682D02*
X009572Y006682D01*
X009572Y006761D02*
X009880Y006761D01*
X009745Y006840D02*
X009572Y006840D01*
X009572Y006918D02*
X009671Y006918D01*
X009639Y006997D02*
X009572Y006997D01*
X009572Y007075D02*
X009616Y007075D01*
X009616Y007154D02*
X009572Y007154D01*
X009572Y007232D02*
X009626Y007232D01*
X009595Y007311D02*
X009572Y007311D01*
X009812Y007546D02*
X009884Y007546D01*
X009747Y007625D02*
X009734Y007625D01*
X009672Y007704D02*
X009672Y007704D01*
X009625Y008018D02*
X009562Y008018D01*
X009484Y008096D02*
X009658Y008096D01*
X009713Y008175D02*
X009405Y008175D01*
X009399Y008253D02*
X009803Y008253D01*
X009889Y008332D02*
X009399Y008332D01*
X009399Y008410D02*
X009749Y008410D01*
X009673Y008489D02*
X009379Y008489D01*
X009352Y008567D02*
X009640Y008567D01*
X009616Y008646D02*
X009399Y008646D01*
X009399Y008725D02*
X009616Y008725D01*
X009625Y008803D02*
X009399Y008803D01*
X009399Y008882D02*
X009657Y008882D01*
X009711Y008960D02*
X009399Y008960D01*
X009341Y009039D02*
X009798Y009039D01*
X009894Y009117D02*
X009272Y009117D01*
X009272Y009196D02*
X009751Y009196D01*
X009674Y009274D02*
X009272Y009274D01*
X009272Y009353D02*
X009641Y009353D01*
X009616Y009431D02*
X009272Y009431D01*
X009272Y009510D02*
X009616Y009510D01*
X009624Y009589D02*
X009272Y009589D01*
X009272Y009667D02*
X009656Y009667D01*
X009709Y009746D02*
X009272Y009746D01*
X009272Y009824D02*
X009794Y009824D01*
X009899Y009903D02*
X009272Y009903D01*
X009272Y009981D02*
X009753Y009981D01*
X009674Y010060D02*
X009272Y010060D01*
X009272Y010138D02*
X009642Y010138D01*
X009616Y010217D02*
X009272Y010217D01*
X009272Y010295D02*
X009616Y010295D01*
X009623Y010374D02*
X009272Y010374D01*
X009272Y010453D02*
X009656Y010453D01*
X009707Y010531D02*
X009272Y010531D01*
X009272Y010610D02*
X009789Y010610D01*
X009903Y010688D02*
X009334Y010688D01*
X009413Y010767D02*
X009755Y010767D01*
X009676Y010845D02*
X009491Y010845D01*
X009570Y010924D02*
X009643Y010924D01*
X009431Y011238D02*
X009361Y011238D01*
X009402Y011279D02*
X009318Y011194D01*
X009208Y011149D01*
X009088Y011149D01*
X008978Y011194D01*
X008894Y011279D01*
X008848Y011389D01*
X008848Y011509D01*
X008894Y011619D01*
X008978Y011703D01*
X009088Y011749D01*
X009208Y011749D01*
X009318Y011703D01*
X009402Y011619D01*
X009448Y011509D01*
X009448Y011389D01*
X009402Y011279D01*
X009418Y011316D02*
X009452Y011316D01*
X009452Y011258D02*
X008952Y010758D01*
X008952Y010626D01*
X008952Y009046D01*
X008889Y009046D01*
X008824Y008981D01*
X008824Y008614D01*
X008889Y008550D01*
X008824Y008646D02*
X008772Y008646D01*
X008772Y008725D02*
X008824Y008725D01*
X008824Y008803D02*
X008772Y008803D01*
X008772Y008882D02*
X008824Y008882D01*
X008824Y008960D02*
X008772Y008960D01*
X008772Y009039D02*
X008882Y009039D01*
X008952Y009117D02*
X008772Y009117D01*
X008772Y009196D02*
X008952Y009196D01*
X008952Y009274D02*
X008772Y009274D01*
X008772Y009353D02*
X008952Y009353D01*
X008952Y009431D02*
X008772Y009431D01*
X008772Y009510D02*
X008952Y009510D01*
X008952Y009589D02*
X008741Y009589D01*
X008663Y009667D02*
X008952Y009667D01*
X008952Y009746D02*
X008584Y009746D01*
X008506Y009824D02*
X008952Y009824D01*
X008952Y009903D02*
X008427Y009903D01*
X008217Y009981D02*
X008952Y009981D01*
X008952Y010060D02*
X008217Y010060D01*
X008196Y010138D02*
X008952Y010138D01*
X008952Y010217D02*
X008213Y010217D01*
X008291Y010295D02*
X008952Y010295D01*
X008952Y010374D02*
X008370Y010374D01*
X008449Y010453D02*
X008952Y010453D01*
X008952Y010531D02*
X008472Y010531D01*
X008556Y010610D02*
X008952Y010610D01*
X008952Y010688D02*
X008599Y010688D01*
X008599Y010767D02*
X008960Y010767D01*
X009039Y010845D02*
X008599Y010845D01*
X008599Y010924D02*
X009117Y010924D01*
X009196Y011002D02*
X008599Y011002D01*
X008537Y011081D02*
X009274Y011081D01*
X009233Y011159D02*
X009353Y011159D01*
X009452Y011258D02*
X009452Y011926D01*
X009449Y011929D01*
X009449Y012198D01*
X008599Y011348D01*
X008599Y011164D01*
X008534Y011100D01*
X008089Y011100D01*
X008024Y011164D01*
X008024Y011531D01*
X008089Y011596D01*
X008394Y011596D01*
X008906Y012108D01*
X008554Y012108D01*
X008490Y012172D01*
X008490Y012583D01*
X008554Y012648D01*
X009035Y012648D01*
X009100Y012583D01*
X009100Y012301D01*
X009449Y012651D01*
X009449Y012895D01*
X009513Y012959D01*
X009919Y012959D01*
X009984Y012895D01*
X009984Y012489D01*
X009919Y012424D01*
X009675Y012424D01*
X009650Y012399D01*
X009919Y012399D01*
X009984Y012335D01*
X009984Y011929D01*
X009919Y011864D01*
X009772Y011864D01*
X009772Y011383D01*
X009784Y011395D01*
X009772Y011395D01*
X009784Y011395D02*
X009926Y011454D01*
X010080Y011454D01*
X010222Y011395D01*
X010525Y011474D02*
X009772Y011474D01*
X009772Y011552D02*
X010525Y011552D01*
X010525Y011631D02*
X009772Y011631D01*
X009772Y011709D02*
X010525Y011709D01*
X010525Y011788D02*
X009772Y011788D01*
X009921Y011866D02*
X010060Y011866D01*
X010012Y011945D02*
X009984Y011945D01*
X009984Y012023D02*
X010009Y012023D01*
X009984Y012102D02*
X010268Y012102D01*
X010268Y012180D02*
X010346Y012180D01*
X010346Y012259D02*
X010268Y012259D01*
X010268Y012338D02*
X010346Y012338D01*
X010346Y012416D02*
X010268Y012416D01*
X010268Y012495D02*
X010346Y012495D01*
X010346Y012573D02*
X010268Y012573D01*
X010268Y012652D02*
X010346Y012652D01*
X010268Y012730D02*
X009984Y012730D01*
X009984Y012652D02*
X010009Y012652D01*
X010009Y012573D02*
X009984Y012573D01*
X009984Y012495D02*
X010015Y012495D01*
X010074Y012416D02*
X009667Y012416D01*
X009449Y012180D02*
X009431Y012180D01*
X009449Y012102D02*
X009353Y012102D01*
X009274Y012023D02*
X009449Y012023D01*
X009449Y011945D02*
X009196Y011945D01*
X009117Y011866D02*
X009452Y011866D01*
X009452Y011788D02*
X009038Y011788D01*
X008993Y011709D02*
X008960Y011709D01*
X008906Y011631D02*
X008881Y011631D01*
X008866Y011552D02*
X008803Y011552D01*
X008848Y011474D02*
X008724Y011474D01*
X008646Y011395D02*
X008848Y011395D01*
X008878Y011316D02*
X008599Y011316D01*
X008599Y011238D02*
X008934Y011238D01*
X009063Y011159D02*
X008594Y011159D01*
X008429Y011631D02*
X007649Y011631D01*
X007622Y011709D02*
X008507Y011709D01*
X008490Y011787D02*
X008425Y011723D01*
X008054Y011723D01*
X007990Y011787D01*
X007990Y012468D01*
X008054Y012533D01*
X008425Y012533D01*
X008490Y012468D01*
X008490Y011787D01*
X008490Y011788D02*
X008586Y011788D01*
X008665Y011866D02*
X008490Y011866D01*
X008490Y011945D02*
X008743Y011945D01*
X008822Y012023D02*
X008490Y012023D01*
X008490Y012102D02*
X008900Y012102D01*
X009100Y012338D02*
X009136Y012338D01*
X009100Y012416D02*
X009214Y012416D01*
X009293Y012495D02*
X009100Y012495D01*
X009100Y012573D02*
X009371Y012573D01*
X009449Y012652D02*
X008202Y012652D01*
X008200Y012646D02*
X008117Y012563D01*
X008008Y012518D01*
X007891Y012518D01*
X007783Y012563D01*
X007700Y012646D01*
X007655Y012754D01*
X007655Y012871D01*
X007700Y012980D01*
X007783Y013063D01*
X007891Y013108D01*
X008008Y013108D01*
X008117Y013063D01*
X008200Y012980D01*
X008245Y012871D01*
X008245Y012754D01*
X008200Y012646D01*
X008235Y012730D02*
X008547Y012730D01*
X008468Y012809D02*
X008245Y012809D01*
X008238Y012887D02*
X008390Y012887D01*
X008311Y012966D02*
X008206Y012966D01*
X008233Y013044D02*
X008135Y013044D01*
X008154Y013123D02*
X007769Y013123D01*
X007764Y013044D02*
X007690Y013044D01*
X007694Y012966D02*
X007622Y012966D01*
X007622Y012887D02*
X007661Y012887D01*
X007655Y012809D02*
X007622Y012809D01*
X007622Y012730D02*
X007665Y012730D01*
X007697Y012652D02*
X007622Y012652D01*
X007622Y012573D02*
X007772Y012573D01*
X007622Y012495D02*
X008016Y012495D01*
X007990Y012416D02*
X007622Y012416D01*
X007622Y012338D02*
X007990Y012338D01*
X007990Y012259D02*
X007622Y012259D01*
X007622Y012180D02*
X007990Y012180D01*
X007990Y012102D02*
X007622Y012102D01*
X007622Y012023D02*
X007990Y012023D01*
X007990Y011945D02*
X007622Y011945D01*
X007622Y011866D02*
X007990Y011866D01*
X007990Y011788D02*
X007622Y011788D01*
X007354Y011474D02*
X007338Y011474D01*
X007306Y011395D02*
X007374Y011395D01*
X007374Y011316D02*
X007250Y011316D01*
X007205Y011206D02*
X006725Y011206D01*
X006630Y011301D01*
X006630Y011723D01*
X006655Y011723D01*
X006720Y011787D01*
X006720Y012468D01*
X006655Y012533D01*
X006284Y012533D01*
X006230Y012478D01*
X006230Y012583D01*
X006165Y012648D01*
X005684Y012648D01*
X005620Y012583D01*
X005620Y012172D01*
X005684Y012108D01*
X006165Y012108D01*
X006220Y012162D01*
X006220Y011787D01*
X006284Y011723D01*
X006310Y011723D01*
X006310Y011301D01*
X006310Y011169D01*
X006656Y010822D01*
X006656Y010342D01*
X006720Y010278D01*
X007205Y010278D01*
X007270Y010342D01*
X007270Y011142D01*
X007205Y011206D01*
X007252Y011159D02*
X007379Y011159D01*
X007374Y011238D02*
X007135Y011238D01*
X007270Y011081D02*
X007436Y011081D01*
X007374Y011002D02*
X007270Y011002D01*
X007270Y010924D02*
X007374Y010924D01*
X007374Y010845D02*
X007270Y010845D01*
X007270Y010767D02*
X007374Y010767D01*
X007374Y010688D02*
X007270Y010688D01*
X007270Y010610D02*
X007365Y010610D01*
X007314Y010531D02*
X007270Y010531D01*
X007270Y010453D02*
X007284Y010453D01*
X007284Y010374D02*
X007270Y010374D01*
X007296Y010295D02*
X007223Y010295D01*
X007329Y010217D02*
X006160Y010217D01*
X006160Y010295D02*
X006703Y010295D01*
X006656Y010374D02*
X006167Y010374D01*
X006167Y010342D02*
X006167Y011142D01*
X006103Y011206D01*
X005618Y011206D01*
X005554Y011142D01*
X005554Y010484D01*
X005251Y010182D01*
X004771Y010182D01*
X004706Y010117D01*
X004706Y009514D01*
X004766Y009455D01*
X004762Y009454D01*
X004730Y009436D01*
X004704Y009410D01*
X004686Y009378D01*
X004676Y009342D01*
X004676Y009108D01*
X005071Y009108D01*
X005071Y009028D01*
X004676Y009028D01*
X004676Y008794D01*
X004686Y008758D01*
X004704Y008726D01*
X004730Y008700D01*
X004762Y008681D01*
X004798Y008672D01*
X005072Y008672D01*
X005072Y009028D01*
X005152Y009028D01*
X005152Y009108D01*
X005547Y009108D01*
X005547Y009342D01*
X005537Y009378D01*
X005519Y009410D01*
X005493Y009436D01*
X005461Y009454D01*
X005458Y009455D01*
X005517Y009514D01*
X005517Y009995D01*
X005800Y010278D01*
X005840Y010278D01*
X005840Y010034D01*
X005718Y010034D01*
X005654Y009970D01*
X005654Y009662D01*
X005666Y009650D01*
X005652Y009636D01*
X005633Y009604D01*
X005624Y009569D01*
X005624Y009456D01*
X005985Y009456D01*
X005985Y009428D01*
X005624Y009428D01*
X005624Y009315D01*
X005633Y009280D01*
X005652Y009248D01*
X005666Y009234D01*
X005654Y009222D01*
X005654Y008914D01*
X005718Y008850D01*
X006282Y008850D01*
X006340Y008908D01*
X006354Y008908D01*
X006478Y009032D01*
X006572Y009126D01*
X006572Y009626D01*
X006572Y009758D01*
X006472Y009858D01*
X006378Y009952D01*
X006346Y009952D01*
X006346Y009970D01*
X006282Y010034D01*
X006160Y010034D01*
X006160Y010334D01*
X006167Y010342D01*
X006167Y010453D02*
X006656Y010453D01*
X006656Y010531D02*
X006167Y010531D01*
X006167Y010610D02*
X006656Y010610D01*
X006656Y010688D02*
X006167Y010688D01*
X006167Y010767D02*
X006656Y010767D01*
X006633Y010845D02*
X006167Y010845D01*
X006167Y010924D02*
X006555Y010924D01*
X006476Y011002D02*
X006167Y011002D01*
X006167Y011081D02*
X006398Y011081D01*
X006319Y011159D02*
X006150Y011159D01*
X006310Y011238D02*
X004512Y011238D01*
X004512Y011316D02*
X006310Y011316D01*
X006310Y011395D02*
X004512Y011395D01*
X004512Y011474D02*
X006310Y011474D01*
X006310Y011552D02*
X004512Y011552D01*
X004512Y011631D02*
X006310Y011631D01*
X006310Y011709D02*
X003690Y011709D01*
X003701Y011703D02*
X003669Y011721D01*
X003633Y011731D01*
X003458Y011731D01*
X003458Y010725D01*
X003755Y010725D01*
X003755Y011609D01*
X003745Y011645D01*
X003727Y011677D01*
X003701Y011703D01*
X003749Y011631D02*
X003899Y011631D01*
X003899Y011636D02*
X003899Y009734D01*
X003963Y009670D01*
X004448Y009670D01*
X004512Y009734D01*
X004512Y010682D01*
X004573Y010682D01*
X004584Y010656D01*
X004676Y010564D01*
X004796Y010514D01*
X004927Y010514D01*
X005047Y010564D01*
X005140Y010656D01*
X005190Y010777D01*
X005190Y010907D01*
X005140Y011028D01*
X005047Y011120D01*
X004927Y011170D01*
X004796Y011170D01*
X004676Y011120D01*
X004584Y011028D01*
X004573Y011002D01*
X004512Y011002D01*
X004512Y011636D01*
X004448Y011701D01*
X003963Y011701D01*
X003899Y011636D01*
X003899Y011552D02*
X003755Y011552D01*
X003755Y011474D02*
X003899Y011474D01*
X003899Y011395D02*
X003755Y011395D01*
X003755Y011316D02*
X003899Y011316D01*
X003899Y011238D02*
X003755Y011238D01*
X003755Y011159D02*
X003899Y011159D01*
X003899Y011081D02*
X003755Y011081D01*
X003755Y011002D02*
X003899Y011002D01*
X003899Y010924D02*
X003755Y010924D01*
X003755Y010845D02*
X003899Y010845D01*
X003899Y010767D02*
X003755Y010767D01*
X003755Y010645D02*
X003458Y010645D01*
X003458Y009640D01*
X003633Y009640D01*
X003669Y009649D01*
X003701Y009668D01*
X003727Y009694D01*
X003745Y009726D01*
X003755Y009761D01*
X003755Y010645D01*
X003755Y010610D02*
X003899Y010610D01*
X003899Y010688D02*
X003458Y010688D01*
X003458Y010725D02*
X003458Y010645D01*
X003378Y010645D01*
X003378Y009640D01*
X003203Y009640D01*
X003167Y009649D01*
X003135Y009668D01*
X003109Y009694D01*
X003091Y009726D01*
X003081Y009761D01*
X003081Y010645D01*
X003378Y010645D01*
X003378Y010725D01*
X003081Y010725D01*
X003081Y011609D01*
X003091Y011645D01*
X003109Y011677D01*
X003135Y011703D01*
X003167Y011721D01*
X003203Y011731D01*
X003378Y011731D01*
X003378Y010725D01*
X003458Y010725D01*
X003458Y010767D02*
X003378Y010767D01*
X003378Y010845D02*
X003458Y010845D01*
X003458Y010924D02*
X003378Y010924D01*
X003378Y011002D02*
X003458Y011002D01*
X003458Y011081D02*
X003378Y011081D01*
X003378Y011159D02*
X003458Y011159D01*
X003458Y011238D02*
X003378Y011238D01*
X003378Y011316D02*
X003458Y011316D01*
X003458Y011395D02*
X003378Y011395D01*
X003378Y011474D02*
X003458Y011474D01*
X003458Y011552D02*
X003378Y011552D01*
X003378Y011631D02*
X003458Y011631D01*
X003458Y011709D02*
X003378Y011709D01*
X003146Y011709D02*
X002608Y011709D01*
X002597Y011720D02*
X002477Y011770D01*
X002346Y011770D01*
X002226Y011720D01*
X002134Y011628D01*
X002123Y011602D01*
X001845Y011602D01*
X001752Y011508D01*
X001752Y011376D01*
X001752Y007766D01*
X001478Y007492D01*
X001419Y007517D01*
X001264Y007517D01*
X001122Y007458D01*
X001013Y007349D01*
X000954Y007206D01*
X000954Y007052D01*
X001013Y006910D01*
X001122Y006801D01*
X001264Y006742D01*
X001419Y006742D01*
X001561Y006801D01*
X001670Y006910D01*
X001729Y007052D01*
X001729Y007206D01*
X001704Y007266D01*
X002072Y007633D01*
X002072Y007766D01*
X002072Y011282D01*
X002123Y011282D01*
X002134Y011256D01*
X002226Y011164D01*
X002346Y011114D01*
X002477Y011114D01*
X002597Y011164D01*
X002690Y011256D01*
X002740Y011377D01*
X002740Y011507D01*
X002690Y011628D01*
X002597Y011720D01*
X002687Y011631D02*
X003087Y011631D01*
X003081Y011552D02*
X002721Y011552D01*
X002740Y011474D02*
X003081Y011474D01*
X003081Y011395D02*
X002740Y011395D01*
X002715Y011316D02*
X003081Y011316D01*
X003081Y011238D02*
X002672Y011238D01*
X002587Y011159D02*
X003081Y011159D01*
X003081Y011081D02*
X002072Y011081D01*
X002072Y011159D02*
X002236Y011159D01*
X002152Y011238D02*
X002072Y011238D01*
X002072Y011002D02*
X003081Y011002D01*
X003081Y010924D02*
X002072Y010924D01*
X002072Y010845D02*
X003081Y010845D01*
X003081Y010767D02*
X002072Y010767D01*
X002072Y010688D02*
X003378Y010688D01*
X003378Y010610D02*
X003458Y010610D01*
X003458Y010531D02*
X003378Y010531D01*
X003378Y010453D02*
X003458Y010453D01*
X003458Y010374D02*
X003378Y010374D01*
X003378Y010295D02*
X003458Y010295D01*
X003458Y010217D02*
X003378Y010217D01*
X003378Y010138D02*
X003458Y010138D01*
X003458Y010060D02*
X003378Y010060D01*
X003378Y009981D02*
X003458Y009981D01*
X003458Y009903D02*
X003378Y009903D01*
X003378Y009824D02*
X003458Y009824D01*
X003458Y009746D02*
X003378Y009746D01*
X003378Y009667D02*
X003458Y009667D01*
X003451Y009431D02*
X002930Y009431D01*
X003009Y009353D02*
X003372Y009353D01*
X003294Y009274D02*
X003087Y009274D01*
X003142Y009196D02*
X003252Y009196D01*
X003252Y009117D02*
X003142Y009117D01*
X003142Y009039D02*
X003671Y009039D01*
X003672Y009117D02*
X003752Y009117D01*
X003752Y009039D02*
X005071Y009039D01*
X005072Y008960D02*
X005152Y008960D01*
X005152Y009028D02*
X005152Y008672D01*
X005425Y008672D01*
X005461Y008681D01*
X005493Y008700D01*
X005519Y008726D01*
X005537Y008758D01*
X005547Y008794D01*
X005547Y009028D01*
X005152Y009028D01*
X005152Y009039D02*
X005654Y009039D01*
X005654Y009117D02*
X005547Y009117D01*
X005547Y009196D02*
X005654Y009196D01*
X005636Y009274D02*
X005547Y009274D01*
X005544Y009353D02*
X005624Y009353D01*
X005624Y009510D02*
X005512Y009510D01*
X005517Y009589D02*
X005629Y009589D01*
X005654Y009667D02*
X005517Y009667D01*
X005517Y009746D02*
X005654Y009746D01*
X005654Y009824D02*
X005517Y009824D01*
X005517Y009903D02*
X005654Y009903D01*
X005665Y009981D02*
X005517Y009981D01*
X005582Y010060D02*
X005840Y010060D01*
X005840Y010138D02*
X005660Y010138D01*
X005739Y010217D02*
X005840Y010217D01*
X006160Y010138D02*
X007401Y010138D01*
X007406Y010060D02*
X006160Y010060D01*
X006334Y009981D02*
X006689Y009981D01*
X006677Y009903D02*
X006427Y009903D01*
X006506Y009824D02*
X006677Y009824D01*
X006677Y009746D02*
X006572Y009746D01*
X006572Y009667D02*
X006677Y009667D01*
X006572Y009589D02*
X007406Y009589D01*
X007411Y009510D02*
X006572Y009510D01*
X006572Y009431D02*
X007426Y009431D01*
X007379Y009353D02*
X006572Y009353D01*
X006572Y009274D02*
X006730Y009274D01*
X006742Y009286D02*
X006677Y009222D01*
X006677Y008914D01*
X006742Y008850D01*
X007305Y008850D01*
X007370Y008914D01*
X007370Y009222D01*
X007305Y009286D01*
X006742Y009286D01*
X006677Y009196D02*
X006572Y009196D01*
X006563Y009117D02*
X006677Y009117D01*
X006677Y009039D02*
X006485Y009039D01*
X006406Y008960D02*
X006677Y008960D01*
X006710Y008882D02*
X006314Y008882D01*
X006383Y008567D02*
X008452Y008567D01*
X008452Y008489D02*
X006529Y008489D01*
X006597Y008410D02*
X008452Y008410D01*
X008452Y008646D02*
X004334Y008646D01*
X004372Y008567D02*
X005111Y008567D01*
X005072Y008725D02*
X005152Y008725D01*
X005152Y008803D02*
X005072Y008803D01*
X005072Y008882D02*
X005152Y008882D01*
X004932Y008489D02*
X004372Y008489D01*
X004372Y008410D02*
X004472Y008410D01*
X004394Y008332D02*
X004372Y008332D01*
X004045Y008725D02*
X004706Y008725D01*
X004676Y008803D02*
X004123Y008803D01*
X004172Y008882D02*
X004676Y008882D01*
X004676Y008960D02*
X004172Y008960D01*
X004172Y009117D02*
X004676Y009117D01*
X004676Y009196D02*
X004172Y009196D01*
X004130Y009274D02*
X004676Y009274D01*
X004679Y009353D02*
X004051Y009353D01*
X003973Y009431D02*
X004726Y009431D01*
X004711Y009510D02*
X002072Y009510D01*
X002072Y009589D02*
X004706Y009589D01*
X004706Y009667D02*
X003700Y009667D01*
X003751Y009746D02*
X003899Y009746D01*
X003899Y009824D02*
X003755Y009824D01*
X003755Y009903D02*
X003899Y009903D01*
X003899Y009981D02*
X003755Y009981D01*
X003755Y010060D02*
X003899Y010060D01*
X003899Y010138D02*
X003755Y010138D01*
X003755Y010217D02*
X003899Y010217D01*
X003899Y010295D02*
X003755Y010295D01*
X003755Y010374D02*
X003899Y010374D01*
X003899Y010453D02*
X003755Y010453D01*
X003755Y010531D02*
X003899Y010531D01*
X004512Y010531D02*
X004755Y010531D01*
X004630Y010610D02*
X004512Y010610D01*
X004512Y010453D02*
X005522Y010453D01*
X005554Y010531D02*
X004969Y010531D01*
X005093Y010610D02*
X005554Y010610D01*
X005554Y010688D02*
X005153Y010688D01*
X005186Y010767D02*
X005554Y010767D01*
X005554Y010845D02*
X005190Y010845D01*
X005183Y010924D02*
X005554Y010924D01*
X005554Y011002D02*
X005150Y011002D01*
X005087Y011081D02*
X005554Y011081D01*
X005571Y011159D02*
X004952Y011159D01*
X004771Y011159D02*
X004512Y011159D01*
X004512Y011081D02*
X004637Y011081D01*
X004573Y011002D02*
X004512Y011002D01*
X004512Y010374D02*
X005444Y010374D01*
X005365Y010295D02*
X004512Y010295D01*
X004512Y010217D02*
X005286Y010217D01*
X004727Y010138D02*
X004512Y010138D01*
X004512Y010060D02*
X004706Y010060D01*
X004706Y009981D02*
X004512Y009981D01*
X004512Y009903D02*
X004706Y009903D01*
X004706Y009824D02*
X004512Y009824D01*
X004512Y009746D02*
X004706Y009746D01*
X005497Y009431D02*
X005985Y009431D01*
X005654Y008960D02*
X005547Y008960D01*
X005547Y008882D02*
X005686Y008882D01*
X005547Y008803D02*
X007376Y008803D01*
X007376Y008882D02*
X007337Y008882D01*
X007370Y008960D02*
X007376Y008960D01*
X007370Y009039D02*
X007771Y009039D01*
X007772Y008960D02*
X007852Y008960D01*
X007852Y009028D02*
X007852Y008672D01*
X008125Y008672D01*
X008161Y008681D01*
X008193Y008700D01*
X008219Y008726D01*
X008237Y008758D01*
X008247Y008794D01*
X008247Y009028D01*
X007852Y009028D01*
X007852Y009039D02*
X008452Y009039D01*
X008452Y009117D02*
X008247Y009117D01*
X008247Y009196D02*
X008452Y009196D01*
X008452Y009274D02*
X008247Y009274D01*
X008244Y009353D02*
X008452Y009353D01*
X008446Y009431D02*
X008197Y009431D01*
X008212Y009510D02*
X008367Y009510D01*
X008289Y009589D02*
X008217Y009589D01*
X008247Y008960D02*
X008452Y008960D01*
X008452Y008882D02*
X008247Y008882D01*
X008247Y008803D02*
X008452Y008803D01*
X008452Y008725D02*
X008218Y008725D01*
X007852Y008725D02*
X007772Y008725D01*
X007772Y008803D02*
X007852Y008803D01*
X007852Y008882D02*
X007772Y008882D01*
X007406Y008725D02*
X005518Y008725D01*
X005601Y008567D02*
X005623Y008567D01*
X005620Y008489D02*
X005604Y008489D01*
X005604Y008410D02*
X005620Y008410D01*
X005620Y008332D02*
X005604Y008332D01*
X005604Y008253D02*
X005620Y008253D01*
X005620Y008175D02*
X005604Y008175D01*
X005581Y008096D02*
X005643Y008096D01*
X005620Y008018D02*
X005604Y008018D01*
X005604Y007939D02*
X005620Y007939D01*
X005620Y007861D02*
X005604Y007861D01*
X005604Y007782D02*
X005620Y007782D01*
X005620Y007704D02*
X005604Y007704D01*
X006112Y008567D02*
X006240Y008567D01*
X007317Y009274D02*
X007376Y009274D01*
X007370Y009196D02*
X007376Y009196D01*
X007370Y009117D02*
X007376Y009117D01*
X007358Y009981D02*
X007406Y009981D01*
X007940Y010453D02*
X007996Y010453D01*
X008075Y010531D02*
X007909Y010531D01*
X007906Y010610D02*
X008067Y010610D01*
X008024Y010688D02*
X007949Y010688D01*
X007949Y010767D02*
X008024Y010767D01*
X008024Y010845D02*
X007949Y010845D01*
X007949Y010924D02*
X008024Y010924D01*
X008024Y011002D02*
X007949Y011002D01*
X007887Y011081D02*
X008086Y011081D01*
X008029Y011159D02*
X007944Y011159D01*
X007949Y011238D02*
X008024Y011238D01*
X008024Y011316D02*
X007949Y011316D01*
X007949Y011395D02*
X008024Y011395D01*
X008024Y011474D02*
X007949Y011474D01*
X007928Y011552D02*
X008045Y011552D01*
X008490Y012180D02*
X008490Y012180D01*
X008490Y012259D02*
X008490Y012259D01*
X008490Y012338D02*
X008490Y012338D01*
X008490Y012416D02*
X008490Y012416D01*
X008490Y012495D02*
X008463Y012495D01*
X008490Y012573D02*
X008127Y012573D01*
X008450Y013280D02*
X008490Y013280D01*
X008490Y013359D02*
X008371Y013359D01*
X008293Y013437D02*
X008490Y013437D01*
X009176Y012730D02*
X009449Y012730D01*
X009449Y012809D02*
X009255Y012809D01*
X009333Y012887D02*
X009449Y012887D01*
X009412Y012966D02*
X010071Y012966D01*
X010015Y013044D02*
X009984Y013044D01*
X009984Y013123D02*
X010009Y013123D01*
X010009Y013202D02*
X009984Y013202D01*
X009984Y013280D02*
X010268Y013280D01*
X010268Y013202D02*
X010346Y013202D01*
X010346Y013123D02*
X010268Y013123D01*
X010268Y013044D02*
X010346Y013044D01*
X010346Y012966D02*
X010268Y012966D01*
X010268Y012887D02*
X010346Y012887D01*
X010346Y012809D02*
X010268Y012809D01*
X010009Y012809D02*
X009984Y012809D01*
X009984Y012887D02*
X010015Y012887D01*
X010009Y013359D02*
X009984Y013359D01*
X009984Y013437D02*
X010015Y013437D01*
X009981Y012338D02*
X010017Y012338D01*
X010009Y012259D02*
X009984Y012259D01*
X009984Y012180D02*
X010009Y012180D01*
X010268Y012023D02*
X010346Y012023D01*
X010346Y011945D02*
X010268Y011945D01*
X010268Y011866D02*
X010346Y011866D01*
X009452Y011709D02*
X009303Y011709D01*
X009390Y011631D02*
X009452Y011631D01*
X009452Y011552D02*
X009430Y011552D01*
X009448Y011474D02*
X009452Y011474D01*
X009448Y011395D02*
X009452Y011395D01*
X007631Y013437D02*
X006230Y013437D01*
X006230Y013359D02*
X007552Y013359D01*
X007474Y013280D02*
X006230Y013280D01*
X006230Y013202D02*
X007395Y013202D01*
X007316Y013123D02*
X006230Y013123D01*
X006230Y013044D02*
X006584Y013044D01*
X006603Y013063D02*
X006520Y012980D01*
X006475Y012871D01*
X006475Y012754D01*
X006520Y012646D01*
X006603Y012563D01*
X006711Y012518D01*
X006828Y012518D01*
X006937Y012563D01*
X007020Y012646D01*
X007065Y012754D01*
X007065Y012871D01*
X007020Y012980D01*
X006937Y013063D01*
X006828Y013108D01*
X006711Y013108D01*
X006603Y013063D01*
X006514Y012966D02*
X005575Y012966D01*
X005575Y013044D02*
X005620Y013044D01*
X005620Y013123D02*
X005575Y013123D01*
X005575Y013202D02*
X005620Y013202D01*
X005620Y013280D02*
X005575Y013280D01*
X005575Y013359D02*
X005620Y013359D01*
X005620Y013437D02*
X005575Y013437D01*
X005575Y012887D02*
X006481Y012887D01*
X006475Y012809D02*
X005575Y012809D01*
X005575Y012730D02*
X006485Y012730D01*
X006517Y012652D02*
X005575Y012652D01*
X005575Y012573D02*
X005620Y012573D01*
X005620Y012495D02*
X005575Y012495D01*
X005575Y012416D02*
X005620Y012416D01*
X005620Y012338D02*
X005575Y012338D01*
X005575Y012259D02*
X005620Y012259D01*
X005620Y012180D02*
X005575Y012180D01*
X005575Y012102D02*
X006220Y012102D01*
X006220Y012023D02*
X005575Y012023D01*
X006220Y011945D02*
X001903Y011945D01*
X001982Y012023D02*
X002048Y012023D01*
X002048Y012102D02*
X002033Y012102D01*
X001824Y011866D02*
X006220Y011866D01*
X006220Y011788D02*
X001696Y011788D01*
X001507Y011709D02*
X002215Y011709D01*
X002136Y011631D02*
X000874Y011631D01*
X000874Y011667D02*
X000874Y011667D01*
X000832Y011709D02*
X001117Y011709D01*
X001264Y011454D02*
X001122Y011395D01*
X001013Y011286D01*
X000954Y011143D01*
X000954Y010989D01*
X001013Y010847D01*
X001122Y010738D01*
X001264Y010679D01*
X001419Y010679D01*
X001561Y010738D01*
X001670Y010847D01*
X001729Y010989D01*
X001729Y011143D01*
X001670Y011286D01*
X001561Y011395D01*
X001419Y011454D01*
X001264Y011454D01*
X001123Y011395D02*
X000832Y011395D01*
X000874Y011474D02*
X001752Y011474D01*
X001752Y011395D02*
X001560Y011395D01*
X001639Y011316D02*
X001752Y011316D01*
X001752Y011238D02*
X001690Y011238D01*
X001722Y011159D02*
X001752Y011159D01*
X001752Y011081D02*
X001729Y011081D01*
X001729Y011002D02*
X001752Y011002D01*
X001752Y010924D02*
X001702Y010924D01*
X001668Y010845D02*
X001752Y010845D01*
X001752Y010767D02*
X001590Y010767D01*
X001556Y010610D02*
X001752Y010610D01*
X001752Y010688D02*
X001441Y010688D01*
X001419Y010666D02*
X001264Y010666D01*
X001122Y010607D01*
X001013Y010498D01*
X000954Y010356D01*
X000954Y010202D01*
X001013Y010059D01*
X001122Y009950D01*
X001264Y009891D01*
X001419Y009891D01*
X001561Y009950D01*
X001670Y010059D01*
X001729Y010202D01*
X001729Y010356D01*
X001670Y010498D01*
X001561Y010607D01*
X001419Y010666D01*
X001242Y010688D02*
X000748Y010688D01*
X000761Y010767D02*
X001093Y010767D01*
X001015Y010845D02*
X000761Y010845D01*
X000761Y010924D02*
X000981Y010924D01*
X000954Y011002D02*
X000746Y011002D01*
X000761Y011081D02*
X000954Y011081D01*
X000961Y011159D02*
X000761Y011159D01*
X000761Y011183D02*
X000761Y011183D01*
X000761Y011238D02*
X000993Y011238D01*
X001044Y011316D02*
X000753Y011316D01*
X000874Y011552D02*
X001796Y011552D01*
X002072Y010610D02*
X003081Y010610D01*
X003081Y010531D02*
X002072Y010531D01*
X002072Y010453D02*
X003081Y010453D01*
X003081Y010374D02*
X002072Y010374D01*
X002072Y010295D02*
X003081Y010295D01*
X003081Y010217D02*
X002072Y010217D01*
X002072Y010138D02*
X003081Y010138D01*
X003081Y010060D02*
X002072Y010060D01*
X002072Y009981D02*
X003081Y009981D01*
X003081Y009903D02*
X002072Y009903D01*
X002072Y009824D02*
X003081Y009824D01*
X003085Y009746D02*
X002072Y009746D01*
X002072Y009667D02*
X003136Y009667D01*
X003672Y009431D02*
X003752Y009431D01*
X003752Y009353D02*
X003672Y009353D01*
X003672Y009274D02*
X003752Y009274D01*
X003752Y009196D02*
X003672Y009196D01*
X003252Y008960D02*
X003142Y008960D01*
X003142Y008882D02*
X003252Y008882D01*
X003300Y008803D02*
X003177Y008803D01*
X003255Y008725D02*
X003378Y008725D01*
X003394Y008332D02*
X003030Y008332D01*
X003108Y008253D02*
X003315Y008253D01*
X003282Y008175D02*
X003142Y008175D01*
X003142Y008096D02*
X003282Y008096D01*
X003282Y008018D02*
X003142Y008018D01*
X003142Y007939D02*
X003282Y007939D01*
X003285Y007861D02*
X003138Y007861D01*
X003060Y007782D02*
X003363Y007782D01*
X003442Y007704D02*
X002981Y007704D01*
X002638Y007389D02*
X001828Y007389D01*
X001749Y007311D02*
X003523Y007311D01*
X003523Y006982D02*
X003523Y006854D01*
X003588Y006790D01*
X003899Y006790D01*
X003901Y006792D01*
X003903Y006790D01*
X004214Y006790D01*
X004216Y006792D01*
X004217Y006790D01*
X004529Y006790D01*
X004531Y006792D01*
X004532Y006790D01*
X004674Y006790D01*
X004626Y006770D01*
X004534Y006678D01*
X004484Y006557D01*
X004484Y006427D01*
X004534Y006306D01*
X004626Y006214D01*
X004746Y006164D01*
X004877Y006164D01*
X004952Y006195D01*
X004952Y005931D01*
X004926Y005920D01*
X004834Y005828D01*
X004784Y005707D01*
X004784Y005577D01*
X004834Y005456D01*
X004926Y005364D01*
X005046Y005314D01*
X005177Y005314D01*
X005184Y005317D01*
X005184Y005227D01*
X005234Y005106D01*
X005326Y005014D01*
X005446Y004964D01*
X005577Y004964D01*
X005697Y005014D01*
X005790Y005106D01*
X005840Y005227D01*
X005840Y005357D01*
X005790Y005478D01*
X005732Y005536D01*
X005978Y005782D01*
X006155Y005782D01*
X006155Y005781D01*
X006146Y005746D01*
X006146Y005632D01*
X006520Y005632D01*
X006520Y005602D01*
X006146Y005602D01*
X006146Y005489D01*
X006155Y005453D01*
X006173Y005421D01*
X006176Y005419D01*
X006176Y005147D01*
X006177Y005145D01*
X006176Y005143D01*
X006176Y004852D01*
X004728Y004852D01*
X004679Y004901D01*
X004690Y004927D01*
X004690Y005057D01*
X004640Y005178D01*
X004547Y005270D01*
X004427Y005320D01*
X004296Y005320D01*
X004176Y005270D01*
X004084Y005178D01*
X004034Y005057D01*
X004034Y004927D01*
X004084Y004806D01*
X004176Y004714D01*
X004296Y004664D01*
X004427Y004664D01*
X004453Y004674D01*
X004502Y004626D01*
X004502Y004626D01*
X004595Y004532D01*
X006176Y004532D01*
X006176Y004517D01*
X006177Y004515D01*
X006176Y004513D01*
X006176Y004304D01*
X006172Y004308D01*
X006078Y004402D01*
X005699Y004402D01*
X005567Y004402D01*
X005473Y004308D01*
X005473Y004130D01*
X005162Y004130D01*
X005160Y004128D01*
X005159Y004130D01*
X004847Y004130D01*
X004845Y004128D01*
X004844Y004130D01*
X004532Y004130D01*
X004531Y004128D01*
X004529Y004130D01*
X004217Y004130D01*
X004216Y004128D01*
X004214Y004130D01*
X003903Y004130D01*
X003901Y004128D01*
X003899Y004130D01*
X003776Y004130D01*
X003828Y004182D01*
X003922Y004276D01*
X003922Y006126D01*
X003922Y006258D01*
X003828Y006352D01*
X003515Y006352D01*
X003515Y006403D01*
X003514Y006405D01*
X003515Y006407D01*
X003515Y006718D01*
X003451Y006782D01*
X002860Y006782D01*
X002796Y006718D01*
X002796Y006702D01*
X002550Y006702D01*
X002540Y006728D01*
X002447Y006820D01*
X002327Y006870D01*
X002266Y006870D01*
X002378Y006982D01*
X003523Y006982D01*
X003523Y006918D02*
X002314Y006918D01*
X002400Y006840D02*
X003538Y006840D01*
X003472Y006761D02*
X004617Y006761D01*
X004538Y006682D02*
X003515Y006682D01*
X003515Y006604D02*
X004503Y006604D01*
X004484Y006525D02*
X003515Y006525D01*
X003515Y006447D02*
X004484Y006447D01*
X004508Y006368D02*
X003515Y006368D01*
X003545Y006032D02*
X003602Y006032D01*
X003602Y004408D01*
X003515Y004322D01*
X003515Y004513D01*
X003514Y004515D01*
X003515Y004517D01*
X003515Y004828D01*
X003514Y004830D01*
X003515Y004832D01*
X003515Y005104D01*
X003518Y005107D01*
X003536Y005138D01*
X003545Y005174D01*
X003545Y005287D01*
X003171Y005287D01*
X003171Y005318D01*
X003545Y005318D01*
X003545Y005431D01*
X003536Y005467D01*
X003518Y005498D01*
X003515Y005501D01*
X003515Y005734D01*
X003518Y005736D01*
X003536Y005768D01*
X003545Y005804D01*
X003545Y005917D01*
X003171Y005917D01*
X003171Y005947D01*
X003545Y005947D01*
X003545Y006032D01*
X003545Y005976D02*
X003602Y005976D01*
X003602Y005897D02*
X003545Y005897D01*
X003545Y005818D02*
X003602Y005818D01*
X003602Y005740D02*
X003519Y005740D01*
X003515Y005661D02*
X003602Y005661D01*
X003602Y005583D02*
X003515Y005583D01*
X003515Y005504D02*
X003602Y005504D01*
X003602Y005426D02*
X003545Y005426D01*
X003545Y005347D02*
X003602Y005347D01*
X003602Y005269D02*
X003545Y005269D01*
X003545Y005190D02*
X003602Y005190D01*
X003602Y005112D02*
X003520Y005112D01*
X003515Y005033D02*
X003602Y005033D01*
X003602Y004954D02*
X003515Y004954D01*
X003515Y004876D02*
X003602Y004876D01*
X003602Y004797D02*
X003515Y004797D01*
X003515Y004719D02*
X003602Y004719D01*
X003602Y004640D02*
X003515Y004640D01*
X003515Y004562D02*
X003602Y004562D01*
X003602Y004483D02*
X003515Y004483D01*
X003515Y004405D02*
X003598Y004405D01*
X003520Y004326D02*
X003515Y004326D01*
X003815Y004169D02*
X005473Y004169D01*
X005473Y004248D02*
X003894Y004248D01*
X003922Y004326D02*
X005491Y004326D01*
X005306Y005033D02*
X004690Y005033D01*
X004690Y004954D02*
X006176Y004954D01*
X006176Y004876D02*
X004704Y004876D01*
X004667Y005112D02*
X005231Y005112D01*
X005199Y005190D02*
X004627Y005190D01*
X004549Y005269D02*
X005184Y005269D01*
X004966Y005347D02*
X003922Y005347D01*
X003922Y005269D02*
X004174Y005269D01*
X004096Y005190D02*
X003922Y005190D01*
X003922Y005112D02*
X004056Y005112D01*
X004034Y005033D02*
X003922Y005033D01*
X003922Y004954D02*
X004034Y004954D01*
X004054Y004876D02*
X003922Y004876D01*
X003922Y004797D02*
X004092Y004797D01*
X004171Y004719D02*
X003922Y004719D01*
X003922Y004640D02*
X004487Y004640D01*
X004565Y004562D02*
X003922Y004562D01*
X003922Y004483D02*
X006176Y004483D01*
X006176Y004405D02*
X003922Y004405D01*
X003922Y005426D02*
X004864Y005426D01*
X004813Y005504D02*
X003922Y005504D01*
X003922Y005583D02*
X004784Y005583D01*
X004784Y005661D02*
X003922Y005661D01*
X003922Y005740D02*
X004797Y005740D01*
X004830Y005818D02*
X003922Y005818D01*
X003922Y005897D02*
X004903Y005897D01*
X004952Y005976D02*
X003922Y005976D01*
X003922Y006054D02*
X004952Y006054D01*
X004952Y006133D02*
X003922Y006133D01*
X003922Y006211D02*
X004632Y006211D01*
X004550Y006290D02*
X003890Y006290D01*
X003140Y005947D02*
X003140Y005917D01*
X002766Y005917D01*
X002766Y005804D01*
X002775Y005768D01*
X002788Y005745D01*
X002634Y005745D01*
X002634Y005769D01*
X002575Y005828D01*
X002578Y005829D01*
X002610Y005847D01*
X002636Y005873D01*
X002655Y005905D01*
X002664Y005941D01*
X002664Y006068D01*
X002376Y006068D01*
X002376Y006126D01*
X002664Y006126D01*
X002664Y006253D01*
X002655Y006289D01*
X002636Y006321D01*
X002610Y006347D01*
X002578Y006365D01*
X002547Y006374D01*
X002550Y006382D01*
X002796Y006382D01*
X002796Y006130D01*
X002793Y006128D01*
X002775Y006096D01*
X002766Y006061D01*
X002766Y005947D01*
X003140Y005947D01*
X002766Y005976D02*
X002664Y005976D01*
X002664Y006054D02*
X002766Y006054D01*
X002796Y006133D02*
X002664Y006133D01*
X002664Y006211D02*
X002796Y006211D01*
X002796Y006290D02*
X002654Y006290D01*
X002567Y006368D02*
X002796Y006368D01*
X002839Y006761D02*
X002506Y006761D01*
X002097Y007154D02*
X001729Y007154D01*
X001729Y007075D02*
X002019Y007075D01*
X001940Y006997D02*
X001706Y006997D01*
X001673Y006918D02*
X001862Y006918D01*
X001783Y006840D02*
X001600Y006840D01*
X001704Y006761D02*
X001465Y006761D01*
X001532Y006682D02*
X001652Y006682D01*
X001652Y006604D02*
X001627Y006604D01*
X001972Y006368D02*
X001978Y006368D01*
X001972Y006290D02*
X002040Y006290D01*
X002030Y006211D02*
X001972Y006211D01*
X001972Y006133D02*
X002030Y006133D01*
X002030Y006054D02*
X001972Y006054D01*
X001972Y005976D02*
X002030Y005976D01*
X002044Y005897D02*
X001972Y005897D01*
X001972Y005818D02*
X002110Y005818D01*
X002060Y005740D02*
X001972Y005740D01*
X001972Y005661D02*
X002060Y005661D01*
X002060Y005583D02*
X001972Y005583D01*
X001972Y005504D02*
X002060Y005504D01*
X002060Y005426D02*
X001972Y005426D01*
X001972Y005347D02*
X002071Y005347D01*
X002038Y005269D02*
X001972Y005269D01*
X001972Y005190D02*
X002034Y005190D01*
X002040Y005112D02*
X001908Y005112D01*
X001829Y005033D02*
X002072Y005033D01*
X002135Y004954D02*
X001751Y004954D01*
X001716Y004876D02*
X001965Y004876D01*
X001921Y004797D02*
X001729Y004797D01*
X001729Y004719D02*
X001921Y004719D01*
X001921Y004640D02*
X001708Y004640D01*
X001676Y004562D02*
X001921Y004562D01*
X001921Y004483D02*
X001606Y004483D01*
X001479Y004405D02*
X001924Y004405D01*
X001891Y004326D02*
X001575Y004326D01*
X001663Y004248D02*
X001891Y004248D01*
X001891Y004091D02*
X001745Y004091D01*
X001714Y004169D02*
X002336Y004169D01*
X002394Y004169D02*
X002829Y004169D01*
X002840Y004147D02*
X002840Y004046D01*
X002931Y004138D01*
X002860Y004138D01*
X002796Y004202D01*
X002796Y004205D01*
X002394Y004205D01*
X002394Y004147D01*
X002840Y004147D01*
X002840Y004091D02*
X002884Y004091D01*
X002652Y003384D02*
X000872Y003384D01*
X000890Y003462D02*
X001978Y003462D01*
X002022Y003379D02*
X001958Y003315D01*
X001958Y003252D01*
X001867Y003252D01*
X001860Y003259D01*
X001454Y003259D01*
X001389Y003195D01*
X001389Y002789D01*
X001454Y002724D01*
X001860Y002724D01*
X001924Y002789D01*
X001924Y002932D01*
X001958Y002932D01*
X001958Y002869D01*
X002022Y002805D01*
X002389Y002805D01*
X002454Y002869D01*
X002454Y003315D01*
X002389Y003379D01*
X002022Y003379D01*
X001958Y003305D02*
X000839Y003305D01*
X000792Y003227D02*
X000760Y003227D01*
X000769Y003148D02*
X000722Y003148D01*
X000722Y003069D02*
X000769Y003069D01*
X000722Y002991D02*
X001027Y002991D01*
X001105Y002991D02*
X001389Y002991D01*
X001364Y003031D02*
X001364Y003168D01*
X001354Y003203D01*
X001336Y003235D01*
X001310Y003261D01*
X001278Y003280D01*
X001242Y003289D01*
X001105Y003289D01*
X001105Y003031D01*
X001364Y003031D01*
X001364Y003069D02*
X001389Y003069D01*
X001389Y003148D02*
X001364Y003148D01*
X001341Y003227D02*
X001421Y003227D01*
X001389Y002912D02*
X001364Y002912D01*
X001364Y002834D02*
X001389Y002834D01*
X001423Y002755D02*
X001340Y002755D01*
X001382Y002598D02*
X002052Y002598D01*
X002052Y002520D02*
X001460Y002520D01*
X001245Y002282D02*
X001294Y002233D01*
X001282Y002220D01*
X001282Y001864D01*
X001444Y001702D01*
X001278Y001702D01*
X001145Y001702D01*
X000903Y001459D01*
X000890Y001472D01*
X000534Y001472D01*
X000332Y001270D01*
X000332Y001771D01*
X000521Y001582D01*
X000672Y001582D01*
X000672Y002002D01*
X000752Y002002D01*
X000752Y002082D01*
X001172Y002082D01*
X001172Y002232D01*
X001122Y002282D01*
X001128Y002282D01*
X001245Y002282D01*
X001282Y002205D02*
X001172Y002205D01*
X001172Y002127D02*
X001282Y002127D01*
X001282Y002048D02*
X000752Y002048D01*
X000752Y002002D02*
X001172Y002002D01*
X001172Y001851D01*
X000902Y001582D01*
X000752Y001582D01*
X000752Y002002D01*
X000752Y001970D02*
X000672Y001970D01*
X000672Y001891D02*
X000752Y001891D01*
X000752Y001813D02*
X000672Y001813D01*
X000672Y001734D02*
X000752Y001734D01*
X000752Y001656D02*
X000672Y001656D01*
X000447Y001656D02*
X000332Y001656D01*
X000332Y001734D02*
X000369Y001734D01*
X000332Y001577D02*
X001021Y001577D01*
X000976Y001656D02*
X001099Y001656D01*
X001054Y001734D02*
X001411Y001734D01*
X001333Y001813D02*
X001133Y001813D01*
X001172Y001891D02*
X001282Y001891D01*
X001282Y001970D02*
X001172Y001970D01*
X000942Y001499D02*
X000332Y001499D01*
X000332Y001420D02*
X000482Y001420D01*
X000403Y001341D02*
X000332Y001341D01*
X001053Y002677D02*
X002052Y002677D01*
X002099Y002755D02*
X001891Y002755D01*
X001924Y002834D02*
X001993Y002834D01*
X001958Y002912D02*
X001924Y002912D01*
X001920Y002441D02*
X002052Y002441D01*
X002052Y002363D02*
X001999Y002363D01*
X002418Y002834D02*
X002505Y002834D01*
X002470Y002912D02*
X002454Y002912D01*
X002454Y002991D02*
X002470Y002991D01*
X002470Y003069D02*
X002454Y003069D01*
X002454Y003148D02*
X002470Y003148D01*
X002470Y003227D02*
X002454Y003227D01*
X002454Y003305D02*
X002470Y003305D01*
X002965Y003069D02*
X003020Y003069D01*
X002965Y002991D02*
X003102Y002991D01*
X003056Y002912D02*
X002965Y002912D01*
X002977Y002834D02*
X002930Y002834D01*
X001921Y003541D02*
X000890Y003541D01*
X000864Y003619D02*
X001129Y003619D01*
X001123Y003623D02*
X001181Y003593D01*
X001244Y003572D01*
X001303Y003563D01*
X001303Y003941D01*
X000925Y003941D01*
X000934Y003882D01*
X000955Y003819D01*
X000985Y003761D01*
X001023Y003708D01*
X001070Y003661D01*
X001123Y003623D01*
X001033Y003698D02*
X000820Y003698D01*
X000732Y003776D02*
X000977Y003776D01*
X000943Y003855D02*
X000332Y003855D01*
X000332Y003933D02*
X000926Y003933D01*
X000939Y004091D02*
X000332Y004091D01*
X000332Y004169D02*
X000970Y004169D01*
X001020Y004248D02*
X000332Y004248D01*
X000332Y004326D02*
X001108Y004326D01*
X001204Y004405D02*
X000332Y004405D01*
X000511Y004483D02*
X001077Y004483D01*
X001007Y004562D02*
X000817Y004562D01*
X000874Y004640D02*
X000975Y004640D01*
X000954Y004719D02*
X000874Y004719D01*
X000812Y004797D02*
X000954Y004797D01*
X000967Y004876D02*
X000734Y004876D01*
X000841Y004954D02*
X001000Y004954D01*
X001060Y005033D02*
X000874Y005033D01*
X000866Y005112D02*
X001161Y005112D01*
X001209Y005190D02*
X000788Y005190D01*
X000792Y005186D02*
X000792Y005186D01*
X000844Y005269D02*
X001079Y005269D01*
X001008Y005347D02*
X000874Y005347D01*
X000874Y005413D02*
X000874Y005413D01*
X000874Y005426D02*
X000975Y005426D01*
X000954Y005504D02*
X000874Y005504D01*
X000820Y005583D02*
X000954Y005583D01*
X000966Y005661D02*
X000868Y005661D01*
X000874Y005740D02*
X000999Y005740D01*
X001058Y005818D02*
X000874Y005818D01*
X000874Y005897D02*
X001156Y005897D01*
X001213Y005976D02*
X000861Y005976D01*
X000874Y006054D02*
X001081Y006054D01*
X001009Y006133D02*
X000843Y006133D01*
X000726Y006211D02*
X000976Y006211D01*
X000954Y006290D02*
X000646Y006290D01*
X000838Y006368D02*
X000954Y006368D01*
X000966Y006447D02*
X000874Y006447D01*
X000874Y006404D02*
X000874Y006404D01*
X000869Y006525D02*
X000998Y006525D01*
X001056Y006604D02*
X000791Y006604D01*
X000792Y006602D02*
X000792Y006602D01*
X000784Y006682D02*
X001151Y006682D01*
X001218Y006761D02*
X000863Y006761D01*
X000818Y006716D02*
X000818Y006716D01*
X000874Y006840D02*
X001083Y006840D01*
X001010Y006918D02*
X000874Y006918D01*
X000874Y006997D02*
X000977Y006997D01*
X000954Y007075D02*
X000801Y007075D01*
X000792Y007084D02*
X000792Y007084D01*
X000736Y007141D02*
X000735Y007141D01*
X000954Y007154D02*
X000332Y007154D01*
X000332Y007232D02*
X000965Y007232D01*
X000997Y007311D02*
X000332Y007311D01*
X000332Y007389D02*
X000487Y007389D01*
X000506Y007370D02*
X000622Y007370D01*
X000704Y007452D01*
X000704Y007795D01*
X000622Y007877D01*
X000506Y007877D01*
X000424Y007795D01*
X000424Y007452D01*
X000506Y007370D01*
X000424Y007468D02*
X000332Y007468D01*
X000332Y007546D02*
X000424Y007546D01*
X000424Y007625D02*
X000332Y007625D01*
X000332Y007704D02*
X000424Y007704D01*
X000424Y007782D02*
X000332Y007782D01*
X000332Y007861D02*
X000489Y007861D01*
X000639Y007861D02*
X000954Y007861D01*
X000954Y007840D02*
X001013Y007697D01*
X001122Y007588D01*
X001264Y007529D01*
X001419Y007529D01*
X001561Y007588D01*
X001670Y007697D01*
X001729Y007840D01*
X001729Y007994D01*
X001670Y008136D01*
X001561Y008245D01*
X001419Y008304D01*
X001264Y008304D01*
X001122Y008245D01*
X001013Y008136D01*
X000954Y007994D01*
X000954Y007840D01*
X000978Y007782D02*
X000704Y007782D01*
X000704Y007704D02*
X001010Y007704D01*
X001085Y007625D02*
X000704Y007625D01*
X000704Y007546D02*
X001223Y007546D01*
X001147Y007468D02*
X000704Y007468D01*
X000641Y007389D02*
X001054Y007389D01*
X001460Y007546D02*
X001532Y007546D01*
X001598Y007625D02*
X001611Y007625D01*
X001673Y007704D02*
X001690Y007704D01*
X001705Y007782D02*
X001752Y007782D01*
X001752Y007861D02*
X001729Y007861D01*
X001729Y007939D02*
X001752Y007939D01*
X001752Y008018D02*
X001719Y008018D01*
X001687Y008096D02*
X001752Y008096D01*
X001752Y008175D02*
X001631Y008175D01*
X001541Y008253D02*
X001752Y008253D01*
X001752Y008332D02*
X001455Y008332D01*
X001419Y008317D02*
X001561Y008376D01*
X001670Y008485D01*
X001729Y008627D01*
X001729Y008781D01*
X001670Y008924D01*
X001561Y009033D01*
X001419Y009092D01*
X001264Y009092D01*
X001122Y009033D01*
X001013Y008924D01*
X000954Y008781D01*
X000954Y008627D01*
X001013Y008485D01*
X001122Y008376D01*
X001264Y008317D01*
X001419Y008317D01*
X001596Y008410D02*
X001752Y008410D01*
X001752Y008489D02*
X001672Y008489D01*
X001704Y008567D02*
X001752Y008567D01*
X001752Y008646D02*
X001729Y008646D01*
X001729Y008725D02*
X001752Y008725D01*
X001752Y008803D02*
X001720Y008803D01*
X001687Y008882D02*
X001752Y008882D01*
X001752Y008960D02*
X001633Y008960D01*
X001546Y009039D02*
X001752Y009039D01*
X001752Y009117D02*
X001451Y009117D01*
X001419Y009104D02*
X001561Y009163D01*
X001670Y009272D01*
X001729Y009414D01*
X001729Y009569D01*
X001670Y009711D01*
X001561Y009820D01*
X001419Y009879D01*
X001264Y009879D01*
X001122Y009820D01*
X001013Y009711D01*
X000954Y009569D01*
X000954Y009414D01*
X001013Y009272D01*
X001122Y009163D01*
X001264Y009104D01*
X001419Y009104D01*
X001594Y009196D02*
X001752Y009196D01*
X001752Y009274D02*
X001671Y009274D01*
X001704Y009353D02*
X001752Y009353D01*
X001752Y009431D02*
X001729Y009431D01*
X001729Y009510D02*
X001752Y009510D01*
X001752Y009589D02*
X001721Y009589D01*
X001752Y009667D02*
X001688Y009667D01*
X001635Y009746D02*
X001752Y009746D01*
X001752Y009824D02*
X001551Y009824D01*
X001446Y009903D02*
X001752Y009903D01*
X001752Y009981D02*
X001592Y009981D01*
X001670Y010060D02*
X001752Y010060D01*
X001752Y010138D02*
X001703Y010138D01*
X001729Y010217D02*
X001752Y010217D01*
X001752Y010295D02*
X001729Y010295D01*
X001722Y010374D02*
X001752Y010374D01*
X001752Y010453D02*
X001689Y010453D01*
X001637Y010531D02*
X001752Y010531D01*
X001237Y009903D02*
X000797Y009903D01*
X000792Y009908D02*
X000792Y009908D01*
X000761Y009981D02*
X001091Y009981D01*
X001013Y010060D02*
X000761Y010060D01*
X000761Y010078D02*
X000761Y010078D01*
X000761Y010138D02*
X000980Y010138D01*
X000954Y010217D02*
X000738Y010217D01*
X000761Y010295D02*
X000954Y010295D01*
X000962Y010374D02*
X000761Y010374D01*
X000761Y010446D02*
X000761Y010446D01*
X000761Y010453D02*
X000994Y010453D01*
X001046Y010531D02*
X000761Y010531D01*
X000713Y010610D02*
X001128Y010610D01*
X001132Y009824D02*
X000874Y009824D01*
X000874Y009826D02*
X000874Y009826D01*
X000874Y009746D02*
X001048Y009746D01*
X000995Y009667D02*
X000874Y009667D01*
X000874Y009710D02*
X000874Y009710D01*
X000867Y009589D02*
X000962Y009589D01*
X000954Y009510D02*
X000788Y009510D01*
X000818Y009431D02*
X000954Y009431D01*
X000980Y009353D02*
X000818Y009353D01*
X000761Y009285D02*
X000761Y009285D01*
X000751Y009274D02*
X001012Y009274D01*
X001089Y009196D02*
X000761Y009196D01*
X000761Y009117D02*
X001232Y009117D01*
X001137Y009039D02*
X000761Y009039D01*
X000739Y008960D02*
X001050Y008960D01*
X000996Y008882D02*
X000723Y008882D01*
X000761Y008803D02*
X000963Y008803D01*
X000954Y008725D02*
X000761Y008725D01*
X000761Y008646D02*
X000954Y008646D01*
X000979Y008567D02*
X000761Y008567D01*
X000747Y008489D02*
X001011Y008489D01*
X001087Y008410D02*
X000761Y008410D01*
X000761Y008359D02*
X000761Y008359D01*
X000761Y008332D02*
X001228Y008332D01*
X001142Y008253D02*
X000761Y008253D01*
X000690Y008175D02*
X001052Y008175D01*
X000997Y008096D02*
X000332Y008096D01*
X000332Y008018D02*
X000964Y008018D01*
X000954Y007939D02*
X000332Y007939D01*
X001718Y007232D02*
X002176Y007232D01*
X001985Y007546D02*
X002552Y007546D01*
X002559Y007468D02*
X001906Y007468D01*
X002063Y007625D02*
X002520Y007625D01*
X002442Y007704D02*
X002072Y007704D01*
X002072Y007782D02*
X002363Y007782D01*
X002285Y007861D02*
X002072Y007861D01*
X002072Y007939D02*
X002282Y007939D01*
X002282Y008018D02*
X002072Y008018D01*
X002072Y008096D02*
X002282Y008096D01*
X002282Y008175D02*
X002072Y008175D01*
X002072Y008253D02*
X002315Y008253D01*
X002394Y008332D02*
X002072Y008332D01*
X002072Y008410D02*
X002472Y008410D01*
X002499Y008646D02*
X002072Y008646D01*
X002072Y008567D02*
X002960Y008567D01*
X003038Y008489D02*
X002072Y008489D01*
X002072Y008725D02*
X002421Y008725D01*
X002342Y008803D02*
X002072Y008803D01*
X002072Y008882D02*
X002282Y008882D01*
X002282Y008960D02*
X002072Y008960D01*
X002072Y009039D02*
X002282Y009039D01*
X002282Y009117D02*
X002072Y009117D01*
X002072Y009196D02*
X002282Y009196D01*
X002336Y009274D02*
X002072Y009274D01*
X002072Y009353D02*
X002415Y009353D01*
X002493Y009431D02*
X002072Y009431D01*
X002951Y008410D02*
X003117Y008410D01*
X001652Y006054D02*
X001602Y006054D01*
X001652Y005976D02*
X001470Y005976D01*
X001527Y005897D02*
X001652Y005897D01*
X001652Y005818D02*
X001626Y005818D01*
X001604Y005269D02*
X001612Y005269D01*
X001534Y005190D02*
X001474Y005190D01*
X000874Y005897D02*
X000874Y005897D01*
X001303Y004012D02*
X000332Y004012D01*
X000332Y003776D02*
X000391Y003776D01*
X001028Y003227D02*
X001105Y003227D01*
X001105Y003148D02*
X001028Y003148D01*
X001028Y003069D02*
X001105Y003069D01*
X001105Y002912D02*
X001028Y002912D01*
X001028Y002834D02*
X001105Y002834D01*
X001105Y002755D02*
X001028Y002755D01*
X000793Y002755D02*
X000722Y002755D01*
X000722Y002834D02*
X000769Y002834D01*
X000769Y002912D02*
X000722Y002912D01*
X001303Y003619D02*
X001380Y003619D01*
X001380Y003698D02*
X001303Y003698D01*
X001303Y003776D02*
X001380Y003776D01*
X001380Y003855D02*
X001303Y003855D01*
X001303Y003933D02*
X001380Y003933D01*
X001381Y004012D02*
X001893Y004012D01*
X001937Y003933D02*
X001757Y003933D01*
X001740Y003855D02*
X001921Y003855D01*
X001921Y003776D02*
X001706Y003776D01*
X001650Y003698D02*
X001921Y003698D01*
X001921Y003619D02*
X001554Y003619D01*
X002690Y005152D02*
X002690Y005257D01*
X002640Y005378D01*
X002625Y005393D01*
X002634Y005402D01*
X002634Y005425D01*
X002766Y005425D01*
X002766Y005318D01*
X003140Y005318D01*
X003140Y005287D01*
X002766Y005287D01*
X002766Y005174D01*
X002771Y005152D01*
X002690Y005152D01*
X002690Y005190D02*
X002766Y005190D01*
X002766Y005269D02*
X002685Y005269D01*
X002652Y005347D02*
X002766Y005347D01*
X002766Y005818D02*
X002584Y005818D01*
X002650Y005897D02*
X002766Y005897D01*
X005717Y005033D02*
X006176Y005033D01*
X006176Y005112D02*
X005792Y005112D01*
X005825Y005190D02*
X006176Y005190D01*
X006176Y005269D02*
X005840Y005269D01*
X005840Y005347D02*
X006176Y005347D01*
X006171Y005426D02*
X005811Y005426D01*
X005763Y005504D02*
X006146Y005504D01*
X006146Y005583D02*
X005779Y005583D01*
X005857Y005661D02*
X006146Y005661D01*
X006146Y005740D02*
X005936Y005740D01*
X006551Y005632D02*
X006925Y005632D01*
X006925Y005746D01*
X006916Y005781D01*
X006898Y005813D01*
X006895Y005815D01*
X006895Y006082D01*
X006944Y006082D01*
X006934Y006057D01*
X006934Y005927D01*
X006984Y005806D01*
X007076Y005714D01*
X007131Y005691D01*
X007127Y005675D01*
X007127Y005548D01*
X007415Y005548D01*
X007415Y005490D01*
X007127Y005490D01*
X007127Y005363D01*
X007136Y005327D01*
X007140Y005321D01*
X006998Y005462D01*
X006918Y005462D01*
X006925Y005489D01*
X006925Y005602D01*
X006551Y005602D01*
X006551Y005632D01*
X006895Y005818D02*
X006978Y005818D01*
X006946Y005897D02*
X006895Y005897D01*
X006895Y005976D02*
X006934Y005976D01*
X006934Y006054D02*
X006895Y006054D01*
X006925Y005740D02*
X007050Y005740D01*
X007127Y005661D02*
X006925Y005661D01*
X006925Y005583D02*
X007127Y005583D01*
X007127Y005426D02*
X007035Y005426D01*
X007114Y005347D02*
X007131Y005347D01*
X006925Y005504D02*
X007415Y005504D01*
X007473Y005504D02*
X008002Y005504D01*
X009029Y006943D02*
X009029Y007258D01*
X009020Y007232D02*
X009039Y007232D01*
X009039Y007154D02*
X009020Y007154D01*
X009020Y007075D02*
X009039Y007075D01*
X009039Y006997D02*
X009020Y006997D01*
X009029Y007573D02*
X009069Y007613D01*
X009029Y007573D02*
X008990Y007613D01*
X009634Y005033D02*
X009721Y005033D01*
X006176Y004326D02*
X006154Y004326D01*
X006693Y011238D02*
X006888Y011238D01*
X006773Y011316D02*
X006630Y011316D01*
X006630Y011395D02*
X006717Y011395D01*
X006685Y011474D02*
X006630Y011474D01*
X006630Y011552D02*
X006684Y011552D01*
X006693Y011631D02*
X006630Y011631D01*
X006630Y011709D02*
X006726Y011709D01*
X006720Y011788D02*
X006794Y011788D01*
X006810Y011866D02*
X006720Y011866D01*
X006720Y011945D02*
X006810Y011945D01*
X006810Y012023D02*
X006720Y012023D01*
X006720Y012102D02*
X006810Y012102D01*
X006810Y012180D02*
X006720Y012180D01*
X006720Y012259D02*
X006810Y012259D01*
X006810Y012338D02*
X006720Y012338D01*
X006720Y012416D02*
X006810Y012416D01*
X006836Y012495D02*
X006693Y012495D01*
X006592Y012573D02*
X006230Y012573D01*
X006230Y012495D02*
X006246Y012495D01*
X006947Y012573D02*
X007302Y012573D01*
X007302Y012495D02*
X007283Y012495D01*
X007302Y012652D02*
X007022Y012652D01*
X007055Y012730D02*
X007302Y012730D01*
X007302Y012809D02*
X007065Y012809D01*
X007058Y012887D02*
X007302Y012887D01*
X007302Y012966D02*
X007026Y012966D01*
X006955Y013044D02*
X007302Y013044D01*
X004725Y013044D02*
X002898Y013044D01*
X002898Y012966D02*
X004725Y012966D01*
X004725Y012887D02*
X002898Y012887D01*
X002898Y012809D02*
X004725Y012809D01*
X004725Y012730D02*
X002898Y012730D01*
X002898Y012652D02*
X004725Y012652D01*
X004725Y012573D02*
X002898Y012573D01*
X002898Y012495D02*
X004725Y012495D01*
X004725Y012416D02*
X002898Y012416D01*
X002898Y012338D02*
X004725Y012338D01*
X004725Y012259D02*
X002898Y012259D01*
X002898Y012180D02*
X004725Y012180D01*
X004725Y012102D02*
X002898Y012102D01*
X002898Y012023D02*
X004725Y012023D01*
X004725Y013123D02*
X002898Y013123D01*
X002898Y013202D02*
X004725Y013202D01*
X004725Y013280D02*
X002898Y013280D01*
X002898Y013359D02*
X004725Y013359D01*
X004725Y013437D02*
X002898Y013437D01*
X002048Y013437D02*
X000332Y013437D01*
X000332Y013359D02*
X002048Y013359D01*
X002048Y013280D02*
X001655Y013280D01*
X001807Y013202D02*
X002048Y013202D01*
X002048Y013123D02*
X001886Y013123D01*
X001964Y013044D02*
X002048Y013044D01*
X002048Y012966D02*
X002026Y012966D01*
X000968Y013280D02*
X000332Y013280D01*
X000332Y013202D02*
X000816Y013202D01*
X000737Y013123D02*
X000332Y013123D01*
X000332Y013044D02*
X000659Y013044D01*
X000597Y012966D02*
X000332Y012966D01*
X000332Y012887D02*
X000565Y012887D01*
X000532Y012809D02*
X000332Y012809D01*
X000332Y012730D02*
X000500Y012730D01*
X000483Y012652D02*
X000332Y012652D01*
X000332Y012573D02*
X000483Y012573D01*
X000483Y012495D02*
X000332Y012495D01*
X000332Y012416D02*
X000483Y012416D01*
X000492Y012338D02*
X000332Y012338D01*
X000332Y012259D02*
X000525Y012259D01*
X000558Y012180D02*
X000332Y012180D01*
X000332Y012102D02*
X000590Y012102D01*
X000642Y012023D02*
X000332Y012023D01*
X000332Y011945D02*
X000720Y011945D01*
X000799Y011866D02*
X000332Y011866D01*
X000332Y011788D02*
X000375Y011788D01*
X000527Y011788D02*
X000545Y011788D01*
X000735Y011806D02*
X000736Y011806D01*
X000754Y011788D02*
X000927Y011788D01*
X000792Y011749D02*
X000792Y011749D01*
D30*
X002412Y011442D03*
X004862Y010842D03*
X006312Y008242D03*
X006512Y007042D03*
X007262Y005992D03*
X007612Y007242D03*
X007612Y007842D03*
X009262Y005392D03*
X009362Y004842D03*
X008612Y004392D03*
X009162Y003392D03*
X008712Y003042D03*
X006862Y003942D03*
X005512Y005292D03*
X005112Y005642D03*
X005462Y006042D03*
X004812Y006492D03*
X004962Y005092D03*
X004362Y004992D03*
X003262Y003292D03*
X002362Y005192D03*
X002262Y006542D03*
X000562Y003492D03*
X007012Y011542D03*
X007612Y010392D03*
M02*
