G75*
G70*
%OFA0B0*%
%FSLAX24Y24*%
%IPPOS*%
%LPD*%
%AMOC8*
5,1,8,0,0,1.08239X$1,22.5*
%
%ADD10C,0.1497*%
%ADD11R,0.0580X0.0300*%
%ADD12R,0.0300X0.0580*%
%ADD13C,0.0635*%
%ADD14R,0.0552X0.0297*%
%ADD15R,0.0371X0.0444*%
%ADD16R,0.0356X0.0434*%
%ADD17R,0.0474X0.1891*%
%ADD18R,0.0710X0.1419*%
%ADD19R,0.0395X0.0395*%
%ADD20R,0.0434X0.0356*%
%ADD21R,0.0671X0.0592*%
%ADD22R,0.0474X0.0789*%
%ADD23R,0.0552X0.0277*%
%ADD24R,0.0277X0.0552*%
%ADD25R,0.0749X0.0356*%
%ADD26C,0.0440*%
%ADD27R,0.0356X0.0671*%
%ADD28R,0.0474X0.0395*%
%ADD29C,0.0430*%
%ADD30OC8,0.0720*%
D10*
X001302Y012523D03*
D11*
X003146Y006560D03*
X003146Y006245D03*
X003146Y005930D03*
X003146Y005615D03*
X003146Y005300D03*
X003146Y004985D03*
X003146Y004670D03*
X003146Y004355D03*
X006526Y004355D03*
X006526Y004670D03*
X006526Y004985D03*
X006526Y005300D03*
X006526Y005615D03*
X006526Y005930D03*
X006526Y006245D03*
X006526Y006560D03*
D12*
X005938Y007147D03*
X005623Y007147D03*
X005308Y007147D03*
X004993Y007147D03*
X004678Y007147D03*
X004363Y007147D03*
X004048Y007147D03*
X003733Y007147D03*
X003733Y003767D03*
X004048Y003767D03*
X004363Y003767D03*
X004678Y003767D03*
X004993Y003767D03*
X005308Y003767D03*
X005623Y003767D03*
X005938Y003767D03*
D13*
X009993Y003977D03*
X009993Y004765D03*
X009993Y005552D03*
X009993Y006339D03*
X009993Y007127D03*
X009993Y007914D03*
X009993Y008702D03*
X009993Y009489D03*
X009993Y010276D03*
X009993Y011064D03*
X001332Y011064D03*
X001332Y010276D03*
X001332Y009489D03*
X001332Y008702D03*
X001332Y007914D03*
X001332Y007127D03*
X001332Y006339D03*
X001332Y005552D03*
X001332Y004765D03*
X001332Y003977D03*
D14*
X005990Y009065D03*
X005990Y009439D03*
X005990Y009813D03*
X007013Y009813D03*
X007013Y009065D03*
D15*
X002337Y006075D03*
X002337Y005602D03*
D16*
X002196Y003089D03*
X002708Y003089D03*
X005346Y007839D03*
X005346Y008339D03*
X005858Y008339D03*
X005858Y007839D03*
X008130Y005197D03*
X008642Y005197D03*
X008480Y003878D03*
X008992Y003878D03*
D17*
X004195Y010683D03*
X003408Y010683D03*
D18*
X002463Y012730D03*
X005140Y012730D03*
D19*
X009706Y012689D03*
X009706Y013239D03*
X010297Y013239D03*
X010297Y012689D03*
X010297Y012129D03*
X009706Y012129D03*
X001647Y002989D03*
X001056Y002989D03*
D20*
X007434Y005005D03*
X007434Y005517D03*
X009102Y008283D03*
X009102Y008795D03*
X008302Y010833D03*
X008302Y011345D03*
X007652Y011345D03*
X007652Y010833D03*
D21*
X007802Y009813D03*
X007802Y009065D03*
X005102Y009065D03*
X005102Y009813D03*
D22*
X005850Y010739D03*
X006953Y010739D03*
D23*
X008153Y007571D03*
X008153Y007256D03*
X008153Y006941D03*
X008153Y006626D03*
X008153Y006311D03*
X008153Y005996D03*
X009019Y005996D03*
X009019Y006311D03*
X009019Y006626D03*
X009019Y006941D03*
X009019Y007256D03*
X009019Y007571D03*
D24*
X008586Y007610D03*
X008586Y005957D03*
D25*
X002355Y004646D03*
X002355Y004173D03*
X002355Y003701D03*
D26*
X007717Y003391D03*
X009138Y011446D03*
D27*
X008236Y012121D03*
X007054Y012121D03*
X006464Y012121D03*
D28*
X005915Y012417D03*
X005915Y013204D03*
X008785Y013204D03*
X008787Y012417D03*
D29*
X007940Y012810D03*
X006759Y012810D03*
D30*
X000702Y001039D03*
X000702Y002039D03*
X001702Y002039D03*
X001702Y001039D03*
X002702Y001039D03*
X002702Y002039D03*
X003702Y002039D03*
X003702Y001039D03*
X004702Y001039D03*
X004702Y002039D03*
X005702Y002039D03*
X005702Y001039D03*
X006702Y001039D03*
X006702Y002039D03*
X006702Y003039D03*
X007702Y002039D03*
X007702Y001039D03*
X008702Y001039D03*
X008702Y002039D03*
X009702Y002039D03*
X009702Y001039D03*
X009702Y003039D03*
X007702Y004039D03*
X004702Y008039D03*
X003702Y008039D03*
X003702Y009039D03*
X002702Y009039D03*
X002702Y008039D03*
M02*
