G75*
G70*
%OFA0B0*%
%FSLAX24Y24*%
%IPPOS*%
%LPD*%
%AMOC8*
5,1,8,0,0,1.08239X$1,22.5*
%
%ADD10C,0.0000*%
%ADD11C,0.0060*%
%ADD12C,0.0080*%
%ADD13C,0.0040*%
%ADD14R,0.0118X0.0059*%
%ADD15R,0.0118X0.0118*%
%ADD16C,0.0050*%
D10*
X000141Y000141D02*
X000141Y013527D01*
X010574Y013527D01*
X010574Y000141D01*
X000141Y000141D01*
X007477Y003292D02*
X007479Y003318D01*
X007485Y003344D01*
X007494Y003368D01*
X007507Y003391D01*
X007523Y003412D01*
X007542Y003430D01*
X007563Y003446D01*
X007587Y003458D01*
X007611Y003466D01*
X007637Y003471D01*
X007664Y003472D01*
X007690Y003469D01*
X007715Y003462D01*
X007739Y003452D01*
X007762Y003438D01*
X007782Y003422D01*
X007799Y003402D01*
X007814Y003380D01*
X007825Y003356D01*
X007833Y003331D01*
X007837Y003305D01*
X007837Y003279D01*
X007833Y003253D01*
X007825Y003228D01*
X007814Y003204D01*
X007799Y003182D01*
X007782Y003162D01*
X007762Y003146D01*
X007739Y003132D01*
X007715Y003122D01*
X007690Y003115D01*
X007664Y003112D01*
X007637Y003113D01*
X007611Y003118D01*
X007587Y003126D01*
X007563Y003138D01*
X007542Y003154D01*
X007523Y003172D01*
X007507Y003193D01*
X007494Y003216D01*
X007485Y003240D01*
X007479Y003266D01*
X007477Y003292D01*
X008897Y011348D02*
X008899Y011374D01*
X008905Y011400D01*
X008914Y011424D01*
X008927Y011447D01*
X008943Y011468D01*
X008962Y011486D01*
X008983Y011502D01*
X009007Y011514D01*
X009031Y011522D01*
X009057Y011527D01*
X009084Y011528D01*
X009110Y011525D01*
X009135Y011518D01*
X009159Y011508D01*
X009182Y011494D01*
X009202Y011478D01*
X009219Y011458D01*
X009234Y011436D01*
X009245Y011412D01*
X009253Y011387D01*
X009257Y011361D01*
X009257Y011335D01*
X009253Y011309D01*
X009245Y011284D01*
X009234Y011260D01*
X009219Y011238D01*
X009202Y011218D01*
X009182Y011202D01*
X009159Y011188D01*
X009135Y011178D01*
X009110Y011171D01*
X009084Y011168D01*
X009057Y011169D01*
X009031Y011174D01*
X009007Y011182D01*
X008983Y011194D01*
X008962Y011210D01*
X008943Y011228D01*
X008927Y011249D01*
X008914Y011272D01*
X008905Y011296D01*
X008899Y011322D01*
X008897Y011348D01*
X007704Y012712D02*
X007706Y012738D01*
X007712Y012764D01*
X007721Y012788D01*
X007734Y012811D01*
X007751Y012831D01*
X007770Y012849D01*
X007792Y012864D01*
X007815Y012875D01*
X007840Y012883D01*
X007866Y012887D01*
X007892Y012887D01*
X007918Y012883D01*
X007943Y012875D01*
X007967Y012864D01*
X007988Y012849D01*
X008007Y012831D01*
X008024Y012811D01*
X008037Y012788D01*
X008046Y012764D01*
X008052Y012738D01*
X008054Y012712D01*
X008052Y012686D01*
X008046Y012660D01*
X008037Y012636D01*
X008024Y012613D01*
X008007Y012593D01*
X007988Y012575D01*
X007966Y012560D01*
X007943Y012549D01*
X007918Y012541D01*
X007892Y012537D01*
X007866Y012537D01*
X007840Y012541D01*
X007815Y012549D01*
X007791Y012560D01*
X007770Y012575D01*
X007751Y012593D01*
X007734Y012613D01*
X007721Y012636D01*
X007712Y012660D01*
X007706Y012686D01*
X007704Y012712D01*
X006524Y012712D02*
X006526Y012738D01*
X006532Y012764D01*
X006541Y012788D01*
X006554Y012811D01*
X006571Y012831D01*
X006590Y012849D01*
X006612Y012864D01*
X006635Y012875D01*
X006660Y012883D01*
X006686Y012887D01*
X006712Y012887D01*
X006738Y012883D01*
X006763Y012875D01*
X006787Y012864D01*
X006808Y012849D01*
X006827Y012831D01*
X006844Y012811D01*
X006857Y012788D01*
X006866Y012764D01*
X006872Y012738D01*
X006874Y012712D01*
X006872Y012686D01*
X006866Y012660D01*
X006857Y012636D01*
X006844Y012613D01*
X006827Y012593D01*
X006808Y012575D01*
X006786Y012560D01*
X006763Y012549D01*
X006738Y012541D01*
X006712Y012537D01*
X006686Y012537D01*
X006660Y012541D01*
X006635Y012549D01*
X006611Y012560D01*
X006590Y012575D01*
X006571Y012593D01*
X006554Y012613D01*
X006541Y012636D01*
X006532Y012660D01*
X006526Y012686D01*
X006524Y012712D01*
X000532Y012425D02*
X000534Y012478D01*
X000540Y012531D01*
X000550Y012583D01*
X000563Y012634D01*
X000581Y012684D01*
X000602Y012733D01*
X000627Y012780D01*
X000655Y012824D01*
X000687Y012867D01*
X000721Y012907D01*
X000759Y012945D01*
X000799Y012979D01*
X000842Y013011D01*
X000887Y013039D01*
X000933Y013064D01*
X000982Y013085D01*
X001032Y013103D01*
X001083Y013116D01*
X001135Y013126D01*
X001188Y013132D01*
X001241Y013134D01*
X001294Y013132D01*
X001347Y013126D01*
X001399Y013116D01*
X001450Y013103D01*
X001500Y013085D01*
X001549Y013064D01*
X001596Y013039D01*
X001640Y013011D01*
X001683Y012979D01*
X001723Y012945D01*
X001761Y012907D01*
X001795Y012867D01*
X001827Y012824D01*
X001855Y012780D01*
X001880Y012733D01*
X001901Y012684D01*
X001919Y012634D01*
X001932Y012583D01*
X001942Y012531D01*
X001948Y012478D01*
X001950Y012425D01*
X001948Y012372D01*
X001942Y012319D01*
X001932Y012267D01*
X001919Y012216D01*
X001901Y012166D01*
X001880Y012117D01*
X001855Y012070D01*
X001827Y012026D01*
X001795Y011983D01*
X001761Y011943D01*
X001723Y011905D01*
X001683Y011871D01*
X001640Y011839D01*
X001595Y011811D01*
X001549Y011786D01*
X001500Y011765D01*
X001450Y011747D01*
X001399Y011734D01*
X001347Y011724D01*
X001294Y011718D01*
X001241Y011716D01*
X001188Y011718D01*
X001135Y011724D01*
X001083Y011734D01*
X001032Y011747D01*
X000982Y011765D01*
X000933Y011786D01*
X000886Y011811D01*
X000842Y011839D01*
X000799Y011871D01*
X000759Y011905D01*
X000721Y011943D01*
X000687Y011983D01*
X000655Y012026D01*
X000627Y012071D01*
X000602Y012117D01*
X000581Y012166D01*
X000563Y012216D01*
X000550Y012267D01*
X000540Y012319D01*
X000534Y012372D01*
X000532Y012425D01*
D11*
X002301Y008552D02*
X008529Y008552D01*
X008529Y006463D02*
X002301Y006463D01*
X003395Y006599D02*
X003535Y006739D01*
X006155Y006739D01*
X006155Y003979D01*
X003395Y003979D01*
X003395Y006599D01*
X003554Y006439D02*
X003556Y006462D01*
X003562Y006485D01*
X003571Y006506D01*
X003584Y006526D01*
X003600Y006543D01*
X003618Y006557D01*
X003638Y006568D01*
X003660Y006576D01*
X003683Y006580D01*
X003707Y006580D01*
X003730Y006576D01*
X003752Y006568D01*
X003772Y006557D01*
X003790Y006543D01*
X003806Y006526D01*
X003819Y006506D01*
X003828Y006485D01*
X003834Y006462D01*
X003836Y006439D01*
X003834Y006416D01*
X003828Y006393D01*
X003819Y006372D01*
X003806Y006352D01*
X003790Y006335D01*
X003772Y006321D01*
X003752Y006310D01*
X003730Y006302D01*
X003707Y006298D01*
X003683Y006298D01*
X003660Y006302D01*
X003638Y006310D01*
X003618Y006321D01*
X003600Y006335D01*
X003584Y006352D01*
X003571Y006372D01*
X003562Y006393D01*
X003556Y006416D01*
X003554Y006439D01*
D12*
X002551Y004784D02*
X002039Y004784D01*
X002039Y003366D02*
X002551Y003366D01*
X000838Y002708D02*
X010366Y002708D01*
X010366Y011005D01*
X007875Y013495D01*
X003328Y013495D01*
X000838Y011005D01*
X000838Y002708D01*
X006272Y008781D02*
X006610Y008781D01*
X006760Y009235D02*
X006760Y009447D01*
X006610Y009901D02*
X006272Y009901D01*
X006091Y010341D02*
X006591Y010341D01*
X006591Y010941D02*
X006091Y010941D01*
X007935Y007669D02*
X008250Y007669D01*
X008801Y007669D02*
X009116Y007669D01*
X008487Y006291D02*
X008489Y006303D01*
X008494Y006314D01*
X008503Y006323D01*
X008514Y006328D01*
X008526Y006330D01*
X008538Y006328D01*
X008549Y006323D01*
X008558Y006314D01*
X008563Y006303D01*
X008565Y006291D01*
X008563Y006279D01*
X008558Y006268D01*
X008549Y006259D01*
X008538Y006254D01*
X008526Y006252D01*
X008514Y006254D01*
X008503Y006259D01*
X008494Y006268D01*
X008489Y006279D01*
X008487Y006291D01*
X008250Y005701D02*
X007935Y005701D01*
X008801Y005701D02*
X009116Y005701D01*
D13*
X008304Y006759D02*
X008381Y006945D01*
X008310Y006934D01*
X007520Y006934D01*
X007499Y006951D01*
X007493Y006989D01*
X007504Y007022D01*
X007548Y007208D01*
X008447Y007208D01*
X008540Y007587D01*
X008540Y007779D01*
X008518Y007800D01*
X008447Y007855D01*
X008387Y007877D01*
X007526Y007877D01*
X007493Y007872D01*
X007427Y007850D01*
X007340Y007795D01*
X007290Y007724D01*
X007224Y007592D01*
X007208Y007532D01*
X007098Y007044D01*
X007087Y006956D01*
X007087Y006901D01*
X007104Y006841D01*
X007131Y006803D01*
X007175Y006770D01*
X007219Y006759D01*
X008304Y006759D01*
X008074Y007378D02*
X007603Y007378D01*
X007597Y007384D01*
X007636Y007609D01*
X007652Y007652D01*
X007674Y007691D01*
X007707Y007707D01*
X008096Y007707D01*
X008118Y007702D01*
X008134Y007685D01*
X008134Y007614D01*
X008074Y007378D01*
X007082Y007587D02*
X006989Y007208D01*
X006090Y007208D01*
X006046Y007022D01*
X006035Y006989D01*
X006040Y006951D01*
X006062Y006934D01*
X006852Y006934D01*
X006923Y006945D01*
X006846Y006759D01*
X005761Y006759D01*
X005717Y006770D01*
X005673Y006803D01*
X005646Y006841D01*
X005629Y006901D01*
X005629Y006956D01*
X005640Y007044D01*
X005750Y007532D01*
X005766Y007592D01*
X005832Y007724D01*
X005881Y007795D01*
X005969Y007850D01*
X006035Y007872D01*
X006068Y007877D01*
X006928Y007877D01*
X006989Y007855D01*
X007060Y007800D01*
X007082Y007779D01*
X007082Y007587D01*
X006676Y007614D02*
X006616Y007378D01*
X006144Y007378D01*
X006139Y007384D01*
X006177Y007609D01*
X006194Y007652D01*
X006216Y007691D01*
X006249Y007707D01*
X006638Y007707D01*
X006660Y007702D01*
X006676Y007685D01*
X006676Y007614D01*
X005673Y007981D02*
X005607Y007707D01*
X005585Y007652D01*
X005503Y007570D01*
X005437Y007543D01*
X005350Y007521D01*
X005240Y007521D01*
X005399Y007499D01*
X005514Y007444D01*
X005519Y007433D01*
X005519Y007285D01*
X005459Y007044D01*
X005421Y006984D01*
X005410Y006918D01*
X005328Y006825D01*
X005262Y006792D01*
X005158Y006759D01*
X003255Y006759D01*
X003288Y006819D01*
X003288Y006858D01*
X003113Y007291D01*
X002658Y006847D01*
X002608Y006759D01*
X002285Y006759D01*
X002422Y006858D01*
X003058Y007455D01*
X002745Y008217D01*
X002685Y008277D01*
X003288Y008277D01*
X003288Y008245D01*
X003272Y008212D01*
X003288Y008184D01*
X003288Y008157D01*
X003425Y007811D01*
X003814Y008195D01*
X003836Y008223D01*
X003853Y008256D01*
X003858Y008277D01*
X004204Y008277D01*
X004132Y008228D01*
X004078Y008190D01*
X004001Y008124D01*
X003486Y007641D01*
X003793Y006885D01*
X003880Y006764D01*
X003897Y006764D01*
X003930Y006797D01*
X003973Y006929D01*
X004039Y007175D01*
X004116Y007488D01*
X004259Y008069D01*
X004280Y008168D01*
X004280Y008277D01*
X005525Y008277D01*
X005591Y008261D01*
X005635Y008234D01*
X005667Y008173D01*
X005689Y008118D01*
X005689Y008025D01*
X005673Y007981D01*
X005256Y007976D02*
X005180Y007685D01*
X005163Y007647D01*
X005130Y007625D01*
X004582Y007625D01*
X004697Y008091D01*
X005201Y008091D01*
X005251Y008064D01*
X005256Y007976D01*
X005043Y007428D02*
X005086Y007411D01*
X005114Y007373D01*
X005114Y007356D01*
X005032Y007033D01*
X005010Y007000D01*
X004971Y006956D01*
X004949Y006945D01*
X004418Y006945D01*
X004544Y007428D01*
X005043Y007428D01*
D14*
X010000Y011883D03*
X010000Y012179D03*
X010000Y012443D03*
X010000Y012739D03*
X010000Y012993D03*
X010000Y013289D03*
D15*
X010000Y013141D03*
X010000Y012591D03*
X010000Y012031D03*
D16*
X004836Y009261D02*
X004836Y009111D01*
X004761Y009036D01*
X004611Y009036D01*
X004611Y009261D01*
X004686Y009336D01*
X004761Y009336D01*
X004836Y009261D01*
X004611Y009036D02*
X004461Y009186D01*
X004386Y009336D01*
X004461Y008876D02*
X004611Y008876D01*
X004686Y008800D01*
X004686Y008575D01*
X004836Y008575D02*
X004386Y008575D01*
X004386Y008800D01*
X004461Y008876D01*
X004386Y008415D02*
X004386Y008265D01*
X004386Y008340D02*
X004761Y008340D01*
X004836Y008265D01*
X004836Y008190D01*
X004761Y008115D01*
X007286Y005136D02*
X007436Y005136D01*
X007361Y005136D02*
X007361Y004761D01*
X007286Y004686D01*
X007211Y004686D01*
X007136Y004761D01*
X007596Y004686D02*
X007596Y005136D01*
X007822Y005136D01*
X007897Y005061D01*
X007897Y004911D01*
X007822Y004836D01*
X007596Y004836D01*
X008057Y004761D02*
X008132Y004686D01*
X008282Y004686D01*
X008357Y004761D01*
X008357Y004911D01*
X008282Y004986D01*
X008207Y004986D01*
X008057Y004911D01*
X008057Y005136D01*
X008357Y005136D01*
X009286Y004136D02*
X009436Y004136D01*
X009361Y004136D02*
X009361Y003761D01*
X009286Y003686D01*
X009211Y003686D01*
X009136Y003761D01*
X009596Y003686D02*
X009596Y004136D01*
X009822Y004136D01*
X009897Y004061D01*
X009897Y003911D01*
X009822Y003836D01*
X009596Y003836D01*
X010057Y003911D02*
X010357Y003911D01*
X010282Y003686D02*
X010282Y004136D01*
X010057Y003911D01*
X007357Y004061D02*
X007057Y003761D01*
X007057Y003686D01*
X006897Y003911D02*
X006822Y003836D01*
X006596Y003836D01*
X006596Y003686D02*
X006596Y004136D01*
X006822Y004136D01*
X006897Y004061D01*
X006897Y003911D01*
X007057Y004136D02*
X007357Y004136D01*
X007357Y004061D01*
X006436Y004136D02*
X006286Y004136D01*
X006361Y004136D02*
X006361Y003761D01*
X006286Y003686D01*
X006211Y003686D01*
X006136Y003761D01*
M02*
