G04 This is an RS-274x file exported by *
G04 gerbv version 2.4.0 *
G04 More information is available about gerbv at *
G04 http://gerbv.gpleda.org/ *
G04 --End of header info--*
%MOIN*%
%FSLAX23Y23*%
%IPPOS*%
G04 --Define apertures--*
%ADD10C,0.0000*%
%ADD11C,0.0060*%
%ADD12C,0.0080*%
%ADD13C,0.0100*%
%ADD14C,0.0020*%
G04 --Start main section--*
G54D10*
G01X00015Y00014D02*
G01X00015Y01373D01*
G01X00015Y01373D02*
G01X01087Y01373D01*
G01X01087Y01373D02*
G01X01082Y00014D01*
G01X01082Y00014D02*
G01X00015Y00014D01*
G01X00044Y00114D02*
G01X00044Y00119D01*
G01X00044Y00119D02*
G01X00044Y00125D01*
G01X00044Y00125D02*
G01X00045Y00130D01*
G01X00045Y00130D02*
G01X00047Y00135D01*
G01X00047Y00135D02*
G01X00049Y00140D01*
G01X00049Y00140D02*
G01X00051Y00145D01*
G01X00051Y00145D02*
G01X00053Y00150D01*
G01X00053Y00150D02*
G01X00056Y00154D01*
G01X00056Y00154D02*
G01X00059Y00158D01*
G01X00059Y00158D02*
G01X00063Y00162D01*
G01X00063Y00162D02*
G01X00066Y00166D01*
G01X00066Y00166D02*
G01X00070Y00170D01*
G01X00070Y00170D02*
G01X00075Y00173D01*
G01X00075Y00173D02*
G01X00079Y00176D01*
G01X00079Y00176D02*
G01X00084Y00178D01*
G01X00084Y00178D02*
G01X00089Y00180D01*
G01X00089Y00180D02*
G01X00094Y00182D01*
G01X00094Y00182D02*
G01X00099Y00183D01*
G01X00099Y00183D02*
G01X00104Y00184D01*
G01X00104Y00184D02*
G01X00109Y00185D01*
G01X00109Y00185D02*
G01X00115Y00185D01*
G01X00115Y00185D02*
G01X00120Y00185D01*
G01X00120Y00185D02*
G01X00125Y00184D01*
G01X00125Y00184D02*
G01X00130Y00183D01*
G01X00130Y00183D02*
G01X00135Y00182D01*
G01X00135Y00182D02*
G01X00140Y00180D01*
G01X00140Y00180D02*
G01X00145Y00178D01*
G01X00145Y00178D02*
G01X00150Y00176D01*
G01X00150Y00176D02*
G01X00154Y00173D01*
G01X00154Y00173D02*
G01X00159Y00170D01*
G01X00159Y00170D02*
G01X00163Y00166D01*
G01X00163Y00166D02*
G01X00167Y00162D01*
G01X00167Y00162D02*
G01X00170Y00158D01*
G01X00170Y00158D02*
G01X00173Y00154D01*
G01X00173Y00154D02*
G01X00176Y00150D01*
G01X00176Y00150D02*
G01X00178Y00145D01*
G01X00178Y00145D02*
G01X00181Y00140D01*
G01X00181Y00140D02*
G01X00182Y00135D01*
G01X00182Y00135D02*
G01X00184Y00130D01*
G01X00184Y00130D02*
G01X00185Y00125D01*
G01X00185Y00125D02*
G01X00185Y00119D01*
G01X00185Y00119D02*
G01X00185Y00114D01*
G01X00185Y00114D02*
G01X00185Y00109D01*
G01X00185Y00109D02*
G01X00185Y00104D01*
G01X00185Y00104D02*
G01X00184Y00098D01*
G01X00184Y00098D02*
G01X00182Y00093D01*
G01X00182Y00093D02*
G01X00181Y00088D01*
G01X00181Y00088D02*
G01X00178Y00083D01*
G01X00178Y00083D02*
G01X00176Y00079D01*
G01X00176Y00079D02*
G01X00173Y00074D01*
G01X00173Y00074D02*
G01X00170Y00070D01*
G01X00170Y00070D02*
G01X00167Y00066D01*
G01X00167Y00066D02*
G01X00163Y00062D01*
G01X00163Y00062D02*
G01X00159Y00059D01*
G01X00159Y00059D02*
G01X00154Y00056D01*
G01X00154Y00056D02*
G01X00150Y00053D01*
G01X00150Y00053D02*
G01X00145Y00050D01*
G01X00145Y00050D02*
G01X00140Y00048D01*
G01X00140Y00048D02*
G01X00135Y00046D01*
G01X00135Y00046D02*
G01X00130Y00045D01*
G01X00130Y00045D02*
G01X00125Y00044D01*
G01X00125Y00044D02*
G01X00120Y00043D01*
G01X00120Y00043D02*
G01X00115Y00043D01*
G01X00115Y00043D02*
G01X00109Y00043D01*
G01X00109Y00043D02*
G01X00104Y00044D01*
G01X00104Y00044D02*
G01X00099Y00045D01*
G01X00099Y00045D02*
G01X00094Y00046D01*
G01X00094Y00046D02*
G01X00089Y00048D01*
G01X00089Y00048D02*
G01X00084Y00050D01*
G01X00084Y00050D02*
G01X00079Y00053D01*
G01X00079Y00053D02*
G01X00075Y00056D01*
G01X00075Y00056D02*
G01X00070Y00059D01*
G01X00070Y00059D02*
G01X00066Y00062D01*
G01X00066Y00062D02*
G01X00063Y00066D01*
G01X00063Y00066D02*
G01X00059Y00070D01*
G01X00059Y00070D02*
G01X00056Y00074D01*
G01X00056Y00074D02*
G01X00053Y00079D01*
G01X00053Y00079D02*
G01X00051Y00083D01*
G01X00051Y00083D02*
G01X00049Y00088D01*
G01X00049Y00088D02*
G01X00047Y00093D01*
G01X00047Y00093D02*
G01X00045Y00098D01*
G01X00045Y00098D02*
G01X00044Y00104D01*
G01X00044Y00104D02*
G01X00044Y00109D01*
G01X00044Y00109D02*
G01X00044Y00114D01*
G01X00044Y01274D02*
G01X00044Y01279D01*
G01X00044Y01279D02*
G01X00044Y01285D01*
G01X00044Y01285D02*
G01X00045Y01290D01*
G01X00045Y01290D02*
G01X00047Y01295D01*
G01X00047Y01295D02*
G01X00049Y01300D01*
G01X00049Y01300D02*
G01X00051Y01305D01*
G01X00051Y01305D02*
G01X00053Y01310D01*
G01X00053Y01310D02*
G01X00056Y01314D01*
G01X00056Y01314D02*
G01X00059Y01318D01*
G01X00059Y01318D02*
G01X00063Y01322D01*
G01X00063Y01322D02*
G01X00066Y01326D01*
G01X00066Y01326D02*
G01X00070Y01330D01*
G01X00070Y01330D02*
G01X00075Y01333D01*
G01X00075Y01333D02*
G01X00079Y01336D01*
G01X00079Y01336D02*
G01X00084Y01338D01*
G01X00084Y01338D02*
G01X00089Y01340D01*
G01X00089Y01340D02*
G01X00094Y01342D01*
G01X00094Y01342D02*
G01X00099Y01343D01*
G01X00099Y01343D02*
G01X00104Y01344D01*
G01X00104Y01344D02*
G01X00109Y01345D01*
G01X00109Y01345D02*
G01X00115Y01345D01*
G01X00115Y01345D02*
G01X00120Y01345D01*
G01X00120Y01345D02*
G01X00125Y01344D01*
G01X00125Y01344D02*
G01X00130Y01343D01*
G01X00130Y01343D02*
G01X00135Y01342D01*
G01X00135Y01342D02*
G01X00140Y01340D01*
G01X00140Y01340D02*
G01X00145Y01338D01*
G01X00145Y01338D02*
G01X00150Y01336D01*
G01X00150Y01336D02*
G01X00154Y01333D01*
G01X00154Y01333D02*
G01X00159Y01330D01*
G01X00159Y01330D02*
G01X00163Y01326D01*
G01X00163Y01326D02*
G01X00167Y01322D01*
G01X00167Y01322D02*
G01X00170Y01318D01*
G01X00170Y01318D02*
G01X00173Y01314D01*
G01X00173Y01314D02*
G01X00176Y01310D01*
G01X00176Y01310D02*
G01X00178Y01305D01*
G01X00178Y01305D02*
G01X00181Y01300D01*
G01X00181Y01300D02*
G01X00182Y01295D01*
G01X00182Y01295D02*
G01X00184Y01290D01*
G01X00184Y01290D02*
G01X00185Y01285D01*
G01X00185Y01285D02*
G01X00185Y01279D01*
G01X00185Y01279D02*
G01X00185Y01274D01*
G01X00185Y01274D02*
G01X00185Y01269D01*
G01X00185Y01269D02*
G01X00185Y01264D01*
G01X00185Y01264D02*
G01X00184Y01258D01*
G01X00184Y01258D02*
G01X00182Y01253D01*
G01X00182Y01253D02*
G01X00181Y01248D01*
G01X00181Y01248D02*
G01X00178Y01243D01*
G01X00178Y01243D02*
G01X00176Y01239D01*
G01X00176Y01239D02*
G01X00173Y01234D01*
G01X00173Y01234D02*
G01X00170Y01230D01*
G01X00170Y01230D02*
G01X00167Y01226D01*
G01X00167Y01226D02*
G01X00163Y01222D01*
G01X00163Y01222D02*
G01X00159Y01219D01*
G01X00159Y01219D02*
G01X00154Y01216D01*
G01X00154Y01216D02*
G01X00150Y01213D01*
G01X00150Y01213D02*
G01X00145Y01210D01*
G01X00145Y01210D02*
G01X00140Y01208D01*
G01X00140Y01208D02*
G01X00135Y01206D01*
G01X00135Y01206D02*
G01X00130Y01205D01*
G01X00130Y01205D02*
G01X00125Y01204D01*
G01X00125Y01204D02*
G01X00120Y01203D01*
G01X00120Y01203D02*
G01X00115Y01203D01*
G01X00115Y01203D02*
G01X00109Y01203D01*
G01X00109Y01203D02*
G01X00104Y01204D01*
G01X00104Y01204D02*
G01X00099Y01205D01*
G01X00099Y01205D02*
G01X00094Y01206D01*
G01X00094Y01206D02*
G01X00089Y01208D01*
G01X00089Y01208D02*
G01X00084Y01210D01*
G01X00084Y01210D02*
G01X00079Y01213D01*
G01X00079Y01213D02*
G01X00075Y01216D01*
G01X00075Y01216D02*
G01X00070Y01219D01*
G01X00070Y01219D02*
G01X00066Y01222D01*
G01X00066Y01222D02*
G01X00063Y01226D01*
G01X00063Y01226D02*
G01X00059Y01230D01*
G01X00059Y01230D02*
G01X00056Y01234D01*
G01X00056Y01234D02*
G01X00053Y01239D01*
G01X00053Y01239D02*
G01X00051Y01243D01*
G01X00051Y01243D02*
G01X00049Y01248D01*
G01X00049Y01248D02*
G01X00047Y01253D01*
G01X00047Y01253D02*
G01X00045Y01258D01*
G01X00045Y01258D02*
G01X00044Y01264D01*
G01X00044Y01264D02*
G01X00044Y01269D01*
G01X00044Y01269D02*
G01X00044Y01274D01*
G01X00912Y01274D02*
G01X00912Y01279D01*
G01X00912Y01279D02*
G01X00913Y01285D01*
G01X00913Y01285D02*
G01X00914Y01290D01*
G01X00914Y01290D02*
G01X00915Y01295D01*
G01X00915Y01295D02*
G01X00917Y01300D01*
G01X00917Y01300D02*
G01X00919Y01305D01*
G01X00919Y01305D02*
G01X00921Y01310D01*
G01X00921Y01310D02*
G01X00924Y01314D01*
G01X00924Y01314D02*
G01X00927Y01318D01*
G01X00927Y01318D02*
G01X00931Y01322D01*
G01X00931Y01322D02*
G01X00935Y01326D01*
G01X00935Y01326D02*
G01X00939Y01330D01*
G01X00939Y01330D02*
G01X00943Y01333D01*
G01X00943Y01333D02*
G01X00947Y01336D01*
G01X00947Y01336D02*
G01X00952Y01338D01*
G01X00952Y01338D02*
G01X00957Y01340D01*
G01X00957Y01340D02*
G01X00962Y01342D01*
G01X00962Y01342D02*
G01X00967Y01343D01*
G01X00967Y01343D02*
G01X00972Y01344D01*
G01X00972Y01344D02*
G01X00977Y01345D01*
G01X00977Y01345D02*
G01X00983Y01345D01*
G01X00983Y01345D02*
G01X00988Y01345D01*
G01X00988Y01345D02*
G01X00993Y01344D01*
G01X00993Y01344D02*
G01X00999Y01343D01*
G01X00999Y01343D02*
G01X01004Y01342D01*
G01X01004Y01342D02*
G01X01009Y01340D01*
G01X01009Y01340D02*
G01X01014Y01338D01*
G01X01014Y01338D02*
G01X01018Y01336D01*
G01X01018Y01336D02*
G01X01023Y01333D01*
G01X01023Y01333D02*
G01X01027Y01330D01*
G01X01027Y01330D02*
G01X01031Y01326D01*
G01X01031Y01326D02*
G01X01035Y01322D01*
G01X01035Y01322D02*
G01X01038Y01318D01*
G01X01038Y01318D02*
G01X01041Y01314D01*
G01X01041Y01314D02*
G01X01044Y01310D01*
G01X01044Y01310D02*
G01X01047Y01305D01*
G01X01047Y01305D02*
G01X01049Y01300D01*
G01X01049Y01300D02*
G01X01051Y01295D01*
G01X01051Y01295D02*
G01X01052Y01290D01*
G01X01052Y01290D02*
G01X01053Y01285D01*
G01X01053Y01285D02*
G01X01053Y01279D01*
G01X01053Y01279D02*
G01X01054Y01274D01*
G01X01054Y01274D02*
G01X01053Y01269D01*
G01X01053Y01269D02*
G01X01053Y01264D01*
G01X01053Y01264D02*
G01X01052Y01258D01*
G01X01052Y01258D02*
G01X01051Y01253D01*
G01X01051Y01253D02*
G01X01049Y01248D01*
G01X01049Y01248D02*
G01X01047Y01243D01*
G01X01047Y01243D02*
G01X01044Y01239D01*
G01X01044Y01239D02*
G01X01041Y01234D01*
G01X01041Y01234D02*
G01X01038Y01230D01*
G01X01038Y01230D02*
G01X01035Y01226D01*
G01X01035Y01226D02*
G01X01031Y01222D01*
G01X01031Y01222D02*
G01X01027Y01219D01*
G01X01027Y01219D02*
G01X01023Y01216D01*
G01X01023Y01216D02*
G01X01018Y01213D01*
G01X01018Y01213D02*
G01X01014Y01210D01*
G01X01014Y01210D02*
G01X01009Y01208D01*
G01X01009Y01208D02*
G01X01004Y01206D01*
G01X01004Y01206D02*
G01X00999Y01205D01*
G01X00999Y01205D02*
G01X00993Y01204D01*
G01X00993Y01204D02*
G01X00988Y01203D01*
G01X00988Y01203D02*
G01X00983Y01203D01*
G01X00983Y01203D02*
G01X00977Y01203D01*
G01X00977Y01203D02*
G01X00972Y01204D01*
G01X00972Y01204D02*
G01X00967Y01205D01*
G01X00967Y01205D02*
G01X00962Y01206D01*
G01X00962Y01206D02*
G01X00957Y01208D01*
G01X00957Y01208D02*
G01X00952Y01210D01*
G01X00952Y01210D02*
G01X00947Y01213D01*
G01X00947Y01213D02*
G01X00943Y01216D01*
G01X00943Y01216D02*
G01X00939Y01219D01*
G01X00939Y01219D02*
G01X00935Y01222D01*
G01X00935Y01222D02*
G01X00931Y01226D01*
G01X00931Y01226D02*
G01X00927Y01230D01*
G01X00927Y01230D02*
G01X00924Y01234D01*
G01X00924Y01234D02*
G01X00921Y01239D01*
G01X00921Y01239D02*
G01X00919Y01243D01*
G01X00919Y01243D02*
G01X00917Y01248D01*
G01X00917Y01248D02*
G01X00915Y01253D01*
G01X00915Y01253D02*
G01X00914Y01258D01*
G01X00914Y01258D02*
G01X00913Y01264D01*
G01X00913Y01264D02*
G01X00912Y01269D01*
G01X00912Y01269D02*
G01X00912Y01274D01*
G01X00912Y00114D02*
G01X00912Y00119D01*
G01X00912Y00119D02*
G01X00913Y00125D01*
G01X00913Y00125D02*
G01X00914Y00130D01*
G01X00914Y00130D02*
G01X00915Y00135D01*
G01X00915Y00135D02*
G01X00917Y00140D01*
G01X00917Y00140D02*
G01X00919Y00145D01*
G01X00919Y00145D02*
G01X00921Y00150D01*
G01X00921Y00150D02*
G01X00924Y00154D01*
G01X00924Y00154D02*
G01X00927Y00158D01*
G01X00927Y00158D02*
G01X00931Y00162D01*
G01X00931Y00162D02*
G01X00935Y00166D01*
G01X00935Y00166D02*
G01X00939Y00170D01*
G01X00939Y00170D02*
G01X00943Y00173D01*
G01X00943Y00173D02*
G01X00947Y00176D01*
G01X00947Y00176D02*
G01X00952Y00178D01*
G01X00952Y00178D02*
G01X00957Y00180D01*
G01X00957Y00180D02*
G01X00962Y00182D01*
G01X00962Y00182D02*
G01X00967Y00183D01*
G01X00967Y00183D02*
G01X00972Y00184D01*
G01X00972Y00184D02*
G01X00977Y00185D01*
G01X00977Y00185D02*
G01X00983Y00185D01*
G01X00983Y00185D02*
G01X00988Y00185D01*
G01X00988Y00185D02*
G01X00993Y00184D01*
G01X00993Y00184D02*
G01X00999Y00183D01*
G01X00999Y00183D02*
G01X01004Y00182D01*
G01X01004Y00182D02*
G01X01009Y00180D01*
G01X01009Y00180D02*
G01X01014Y00178D01*
G01X01014Y00178D02*
G01X01018Y00176D01*
G01X01018Y00176D02*
G01X01023Y00173D01*
G01X01023Y00173D02*
G01X01027Y00170D01*
G01X01027Y00170D02*
G01X01031Y00166D01*
G01X01031Y00166D02*
G01X01035Y00162D01*
G01X01035Y00162D02*
G01X01038Y00158D01*
G01X01038Y00158D02*
G01X01041Y00154D01*
G01X01041Y00154D02*
G01X01044Y00150D01*
G01X01044Y00150D02*
G01X01047Y00145D01*
G01X01047Y00145D02*
G01X01049Y00140D01*
G01X01049Y00140D02*
G01X01051Y00135D01*
G01X01051Y00135D02*
G01X01052Y00130D01*
G01X01052Y00130D02*
G01X01053Y00125D01*
G01X01053Y00125D02*
G01X01053Y00119D01*
G01X01053Y00119D02*
G01X01054Y00114D01*
G01X01054Y00114D02*
G01X01053Y00109D01*
G01X01053Y00109D02*
G01X01053Y00104D01*
G01X01053Y00104D02*
G01X01052Y00098D01*
G01X01052Y00098D02*
G01X01051Y00093D01*
G01X01051Y00093D02*
G01X01049Y00088D01*
G01X01049Y00088D02*
G01X01047Y00083D01*
G01X01047Y00083D02*
G01X01044Y00079D01*
G01X01044Y00079D02*
G01X01041Y00074D01*
G01X01041Y00074D02*
G01X01038Y00070D01*
G01X01038Y00070D02*
G01X01035Y00066D01*
G01X01035Y00066D02*
G01X01031Y00062D01*
G01X01031Y00062D02*
G01X01027Y00059D01*
G01X01027Y00059D02*
G01X01023Y00056D01*
G01X01023Y00056D02*
G01X01018Y00053D01*
G01X01018Y00053D02*
G01X01014Y00050D01*
G01X01014Y00050D02*
G01X01009Y00048D01*
G01X01009Y00048D02*
G01X01004Y00046D01*
G01X01004Y00046D02*
G01X00999Y00045D01*
G01X00999Y00045D02*
G01X00993Y00044D01*
G01X00993Y00044D02*
G01X00988Y00043D01*
G01X00988Y00043D02*
G01X00983Y00043D01*
G01X00983Y00043D02*
G01X00977Y00043D01*
G01X00977Y00043D02*
G01X00972Y00044D01*
G01X00972Y00044D02*
G01X00967Y00045D01*
G01X00967Y00045D02*
G01X00962Y00046D01*
G01X00962Y00046D02*
G01X00957Y00048D01*
G01X00957Y00048D02*
G01X00952Y00050D01*
G01X00952Y00050D02*
G01X00947Y00053D01*
G01X00947Y00053D02*
G01X00943Y00056D01*
G01X00943Y00056D02*
G01X00939Y00059D01*
G01X00939Y00059D02*
G01X00935Y00062D01*
G01X00935Y00062D02*
G01X00931Y00066D01*
G01X00931Y00066D02*
G01X00927Y00070D01*
G01X00927Y00070D02*
G01X00924Y00074D01*
G01X00924Y00074D02*
G01X00921Y00079D01*
G01X00921Y00079D02*
G01X00919Y00083D01*
G01X00919Y00083D02*
G01X00917Y00088D01*
G01X00917Y00088D02*
G01X00915Y00093D01*
G01X00915Y00093D02*
G01X00914Y00098D01*
G01X00914Y00098D02*
G01X00913Y00104D01*
G01X00913Y00104D02*
G01X00912Y00109D01*
G01X00912Y00109D02*
G01X00912Y00114D01*
G54D11*
G01X00811Y00131D02*
G01X00811Y00154D01*
G01X00811Y00131D02*
G01X00794Y00131D01*
G01X00794Y00131D02*
G01X00789Y00137D01*
G01X00789Y00137D02*
G01X00789Y00154D01*
G01X00775Y00148D02*
G01X00775Y00142D01*
G01X00775Y00142D02*
G01X00752Y00142D01*
G01X00752Y00148D02*
G01X00757Y00154D01*
G01X00757Y00154D02*
G01X00769Y00154D01*
G01X00769Y00154D02*
G01X00775Y00148D01*
G01X00769Y00131D02*
G01X00757Y00131D01*
G01X00757Y00131D02*
G01X00752Y00137D01*
G01X00752Y00137D02*
G01X00752Y00148D01*
G01X00739Y00137D02*
G01X00739Y00131D01*
G01X00739Y00131D02*
G01X00733Y00131D01*
G01X00733Y00131D02*
G01X00733Y00137D01*
G01X00733Y00137D02*
G01X00739Y00137D01*
G01X00719Y00142D02*
G01X00697Y00142D01*
G01X00697Y00148D02*
G01X00702Y00154D01*
G01X00702Y00154D02*
G01X00714Y00154D01*
G01X00714Y00154D02*
G01X00719Y00148D01*
G01X00719Y00148D02*
G01X00719Y00142D01*
G01X00714Y00131D02*
G01X00702Y00131D01*
G01X00702Y00131D02*
G01X00697Y00137D01*
G01X00697Y00137D02*
G01X00697Y00148D01*
G01X00682Y00154D02*
G01X00682Y00125D01*
G01X00682Y00125D02*
G01X00677Y00120D01*
G01X00677Y00120D02*
G01X00671Y00120D01*
G01X00665Y00131D02*
G01X00660Y00137D01*
G01X00660Y00137D02*
G01X00660Y00148D01*
G01X00660Y00148D02*
G01X00665Y00154D01*
G01X00665Y00154D02*
G01X00682Y00154D01*
G01X00682Y00131D02*
G01X00665Y00131D01*
G01X00646Y00131D02*
G01X00629Y00131D01*
G01X00629Y00131D02*
G01X00623Y00137D01*
G01X00623Y00137D02*
G01X00629Y00142D01*
G01X00629Y00142D02*
G01X00646Y00142D01*
G01X00646Y00148D02*
G01X00646Y00131D01*
G01X00646Y00148D02*
G01X00640Y00154D01*
G01X00640Y00154D02*
G01X00629Y00154D01*
G01X00610Y00154D02*
G01X00598Y00154D01*
G01X00604Y00159D02*
G01X00604Y00137D01*
G01X00604Y00137D02*
G01X00610Y00131D01*
G01X00584Y00137D02*
G01X00579Y00142D01*
G01X00579Y00142D02*
G01X00567Y00142D01*
G01X00567Y00142D02*
G01X00562Y00148D01*
G01X00562Y00148D02*
G01X00567Y00154D01*
G01X00567Y00154D02*
G01X00584Y00154D01*
G01X00584Y00137D02*
G01X00579Y00131D01*
G01X00579Y00131D02*
G01X00562Y00131D01*
G01X00547Y00142D02*
G01X00525Y00142D01*
G01X00525Y00148D02*
G01X00530Y00154D01*
G01X00530Y00154D02*
G01X00542Y00154D01*
G01X00542Y00154D02*
G01X00547Y00148D01*
G01X00547Y00148D02*
G01X00547Y00142D01*
G01X00542Y00131D02*
G01X00530Y00131D01*
G01X00530Y00131D02*
G01X00525Y00137D01*
G01X00525Y00137D02*
G01X00525Y00148D01*
G01X00510Y00154D02*
G01X00494Y00154D01*
G01X00494Y00154D02*
G01X00488Y00148D01*
G01X00488Y00148D02*
G01X00494Y00142D01*
G01X00494Y00142D02*
G01X00505Y00142D01*
G01X00505Y00142D02*
G01X00510Y00137D01*
G01X00510Y00137D02*
G01X00505Y00131D01*
G01X00505Y00131D02*
G01X00488Y00131D01*
G01X00474Y00131D02*
G01X00474Y00148D01*
G01X00474Y00148D02*
G01X00468Y00154D01*
G01X00468Y00154D02*
G01X00451Y00154D01*
G01X00451Y00154D02*
G01X00451Y00131D01*
G01X00437Y00142D02*
G01X00414Y00142D01*
G01X00414Y00148D02*
G01X00420Y00154D01*
G01X00420Y00154D02*
G01X00431Y00154D01*
G01X00431Y00154D02*
G01X00437Y00148D01*
G01X00437Y00148D02*
G01X00437Y00142D01*
G01X00431Y00131D02*
G01X00420Y00131D01*
G01X00420Y00131D02*
G01X00414Y00137D01*
G01X00414Y00137D02*
G01X00414Y00148D01*
G01X00400Y00154D02*
G01X00383Y00154D01*
G01X00383Y00154D02*
G01X00377Y00148D01*
G01X00377Y00148D02*
G01X00383Y00142D01*
G01X00383Y00142D02*
G01X00394Y00142D01*
G01X00394Y00142D02*
G01X00400Y00137D01*
G01X00400Y00137D02*
G01X00394Y00131D01*
G01X00394Y00131D02*
G01X00377Y00131D01*
G01X00365Y00131D02*
G01X00359Y00131D01*
G01X00359Y00131D02*
G01X00359Y00137D01*
G01X00359Y00137D02*
G01X00365Y00137D01*
G01X00365Y00137D02*
G01X00365Y00131D01*
G01X00345Y00137D02*
G01X00345Y00154D01*
G01X00345Y00137D02*
G01X00339Y00131D01*
G01X00339Y00131D02*
G01X00333Y00137D01*
G01X00333Y00137D02*
G01X00328Y00131D01*
G01X00328Y00131D02*
G01X00322Y00137D01*
G01X00322Y00137D02*
G01X00322Y00154D01*
G01X00308Y00154D02*
G01X00308Y00137D01*
G01X00308Y00137D02*
G01X00302Y00131D01*
G01X00302Y00131D02*
G01X00297Y00137D01*
G01X00297Y00137D02*
G01X00291Y00131D01*
G01X00291Y00131D02*
G01X00285Y00137D01*
G01X00285Y00137D02*
G01X00285Y00154D01*
G01X00271Y00154D02*
G01X00271Y00137D01*
G01X00271Y00137D02*
G01X00265Y00131D01*
G01X00265Y00131D02*
G01X00260Y00137D01*
G01X00260Y00137D02*
G01X00254Y00131D01*
G01X00254Y00131D02*
G01X00248Y00137D01*
G01X00248Y00137D02*
G01X00248Y00154D01*
G01X00664Y00340D02*
G01X00677Y00340D01*
G01X00677Y00340D02*
G01X00681Y00344D01*
G01X00681Y00344D02*
G01X00681Y00362D01*
G01X00681Y00362D02*
G01X00677Y00366D01*
G01X00677Y00366D02*
G01X00664Y00366D01*
G01X00664Y00366D02*
G01X00664Y00340D01*
G01X00694Y00340D02*
G01X00711Y00340D01*
G01X00702Y00340D02*
G01X00702Y00366D01*
G01X00702Y00366D02*
G01X00694Y00358D01*
G01X00723Y00358D02*
G01X00732Y00366D01*
G01X00732Y00366D02*
G01X00732Y00340D01*
G01X00723Y00340D02*
G01X00740Y00340D01*
G01X00764Y00440D02*
G01X00777Y00440D01*
G01X00777Y00440D02*
G01X00781Y00444D01*
G01X00781Y00444D02*
G01X00781Y00462D01*
G01X00781Y00462D02*
G01X00777Y00466D01*
G01X00777Y00466D02*
G01X00764Y00466D01*
G01X00764Y00466D02*
G01X00764Y00440D01*
G01X00794Y00440D02*
G01X00811Y00440D01*
G01X00802Y00440D02*
G01X00802Y00466D01*
G01X00802Y00466D02*
G01X00794Y00458D01*
G01X00823Y00462D02*
G01X00827Y00466D01*
G01X00827Y00466D02*
G01X00836Y00466D01*
G01X00836Y00466D02*
G01X00840Y00462D01*
G01X00840Y00462D02*
G01X00840Y00458D01*
G01X00840Y00458D02*
G01X00836Y00453D01*
G01X00836Y00453D02*
G01X00840Y00449D01*
G01X00840Y00449D02*
G01X00840Y00444D01*
G01X00840Y00444D02*
G01X00836Y00440D01*
G01X00836Y00440D02*
G01X00827Y00440D01*
G01X00827Y00440D02*
G01X00823Y00444D01*
G01X00832Y00453D02*
G01X00836Y00453D01*
G01X00964Y00366D02*
G01X00964Y00340D01*
G01X00964Y00340D02*
G01X00977Y00340D01*
G01X00977Y00340D02*
G01X00981Y00344D01*
G01X00981Y00344D02*
G01X00981Y00362D01*
G01X00981Y00362D02*
G01X00977Y00366D01*
G01X00977Y00366D02*
G01X00964Y00366D01*
G01X00994Y00358D02*
G01X01002Y00366D01*
G01X01002Y00366D02*
G01X01002Y00340D01*
G01X00994Y00340D02*
G01X01011Y00340D01*
G01X01023Y00340D02*
G01X01040Y00358D01*
G01X01040Y00358D02*
G01X01040Y00362D01*
G01X01040Y00362D02*
G01X01036Y00366D01*
G01X01036Y00366D02*
G01X01027Y00366D01*
G01X01027Y00366D02*
G01X01023Y00362D01*
G01X01023Y00340D02*
G01X01040Y00340D01*
G01X00556Y00746D02*
G01X00539Y00746D01*
G01X00547Y00746D02*
G01X00547Y00720D01*
G01X00526Y00725D02*
G01X00522Y00720D01*
G01X00522Y00720D02*
G01X00513Y00720D01*
G01X00513Y00720D02*
G01X00509Y00725D01*
G01X00513Y00733D02*
G01X00522Y00733D01*
G01X00522Y00733D02*
G01X00526Y00729D01*
G01X00526Y00729D02*
G01X00526Y00725D01*
G01X00513Y00733D02*
G01X00509Y00738D01*
G01X00509Y00738D02*
G01X00509Y00742D01*
G01X00509Y00742D02*
G01X00513Y00746D01*
G01X00513Y00746D02*
G01X00522Y00746D01*
G01X00522Y00746D02*
G01X00526Y00742D01*
G01X00497Y00742D02*
G01X00497Y00733D01*
G01X00497Y00733D02*
G01X00493Y00729D01*
G01X00493Y00729D02*
G01X00480Y00729D01*
G01X00480Y00720D02*
G01X00480Y00746D01*
G01X00480Y00746D02*
G01X00493Y00746D01*
G01X00493Y00746D02*
G01X00497Y00742D01*
G01X00488Y00729D02*
G01X00497Y00720D01*
G01X00443Y00726D02*
G01X00439Y00722D01*
G01X00439Y00722D02*
G01X00430Y00722D01*
G01X00430Y00722D02*
G01X00426Y00726D01*
G01X00435Y00735D02*
G01X00439Y00735D01*
G01X00439Y00735D02*
G01X00443Y00730D01*
G01X00443Y00730D02*
G01X00443Y00726D01*
G01X00439Y00735D02*
G01X00443Y00739D01*
G01X00443Y00739D02*
G01X00443Y00743D01*
G01X00443Y00743D02*
G01X00439Y00748D01*
G01X00439Y00748D02*
G01X00430Y00748D01*
G01X00430Y00748D02*
G01X00426Y00743D01*
G01X00414Y00739D02*
G01X00405Y00722D01*
G01X00405Y00722D02*
G01X00397Y00739D01*
G01X00384Y00739D02*
G01X00380Y00735D01*
G01X00380Y00735D02*
G01X00384Y00730D01*
G01X00384Y00730D02*
G01X00384Y00726D01*
G01X00384Y00726D02*
G01X00380Y00722D01*
G01X00380Y00722D02*
G01X00371Y00722D01*
G01X00371Y00722D02*
G01X00367Y00726D01*
G01X00376Y00735D02*
G01X00380Y00735D01*
G01X00384Y00739D02*
G01X00384Y00743D01*
G01X00384Y00743D02*
G01X00380Y00748D01*
G01X00380Y00748D02*
G01X00371Y00748D01*
G01X00371Y00748D02*
G01X00367Y00743D01*
G01X00330Y00744D02*
G01X00312Y00718D01*
G01X00330Y00718D02*
G01X00312Y00744D01*
G01X00300Y00744D02*
G01X00283Y00744D01*
G01X00292Y00744D02*
G01X00292Y00718D01*
G01X00288Y00943D02*
G01X00288Y00969D01*
G01X00288Y00969D02*
G01X00301Y00969D01*
G01X00301Y00969D02*
G01X00306Y00964D01*
G01X00306Y00964D02*
G01X00306Y00956D01*
G01X00306Y00956D02*
G01X00301Y00951D01*
G01X00301Y00951D02*
G01X00288Y00951D01*
G01X00297Y00951D02*
G01X00306Y00943D01*
G01X00318Y00943D02*
G01X00335Y00969D01*
G01X00318Y00969D02*
G01X00335Y00943D01*
G01X00378Y00946D02*
G01X00382Y00941D01*
G01X00382Y00941D02*
G01X00391Y00941D01*
G01X00391Y00941D02*
G01X00395Y00946D01*
G01X00395Y00946D02*
G01X00395Y00954D01*
G01X00395Y00954D02*
G01X00387Y00954D01*
G01X00395Y00963D02*
G01X00391Y00967D01*
G01X00391Y00967D02*
G01X00382Y00967D01*
G01X00382Y00967D02*
G01X00378Y00963D01*
G01X00378Y00963D02*
G01X00378Y00946D01*
G01X00408Y00941D02*
G01X00408Y00967D01*
G01X00408Y00967D02*
G01X00425Y00941D01*
G01X00425Y00941D02*
G01X00425Y00967D01*
G01X00437Y00967D02*
G01X00450Y00967D01*
G01X00450Y00967D02*
G01X00454Y00963D01*
G01X00454Y00963D02*
G01X00454Y00946D01*
G01X00454Y00946D02*
G01X00450Y00941D01*
G01X00450Y00941D02*
G01X00437Y00941D01*
G01X00437Y00941D02*
G01X00437Y00967D01*
G01X00562Y01041D02*
G01X00575Y01041D01*
G01X00575Y01041D02*
G01X00579Y01045D01*
G01X00579Y01045D02*
G01X00579Y01063D01*
G01X00579Y01063D02*
G01X00575Y01067D01*
G01X00575Y01067D02*
G01X00562Y01067D01*
G01X00562Y01067D02*
G01X00562Y01041D01*
G01X00591Y01041D02*
G01X00609Y01041D01*
G01X00600Y01041D02*
G01X00600Y01067D01*
G01X00600Y01067D02*
G01X00591Y01058D01*
G01X00621Y01058D02*
G01X00629Y01067D01*
G01X00629Y01067D02*
G01X00629Y01041D01*
G01X00621Y01041D02*
G01X00638Y01041D01*
G01X00773Y01147D02*
G01X00777Y01143D01*
G01X00777Y01143D02*
G01X00786Y01143D01*
G01X00786Y01143D02*
G01X00790Y01147D01*
G01X00790Y01147D02*
G01X00790Y01152D01*
G01X00790Y01152D02*
G01X00786Y01156D01*
G01X00786Y01156D02*
G01X00781Y01156D01*
G01X00786Y01156D02*
G01X00790Y01160D01*
G01X00790Y01160D02*
G01X00790Y01165D01*
G01X00790Y01165D02*
G01X00786Y01169D01*
G01X00786Y01169D02*
G01X00777Y01169D01*
G01X00777Y01169D02*
G01X00773Y01165D01*
G01X00802Y01160D02*
G01X00811Y01143D01*
G01X00811Y01143D02*
G01X00819Y01160D01*
G01X00832Y01165D02*
G01X00836Y01169D01*
G01X00836Y01169D02*
G01X00845Y01169D01*
G01X00845Y01169D02*
G01X00849Y01165D01*
G01X00849Y01165D02*
G01X00849Y01160D01*
G01X00849Y01160D02*
G01X00845Y01156D01*
G01X00845Y01156D02*
G01X00849Y01152D01*
G01X00849Y01152D02*
G01X00849Y01147D01*
G01X00849Y01147D02*
G01X00845Y01143D01*
G01X00845Y01143D02*
G01X00836Y01143D01*
G01X00836Y01143D02*
G01X00832Y01147D01*
G01X00840Y01156D02*
G01X00845Y01156D01*
G01X00848Y01238D02*
G01X00830Y01238D01*
G01X00830Y01238D02*
G01X00848Y01255D01*
G01X00848Y01255D02*
G01X00848Y01259D01*
G01X00848Y01259D02*
G01X00843Y01264D01*
G01X00843Y01264D02*
G01X00834Y01264D01*
G01X00834Y01264D02*
G01X00830Y01259D01*
G01X00818Y01238D02*
G01X00801Y01238D01*
G01X00809Y01238D02*
G01X00809Y01264D01*
G01X00809Y01264D02*
G01X00801Y01255D01*
G01X00789Y01259D02*
G01X00789Y01242D01*
G01X00789Y01242D02*
G01X00784Y01238D01*
G01X00784Y01238D02*
G01X00771Y01238D01*
G01X00771Y01238D02*
G01X00771Y01264D01*
G01X00771Y01264D02*
G01X00784Y01264D01*
G01X00784Y01264D02*
G01X00789Y01259D01*
G01X00644Y01326D02*
G01X00639Y01322D01*
G01X00639Y01322D02*
G01X00631Y01322D01*
G01X00631Y01322D02*
G01X00626Y01326D01*
G01X00635Y01335D02*
G01X00639Y01335D01*
G01X00639Y01335D02*
G01X00644Y01331D01*
G01X00644Y01331D02*
G01X00644Y01326D01*
G01X00639Y01335D02*
G01X00644Y01339D01*
G01X00644Y01339D02*
G01X00644Y01344D01*
G01X00644Y01344D02*
G01X00639Y01348D01*
G01X00639Y01348D02*
G01X00631Y01348D01*
G01X00631Y01348D02*
G01X00626Y01344D01*
G01X00605Y01348D02*
G01X00605Y01322D01*
G01X00597Y01322D02*
G01X00614Y01322D01*
G01X00597Y01339D02*
G01X00605Y01348D01*
G01X00585Y01344D02*
G01X00585Y01326D01*
G01X00585Y01326D02*
G01X00580Y01322D01*
G01X00580Y01322D02*
G01X00567Y01322D01*
G01X00567Y01322D02*
G01X00567Y01348D01*
G01X00567Y01348D02*
G01X00580Y01348D01*
G01X00580Y01348D02*
G01X00585Y01344D01*
G01X00446Y01278D02*
G01X00428Y01278D01*
G01X00437Y01278D02*
G01X00437Y01252D01*
G01X00416Y01256D02*
G01X00412Y01252D01*
G01X00412Y01252D02*
G01X00403Y01252D01*
G01X00403Y01252D02*
G01X00399Y01256D01*
G01X00403Y01265D02*
G01X00412Y01265D01*
G01X00412Y01265D02*
G01X00416Y01260D01*
G01X00416Y01260D02*
G01X00416Y01256D01*
G01X00403Y01265D02*
G01X00399Y01269D01*
G01X00399Y01269D02*
G01X00399Y01273D01*
G01X00399Y01273D02*
G01X00403Y01278D01*
G01X00403Y01278D02*
G01X00412Y01278D01*
G01X00412Y01278D02*
G01X00416Y01273D01*
G01X00387Y01273D02*
G01X00387Y01265D01*
G01X00387Y01265D02*
G01X00382Y01260D01*
G01X00382Y01260D02*
G01X00369Y01260D01*
G01X00378Y01260D02*
G01X00387Y01252D01*
G01X00387Y01273D02*
G01X00382Y01278D01*
G01X00382Y01278D02*
G01X00369Y01278D01*
G01X00369Y01278D02*
G01X00369Y01252D01*
G01X00371Y01168D02*
G01X00366Y01164D01*
G01X00366Y01164D02*
G01X00366Y01146D01*
G01X00366Y01146D02*
G01X00371Y01142D01*
G01X00371Y01142D02*
G01X00379Y01142D01*
G01X00379Y01142D02*
G01X00384Y01146D01*
G01X00384Y01146D02*
G01X00384Y01155D01*
G01X00384Y01155D02*
G01X00375Y01155D01*
G01X00384Y01164D02*
G01X00379Y01168D01*
G01X00379Y01168D02*
G01X00371Y01168D01*
G01X00396Y01168D02*
G01X00396Y01142D01*
G01X00413Y01142D02*
G01X00396Y01168D01*
G01X00413Y01168D02*
G01X00413Y01142D01*
G01X00425Y01142D02*
G01X00438Y01142D01*
G01X00438Y01142D02*
G01X00443Y01146D01*
G01X00443Y01146D02*
G01X00443Y01164D01*
G01X00443Y01164D02*
G01X00438Y01168D01*
G01X00438Y01168D02*
G01X00425Y01168D01*
G01X00425Y01168D02*
G01X00425Y01142D01*
G54D12*
G01X00265Y01164D02*
G01X00265Y01114D01*
G01X00265Y01114D02*
G01X00240Y01089D01*
G01X00240Y01089D02*
G01X00265Y01064D01*
G01X00265Y01064D02*
G01X00265Y01014D01*
G01X00265Y01014D02*
G01X00240Y00989D01*
G01X00240Y00989D02*
G01X00265Y00964D01*
G01X00265Y00964D02*
G01X00265Y00914D01*
G01X00265Y00914D02*
G01X00240Y00889D01*
G01X00240Y00889D02*
G01X00265Y00864D01*
G01X00265Y00864D02*
G01X00265Y00814D01*
G01X00265Y00814D02*
G01X00240Y00789D01*
G01X00240Y00789D02*
G01X00190Y00789D01*
G01X00190Y00789D02*
G01X00165Y00814D01*
G01X00165Y00814D02*
G01X00165Y00864D01*
G01X00165Y00864D02*
G01X00190Y00889D01*
G01X00190Y00889D02*
G01X00165Y00914D01*
G01X00165Y00914D02*
G01X00165Y00964D01*
G01X00165Y00964D02*
G01X00190Y00989D01*
G01X00190Y00989D02*
G01X00165Y01014D01*
G01X00165Y01014D02*
G01X00165Y01064D01*
G01X00165Y01064D02*
G01X00190Y01089D01*
G01X00190Y01089D02*
G01X00165Y01114D01*
G01X00165Y01114D02*
G01X00165Y01164D01*
G01X00165Y01164D02*
G01X00190Y01189D01*
G01X00190Y01189D02*
G01X00240Y01189D01*
G01X00240Y01189D02*
G01X00265Y01164D01*
G01X00134Y01027D02*
G01X00035Y01027D01*
G01X00035Y01027D02*
G01X00035Y00220D01*
G01X00035Y00220D02*
G01X00134Y00220D01*
G01X00134Y00220D02*
G01X00134Y01027D01*
G01X00187Y00676D02*
G01X00179Y00668D01*
G01X00179Y00668D02*
G01X00179Y00660D01*
G01X00179Y00660D02*
G01X00187Y00652D01*
G01X00187Y00652D02*
G01X00203Y00652D01*
G01X00203Y00652D02*
G01X00211Y00644D01*
G01X00211Y00644D02*
G01X00211Y00636D01*
G01X00211Y00636D02*
G01X00203Y00628D01*
G01X00203Y00628D02*
G01X00187Y00628D01*
G01X00187Y00628D02*
G01X00179Y00636D01*
G01X00187Y00676D02*
G01X00203Y00676D01*
G01X00203Y00676D02*
G01X00211Y00668D01*
G01X00230Y00652D02*
G01X00238Y00660D01*
G01X00238Y00660D02*
G01X00254Y00660D01*
G01X00254Y00660D02*
G01X00262Y00652D01*
G01X00262Y00652D02*
G01X00262Y00644D01*
G01X00262Y00644D02*
G01X00230Y00644D01*
G01X00230Y00636D02*
G01X00230Y00652D01*
G01X00230Y00636D02*
G01X00238Y00628D01*
G01X00238Y00628D02*
G01X00254Y00628D01*
G01X00282Y00628D02*
G01X00282Y00660D01*
G01X00282Y00660D02*
G01X00306Y00660D01*
G01X00306Y00660D02*
G01X00314Y00652D01*
G01X00314Y00652D02*
G01X00314Y00628D01*
G01X00333Y00628D02*
G01X00357Y00628D01*
G01X00357Y00628D02*
G01X00365Y00636D01*
G01X00365Y00636D02*
G01X00357Y00644D01*
G01X00357Y00644D02*
G01X00341Y00644D01*
G01X00341Y00644D02*
G01X00333Y00652D01*
G01X00333Y00652D02*
G01X00341Y00660D01*
G01X00341Y00660D02*
G01X00365Y00660D01*
G01X00385Y00652D02*
G01X00393Y00660D01*
G01X00393Y00660D02*
G01X00409Y00660D01*
G01X00409Y00660D02*
G01X00417Y00652D01*
G01X00417Y00652D02*
G01X00417Y00644D01*
G01X00417Y00644D02*
G01X00385Y00644D01*
G01X00385Y00636D02*
G01X00385Y00652D01*
G01X00385Y00636D02*
G01X00393Y00628D01*
G01X00393Y00628D02*
G01X00409Y00628D01*
G01X00436Y00636D02*
G01X00444Y00628D01*
G01X00444Y00628D02*
G01X00460Y00628D01*
G01X00460Y00628D02*
G01X00468Y00636D01*
G01X00468Y00636D02*
G01X00468Y00644D01*
G01X00468Y00644D02*
G01X00460Y00652D01*
G01X00460Y00652D02*
G01X00444Y00652D01*
G01X00444Y00652D02*
G01X00436Y00660D01*
G01X00436Y00660D02*
G01X00436Y00668D01*
G01X00436Y00668D02*
G01X00444Y00676D01*
G01X00444Y00676D02*
G01X00460Y00676D01*
G01X00460Y00676D02*
G01X00468Y00668D01*
G01X00488Y00660D02*
G01X00504Y00660D01*
G01X00496Y00668D02*
G01X00496Y00636D01*
G01X00496Y00636D02*
G01X00504Y00628D01*
G01X00522Y00636D02*
G01X00530Y00644D01*
G01X00530Y00644D02*
G01X00554Y00644D01*
G01X00554Y00652D02*
G01X00546Y00660D01*
G01X00546Y00660D02*
G01X00530Y00660D01*
G01X00522Y00636D02*
G01X00530Y00628D01*
G01X00530Y00628D02*
G01X00554Y00628D01*
G01X00554Y00628D02*
G01X00554Y00652D01*
G01X00574Y00652D02*
G01X00574Y00636D01*
G01X00574Y00636D02*
G01X00582Y00628D01*
G01X00582Y00628D02*
G01X00606Y00628D01*
G01X00606Y00620D02*
G01X00598Y00612D01*
G01X00598Y00612D02*
G01X00590Y00612D01*
G01X00606Y00620D02*
G01X00606Y00660D01*
G01X00606Y00660D02*
G01X00582Y00660D01*
G01X00582Y00660D02*
G01X00574Y00652D01*
G01X00625Y00652D02*
G01X00625Y00636D01*
G01X00625Y00636D02*
G01X00633Y00628D01*
G01X00633Y00628D02*
G01X00649Y00628D01*
G01X00657Y00644D02*
G01X00625Y00644D01*
G01X00625Y00652D02*
G01X00633Y00660D01*
G01X00633Y00660D02*
G01X00649Y00660D01*
G01X00649Y00660D02*
G01X00657Y00652D01*
G01X00657Y00652D02*
G01X00657Y00644D01*
G01X00655Y00574D02*
G01X00647Y00574D01*
G01X00647Y00574D02*
G01X00631Y00558D01*
G01X00631Y00542D02*
G01X00631Y00574D01*
G01X00611Y00566D02*
G01X00611Y00558D01*
G01X00611Y00558D02*
G01X00579Y00558D01*
G01X00579Y00550D02*
G01X00579Y00566D01*
G01X00579Y00566D02*
G01X00587Y00574D01*
G01X00587Y00574D02*
G01X00603Y00574D01*
G01X00603Y00574D02*
G01X00611Y00566D01*
G01X00603Y00542D02*
G01X00587Y00542D01*
G01X00587Y00542D02*
G01X00579Y00550D01*
G01X00559Y00542D02*
G01X00559Y00566D01*
G01X00559Y00566D02*
G01X00551Y00574D01*
G01X00551Y00574D02*
G01X00543Y00566D01*
G01X00543Y00566D02*
G01X00543Y00542D01*
G01X00543Y00566D02*
G01X00535Y00574D01*
G01X00535Y00574D02*
G01X00527Y00574D01*
G01X00527Y00574D02*
G01X00527Y00542D01*
G01X00508Y00542D02*
G01X00508Y00566D01*
G01X00508Y00566D02*
G01X00500Y00574D01*
G01X00500Y00574D02*
G01X00492Y00566D01*
G01X00492Y00566D02*
G01X00492Y00542D01*
G01X00476Y00542D02*
G01X00476Y00574D01*
G01X00476Y00574D02*
G01X00484Y00574D01*
G01X00484Y00574D02*
G01X00492Y00566D01*
G01X00456Y00566D02*
G01X00456Y00542D01*
G01X00456Y00542D02*
G01X00432Y00542D01*
G01X00432Y00542D02*
G01X00424Y00550D01*
G01X00424Y00550D02*
G01X00432Y00558D01*
G01X00432Y00558D02*
G01X00456Y00558D01*
G01X00456Y00566D02*
G01X00448Y00574D01*
G01X00448Y00574D02*
G01X00432Y00574D01*
G01X00405Y00574D02*
G01X00397Y00574D01*
G01X00397Y00574D02*
G01X00381Y00558D01*
G01X00381Y00542D02*
G01X00381Y00574D01*
G01X00362Y00574D02*
G01X00338Y00574D01*
G01X00338Y00574D02*
G01X00330Y00566D01*
G01X00330Y00566D02*
G01X00330Y00550D01*
G01X00330Y00550D02*
G01X00338Y00542D01*
G01X00338Y00542D02*
G01X00362Y00542D01*
G01X00362Y00534D02*
G01X00362Y00574D01*
G01X00362Y00534D02*
G01X00354Y00526D01*
G01X00354Y00526D02*
G01X00346Y00526D01*
G01X00310Y00550D02*
G01X00310Y00566D01*
G01X00310Y00566D02*
G01X00302Y00574D01*
G01X00302Y00574D02*
G01X00286Y00574D01*
G01X00286Y00574D02*
G01X00278Y00566D01*
G01X00278Y00566D02*
G01X00278Y00550D01*
G01X00278Y00550D02*
G01X00286Y00542D01*
G01X00286Y00542D02*
G01X00302Y00542D01*
G01X00302Y00542D02*
G01X00310Y00550D01*
G01X00259Y00574D02*
G01X00251Y00574D01*
G01X00251Y00574D02*
G01X00235Y00558D01*
G01X00235Y00542D02*
G01X00235Y00574D01*
G01X00216Y00566D02*
G01X00208Y00558D01*
G01X00208Y00558D02*
G01X00184Y00558D01*
G01X00184Y00542D02*
G01X00184Y00590D01*
G01X00184Y00590D02*
G01X00208Y00590D01*
G01X00208Y00590D02*
G01X00216Y00582D01*
G01X00216Y00582D02*
G01X00216Y00566D01*
G01X00729Y00628D02*
G01X00729Y00676D01*
G01X00729Y00676D02*
G01X00745Y00660D01*
G01X00745Y00660D02*
G01X00761Y00676D01*
G01X00761Y00676D02*
G01X00761Y00628D01*
G01X00780Y00628D02*
G01X00796Y00628D01*
G01X00788Y00628D02*
G01X00788Y00660D01*
G01X00788Y00660D02*
G01X00780Y00660D01*
G01X00788Y00676D02*
G01X00788Y00684D01*
G01X00814Y00660D02*
G01X00838Y00660D01*
G01X00838Y00660D02*
G01X00847Y00652D01*
G01X00847Y00652D02*
G01X00847Y00628D01*
G01X00866Y00628D02*
G01X00882Y00628D01*
G01X00874Y00628D02*
G01X00874Y00660D01*
G01X00874Y00660D02*
G01X00866Y00660D01*
G01X00874Y00676D02*
G01X00874Y00684D01*
G01X00900Y00676D02*
G01X00924Y00676D01*
G01X00924Y00676D02*
G01X00932Y00668D01*
G01X00932Y00668D02*
G01X00932Y00660D01*
G01X00932Y00660D02*
G01X00924Y00652D01*
G01X00924Y00652D02*
G01X00900Y00652D01*
G01X00900Y00628D02*
G01X00900Y00676D01*
G01X00924Y00652D02*
G01X00932Y00644D01*
G01X00932Y00644D02*
G01X00932Y00636D01*
G01X00932Y00636D02*
G01X00924Y00628D01*
G01X00924Y00628D02*
G01X00900Y00628D01*
G01X00952Y00636D02*
G01X00952Y00652D01*
G01X00952Y00652D02*
G01X00960Y00660D01*
G01X00960Y00660D02*
G01X00976Y00660D01*
G01X00976Y00660D02*
G01X00984Y00652D01*
G01X00984Y00652D02*
G01X00984Y00644D01*
G01X00984Y00644D02*
G01X00952Y00644D01*
G01X00952Y00636D02*
G01X00960Y00628D01*
G01X00960Y00628D02*
G01X00976Y00628D01*
G01X01004Y00636D02*
G01X01004Y00652D01*
G01X01004Y00652D02*
G01X01012Y00660D01*
G01X01012Y00660D02*
G01X01028Y00660D01*
G01X01028Y00660D02*
G01X01036Y00652D01*
G01X01036Y00652D02*
G01X01036Y00644D01*
G01X01036Y00644D02*
G01X01004Y00644D01*
G01X01004Y00636D02*
G01X01012Y00628D01*
G01X01012Y00628D02*
G01X01028Y00628D01*
G01X00814Y00628D02*
G01X00814Y00660D01*
G54D13*
G01X00875Y00566D02*
G01X00875Y00539D01*
G01X00875Y00553D02*
G01X00888Y00566D01*
G01X00888Y00566D02*
G01X00895Y00566D01*
G01X00913Y00559D02*
G01X00913Y00546D01*
G01X00913Y00546D02*
G01X00920Y00539D01*
G01X00920Y00539D02*
G01X00933Y00539D01*
G01X00940Y00553D02*
G01X00913Y00553D01*
G01X00913Y00559D02*
G01X00920Y00566D01*
G01X00920Y00566D02*
G01X00933Y00566D01*
G01X00933Y00566D02*
G01X00940Y00559D01*
G01X00940Y00559D02*
G01X00940Y00553D01*
G01X00959Y00566D02*
G01X00972Y00539D01*
G01X00972Y00539D02*
G01X00986Y00566D01*
G01X01005Y00579D02*
G01X01005Y00539D01*
G01X01005Y00539D02*
G01X01025Y00539D01*
G01X01025Y00539D02*
G01X01032Y00546D01*
G01X01032Y00546D02*
G01X01032Y00573D01*
G01X01032Y00573D02*
G01X01025Y00579D01*
G01X01025Y00579D02*
G01X01005Y00579D01*
G54D14*
G01X00749Y01081D02*
G01X00742Y01081D01*
G01X00742Y01081D02*
G01X00738Y01085D01*
G01X00742Y01092D02*
G01X00749Y01092D01*
G01X00749Y01092D02*
G01X00753Y01088D01*
G01X00753Y01088D02*
G01X00753Y01085D01*
G01X00753Y01085D02*
G01X00749Y01081D01*
G01X00742Y01092D02*
G01X00738Y01096D01*
G01X00738Y01096D02*
G01X00738Y01100D01*
G01X00738Y01100D02*
G01X00742Y01103D01*
G01X00742Y01103D02*
G01X00749Y01103D01*
G01X00749Y01103D02*
G01X00753Y01100D01*
G01X00731Y01103D02*
G01X00731Y01081D01*
G01X00731Y01081D02*
G01X00716Y01103D01*
G01X00716Y01103D02*
G01X00716Y01081D01*
G01X00709Y01085D02*
G01X00709Y01088D01*
G01X00709Y01088D02*
G01X00705Y01092D01*
G01X00705Y01092D02*
G01X00694Y01092D01*
G01X00694Y01092D02*
G01X00694Y01085D01*
G01X00694Y01085D02*
G01X00698Y01081D01*
G01X00698Y01081D02*
G01X00705Y01081D01*
G01X00705Y01081D02*
G01X00709Y01085D01*
G01X00702Y01100D02*
G01X00694Y01092D01*
G01X00702Y01100D02*
G01X00709Y01103D01*
G01X00687Y01077D02*
G01X00672Y01077D01*
G01X00665Y01085D02*
G01X00665Y01092D01*
G01X00665Y01092D02*
G01X00657Y01092D01*
G01X00650Y01085D02*
G01X00654Y01081D01*
G01X00654Y01081D02*
G01X00661Y01081D01*
G01X00661Y01081D02*
G01X00665Y01085D01*
G01X00665Y01100D02*
G01X00661Y01103D01*
G01X00661Y01103D02*
G01X00654Y01103D01*
G01X00654Y01103D02*
G01X00650Y01100D01*
G01X00650Y01100D02*
G01X00650Y01085D01*
G01X00643Y01081D02*
G01X00635Y01088D01*
G01X00639Y01088D02*
G01X00628Y01088D01*
G01X00628Y01081D02*
G01X00628Y01103D01*
G01X00628Y01103D02*
G01X00639Y01103D01*
G01X00639Y01103D02*
G01X00643Y01100D01*
G01X00643Y01100D02*
G01X00643Y01092D01*
G01X00643Y01092D02*
G01X00639Y01088D01*
G01X00621Y01092D02*
G01X00617Y01088D01*
G01X00617Y01088D02*
G01X00606Y01088D01*
G01X00606Y01081D02*
G01X00606Y01103D01*
G01X00606Y01103D02*
G01X00617Y01103D01*
G01X00617Y01103D02*
G01X00621Y01100D01*
G01X00621Y01100D02*
G01X00621Y01092D01*
G01X00598Y01077D02*
G01X00584Y01077D01*
G01X00576Y01081D02*
G01X00569Y01081D01*
G01X00573Y01081D02*
G01X00573Y01103D01*
G01X00569Y01103D02*
G01X00576Y01103D01*
G01X00562Y01100D02*
G01X00562Y01092D01*
G01X00562Y01092D02*
G01X00558Y01088D01*
G01X00558Y01088D02*
G01X00547Y01088D01*
G01X00547Y01081D02*
G01X00547Y01103D01*
G01X00547Y01103D02*
G01X00558Y01103D01*
G01X00558Y01103D02*
G01X00562Y01100D01*
G01X00539Y01100D02*
G01X00536Y01103D01*
G01X00536Y01103D02*
G01X00528Y01103D01*
G01X00528Y01103D02*
G01X00525Y01100D01*
G01X00525Y01100D02*
G01X00525Y01096D01*
G01X00525Y01096D02*
G01X00528Y01092D01*
G01X00528Y01092D02*
G01X00536Y01092D01*
G01X00536Y01092D02*
G01X00539Y01088D01*
G01X00539Y01088D02*
G01X00539Y01085D01*
G01X00539Y01085D02*
G01X00536Y01081D01*
G01X00536Y01081D02*
G01X00528Y01081D01*
G01X00528Y01081D02*
G01X00525Y01085D01*
G01X00517Y01077D02*
G01X00503Y01077D01*
G01X00495Y01081D02*
G01X00488Y01088D01*
G01X00492Y01088D02*
G01X00481Y01088D01*
G01X00481Y01081D02*
G01X00481Y01103D01*
G01X00481Y01103D02*
G01X00492Y01103D01*
G01X00492Y01103D02*
G01X00495Y01100D01*
G01X00495Y01100D02*
G01X00495Y01092D01*
G01X00495Y01092D02*
G01X00492Y01088D01*
G01X00473Y01088D02*
G01X00466Y01081D01*
G01X00466Y01081D02*
G01X00459Y01088D01*
G01X00459Y01088D02*
G01X00459Y01103D01*
G01X00451Y01096D02*
G01X00451Y01081D01*
G01X00451Y01092D02*
G01X00436Y01092D01*
G01X00436Y01096D02*
G01X00436Y01081D01*
G01X00436Y01096D02*
G01X00444Y01103D01*
G01X00444Y01103D02*
G01X00451Y01096D01*
G01X00473Y01103D02*
G01X00473Y01088D01*
G01X00300Y01116D02*
G01X00300Y01119D01*
G01X00300Y01119D02*
G01X00296Y01123D01*
G01X00296Y01123D02*
G01X00278Y01123D01*
G01X00278Y01119D02*
G01X00278Y01127D01*
G01X00278Y01134D02*
G01X00278Y01145D01*
G01X00278Y01145D02*
G01X00281Y01149D01*
G01X00281Y01149D02*
G01X00289Y01149D01*
G01X00289Y01149D02*
G01X00292Y01145D01*
G01X00292Y01145D02*
G01X00292Y01134D01*
G01X00300Y01134D02*
G01X00278Y01134D01*
G01X00296Y01112D02*
G01X00300Y01116D01*
G01X00296Y01156D02*
G01X00300Y01160D01*
G01X00300Y01160D02*
G01X00300Y01167D01*
G01X00300Y01167D02*
G01X00296Y01171D01*
G01X00296Y01171D02*
G01X00281Y01171D01*
G01X00281Y01171D02*
G01X00278Y01167D01*
G01X00278Y01167D02*
G01X00278Y01160D01*
G01X00278Y01160D02*
G01X00281Y01156D01*
G01X00281Y01156D02*
G01X00285Y01156D01*
G01X00285Y01156D02*
G01X00289Y01160D01*
G01X00289Y01160D02*
G01X00289Y01171D01*
G01X00400Y01293D02*
G01X00404Y01293D01*
G01X00404Y01293D02*
G01X00407Y01297D01*
G01X00407Y01297D02*
G01X00407Y01315D01*
G01X00404Y01315D02*
G01X00411Y01315D01*
G01X00418Y01308D02*
G01X00426Y01315D01*
G01X00426Y01315D02*
G01X00426Y01293D01*
G01X00418Y01293D02*
G01X00433Y01293D01*
G01X00400Y01293D02*
G01X00396Y01297D01*
G01X00169Y00585D02*
G01X00147Y00585D01*
G01X00147Y00585D02*
G01X00154Y00578D01*
G01X00154Y00578D02*
G01X00147Y00571D01*
G01X00147Y00571D02*
G01X00169Y00571D01*
G01X00169Y00563D02*
G01X00147Y00563D01*
G01X00147Y00563D02*
G01X00154Y00556D01*
G01X00154Y00556D02*
G01X00147Y00549D01*
G01X00147Y00549D02*
G01X00169Y00549D01*
G01X00169Y00541D02*
G01X00169Y00526D01*
G01X00169Y00526D02*
G01X00154Y00541D01*
G01X00154Y00541D02*
G01X00150Y00541D01*
G01X00150Y00541D02*
G01X00147Y00537D01*
G01X00147Y00537D02*
G01X00147Y00530D01*
G01X00147Y00530D02*
G01X00150Y00526D01*
G01X00150Y00519D02*
G01X00165Y00504D01*
G01X00165Y00504D02*
G01X00169Y00508D01*
G01X00169Y00508D02*
G01X00169Y00515D01*
G01X00169Y00515D02*
G01X00165Y00519D01*
G01X00165Y00519D02*
G01X00150Y00519D01*
G01X00150Y00519D02*
G01X00147Y00515D01*
G01X00147Y00515D02*
G01X00147Y00508D01*
G01X00147Y00508D02*
G01X00150Y00504D01*
G01X00150Y00504D02*
G01X00165Y00504D01*
G01X00169Y00497D02*
G01X00169Y00482D01*
G01X00169Y00490D02*
G01X00147Y00490D01*
G01X00147Y00490D02*
G01X00154Y00482D01*
G01X00147Y00475D02*
G01X00169Y00475D01*
G01X00169Y00460D02*
G01X00147Y00460D01*
G01X00147Y00460D02*
G01X00154Y00467D01*
G01X00154Y00467D02*
G01X00147Y00475D01*
G01X00148Y00306D02*
G01X00152Y00306D01*
G01X00152Y00306D02*
G01X00156Y00302D01*
G01X00156Y00302D02*
G01X00156Y00295D01*
G01X00156Y00295D02*
G01X00152Y00291D01*
G01X00152Y00291D02*
G01X00148Y00291D01*
G01X00148Y00291D02*
G01X00145Y00295D01*
G01X00145Y00295D02*
G01X00145Y00302D01*
G01X00145Y00302D02*
G01X00148Y00306D01*
G01X00156Y00302D02*
G01X00159Y00306D01*
G01X00159Y00306D02*
G01X00163Y00306D01*
G01X00163Y00306D02*
G01X00167Y00302D01*
G01X00167Y00302D02*
G01X00167Y00295D01*
G01X00167Y00295D02*
G01X00163Y00291D01*
G01X00163Y00291D02*
G01X00159Y00291D01*
G01X00159Y00291D02*
G01X00156Y00295D01*
G01X00156Y00284D02*
G01X00148Y00284D01*
G01X00148Y00284D02*
G01X00145Y00280D01*
G01X00145Y00280D02*
G01X00145Y00269D01*
G01X00145Y00269D02*
G01X00167Y00269D01*
G01X00159Y00269D02*
G01X00159Y00280D01*
G01X00159Y00280D02*
G01X00156Y00284D01*
G01X00145Y00262D02*
G01X00145Y00254D01*
G01X00145Y00258D02*
G01X00163Y00258D01*
G01X00163Y00258D02*
G01X00167Y00254D01*
G01X00167Y00254D02*
G01X00167Y00251D01*
G01X00167Y00251D02*
G01X00163Y00247D01*
M02*
