G04 #@! TF.FileFunction,Other,Fab,Top*
%FSLAX46Y46*%
G04 Gerber Fmt 4.6, Leading zero omitted, Abs format (unit mm)*
G04 Created by KiCad (PCBNEW 4.0.2+dfsg1-stable) date Wed 18 Jan 2017 17:06:10 CET*
%MOMM*%
G01*
G04 APERTURE LIST*
%ADD10C,0.100000*%
%ADD11C,0.150000*%
G04 APERTURE END LIST*
D10*
D11*
X59600Y43400D02*
X26559600Y43400D01*
X26559600Y43400D02*
X26559600Y34043400D01*
X26559600Y34043400D02*
X59600Y34043400D01*
X59600Y34043400D02*
X59600Y43400D01*
X12954714Y30400738D02*
X13097571Y30353119D01*
X13335667Y30353119D01*
X13430905Y30400738D01*
X13478524Y30448357D01*
X13526143Y30543595D01*
X13526143Y30638833D01*
X13478524Y30734071D01*
X13430905Y30781690D01*
X13335667Y30829310D01*
X13145190Y30876929D01*
X13049952Y30924548D01*
X13002333Y30972167D01*
X12954714Y31067405D01*
X12954714Y31162643D01*
X13002333Y31257881D01*
X13049952Y31305500D01*
X13145190Y31353119D01*
X13383286Y31353119D01*
X13526143Y31305500D01*
X13859476Y31019786D02*
X14049952Y30353119D01*
X14240429Y30829310D01*
X14430905Y30353119D01*
X14621381Y31019786D01*
X15002333Y30353119D02*
X15002333Y31019786D01*
X15002333Y31353119D02*
X14954714Y31305500D01*
X15002333Y31257881D01*
X15049952Y31305500D01*
X15002333Y31353119D01*
X15002333Y31257881D01*
X15335666Y31019786D02*
X15716618Y31019786D01*
X15478523Y31353119D02*
X15478523Y30495976D01*
X15526142Y30400738D01*
X15621380Y30353119D01*
X15716618Y30353119D01*
X16478524Y30400738D02*
X16383286Y30353119D01*
X16192809Y30353119D01*
X16097571Y30400738D01*
X16049952Y30448357D01*
X16002333Y30543595D01*
X16002333Y30829310D01*
X16049952Y30924548D01*
X16097571Y30972167D01*
X16192809Y31019786D01*
X16383286Y31019786D01*
X16478524Y30972167D01*
X16907095Y30353119D02*
X16907095Y31353119D01*
X17335667Y30353119D02*
X17335667Y30876929D01*
X17288048Y30972167D01*
X17192810Y31019786D01*
X17049952Y31019786D01*
X16954714Y30972167D01*
X16907095Y30924548D01*
X17573762Y30257881D02*
X18335667Y30257881D01*
X18526143Y30400738D02*
X18669000Y30353119D01*
X18907096Y30353119D01*
X19002334Y30400738D01*
X19049953Y30448357D01*
X19097572Y30543595D01*
X19097572Y30638833D01*
X19049953Y30734071D01*
X19002334Y30781690D01*
X18907096Y30829310D01*
X18716619Y30876929D01*
X18621381Y30924548D01*
X18573762Y30972167D01*
X18526143Y31067405D01*
X18526143Y31162643D01*
X18573762Y31257881D01*
X18621381Y31305500D01*
X18716619Y31353119D01*
X18954715Y31353119D01*
X19097572Y31305500D01*
X19526143Y30353119D02*
X19526143Y31353119D01*
X19907096Y31353119D01*
X20002334Y31305500D01*
X20049953Y31257881D01*
X20097572Y31162643D01*
X20097572Y31019786D01*
X20049953Y30924548D01*
X20002334Y30876929D01*
X19907096Y30829310D01*
X19526143Y30829310D01*
X20526143Y30353119D02*
X20526143Y31353119D01*
X20764238Y31353119D01*
X20907096Y31305500D01*
X21002334Y31210262D01*
X21049953Y31115024D01*
X21097572Y30924548D01*
X21097572Y30781690D01*
X21049953Y30591214D01*
X21002334Y30495976D01*
X20907096Y30400738D01*
X20764238Y30353119D01*
X20526143Y30353119D01*
X21383286Y31353119D02*
X21954715Y31353119D01*
X21669000Y30353119D02*
X21669000Y31353119D01*
X22049953Y30257881D02*
X22811858Y30257881D01*
X22954715Y30353119D02*
X23478525Y31019786D01*
X22954715Y31019786D02*
X23478525Y30353119D01*
X23811858Y31257881D02*
X23859477Y31305500D01*
X23954715Y31353119D01*
X24192811Y31353119D01*
X24288049Y31305500D01*
X24335668Y31257881D01*
X24383287Y31162643D01*
X24383287Y31067405D01*
X24335668Y30924548D01*
X23764239Y30353119D01*
X24383287Y30353119D01*
M02*
