G04 #@! TF.FileFunction,Copper,L2,Bot,Signal*
%FSLAX46Y46*%
G04 Gerber Fmt 4.6, Leading zero omitted, Abs format (unit mm)*
G04 Created by KiCad (PCBNEW 4.0.2+dfsg1-stable) date Tue 17 Jan 2017 16:40:36 CET*
%MOMM*%
G01*
G04 APERTURE LIST*
%ADD10C,0.100000*%
%ADD11C,0.150000*%
%ADD12C,1.270000*%
%ADD13C,1.625600*%
%ADD14C,1.524000*%
%ADD15C,2.999740*%
%ADD16O,1.800000X1.200000*%
%ADD17C,0.600000*%
%ADD18C,0.250000*%
%ADD19C,0.254000*%
%ADD20C,0.203200*%
G04 APERTURE END LIST*
D10*
D11*
X1666666Y0D02*
G75*
G03X1666666Y0I-1666666J0D01*
G01*
X-2500000Y0D02*
X2500000Y0D01*
X0Y2500000D02*
X0Y-2500000D01*
X59600Y43400D02*
X26559600Y43400D01*
X26559600Y43400D02*
X26559600Y34043400D01*
X26559600Y34043400D02*
X59600Y34043400D01*
X59600Y34043400D02*
X59600Y43400D01*
D12*
X2929600Y27537400D03*
X2929600Y25537400D03*
X2929600Y23537400D03*
X2929600Y21537400D03*
X2929600Y19537400D03*
X2929600Y17537400D03*
X2929600Y15537400D03*
X2929600Y13537400D03*
X2929600Y11537400D03*
X2929600Y9537400D03*
X24929600Y9537400D03*
X24929600Y11537400D03*
X24929600Y13537400D03*
X24929600Y15537400D03*
X24929600Y17537400D03*
X24929600Y19537400D03*
X24929600Y21537400D03*
X24929600Y23537400D03*
X24929600Y25537400D03*
X24929600Y27537400D03*
D10*
G36*
X13392381Y6844612D02*
X9640263Y7506212D01*
X10081329Y10007624D01*
X13833447Y9346024D01*
X13392381Y6844612D01*
X13392381Y6844612D01*
G37*
G36*
X16673914Y25455115D02*
X12921796Y26116715D01*
X13362862Y28618127D01*
X17114980Y27956527D01*
X16673914Y25455115D01*
X16673914Y25455115D01*
G37*
D13*
X1329600Y2075400D03*
X1329600Y4615400D03*
X3869600Y2075400D03*
X3869600Y4615400D03*
X6409600Y2075400D03*
X6409600Y4615400D03*
X8949600Y2075400D03*
X8949600Y4615400D03*
X11489600Y2075400D03*
X11489600Y4615400D03*
X14029600Y2075400D03*
X14029600Y4615400D03*
X16569600Y2075400D03*
X16569600Y4615400D03*
X19109600Y2075400D03*
X19109600Y4615400D03*
X21649600Y2075400D03*
X21649600Y4615400D03*
X24189600Y2075400D03*
X24189600Y4615400D03*
X11489600Y19855400D03*
X6409600Y19855400D03*
X6409600Y22395400D03*
X24189600Y7155400D03*
X19109600Y9695400D03*
X8949600Y22395400D03*
X8949600Y19855400D03*
X16569600Y7155400D03*
D14*
X20002500Y31305500D03*
X16129000Y31369000D03*
X22208500Y19494500D03*
X22208500Y15748000D03*
D15*
X12558500Y31797000D03*
X7058500Y31797000D03*
D16*
X21169000Y29655500D03*
X18669000Y29655500D03*
X16169000Y29655500D03*
X21169000Y32955500D03*
X18669000Y32955500D03*
X16169000Y32955500D03*
D17*
X22529800Y24498300D03*
X12124600Y12362400D03*
X5524500Y17487900D03*
X6184900Y15443200D03*
X18605500Y11049000D03*
X8255000Y29781500D03*
X18923000Y17208500D03*
X25590500Y29019500D03*
X20764500Y22733000D03*
X17462500Y21209000D03*
X11290300Y10388600D03*
X7581900Y7150100D03*
X21395600Y10584400D03*
X698500Y6731000D03*
X2159000Y8382000D03*
X15553600Y20363400D03*
X5520600Y12616400D03*
X18855600Y19347400D03*
X12065000Y27051000D03*
X3683000Y10541000D03*
X10490200Y11696700D03*
X14389100Y13246100D03*
X23050500Y11747500D03*
X17966600Y14648400D03*
X16061600Y17315400D03*
X22098000Y7937500D03*
X21399500Y7239000D03*
X14554200Y14833600D03*
X13792200Y15049500D03*
X11743600Y15918400D03*
X23046600Y13124400D03*
X1968500Y5969000D03*
X18161000Y25400000D03*
X6921500Y24955500D03*
X18923000Y18288000D03*
X20383500Y19621500D03*
X17081500Y8826500D03*
X17335500Y10096500D03*
X9715500Y10350500D03*
D18*
X11736855Y8426118D02*
X11736855Y8866655D01*
X12124600Y12362400D02*
X12124600Y10477500D01*
X12124600Y10477500D02*
X12124600Y8813863D01*
X5524500Y16103600D02*
X5524500Y17487900D01*
X6184900Y15443200D02*
X5524500Y16103600D01*
X1329600Y4615400D02*
X1329600Y4007568D01*
X1329600Y4007568D02*
X2667000Y2670168D01*
X10223500Y6912763D02*
X11736855Y8426118D01*
X10223500Y1397000D02*
X10223500Y6912763D01*
X9525000Y698500D02*
X10223500Y1397000D01*
X3238500Y698500D02*
X9525000Y698500D01*
X2667000Y1270000D02*
X3238500Y698500D01*
X2667000Y2670168D02*
X2667000Y1270000D01*
X18605500Y11049000D02*
X16383000Y11049000D01*
X16065500Y10731500D02*
X16065500Y9080500D01*
X16383000Y11049000D02*
X16065500Y10731500D01*
X8255000Y29781500D02*
X7058500Y30978000D01*
X7058500Y30978000D02*
X7058500Y31797000D01*
X17462500Y18669000D02*
X17462500Y21209000D01*
X18923000Y17208500D02*
X17462500Y18669000D01*
X24638000Y29019500D02*
X25590500Y29019500D01*
X23558500Y27940000D02*
X24638000Y29019500D01*
X23558500Y25527000D02*
X23558500Y27940000D01*
X20764500Y22733000D02*
X22529800Y24498300D01*
X22529800Y24498300D02*
X23558500Y25527000D01*
X11736855Y8426118D02*
X10521618Y8426118D01*
X1329600Y3940900D02*
X1329600Y4615400D01*
X12124600Y8813863D02*
X11736855Y8426118D01*
X8949600Y22395400D02*
X16276100Y22395400D01*
X16276100Y22395400D02*
X17462500Y21209000D01*
X11290300Y10388600D02*
X10668000Y11010900D01*
X10668000Y11010900D02*
X8890000Y11010900D01*
X7581900Y9702800D02*
X7581900Y7150100D01*
X8890000Y11010900D02*
X7581900Y9702800D01*
X5520600Y12616400D02*
X5520600Y12870400D01*
X5520600Y12870400D02*
X8949600Y16299400D01*
X12890500Y15664400D02*
X12641800Y15664400D01*
X10600600Y16132900D02*
X10600600Y16299400D01*
X11480800Y15252700D02*
X10600600Y16132900D01*
X12230100Y15252700D02*
X11480800Y15252700D01*
X12641800Y15664400D02*
X12230100Y15252700D01*
D19*
X12886600Y15664400D02*
X12890500Y15664400D01*
X12890500Y15664400D02*
X14918600Y15664400D01*
X18982600Y12997400D02*
X21395600Y10584400D01*
X17585600Y12997400D02*
X18982600Y12997400D01*
X14918600Y15664400D02*
X17585600Y12997400D01*
D18*
X1329600Y2075400D02*
X1329600Y2797900D01*
X1329600Y2797900D02*
X190500Y3937000D01*
X190500Y3937000D02*
X190500Y5397500D01*
X190500Y5397500D02*
X698500Y5905500D01*
X698500Y5905500D02*
X698500Y6731000D01*
X2159000Y8382000D02*
X1886402Y8654598D01*
X1886402Y8654598D02*
X1886402Y12319000D01*
X1886402Y12319000D02*
X2076902Y12509500D01*
X2076902Y12509500D02*
X5413700Y12509500D01*
X5413700Y12509500D02*
X5520600Y12616400D01*
D19*
X10600600Y16299400D02*
X13267600Y18966400D01*
X14156600Y18966400D02*
X15553600Y20363400D01*
X13267600Y18966400D02*
X14156600Y18966400D01*
X10600600Y16299400D02*
X8949600Y16299400D01*
X8949600Y16299400D02*
X8949600Y19855400D01*
X8949600Y19855400D02*
X7679600Y21125400D01*
X7679600Y21125400D02*
X7679600Y22903400D01*
X7679600Y22903400D02*
X3107600Y27475400D01*
X3107600Y27475400D02*
X2853600Y27475400D01*
X18855600Y19347400D02*
X21014600Y21506400D01*
X21014600Y21506400D02*
X24898600Y21506400D01*
X24898600Y21506400D02*
X24929600Y21537400D01*
D18*
X18669000Y29655500D02*
X18669000Y29972000D01*
X18669000Y29972000D02*
X20002500Y31305500D01*
X15018388Y27036621D02*
X15018388Y29337112D01*
X15018388Y29337112D02*
X12558500Y31797000D01*
X15018388Y27036621D02*
X16050121Y27036621D01*
X16050121Y27036621D02*
X18669000Y29655500D01*
X12079379Y27036621D02*
X15018388Y27036621D01*
X12065000Y27051000D02*
X12079379Y27036621D01*
D19*
X15087600Y26967400D02*
X15553600Y26967400D01*
X15018391Y27036619D02*
X15087600Y26967400D01*
D18*
X16169000Y29655500D02*
X16169000Y31329000D01*
X16169000Y31329000D02*
X16129000Y31369000D01*
X16169000Y29655500D02*
X16169000Y30075500D01*
X6409600Y2075400D02*
X6409600Y2353400D01*
X6409600Y2353400D02*
X5207000Y3556000D01*
X5207000Y3556000D02*
X5207000Y9017000D01*
X5207000Y9017000D02*
X3683000Y10541000D01*
X9862100Y11537400D02*
X2929600Y11537400D01*
X10330900Y11537400D02*
X9862100Y11537400D01*
X10490200Y11696700D02*
X10330900Y11537400D01*
D19*
X15299600Y3345400D02*
X15299600Y6088600D01*
X15299600Y6088600D02*
X14956700Y6431500D01*
X14956700Y6431500D02*
X14956700Y11435300D01*
X15299600Y3345400D02*
X16569600Y2075400D01*
D18*
X14389100Y12712700D02*
X14389100Y13246100D01*
X14956700Y12145100D02*
X14389100Y12712700D01*
X14956700Y11435300D02*
X14956700Y12145100D01*
D19*
X19617600Y14648400D02*
X17966600Y14648400D01*
X22538600Y11727400D02*
X19617600Y14648400D01*
X23050500Y11747500D02*
X22538600Y11727400D01*
X23050500Y11747500D02*
X22923500Y11747500D01*
D18*
X22094100Y8171400D02*
X22094100Y7941400D01*
D19*
X16315600Y17061400D02*
X16061600Y17315400D01*
X16315600Y15029400D02*
X16315600Y17061400D01*
X16315600Y15029400D02*
X17712600Y13632400D01*
X17712600Y13632400D02*
X19744600Y13632400D01*
X19744600Y13632400D02*
X22094100Y11282900D01*
X22094100Y11282900D02*
X22094100Y8171400D01*
D18*
X22094100Y7941400D02*
X22098000Y7937500D01*
X14969400Y14775400D02*
X14612400Y14775400D01*
X21399500Y7239000D02*
X20828000Y7810500D01*
X20828000Y7810500D02*
X20828000Y9755000D01*
X20828000Y9755000D02*
X20510500Y10072500D01*
D19*
X18017400Y11727400D02*
X14969400Y14775400D01*
X18855600Y11727400D02*
X18017400Y11727400D01*
X20510500Y10072500D02*
X18855600Y11727400D01*
D18*
X14612400Y14775400D02*
X14554200Y14833600D01*
X14960600Y13906500D02*
X14401800Y13906500D01*
X20129500Y3238500D02*
X18034000Y3238500D01*
X18034000Y3238500D02*
X17907000Y3365500D01*
X17907000Y3365500D02*
X17907000Y5270500D01*
X17907000Y5270500D02*
X17335500Y5842000D01*
X17335500Y5842000D02*
X16205200Y5842000D01*
X16205200Y5842000D02*
X15405100Y6642100D01*
X15405100Y6642100D02*
X15405100Y13462000D01*
X15405100Y13462000D02*
X14960600Y13906500D01*
X21292600Y2075400D02*
X20129500Y3238500D01*
X13792200Y14516100D02*
X13792200Y15049500D01*
X14401800Y13906500D02*
X13792200Y14516100D01*
X21649600Y2075400D02*
X21292600Y2075400D01*
D19*
X23046600Y13124400D02*
X22030600Y13124400D01*
X22030600Y13124400D02*
X16823600Y18331400D01*
X16823600Y18331400D02*
X14156600Y18331400D01*
X14156600Y18331400D02*
X11743600Y15918400D01*
D18*
X1968500Y5969000D02*
X1968500Y6477000D01*
D19*
X948600Y22776400D02*
X1837600Y23665400D01*
X1837600Y23665400D02*
X1837600Y24554400D01*
X1837600Y24554400D02*
X2853600Y25570400D01*
D18*
X948600Y7496900D02*
X948600Y22776400D01*
X1968500Y6477000D02*
X948600Y7496900D01*
X1841500Y6096000D02*
X1968500Y5969000D01*
D19*
X3267600Y25537400D02*
X2929600Y25537400D01*
X6409600Y22395400D02*
X3267600Y25537400D01*
X2853600Y25570400D02*
X2980600Y25570400D01*
D18*
X1456600Y22363700D02*
X1755900Y22363700D01*
D19*
X3869600Y2075400D02*
X2599600Y3345400D01*
X2599600Y3345400D02*
X2599600Y6647400D01*
X2599600Y6647400D02*
X1456600Y7790400D01*
X1456600Y7790400D02*
X1456600Y22363700D01*
D18*
X1755900Y22363700D02*
X2929600Y23537400D01*
D19*
X6409600Y19855400D02*
X2929600Y23335400D01*
D18*
X18161000Y25400000D02*
X17716500Y24955500D01*
X17716500Y24955500D02*
X6921500Y24955500D01*
X20240000Y17716500D02*
X22208500Y15748000D01*
X19494500Y17716500D02*
X20240000Y17716500D01*
X18923000Y18288000D02*
X19494500Y17716500D01*
X20510500Y19494500D02*
X22208500Y19494500D01*
X20383500Y19621500D02*
X20510500Y19494500D01*
X24189600Y7155400D02*
X24554400Y7155400D01*
X24554400Y7155400D02*
X25971500Y8572500D01*
X25971500Y10495500D02*
X24929600Y11537400D01*
X25971500Y8572500D02*
X25971500Y10495500D01*
X22876200Y5842000D02*
X24189600Y7155400D01*
X20066000Y5842000D02*
X22876200Y5842000D01*
X17081500Y8826500D02*
X20066000Y5842000D01*
D19*
X24189600Y7155400D02*
X23681600Y7663400D01*
D18*
X24929600Y19537400D02*
X24929600Y19468600D01*
X24929600Y19468600D02*
X23812500Y18351500D01*
X23812500Y18351500D02*
X23812500Y8826500D01*
X23812500Y8826500D02*
X22860000Y7874000D01*
X22860000Y7874000D02*
X22860000Y6985000D01*
X22860000Y6985000D02*
X22352000Y6477000D01*
X22352000Y6477000D02*
X20701000Y6477000D01*
X20701000Y6477000D02*
X20193000Y6985000D01*
X20193000Y6985000D02*
X20193000Y8612000D01*
X20193000Y8612000D02*
X19109600Y9695400D01*
X19109600Y9695400D02*
X17736600Y9695400D01*
X17736600Y9695400D02*
X17335500Y10096500D01*
X8949600Y9584600D02*
X8949600Y4615400D01*
X9715500Y10350500D02*
X8949600Y9584600D01*
D20*
G36*
X10218373Y1422078D02*
X10369481Y1187605D01*
X10563254Y986947D01*
X10792311Y827748D01*
X11020626Y728000D01*
X9409324Y728000D01*
X9594031Y799643D01*
X9829554Y949110D01*
X10031559Y1141478D01*
X10192353Y1369418D01*
X10217161Y1425138D01*
X10218373Y1422078D01*
X10218373Y1422078D01*
G37*
X10218373Y1422078D02*
X10369481Y1187605D01*
X10563254Y986947D01*
X10792311Y827748D01*
X11020626Y728000D01*
X9409324Y728000D01*
X9594031Y799643D01*
X9829554Y949110D01*
X10031559Y1141478D01*
X10192353Y1369418D01*
X10217161Y1425138D01*
X10218373Y1422078D01*
G36*
X2598373Y1422078D02*
X2749481Y1187605D01*
X2943254Y986947D01*
X3172311Y827748D01*
X3400626Y728000D01*
X1789324Y728000D01*
X1974031Y799643D01*
X2209554Y949110D01*
X2411559Y1141478D01*
X2572353Y1369418D01*
X2597161Y1425138D01*
X2598373Y1422078D01*
X2598373Y1422078D01*
G37*
X2598373Y1422078D02*
X2749481Y1187605D01*
X2943254Y986947D01*
X3172311Y827748D01*
X3400626Y728000D01*
X1789324Y728000D01*
X1974031Y799643D01*
X2209554Y949110D01*
X2411559Y1141478D01*
X2572353Y1369418D01*
X2597161Y1425138D01*
X2598373Y1422078D01*
G36*
X1379098Y4629542D02*
X1364955Y4615400D01*
X1379098Y4601258D01*
X1343742Y4565902D01*
X1329600Y4580045D01*
X1315458Y4565902D01*
X1280103Y4601257D01*
X1294245Y4615400D01*
X1280103Y4629542D01*
X1315458Y4664898D01*
X1329600Y4650755D01*
X1343742Y4664898D01*
X1379098Y4629542D01*
X1379098Y4629542D01*
G37*
X1379098Y4629542D02*
X1364955Y4615400D01*
X1379098Y4601258D01*
X1343742Y4565902D01*
X1329600Y4580045D01*
X1315458Y4565902D01*
X1280103Y4601257D01*
X1294245Y4615400D01*
X1280103Y4629542D01*
X1315458Y4664898D01*
X1329600Y4650755D01*
X1343742Y4664898D01*
X1379098Y4629542D01*
G36*
X10961360Y14733259D02*
X11013805Y14690180D01*
X11065775Y14646572D01*
X11069156Y14644713D01*
X11072145Y14642258D01*
X11132019Y14610154D01*
X11191410Y14577503D01*
X11195088Y14576336D01*
X11198496Y14574509D01*
X11263422Y14554660D01*
X11328068Y14534153D01*
X11331907Y14533722D01*
X11335601Y14532593D01*
X11403151Y14525731D01*
X11470543Y14518172D01*
X11478087Y14518119D01*
X11478235Y14518104D01*
X11478373Y14518117D01*
X11480800Y14518100D01*
X12230100Y14518100D01*
X12297657Y14524724D01*
X12365230Y14530636D01*
X12368936Y14531713D01*
X12372785Y14532090D01*
X12437787Y14551715D01*
X12502907Y14570634D01*
X12506336Y14572412D01*
X12510034Y14573528D01*
X12569952Y14605387D01*
X12630192Y14636613D01*
X12633210Y14639023D01*
X12636621Y14640836D01*
X12689205Y14683722D01*
X12742237Y14726057D01*
X12747616Y14731361D01*
X12747724Y14731449D01*
X12747806Y14731549D01*
X12749541Y14733259D01*
X12898136Y14881855D01*
X12913606Y14797567D01*
X12979273Y14631712D01*
X13058286Y14509107D01*
X13064224Y14448543D01*
X13070136Y14380970D01*
X13071213Y14377264D01*
X13071590Y14373415D01*
X13091215Y14308413D01*
X13110134Y14243293D01*
X13111912Y14239864D01*
X13113028Y14236166D01*
X13144887Y14176248D01*
X13176113Y14116008D01*
X13178523Y14112990D01*
X13180336Y14109579D01*
X13223222Y14056995D01*
X13265557Y14003963D01*
X13270861Y13998584D01*
X13270949Y13998476D01*
X13271049Y13998394D01*
X13272759Y13996659D01*
X13586607Y13682811D01*
X13517883Y13522466D01*
X13480795Y13347983D01*
X13478305Y13169618D01*
X13510506Y12994167D01*
X13576173Y12828312D01*
X13655186Y12705707D01*
X13661124Y12645143D01*
X13667036Y12577570D01*
X13668113Y12573864D01*
X13668490Y12570015D01*
X13688115Y12505013D01*
X13707034Y12439893D01*
X13708812Y12436464D01*
X13709928Y12432766D01*
X13741787Y12372848D01*
X13773013Y12312608D01*
X13775423Y12309590D01*
X13777236Y12306179D01*
X13820122Y12253595D01*
X13862457Y12200563D01*
X13867761Y12195184D01*
X13867849Y12195076D01*
X13867949Y12194994D01*
X13869659Y12193259D01*
X14222100Y11840819D01*
X14222100Y11462774D01*
X14220172Y11445585D01*
X14220100Y11435300D01*
X14220100Y6431500D01*
X14226736Y6363823D01*
X14232669Y6296001D01*
X14233750Y6292279D01*
X14234128Y6288427D01*
X14253789Y6223307D01*
X14272777Y6157951D01*
X14274559Y6154513D01*
X14275679Y6150804D01*
X14307623Y6090727D01*
X14338935Y6030319D01*
X14341352Y6027292D01*
X14343170Y6023872D01*
X14363466Y5998987D01*
X14179001Y6036852D01*
X13900060Y6038800D01*
X13626054Y5986530D01*
X13367419Y5882035D01*
X13134006Y5729294D01*
X12934706Y5534125D01*
X12777111Y5303962D01*
X12760408Y5264991D01*
X12751581Y5286407D01*
X12597214Y5518748D01*
X12400659Y5716681D01*
X12169401Y5872666D01*
X11912250Y5980762D01*
X11639001Y6036852D01*
X11360060Y6038800D01*
X11086054Y5986530D01*
X10827419Y5882035D01*
X10594006Y5729294D01*
X10394706Y5534125D01*
X10237111Y5303962D01*
X10220408Y5264991D01*
X10211581Y5286407D01*
X10057214Y5518748D01*
X9860659Y5716681D01*
X9684200Y5835704D01*
X9684200Y7138191D01*
X11342739Y6845746D01*
X11433094Y6909014D01*
X11494734Y6909014D01*
X11566684Y6806259D01*
X13296356Y6501271D01*
X13365184Y6489134D01*
X13435057Y6490659D01*
X13503290Y6505786D01*
X13567261Y6533934D01*
X13624510Y6574021D01*
X13672840Y6624506D01*
X13710391Y6683450D01*
X13735722Y6748588D01*
X13942580Y7921735D01*
X13870630Y8024490D01*
X11757134Y8397157D01*
X11494734Y6909014D01*
X11433094Y6909014D01*
X11445494Y6917696D01*
X11707894Y8405839D01*
X11688197Y8409312D01*
X11696880Y8458552D01*
X11716576Y8455079D01*
X11720049Y8474776D01*
X11769289Y8466093D01*
X11765816Y8446397D01*
X13879312Y8073731D01*
X13982067Y8145680D01*
X14188925Y9318828D01*
X14187400Y9388701D01*
X14172274Y9456933D01*
X14144125Y9520904D01*
X14104039Y9578154D01*
X14053553Y9626484D01*
X13994608Y9664035D01*
X13929471Y9689366D01*
X13860643Y9701502D01*
X12130971Y10006490D01*
X12109069Y9991154D01*
X12157574Y10100096D01*
X12197094Y10274045D01*
X12199939Y10477791D01*
X12165291Y10652775D01*
X12097315Y10817697D01*
X11998600Y10966275D01*
X11872906Y11092850D01*
X11725021Y11192600D01*
X11560577Y11261725D01*
X11429060Y11288722D01*
X11342721Y11375061D01*
X11357474Y11408196D01*
X11396994Y11582145D01*
X11399839Y11785891D01*
X11365191Y11960875D01*
X11297215Y12125797D01*
X11198500Y12274375D01*
X11072806Y12400950D01*
X10924921Y12500700D01*
X10760477Y12569825D01*
X10585739Y12605694D01*
X10407362Y12606939D01*
X10232140Y12573514D01*
X10066747Y12506691D01*
X9917483Y12409016D01*
X9790035Y12284209D01*
X9781675Y12272000D01*
X6362987Y12272000D01*
X6387874Y12327896D01*
X6427394Y12501845D01*
X6430239Y12705591D01*
X6424361Y12735279D01*
X9251881Y15562800D01*
X10131818Y15562800D01*
X10961360Y14733259D01*
X10961360Y14733259D01*
G37*
X10961360Y14733259D02*
X11013805Y14690180D01*
X11065775Y14646572D01*
X11069156Y14644713D01*
X11072145Y14642258D01*
X11132019Y14610154D01*
X11191410Y14577503D01*
X11195088Y14576336D01*
X11198496Y14574509D01*
X11263422Y14554660D01*
X11328068Y14534153D01*
X11331907Y14533722D01*
X11335601Y14532593D01*
X11403151Y14525731D01*
X11470543Y14518172D01*
X11478087Y14518119D01*
X11478235Y14518104D01*
X11478373Y14518117D01*
X11480800Y14518100D01*
X12230100Y14518100D01*
X12297657Y14524724D01*
X12365230Y14530636D01*
X12368936Y14531713D01*
X12372785Y14532090D01*
X12437787Y14551715D01*
X12502907Y14570634D01*
X12506336Y14572412D01*
X12510034Y14573528D01*
X12569952Y14605387D01*
X12630192Y14636613D01*
X12633210Y14639023D01*
X12636621Y14640836D01*
X12689205Y14683722D01*
X12742237Y14726057D01*
X12747616Y14731361D01*
X12747724Y14731449D01*
X12747806Y14731549D01*
X12749541Y14733259D01*
X12898136Y14881855D01*
X12913606Y14797567D01*
X12979273Y14631712D01*
X13058286Y14509107D01*
X13064224Y14448543D01*
X13070136Y14380970D01*
X13071213Y14377264D01*
X13071590Y14373415D01*
X13091215Y14308413D01*
X13110134Y14243293D01*
X13111912Y14239864D01*
X13113028Y14236166D01*
X13144887Y14176248D01*
X13176113Y14116008D01*
X13178523Y14112990D01*
X13180336Y14109579D01*
X13223222Y14056995D01*
X13265557Y14003963D01*
X13270861Y13998584D01*
X13270949Y13998476D01*
X13271049Y13998394D01*
X13272759Y13996659D01*
X13586607Y13682811D01*
X13517883Y13522466D01*
X13480795Y13347983D01*
X13478305Y13169618D01*
X13510506Y12994167D01*
X13576173Y12828312D01*
X13655186Y12705707D01*
X13661124Y12645143D01*
X13667036Y12577570D01*
X13668113Y12573864D01*
X13668490Y12570015D01*
X13688115Y12505013D01*
X13707034Y12439893D01*
X13708812Y12436464D01*
X13709928Y12432766D01*
X13741787Y12372848D01*
X13773013Y12312608D01*
X13775423Y12309590D01*
X13777236Y12306179D01*
X13820122Y12253595D01*
X13862457Y12200563D01*
X13867761Y12195184D01*
X13867849Y12195076D01*
X13867949Y12194994D01*
X13869659Y12193259D01*
X14222100Y11840819D01*
X14222100Y11462774D01*
X14220172Y11445585D01*
X14220100Y11435300D01*
X14220100Y6431500D01*
X14226736Y6363823D01*
X14232669Y6296001D01*
X14233750Y6292279D01*
X14234128Y6288427D01*
X14253789Y6223307D01*
X14272777Y6157951D01*
X14274559Y6154513D01*
X14275679Y6150804D01*
X14307623Y6090727D01*
X14338935Y6030319D01*
X14341352Y6027292D01*
X14343170Y6023872D01*
X14363466Y5998987D01*
X14179001Y6036852D01*
X13900060Y6038800D01*
X13626054Y5986530D01*
X13367419Y5882035D01*
X13134006Y5729294D01*
X12934706Y5534125D01*
X12777111Y5303962D01*
X12760408Y5264991D01*
X12751581Y5286407D01*
X12597214Y5518748D01*
X12400659Y5716681D01*
X12169401Y5872666D01*
X11912250Y5980762D01*
X11639001Y6036852D01*
X11360060Y6038800D01*
X11086054Y5986530D01*
X10827419Y5882035D01*
X10594006Y5729294D01*
X10394706Y5534125D01*
X10237111Y5303962D01*
X10220408Y5264991D01*
X10211581Y5286407D01*
X10057214Y5518748D01*
X9860659Y5716681D01*
X9684200Y5835704D01*
X9684200Y7138191D01*
X11342739Y6845746D01*
X11433094Y6909014D01*
X11494734Y6909014D01*
X11566684Y6806259D01*
X13296356Y6501271D01*
X13365184Y6489134D01*
X13435057Y6490659D01*
X13503290Y6505786D01*
X13567261Y6533934D01*
X13624510Y6574021D01*
X13672840Y6624506D01*
X13710391Y6683450D01*
X13735722Y6748588D01*
X13942580Y7921735D01*
X13870630Y8024490D01*
X11757134Y8397157D01*
X11494734Y6909014D01*
X11433094Y6909014D01*
X11445494Y6917696D01*
X11707894Y8405839D01*
X11688197Y8409312D01*
X11696880Y8458552D01*
X11716576Y8455079D01*
X11720049Y8474776D01*
X11769289Y8466093D01*
X11765816Y8446397D01*
X13879312Y8073731D01*
X13982067Y8145680D01*
X14188925Y9318828D01*
X14187400Y9388701D01*
X14172274Y9456933D01*
X14144125Y9520904D01*
X14104039Y9578154D01*
X14053553Y9626484D01*
X13994608Y9664035D01*
X13929471Y9689366D01*
X13860643Y9701502D01*
X12130971Y10006490D01*
X12109069Y9991154D01*
X12157574Y10100096D01*
X12197094Y10274045D01*
X12199939Y10477791D01*
X12165291Y10652775D01*
X12097315Y10817697D01*
X11998600Y10966275D01*
X11872906Y11092850D01*
X11725021Y11192600D01*
X11560577Y11261725D01*
X11429060Y11288722D01*
X11342721Y11375061D01*
X11357474Y11408196D01*
X11396994Y11582145D01*
X11399839Y11785891D01*
X11365191Y11960875D01*
X11297215Y12125797D01*
X11198500Y12274375D01*
X11072806Y12400950D01*
X10924921Y12500700D01*
X10760477Y12569825D01*
X10585739Y12605694D01*
X10407362Y12606939D01*
X10232140Y12573514D01*
X10066747Y12506691D01*
X9917483Y12409016D01*
X9790035Y12284209D01*
X9781675Y12272000D01*
X6362987Y12272000D01*
X6387874Y12327896D01*
X6427394Y12501845D01*
X6430239Y12705591D01*
X6424361Y12735279D01*
X9251881Y15562800D01*
X10131818Y15562800D01*
X10961360Y14733259D01*
G36*
X2979098Y9551542D02*
X2964955Y9537400D01*
X3587594Y8914761D01*
X3748680Y8973205D01*
X3843010Y9143841D01*
X3890944Y9294175D01*
X4472400Y8712719D01*
X4472400Y5905034D01*
X4292250Y5980762D01*
X4019001Y6036852D01*
X3740060Y6038800D01*
X3466054Y5986530D01*
X3336200Y5934066D01*
X3336200Y6647400D01*
X3329564Y6715077D01*
X3323631Y6782899D01*
X3322550Y6786621D01*
X3322172Y6790473D01*
X3302511Y6855593D01*
X3283523Y6920949D01*
X3281741Y6924387D01*
X3280621Y6928096D01*
X3248677Y6988173D01*
X3217365Y7048581D01*
X3214948Y7051608D01*
X3213130Y7055028D01*
X3170092Y7107799D01*
X3127676Y7160931D01*
X3122364Y7166319D01*
X3122270Y7166434D01*
X3122164Y7166522D01*
X3120455Y7168255D01*
X2663743Y7624967D01*
X2721715Y7661757D01*
X2850894Y7784773D01*
X2953719Y7930537D01*
X3026274Y8093496D01*
X3065794Y8267445D01*
X3068639Y8471191D01*
X3052159Y8554420D01*
X3109831Y8559278D01*
X3297189Y8613234D01*
X3470422Y8702704D01*
X3493795Y8718320D01*
X3552239Y8879406D01*
X2929600Y9502045D01*
X2915458Y9487902D01*
X2880103Y9523257D01*
X2894245Y9537400D01*
X2880103Y9551542D01*
X2915458Y9586897D01*
X2929600Y9572755D01*
X2943743Y9586897D01*
X2979098Y9551542D01*
X2979098Y9551542D01*
G37*
X2979098Y9551542D02*
X2964955Y9537400D01*
X3587594Y8914761D01*
X3748680Y8973205D01*
X3843010Y9143841D01*
X3890944Y9294175D01*
X4472400Y8712719D01*
X4472400Y5905034D01*
X4292250Y5980762D01*
X4019001Y6036852D01*
X3740060Y6038800D01*
X3466054Y5986530D01*
X3336200Y5934066D01*
X3336200Y6647400D01*
X3329564Y6715077D01*
X3323631Y6782899D01*
X3322550Y6786621D01*
X3322172Y6790473D01*
X3302511Y6855593D01*
X3283523Y6920949D01*
X3281741Y6924387D01*
X3280621Y6928096D01*
X3248677Y6988173D01*
X3217365Y7048581D01*
X3214948Y7051608D01*
X3213130Y7055028D01*
X3170092Y7107799D01*
X3127676Y7160931D01*
X3122364Y7166319D01*
X3122270Y7166434D01*
X3122164Y7166522D01*
X3120455Y7168255D01*
X2663743Y7624967D01*
X2721715Y7661757D01*
X2850894Y7784773D01*
X2953719Y7930537D01*
X3026274Y8093496D01*
X3065794Y8267445D01*
X3068639Y8471191D01*
X3052159Y8554420D01*
X3109831Y8559278D01*
X3297189Y8613234D01*
X3470422Y8702704D01*
X3493795Y8718320D01*
X3552239Y8879406D01*
X2929600Y9502045D01*
X2915458Y9487902D01*
X2880103Y9523257D01*
X2894245Y9537400D01*
X2880103Y9551542D01*
X2915458Y9586897D01*
X2929600Y9572755D01*
X2943743Y9586897D01*
X2979098Y9551542D01*
G36*
X17496545Y11206545D02*
X17549112Y11163366D01*
X17601245Y11119621D01*
X17604640Y11117754D01*
X17607632Y11115297D01*
X17667594Y11083146D01*
X17727222Y11050365D01*
X17730913Y11049194D01*
X17734328Y11047363D01*
X17799404Y11027467D01*
X17864252Y11006896D01*
X17868102Y11006464D01*
X17871805Y11005332D01*
X17939520Y10998454D01*
X18007115Y10990872D01*
X18014681Y10990819D01*
X18014829Y10990804D01*
X18014967Y10990817D01*
X18017400Y10990800D01*
X18518615Y10990800D01*
X18447419Y10962035D01*
X18214006Y10809294D01*
X18056503Y10655056D01*
X18043800Y10674175D01*
X17918106Y10800750D01*
X17770221Y10900500D01*
X17605777Y10969625D01*
X17431039Y11005494D01*
X17252662Y11006739D01*
X17077440Y10973314D01*
X16912047Y10906491D01*
X16762783Y10808816D01*
X16635335Y10684009D01*
X16534555Y10536823D01*
X16464283Y10372866D01*
X16427195Y10198383D01*
X16424705Y10020018D01*
X16456906Y9844567D01*
X16522573Y9678712D01*
X16581896Y9586660D01*
X16508783Y9538816D01*
X16381335Y9414009D01*
X16280555Y9266823D01*
X16210283Y9102866D01*
X16173195Y8928383D01*
X16170705Y8750018D01*
X16202906Y8574567D01*
X16218002Y8536440D01*
X16166054Y8526530D01*
X16139700Y8515882D01*
X16139700Y12563390D01*
X17496545Y11206545D01*
X17496545Y11206545D01*
G37*
X17496545Y11206545D02*
X17549112Y11163366D01*
X17601245Y11119621D01*
X17604640Y11117754D01*
X17607632Y11115297D01*
X17667594Y11083146D01*
X17727222Y11050365D01*
X17730913Y11049194D01*
X17734328Y11047363D01*
X17799404Y11027467D01*
X17864252Y11006896D01*
X17868102Y11006464D01*
X17871805Y11005332D01*
X17939520Y10998454D01*
X18007115Y10990872D01*
X18014681Y10990819D01*
X18014829Y10990804D01*
X18014967Y10990817D01*
X18017400Y10990800D01*
X18518615Y10990800D01*
X18447419Y10962035D01*
X18214006Y10809294D01*
X18056503Y10655056D01*
X18043800Y10674175D01*
X17918106Y10800750D01*
X17770221Y10900500D01*
X17605777Y10969625D01*
X17431039Y11005494D01*
X17252662Y11006739D01*
X17077440Y10973314D01*
X16912047Y10906491D01*
X16762783Y10808816D01*
X16635335Y10684009D01*
X16534555Y10536823D01*
X16464283Y10372866D01*
X16427195Y10198383D01*
X16424705Y10020018D01*
X16456906Y9844567D01*
X16522573Y9678712D01*
X16581896Y9586660D01*
X16508783Y9538816D01*
X16381335Y9414009D01*
X16280555Y9266823D01*
X16210283Y9102866D01*
X16173195Y8928383D01*
X16170705Y8750018D01*
X16202906Y8574567D01*
X16218002Y8536440D01*
X16166054Y8526530D01*
X16139700Y8515882D01*
X16139700Y12563390D01*
X17496545Y11206545D01*
G36*
X5027676Y20195614D02*
X4989225Y20014721D01*
X4985331Y19735801D01*
X5035686Y19461436D01*
X5138373Y19202078D01*
X5289481Y18967605D01*
X5483254Y18766947D01*
X5712311Y18607748D01*
X5967928Y18496072D01*
X6240367Y18436172D01*
X6519253Y18430330D01*
X6793962Y18478769D01*
X7054031Y18579643D01*
X7289554Y18729110D01*
X7491559Y18921478D01*
X7652353Y19149418D01*
X7677161Y19205138D01*
X7678373Y19202078D01*
X7829481Y18967605D01*
X8023254Y18766947D01*
X8213000Y18635070D01*
X8213000Y16601681D01*
X5001159Y13389841D01*
X4958059Y13337371D01*
X4954346Y13332945D01*
X4947883Y13328716D01*
X4861476Y13244100D01*
X4139335Y13244100D01*
X4170360Y13380656D01*
X4174253Y13659439D01*
X4126845Y13898870D01*
X4033834Y14124531D01*
X3898763Y14327830D01*
X3726776Y14501021D01*
X3674721Y14536133D01*
X3699560Y14551896D01*
X3876315Y14720218D01*
X4017009Y14919665D01*
X4116285Y15142642D01*
X4170360Y15380656D01*
X4174253Y15659439D01*
X4126845Y15898870D01*
X4033834Y16124531D01*
X3898763Y16327830D01*
X3726776Y16501021D01*
X3674721Y16536133D01*
X3699560Y16551896D01*
X3876315Y16720218D01*
X4017009Y16919665D01*
X4116285Y17142642D01*
X4170360Y17380656D01*
X4174253Y17659439D01*
X4126845Y17898870D01*
X4033834Y18124531D01*
X3898763Y18327830D01*
X3726776Y18501021D01*
X3674721Y18536133D01*
X3699560Y18551896D01*
X3876315Y18720218D01*
X4017009Y18919665D01*
X4116285Y19142642D01*
X4170360Y19380656D01*
X4174253Y19659439D01*
X4126845Y19898870D01*
X4033834Y20124531D01*
X3898763Y20327830D01*
X3726776Y20501021D01*
X3674721Y20536133D01*
X3699560Y20551896D01*
X3876315Y20720218D01*
X4017009Y20919665D01*
X4105306Y21117984D01*
X5027676Y20195614D01*
X5027676Y20195614D01*
G37*
X5027676Y20195614D02*
X4989225Y20014721D01*
X4985331Y19735801D01*
X5035686Y19461436D01*
X5138373Y19202078D01*
X5289481Y18967605D01*
X5483254Y18766947D01*
X5712311Y18607748D01*
X5967928Y18496072D01*
X6240367Y18436172D01*
X6519253Y18430330D01*
X6793962Y18478769D01*
X7054031Y18579643D01*
X7289554Y18729110D01*
X7491559Y18921478D01*
X7652353Y19149418D01*
X7677161Y19205138D01*
X7678373Y19202078D01*
X7829481Y18967605D01*
X8023254Y18766947D01*
X8213000Y18635070D01*
X8213000Y16601681D01*
X5001159Y13389841D01*
X4958059Y13337371D01*
X4954346Y13332945D01*
X4947883Y13328716D01*
X4861476Y13244100D01*
X4139335Y13244100D01*
X4170360Y13380656D01*
X4174253Y13659439D01*
X4126845Y13898870D01*
X4033834Y14124531D01*
X3898763Y14327830D01*
X3726776Y14501021D01*
X3674721Y14536133D01*
X3699560Y14551896D01*
X3876315Y14720218D01*
X4017009Y14919665D01*
X4116285Y15142642D01*
X4170360Y15380656D01*
X4174253Y15659439D01*
X4126845Y15898870D01*
X4033834Y16124531D01*
X3898763Y16327830D01*
X3726776Y16501021D01*
X3674721Y16536133D01*
X3699560Y16551896D01*
X3876315Y16720218D01*
X4017009Y16919665D01*
X4116285Y17142642D01*
X4170360Y17380656D01*
X4174253Y17659439D01*
X4126845Y17898870D01*
X4033834Y18124531D01*
X3898763Y18327830D01*
X3726776Y18501021D01*
X3674721Y18536133D01*
X3699560Y18551896D01*
X3876315Y18720218D01*
X4017009Y18919665D01*
X4116285Y19142642D01*
X4170360Y19380656D01*
X4174253Y19659439D01*
X4126845Y19898870D01*
X4033834Y20124531D01*
X3898763Y20327830D01*
X3726776Y20501021D01*
X3674721Y20536133D01*
X3699560Y20551896D01*
X3876315Y20720218D01*
X4017009Y20919665D01*
X4105306Y21117984D01*
X5027676Y20195614D01*
G36*
X25875000Y28351759D02*
X25726776Y28501021D01*
X25524426Y28637508D01*
X25299419Y28732092D01*
X25060326Y28781171D01*
X24816253Y28782875D01*
X24576498Y28737139D01*
X24350192Y28645706D01*
X24145955Y28512057D01*
X23971568Y28341284D01*
X23833672Y28139892D01*
X23737519Y27915550D01*
X23686772Y27676805D01*
X23683364Y27432751D01*
X23727425Y27192682D01*
X23817276Y26965743D01*
X23949496Y26760579D01*
X24119047Y26585003D01*
X24186154Y26538362D01*
X24145955Y26512057D01*
X23971568Y26341284D01*
X23833672Y26139892D01*
X23737519Y25915550D01*
X23686772Y25676805D01*
X23683364Y25432751D01*
X23727425Y25192682D01*
X23817276Y24965743D01*
X23949496Y24760579D01*
X24119047Y24585003D01*
X24186154Y24538362D01*
X24145955Y24512057D01*
X23971568Y24341284D01*
X23833672Y24139892D01*
X23737519Y23915550D01*
X23686772Y23676805D01*
X23683364Y23432751D01*
X23727425Y23192682D01*
X23817276Y22965743D01*
X23949496Y22760579D01*
X24119047Y22585003D01*
X24186154Y22538362D01*
X24145955Y22512057D01*
X23971568Y22341284D01*
X23904272Y22243000D01*
X21014600Y22243000D01*
X20946923Y22236364D01*
X20879101Y22230431D01*
X20875379Y22229350D01*
X20871527Y22228972D01*
X20806407Y22209311D01*
X20741051Y22190323D01*
X20737613Y22188541D01*
X20733904Y22187421D01*
X20673827Y22155477D01*
X20613419Y22124165D01*
X20610392Y22121748D01*
X20606972Y22119930D01*
X20554201Y22076892D01*
X20501069Y22034476D01*
X20495681Y22029164D01*
X20495566Y22029070D01*
X20495478Y22028964D01*
X20493745Y22027255D01*
X18712665Y20246175D01*
X18597540Y20224214D01*
X18432147Y20157391D01*
X18282883Y20059716D01*
X18155435Y19934909D01*
X18054655Y19787723D01*
X17984383Y19623766D01*
X17947295Y19449283D01*
X17944805Y19270918D01*
X17977006Y19095467D01*
X18042673Y18929612D01*
X18139303Y18779670D01*
X18149783Y18768818D01*
X18122055Y18728323D01*
X18051783Y18564366D01*
X18014695Y18389883D01*
X18012205Y18211518D01*
X18018277Y18178433D01*
X17344455Y18852255D01*
X17291888Y18895434D01*
X17239755Y18939179D01*
X17236360Y18941046D01*
X17233368Y18943503D01*
X17173387Y18975665D01*
X17113778Y19008435D01*
X17110089Y19009605D01*
X17106673Y19011437D01*
X17041582Y19031337D01*
X16976748Y19051904D01*
X16972898Y19052336D01*
X16969195Y19053468D01*
X16901480Y19060346D01*
X16833885Y19067928D01*
X16826319Y19067981D01*
X16826171Y19067996D01*
X16826033Y19067983D01*
X16823600Y19068000D01*
X15299910Y19068000D01*
X15696907Y19464997D01*
X15799393Y19483068D01*
X15965703Y19547576D01*
X16116315Y19643157D01*
X16245494Y19766173D01*
X16348319Y19911937D01*
X16420874Y20074896D01*
X16460394Y20248845D01*
X16463239Y20452591D01*
X16428591Y20627575D01*
X16360615Y20792497D01*
X16261900Y20941075D01*
X16136206Y21067650D01*
X15988321Y21167400D01*
X15823877Y21236525D01*
X15649139Y21272394D01*
X15470762Y21273639D01*
X15295540Y21240214D01*
X15130147Y21173391D01*
X14980883Y21075716D01*
X14853435Y20950909D01*
X14752655Y20803723D01*
X14682383Y20639766D01*
X14653804Y20505314D01*
X13851490Y19703000D01*
X13267600Y19703000D01*
X13199918Y19696364D01*
X13132102Y19690431D01*
X13128381Y19689350D01*
X13124527Y19688972D01*
X13059395Y19669307D01*
X12994051Y19650323D01*
X12990612Y19648541D01*
X12986904Y19647421D01*
X12926866Y19615498D01*
X12889393Y19596075D01*
X12907612Y19676263D01*
X12912061Y19994873D01*
X12857880Y20268508D01*
X12751581Y20526407D01*
X12597214Y20758748D01*
X12400659Y20956681D01*
X12169401Y21112666D01*
X11912250Y21220762D01*
X11639001Y21276852D01*
X11360060Y21278800D01*
X11086054Y21226530D01*
X10827419Y21122035D01*
X10594006Y20969294D01*
X10394706Y20774125D01*
X10237111Y20543962D01*
X10220408Y20504991D01*
X10211581Y20526407D01*
X10057214Y20758748D01*
X9860659Y20956681D01*
X9629401Y21112666D01*
X9372250Y21220762D01*
X9206890Y21254706D01*
X9379044Y21303570D01*
X9583798Y21408329D01*
X9618838Y21431741D01*
X9698611Y21611033D01*
X8949600Y22360045D01*
X8935458Y22345902D01*
X8900102Y22381258D01*
X8914245Y22395400D01*
X8984955Y22395400D01*
X9733967Y21646389D01*
X9913259Y21726162D01*
X10025304Y21927022D01*
X10096010Y22145881D01*
X10122661Y22374329D01*
X10104232Y22603586D01*
X10041430Y22824844D01*
X9936671Y23029598D01*
X9913259Y23064638D01*
X9733967Y23144411D01*
X8984955Y22395400D01*
X8914245Y22395400D01*
X8900102Y22409542D01*
X8935458Y22444897D01*
X8949600Y22430755D01*
X9698611Y23179767D01*
X9618838Y23359059D01*
X9417978Y23471104D01*
X9199119Y23541810D01*
X8970671Y23568461D01*
X8741414Y23550032D01*
X8520156Y23487230D01*
X8315402Y23382471D01*
X8280362Y23359059D01*
X8271042Y23338111D01*
X8250129Y23363752D01*
X8207676Y23416932D01*
X8202363Y23422320D01*
X8202270Y23422434D01*
X8202165Y23422521D01*
X8200455Y23424255D01*
X7426243Y24198467D01*
X7461592Y24220900D01*
X17716500Y24220900D01*
X17784057Y24227524D01*
X17851630Y24233436D01*
X17855336Y24234513D01*
X17859185Y24234890D01*
X17924187Y24254515D01*
X17989307Y24273434D01*
X17992736Y24275212D01*
X17996434Y24276328D01*
X18056352Y24308187D01*
X18116592Y24339413D01*
X18119610Y24341823D01*
X18123021Y24343636D01*
X18175605Y24386522D01*
X18228637Y24428857D01*
X18234016Y24434161D01*
X18234124Y24434249D01*
X18234206Y24434349D01*
X18235941Y24436059D01*
X18300874Y24500992D01*
X18406793Y24519668D01*
X18573103Y24584176D01*
X18723715Y24679757D01*
X18852894Y24802773D01*
X18955719Y24948537D01*
X19028274Y25111496D01*
X19067794Y25285445D01*
X19070639Y25489191D01*
X19035991Y25664175D01*
X18968015Y25829097D01*
X18869300Y25977675D01*
X18743606Y26104250D01*
X18595721Y26204000D01*
X18431277Y26273125D01*
X18256539Y26308994D01*
X18078162Y26310239D01*
X17902940Y26276814D01*
X17737547Y26209991D01*
X17588283Y26112316D01*
X17460835Y25987509D01*
X17365146Y25847758D01*
X17678765Y27626383D01*
X18498282Y28445900D01*
X18976304Y28445900D01*
X19211250Y28468937D01*
X19437247Y28537169D01*
X19645686Y28647998D01*
X19828630Y28797203D01*
X19919140Y28906611D01*
X19997470Y28809187D01*
X20178312Y28657443D01*
X20385184Y28543714D01*
X20610206Y28472333D01*
X20844807Y28446018D01*
X20861696Y28445900D01*
X21476304Y28445900D01*
X21690116Y28466865D01*
X21689453Y28419382D01*
X21727219Y28213608D01*
X21804234Y28019089D01*
X21917565Y27843234D01*
X22062895Y27692741D01*
X22234688Y27573342D01*
X22426401Y27489585D01*
X22630730Y27444660D01*
X22839895Y27440278D01*
X23045927Y27476607D01*
X23240979Y27552263D01*
X23417621Y27664363D01*
X23569125Y27808639D01*
X23689721Y27979594D01*
X23774814Y28170717D01*
X23821164Y28374729D01*
X23824501Y28613686D01*
X23783865Y28818912D01*
X23704141Y29012337D01*
X23588366Y29186592D01*
X23440949Y29335042D01*
X23267506Y29452031D01*
X23074643Y29533103D01*
X22869706Y29575171D01*
X22678460Y29576506D01*
X22685875Y29647055D01*
X22664479Y29882156D01*
X22597826Y30108624D01*
X22488454Y30317832D01*
X22340530Y30501813D01*
X22159688Y30653557D01*
X21952816Y30767286D01*
X21727794Y30838667D01*
X21493193Y30864982D01*
X21476304Y30865100D01*
X21307889Y30865100D01*
X21310276Y30870461D01*
X21369869Y31132761D01*
X21374159Y31439992D01*
X21321913Y31703854D01*
X21304583Y31745900D01*
X21476304Y31745900D01*
X21711250Y31768937D01*
X21937247Y31837169D01*
X22145686Y31947998D01*
X22328630Y32097203D01*
X22479108Y32279100D01*
X22591390Y32486761D01*
X22661198Y32712276D01*
X22685875Y32947055D01*
X22664479Y33182156D01*
X22612490Y33358800D01*
X25875000Y33358800D01*
X25875000Y28351759D01*
X25875000Y28351759D01*
G37*
X25875000Y28351759D02*
X25726776Y28501021D01*
X25524426Y28637508D01*
X25299419Y28732092D01*
X25060326Y28781171D01*
X24816253Y28782875D01*
X24576498Y28737139D01*
X24350192Y28645706D01*
X24145955Y28512057D01*
X23971568Y28341284D01*
X23833672Y28139892D01*
X23737519Y27915550D01*
X23686772Y27676805D01*
X23683364Y27432751D01*
X23727425Y27192682D01*
X23817276Y26965743D01*
X23949496Y26760579D01*
X24119047Y26585003D01*
X24186154Y26538362D01*
X24145955Y26512057D01*
X23971568Y26341284D01*
X23833672Y26139892D01*
X23737519Y25915550D01*
X23686772Y25676805D01*
X23683364Y25432751D01*
X23727425Y25192682D01*
X23817276Y24965743D01*
X23949496Y24760579D01*
X24119047Y24585003D01*
X24186154Y24538362D01*
X24145955Y24512057D01*
X23971568Y24341284D01*
X23833672Y24139892D01*
X23737519Y23915550D01*
X23686772Y23676805D01*
X23683364Y23432751D01*
X23727425Y23192682D01*
X23817276Y22965743D01*
X23949496Y22760579D01*
X24119047Y22585003D01*
X24186154Y22538362D01*
X24145955Y22512057D01*
X23971568Y22341284D01*
X23904272Y22243000D01*
X21014600Y22243000D01*
X20946923Y22236364D01*
X20879101Y22230431D01*
X20875379Y22229350D01*
X20871527Y22228972D01*
X20806407Y22209311D01*
X20741051Y22190323D01*
X20737613Y22188541D01*
X20733904Y22187421D01*
X20673827Y22155477D01*
X20613419Y22124165D01*
X20610392Y22121748D01*
X20606972Y22119930D01*
X20554201Y22076892D01*
X20501069Y22034476D01*
X20495681Y22029164D01*
X20495566Y22029070D01*
X20495478Y22028964D01*
X20493745Y22027255D01*
X18712665Y20246175D01*
X18597540Y20224214D01*
X18432147Y20157391D01*
X18282883Y20059716D01*
X18155435Y19934909D01*
X18054655Y19787723D01*
X17984383Y19623766D01*
X17947295Y19449283D01*
X17944805Y19270918D01*
X17977006Y19095467D01*
X18042673Y18929612D01*
X18139303Y18779670D01*
X18149783Y18768818D01*
X18122055Y18728323D01*
X18051783Y18564366D01*
X18014695Y18389883D01*
X18012205Y18211518D01*
X18018277Y18178433D01*
X17344455Y18852255D01*
X17291888Y18895434D01*
X17239755Y18939179D01*
X17236360Y18941046D01*
X17233368Y18943503D01*
X17173387Y18975665D01*
X17113778Y19008435D01*
X17110089Y19009605D01*
X17106673Y19011437D01*
X17041582Y19031337D01*
X16976748Y19051904D01*
X16972898Y19052336D01*
X16969195Y19053468D01*
X16901480Y19060346D01*
X16833885Y19067928D01*
X16826319Y19067981D01*
X16826171Y19067996D01*
X16826033Y19067983D01*
X16823600Y19068000D01*
X15299910Y19068000D01*
X15696907Y19464997D01*
X15799393Y19483068D01*
X15965703Y19547576D01*
X16116315Y19643157D01*
X16245494Y19766173D01*
X16348319Y19911937D01*
X16420874Y20074896D01*
X16460394Y20248845D01*
X16463239Y20452591D01*
X16428591Y20627575D01*
X16360615Y20792497D01*
X16261900Y20941075D01*
X16136206Y21067650D01*
X15988321Y21167400D01*
X15823877Y21236525D01*
X15649139Y21272394D01*
X15470762Y21273639D01*
X15295540Y21240214D01*
X15130147Y21173391D01*
X14980883Y21075716D01*
X14853435Y20950909D01*
X14752655Y20803723D01*
X14682383Y20639766D01*
X14653804Y20505314D01*
X13851490Y19703000D01*
X13267600Y19703000D01*
X13199918Y19696364D01*
X13132102Y19690431D01*
X13128381Y19689350D01*
X13124527Y19688972D01*
X13059395Y19669307D01*
X12994051Y19650323D01*
X12990612Y19648541D01*
X12986904Y19647421D01*
X12926866Y19615498D01*
X12889393Y19596075D01*
X12907612Y19676263D01*
X12912061Y19994873D01*
X12857880Y20268508D01*
X12751581Y20526407D01*
X12597214Y20758748D01*
X12400659Y20956681D01*
X12169401Y21112666D01*
X11912250Y21220762D01*
X11639001Y21276852D01*
X11360060Y21278800D01*
X11086054Y21226530D01*
X10827419Y21122035D01*
X10594006Y20969294D01*
X10394706Y20774125D01*
X10237111Y20543962D01*
X10220408Y20504991D01*
X10211581Y20526407D01*
X10057214Y20758748D01*
X9860659Y20956681D01*
X9629401Y21112666D01*
X9372250Y21220762D01*
X9206890Y21254706D01*
X9379044Y21303570D01*
X9583798Y21408329D01*
X9618838Y21431741D01*
X9698611Y21611033D01*
X8949600Y22360045D01*
X8935458Y22345902D01*
X8900102Y22381258D01*
X8914245Y22395400D01*
X8984955Y22395400D01*
X9733967Y21646389D01*
X9913259Y21726162D01*
X10025304Y21927022D01*
X10096010Y22145881D01*
X10122661Y22374329D01*
X10104232Y22603586D01*
X10041430Y22824844D01*
X9936671Y23029598D01*
X9913259Y23064638D01*
X9733967Y23144411D01*
X8984955Y22395400D01*
X8914245Y22395400D01*
X8900102Y22409542D01*
X8935458Y22444897D01*
X8949600Y22430755D01*
X9698611Y23179767D01*
X9618838Y23359059D01*
X9417978Y23471104D01*
X9199119Y23541810D01*
X8970671Y23568461D01*
X8741414Y23550032D01*
X8520156Y23487230D01*
X8315402Y23382471D01*
X8280362Y23359059D01*
X8271042Y23338111D01*
X8250129Y23363752D01*
X8207676Y23416932D01*
X8202363Y23422320D01*
X8202270Y23422434D01*
X8202165Y23422521D01*
X8200455Y23424255D01*
X7426243Y24198467D01*
X7461592Y24220900D01*
X17716500Y24220900D01*
X17784057Y24227524D01*
X17851630Y24233436D01*
X17855336Y24234513D01*
X17859185Y24234890D01*
X17924187Y24254515D01*
X17989307Y24273434D01*
X17992736Y24275212D01*
X17996434Y24276328D01*
X18056352Y24308187D01*
X18116592Y24339413D01*
X18119610Y24341823D01*
X18123021Y24343636D01*
X18175605Y24386522D01*
X18228637Y24428857D01*
X18234016Y24434161D01*
X18234124Y24434249D01*
X18234206Y24434349D01*
X18235941Y24436059D01*
X18300874Y24500992D01*
X18406793Y24519668D01*
X18573103Y24584176D01*
X18723715Y24679757D01*
X18852894Y24802773D01*
X18955719Y24948537D01*
X19028274Y25111496D01*
X19067794Y25285445D01*
X19070639Y25489191D01*
X19035991Y25664175D01*
X18968015Y25829097D01*
X18869300Y25977675D01*
X18743606Y26104250D01*
X18595721Y26204000D01*
X18431277Y26273125D01*
X18256539Y26308994D01*
X18078162Y26310239D01*
X17902940Y26276814D01*
X17737547Y26209991D01*
X17588283Y26112316D01*
X17460835Y25987509D01*
X17365146Y25847758D01*
X17678765Y27626383D01*
X18498282Y28445900D01*
X18976304Y28445900D01*
X19211250Y28468937D01*
X19437247Y28537169D01*
X19645686Y28647998D01*
X19828630Y28797203D01*
X19919140Y28906611D01*
X19997470Y28809187D01*
X20178312Y28657443D01*
X20385184Y28543714D01*
X20610206Y28472333D01*
X20844807Y28446018D01*
X20861696Y28445900D01*
X21476304Y28445900D01*
X21690116Y28466865D01*
X21689453Y28419382D01*
X21727219Y28213608D01*
X21804234Y28019089D01*
X21917565Y27843234D01*
X22062895Y27692741D01*
X22234688Y27573342D01*
X22426401Y27489585D01*
X22630730Y27444660D01*
X22839895Y27440278D01*
X23045927Y27476607D01*
X23240979Y27552263D01*
X23417621Y27664363D01*
X23569125Y27808639D01*
X23689721Y27979594D01*
X23774814Y28170717D01*
X23821164Y28374729D01*
X23824501Y28613686D01*
X23783865Y28818912D01*
X23704141Y29012337D01*
X23588366Y29186592D01*
X23440949Y29335042D01*
X23267506Y29452031D01*
X23074643Y29533103D01*
X22869706Y29575171D01*
X22678460Y29576506D01*
X22685875Y29647055D01*
X22664479Y29882156D01*
X22597826Y30108624D01*
X22488454Y30317832D01*
X22340530Y30501813D01*
X22159688Y30653557D01*
X21952816Y30767286D01*
X21727794Y30838667D01*
X21493193Y30864982D01*
X21476304Y30865100D01*
X21307889Y30865100D01*
X21310276Y30870461D01*
X21369869Y31132761D01*
X21374159Y31439992D01*
X21321913Y31703854D01*
X21304583Y31745900D01*
X21476304Y31745900D01*
X21711250Y31768937D01*
X21937247Y31837169D01*
X22145686Y31947998D01*
X22328630Y32097203D01*
X22479108Y32279100D01*
X22591390Y32486761D01*
X22661198Y32712276D01*
X22685875Y32947055D01*
X22664479Y33182156D01*
X22612490Y33358800D01*
X25875000Y33358800D01*
X25875000Y28351759D01*
G36*
X5983401Y33319279D02*
X5821227Y33069628D01*
X7058500Y31832355D01*
X8295773Y33069628D01*
X8133599Y33319279D01*
X8064047Y33358800D01*
X11138249Y33358800D01*
X10934733Y33159502D01*
X10701013Y32818162D01*
X10538044Y32437927D01*
X10452033Y32033278D01*
X10446257Y31619630D01*
X10520936Y31212738D01*
X10673225Y30828100D01*
X10897323Y30480367D01*
X11184695Y30182785D01*
X11524395Y29946687D01*
X11903484Y29781067D01*
X12307522Y29692234D01*
X12721120Y29683570D01*
X13128523Y29755406D01*
X13440287Y29876331D01*
X14229262Y29087356D01*
X13469230Y29221370D01*
X13372284Y29230604D01*
X13201279Y29208980D01*
X13043069Y29140572D01*
X12910180Y29030795D01*
X12813135Y28888343D01*
X12759619Y28724495D01*
X12594975Y27790750D01*
X12499721Y27855000D01*
X12335277Y27924125D01*
X12160539Y27959994D01*
X11982162Y27961239D01*
X11806940Y27927814D01*
X11641547Y27860991D01*
X11492283Y27763316D01*
X11364835Y27638509D01*
X11264055Y27491323D01*
X11193783Y27327366D01*
X11156695Y27152883D01*
X11154205Y26974518D01*
X11186406Y26799067D01*
X11252073Y26633212D01*
X11348703Y26483270D01*
X11472618Y26354953D01*
X11619096Y26253148D01*
X11782558Y26181733D01*
X11956779Y26143429D01*
X12135121Y26139693D01*
X12310793Y26170668D01*
X12313667Y26171783D01*
X12309319Y26126137D01*
X12330943Y25955132D01*
X12399351Y25796922D01*
X12487595Y25690100D01*
X7459110Y25690100D01*
X7356221Y25759500D01*
X7191777Y25828625D01*
X7017039Y25864494D01*
X6838662Y25865739D01*
X6663440Y25832314D01*
X6498047Y25765491D01*
X6348783Y25667816D01*
X6221335Y25543009D01*
X6164584Y25460126D01*
X4171375Y27453335D01*
X4174253Y27659439D01*
X4126845Y27898870D01*
X4033834Y28124531D01*
X3898763Y28327830D01*
X3726776Y28501021D01*
X3524426Y28637508D01*
X3299419Y28732092D01*
X3060326Y28781171D01*
X2816253Y28782875D01*
X2576498Y28737139D01*
X2350192Y28645706D01*
X2145955Y28512057D01*
X1971568Y28341284D01*
X1833672Y28139892D01*
X1737519Y27915550D01*
X1686772Y27676805D01*
X1683364Y27432751D01*
X1727425Y27192682D01*
X1817276Y26965743D01*
X1949496Y26760579D01*
X2119047Y26585003D01*
X2186154Y26538362D01*
X2145955Y26512057D01*
X1971568Y26341284D01*
X1833672Y26139892D01*
X1737519Y25915550D01*
X1686772Y25676805D01*
X1683493Y25442003D01*
X1316745Y25075255D01*
X1273566Y25022688D01*
X1229821Y24970555D01*
X1227954Y24967160D01*
X1225497Y24964168D01*
X1193335Y24904187D01*
X1160565Y24844578D01*
X1159395Y24840889D01*
X1157563Y24837473D01*
X1137663Y24772382D01*
X1117096Y24707548D01*
X1116664Y24703698D01*
X1115532Y24699995D01*
X1108654Y24632280D01*
X1101072Y24564685D01*
X1101019Y24557119D01*
X1101004Y24556971D01*
X1101017Y24556833D01*
X1101000Y24554400D01*
X1101000Y23970510D01*
X744200Y23613710D01*
X744200Y30068207D01*
X956075Y29739440D01*
X1284334Y29399519D01*
X1672365Y29129830D01*
X2105390Y28940646D01*
X2566913Y28839173D01*
X3039357Y28829277D01*
X3504725Y28911334D01*
X3945291Y29082219D01*
X4344276Y29335422D01*
X4686481Y29661299D01*
X4958872Y30047439D01*
X5151075Y30479132D01*
X5161353Y30524372D01*
X5821227Y30524372D01*
X5983401Y30274721D01*
X6301042Y30094230D01*
X6647790Y29979176D01*
X7010321Y29933979D01*
X7374704Y29960378D01*
X7726935Y30057356D01*
X8053479Y30221188D01*
X8133599Y30274721D01*
X8295773Y30524372D01*
X7058500Y31761645D01*
X5821227Y30524372D01*
X5161353Y30524372D01*
X5255767Y30939936D01*
X5261319Y31337545D01*
X5318856Y31128565D01*
X5482688Y30802021D01*
X5536221Y30721901D01*
X5785872Y30559727D01*
X7023145Y31797000D01*
X7093855Y31797000D01*
X8331128Y30559727D01*
X8580779Y30721901D01*
X8761270Y31039542D01*
X8876324Y31386290D01*
X8921521Y31748821D01*
X8895122Y32113204D01*
X8798144Y32465435D01*
X8634312Y32791979D01*
X8580779Y32872099D01*
X8331128Y33034273D01*
X7093855Y31797000D01*
X7023145Y31797000D01*
X5785872Y33034273D01*
X5536221Y32872099D01*
X5355730Y32554458D01*
X5240676Y32207710D01*
X5195479Y31845179D01*
X5198103Y31808955D01*
X5171518Y31943221D01*
X4991445Y32380112D01*
X4729941Y32773707D01*
X4396969Y33109012D01*
X4026642Y33358800D01*
X6042550Y33358800D01*
X5983401Y33319279D01*
X5983401Y33319279D01*
G37*
X5983401Y33319279D02*
X5821227Y33069628D01*
X7058500Y31832355D01*
X8295773Y33069628D01*
X8133599Y33319279D01*
X8064047Y33358800D01*
X11138249Y33358800D01*
X10934733Y33159502D01*
X10701013Y32818162D01*
X10538044Y32437927D01*
X10452033Y32033278D01*
X10446257Y31619630D01*
X10520936Y31212738D01*
X10673225Y30828100D01*
X10897323Y30480367D01*
X11184695Y30182785D01*
X11524395Y29946687D01*
X11903484Y29781067D01*
X12307522Y29692234D01*
X12721120Y29683570D01*
X13128523Y29755406D01*
X13440287Y29876331D01*
X14229262Y29087356D01*
X13469230Y29221370D01*
X13372284Y29230604D01*
X13201279Y29208980D01*
X13043069Y29140572D01*
X12910180Y29030795D01*
X12813135Y28888343D01*
X12759619Y28724495D01*
X12594975Y27790750D01*
X12499721Y27855000D01*
X12335277Y27924125D01*
X12160539Y27959994D01*
X11982162Y27961239D01*
X11806940Y27927814D01*
X11641547Y27860991D01*
X11492283Y27763316D01*
X11364835Y27638509D01*
X11264055Y27491323D01*
X11193783Y27327366D01*
X11156695Y27152883D01*
X11154205Y26974518D01*
X11186406Y26799067D01*
X11252073Y26633212D01*
X11348703Y26483270D01*
X11472618Y26354953D01*
X11619096Y26253148D01*
X11782558Y26181733D01*
X11956779Y26143429D01*
X12135121Y26139693D01*
X12310793Y26170668D01*
X12313667Y26171783D01*
X12309319Y26126137D01*
X12330943Y25955132D01*
X12399351Y25796922D01*
X12487595Y25690100D01*
X7459110Y25690100D01*
X7356221Y25759500D01*
X7191777Y25828625D01*
X7017039Y25864494D01*
X6838662Y25865739D01*
X6663440Y25832314D01*
X6498047Y25765491D01*
X6348783Y25667816D01*
X6221335Y25543009D01*
X6164584Y25460126D01*
X4171375Y27453335D01*
X4174253Y27659439D01*
X4126845Y27898870D01*
X4033834Y28124531D01*
X3898763Y28327830D01*
X3726776Y28501021D01*
X3524426Y28637508D01*
X3299419Y28732092D01*
X3060326Y28781171D01*
X2816253Y28782875D01*
X2576498Y28737139D01*
X2350192Y28645706D01*
X2145955Y28512057D01*
X1971568Y28341284D01*
X1833672Y28139892D01*
X1737519Y27915550D01*
X1686772Y27676805D01*
X1683364Y27432751D01*
X1727425Y27192682D01*
X1817276Y26965743D01*
X1949496Y26760579D01*
X2119047Y26585003D01*
X2186154Y26538362D01*
X2145955Y26512057D01*
X1971568Y26341284D01*
X1833672Y26139892D01*
X1737519Y25915550D01*
X1686772Y25676805D01*
X1683493Y25442003D01*
X1316745Y25075255D01*
X1273566Y25022688D01*
X1229821Y24970555D01*
X1227954Y24967160D01*
X1225497Y24964168D01*
X1193335Y24904187D01*
X1160565Y24844578D01*
X1159395Y24840889D01*
X1157563Y24837473D01*
X1137663Y24772382D01*
X1117096Y24707548D01*
X1116664Y24703698D01*
X1115532Y24699995D01*
X1108654Y24632280D01*
X1101072Y24564685D01*
X1101019Y24557119D01*
X1101004Y24556971D01*
X1101017Y24556833D01*
X1101000Y24554400D01*
X1101000Y23970510D01*
X744200Y23613710D01*
X744200Y30068207D01*
X956075Y29739440D01*
X1284334Y29399519D01*
X1672365Y29129830D01*
X2105390Y28940646D01*
X2566913Y28839173D01*
X3039357Y28829277D01*
X3504725Y28911334D01*
X3945291Y29082219D01*
X4344276Y29335422D01*
X4686481Y29661299D01*
X4958872Y30047439D01*
X5151075Y30479132D01*
X5161353Y30524372D01*
X5821227Y30524372D01*
X5983401Y30274721D01*
X6301042Y30094230D01*
X6647790Y29979176D01*
X7010321Y29933979D01*
X7374704Y29960378D01*
X7726935Y30057356D01*
X8053479Y30221188D01*
X8133599Y30274721D01*
X8295773Y30524372D01*
X7058500Y31761645D01*
X5821227Y30524372D01*
X5161353Y30524372D01*
X5255767Y30939936D01*
X5261319Y31337545D01*
X5318856Y31128565D01*
X5482688Y30802021D01*
X5536221Y30721901D01*
X5785872Y30559727D01*
X7023145Y31797000D01*
X7093855Y31797000D01*
X8331128Y30559727D01*
X8580779Y30721901D01*
X8761270Y31039542D01*
X8876324Y31386290D01*
X8921521Y31748821D01*
X8895122Y32113204D01*
X8798144Y32465435D01*
X8634312Y32791979D01*
X8580779Y32872099D01*
X8331128Y33034273D01*
X7093855Y31797000D01*
X7023145Y31797000D01*
X5785872Y33034273D01*
X5536221Y32872099D01*
X5355730Y32554458D01*
X5240676Y32207710D01*
X5195479Y31845179D01*
X5198103Y31808955D01*
X5171518Y31943221D01*
X4991445Y32380112D01*
X4729941Y32773707D01*
X4396969Y33109012D01*
X4026642Y33358800D01*
X6042550Y33358800D01*
X5983401Y33319279D01*
M02*
