M48
;DRILL file {KiCad 4.0.2+dfsg1-stable} date Tue 07 Feb 2017 13:12:47 CET
;FORMAT={-:-/ absolute / metric / decimal}
FMAT,2
METRIC,TZ
T1C0.400
T2C0.600
T3C0.800
T4C1.016
%
G90
G05
M71
T1
X1.968Y5.969
X3.683Y10.541
X5.521Y12.616
X5.524Y17.488
X5.53Y10.035
X6.185Y15.443
X6.921Y24.955
X8.014Y7.214
X8.255Y29.781
X9.715Y10.351
X10.49Y11.697
X11.29Y10.389
X12.065Y27.051
X12.125Y12.362
X12.865Y16.18
X13.792Y15.05
X14.389Y13.246
X14.554Y14.834
X15.554Y20.363
X17.081Y8.826
X17.335Y10.096
X17.462Y21.209
X17.704Y15.443
X18.161Y25.4
X18.453Y14.694
X18.605Y11.049
X18.856Y19.347
X18.923Y18.288
X18.923Y17.209
X20.383Y19.621
X20.764Y22.733
X21.396Y10.584
X21.399Y7.239
X22.098Y7.938
X22.53Y24.498
X23.047Y13.124
X23.05Y11.747
X25.59Y29.019
T3
X2.93Y27.537
X2.93Y25.537
X2.93Y23.537
X2.93Y21.537
X2.93Y19.537
X2.93Y17.537
X2.93Y15.537
X2.93Y13.537
X2.93Y11.537
X2.93Y9.537
X24.93Y27.537
X24.93Y25.537
X24.93Y23.537
X24.93Y21.537
X24.93Y19.537
X24.93Y17.537
X24.93Y15.537
X24.93Y13.537
X24.93Y11.537
X24.93Y9.537
T4
X1.33Y4.615
X1.33Y2.075
X3.87Y4.615
X3.87Y2.075
X6.41Y22.395
X6.41Y19.855
X6.41Y4.615
X6.41Y2.075
X8.95Y22.395
X8.95Y19.855
X8.95Y4.615
X8.95Y2.075
X11.49Y19.855
X11.49Y4.615
X11.49Y2.075
X14.03Y4.615
X14.03Y2.075
X16.57Y7.155
X16.57Y4.615
X16.57Y2.075
X19.11Y9.695
X19.11Y4.615
X19.11Y2.075
X21.65Y4.615
X21.65Y2.075
X24.19Y7.155
X24.19Y4.615
X24.19Y2.075
T2
X16.319Y32.956G85X16.019Y32.956
G05
X16.319Y29.655G85X16.019Y29.655
G05
X18.819Y32.956G85X18.519Y32.956
G05
X18.819Y29.655G85X18.519Y29.655
G05
X21.319Y32.956G85X21.019Y32.956
G05
X21.319Y29.655G85X21.019Y29.655
G05
T0
M30
