G04 #@! TF.FileFunction,Glue,Top*
%FSLAX46Y46*%
G04 Gerber Fmt 4.6, Leading zero omitted, Abs format (unit mm)*
G04 Created by KiCad (PCBNEW 4.0.2+dfsg1-stable) date Tue 07 Feb 2017 13:12:44 CET*
%MOMM*%
G01*
G04 APERTURE LIST*
%ADD10C,0.100000*%
%ADD11C,0.150000*%
G04 APERTURE END LIST*
D10*
D11*
X59600Y43400D02*
X26559600Y43400D01*
X26559600Y43400D02*
X26559600Y34043400D01*
X26559600Y34043400D02*
X59600Y34043400D01*
X59600Y34043400D02*
X59600Y43400D01*
D10*
G36*
X13575700Y20217300D02*
X13975500Y20217300D01*
X13975500Y21017500D01*
X13575700Y21017500D01*
X13575700Y20217300D01*
G37*
G36*
X19386600Y26724100D02*
X19386600Y27123900D01*
X18586400Y27123900D01*
X18586400Y26724100D01*
X19386600Y26724100D01*
G37*
G36*
X23065700Y20925500D02*
X23065700Y21325300D01*
X22265500Y21325300D01*
X22265500Y20925500D01*
X23065700Y20925500D01*
G37*
G36*
X12105500Y23511500D02*
X12105500Y23311300D01*
X12905700Y23311300D01*
X12905700Y23511500D01*
X12105500Y23511500D01*
G37*
G36*
X18963500Y23511500D02*
X18963500Y23311300D01*
X19763700Y23311300D01*
X19763700Y23511500D01*
X18963500Y23511500D01*
G37*
G36*
X13975500Y19647400D02*
X13575700Y19647400D01*
X13575700Y19047400D01*
X13975500Y19047400D01*
X13975500Y19647400D01*
G37*
G36*
X21037600Y26724100D02*
X21037600Y27123900D01*
X20237400Y27123900D01*
X20237400Y26724100D01*
X21037600Y26724100D01*
G37*
G36*
X18129600Y12997300D02*
X18129600Y12597500D01*
X18729600Y12597500D01*
X18729600Y12997300D01*
X18129600Y12997300D01*
G37*
G36*
X21537700Y8884300D02*
X21937500Y8884300D01*
X21937500Y9684500D01*
X21537700Y9684500D01*
X21537700Y8884300D01*
G37*
G36*
X21048500Y13035500D02*
X20648700Y13035500D01*
X20648700Y12235300D01*
X21048500Y12235300D01*
X21048500Y13035500D01*
G37*
G36*
X5974500Y7682500D02*
X5574700Y7682500D01*
X5574700Y6882300D01*
X5974500Y6882300D01*
X5974500Y7682500D01*
G37*
M02*
