%FSLAX45Y45*%
G04 Gerber Fmt 4.5, Leading zero omitted, Abs format (unit mm)*
G04 Created by KiCad (PCBNEW 4.0.2+dfsg1-stable) date Thu 12 Jan 2017 19:54:48 CET*
%MOMM*%
G01*
G04 APERTURE LIST*
%ADD10C,0.127000*%
%ADD11C,0.150000*%
%ADD12C,0.200000*%
%ADD13C,0.300000*%
G04 APERTURE END LIST*
D10*
D11*
X5960Y4340D02*
X2655960Y4340D01*
X2655960Y4340D02*
X2655960Y3404340D01*
X2655960Y3404340D02*
X5960Y3404340D01*
X5960Y3404340D02*
X5960Y4340D01*
D12*
X74860Y849840D02*
X114860Y809840D01*
X114860Y849840D02*
X74860Y809840D01*
X380050Y839150D02*
X420050Y799150D01*
X420050Y839150D02*
X380050Y799150D01*
X468950Y1626550D02*
X508950Y1586550D01*
X508950Y1626550D02*
X468950Y1586550D01*
X532060Y1281640D02*
X572060Y1241640D01*
X572060Y1281640D02*
X532060Y1241640D01*
X672150Y2515550D02*
X712150Y2475550D01*
X712150Y2515550D02*
X672150Y2475550D01*
X760660Y799040D02*
X800660Y759040D01*
X800660Y799040D02*
X760660Y759040D01*
X805500Y2998150D02*
X845500Y2958150D01*
X845500Y2998150D02*
X805500Y2958150D01*
X964250Y1480500D02*
X1004250Y1440500D01*
X1004250Y1480500D02*
X964250Y1440500D01*
X1040060Y1230840D02*
X1080060Y1190840D01*
X1080060Y1230840D02*
X1040060Y1190840D01*
X1154360Y1611840D02*
X1194360Y1571840D01*
X1194360Y1611840D02*
X1154360Y1571840D01*
X1186500Y2725100D02*
X1226500Y2685100D01*
X1226500Y2725100D02*
X1186500Y2685100D01*
X1192460Y1256240D02*
X1232460Y1216240D01*
X1232460Y1256240D02*
X1192460Y1216240D01*
X1243650Y1410650D02*
X1283650Y1370650D01*
X1283650Y1410650D02*
X1243650Y1370650D01*
X1319460Y1497540D02*
X1359460Y1457540D01*
X1359460Y1497540D02*
X1319460Y1457540D01*
X1332160Y1307040D02*
X1372160Y1267040D01*
X1372160Y1307040D02*
X1332160Y1267040D01*
X1465900Y2966400D02*
X1505900Y2926400D01*
X1505900Y2966400D02*
X1465900Y2926400D01*
X1535360Y2056340D02*
X1575360Y2016340D01*
X1575360Y2056340D02*
X1535360Y2016340D01*
X1586160Y1751540D02*
X1626160Y1711540D01*
X1626160Y1751540D02*
X1586160Y1711540D01*
X1688150Y902650D02*
X1728150Y862650D01*
X1728150Y902650D02*
X1688150Y862650D01*
X1713160Y2894540D02*
X1753160Y2854540D01*
X1753160Y2894540D02*
X1713160Y2854540D01*
X1713550Y1029650D02*
X1753550Y989650D01*
X1753550Y1029650D02*
X1713550Y989650D01*
X1726250Y2140900D02*
X1766250Y2100900D01*
X1766250Y2140900D02*
X1726250Y2100900D01*
X1776660Y1484840D02*
X1816660Y1444840D01*
X1816660Y1484840D02*
X1776660Y1444840D01*
X1840550Y2604450D02*
X1880550Y2564450D01*
X1880550Y2604450D02*
X1840550Y2564450D01*
X1840550Y1124900D02*
X1880550Y1084900D01*
X1880550Y1124900D02*
X1840550Y1084900D01*
X1865560Y1954740D02*
X1905560Y1914740D01*
X1905560Y1954740D02*
X1865560Y1914740D01*
X1872300Y1848800D02*
X1912300Y1808800D01*
X1912300Y1848800D02*
X1872300Y1808800D01*
X1872300Y1740850D02*
X1912300Y1700850D01*
X1912300Y1740850D02*
X1872300Y1700850D01*
X2018350Y1982150D02*
X2058350Y1942150D01*
X2058350Y1982150D02*
X2018350Y1942150D01*
X2056450Y2293300D02*
X2096450Y2253300D01*
X2096450Y2293300D02*
X2056450Y2253300D01*
X2119560Y1078440D02*
X2159560Y1038440D01*
X2159560Y1078440D02*
X2119560Y1038440D01*
X2119950Y743900D02*
X2159950Y703900D01*
X2159950Y743900D02*
X2119950Y703900D01*
X2189800Y813750D02*
X2229800Y773750D01*
X2229800Y813750D02*
X2189800Y773750D01*
X2284660Y1332440D02*
X2324660Y1292440D01*
X2324660Y1332440D02*
X2284660Y1292440D01*
X2285050Y1194750D02*
X2325050Y1154750D01*
X2325050Y1194750D02*
X2285050Y1154750D01*
X2539050Y2921950D02*
X2579050Y2881950D01*
X2579050Y2921950D02*
X2539050Y2881950D01*
X332960Y2753740D02*
G75*
G03X332960Y2753740I-40000J0D01*
G01*
X332960Y2553740D02*
G75*
G03X332960Y2553740I-40000J0D01*
G01*
X332960Y2353740D02*
G75*
G03X332960Y2353740I-40000J0D01*
G01*
X332960Y2153740D02*
G75*
G03X332960Y2153740I-40000J0D01*
G01*
X332960Y1953740D02*
G75*
G03X332960Y1953740I-40000J0D01*
G01*
X332960Y1753740D02*
G75*
G03X332960Y1753740I-40000J0D01*
G01*
X332960Y1553740D02*
G75*
G03X332960Y1553740I-40000J0D01*
G01*
X332960Y1353740D02*
G75*
G03X332960Y1353740I-40000J0D01*
G01*
X332960Y1153740D02*
G75*
G03X332960Y1153740I-40000J0D01*
G01*
X332960Y953740D02*
G75*
G03X332960Y953740I-40000J0D01*
G01*
X2532960Y2753740D02*
G75*
G03X2532960Y2753740I-40000J0D01*
G01*
X2532960Y2553740D02*
G75*
G03X2532960Y2553740I-40000J0D01*
G01*
X2532960Y2353740D02*
G75*
G03X2532960Y2353740I-40000J0D01*
G01*
X2532960Y2153740D02*
G75*
G03X2532960Y2153740I-40000J0D01*
G01*
X2532960Y1953740D02*
G75*
G03X2532960Y1953740I-40000J0D01*
G01*
X2532960Y1753740D02*
G75*
G03X2532960Y1753740I-40000J0D01*
G01*
X2532960Y1553740D02*
G75*
G03X2532960Y1553740I-40000J0D01*
G01*
X2532960Y1353740D02*
G75*
G03X2532960Y1353740I-40000J0D01*
G01*
X2532960Y1153740D02*
G75*
G03X2532960Y1153740I-40000J0D01*
G01*
X2532960Y953740D02*
G75*
G03X2532960Y953740I-40000J0D01*
G01*
X132960Y512340D02*
X132960Y410740D01*
X82160Y461540D02*
X183760Y461540D01*
X132960Y258340D02*
X132960Y156740D01*
X82160Y207540D02*
X183760Y207540D01*
X386960Y512340D02*
X386960Y410740D01*
X336160Y461540D02*
X437760Y461540D01*
X386960Y258340D02*
X386960Y156740D01*
X336160Y207540D02*
X437760Y207540D01*
X640960Y2290340D02*
X640960Y2188740D01*
X590160Y2239540D02*
X691760Y2239540D01*
X640960Y2036340D02*
X640960Y1934740D01*
X590160Y1985540D02*
X691760Y1985540D01*
X640960Y512340D02*
X640960Y410740D01*
X590160Y461540D02*
X691760Y461540D01*
X640960Y258340D02*
X640960Y156740D01*
X590160Y207540D02*
X691760Y207540D01*
X894960Y2290340D02*
X894960Y2188740D01*
X844160Y2239540D02*
X945760Y2239540D01*
X894960Y2036340D02*
X894960Y1934740D01*
X844160Y1985540D02*
X945760Y1985540D01*
X894960Y512340D02*
X894960Y410740D01*
X844160Y461540D02*
X945760Y461540D01*
X894960Y258340D02*
X894960Y156740D01*
X844160Y207540D02*
X945760Y207540D01*
X1148960Y2036340D02*
X1148960Y1934740D01*
X1098160Y1985540D02*
X1199760Y1985540D01*
X1148960Y512340D02*
X1148960Y410740D01*
X1098160Y461540D02*
X1199760Y461540D01*
X1148960Y258340D02*
X1148960Y156740D01*
X1098160Y207540D02*
X1199760Y207540D01*
X1402960Y512340D02*
X1402960Y410740D01*
X1352160Y461540D02*
X1453760Y461540D01*
X1402960Y258340D02*
X1402960Y156740D01*
X1352160Y207540D02*
X1453760Y207540D01*
X1656960Y766340D02*
X1656960Y664740D01*
X1606160Y715540D02*
X1707760Y715540D01*
X1656960Y512340D02*
X1656960Y410740D01*
X1606160Y461540D02*
X1707760Y461540D01*
X1656960Y258340D02*
X1656960Y156740D01*
X1606160Y207540D02*
X1707760Y207540D01*
X1910960Y1020340D02*
X1910960Y918740D01*
X1860160Y969540D02*
X1961760Y969540D01*
X1910960Y512340D02*
X1910960Y410740D01*
X1860160Y461540D02*
X1961760Y461540D01*
X1910960Y258340D02*
X1910960Y156740D01*
X1860160Y207540D02*
X1961760Y207540D01*
X2164960Y512340D02*
X2164960Y410740D01*
X2114160Y461540D02*
X2215760Y461540D01*
X2164960Y258340D02*
X2164960Y156740D01*
X2114160Y207540D02*
X2215760Y207540D01*
X2418960Y766340D02*
X2418960Y664740D01*
X2368160Y715540D02*
X2469760Y715540D01*
X2418960Y512340D02*
X2418960Y410740D01*
X2368160Y461540D02*
X2469760Y461540D01*
X2418960Y258340D02*
X2418960Y156740D01*
X2368160Y207540D02*
X2469760Y207540D01*
D13*
X269889Y-468874D02*
X269889Y-168874D01*
X341317Y-168874D01*
X384174Y-183160D01*
X412746Y-211731D01*
X427031Y-240303D01*
X441317Y-297446D01*
X441317Y-340303D01*
X427031Y-397446D01*
X412746Y-426017D01*
X384174Y-454589D01*
X341317Y-468874D01*
X269889Y-468874D01*
X569889Y-468874D02*
X569889Y-268874D01*
X569889Y-326017D02*
X584174Y-297446D01*
X598460Y-283160D01*
X627031Y-268874D01*
X655603Y-268874D01*
X755603Y-468874D02*
X755603Y-268874D01*
X755603Y-168874D02*
X741317Y-183160D01*
X755603Y-197446D01*
X769888Y-183160D01*
X755603Y-168874D01*
X755603Y-197446D01*
X941317Y-468874D02*
X912746Y-454589D01*
X898460Y-426017D01*
X898460Y-168874D01*
X1098460Y-468874D02*
X1069889Y-454589D01*
X1055603Y-426017D01*
X1055603Y-168874D01*
X1441317Y-468874D02*
X1441317Y-168874D01*
X1541317Y-383160D01*
X1641317Y-168874D01*
X1641317Y-468874D01*
X1912746Y-468874D02*
X1912746Y-311732D01*
X1898460Y-283160D01*
X1869888Y-268874D01*
X1812746Y-268874D01*
X1784174Y-283160D01*
X1912746Y-454589D02*
X1884174Y-468874D01*
X1812746Y-468874D01*
X1784174Y-454589D01*
X1769888Y-426017D01*
X1769888Y-397446D01*
X1784174Y-368874D01*
X1812746Y-354589D01*
X1884174Y-354589D01*
X1912746Y-340303D01*
X2055603Y-268874D02*
X2055603Y-568874D01*
X2055603Y-283160D02*
X2084174Y-268874D01*
X2141317Y-268874D01*
X2169889Y-283160D01*
X2184174Y-297446D01*
X2198460Y-326017D01*
X2198460Y-411731D01*
X2184174Y-440303D01*
X2169889Y-454589D01*
X2141317Y-468874D01*
X2084174Y-468874D01*
X2055603Y-454589D01*
X2327031Y-440303D02*
X2341317Y-454589D01*
X2327031Y-468874D01*
X2312746Y-454589D01*
X2327031Y-440303D01*
X2327031Y-468874D01*
X2327031Y-283160D02*
X2341317Y-297446D01*
X2327031Y-311732D01*
X2312746Y-297446D01*
X2327031Y-283160D01*
X2327031Y-311732D01*
X-41540Y-943160D02*
X-1540Y-983160D01*
X-1540Y-943160D02*
X-41540Y-983160D01*
X327031Y-798874D02*
X355603Y-798874D01*
X384174Y-813160D01*
X398460Y-827446D01*
X412746Y-856017D01*
X427031Y-913160D01*
X427031Y-984589D01*
X412746Y-1041731D01*
X398460Y-1070303D01*
X384174Y-1084589D01*
X355603Y-1098874D01*
X327031Y-1098874D01*
X298460Y-1084589D01*
X284174Y-1070303D01*
X269889Y-1041731D01*
X255603Y-984589D01*
X255603Y-913160D01*
X269889Y-856017D01*
X284174Y-827446D01*
X298460Y-813160D01*
X327031Y-798874D01*
X555603Y-1070303D02*
X569889Y-1084589D01*
X555603Y-1098874D01*
X541317Y-1084589D01*
X555603Y-1070303D01*
X555603Y-1098874D01*
X827031Y-898874D02*
X827031Y-1098874D01*
X755603Y-784589D02*
X684174Y-998874D01*
X869888Y-998874D01*
X1041317Y-798874D02*
X1069889Y-798874D01*
X1098460Y-813160D01*
X1112746Y-827446D01*
X1127031Y-856017D01*
X1141317Y-913160D01*
X1141317Y-984589D01*
X1127031Y-1041731D01*
X1112746Y-1070303D01*
X1098460Y-1084589D01*
X1069889Y-1098874D01*
X1041317Y-1098874D01*
X1012746Y-1084589D01*
X998460Y-1070303D01*
X984174Y-1041731D01*
X969888Y-984589D01*
X969888Y-913160D01*
X984174Y-856017D01*
X998460Y-827446D01*
X1012746Y-813160D01*
X1041317Y-798874D01*
X1269889Y-1098874D02*
X1269889Y-898874D01*
X1269889Y-927446D02*
X1284174Y-913160D01*
X1312746Y-898874D01*
X1355603Y-898874D01*
X1384174Y-913160D01*
X1398460Y-941731D01*
X1398460Y-1098874D01*
X1398460Y-941731D02*
X1412746Y-913160D01*
X1441317Y-898874D01*
X1484174Y-898874D01*
X1512746Y-913160D01*
X1527031Y-941731D01*
X1527031Y-1098874D01*
X1669888Y-1098874D02*
X1669888Y-898874D01*
X1669888Y-927446D02*
X1684174Y-913160D01*
X1712746Y-898874D01*
X1755603Y-898874D01*
X1784174Y-913160D01*
X1798460Y-941731D01*
X1798460Y-1098874D01*
X1798460Y-941731D02*
X1812746Y-913160D01*
X1841317Y-898874D01*
X1884174Y-898874D01*
X1912746Y-913160D01*
X1927031Y-941731D01*
X1927031Y-1098874D01*
X2512746Y-784589D02*
X2255603Y-1170303D01*
X2898460Y-798874D02*
X2927031Y-798874D01*
X2955603Y-813160D01*
X2969888Y-827446D01*
X2984174Y-856017D01*
X2998460Y-913160D01*
X2998460Y-984589D01*
X2984174Y-1041731D01*
X2969888Y-1070303D01*
X2955603Y-1084589D01*
X2927031Y-1098874D01*
X2898460Y-1098874D01*
X2869888Y-1084589D01*
X2855603Y-1070303D01*
X2841317Y-1041731D01*
X2827031Y-984589D01*
X2827031Y-913160D01*
X2841317Y-856017D01*
X2855603Y-827446D01*
X2869888Y-813160D01*
X2898460Y-798874D01*
X3127031Y-1070303D02*
X3141317Y-1084589D01*
X3127031Y-1098874D01*
X3112746Y-1084589D01*
X3127031Y-1070303D01*
X3127031Y-1098874D01*
X3327031Y-798874D02*
X3355603Y-798874D01*
X3384174Y-813160D01*
X3398460Y-827446D01*
X3412745Y-856017D01*
X3427031Y-913160D01*
X3427031Y-984589D01*
X3412745Y-1041731D01*
X3398460Y-1070303D01*
X3384174Y-1084589D01*
X3355603Y-1098874D01*
X3327031Y-1098874D01*
X3298460Y-1084589D01*
X3284174Y-1070303D01*
X3269888Y-1041731D01*
X3255603Y-984589D01*
X3255603Y-913160D01*
X3269888Y-856017D01*
X3284174Y-827446D01*
X3298460Y-813160D01*
X3327031Y-798874D01*
X3712745Y-1098874D02*
X3541317Y-1098874D01*
X3627031Y-1098874D02*
X3627031Y-798874D01*
X3598460Y-841731D01*
X3569888Y-870303D01*
X3541317Y-884589D01*
X3969888Y-798874D02*
X3912745Y-798874D01*
X3884174Y-813160D01*
X3869888Y-827446D01*
X3841317Y-870303D01*
X3827031Y-927446D01*
X3827031Y-1041731D01*
X3841317Y-1070303D01*
X3855603Y-1084589D01*
X3884174Y-1098874D01*
X3941317Y-1098874D01*
X3969888Y-1084589D01*
X3984174Y-1070303D01*
X3998460Y-1041731D01*
X3998460Y-970303D01*
X3984174Y-941731D01*
X3969888Y-927446D01*
X3941317Y-913160D01*
X3884174Y-913160D01*
X3855603Y-927446D01*
X3841317Y-941731D01*
X3827031Y-970303D01*
X4112746Y-798874D02*
X4112746Y-856017D01*
X4227031Y-798874D02*
X4227031Y-856017D01*
X4669888Y-1213160D02*
X4655603Y-1198874D01*
X4627031Y-1156017D01*
X4612746Y-1127446D01*
X4598460Y-1084589D01*
X4584174Y-1013160D01*
X4584174Y-956017D01*
X4598460Y-884589D01*
X4612746Y-841731D01*
X4627031Y-813160D01*
X4655603Y-770303D01*
X4669888Y-756017D01*
X4755603Y-798874D02*
X4941317Y-798874D01*
X4841317Y-913160D01*
X4884174Y-913160D01*
X4912746Y-927446D01*
X4927031Y-941731D01*
X4941317Y-970303D01*
X4941317Y-1041731D01*
X4927031Y-1070303D01*
X4912746Y-1084589D01*
X4884174Y-1098874D01*
X4798460Y-1098874D01*
X4769888Y-1084589D01*
X4755603Y-1070303D01*
X5198460Y-798874D02*
X5141317Y-798874D01*
X5112746Y-813160D01*
X5098460Y-827446D01*
X5069888Y-870303D01*
X5055603Y-927446D01*
X5055603Y-1041731D01*
X5069888Y-1070303D01*
X5084174Y-1084589D01*
X5112746Y-1098874D01*
X5169888Y-1098874D01*
X5198460Y-1084589D01*
X5212746Y-1070303D01*
X5227031Y-1041731D01*
X5227031Y-970303D01*
X5212746Y-941731D01*
X5198460Y-927446D01*
X5169888Y-913160D01*
X5112746Y-913160D01*
X5084174Y-927446D01*
X5069888Y-941731D01*
X5055603Y-970303D01*
X5584174Y-1098874D02*
X5584174Y-798874D01*
X5712745Y-1098874D02*
X5712745Y-941731D01*
X5698460Y-913160D01*
X5669888Y-898874D01*
X5627031Y-898874D01*
X5598460Y-913160D01*
X5584174Y-927446D01*
X5898460Y-1098874D02*
X5869888Y-1084589D01*
X5855603Y-1070303D01*
X5841317Y-1041731D01*
X5841317Y-956017D01*
X5855603Y-927446D01*
X5869888Y-913160D01*
X5898460Y-898874D01*
X5941317Y-898874D01*
X5969888Y-913160D01*
X5984174Y-927446D01*
X5998460Y-956017D01*
X5998460Y-1041731D01*
X5984174Y-1070303D01*
X5969888Y-1084589D01*
X5941317Y-1098874D01*
X5898460Y-1098874D01*
X6169888Y-1098874D02*
X6141317Y-1084589D01*
X6127031Y-1056017D01*
X6127031Y-798874D01*
X6398460Y-1084589D02*
X6369888Y-1098874D01*
X6312746Y-1098874D01*
X6284174Y-1084589D01*
X6269888Y-1056017D01*
X6269888Y-941731D01*
X6284174Y-913160D01*
X6312746Y-898874D01*
X6369888Y-898874D01*
X6398460Y-913160D01*
X6412746Y-941731D01*
X6412746Y-970303D01*
X6269888Y-998874D01*
X6527031Y-1084589D02*
X6555603Y-1098874D01*
X6612746Y-1098874D01*
X6641317Y-1084589D01*
X6655603Y-1056017D01*
X6655603Y-1041731D01*
X6641317Y-1013160D01*
X6612746Y-998874D01*
X6569888Y-998874D01*
X6541317Y-984589D01*
X6527031Y-956017D01*
X6527031Y-941731D01*
X6541317Y-913160D01*
X6569888Y-898874D01*
X6612746Y-898874D01*
X6641317Y-913160D01*
X6755603Y-1213160D02*
X6769888Y-1198874D01*
X6798460Y-1156017D01*
X6812746Y-1127446D01*
X6827031Y-1084589D01*
X6841317Y-1013160D01*
X6841317Y-956017D01*
X6827031Y-884589D01*
X6812746Y-841731D01*
X6798460Y-813160D01*
X6769888Y-770303D01*
X6755603Y-756017D01*
X-1540Y-1359160D02*
G75*
G03X-1540Y-1359160I-40000J0D01*
G01*
X327031Y-1194874D02*
X355603Y-1194874D01*
X384174Y-1209160D01*
X398460Y-1223446D01*
X412746Y-1252017D01*
X427031Y-1309160D01*
X427031Y-1380589D01*
X412746Y-1437731D01*
X398460Y-1466303D01*
X384174Y-1480589D01*
X355603Y-1494874D01*
X327031Y-1494874D01*
X298460Y-1480589D01*
X284174Y-1466303D01*
X269889Y-1437731D01*
X255603Y-1380589D01*
X255603Y-1309160D01*
X269889Y-1252017D01*
X284174Y-1223446D01*
X298460Y-1209160D01*
X327031Y-1194874D01*
X555603Y-1466303D02*
X569889Y-1480589D01*
X555603Y-1494874D01*
X541317Y-1480589D01*
X555603Y-1466303D01*
X555603Y-1494874D01*
X741317Y-1323446D02*
X712746Y-1309160D01*
X698460Y-1294874D01*
X684174Y-1266303D01*
X684174Y-1252017D01*
X698460Y-1223446D01*
X712746Y-1209160D01*
X741317Y-1194874D01*
X798460Y-1194874D01*
X827031Y-1209160D01*
X841317Y-1223446D01*
X855603Y-1252017D01*
X855603Y-1266303D01*
X841317Y-1294874D01*
X827031Y-1309160D01*
X798460Y-1323446D01*
X741317Y-1323446D01*
X712746Y-1337732D01*
X698460Y-1352017D01*
X684174Y-1380589D01*
X684174Y-1437731D01*
X698460Y-1466303D01*
X712746Y-1480589D01*
X741317Y-1494874D01*
X798460Y-1494874D01*
X827031Y-1480589D01*
X841317Y-1466303D01*
X855603Y-1437731D01*
X855603Y-1380589D01*
X841317Y-1352017D01*
X827031Y-1337732D01*
X798460Y-1323446D01*
X1041317Y-1194874D02*
X1069889Y-1194874D01*
X1098460Y-1209160D01*
X1112746Y-1223446D01*
X1127031Y-1252017D01*
X1141317Y-1309160D01*
X1141317Y-1380589D01*
X1127031Y-1437731D01*
X1112746Y-1466303D01*
X1098460Y-1480589D01*
X1069889Y-1494874D01*
X1041317Y-1494874D01*
X1012746Y-1480589D01*
X998460Y-1466303D01*
X984174Y-1437731D01*
X969888Y-1380589D01*
X969888Y-1309160D01*
X984174Y-1252017D01*
X998460Y-1223446D01*
X1012746Y-1209160D01*
X1041317Y-1194874D01*
X1269889Y-1494874D02*
X1269889Y-1294874D01*
X1269889Y-1323446D02*
X1284174Y-1309160D01*
X1312746Y-1294874D01*
X1355603Y-1294874D01*
X1384174Y-1309160D01*
X1398460Y-1337732D01*
X1398460Y-1494874D01*
X1398460Y-1337732D02*
X1412746Y-1309160D01*
X1441317Y-1294874D01*
X1484174Y-1294874D01*
X1512746Y-1309160D01*
X1527031Y-1337732D01*
X1527031Y-1494874D01*
X1669888Y-1494874D02*
X1669888Y-1294874D01*
X1669888Y-1323446D02*
X1684174Y-1309160D01*
X1712746Y-1294874D01*
X1755603Y-1294874D01*
X1784174Y-1309160D01*
X1798460Y-1337732D01*
X1798460Y-1494874D01*
X1798460Y-1337732D02*
X1812746Y-1309160D01*
X1841317Y-1294874D01*
X1884174Y-1294874D01*
X1912746Y-1309160D01*
X1927031Y-1337732D01*
X1927031Y-1494874D01*
X2512746Y-1180589D02*
X2255603Y-1566303D01*
X2898460Y-1194874D02*
X2927031Y-1194874D01*
X2955603Y-1209160D01*
X2969888Y-1223446D01*
X2984174Y-1252017D01*
X2998460Y-1309160D01*
X2998460Y-1380589D01*
X2984174Y-1437731D01*
X2969888Y-1466303D01*
X2955603Y-1480589D01*
X2927031Y-1494874D01*
X2898460Y-1494874D01*
X2869888Y-1480589D01*
X2855603Y-1466303D01*
X2841317Y-1437731D01*
X2827031Y-1380589D01*
X2827031Y-1309160D01*
X2841317Y-1252017D01*
X2855603Y-1223446D01*
X2869888Y-1209160D01*
X2898460Y-1194874D01*
X3127031Y-1466303D02*
X3141317Y-1480589D01*
X3127031Y-1494874D01*
X3112746Y-1480589D01*
X3127031Y-1466303D01*
X3127031Y-1494874D01*
X3327031Y-1194874D02*
X3355603Y-1194874D01*
X3384174Y-1209160D01*
X3398460Y-1223446D01*
X3412745Y-1252017D01*
X3427031Y-1309160D01*
X3427031Y-1380589D01*
X3412745Y-1437731D01*
X3398460Y-1466303D01*
X3384174Y-1480589D01*
X3355603Y-1494874D01*
X3327031Y-1494874D01*
X3298460Y-1480589D01*
X3284174Y-1466303D01*
X3269888Y-1437731D01*
X3255603Y-1380589D01*
X3255603Y-1309160D01*
X3269888Y-1252017D01*
X3284174Y-1223446D01*
X3298460Y-1209160D01*
X3327031Y-1194874D01*
X3527031Y-1194874D02*
X3712745Y-1194874D01*
X3612745Y-1309160D01*
X3655603Y-1309160D01*
X3684174Y-1323446D01*
X3698460Y-1337732D01*
X3712745Y-1366303D01*
X3712745Y-1437731D01*
X3698460Y-1466303D01*
X3684174Y-1480589D01*
X3655603Y-1494874D01*
X3569888Y-1494874D01*
X3541317Y-1480589D01*
X3527031Y-1466303D01*
X3998460Y-1494874D02*
X3827031Y-1494874D01*
X3912745Y-1494874D02*
X3912745Y-1194874D01*
X3884174Y-1237732D01*
X3855603Y-1266303D01*
X3827031Y-1280589D01*
X4112746Y-1194874D02*
X4112746Y-1252017D01*
X4227031Y-1194874D02*
X4227031Y-1252017D01*
X4669888Y-1609160D02*
X4655603Y-1594874D01*
X4627031Y-1552017D01*
X4612746Y-1523446D01*
X4598460Y-1480589D01*
X4584174Y-1409160D01*
X4584174Y-1352017D01*
X4598460Y-1280589D01*
X4612746Y-1237732D01*
X4627031Y-1209160D01*
X4655603Y-1166303D01*
X4669888Y-1152017D01*
X4769888Y-1223446D02*
X4784174Y-1209160D01*
X4812746Y-1194874D01*
X4884174Y-1194874D01*
X4912746Y-1209160D01*
X4927031Y-1223446D01*
X4941317Y-1252017D01*
X4941317Y-1280589D01*
X4927031Y-1323446D01*
X4755603Y-1494874D01*
X4941317Y-1494874D01*
X5127031Y-1194874D02*
X5155603Y-1194874D01*
X5184174Y-1209160D01*
X5198460Y-1223446D01*
X5212746Y-1252017D01*
X5227031Y-1309160D01*
X5227031Y-1380589D01*
X5212746Y-1437731D01*
X5198460Y-1466303D01*
X5184174Y-1480589D01*
X5155603Y-1494874D01*
X5127031Y-1494874D01*
X5098460Y-1480589D01*
X5084174Y-1466303D01*
X5069888Y-1437731D01*
X5055603Y-1380589D01*
X5055603Y-1309160D01*
X5069888Y-1252017D01*
X5084174Y-1223446D01*
X5098460Y-1209160D01*
X5127031Y-1194874D01*
X5584174Y-1494874D02*
X5584174Y-1194874D01*
X5712745Y-1494874D02*
X5712745Y-1337732D01*
X5698460Y-1309160D01*
X5669888Y-1294874D01*
X5627031Y-1294874D01*
X5598460Y-1309160D01*
X5584174Y-1323446D01*
X5898460Y-1494874D02*
X5869888Y-1480589D01*
X5855603Y-1466303D01*
X5841317Y-1437731D01*
X5841317Y-1352017D01*
X5855603Y-1323446D01*
X5869888Y-1309160D01*
X5898460Y-1294874D01*
X5941317Y-1294874D01*
X5969888Y-1309160D01*
X5984174Y-1323446D01*
X5998460Y-1352017D01*
X5998460Y-1437731D01*
X5984174Y-1466303D01*
X5969888Y-1480589D01*
X5941317Y-1494874D01*
X5898460Y-1494874D01*
X6169888Y-1494874D02*
X6141317Y-1480589D01*
X6127031Y-1452017D01*
X6127031Y-1194874D01*
X6398460Y-1480589D02*
X6369888Y-1494874D01*
X6312746Y-1494874D01*
X6284174Y-1480589D01*
X6269888Y-1452017D01*
X6269888Y-1337732D01*
X6284174Y-1309160D01*
X6312746Y-1294874D01*
X6369888Y-1294874D01*
X6398460Y-1309160D01*
X6412746Y-1337732D01*
X6412746Y-1366303D01*
X6269888Y-1394874D01*
X6527031Y-1480589D02*
X6555603Y-1494874D01*
X6612746Y-1494874D01*
X6641317Y-1480589D01*
X6655603Y-1452017D01*
X6655603Y-1437731D01*
X6641317Y-1409160D01*
X6612746Y-1394874D01*
X6569888Y-1394874D01*
X6541317Y-1380589D01*
X6527031Y-1352017D01*
X6527031Y-1337732D01*
X6541317Y-1309160D01*
X6569888Y-1294874D01*
X6612746Y-1294874D01*
X6641317Y-1309160D01*
X6755603Y-1609160D02*
X6769888Y-1594874D01*
X6798460Y-1552017D01*
X6812746Y-1523446D01*
X6827031Y-1480589D01*
X6841317Y-1409160D01*
X6841317Y-1352017D01*
X6827031Y-1280589D01*
X6812746Y-1237732D01*
X6798460Y-1209160D01*
X6769888Y-1166303D01*
X6755603Y-1152017D01*
X-52340Y-1704360D02*
X-52340Y-1805960D01*
X-103140Y-1755160D02*
X-1540Y-1755160D01*
X427031Y-1890874D02*
X255603Y-1890874D01*
X341317Y-1890874D02*
X341317Y-1590874D01*
X312746Y-1633731D01*
X284174Y-1662303D01*
X255603Y-1676589D01*
X555603Y-1862303D02*
X569889Y-1876589D01*
X555603Y-1890874D01*
X541317Y-1876589D01*
X555603Y-1862303D01*
X555603Y-1890874D01*
X755603Y-1590874D02*
X784174Y-1590874D01*
X812746Y-1605160D01*
X827031Y-1619446D01*
X841317Y-1648017D01*
X855603Y-1705160D01*
X855603Y-1776589D01*
X841317Y-1833731D01*
X827031Y-1862303D01*
X812746Y-1876589D01*
X784174Y-1890874D01*
X755603Y-1890874D01*
X727031Y-1876589D01*
X712746Y-1862303D01*
X698460Y-1833731D01*
X684174Y-1776589D01*
X684174Y-1705160D01*
X698460Y-1648017D01*
X712746Y-1619446D01*
X727031Y-1605160D01*
X755603Y-1590874D01*
X969888Y-1619446D02*
X984174Y-1605160D01*
X1012746Y-1590874D01*
X1084174Y-1590874D01*
X1112746Y-1605160D01*
X1127031Y-1619446D01*
X1141317Y-1648017D01*
X1141317Y-1676589D01*
X1127031Y-1719446D01*
X955603Y-1890874D01*
X1141317Y-1890874D01*
X1269889Y-1890874D02*
X1269889Y-1690874D01*
X1269889Y-1719446D02*
X1284174Y-1705160D01*
X1312746Y-1690874D01*
X1355603Y-1690874D01*
X1384174Y-1705160D01*
X1398460Y-1733731D01*
X1398460Y-1890874D01*
X1398460Y-1733731D02*
X1412746Y-1705160D01*
X1441317Y-1690874D01*
X1484174Y-1690874D01*
X1512746Y-1705160D01*
X1527031Y-1733731D01*
X1527031Y-1890874D01*
X1669888Y-1890874D02*
X1669888Y-1690874D01*
X1669888Y-1719446D02*
X1684174Y-1705160D01*
X1712746Y-1690874D01*
X1755603Y-1690874D01*
X1784174Y-1705160D01*
X1798460Y-1733731D01*
X1798460Y-1890874D01*
X1798460Y-1733731D02*
X1812746Y-1705160D01*
X1841317Y-1690874D01*
X1884174Y-1690874D01*
X1912746Y-1705160D01*
X1927031Y-1733731D01*
X1927031Y-1890874D01*
X2512746Y-1576589D02*
X2255603Y-1962303D01*
X2898460Y-1590874D02*
X2927031Y-1590874D01*
X2955603Y-1605160D01*
X2969888Y-1619446D01*
X2984174Y-1648017D01*
X2998460Y-1705160D01*
X2998460Y-1776589D01*
X2984174Y-1833731D01*
X2969888Y-1862303D01*
X2955603Y-1876589D01*
X2927031Y-1890874D01*
X2898460Y-1890874D01*
X2869888Y-1876589D01*
X2855603Y-1862303D01*
X2841317Y-1833731D01*
X2827031Y-1776589D01*
X2827031Y-1705160D01*
X2841317Y-1648017D01*
X2855603Y-1619446D01*
X2869888Y-1605160D01*
X2898460Y-1590874D01*
X3127031Y-1862303D02*
X3141317Y-1876589D01*
X3127031Y-1890874D01*
X3112746Y-1876589D01*
X3127031Y-1862303D01*
X3127031Y-1890874D01*
X3327031Y-1590874D02*
X3355603Y-1590874D01*
X3384174Y-1605160D01*
X3398460Y-1619446D01*
X3412745Y-1648017D01*
X3427031Y-1705160D01*
X3427031Y-1776589D01*
X3412745Y-1833731D01*
X3398460Y-1862303D01*
X3384174Y-1876589D01*
X3355603Y-1890874D01*
X3327031Y-1890874D01*
X3298460Y-1876589D01*
X3284174Y-1862303D01*
X3269888Y-1833731D01*
X3255603Y-1776589D01*
X3255603Y-1705160D01*
X3269888Y-1648017D01*
X3284174Y-1619446D01*
X3298460Y-1605160D01*
X3327031Y-1590874D01*
X3684174Y-1690874D02*
X3684174Y-1890874D01*
X3612745Y-1576589D02*
X3541317Y-1790874D01*
X3727031Y-1790874D01*
X3898460Y-1590874D02*
X3927031Y-1590874D01*
X3955603Y-1605160D01*
X3969888Y-1619446D01*
X3984174Y-1648017D01*
X3998460Y-1705160D01*
X3998460Y-1776589D01*
X3984174Y-1833731D01*
X3969888Y-1862303D01*
X3955603Y-1876589D01*
X3927031Y-1890874D01*
X3898460Y-1890874D01*
X3869888Y-1876589D01*
X3855603Y-1862303D01*
X3841317Y-1833731D01*
X3827031Y-1776589D01*
X3827031Y-1705160D01*
X3841317Y-1648017D01*
X3855603Y-1619446D01*
X3869888Y-1605160D01*
X3898460Y-1590874D01*
X4112746Y-1590874D02*
X4112746Y-1648017D01*
X4227031Y-1590874D02*
X4227031Y-1648017D01*
X4669888Y-2005160D02*
X4655603Y-1990874D01*
X4627031Y-1948017D01*
X4612746Y-1919446D01*
X4598460Y-1876589D01*
X4584174Y-1805160D01*
X4584174Y-1748017D01*
X4598460Y-1676589D01*
X4612746Y-1633731D01*
X4627031Y-1605160D01*
X4655603Y-1562303D01*
X4669888Y-1548017D01*
X4769888Y-1619446D02*
X4784174Y-1605160D01*
X4812746Y-1590874D01*
X4884174Y-1590874D01*
X4912746Y-1605160D01*
X4927031Y-1619446D01*
X4941317Y-1648017D01*
X4941317Y-1676589D01*
X4927031Y-1719446D01*
X4755603Y-1890874D01*
X4941317Y-1890874D01*
X5112746Y-1719446D02*
X5084174Y-1705160D01*
X5069888Y-1690874D01*
X5055603Y-1662303D01*
X5055603Y-1648017D01*
X5069888Y-1619446D01*
X5084174Y-1605160D01*
X5112746Y-1590874D01*
X5169888Y-1590874D01*
X5198460Y-1605160D01*
X5212746Y-1619446D01*
X5227031Y-1648017D01*
X5227031Y-1662303D01*
X5212746Y-1690874D01*
X5198460Y-1705160D01*
X5169888Y-1719446D01*
X5112746Y-1719446D01*
X5084174Y-1733731D01*
X5069888Y-1748017D01*
X5055603Y-1776589D01*
X5055603Y-1833731D01*
X5069888Y-1862303D01*
X5084174Y-1876589D01*
X5112746Y-1890874D01*
X5169888Y-1890874D01*
X5198460Y-1876589D01*
X5212746Y-1862303D01*
X5227031Y-1833731D01*
X5227031Y-1776589D01*
X5212746Y-1748017D01*
X5198460Y-1733731D01*
X5169888Y-1719446D01*
X5584174Y-1890874D02*
X5584174Y-1590874D01*
X5712745Y-1890874D02*
X5712745Y-1733731D01*
X5698460Y-1705160D01*
X5669888Y-1690874D01*
X5627031Y-1690874D01*
X5598460Y-1705160D01*
X5584174Y-1719446D01*
X5898460Y-1890874D02*
X5869888Y-1876589D01*
X5855603Y-1862303D01*
X5841317Y-1833731D01*
X5841317Y-1748017D01*
X5855603Y-1719446D01*
X5869888Y-1705160D01*
X5898460Y-1690874D01*
X5941317Y-1690874D01*
X5969888Y-1705160D01*
X5984174Y-1719446D01*
X5998460Y-1748017D01*
X5998460Y-1833731D01*
X5984174Y-1862303D01*
X5969888Y-1876589D01*
X5941317Y-1890874D01*
X5898460Y-1890874D01*
X6169888Y-1890874D02*
X6141317Y-1876589D01*
X6127031Y-1848017D01*
X6127031Y-1590874D01*
X6398460Y-1876589D02*
X6369888Y-1890874D01*
X6312746Y-1890874D01*
X6284174Y-1876589D01*
X6269888Y-1848017D01*
X6269888Y-1733731D01*
X6284174Y-1705160D01*
X6312746Y-1690874D01*
X6369888Y-1690874D01*
X6398460Y-1705160D01*
X6412746Y-1733731D01*
X6412746Y-1762303D01*
X6269888Y-1790874D01*
X6527031Y-1876589D02*
X6555603Y-1890874D01*
X6612746Y-1890874D01*
X6641317Y-1876589D01*
X6655603Y-1848017D01*
X6655603Y-1833731D01*
X6641317Y-1805160D01*
X6612746Y-1790874D01*
X6569888Y-1790874D01*
X6541317Y-1776589D01*
X6527031Y-1748017D01*
X6527031Y-1733731D01*
X6541317Y-1705160D01*
X6569888Y-1690874D01*
X6612746Y-1690874D01*
X6641317Y-1705160D01*
X6755603Y-2005160D02*
X6769888Y-1990874D01*
X6798460Y-1948017D01*
X6812746Y-1919446D01*
X6827031Y-1876589D01*
X6841317Y-1805160D01*
X6841317Y-1748017D01*
X6827031Y-1676589D01*
X6812746Y-1633731D01*
X6798460Y-1605160D01*
X6769888Y-1562303D01*
X6755603Y-1548017D01*
M02*
