G04 #@! TF.FileFunction,Paste,Top*
%FSLAX46Y46*%
G04 Gerber Fmt 4.6, Leading zero omitted, Abs format (unit mm)*
G04 Created by KiCad (PCBNEW 4.0.2+dfsg1-stable) date Wed 18 Jan 2017 17:06:10 CET*
%MOMM*%
G01*
G04 APERTURE LIST*
%ADD10C,0.100000*%
%ADD11C,0.150000*%
%ADD12R,1.000000X4.600000*%
%ADD13R,1.600000X3.400000*%
%ADD14R,1.270000X0.558800*%
%ADD15R,0.558800X1.270000*%
%ADD16R,1.200000X0.550000*%
%ADD17R,0.740000X0.925000*%
%ADD18R,0.700000X0.900000*%
%ADD19R,0.800000X0.800000*%
%ADD20R,0.900000X0.700000*%
%ADD21R,1.500000X1.300000*%
%ADD22R,1.000000X1.800000*%
%ADD23R,1.200000X0.500000*%
%ADD24R,0.500000X1.200000*%
%ADD25R,1.700000X0.700000*%
G04 APERTURE END LIST*
D10*
D11*
X59600Y43400D02*
X26559600Y43400D01*
X26559600Y43400D02*
X26559600Y34043400D01*
X26559600Y34043400D02*
X59600Y34043400D01*
X59600Y34043400D02*
X59600Y43400D01*
D12*
X8203600Y26569400D03*
X10203600Y26569400D03*
D13*
X5803600Y31769400D03*
X12603600Y31769400D03*
D14*
X7537000Y16097400D03*
X7537000Y15297400D03*
X7537000Y14497400D03*
X7537000Y13697400D03*
X7537000Y12897400D03*
X7537000Y12097400D03*
X7537000Y11297400D03*
X7537000Y10497400D03*
D15*
X9029600Y9004800D03*
X9829600Y9004800D03*
X10629600Y9004800D03*
X11429600Y9004800D03*
X12229600Y9004800D03*
X13029600Y9004800D03*
X13829600Y9004800D03*
X14629600Y9004800D03*
D14*
X16122200Y10497400D03*
X16122200Y11297400D03*
X16122200Y12097400D03*
X16122200Y12897400D03*
X16122200Y13697400D03*
X16122200Y14497400D03*
X16122200Y15297400D03*
X16122200Y16097400D03*
D15*
X14629600Y17590000D03*
X13829600Y17590000D03*
X13029600Y17590000D03*
X12229600Y17590000D03*
X11429600Y17590000D03*
X10629600Y17590000D03*
X9829600Y17590000D03*
X9029600Y17590000D03*
D16*
X14761500Y24361400D03*
X14761500Y23411400D03*
X14761500Y22461400D03*
X17361700Y22461400D03*
X17361700Y24361400D03*
D17*
X5483600Y13665400D03*
X5483600Y14865400D03*
D18*
X13125600Y20617400D03*
X14425600Y20617400D03*
D19*
X25701600Y33063400D03*
X24201600Y33063400D03*
D20*
X18986500Y26274000D03*
X18986500Y27574000D03*
D19*
X25701600Y30244000D03*
X24201600Y30244000D03*
D20*
X22665600Y20475400D03*
X22665600Y21775400D03*
D21*
X12505600Y24361400D03*
X12505600Y22461400D03*
X19363600Y24361400D03*
X19363600Y22461400D03*
D18*
X14425600Y19347400D03*
X13125600Y19347400D03*
D22*
X17207600Y26713400D03*
X14407600Y26713400D03*
D19*
X25701600Y31666400D03*
X24201600Y31666400D03*
D20*
X20637500Y26274000D03*
X20637500Y27574000D03*
X18429600Y13447400D03*
X18429600Y12147400D03*
D23*
X22456600Y18665400D03*
X22456600Y17865400D03*
X22456600Y17065400D03*
X22456600Y16265400D03*
X22456600Y15465400D03*
X22456600Y14665400D03*
D24*
X21356600Y14565400D03*
D23*
X20256600Y14665400D03*
X20256600Y15465400D03*
X20256600Y16265400D03*
X20256600Y17065400D03*
X20256600Y17865400D03*
X20256600Y18665400D03*
D24*
X21356600Y18765400D03*
D18*
X21087600Y9284400D03*
X22387600Y9284400D03*
X21498600Y12635400D03*
X20198600Y12635400D03*
D25*
X5529600Y11235400D03*
X5529600Y10035400D03*
X5529600Y8835400D03*
D19*
X2230600Y7028400D03*
X3730600Y7028400D03*
D18*
X6424600Y7282400D03*
X5124600Y7282400D03*
M02*
