G04 #@! TF.FileFunction,Copper,L1,Top,Signal*
%FSLAX46Y46*%
G04 Gerber Fmt 4.6, Leading zero omitted, Abs format (unit mm)*
G04 Created by KiCad (PCBNEW 4.0.2+dfsg1-stable) date Tue 17 Jan 2017 16:40:36 CET*
%MOMM*%
G01*
G04 APERTURE LIST*
%ADD10C,0.100000*%
%ADD11C,0.150000*%
%ADD12R,1.000000X4.600000*%
%ADD13R,1.600000X3.400000*%
%ADD14R,1.270000X0.558800*%
%ADD15R,0.558800X1.270000*%
%ADD16C,1.270000*%
%ADD17R,1.200000X0.550000*%
%ADD18R,0.740000X0.925000*%
%ADD19R,0.700000X0.900000*%
%ADD20R,0.800000X0.800000*%
%ADD21R,0.900000X0.700000*%
%ADD22R,1.500000X1.300000*%
%ADD23R,1.000000X1.800000*%
%ADD24R,1.200000X0.500000*%
%ADD25R,0.500000X1.200000*%
%ADD26R,1.700000X0.700000*%
%ADD27C,1.625600*%
%ADD28O,1.800000X1.200000*%
%ADD29C,0.600000*%
%ADD30C,0.250000*%
%ADD31C,0.254000*%
%ADD32C,0.203200*%
G04 APERTURE END LIST*
D10*
D11*
X1666666Y0D02*
G75*
G03X1666666Y0I-1666666J0D01*
G01*
X-2500000Y0D02*
X2500000Y0D01*
X0Y2500000D02*
X0Y-2500000D01*
X59600Y43400D02*
X26559600Y43400D01*
X26559600Y43400D02*
X26559600Y34043400D01*
X26559600Y34043400D02*
X59600Y34043400D01*
X59600Y34043400D02*
X59600Y43400D01*
D12*
X8203600Y26569400D03*
X10203600Y26569400D03*
D13*
X5803600Y31769400D03*
X12603600Y31769400D03*
D14*
X7537000Y16097400D03*
X7537000Y15297400D03*
X7537000Y14497400D03*
X7537000Y13697400D03*
X7537000Y12897400D03*
X7537000Y12097400D03*
X7537000Y11297400D03*
X7537000Y10497400D03*
D15*
X9029600Y9004800D03*
X9829600Y9004800D03*
X10629600Y9004800D03*
X11429600Y9004800D03*
X12229600Y9004800D03*
X13029600Y9004800D03*
X13829600Y9004800D03*
X14629600Y9004800D03*
D14*
X16122200Y10497400D03*
X16122200Y11297400D03*
X16122200Y12097400D03*
X16122200Y12897400D03*
X16122200Y13697400D03*
X16122200Y14497400D03*
X16122200Y15297400D03*
X16122200Y16097400D03*
D15*
X14629600Y17590000D03*
X13829600Y17590000D03*
X13029600Y17590000D03*
X12229600Y17590000D03*
X11429600Y17590000D03*
X10629600Y17590000D03*
X9829600Y17590000D03*
X9029600Y17590000D03*
D16*
X2929600Y27537400D03*
X2929600Y25537400D03*
X2929600Y23537400D03*
X2929600Y21537400D03*
X2929600Y19537400D03*
X2929600Y17537400D03*
X2929600Y15537400D03*
X2929600Y13537400D03*
X2929600Y11537400D03*
X2929600Y9537400D03*
X24929600Y9537400D03*
X24929600Y11537400D03*
X24929600Y13537400D03*
X24929600Y15537400D03*
X24929600Y17537400D03*
X24929600Y19537400D03*
X24929600Y21537400D03*
X24929600Y23537400D03*
X24929600Y25537400D03*
X24929600Y27537400D03*
D17*
X14761500Y24361400D03*
X14761500Y23411400D03*
X14761500Y22461400D03*
X17361700Y22461400D03*
X17361700Y24361400D03*
D18*
X5483600Y13665400D03*
X5483600Y14865400D03*
D19*
X13125600Y20617400D03*
X14425600Y20617400D03*
D20*
X25701600Y33063400D03*
X24201600Y33063400D03*
D21*
X18986500Y26274000D03*
X18986500Y27574000D03*
D20*
X25701600Y30244000D03*
X24201600Y30244000D03*
D21*
X22665600Y20475400D03*
X22665600Y21775400D03*
D22*
X12505600Y24361400D03*
X12505600Y22461400D03*
X19363600Y24361400D03*
X19363600Y22461400D03*
D19*
X14425600Y19347400D03*
X13125600Y19347400D03*
D23*
X17207600Y26713400D03*
X14407600Y26713400D03*
D20*
X25701600Y31666400D03*
X24201600Y31666400D03*
D21*
X20637500Y26274000D03*
X20637500Y27574000D03*
X18429600Y13447400D03*
X18429600Y12147400D03*
D24*
X22456600Y18665400D03*
X22456600Y17865400D03*
X22456600Y17065400D03*
X22456600Y16265400D03*
X22456600Y15465400D03*
X22456600Y14665400D03*
D25*
X21356600Y14565400D03*
D24*
X20256600Y14665400D03*
X20256600Y15465400D03*
X20256600Y16265400D03*
X20256600Y17065400D03*
X20256600Y17865400D03*
X20256600Y18665400D03*
D25*
X21356600Y18765400D03*
D19*
X21087600Y9284400D03*
X22387600Y9284400D03*
X21498600Y12635400D03*
X20198600Y12635400D03*
D26*
X5529600Y11235400D03*
X5529600Y10035400D03*
X5529600Y8835400D03*
D27*
X1329600Y2075400D03*
X1329600Y4615400D03*
X3869600Y2075400D03*
X3869600Y4615400D03*
X6409600Y2075400D03*
X6409600Y4615400D03*
X8949600Y2075400D03*
X8949600Y4615400D03*
X11489600Y2075400D03*
X11489600Y4615400D03*
X14029600Y2075400D03*
X14029600Y4615400D03*
X16569600Y2075400D03*
X16569600Y4615400D03*
X19109600Y2075400D03*
X19109600Y4615400D03*
X21649600Y2075400D03*
X21649600Y4615400D03*
X24189600Y2075400D03*
X24189600Y4615400D03*
X11489600Y19855400D03*
X6409600Y19855400D03*
X6409600Y22395400D03*
X24189600Y7155400D03*
X19109600Y9695400D03*
X8949600Y22395400D03*
X8949600Y19855400D03*
X16569600Y7155400D03*
D20*
X2230600Y7028400D03*
X3730600Y7028400D03*
D19*
X6424600Y7282400D03*
X5124600Y7282400D03*
D28*
X21169000Y29655500D03*
X18669000Y29655500D03*
X16169000Y29655500D03*
X21169000Y32955500D03*
X18669000Y32955500D03*
X16169000Y32955500D03*
D29*
X22529800Y24498300D03*
X12124600Y12362400D03*
X5524500Y17487900D03*
X6184900Y15443200D03*
X18605500Y11049000D03*
X8255000Y29781500D03*
X18923000Y17208500D03*
X25590500Y29019500D03*
X20764500Y22733000D03*
X17462500Y21209000D03*
X11290300Y10388600D03*
X7581900Y7150100D03*
X21395600Y10584400D03*
X698500Y6731000D03*
X2159000Y8382000D03*
X15553600Y20363400D03*
X5520600Y12616400D03*
X18855600Y19347400D03*
X12065000Y27051000D03*
X3683000Y10541000D03*
X10490200Y11696700D03*
X14389100Y13246100D03*
X23050500Y11747500D03*
X17966600Y14648400D03*
X16061600Y17315400D03*
X22098000Y7937500D03*
X21399500Y7239000D03*
X14554200Y14833600D03*
X13792200Y15049500D03*
X11743600Y15918400D03*
X23046600Y13124400D03*
X1968500Y5969000D03*
X18161000Y25400000D03*
X6921500Y24955500D03*
X18923000Y18288000D03*
X20383500Y19621500D03*
X17081500Y8826500D03*
X17335500Y10096500D03*
X9715500Y10350500D03*
D30*
X22479000Y25031700D02*
X22479000Y24549100D01*
X22479000Y24549100D02*
X22529800Y24498300D01*
X16122200Y13697400D02*
X15577000Y13697400D01*
X15577000Y13697400D02*
X14973300Y13093700D01*
X12460100Y12026900D02*
X12124600Y12362400D01*
X14630400Y12026900D02*
X12460100Y12026900D01*
X14973300Y12369800D02*
X14630400Y12026900D01*
X14973300Y13093700D02*
X14973300Y12369800D01*
X5483600Y14865400D02*
X5607100Y14865400D01*
X5607100Y14865400D02*
X6184900Y15443200D01*
X1329600Y4615400D02*
X1329600Y6663600D01*
X1694400Y7028400D02*
X2230600Y7028400D01*
X1329600Y6663600D02*
X1694400Y7028400D01*
X1329600Y4615400D02*
X1329600Y5274400D01*
X2929600Y9537400D02*
X2929600Y7727400D01*
X2929600Y7727400D02*
X2230600Y7028400D01*
X5529600Y10035400D02*
X4447400Y10035400D01*
X3949400Y9537400D02*
X2929600Y9537400D01*
X4447400Y10035400D02*
X3949400Y9537400D01*
X5529600Y10035400D02*
X4616402Y10035400D01*
X4959400Y14865400D02*
X5483600Y14865400D01*
X4301302Y14207302D02*
X4959400Y14865400D01*
X4301302Y10350500D02*
X4301302Y14207302D01*
X4616402Y10035400D02*
X4301302Y10350500D01*
X19001100Y13447400D02*
X19367500Y13081000D01*
X19367500Y13081000D02*
X19367500Y11366500D01*
X19367500Y11366500D02*
X19050000Y11049000D01*
X19050000Y11049000D02*
X18605500Y11049000D01*
X18429600Y13447400D02*
X19001100Y13447400D01*
X8203600Y26569400D02*
X8203600Y29730100D01*
X8203600Y29730100D02*
X8255000Y29781500D01*
X20256600Y17065400D02*
X19066100Y17065400D01*
X19066100Y17065400D02*
X18923000Y17208500D01*
X25701600Y33063400D02*
X25701600Y31666400D01*
X25701600Y30244000D02*
X25701600Y31666400D01*
X19363600Y22461400D02*
X20492900Y22461400D01*
X25701600Y29130600D02*
X25701600Y30244000D01*
X25590500Y29019500D02*
X25701600Y29130600D01*
X20492900Y22461400D02*
X20764500Y22733000D01*
X2929600Y9537400D02*
X2929600Y9643400D01*
X2929600Y9643400D02*
X1905000Y10668000D01*
X6413500Y29464000D02*
X8203600Y27673900D01*
X4508500Y29464000D02*
X6413500Y29464000D01*
X4000500Y28956000D02*
X4508500Y29464000D01*
X2603500Y28956000D02*
X4000500Y28956000D01*
X1905000Y28257500D02*
X2603500Y28956000D01*
X1905000Y10668000D02*
X1905000Y28257500D01*
X8203600Y27673900D02*
X8203600Y26569400D01*
X5483600Y14865400D02*
X5149900Y14865400D01*
X7537000Y14497400D02*
X6711600Y14497400D01*
X6343600Y14865400D02*
X5483600Y14865400D01*
X6711600Y14497400D02*
X6343600Y14865400D01*
X7537000Y14497400D02*
X8426100Y14497400D01*
X8388900Y12897400D02*
X7537000Y12897400D01*
X8646798Y13155298D02*
X8388900Y12897400D01*
X8646798Y14276702D02*
X8646798Y13155298D01*
X8426100Y14497400D02*
X8646798Y14276702D01*
X18429600Y13447400D02*
X17540600Y13447400D01*
X17290600Y13697400D02*
X16122200Y13697400D01*
X17540600Y13447400D02*
X17290600Y13697400D01*
X17462500Y21209000D02*
X17462500Y21590000D01*
X19363600Y22221100D02*
X18732500Y21590000D01*
X18732500Y21590000D02*
X17462500Y21590000D01*
X13377000Y21590000D02*
X12505600Y22461400D01*
X17462500Y21590000D02*
X13377000Y21590000D01*
X14761500Y23411400D02*
X14013400Y23411400D01*
X14013400Y23411400D02*
X13063400Y22461400D01*
X13063400Y22461400D02*
X12505600Y22461400D01*
X8949600Y22395400D02*
X12439600Y22395400D01*
X12439600Y22395400D02*
X12505600Y22461400D01*
X8949600Y22395400D02*
X8949600Y23308400D01*
X8203600Y24054400D02*
X8203600Y26569400D01*
X8949600Y23308400D02*
X8203600Y24054400D01*
D31*
X20256600Y16265400D02*
X20256600Y17065400D01*
X20256600Y15465400D02*
X20256600Y16265400D01*
X20256600Y17065400D02*
X22456600Y17065400D01*
D32*
X22456600Y17065400D02*
X22456600Y17865400D01*
D31*
X20256600Y15465400D02*
X20688600Y15465400D01*
X20688600Y15465400D02*
X20760600Y15537400D01*
X20760600Y15537400D02*
X20887600Y15537400D01*
X20887600Y15537400D02*
X21014600Y15664400D01*
X21014600Y15664400D02*
X21776600Y15664400D01*
X21776600Y15664400D02*
X21903600Y15537400D01*
X21903600Y15537400D02*
X22384600Y15537400D01*
X22384600Y15537400D02*
X22456600Y15465400D01*
X7513000Y14521400D02*
X7537000Y14497400D01*
X12505600Y22461400D02*
X13079600Y22461400D01*
X14761500Y23411400D02*
X14634500Y23284400D01*
D30*
X16122200Y11297400D02*
X15526500Y11297400D01*
X15526500Y11297400D02*
X14554200Y10325100D01*
X14554200Y10325100D02*
X11366500Y10325100D01*
X11366500Y10325100D02*
X11303000Y10388600D01*
X11303000Y10388600D02*
X11290300Y10388600D01*
X2683200Y3429000D02*
X1329600Y2075400D01*
X4533900Y3429000D02*
X2683200Y3429000D01*
X5118100Y4013200D02*
X4533900Y3429000D01*
X5118100Y5549900D02*
X5118100Y4013200D01*
X6045200Y6477000D02*
X5118100Y5549900D01*
X6908800Y6477000D02*
X6045200Y6477000D01*
X7581900Y7150100D02*
X6908800Y6477000D01*
X698500Y6731000D02*
X2159000Y8191500D01*
X2159000Y8191500D02*
X2159000Y8382000D01*
X19363600Y24361400D02*
X19535400Y24361400D01*
X19535400Y24361400D02*
X20637500Y25463500D01*
X20637500Y25463500D02*
X20637500Y26274000D01*
X7537000Y13697400D02*
X5515600Y13697400D01*
X5515600Y13697400D02*
X5483600Y13665400D01*
D31*
X21356600Y18765400D02*
X22356600Y18765400D01*
D32*
X22356600Y18765400D02*
X22456600Y18665400D01*
X22456600Y18665400D02*
X22556600Y18765400D01*
D31*
X7455000Y13615400D02*
X7537000Y13697400D01*
X7526000Y12108400D02*
X7537000Y12097400D01*
X19363600Y24361400D02*
X17361700Y24361400D01*
X20572600Y24361400D02*
X19363600Y24361400D01*
X21395600Y23538400D02*
X20572600Y24361400D01*
X21395600Y20363400D02*
X21395600Y18804400D01*
X21395600Y20363400D02*
X21395600Y23538400D01*
X21395600Y18804400D02*
X21356600Y18765400D01*
X5520600Y12616400D02*
X5520600Y13578400D01*
X5520600Y13578400D02*
X5483600Y13665400D01*
X5901600Y12108400D02*
X7526000Y12108400D01*
X5520600Y12616400D02*
X5901600Y12108400D01*
X15553600Y20363400D02*
X21395600Y20363400D01*
X23190600Y14665400D02*
X22456600Y14665400D01*
X23427600Y14902400D02*
X23190600Y14665400D01*
X23427600Y15918400D02*
X23427600Y14902400D01*
X23173600Y16172400D02*
X23427600Y15918400D01*
X23173600Y16172400D02*
X22549600Y16172400D01*
X22549600Y16172400D02*
X22456600Y16265400D01*
X22456600Y18665400D02*
X22966600Y18665400D01*
X22966600Y18665400D02*
X23427600Y18204400D01*
X23427600Y18204400D02*
X23427600Y16426400D01*
X23427600Y16426400D02*
X23173600Y16172400D01*
X21522600Y12611400D02*
X21498600Y12635400D01*
X15299600Y20617400D02*
X14425600Y20617400D01*
X15553600Y20363400D02*
X15299600Y20617400D01*
X21087600Y10276400D02*
X21087600Y9284400D01*
X21395600Y10584400D02*
X21087600Y10276400D01*
X21522600Y10711400D02*
X21522600Y12611400D01*
X21395600Y10584400D02*
X21522600Y10711400D01*
X14407600Y26263400D02*
X14407600Y26713400D01*
X12505600Y24361400D02*
X14407600Y26263400D01*
X15492600Y22461400D02*
X14761500Y22461400D01*
X15807600Y22776400D02*
X15492600Y22461400D01*
X15807600Y24046400D02*
X15807600Y22776400D01*
X15553600Y24300400D02*
X15807600Y24046400D01*
X14822500Y24300400D02*
X15553600Y24300400D01*
X14761500Y24361400D02*
X14822500Y24300400D01*
X14761500Y26359500D02*
X14761500Y24361400D01*
X14407600Y26713400D02*
X14761500Y26359500D01*
X14425600Y19347400D02*
X18855600Y19347400D01*
X11429600Y17590000D02*
X11429600Y19795400D01*
X11429600Y19795400D02*
X11489600Y19855400D01*
X11997600Y19347400D02*
X13125600Y19347400D01*
X11489600Y19855400D02*
X11997600Y19347400D01*
X12251600Y20617400D02*
X13125600Y20617400D01*
X11489600Y19855400D02*
X12251600Y20617400D01*
X18429600Y12147400D02*
X17879600Y12147400D01*
X17129600Y12897400D02*
X16122200Y12897400D01*
X17879600Y12147400D02*
X17129600Y12897400D01*
D30*
X10203600Y26569400D02*
X11583400Y26569400D01*
X11583400Y26569400D02*
X12065000Y27051000D01*
X16169000Y29655500D02*
X16169000Y27752000D01*
X16169000Y27752000D02*
X17207600Y26713400D01*
X3683000Y10541000D02*
X3873500Y10731500D01*
X3873500Y10731500D02*
X3873500Y14795500D01*
X3873500Y14795500D02*
X5175400Y16097400D01*
X5175400Y16097400D02*
X7537000Y16097400D01*
D31*
X7485000Y16045400D02*
X7537000Y16097400D01*
X6409600Y7155400D02*
X6663600Y7409400D01*
X6663600Y7409400D02*
X6663600Y8044400D01*
X6663600Y8044400D02*
X9076600Y10457400D01*
X9076600Y10457400D02*
X9076600Y15156400D01*
X9076600Y15156400D02*
X7678000Y15156400D01*
X7678000Y15156400D02*
X7537000Y15297400D01*
X6663600Y7409400D02*
X6409600Y7409400D01*
X6409600Y7155400D02*
X6409600Y7409400D01*
X7537000Y11297400D02*
X5591600Y11297400D01*
X5591600Y11297400D02*
X5529600Y11235400D01*
X7537000Y9933800D02*
X7537000Y10497400D01*
X6409600Y8806400D02*
X7537000Y9933800D01*
X5558600Y8806400D02*
X6409600Y8806400D01*
X5529600Y8835400D02*
X5558600Y8806400D01*
X9029600Y7235400D02*
X9029600Y9004800D01*
X6409600Y4615400D02*
X9029600Y7235400D01*
X9829600Y7273400D02*
X9829600Y9004800D01*
X7679600Y5123400D02*
X9829600Y7273400D01*
X7679600Y3345400D02*
X7679600Y5123400D01*
X8949600Y2075400D02*
X7679600Y3345400D01*
D30*
X10629600Y9004800D02*
X10629600Y11557300D01*
X10629600Y11557300D02*
X10490200Y11696700D01*
D31*
X11429600Y6333400D02*
X11429600Y9004800D01*
X10219600Y5123400D02*
X11429600Y6333400D01*
X10219600Y3345400D02*
X10219600Y5123400D01*
X11489600Y2075400D02*
X10219600Y3345400D01*
X12229600Y5355400D02*
X12229600Y9004800D01*
X11489600Y4615400D02*
X12229600Y5355400D01*
X13029600Y5647400D02*
X13029600Y9004800D01*
X12759600Y5377400D02*
X13029600Y5647400D01*
X12759600Y3345400D02*
X12759600Y5377400D01*
X14029600Y2075400D02*
X12759600Y3345400D01*
D30*
X16569600Y7155400D02*
X14371100Y7155400D01*
X14371100Y7155400D02*
X13829600Y7696900D01*
D31*
X13829600Y4815400D02*
X13829600Y7696900D01*
X13829600Y7696900D02*
X13829600Y9004800D01*
X14029600Y4615400D02*
X13829600Y4815400D01*
X17215600Y12097400D02*
X16122200Y12097400D01*
X17966600Y11346400D02*
X17215600Y12097400D01*
X17966600Y6012400D02*
X17966600Y11346400D01*
X16569600Y4615400D02*
X17966600Y6012400D01*
D30*
X16122200Y14497400D02*
X15437200Y14497400D01*
X14389100Y13449300D02*
X14389100Y13246100D01*
X15437200Y14497400D02*
X14389100Y13449300D01*
D31*
X16098200Y14521400D02*
X16122200Y14497400D01*
D30*
X23681600Y9314400D02*
X23681600Y11116400D01*
D31*
X25459600Y7536400D02*
X23681600Y9314400D01*
X25459600Y5377400D02*
X25459600Y7536400D01*
X24697600Y4615400D02*
X25459600Y5377400D01*
D30*
X23681600Y11116400D02*
X23050500Y11747500D01*
D31*
X17966600Y14648400D02*
X17331600Y15283400D01*
X17331600Y15283400D02*
X16136200Y15283400D01*
X16136200Y15283400D02*
X16122200Y15297400D01*
X24189600Y4615400D02*
X24697600Y4615400D01*
X16061600Y16158000D02*
X16061600Y17315400D01*
D30*
X22923500Y3341500D02*
X24189600Y2075400D01*
X22923500Y5334000D02*
X22923500Y3341500D01*
X22288500Y5969000D02*
X22923500Y5334000D01*
X22288500Y7747000D02*
X22288500Y5969000D01*
X22098000Y7937500D02*
X22288500Y7747000D01*
D31*
X16061600Y16158000D02*
X16122200Y16097400D01*
D30*
X21649600Y6988900D02*
X21399500Y7239000D01*
X21649600Y4615400D02*
X21649600Y6988900D01*
X14629600Y14909000D02*
X14629600Y17590000D01*
X14554200Y14833600D02*
X14629600Y14909000D01*
X13829600Y15086900D02*
X13829600Y17590000D01*
X13792200Y15049500D02*
X13829600Y15086900D01*
X13843000Y17576600D02*
X13829600Y17590000D01*
D31*
X20252600Y14661400D02*
X20256600Y14665400D01*
X13267600Y18585400D02*
X13013600Y18331400D01*
X13013600Y18331400D02*
X13013600Y17606000D01*
X13013600Y17606000D02*
X13029600Y17590000D01*
X20252600Y12689400D02*
X20252600Y14661400D01*
X20198600Y12635400D02*
X20252600Y12689400D01*
X20256600Y14665400D02*
X19219600Y14665400D01*
X19219600Y14665400D02*
X17331600Y16553400D01*
X17331600Y16553400D02*
X17331600Y17823400D01*
X17331600Y17823400D02*
X16569600Y18585400D01*
X16569600Y18585400D02*
X13267600Y18585400D01*
X19109600Y4615400D02*
X19109600Y6647400D01*
X19109600Y6647400D02*
X20379600Y7917400D01*
X20379600Y7917400D02*
X20379600Y12454400D01*
X20379600Y12454400D02*
X20198600Y12635400D01*
X20379600Y7276400D02*
X22387600Y9284400D01*
X12229600Y16404400D02*
X12229600Y17590000D01*
X11743600Y15918400D02*
X12229600Y16404400D01*
X23046600Y13124400D02*
X23046600Y13505400D01*
X23046600Y13505400D02*
X21776600Y13505400D01*
X21776600Y13505400D02*
X21395600Y13886400D01*
X21395600Y13886400D02*
X21395600Y14526400D01*
X21395600Y14526400D02*
X21356600Y14565400D01*
X22387600Y12465400D02*
X23046600Y13124400D01*
X19109600Y2075400D02*
X20379600Y3345400D01*
X20379600Y3345400D02*
X20379600Y7276400D01*
X22387600Y9284400D02*
X22387600Y12465400D01*
D30*
X1968500Y5969000D02*
X3322100Y4615400D01*
X3322100Y4615400D02*
X3869600Y4615400D01*
D31*
X10219600Y21125400D02*
X10219600Y19093400D01*
X10219600Y19093400D02*
X10629600Y18683400D01*
X10629600Y18683400D02*
X10629600Y17590000D01*
X7679600Y21125400D02*
X10219600Y21125400D01*
X6409600Y22395400D02*
X7679600Y21125400D01*
X9829600Y18585400D02*
X9829600Y17590000D01*
X6409600Y19855400D02*
X6409600Y18585400D01*
X6409600Y18585400D02*
X9829600Y18585400D01*
D30*
X20637500Y27574000D02*
X20716000Y27574000D01*
X20716000Y27574000D02*
X22542500Y29400500D01*
X22542500Y29400500D02*
X22542500Y30289500D01*
X22542500Y30289500D02*
X23919400Y31666400D01*
X23919400Y31666400D02*
X24201600Y31666400D01*
D31*
X24201600Y31666400D02*
X24189600Y31666400D01*
D30*
X18986500Y26274000D02*
X18986500Y26225500D01*
X18986500Y26225500D02*
X18161000Y25400000D01*
X5080000Y19687800D02*
X2929600Y17537400D01*
X5080000Y23114000D02*
X5080000Y19687800D01*
X6921500Y24955500D02*
X5080000Y23114000D01*
X18986500Y27574000D02*
X18986500Y27749500D01*
X18986500Y27749500D02*
X19939000Y28702000D01*
X19939000Y28702000D02*
X19939000Y30226000D01*
X19939000Y30226000D02*
X21653500Y31940500D01*
X21653500Y31940500D02*
X22415500Y31940500D01*
X22415500Y31940500D02*
X23538400Y33063400D01*
X23538400Y33063400D02*
X24201600Y33063400D01*
D31*
X22665600Y20363400D02*
X22665600Y20475400D01*
X23681600Y19347400D02*
X22665600Y20363400D01*
X23681600Y18785400D02*
X23681600Y19347400D01*
X24929600Y17537400D02*
X23681600Y18785400D01*
X22665600Y21887400D02*
X22665600Y22230300D01*
X22665600Y22230300D02*
X23935600Y23500300D01*
X23935600Y23500300D02*
X23935600Y30015400D01*
X23935600Y30015400D02*
X24189600Y30269400D01*
X24189600Y30269400D02*
X24189600Y30142400D01*
X3996600Y7282400D02*
X5012600Y7282400D01*
X3742600Y7028400D02*
X3996600Y7282400D01*
D30*
X20256600Y17865400D02*
X19345600Y17865400D01*
X19345600Y17865400D02*
X18923000Y18288000D01*
X20256600Y18665400D02*
X20256600Y19494600D01*
X20256600Y19494600D02*
X20383500Y19621500D01*
X14629600Y9004800D02*
X16903200Y9004800D01*
X16903200Y9004800D02*
X17081500Y8826500D01*
X16934600Y10497400D02*
X16122200Y10497400D01*
X17335500Y10096500D02*
X16934600Y10497400D01*
X9029600Y17590000D02*
X9029600Y16052900D01*
X9715500Y15367000D02*
X9715500Y10350500D01*
X9029600Y16052900D02*
X9715500Y15367000D01*
D31*
X9009000Y17569400D02*
X9029600Y17590000D01*
D32*
G36*
X1379098Y4629542D02*
X1364955Y4615400D01*
X1379098Y4601258D01*
X1343742Y4565902D01*
X1329600Y4580045D01*
X1315458Y4565902D01*
X1280102Y4601258D01*
X1294245Y4615400D01*
X1280102Y4629542D01*
X1315458Y4664898D01*
X1329600Y4650755D01*
X1343742Y4664898D01*
X1379098Y4629542D01*
X1379098Y4629542D01*
G37*
X1379098Y4629542D02*
X1364955Y4615400D01*
X1379098Y4601258D01*
X1343742Y4565902D01*
X1329600Y4580045D01*
X1315458Y4565902D01*
X1280102Y4601258D01*
X1294245Y4615400D01*
X1280102Y4629542D01*
X1315458Y4664898D01*
X1329600Y4650755D01*
X1343742Y4664898D01*
X1379098Y4629542D01*
G36*
X2255600Y7053400D02*
X2275600Y7053400D01*
X2275600Y7003400D01*
X2255600Y7003400D01*
X2255600Y6983400D01*
X2205600Y6983400D01*
X2205600Y7003400D01*
X2185600Y7003400D01*
X2185600Y7053400D01*
X2205600Y7053400D01*
X2205600Y7073400D01*
X2255600Y7073400D01*
X2255600Y7053400D01*
X2255600Y7053400D01*
G37*
X2255600Y7053400D02*
X2275600Y7053400D01*
X2275600Y7003400D01*
X2255600Y7003400D01*
X2255600Y6983400D01*
X2205600Y6983400D01*
X2205600Y7003400D01*
X2185600Y7003400D01*
X2185600Y7053400D01*
X2205600Y7053400D01*
X2205600Y7073400D01*
X2255600Y7073400D01*
X2255600Y7053400D01*
G36*
X11191051Y30069400D02*
X11198792Y29972324D01*
X11249782Y29807671D01*
X11344624Y29663743D01*
X11475808Y29551936D01*
X11632948Y29481102D01*
X11803600Y29456851D01*
X13403600Y29456851D01*
X13500676Y29464592D01*
X13665329Y29515582D01*
X13809257Y29610424D01*
X13921064Y29741608D01*
X13991898Y29898748D01*
X14016149Y30069400D01*
X14016149Y33358800D01*
X14726353Y33358800D01*
X14676802Y33198724D01*
X14652125Y32963945D01*
X14673521Y32728844D01*
X14740174Y32502376D01*
X14849546Y32293168D01*
X14997470Y32109187D01*
X15178312Y31957443D01*
X15385184Y31843714D01*
X15610206Y31772333D01*
X15844807Y31746018D01*
X15861696Y31745900D01*
X16476304Y31745900D01*
X16711250Y31768937D01*
X16937247Y31837169D01*
X17145686Y31947998D01*
X17328630Y32097203D01*
X17419140Y32206611D01*
X17497470Y32109187D01*
X17678312Y31957443D01*
X17885184Y31843714D01*
X18110206Y31772333D01*
X18344807Y31746018D01*
X18361696Y31745900D01*
X18976304Y31745900D01*
X19211250Y31768937D01*
X19437247Y31837169D01*
X19645686Y31947998D01*
X19828630Y32097203D01*
X19919140Y32206611D01*
X19997470Y32109187D01*
X20178312Y31957443D01*
X20385184Y31843714D01*
X20485887Y31811769D01*
X19444152Y30770034D01*
X19227794Y30838667D01*
X18993193Y30864982D01*
X18976304Y30865100D01*
X18361696Y30865100D01*
X18126750Y30842063D01*
X17900753Y30773831D01*
X17692314Y30663002D01*
X17509370Y30513797D01*
X17418860Y30404389D01*
X17340530Y30501813D01*
X17159688Y30653557D01*
X16952816Y30767286D01*
X16727794Y30838667D01*
X16493193Y30864982D01*
X16476304Y30865100D01*
X15861696Y30865100D01*
X15626750Y30842063D01*
X15400753Y30773831D01*
X15192314Y30663002D01*
X15009370Y30513797D01*
X14858892Y30331900D01*
X14746610Y30124239D01*
X14676802Y29898724D01*
X14652125Y29663945D01*
X14673521Y29428844D01*
X14740174Y29202376D01*
X14849546Y28993168D01*
X14997470Y28809187D01*
X15178312Y28657443D01*
X15385184Y28543714D01*
X15434400Y28528102D01*
X15434400Y27916130D01*
X15366576Y28019057D01*
X15235392Y28130864D01*
X15078252Y28201698D01*
X14907600Y28225949D01*
X13907600Y28225949D01*
X13810524Y28218208D01*
X13645871Y28167218D01*
X13501943Y28072376D01*
X13390136Y27941192D01*
X13319302Y27784052D01*
X13295051Y27613400D01*
X13295051Y26192561D01*
X12726439Y25623949D01*
X11755600Y25623949D01*
X11658524Y25616208D01*
X11493871Y25565218D01*
X11349943Y25470376D01*
X11316149Y25430725D01*
X11316149Y25834800D01*
X11583400Y25834800D01*
X11650957Y25841424D01*
X11718530Y25847336D01*
X11722236Y25848413D01*
X11726085Y25848790D01*
X11791087Y25868415D01*
X11856207Y25887334D01*
X11859636Y25889112D01*
X11863334Y25890228D01*
X11923252Y25922087D01*
X11983492Y25953313D01*
X11986510Y25955723D01*
X11989921Y25957536D01*
X12042505Y26000422D01*
X12095537Y26042757D01*
X12100916Y26048061D01*
X12101024Y26048149D01*
X12101106Y26048249D01*
X12102841Y26049959D01*
X12204874Y26151992D01*
X12310793Y26170668D01*
X12477103Y26235176D01*
X12627715Y26330757D01*
X12756894Y26453773D01*
X12859719Y26599537D01*
X12932274Y26762496D01*
X12971794Y26936445D01*
X12974639Y27140191D01*
X12939991Y27315175D01*
X12872015Y27480097D01*
X12773300Y27628675D01*
X12647606Y27755250D01*
X12499721Y27855000D01*
X12335277Y27924125D01*
X12160539Y27959994D01*
X11982162Y27961239D01*
X11806940Y27927814D01*
X11641547Y27860991D01*
X11492283Y27763316D01*
X11364835Y27638509D01*
X11316149Y27567405D01*
X11316149Y28869400D01*
X11308408Y28966476D01*
X11257418Y29131129D01*
X11162576Y29275057D01*
X11031392Y29386864D01*
X10874252Y29457698D01*
X10703600Y29481949D01*
X9703600Y29481949D01*
X9606524Y29474208D01*
X9441871Y29423218D01*
X9297943Y29328376D01*
X9186136Y29197192D01*
X9115302Y29040052D01*
X9091051Y28869400D01*
X9091051Y24269400D01*
X9098792Y24172324D01*
X9149782Y24007671D01*
X9244624Y23863743D01*
X9375808Y23751936D01*
X9532948Y23681102D01*
X9703600Y23656851D01*
X10703600Y23656851D01*
X10800676Y23664592D01*
X10965329Y23715582D01*
X11109257Y23810424D01*
X11143051Y23850075D01*
X11143051Y23711400D01*
X11150792Y23614324D01*
X11201782Y23449671D01*
X11296624Y23305743D01*
X11412809Y23206719D01*
X11400800Y23146345D01*
X11400800Y22575100D01*
X11489500Y22486400D01*
X12480600Y22486400D01*
X12480600Y22506400D01*
X12530600Y22506400D01*
X12530600Y22486400D01*
X12550600Y22486400D01*
X12550600Y22436400D01*
X12530600Y22436400D01*
X12530600Y22416400D01*
X12480600Y22416400D01*
X12480600Y22436400D01*
X11489500Y22436400D01*
X11400800Y22347700D01*
X11400800Y21776455D01*
X11414435Y21707908D01*
X11441180Y21643339D01*
X11480009Y21585228D01*
X11529428Y21535809D01*
X11587539Y21496980D01*
X11652109Y21470235D01*
X11720655Y21456600D01*
X12310474Y21456600D01*
X12258136Y21395192D01*
X12239012Y21352766D01*
X12183918Y21347364D01*
X12116102Y21341431D01*
X12112381Y21340350D01*
X12108527Y21339972D01*
X12043395Y21320307D01*
X11978051Y21301323D01*
X11974613Y21299541D01*
X11970904Y21298421D01*
X11910827Y21266477D01*
X11850419Y21235165D01*
X11848714Y21233804D01*
X11639001Y21276852D01*
X11360060Y21278800D01*
X11086054Y21226530D01*
X10951610Y21172211D01*
X10949434Y21194405D01*
X10943153Y21263425D01*
X10942424Y21265901D01*
X10942172Y21268473D01*
X10922132Y21334847D01*
X10902564Y21401335D01*
X10901367Y21403624D01*
X10900621Y21406096D01*
X10868088Y21467282D01*
X10835961Y21528735D01*
X10834342Y21530749D01*
X10833130Y21533028D01*
X10789324Y21586740D01*
X10745881Y21640772D01*
X10743903Y21642432D01*
X10742270Y21644434D01*
X10688893Y21688591D01*
X10635755Y21733179D01*
X10633488Y21734425D01*
X10631501Y21736069D01*
X10570601Y21768997D01*
X10509778Y21802435D01*
X10507314Y21803217D01*
X10505044Y21804444D01*
X10438898Y21824920D01*
X10372748Y21845904D01*
X10370178Y21846192D01*
X10367714Y21846955D01*
X10298812Y21854197D01*
X10229885Y21861928D01*
X10224925Y21861963D01*
X10224742Y21861982D01*
X10224558Y21861965D01*
X10219600Y21862000D01*
X9989033Y21862000D01*
X10025304Y21927022D01*
X10096010Y22145881D01*
X10122661Y22374329D01*
X10104232Y22603586D01*
X10041430Y22824844D01*
X9936671Y23029598D01*
X9913259Y23064638D01*
X9733967Y23144411D01*
X8984955Y22395400D01*
X8999098Y22381258D01*
X8963742Y22345902D01*
X8949600Y22360045D01*
X8935458Y22345902D01*
X8900102Y22381258D01*
X8914245Y22395400D01*
X8165233Y23144411D01*
X7985941Y23064638D01*
X7873896Y22863778D01*
X7807580Y22658509D01*
X7777880Y22808508D01*
X7671581Y23066407D01*
X7596265Y23179767D01*
X8200589Y23179767D01*
X8949600Y22430755D01*
X9698611Y23179767D01*
X9618838Y23359059D01*
X9417978Y23471104D01*
X9199119Y23541810D01*
X8970671Y23568461D01*
X8741414Y23550032D01*
X8520156Y23487230D01*
X8315402Y23382471D01*
X8280362Y23359059D01*
X8200589Y23179767D01*
X7596265Y23179767D01*
X7517214Y23298748D01*
X7320659Y23496681D01*
X7089401Y23652666D01*
X6832250Y23760762D01*
X6776987Y23772106D01*
X7061373Y24056492D01*
X7167293Y24075168D01*
X7333603Y24139676D01*
X7365038Y24159625D01*
X7389180Y24101339D01*
X7428009Y24043228D01*
X7477428Y23993809D01*
X7535539Y23954980D01*
X7600108Y23928235D01*
X7668655Y23914600D01*
X8089900Y23914600D01*
X8178600Y24003300D01*
X8178600Y26544400D01*
X8228600Y26544400D01*
X8228600Y24003300D01*
X8317300Y23914600D01*
X8738545Y23914600D01*
X8807092Y23928235D01*
X8871661Y23954980D01*
X8929772Y23993809D01*
X8979191Y24043228D01*
X9018020Y24101339D01*
X9044765Y24165909D01*
X9058400Y24234455D01*
X9058400Y26455700D01*
X8969700Y26544400D01*
X8228600Y26544400D01*
X8178600Y26544400D01*
X7437500Y26544400D01*
X7348800Y26455700D01*
X7348800Y25762619D01*
X7191777Y25828625D01*
X7017039Y25864494D01*
X6838662Y25865739D01*
X6663440Y25832314D01*
X6498047Y25765491D01*
X6348783Y25667816D01*
X6221335Y25543009D01*
X6120555Y25395823D01*
X6050283Y25231866D01*
X6020940Y25093822D01*
X4560559Y23633441D01*
X4517459Y23580971D01*
X4473872Y23529025D01*
X4472013Y23525644D01*
X4469558Y23522655D01*
X4437473Y23462816D01*
X4404803Y23403390D01*
X4403635Y23399707D01*
X4401810Y23396304D01*
X4381974Y23331424D01*
X4361453Y23266732D01*
X4361022Y23262893D01*
X4359893Y23259199D01*
X4353031Y23191649D01*
X4345472Y23124257D01*
X4345419Y23116713D01*
X4345404Y23116565D01*
X4345417Y23116427D01*
X4345400Y23114000D01*
X4345400Y19992082D01*
X4147561Y19794243D01*
X4126845Y19898870D01*
X4033834Y20124531D01*
X3898763Y20327830D01*
X3726776Y20501021D01*
X3674721Y20536133D01*
X3699560Y20551896D01*
X3876315Y20720218D01*
X4017009Y20919665D01*
X4116285Y21142642D01*
X4170360Y21380656D01*
X4174253Y21659439D01*
X4126845Y21898870D01*
X4033834Y22124531D01*
X3898763Y22327830D01*
X3726776Y22501021D01*
X3674721Y22536133D01*
X3699560Y22551896D01*
X3876315Y22720218D01*
X4017009Y22919665D01*
X4116285Y23142642D01*
X4170360Y23380656D01*
X4174253Y23659439D01*
X4126845Y23898870D01*
X4033834Y24124531D01*
X3898763Y24327830D01*
X3726776Y24501021D01*
X3674721Y24536133D01*
X3699560Y24551896D01*
X3876315Y24720218D01*
X4017009Y24919665D01*
X4116285Y25142642D01*
X4170360Y25380656D01*
X4174253Y25659439D01*
X4126845Y25898870D01*
X4033834Y26124531D01*
X3898763Y26327830D01*
X3726776Y26501021D01*
X3674721Y26536133D01*
X3699560Y26551896D01*
X3876315Y26720218D01*
X4017009Y26919665D01*
X4116285Y27142642D01*
X4170360Y27380656D01*
X4174253Y27659439D01*
X4126845Y27898870D01*
X4033834Y28124531D01*
X3898763Y28327830D01*
X3726776Y28501021D01*
X3524426Y28637508D01*
X3299419Y28732092D01*
X3060326Y28781171D01*
X2816253Y28782875D01*
X2576498Y28737139D01*
X2350192Y28645706D01*
X2145955Y28512057D01*
X1971568Y28341284D01*
X1833672Y28139892D01*
X1737519Y27915550D01*
X1686772Y27676805D01*
X1683364Y27432751D01*
X1727425Y27192682D01*
X1817276Y26965743D01*
X1949496Y26760579D01*
X2119047Y26585003D01*
X2186154Y26538362D01*
X2145955Y26512057D01*
X1971568Y26341284D01*
X1833672Y26139892D01*
X1737519Y25915550D01*
X1686772Y25676805D01*
X1683364Y25432751D01*
X1727425Y25192682D01*
X1817276Y24965743D01*
X1949496Y24760579D01*
X2119047Y24585003D01*
X2186154Y24538362D01*
X2145955Y24512057D01*
X1971568Y24341284D01*
X1833672Y24139892D01*
X1737519Y23915550D01*
X1686772Y23676805D01*
X1683364Y23432751D01*
X1727425Y23192682D01*
X1817276Y22965743D01*
X1949496Y22760579D01*
X2119047Y22585003D01*
X2186154Y22538362D01*
X2145955Y22512057D01*
X1971568Y22341284D01*
X1833672Y22139892D01*
X1737519Y21915550D01*
X1686772Y21676805D01*
X1683364Y21432751D01*
X1727425Y21192682D01*
X1817276Y20965743D01*
X1949496Y20760579D01*
X2119047Y20585003D01*
X2186154Y20538362D01*
X2145955Y20512057D01*
X1971568Y20341284D01*
X1833672Y20139892D01*
X1737519Y19915550D01*
X1686772Y19676805D01*
X1683364Y19432751D01*
X1727425Y19192682D01*
X1817276Y18965743D01*
X1949496Y18760579D01*
X2119047Y18585003D01*
X2186154Y18538362D01*
X2145955Y18512057D01*
X1971568Y18341284D01*
X1833672Y18139892D01*
X1737519Y17915550D01*
X1686772Y17676805D01*
X1683364Y17432751D01*
X1727425Y17192682D01*
X1817276Y16965743D01*
X1949496Y16760579D01*
X2119047Y16585003D01*
X2186154Y16538362D01*
X2145955Y16512057D01*
X1971568Y16341284D01*
X1833672Y16139892D01*
X1737519Y15915550D01*
X1686772Y15676805D01*
X1683364Y15432751D01*
X1727425Y15192682D01*
X1817276Y14965743D01*
X1949496Y14760579D01*
X2119047Y14585003D01*
X2186154Y14538362D01*
X2145955Y14512057D01*
X1971568Y14341284D01*
X1833672Y14139892D01*
X1737519Y13915550D01*
X1686772Y13676805D01*
X1683364Y13432751D01*
X1727425Y13192682D01*
X1817276Y12965743D01*
X1949496Y12760579D01*
X2119047Y12585003D01*
X2186154Y12538362D01*
X2145955Y12512057D01*
X1971568Y12341284D01*
X1833672Y12139892D01*
X1737519Y11915550D01*
X1686772Y11676805D01*
X1683364Y11432751D01*
X1727425Y11192682D01*
X1817276Y10965743D01*
X1949496Y10760579D01*
X2119047Y10585003D01*
X2319472Y10445704D01*
X2434227Y10395569D01*
X2388778Y10372096D01*
X2365405Y10356480D01*
X2306961Y10195394D01*
X2929600Y9572755D01*
X2943743Y9586897D01*
X2979098Y9551542D01*
X2964955Y9537400D01*
X3587594Y8914761D01*
X3748680Y8973205D01*
X3843010Y9143841D01*
X3902239Y9329600D01*
X3924089Y9523346D01*
X3912759Y9657841D01*
X3928793Y9660668D01*
X4095103Y9725176D01*
X4245715Y9820757D01*
X4324800Y9896069D01*
X4324800Y9677888D01*
X4273943Y9644376D01*
X4162136Y9513192D01*
X4091302Y9356052D01*
X4067051Y9185400D01*
X4067051Y8485400D01*
X4074792Y8388324D01*
X4125782Y8223671D01*
X4220624Y8079743D01*
X4253369Y8051835D01*
X4241366Y8025208D01*
X4130600Y8040949D01*
X3330600Y8040949D01*
X3233524Y8033208D01*
X3068871Y7982218D01*
X2924943Y7887376D01*
X2915248Y7876001D01*
X2953719Y7930537D01*
X3026274Y8093496D01*
X3065794Y8267445D01*
X3068639Y8471191D01*
X3052159Y8554420D01*
X3109831Y8559278D01*
X3297189Y8613234D01*
X3470422Y8702704D01*
X3493795Y8718320D01*
X3552239Y8879406D01*
X2929600Y9502045D01*
X2915458Y9487902D01*
X2880103Y9523257D01*
X2894245Y9537400D01*
X2271606Y10160039D01*
X2110520Y10101595D01*
X2016190Y9930959D01*
X1956961Y9745200D01*
X1935111Y9551454D01*
X1951478Y9357169D01*
X1975696Y9273074D01*
X1900940Y9258814D01*
X1735547Y9191991D01*
X1586283Y9094316D01*
X1458835Y8969509D01*
X1358055Y8822323D01*
X1287783Y8658366D01*
X1250695Y8483883D01*
X1248404Y8319786D01*
X744200Y7815582D01*
X744200Y30068207D01*
X956075Y29739440D01*
X1284334Y29399519D01*
X1672365Y29129830D01*
X2105390Y28940646D01*
X2566913Y28839173D01*
X3039357Y28829277D01*
X3465088Y28904345D01*
X7348800Y28904345D01*
X7348800Y26683100D01*
X7437500Y26594400D01*
X8178600Y26594400D01*
X8178600Y29135500D01*
X8228600Y29135500D01*
X8228600Y26594400D01*
X8969700Y26594400D01*
X9058400Y26683100D01*
X9058400Y28904345D01*
X9044765Y28972891D01*
X9018020Y29037461D01*
X8979191Y29095572D01*
X8929772Y29144991D01*
X8871661Y29183820D01*
X8807092Y29210565D01*
X8738545Y29224200D01*
X8317300Y29224200D01*
X8228600Y29135500D01*
X8178600Y29135500D01*
X8089900Y29224200D01*
X7668655Y29224200D01*
X7600108Y29210565D01*
X7535539Y29183820D01*
X7477428Y29144991D01*
X7428009Y29095572D01*
X7389180Y29037461D01*
X7362435Y28972891D01*
X7348800Y28904345D01*
X3465088Y28904345D01*
X3504725Y28911334D01*
X3945291Y29082219D01*
X4344276Y29335422D01*
X4620837Y29598787D01*
X4675808Y29551936D01*
X4832948Y29481102D01*
X5003600Y29456851D01*
X6603600Y29456851D01*
X6700676Y29464592D01*
X6865329Y29515582D01*
X7009257Y29610424D01*
X7121064Y29741608D01*
X7191898Y29898748D01*
X7216149Y30069400D01*
X7216149Y33358800D01*
X11191051Y33358800D01*
X11191051Y30069400D01*
X11191051Y30069400D01*
G37*
X11191051Y30069400D02*
X11198792Y29972324D01*
X11249782Y29807671D01*
X11344624Y29663743D01*
X11475808Y29551936D01*
X11632948Y29481102D01*
X11803600Y29456851D01*
X13403600Y29456851D01*
X13500676Y29464592D01*
X13665329Y29515582D01*
X13809257Y29610424D01*
X13921064Y29741608D01*
X13991898Y29898748D01*
X14016149Y30069400D01*
X14016149Y33358800D01*
X14726353Y33358800D01*
X14676802Y33198724D01*
X14652125Y32963945D01*
X14673521Y32728844D01*
X14740174Y32502376D01*
X14849546Y32293168D01*
X14997470Y32109187D01*
X15178312Y31957443D01*
X15385184Y31843714D01*
X15610206Y31772333D01*
X15844807Y31746018D01*
X15861696Y31745900D01*
X16476304Y31745900D01*
X16711250Y31768937D01*
X16937247Y31837169D01*
X17145686Y31947998D01*
X17328630Y32097203D01*
X17419140Y32206611D01*
X17497470Y32109187D01*
X17678312Y31957443D01*
X17885184Y31843714D01*
X18110206Y31772333D01*
X18344807Y31746018D01*
X18361696Y31745900D01*
X18976304Y31745900D01*
X19211250Y31768937D01*
X19437247Y31837169D01*
X19645686Y31947998D01*
X19828630Y32097203D01*
X19919140Y32206611D01*
X19997470Y32109187D01*
X20178312Y31957443D01*
X20385184Y31843714D01*
X20485887Y31811769D01*
X19444152Y30770034D01*
X19227794Y30838667D01*
X18993193Y30864982D01*
X18976304Y30865100D01*
X18361696Y30865100D01*
X18126750Y30842063D01*
X17900753Y30773831D01*
X17692314Y30663002D01*
X17509370Y30513797D01*
X17418860Y30404389D01*
X17340530Y30501813D01*
X17159688Y30653557D01*
X16952816Y30767286D01*
X16727794Y30838667D01*
X16493193Y30864982D01*
X16476304Y30865100D01*
X15861696Y30865100D01*
X15626750Y30842063D01*
X15400753Y30773831D01*
X15192314Y30663002D01*
X15009370Y30513797D01*
X14858892Y30331900D01*
X14746610Y30124239D01*
X14676802Y29898724D01*
X14652125Y29663945D01*
X14673521Y29428844D01*
X14740174Y29202376D01*
X14849546Y28993168D01*
X14997470Y28809187D01*
X15178312Y28657443D01*
X15385184Y28543714D01*
X15434400Y28528102D01*
X15434400Y27916130D01*
X15366576Y28019057D01*
X15235392Y28130864D01*
X15078252Y28201698D01*
X14907600Y28225949D01*
X13907600Y28225949D01*
X13810524Y28218208D01*
X13645871Y28167218D01*
X13501943Y28072376D01*
X13390136Y27941192D01*
X13319302Y27784052D01*
X13295051Y27613400D01*
X13295051Y26192561D01*
X12726439Y25623949D01*
X11755600Y25623949D01*
X11658524Y25616208D01*
X11493871Y25565218D01*
X11349943Y25470376D01*
X11316149Y25430725D01*
X11316149Y25834800D01*
X11583400Y25834800D01*
X11650957Y25841424D01*
X11718530Y25847336D01*
X11722236Y25848413D01*
X11726085Y25848790D01*
X11791087Y25868415D01*
X11856207Y25887334D01*
X11859636Y25889112D01*
X11863334Y25890228D01*
X11923252Y25922087D01*
X11983492Y25953313D01*
X11986510Y25955723D01*
X11989921Y25957536D01*
X12042505Y26000422D01*
X12095537Y26042757D01*
X12100916Y26048061D01*
X12101024Y26048149D01*
X12101106Y26048249D01*
X12102841Y26049959D01*
X12204874Y26151992D01*
X12310793Y26170668D01*
X12477103Y26235176D01*
X12627715Y26330757D01*
X12756894Y26453773D01*
X12859719Y26599537D01*
X12932274Y26762496D01*
X12971794Y26936445D01*
X12974639Y27140191D01*
X12939991Y27315175D01*
X12872015Y27480097D01*
X12773300Y27628675D01*
X12647606Y27755250D01*
X12499721Y27855000D01*
X12335277Y27924125D01*
X12160539Y27959994D01*
X11982162Y27961239D01*
X11806940Y27927814D01*
X11641547Y27860991D01*
X11492283Y27763316D01*
X11364835Y27638509D01*
X11316149Y27567405D01*
X11316149Y28869400D01*
X11308408Y28966476D01*
X11257418Y29131129D01*
X11162576Y29275057D01*
X11031392Y29386864D01*
X10874252Y29457698D01*
X10703600Y29481949D01*
X9703600Y29481949D01*
X9606524Y29474208D01*
X9441871Y29423218D01*
X9297943Y29328376D01*
X9186136Y29197192D01*
X9115302Y29040052D01*
X9091051Y28869400D01*
X9091051Y24269400D01*
X9098792Y24172324D01*
X9149782Y24007671D01*
X9244624Y23863743D01*
X9375808Y23751936D01*
X9532948Y23681102D01*
X9703600Y23656851D01*
X10703600Y23656851D01*
X10800676Y23664592D01*
X10965329Y23715582D01*
X11109257Y23810424D01*
X11143051Y23850075D01*
X11143051Y23711400D01*
X11150792Y23614324D01*
X11201782Y23449671D01*
X11296624Y23305743D01*
X11412809Y23206719D01*
X11400800Y23146345D01*
X11400800Y22575100D01*
X11489500Y22486400D01*
X12480600Y22486400D01*
X12480600Y22506400D01*
X12530600Y22506400D01*
X12530600Y22486400D01*
X12550600Y22486400D01*
X12550600Y22436400D01*
X12530600Y22436400D01*
X12530600Y22416400D01*
X12480600Y22416400D01*
X12480600Y22436400D01*
X11489500Y22436400D01*
X11400800Y22347700D01*
X11400800Y21776455D01*
X11414435Y21707908D01*
X11441180Y21643339D01*
X11480009Y21585228D01*
X11529428Y21535809D01*
X11587539Y21496980D01*
X11652109Y21470235D01*
X11720655Y21456600D01*
X12310474Y21456600D01*
X12258136Y21395192D01*
X12239012Y21352766D01*
X12183918Y21347364D01*
X12116102Y21341431D01*
X12112381Y21340350D01*
X12108527Y21339972D01*
X12043395Y21320307D01*
X11978051Y21301323D01*
X11974613Y21299541D01*
X11970904Y21298421D01*
X11910827Y21266477D01*
X11850419Y21235165D01*
X11848714Y21233804D01*
X11639001Y21276852D01*
X11360060Y21278800D01*
X11086054Y21226530D01*
X10951610Y21172211D01*
X10949434Y21194405D01*
X10943153Y21263425D01*
X10942424Y21265901D01*
X10942172Y21268473D01*
X10922132Y21334847D01*
X10902564Y21401335D01*
X10901367Y21403624D01*
X10900621Y21406096D01*
X10868088Y21467282D01*
X10835961Y21528735D01*
X10834342Y21530749D01*
X10833130Y21533028D01*
X10789324Y21586740D01*
X10745881Y21640772D01*
X10743903Y21642432D01*
X10742270Y21644434D01*
X10688893Y21688591D01*
X10635755Y21733179D01*
X10633488Y21734425D01*
X10631501Y21736069D01*
X10570601Y21768997D01*
X10509778Y21802435D01*
X10507314Y21803217D01*
X10505044Y21804444D01*
X10438898Y21824920D01*
X10372748Y21845904D01*
X10370178Y21846192D01*
X10367714Y21846955D01*
X10298812Y21854197D01*
X10229885Y21861928D01*
X10224925Y21861963D01*
X10224742Y21861982D01*
X10224558Y21861965D01*
X10219600Y21862000D01*
X9989033Y21862000D01*
X10025304Y21927022D01*
X10096010Y22145881D01*
X10122661Y22374329D01*
X10104232Y22603586D01*
X10041430Y22824844D01*
X9936671Y23029598D01*
X9913259Y23064638D01*
X9733967Y23144411D01*
X8984955Y22395400D01*
X8999098Y22381258D01*
X8963742Y22345902D01*
X8949600Y22360045D01*
X8935458Y22345902D01*
X8900102Y22381258D01*
X8914245Y22395400D01*
X8165233Y23144411D01*
X7985941Y23064638D01*
X7873896Y22863778D01*
X7807580Y22658509D01*
X7777880Y22808508D01*
X7671581Y23066407D01*
X7596265Y23179767D01*
X8200589Y23179767D01*
X8949600Y22430755D01*
X9698611Y23179767D01*
X9618838Y23359059D01*
X9417978Y23471104D01*
X9199119Y23541810D01*
X8970671Y23568461D01*
X8741414Y23550032D01*
X8520156Y23487230D01*
X8315402Y23382471D01*
X8280362Y23359059D01*
X8200589Y23179767D01*
X7596265Y23179767D01*
X7517214Y23298748D01*
X7320659Y23496681D01*
X7089401Y23652666D01*
X6832250Y23760762D01*
X6776987Y23772106D01*
X7061373Y24056492D01*
X7167293Y24075168D01*
X7333603Y24139676D01*
X7365038Y24159625D01*
X7389180Y24101339D01*
X7428009Y24043228D01*
X7477428Y23993809D01*
X7535539Y23954980D01*
X7600108Y23928235D01*
X7668655Y23914600D01*
X8089900Y23914600D01*
X8178600Y24003300D01*
X8178600Y26544400D01*
X8228600Y26544400D01*
X8228600Y24003300D01*
X8317300Y23914600D01*
X8738545Y23914600D01*
X8807092Y23928235D01*
X8871661Y23954980D01*
X8929772Y23993809D01*
X8979191Y24043228D01*
X9018020Y24101339D01*
X9044765Y24165909D01*
X9058400Y24234455D01*
X9058400Y26455700D01*
X8969700Y26544400D01*
X8228600Y26544400D01*
X8178600Y26544400D01*
X7437500Y26544400D01*
X7348800Y26455700D01*
X7348800Y25762619D01*
X7191777Y25828625D01*
X7017039Y25864494D01*
X6838662Y25865739D01*
X6663440Y25832314D01*
X6498047Y25765491D01*
X6348783Y25667816D01*
X6221335Y25543009D01*
X6120555Y25395823D01*
X6050283Y25231866D01*
X6020940Y25093822D01*
X4560559Y23633441D01*
X4517459Y23580971D01*
X4473872Y23529025D01*
X4472013Y23525644D01*
X4469558Y23522655D01*
X4437473Y23462816D01*
X4404803Y23403390D01*
X4403635Y23399707D01*
X4401810Y23396304D01*
X4381974Y23331424D01*
X4361453Y23266732D01*
X4361022Y23262893D01*
X4359893Y23259199D01*
X4353031Y23191649D01*
X4345472Y23124257D01*
X4345419Y23116713D01*
X4345404Y23116565D01*
X4345417Y23116427D01*
X4345400Y23114000D01*
X4345400Y19992082D01*
X4147561Y19794243D01*
X4126845Y19898870D01*
X4033834Y20124531D01*
X3898763Y20327830D01*
X3726776Y20501021D01*
X3674721Y20536133D01*
X3699560Y20551896D01*
X3876315Y20720218D01*
X4017009Y20919665D01*
X4116285Y21142642D01*
X4170360Y21380656D01*
X4174253Y21659439D01*
X4126845Y21898870D01*
X4033834Y22124531D01*
X3898763Y22327830D01*
X3726776Y22501021D01*
X3674721Y22536133D01*
X3699560Y22551896D01*
X3876315Y22720218D01*
X4017009Y22919665D01*
X4116285Y23142642D01*
X4170360Y23380656D01*
X4174253Y23659439D01*
X4126845Y23898870D01*
X4033834Y24124531D01*
X3898763Y24327830D01*
X3726776Y24501021D01*
X3674721Y24536133D01*
X3699560Y24551896D01*
X3876315Y24720218D01*
X4017009Y24919665D01*
X4116285Y25142642D01*
X4170360Y25380656D01*
X4174253Y25659439D01*
X4126845Y25898870D01*
X4033834Y26124531D01*
X3898763Y26327830D01*
X3726776Y26501021D01*
X3674721Y26536133D01*
X3699560Y26551896D01*
X3876315Y26720218D01*
X4017009Y26919665D01*
X4116285Y27142642D01*
X4170360Y27380656D01*
X4174253Y27659439D01*
X4126845Y27898870D01*
X4033834Y28124531D01*
X3898763Y28327830D01*
X3726776Y28501021D01*
X3524426Y28637508D01*
X3299419Y28732092D01*
X3060326Y28781171D01*
X2816253Y28782875D01*
X2576498Y28737139D01*
X2350192Y28645706D01*
X2145955Y28512057D01*
X1971568Y28341284D01*
X1833672Y28139892D01*
X1737519Y27915550D01*
X1686772Y27676805D01*
X1683364Y27432751D01*
X1727425Y27192682D01*
X1817276Y26965743D01*
X1949496Y26760579D01*
X2119047Y26585003D01*
X2186154Y26538362D01*
X2145955Y26512057D01*
X1971568Y26341284D01*
X1833672Y26139892D01*
X1737519Y25915550D01*
X1686772Y25676805D01*
X1683364Y25432751D01*
X1727425Y25192682D01*
X1817276Y24965743D01*
X1949496Y24760579D01*
X2119047Y24585003D01*
X2186154Y24538362D01*
X2145955Y24512057D01*
X1971568Y24341284D01*
X1833672Y24139892D01*
X1737519Y23915550D01*
X1686772Y23676805D01*
X1683364Y23432751D01*
X1727425Y23192682D01*
X1817276Y22965743D01*
X1949496Y22760579D01*
X2119047Y22585003D01*
X2186154Y22538362D01*
X2145955Y22512057D01*
X1971568Y22341284D01*
X1833672Y22139892D01*
X1737519Y21915550D01*
X1686772Y21676805D01*
X1683364Y21432751D01*
X1727425Y21192682D01*
X1817276Y20965743D01*
X1949496Y20760579D01*
X2119047Y20585003D01*
X2186154Y20538362D01*
X2145955Y20512057D01*
X1971568Y20341284D01*
X1833672Y20139892D01*
X1737519Y19915550D01*
X1686772Y19676805D01*
X1683364Y19432751D01*
X1727425Y19192682D01*
X1817276Y18965743D01*
X1949496Y18760579D01*
X2119047Y18585003D01*
X2186154Y18538362D01*
X2145955Y18512057D01*
X1971568Y18341284D01*
X1833672Y18139892D01*
X1737519Y17915550D01*
X1686772Y17676805D01*
X1683364Y17432751D01*
X1727425Y17192682D01*
X1817276Y16965743D01*
X1949496Y16760579D01*
X2119047Y16585003D01*
X2186154Y16538362D01*
X2145955Y16512057D01*
X1971568Y16341284D01*
X1833672Y16139892D01*
X1737519Y15915550D01*
X1686772Y15676805D01*
X1683364Y15432751D01*
X1727425Y15192682D01*
X1817276Y14965743D01*
X1949496Y14760579D01*
X2119047Y14585003D01*
X2186154Y14538362D01*
X2145955Y14512057D01*
X1971568Y14341284D01*
X1833672Y14139892D01*
X1737519Y13915550D01*
X1686772Y13676805D01*
X1683364Y13432751D01*
X1727425Y13192682D01*
X1817276Y12965743D01*
X1949496Y12760579D01*
X2119047Y12585003D01*
X2186154Y12538362D01*
X2145955Y12512057D01*
X1971568Y12341284D01*
X1833672Y12139892D01*
X1737519Y11915550D01*
X1686772Y11676805D01*
X1683364Y11432751D01*
X1727425Y11192682D01*
X1817276Y10965743D01*
X1949496Y10760579D01*
X2119047Y10585003D01*
X2319472Y10445704D01*
X2434227Y10395569D01*
X2388778Y10372096D01*
X2365405Y10356480D01*
X2306961Y10195394D01*
X2929600Y9572755D01*
X2943743Y9586897D01*
X2979098Y9551542D01*
X2964955Y9537400D01*
X3587594Y8914761D01*
X3748680Y8973205D01*
X3843010Y9143841D01*
X3902239Y9329600D01*
X3924089Y9523346D01*
X3912759Y9657841D01*
X3928793Y9660668D01*
X4095103Y9725176D01*
X4245715Y9820757D01*
X4324800Y9896069D01*
X4324800Y9677888D01*
X4273943Y9644376D01*
X4162136Y9513192D01*
X4091302Y9356052D01*
X4067051Y9185400D01*
X4067051Y8485400D01*
X4074792Y8388324D01*
X4125782Y8223671D01*
X4220624Y8079743D01*
X4253369Y8051835D01*
X4241366Y8025208D01*
X4130600Y8040949D01*
X3330600Y8040949D01*
X3233524Y8033208D01*
X3068871Y7982218D01*
X2924943Y7887376D01*
X2915248Y7876001D01*
X2953719Y7930537D01*
X3026274Y8093496D01*
X3065794Y8267445D01*
X3068639Y8471191D01*
X3052159Y8554420D01*
X3109831Y8559278D01*
X3297189Y8613234D01*
X3470422Y8702704D01*
X3493795Y8718320D01*
X3552239Y8879406D01*
X2929600Y9502045D01*
X2915458Y9487902D01*
X2880103Y9523257D01*
X2894245Y9537400D01*
X2271606Y10160039D01*
X2110520Y10101595D01*
X2016190Y9930959D01*
X1956961Y9745200D01*
X1935111Y9551454D01*
X1951478Y9357169D01*
X1975696Y9273074D01*
X1900940Y9258814D01*
X1735547Y9191991D01*
X1586283Y9094316D01*
X1458835Y8969509D01*
X1358055Y8822323D01*
X1287783Y8658366D01*
X1250695Y8483883D01*
X1248404Y8319786D01*
X744200Y7815582D01*
X744200Y30068207D01*
X956075Y29739440D01*
X1284334Y29399519D01*
X1672365Y29129830D01*
X2105390Y28940646D01*
X2566913Y28839173D01*
X3039357Y28829277D01*
X3465088Y28904345D01*
X7348800Y28904345D01*
X7348800Y26683100D01*
X7437500Y26594400D01*
X8178600Y26594400D01*
X8178600Y29135500D01*
X8228600Y29135500D01*
X8228600Y26594400D01*
X8969700Y26594400D01*
X9058400Y26683100D01*
X9058400Y28904345D01*
X9044765Y28972891D01*
X9018020Y29037461D01*
X8979191Y29095572D01*
X8929772Y29144991D01*
X8871661Y29183820D01*
X8807092Y29210565D01*
X8738545Y29224200D01*
X8317300Y29224200D01*
X8228600Y29135500D01*
X8178600Y29135500D01*
X8089900Y29224200D01*
X7668655Y29224200D01*
X7600108Y29210565D01*
X7535539Y29183820D01*
X7477428Y29144991D01*
X7428009Y29095572D01*
X7389180Y29037461D01*
X7362435Y28972891D01*
X7348800Y28904345D01*
X3465088Y28904345D01*
X3504725Y28911334D01*
X3945291Y29082219D01*
X4344276Y29335422D01*
X4620837Y29598787D01*
X4675808Y29551936D01*
X4832948Y29481102D01*
X5003600Y29456851D01*
X6603600Y29456851D01*
X6700676Y29464592D01*
X6865329Y29515582D01*
X7009257Y29610424D01*
X7121064Y29741608D01*
X7191898Y29898748D01*
X7216149Y30069400D01*
X7216149Y33358800D01*
X11191051Y33358800D01*
X11191051Y30069400D01*
G36*
X5554600Y10060400D02*
X5574600Y10060400D01*
X5574600Y10010400D01*
X5554600Y10010400D01*
X5554600Y9990400D01*
X5504600Y9990400D01*
X5504600Y10010400D01*
X5484600Y10010400D01*
X5484600Y10060400D01*
X5504600Y10060400D01*
X5504600Y10080400D01*
X5554600Y10080400D01*
X5554600Y10060400D01*
X5554600Y10060400D01*
G37*
X5554600Y10060400D02*
X5574600Y10060400D01*
X5574600Y10010400D01*
X5554600Y10010400D01*
X5554600Y9990400D01*
X5504600Y9990400D01*
X5504600Y10010400D01*
X5484600Y10010400D01*
X5484600Y10060400D01*
X5504600Y10060400D01*
X5504600Y10080400D01*
X5554600Y10080400D01*
X5554600Y10060400D01*
G36*
X19520808Y11667936D02*
X19643000Y11612856D01*
X19643000Y11014207D01*
X19532250Y11060762D01*
X19259001Y11116852D01*
X18980060Y11118800D01*
X18706054Y11066530D01*
X18703200Y11065377D01*
X18703200Y11184851D01*
X18879600Y11184851D01*
X18976676Y11192592D01*
X19141329Y11243582D01*
X19285257Y11338424D01*
X19397064Y11469608D01*
X19467898Y11626748D01*
X19478835Y11703709D01*
X19520808Y11667936D01*
X19520808Y11667936D01*
G37*
X19520808Y11667936D02*
X19643000Y11612856D01*
X19643000Y11014207D01*
X19532250Y11060762D01*
X19259001Y11116852D01*
X18980060Y11118800D01*
X18706054Y11066530D01*
X18703200Y11065377D01*
X18703200Y11184851D01*
X18879600Y11184851D01*
X18976676Y11192592D01*
X19141329Y11243582D01*
X19285257Y11338424D01*
X19397064Y11469608D01*
X19467898Y11626748D01*
X19478835Y11703709D01*
X19520808Y11667936D01*
G36*
X10350200Y16342451D02*
X10909000Y16342451D01*
X10936625Y16344654D01*
X10872383Y16194766D01*
X10835295Y16020283D01*
X10832805Y15841918D01*
X10865006Y15666467D01*
X10930673Y15500612D01*
X11027303Y15350670D01*
X11151218Y15222353D01*
X11297696Y15120548D01*
X11461158Y15049133D01*
X11635379Y15010829D01*
X11813721Y15007093D01*
X11989393Y15038068D01*
X12155703Y15102576D01*
X12306315Y15198157D01*
X12435494Y15321173D01*
X12538319Y15466937D01*
X12610874Y15629896D01*
X12644408Y15777498D01*
X12750455Y15883545D01*
X12793657Y15936139D01*
X12837379Y15988245D01*
X12839244Y15991637D01*
X12841704Y15994632D01*
X12873876Y16054633D01*
X12906635Y16114222D01*
X12907806Y16117913D01*
X12909637Y16121328D01*
X12929533Y16186404D01*
X12950104Y16251252D01*
X12950536Y16255102D01*
X12951668Y16258805D01*
X12958546Y16326520D01*
X12960333Y16342451D01*
X13095000Y16342451D01*
X13095000Y15639913D01*
X13092035Y15637009D01*
X12991255Y15489823D01*
X12920983Y15325866D01*
X12883895Y15151383D01*
X12881405Y14973018D01*
X12913606Y14797567D01*
X12979273Y14631712D01*
X13075903Y14481770D01*
X13199818Y14353453D01*
X13346296Y14251648D01*
X13509758Y14180233D01*
X13683979Y14141929D01*
X13862321Y14138193D01*
X13946813Y14153091D01*
X13961818Y14137553D01*
X14007041Y14106122D01*
X13940655Y14039737D01*
X13816383Y13958416D01*
X13688935Y13833609D01*
X13588155Y13686423D01*
X13517883Y13522466D01*
X13480795Y13347983D01*
X13478305Y13169618D01*
X13510506Y12994167D01*
X13576173Y12828312D01*
X13672803Y12678370D01*
X13796718Y12550053D01*
X13943196Y12448248D01*
X14106658Y12376833D01*
X14280879Y12338529D01*
X14459221Y12334793D01*
X14634893Y12365768D01*
X14801203Y12430276D01*
X14890284Y12486808D01*
X14874651Y12376800D01*
X14874651Y11818000D01*
X14882392Y11720924D01*
X14889190Y11698972D01*
X14249918Y11059700D01*
X11905825Y11059700D01*
X11872906Y11092850D01*
X11725021Y11192600D01*
X11560577Y11261725D01*
X11385839Y11297594D01*
X11364200Y11297745D01*
X11364200Y11437801D01*
X11396994Y11582145D01*
X11399839Y11785891D01*
X11365191Y11960875D01*
X11297215Y12125797D01*
X11198500Y12274375D01*
X11072806Y12400950D01*
X10924921Y12500700D01*
X10760477Y12569825D01*
X10585739Y12605694D01*
X10450100Y12606641D01*
X10450100Y15367000D01*
X10443476Y15434557D01*
X10437564Y15502130D01*
X10436487Y15505836D01*
X10436110Y15509685D01*
X10416485Y15574687D01*
X10397566Y15639807D01*
X10395788Y15643236D01*
X10394672Y15646934D01*
X10362813Y15706852D01*
X10331587Y15767092D01*
X10329178Y15770110D01*
X10327364Y15773521D01*
X10284453Y15826135D01*
X10242142Y15879137D01*
X10236840Y15884515D01*
X10236751Y15884624D01*
X10236650Y15884708D01*
X10234941Y15886441D01*
X9778931Y16342451D01*
X10109000Y16342451D01*
X10206076Y16350192D01*
X10234275Y16358925D01*
X10350200Y16342451D01*
X10350200Y16342451D01*
G37*
X10350200Y16342451D02*
X10909000Y16342451D01*
X10936625Y16344654D01*
X10872383Y16194766D01*
X10835295Y16020283D01*
X10832805Y15841918D01*
X10865006Y15666467D01*
X10930673Y15500612D01*
X11027303Y15350670D01*
X11151218Y15222353D01*
X11297696Y15120548D01*
X11461158Y15049133D01*
X11635379Y15010829D01*
X11813721Y15007093D01*
X11989393Y15038068D01*
X12155703Y15102576D01*
X12306315Y15198157D01*
X12435494Y15321173D01*
X12538319Y15466937D01*
X12610874Y15629896D01*
X12644408Y15777498D01*
X12750455Y15883545D01*
X12793657Y15936139D01*
X12837379Y15988245D01*
X12839244Y15991637D01*
X12841704Y15994632D01*
X12873876Y16054633D01*
X12906635Y16114222D01*
X12907806Y16117913D01*
X12909637Y16121328D01*
X12929533Y16186404D01*
X12950104Y16251252D01*
X12950536Y16255102D01*
X12951668Y16258805D01*
X12958546Y16326520D01*
X12960333Y16342451D01*
X13095000Y16342451D01*
X13095000Y15639913D01*
X13092035Y15637009D01*
X12991255Y15489823D01*
X12920983Y15325866D01*
X12883895Y15151383D01*
X12881405Y14973018D01*
X12913606Y14797567D01*
X12979273Y14631712D01*
X13075903Y14481770D01*
X13199818Y14353453D01*
X13346296Y14251648D01*
X13509758Y14180233D01*
X13683979Y14141929D01*
X13862321Y14138193D01*
X13946813Y14153091D01*
X13961818Y14137553D01*
X14007041Y14106122D01*
X13940655Y14039737D01*
X13816383Y13958416D01*
X13688935Y13833609D01*
X13588155Y13686423D01*
X13517883Y13522466D01*
X13480795Y13347983D01*
X13478305Y13169618D01*
X13510506Y12994167D01*
X13576173Y12828312D01*
X13672803Y12678370D01*
X13796718Y12550053D01*
X13943196Y12448248D01*
X14106658Y12376833D01*
X14280879Y12338529D01*
X14459221Y12334793D01*
X14634893Y12365768D01*
X14801203Y12430276D01*
X14890284Y12486808D01*
X14874651Y12376800D01*
X14874651Y11818000D01*
X14882392Y11720924D01*
X14889190Y11698972D01*
X14249918Y11059700D01*
X11905825Y11059700D01*
X11872906Y11092850D01*
X11725021Y11192600D01*
X11560577Y11261725D01*
X11385839Y11297594D01*
X11364200Y11297745D01*
X11364200Y11437801D01*
X11396994Y11582145D01*
X11399839Y11785891D01*
X11365191Y11960875D01*
X11297215Y12125797D01*
X11198500Y12274375D01*
X11072806Y12400950D01*
X10924921Y12500700D01*
X10760477Y12569825D01*
X10585739Y12605694D01*
X10450100Y12606641D01*
X10450100Y15367000D01*
X10443476Y15434557D01*
X10437564Y15502130D01*
X10436487Y15505836D01*
X10436110Y15509685D01*
X10416485Y15574687D01*
X10397566Y15639807D01*
X10395788Y15643236D01*
X10394672Y15646934D01*
X10362813Y15706852D01*
X10331587Y15767092D01*
X10329178Y15770110D01*
X10327364Y15773521D01*
X10284453Y15826135D01*
X10242142Y15879137D01*
X10236840Y15884515D01*
X10236751Y15884624D01*
X10236650Y15884708D01*
X10234941Y15886441D01*
X9778931Y16342451D01*
X10109000Y16342451D01*
X10206076Y16350192D01*
X10234275Y16358925D01*
X10350200Y16342451D01*
G36*
X17374218Y13952353D02*
X17520696Y13850548D01*
X17624800Y13805066D01*
X17624800Y13561100D01*
X17713500Y13472400D01*
X18404600Y13472400D01*
X18404600Y13492400D01*
X18454600Y13492400D01*
X18454600Y13472400D01*
X19145700Y13472400D01*
X19234400Y13561100D01*
X19234400Y13832345D01*
X19220765Y13900892D01*
X19209169Y13928888D01*
X19209315Y13928872D01*
X19216881Y13928819D01*
X19217029Y13928804D01*
X19217167Y13928817D01*
X19219600Y13928800D01*
X19292595Y13928800D01*
X19328808Y13897936D01*
X19485948Y13827102D01*
X19516000Y13822831D01*
X19516000Y13592517D01*
X19442943Y13544376D01*
X19331136Y13413192D01*
X19260302Y13256052D01*
X19236051Y13085400D01*
X19236051Y12990438D01*
X19222391Y13002081D01*
X19234400Y13062455D01*
X19234400Y13333700D01*
X19145700Y13422400D01*
X18454600Y13422400D01*
X18454600Y13402400D01*
X18404600Y13402400D01*
X18404600Y13422400D01*
X17713500Y13422400D01*
X17679905Y13388805D01*
X17650455Y13418255D01*
X17597888Y13461434D01*
X17545755Y13505179D01*
X17542360Y13507046D01*
X17539368Y13509503D01*
X17479387Y13541665D01*
X17419778Y13574435D01*
X17416089Y13575605D01*
X17412673Y13577437D01*
X17347582Y13597337D01*
X17282748Y13617904D01*
X17278898Y13618336D01*
X17275195Y13619468D01*
X17207480Y13626346D01*
X17158194Y13631874D01*
X17084992Y13694264D01*
X17072871Y13699728D01*
X17162857Y13759024D01*
X17274664Y13890208D01*
X17325444Y14002860D01*
X17374218Y13952353D01*
X17374218Y13952353D01*
G37*
X17374218Y13952353D02*
X17520696Y13850548D01*
X17624800Y13805066D01*
X17624800Y13561100D01*
X17713500Y13472400D01*
X18404600Y13472400D01*
X18404600Y13492400D01*
X18454600Y13492400D01*
X18454600Y13472400D01*
X19145700Y13472400D01*
X19234400Y13561100D01*
X19234400Y13832345D01*
X19220765Y13900892D01*
X19209169Y13928888D01*
X19209315Y13928872D01*
X19216881Y13928819D01*
X19217029Y13928804D01*
X19217167Y13928817D01*
X19219600Y13928800D01*
X19292595Y13928800D01*
X19328808Y13897936D01*
X19485948Y13827102D01*
X19516000Y13822831D01*
X19516000Y13592517D01*
X19442943Y13544376D01*
X19331136Y13413192D01*
X19260302Y13256052D01*
X19236051Y13085400D01*
X19236051Y12990438D01*
X19222391Y13002081D01*
X19234400Y13062455D01*
X19234400Y13333700D01*
X19145700Y13422400D01*
X18454600Y13422400D01*
X18454600Y13402400D01*
X18404600Y13402400D01*
X18404600Y13422400D01*
X17713500Y13422400D01*
X17679905Y13388805D01*
X17650455Y13418255D01*
X17597888Y13461434D01*
X17545755Y13505179D01*
X17542360Y13507046D01*
X17539368Y13509503D01*
X17479387Y13541665D01*
X17419778Y13574435D01*
X17416089Y13575605D01*
X17412673Y13577437D01*
X17347582Y13597337D01*
X17282748Y13617904D01*
X17278898Y13618336D01*
X17275195Y13619468D01*
X17207480Y13626346D01*
X17158194Y13631874D01*
X17084992Y13694264D01*
X17072871Y13699728D01*
X17162857Y13759024D01*
X17274664Y13890208D01*
X17325444Y14002860D01*
X17374218Y13952353D01*
G36*
X6289451Y15018000D02*
X6297192Y14920924D01*
X6348182Y14756271D01*
X6443024Y14612343D01*
X6574208Y14500536D01*
X6586329Y14495072D01*
X6496343Y14435776D01*
X6493125Y14432000D01*
X6379497Y14432000D01*
X6312576Y14533557D01*
X6208400Y14622345D01*
X6208400Y14751700D01*
X6119700Y14840400D01*
X5508600Y14840400D01*
X5508600Y14820400D01*
X5458600Y14820400D01*
X5458600Y14840400D01*
X5438600Y14840400D01*
X5438600Y14890400D01*
X5458600Y14890400D01*
X5458600Y14910400D01*
X5508600Y14910400D01*
X5508600Y14890400D01*
X6119700Y14890400D01*
X6208400Y14979100D01*
X6208400Y15362800D01*
X6289451Y15362800D01*
X6289451Y15018000D01*
X6289451Y15018000D01*
G37*
X6289451Y15018000D02*
X6297192Y14920924D01*
X6348182Y14756271D01*
X6443024Y14612343D01*
X6574208Y14500536D01*
X6586329Y14495072D01*
X6496343Y14435776D01*
X6493125Y14432000D01*
X6379497Y14432000D01*
X6312576Y14533557D01*
X6208400Y14622345D01*
X6208400Y14751700D01*
X6119700Y14840400D01*
X5508600Y14840400D01*
X5508600Y14820400D01*
X5458600Y14820400D01*
X5458600Y14840400D01*
X5438600Y14840400D01*
X5438600Y14890400D01*
X5458600Y14890400D01*
X5458600Y14910400D01*
X5508600Y14910400D01*
X5508600Y14890400D01*
X6119700Y14890400D01*
X6208400Y14979100D01*
X6208400Y15362800D01*
X6289451Y15362800D01*
X6289451Y15018000D01*
G36*
X18051783Y18564366D02*
X18014695Y18389883D01*
X18012205Y18211518D01*
X18044406Y18036067D01*
X18110073Y17870212D01*
X18206703Y17720270D01*
X18330618Y17591953D01*
X18477096Y17490148D01*
X18640558Y17418733D01*
X18785183Y17386936D01*
X18826160Y17345959D01*
X18878583Y17302898D01*
X18930575Y17259272D01*
X18933959Y17257412D01*
X18936946Y17254958D01*
X18996798Y17222865D01*
X19056210Y17190203D01*
X19059888Y17189036D01*
X19063296Y17187209D01*
X19128222Y17167360D01*
X19192868Y17146853D01*
X19196707Y17146422D01*
X19200401Y17145293D01*
X19267947Y17138432D01*
X19283317Y17136708D01*
X19328808Y17097936D01*
X19456447Y17040400D01*
X19390500Y17040400D01*
X19301800Y16951700D01*
X19301800Y16780455D01*
X19315435Y16711908D01*
X19334699Y16665400D01*
X19315435Y16618892D01*
X19301800Y16550345D01*
X19301800Y16379100D01*
X19390500Y16290400D01*
X20231600Y16290400D01*
X20231600Y17002851D01*
X20281600Y17002851D01*
X20281600Y16290400D01*
X21122700Y16290400D01*
X21211400Y16379100D01*
X21211400Y16550345D01*
X21197765Y16618892D01*
X21178501Y16665400D01*
X21197765Y16711908D01*
X21211400Y16780455D01*
X21211400Y16951700D01*
X21122700Y17040400D01*
X21049930Y17040400D01*
X21118329Y17061582D01*
X21262257Y17156424D01*
X21374064Y17287608D01*
X21444898Y17444748D01*
X21460260Y17552851D01*
X21507291Y17552851D01*
X21515435Y17511908D01*
X21534699Y17465400D01*
X21515435Y17418892D01*
X21501800Y17350345D01*
X21501800Y17179100D01*
X21590500Y17090400D01*
X21663270Y17090400D01*
X21594871Y17069218D01*
X21450943Y16974376D01*
X21339136Y16843192D01*
X21268302Y16686052D01*
X21244051Y16515400D01*
X21244051Y16015400D01*
X21251792Y15918324D01*
X21295264Y15777949D01*
X21205909Y15777949D01*
X21197765Y15818892D01*
X21178501Y15865400D01*
X21197765Y15911908D01*
X21211400Y15980455D01*
X21211400Y16151700D01*
X21122700Y16240400D01*
X20281600Y16240400D01*
X20281600Y15527949D01*
X20231600Y15527949D01*
X20231600Y16240400D01*
X19390500Y16240400D01*
X19301800Y16151700D01*
X19301800Y15980455D01*
X19315435Y15911908D01*
X19334699Y15865400D01*
X19315435Y15818892D01*
X19301800Y15750345D01*
X19301800Y15624910D01*
X18068200Y16858510D01*
X18068200Y17823400D01*
X18061564Y17891082D01*
X18055631Y17958898D01*
X18054550Y17962619D01*
X18054172Y17966473D01*
X18034507Y18031605D01*
X18015523Y18096949D01*
X18013741Y18100387D01*
X18012621Y18104096D01*
X17980677Y18164173D01*
X17949365Y18224581D01*
X17946948Y18227608D01*
X17945130Y18231028D01*
X17902116Y18283768D01*
X17859677Y18336931D01*
X17854363Y18342320D01*
X17854270Y18342434D01*
X17854165Y18342521D01*
X17852455Y18344255D01*
X17585910Y18610800D01*
X18071685Y18610800D01*
X18051783Y18564366D01*
X18051783Y18564366D01*
G37*
X18051783Y18564366D02*
X18014695Y18389883D01*
X18012205Y18211518D01*
X18044406Y18036067D01*
X18110073Y17870212D01*
X18206703Y17720270D01*
X18330618Y17591953D01*
X18477096Y17490148D01*
X18640558Y17418733D01*
X18785183Y17386936D01*
X18826160Y17345959D01*
X18878583Y17302898D01*
X18930575Y17259272D01*
X18933959Y17257412D01*
X18936946Y17254958D01*
X18996798Y17222865D01*
X19056210Y17190203D01*
X19059888Y17189036D01*
X19063296Y17187209D01*
X19128222Y17167360D01*
X19192868Y17146853D01*
X19196707Y17146422D01*
X19200401Y17145293D01*
X19267947Y17138432D01*
X19283317Y17136708D01*
X19328808Y17097936D01*
X19456447Y17040400D01*
X19390500Y17040400D01*
X19301800Y16951700D01*
X19301800Y16780455D01*
X19315435Y16711908D01*
X19334699Y16665400D01*
X19315435Y16618892D01*
X19301800Y16550345D01*
X19301800Y16379100D01*
X19390500Y16290400D01*
X20231600Y16290400D01*
X20231600Y17002851D01*
X20281600Y17002851D01*
X20281600Y16290400D01*
X21122700Y16290400D01*
X21211400Y16379100D01*
X21211400Y16550345D01*
X21197765Y16618892D01*
X21178501Y16665400D01*
X21197765Y16711908D01*
X21211400Y16780455D01*
X21211400Y16951700D01*
X21122700Y17040400D01*
X21049930Y17040400D01*
X21118329Y17061582D01*
X21262257Y17156424D01*
X21374064Y17287608D01*
X21444898Y17444748D01*
X21460260Y17552851D01*
X21507291Y17552851D01*
X21515435Y17511908D01*
X21534699Y17465400D01*
X21515435Y17418892D01*
X21501800Y17350345D01*
X21501800Y17179100D01*
X21590500Y17090400D01*
X21663270Y17090400D01*
X21594871Y17069218D01*
X21450943Y16974376D01*
X21339136Y16843192D01*
X21268302Y16686052D01*
X21244051Y16515400D01*
X21244051Y16015400D01*
X21251792Y15918324D01*
X21295264Y15777949D01*
X21205909Y15777949D01*
X21197765Y15818892D01*
X21178501Y15865400D01*
X21197765Y15911908D01*
X21211400Y15980455D01*
X21211400Y16151700D01*
X21122700Y16240400D01*
X20281600Y16240400D01*
X20281600Y15527949D01*
X20231600Y15527949D01*
X20231600Y16240400D01*
X19390500Y16240400D01*
X19301800Y16151700D01*
X19301800Y15980455D01*
X19315435Y15911908D01*
X19334699Y15865400D01*
X19315435Y15818892D01*
X19301800Y15750345D01*
X19301800Y15624910D01*
X18068200Y16858510D01*
X18068200Y17823400D01*
X18061564Y17891082D01*
X18055631Y17958898D01*
X18054550Y17962619D01*
X18054172Y17966473D01*
X18034507Y18031605D01*
X18015523Y18096949D01*
X18013741Y18100387D01*
X18012621Y18104096D01*
X17980677Y18164173D01*
X17949365Y18224581D01*
X17946948Y18227608D01*
X17945130Y18231028D01*
X17902116Y18283768D01*
X17859677Y18336931D01*
X17854363Y18342320D01*
X17854270Y18342434D01*
X17854165Y18342521D01*
X17852455Y18344255D01*
X17585910Y18610800D01*
X18071685Y18610800D01*
X18051783Y18564366D01*
G36*
X5483254Y18766947D02*
X5673000Y18635070D01*
X5673000Y18585400D01*
X5679766Y18516395D01*
X5686047Y18447375D01*
X5686776Y18444899D01*
X5687028Y18442327D01*
X5707068Y18375953D01*
X5726636Y18309465D01*
X5727833Y18307176D01*
X5728579Y18304704D01*
X5761112Y18243518D01*
X5793239Y18182065D01*
X5794858Y18180051D01*
X5796070Y18177772D01*
X5839876Y18124060D01*
X5883319Y18070028D01*
X5885297Y18068368D01*
X5886930Y18066366D01*
X5940307Y18022209D01*
X5993445Y17977621D01*
X5995712Y17976375D01*
X5997699Y17974731D01*
X6058599Y17941803D01*
X6119422Y17908365D01*
X6121886Y17907583D01*
X6124156Y17906356D01*
X6190302Y17885880D01*
X6256452Y17864896D01*
X6259022Y17864608D01*
X6261486Y17863845D01*
X6330388Y17856603D01*
X6399315Y17848872D01*
X6404275Y17848837D01*
X6404458Y17848818D01*
X6404642Y17848835D01*
X6409600Y17848800D01*
X8137651Y17848800D01*
X8137651Y16989349D01*
X6902000Y16989349D01*
X6804924Y16981608D01*
X6640271Y16930618D01*
X6496343Y16835776D01*
X6493125Y16832000D01*
X5175400Y16832000D01*
X5107843Y16825376D01*
X5040270Y16819464D01*
X5036564Y16818387D01*
X5032715Y16818010D01*
X4967700Y16798381D01*
X4902594Y16779466D01*
X4899166Y16777689D01*
X4895466Y16776572D01*
X4835548Y16744713D01*
X4775309Y16713488D01*
X4772289Y16711077D01*
X4768879Y16709264D01*
X4716301Y16666382D01*
X4663263Y16624043D01*
X4657888Y16618742D01*
X4657776Y16618651D01*
X4657690Y16618547D01*
X4655960Y16616841D01*
X4071723Y16032605D01*
X4033834Y16124531D01*
X3898763Y16327830D01*
X3726776Y16501021D01*
X3674721Y16536133D01*
X3699560Y16551896D01*
X3876315Y16720218D01*
X4017009Y16919665D01*
X4116285Y17142642D01*
X4170360Y17380656D01*
X4174253Y17659439D01*
X4160414Y17729332D01*
X5343131Y18912049D01*
X5483254Y18766947D01*
X5483254Y18766947D01*
G37*
X5483254Y18766947D02*
X5673000Y18635070D01*
X5673000Y18585400D01*
X5679766Y18516395D01*
X5686047Y18447375D01*
X5686776Y18444899D01*
X5687028Y18442327D01*
X5707068Y18375953D01*
X5726636Y18309465D01*
X5727833Y18307176D01*
X5728579Y18304704D01*
X5761112Y18243518D01*
X5793239Y18182065D01*
X5794858Y18180051D01*
X5796070Y18177772D01*
X5839876Y18124060D01*
X5883319Y18070028D01*
X5885297Y18068368D01*
X5886930Y18066366D01*
X5940307Y18022209D01*
X5993445Y17977621D01*
X5995712Y17976375D01*
X5997699Y17974731D01*
X6058599Y17941803D01*
X6119422Y17908365D01*
X6121886Y17907583D01*
X6124156Y17906356D01*
X6190302Y17885880D01*
X6256452Y17864896D01*
X6259022Y17864608D01*
X6261486Y17863845D01*
X6330388Y17856603D01*
X6399315Y17848872D01*
X6404275Y17848837D01*
X6404458Y17848818D01*
X6404642Y17848835D01*
X6409600Y17848800D01*
X8137651Y17848800D01*
X8137651Y16989349D01*
X6902000Y16989349D01*
X6804924Y16981608D01*
X6640271Y16930618D01*
X6496343Y16835776D01*
X6493125Y16832000D01*
X5175400Y16832000D01*
X5107843Y16825376D01*
X5040270Y16819464D01*
X5036564Y16818387D01*
X5032715Y16818010D01*
X4967700Y16798381D01*
X4902594Y16779466D01*
X4899166Y16777689D01*
X4895466Y16776572D01*
X4835548Y16744713D01*
X4775309Y16713488D01*
X4772289Y16711077D01*
X4768879Y16709264D01*
X4716301Y16666382D01*
X4663263Y16624043D01*
X4657888Y16618742D01*
X4657776Y16618651D01*
X4657690Y16618547D01*
X4655960Y16616841D01*
X4071723Y16032605D01*
X4033834Y16124531D01*
X3898763Y16327830D01*
X3726776Y16501021D01*
X3674721Y16536133D01*
X3699560Y16551896D01*
X3876315Y16720218D01*
X4017009Y16919665D01*
X4116285Y17142642D01*
X4170360Y17380656D01*
X4174253Y17659439D01*
X4160414Y17729332D01*
X5343131Y18912049D01*
X5483254Y18766947D01*
G36*
X20659000Y23233290D02*
X20659000Y21100000D01*
X16088245Y21100000D01*
X15988321Y21167400D01*
X15823877Y21236525D01*
X15649139Y21272394D01*
X15629623Y21272530D01*
X15589778Y21294435D01*
X15586089Y21295605D01*
X15582673Y21297437D01*
X15517582Y21317337D01*
X15452748Y21337904D01*
X15448898Y21338336D01*
X15445195Y21339468D01*
X15377480Y21346346D01*
X15313331Y21353541D01*
X15234576Y21473057D01*
X15116314Y21573851D01*
X15361500Y21573851D01*
X15458576Y21581592D01*
X15623229Y21632582D01*
X15767157Y21727424D01*
X15844376Y21818026D01*
X15893781Y21843635D01*
X15896808Y21846052D01*
X15900228Y21847870D01*
X15952968Y21890884D01*
X16006131Y21933323D01*
X16011520Y21938637D01*
X16011634Y21938730D01*
X16011721Y21938835D01*
X16013455Y21940545D01*
X16158155Y22085245D01*
X16207882Y21924671D01*
X16302724Y21780743D01*
X16433908Y21668936D01*
X16591048Y21598102D01*
X16761700Y21573851D01*
X17961700Y21573851D01*
X18058776Y21581592D01*
X18223429Y21632582D01*
X18286438Y21674102D01*
X18299180Y21643339D01*
X18338009Y21585228D01*
X18387428Y21535809D01*
X18445539Y21496980D01*
X18510109Y21470235D01*
X18578655Y21456600D01*
X19249900Y21456600D01*
X19338600Y21545300D01*
X19338600Y22436400D01*
X19388600Y22436400D01*
X19388600Y21545300D01*
X19477300Y21456600D01*
X20148545Y21456600D01*
X20217091Y21470235D01*
X20281661Y21496980D01*
X20339772Y21535809D01*
X20389191Y21585228D01*
X20428020Y21643339D01*
X20454765Y21707908D01*
X20468400Y21776455D01*
X20468400Y22347700D01*
X20379700Y22436400D01*
X19388600Y22436400D01*
X19338600Y22436400D01*
X19318600Y22436400D01*
X19318600Y22486400D01*
X19338600Y22486400D01*
X19338600Y22506400D01*
X19388600Y22506400D01*
X19388600Y22486400D01*
X20379700Y22486400D01*
X20468400Y22575100D01*
X20468400Y23146345D01*
X20455638Y23210502D01*
X20519257Y23252424D01*
X20574753Y23317537D01*
X20659000Y23233290D01*
X20659000Y23233290D01*
G37*
X20659000Y23233290D02*
X20659000Y21100000D01*
X16088245Y21100000D01*
X15988321Y21167400D01*
X15823877Y21236525D01*
X15649139Y21272394D01*
X15629623Y21272530D01*
X15589778Y21294435D01*
X15586089Y21295605D01*
X15582673Y21297437D01*
X15517582Y21317337D01*
X15452748Y21337904D01*
X15448898Y21338336D01*
X15445195Y21339468D01*
X15377480Y21346346D01*
X15313331Y21353541D01*
X15234576Y21473057D01*
X15116314Y21573851D01*
X15361500Y21573851D01*
X15458576Y21581592D01*
X15623229Y21632582D01*
X15767157Y21727424D01*
X15844376Y21818026D01*
X15893781Y21843635D01*
X15896808Y21846052D01*
X15900228Y21847870D01*
X15952968Y21890884D01*
X16006131Y21933323D01*
X16011520Y21938637D01*
X16011634Y21938730D01*
X16011721Y21938835D01*
X16013455Y21940545D01*
X16158155Y22085245D01*
X16207882Y21924671D01*
X16302724Y21780743D01*
X16433908Y21668936D01*
X16591048Y21598102D01*
X16761700Y21573851D01*
X17961700Y21573851D01*
X18058776Y21581592D01*
X18223429Y21632582D01*
X18286438Y21674102D01*
X18299180Y21643339D01*
X18338009Y21585228D01*
X18387428Y21535809D01*
X18445539Y21496980D01*
X18510109Y21470235D01*
X18578655Y21456600D01*
X19249900Y21456600D01*
X19338600Y21545300D01*
X19338600Y22436400D01*
X19388600Y22436400D01*
X19388600Y21545300D01*
X19477300Y21456600D01*
X20148545Y21456600D01*
X20217091Y21470235D01*
X20281661Y21496980D01*
X20339772Y21535809D01*
X20389191Y21585228D01*
X20428020Y21643339D01*
X20454765Y21707908D01*
X20468400Y21776455D01*
X20468400Y22347700D01*
X20379700Y22436400D01*
X19388600Y22436400D01*
X19338600Y22436400D01*
X19318600Y22436400D01*
X19318600Y22486400D01*
X19338600Y22486400D01*
X19338600Y22506400D01*
X19388600Y22506400D01*
X19388600Y22486400D01*
X20379700Y22486400D01*
X20468400Y22575100D01*
X20468400Y23146345D01*
X20455638Y23210502D01*
X20519257Y23252424D01*
X20574753Y23317537D01*
X20659000Y23233290D01*
G36*
X22062895Y27692741D02*
X22234688Y27573342D01*
X22426401Y27489585D01*
X22630730Y27444660D01*
X22839895Y27440278D01*
X23045927Y27476607D01*
X23199000Y27535980D01*
X23199000Y23805410D01*
X22144745Y22751155D01*
X22132200Y22735882D01*
X22132200Y23538400D01*
X22125564Y23606082D01*
X22119631Y23673898D01*
X22118550Y23677619D01*
X22118172Y23681473D01*
X22098507Y23746605D01*
X22079523Y23811949D01*
X22077741Y23815387D01*
X22076621Y23819096D01*
X22044677Y23879173D01*
X22013365Y23939581D01*
X22010948Y23942608D01*
X22009130Y23946028D01*
X21966116Y23998768D01*
X21923677Y24051931D01*
X21918363Y24057320D01*
X21918270Y24057434D01*
X21918165Y24057521D01*
X21916455Y24059255D01*
X21094296Y24881414D01*
X21156941Y24944060D01*
X21200020Y24996505D01*
X21243628Y25048475D01*
X21245487Y25051856D01*
X21247942Y25054845D01*
X21280046Y25114719D01*
X21312697Y25174110D01*
X21313864Y25177788D01*
X21315691Y25181196D01*
X21335540Y25246122D01*
X21356047Y25310768D01*
X21356478Y25314607D01*
X21357607Y25318301D01*
X21363856Y25379821D01*
X21493157Y25465024D01*
X21604964Y25596208D01*
X21675798Y25753348D01*
X21700049Y25924000D01*
X21700049Y26624000D01*
X21692308Y26721076D01*
X21641318Y26885729D01*
X21616926Y26922745D01*
X21675798Y27053348D01*
X21700049Y27224000D01*
X21700049Y27519167D01*
X21969911Y27789029D01*
X22062895Y27692741D01*
X22062895Y27692741D01*
G37*
X22062895Y27692741D02*
X22234688Y27573342D01*
X22426401Y27489585D01*
X22630730Y27444660D01*
X22839895Y27440278D01*
X23045927Y27476607D01*
X23199000Y27535980D01*
X23199000Y23805410D01*
X22144745Y22751155D01*
X22132200Y22735882D01*
X22132200Y23538400D01*
X22125564Y23606082D01*
X22119631Y23673898D01*
X22118550Y23677619D01*
X22118172Y23681473D01*
X22098507Y23746605D01*
X22079523Y23811949D01*
X22077741Y23815387D01*
X22076621Y23819096D01*
X22044677Y23879173D01*
X22013365Y23939581D01*
X22010948Y23942608D01*
X22009130Y23946028D01*
X21966116Y23998768D01*
X21923677Y24051931D01*
X21918363Y24057320D01*
X21918270Y24057434D01*
X21918165Y24057521D01*
X21916455Y24059255D01*
X21094296Y24881414D01*
X21156941Y24944060D01*
X21200020Y24996505D01*
X21243628Y25048475D01*
X21245487Y25051856D01*
X21247942Y25054845D01*
X21280046Y25114719D01*
X21312697Y25174110D01*
X21313864Y25177788D01*
X21315691Y25181196D01*
X21335540Y25246122D01*
X21356047Y25310768D01*
X21356478Y25314607D01*
X21357607Y25318301D01*
X21363856Y25379821D01*
X21493157Y25465024D01*
X21604964Y25596208D01*
X21675798Y25753348D01*
X21700049Y25924000D01*
X21700049Y26624000D01*
X21692308Y26721076D01*
X21641318Y26885729D01*
X21616926Y26922745D01*
X21675798Y27053348D01*
X21700049Y27224000D01*
X21700049Y27519167D01*
X21969911Y27789029D01*
X22062895Y27692741D01*
G36*
X13895400Y23436400D02*
X14736500Y23436400D01*
X14736500Y23456400D01*
X14786500Y23456400D01*
X14786500Y23436400D01*
X14806500Y23436400D01*
X14806500Y23386400D01*
X14786500Y23386400D01*
X14786500Y23366400D01*
X14736500Y23366400D01*
X14736500Y23386400D01*
X13895400Y23386400D01*
X13806700Y23297700D01*
X13806700Y23228888D01*
X13755843Y23195376D01*
X13644036Y23064192D01*
X13610400Y22989573D01*
X13610400Y23146345D01*
X13597638Y23210502D01*
X13661257Y23252424D01*
X13773064Y23383608D01*
X13827478Y23504322D01*
X13895400Y23436400D01*
X13895400Y23436400D01*
G37*
X13895400Y23436400D02*
X14736500Y23436400D01*
X14736500Y23456400D01*
X14786500Y23456400D01*
X14786500Y23436400D01*
X14806500Y23436400D01*
X14806500Y23386400D01*
X14786500Y23386400D01*
X14786500Y23366400D01*
X14736500Y23366400D01*
X14736500Y23386400D01*
X13895400Y23386400D01*
X13806700Y23297700D01*
X13806700Y23228888D01*
X13755843Y23195376D01*
X13644036Y23064192D01*
X13610400Y22989573D01*
X13610400Y23146345D01*
X13597638Y23210502D01*
X13661257Y23252424D01*
X13773064Y23383608D01*
X13827478Y23504322D01*
X13895400Y23436400D01*
G36*
X25726600Y33088400D02*
X25746600Y33088400D01*
X25746600Y33038400D01*
X25726600Y33038400D01*
X25726600Y32397300D01*
X25759000Y32364900D01*
X25726600Y32332500D01*
X25726600Y31691400D01*
X25746600Y31691400D01*
X25746600Y31641400D01*
X25726600Y31641400D01*
X25726600Y31000300D01*
X25771700Y30955200D01*
X25726600Y30910100D01*
X25726600Y30269000D01*
X25746600Y30269000D01*
X25746600Y30219000D01*
X25726600Y30219000D01*
X25726600Y29577900D01*
X25815300Y29489200D01*
X25875000Y29489200D01*
X25875000Y28351759D01*
X25726776Y28501021D01*
X25524426Y28637508D01*
X25299419Y28732092D01*
X25060326Y28781171D01*
X24816253Y28782875D01*
X24672200Y28755395D01*
X24672200Y29237081D01*
X24698676Y29239192D01*
X24863329Y29290182D01*
X25007257Y29385024D01*
X25119064Y29516208D01*
X25127047Y29533918D01*
X25133539Y29529580D01*
X25198109Y29502835D01*
X25266655Y29489200D01*
X25587900Y29489200D01*
X25676600Y29577900D01*
X25676600Y30219000D01*
X25656600Y30219000D01*
X25656600Y30269000D01*
X25676600Y30269000D01*
X25676600Y30910100D01*
X25631500Y30955200D01*
X25676600Y31000300D01*
X25676600Y31641400D01*
X25656600Y31641400D01*
X25656600Y31691400D01*
X25676600Y31691400D01*
X25676600Y32332500D01*
X25644200Y32364900D01*
X25676600Y32397300D01*
X25676600Y33038400D01*
X25656600Y33038400D01*
X25656600Y33088400D01*
X25676600Y33088400D01*
X25676600Y33108400D01*
X25726600Y33108400D01*
X25726600Y33088400D01*
X25726600Y33088400D01*
G37*
X25726600Y33088400D02*
X25746600Y33088400D01*
X25746600Y33038400D01*
X25726600Y33038400D01*
X25726600Y32397300D01*
X25759000Y32364900D01*
X25726600Y32332500D01*
X25726600Y31691400D01*
X25746600Y31691400D01*
X25746600Y31641400D01*
X25726600Y31641400D01*
X25726600Y31000300D01*
X25771700Y30955200D01*
X25726600Y30910100D01*
X25726600Y30269000D01*
X25746600Y30269000D01*
X25746600Y30219000D01*
X25726600Y30219000D01*
X25726600Y29577900D01*
X25815300Y29489200D01*
X25875000Y29489200D01*
X25875000Y28351759D01*
X25726776Y28501021D01*
X25524426Y28637508D01*
X25299419Y28732092D01*
X25060326Y28781171D01*
X24816253Y28782875D01*
X24672200Y28755395D01*
X24672200Y29237081D01*
X24698676Y29239192D01*
X24863329Y29290182D01*
X25007257Y29385024D01*
X25119064Y29516208D01*
X25127047Y29533918D01*
X25133539Y29529580D01*
X25198109Y29502835D01*
X25266655Y29489200D01*
X25587900Y29489200D01*
X25676600Y29577900D01*
X25676600Y30219000D01*
X25656600Y30219000D01*
X25656600Y30269000D01*
X25676600Y30269000D01*
X25676600Y30910100D01*
X25631500Y30955200D01*
X25676600Y31000300D01*
X25676600Y31641400D01*
X25656600Y31641400D01*
X25656600Y31691400D01*
X25676600Y31691400D01*
X25676600Y32332500D01*
X25644200Y32364900D01*
X25676600Y32397300D01*
X25676600Y33038400D01*
X25656600Y33038400D01*
X25656600Y33088400D01*
X25676600Y33088400D01*
X25676600Y33108400D01*
X25726600Y33108400D01*
X25726600Y33088400D01*
M02*
