G04 #@! TF.FileFunction,Copper,L2,Bot,Signal*
%FSLAX46Y46*%
G04 Gerber Fmt 4.6, Leading zero omitted, Abs format (unit mm)*
G04 Created by KiCad (PCBNEW 4.0.2+dfsg1-stable) date Thu 12 Jan 2017 20:01:21 CET*
%MOMM*%
G01*
G04 APERTURE LIST*
%ADD10C,0.100000*%
%ADD11C,0.150000*%
%ADD12C,1.270000*%
%ADD13C,1.625600*%
%ADD14C,1.524000*%
%ADD15C,2.999740*%
%ADD16C,0.600000*%
%ADD17C,0.250000*%
%ADD18C,0.254000*%
%ADD19C,0.203200*%
G04 APERTURE END LIST*
D10*
D11*
X1666666Y0D02*
G75*
G03X1666666Y0I-1666666J0D01*
G01*
X-2500000Y0D02*
X2500000Y0D01*
X0Y2500000D02*
X0Y-2500000D01*
X59600Y43400D02*
X26559600Y43400D01*
X26559600Y43400D02*
X26559600Y34043400D01*
X26559600Y34043400D02*
X59600Y34043400D01*
X59600Y34043400D02*
X59600Y43400D01*
D12*
X2929600Y27537400D03*
X2929600Y25537400D03*
X2929600Y23537400D03*
X2929600Y21537400D03*
X2929600Y19537400D03*
X2929600Y17537400D03*
X2929600Y15537400D03*
X2929600Y13537400D03*
X2929600Y11537400D03*
X2929600Y9537400D03*
X24929600Y9537400D03*
X24929600Y11537400D03*
X24929600Y13537400D03*
X24929600Y15537400D03*
X24929600Y17537400D03*
X24929600Y19537400D03*
X24929600Y21537400D03*
X24929600Y23537400D03*
X24929600Y25537400D03*
X24929600Y27537400D03*
D10*
G36*
X13392381Y6844612D02*
X9640263Y7506212D01*
X10081329Y10007624D01*
X13833447Y9346024D01*
X13392381Y6844612D01*
X13392381Y6844612D01*
G37*
G36*
X16673914Y25455115D02*
X12921796Y26116715D01*
X13362862Y28618127D01*
X17114980Y27956527D01*
X16673914Y25455115D01*
X16673914Y25455115D01*
G37*
D13*
X1329600Y2075400D03*
X1329600Y4615400D03*
X3869600Y2075400D03*
X3869600Y4615400D03*
X6409600Y2075400D03*
X6409600Y4615400D03*
X8949600Y2075400D03*
X8949600Y4615400D03*
X11489600Y2075400D03*
X11489600Y4615400D03*
X14029600Y2075400D03*
X14029600Y4615400D03*
X16569600Y2075400D03*
X16569600Y4615400D03*
X19109600Y2075400D03*
X19109600Y4615400D03*
X21649600Y2075400D03*
X21649600Y4615400D03*
X24189600Y2075400D03*
X24189600Y4615400D03*
X11489600Y19855400D03*
X6409600Y19855400D03*
X6409600Y22395400D03*
X24189600Y7155400D03*
X19109600Y9695400D03*
X8949600Y22395400D03*
X8949600Y19855400D03*
X16569600Y7155400D03*
D14*
X19808500Y30247000D03*
X16308500Y30247000D03*
X22208500Y19494500D03*
X22208500Y15748000D03*
D15*
X12558500Y31797000D03*
X7058500Y31797000D03*
D16*
X18605500Y11049000D03*
X9842500Y14605000D03*
X12124600Y12362400D03*
X8255000Y29781500D03*
X18923000Y17208500D03*
X25590500Y29019500D03*
X20764500Y22733000D03*
X4000500Y8191500D03*
X17462500Y21209000D03*
X10600600Y12108400D03*
X5520600Y12616400D03*
X15553600Y20363400D03*
X21395600Y10584400D03*
X7806600Y7790400D03*
X18855600Y19347400D03*
X12065000Y27051000D03*
X17331600Y28745400D03*
X14859000Y29464000D03*
X4889500Y16065500D03*
X13521600Y12870400D03*
X23050500Y11747500D03*
X17966600Y14648400D03*
X16061600Y17315400D03*
X22098000Y7937500D03*
X13394600Y14775400D03*
X21399500Y7239000D03*
X12636500Y13906500D03*
X11743600Y15918400D03*
X23046600Y13124400D03*
X948600Y8298400D03*
X6921500Y24955500D03*
X18605500Y25844500D03*
X18923000Y18288000D03*
X20383500Y19621500D03*
X17081500Y8826500D03*
X17335500Y10096500D03*
D17*
X18605500Y11049000D02*
X16383000Y11049000D01*
X16065500Y10731500D02*
X16065500Y9080500D01*
X16383000Y11049000D02*
X16065500Y10731500D01*
X9842500Y14605000D02*
X9842500Y14859000D01*
X12124600Y12362400D02*
X12124600Y10477500D01*
X12124600Y10477500D02*
X12124600Y8813863D01*
X8255000Y29781500D02*
X7058500Y30978000D01*
X7058500Y30978000D02*
X7058500Y31797000D01*
X17462500Y18669000D02*
X17462500Y21209000D01*
X18923000Y17208500D02*
X17462500Y18669000D01*
X24638000Y29019500D02*
X25590500Y29019500D01*
X23558500Y27940000D02*
X24638000Y29019500D01*
X23558500Y25527000D02*
X23558500Y27940000D01*
X20764500Y22733000D02*
X23558500Y25527000D01*
X5365750Y6826250D02*
X8921750Y6826250D01*
X4000500Y8191500D02*
X5365750Y6826250D01*
X11736855Y8426118D02*
X10521618Y8426118D01*
X10521618Y8426118D02*
X8921750Y6826250D01*
X8921750Y6826250D02*
X7683500Y5588000D01*
X2667000Y2603500D02*
X1329600Y3940900D01*
X2667000Y1270000D02*
X2667000Y2603500D01*
X3175000Y762000D02*
X2667000Y1270000D01*
X7302500Y762000D02*
X3175000Y762000D01*
X7683500Y1143000D02*
X7302500Y762000D01*
X7683500Y5588000D02*
X7683500Y1143000D01*
X1329600Y3940900D02*
X1329600Y4615400D01*
X12124600Y8813863D02*
X11736855Y8426118D01*
X8949600Y22395400D02*
X16276100Y22395400D01*
X16276100Y22395400D02*
X17462500Y21209000D01*
D18*
X10600600Y16299400D02*
X13267600Y18966400D01*
X10600600Y16299400D02*
X8949600Y16299400D01*
X13267600Y18966400D02*
X14156600Y18966400D01*
X14156600Y18966400D02*
X15553600Y20363400D01*
X12886600Y15664400D02*
X14918600Y15664400D01*
X10600600Y13378400D02*
X12886600Y15664400D01*
X10600600Y12108400D02*
X10600600Y13378400D01*
X10600600Y13378400D02*
X10600600Y16299400D01*
X7806600Y7790400D02*
X7806600Y9314400D01*
X7806600Y9314400D02*
X10600600Y12108400D01*
X14918600Y15664400D02*
X17585600Y12997400D01*
X17585600Y12997400D02*
X18982600Y12997400D01*
X18982600Y12997400D02*
X21395600Y10584400D01*
X8949600Y16299400D02*
X8949600Y19855400D01*
X8949600Y19855400D02*
X7679600Y21125400D01*
X7679600Y21125400D02*
X7679600Y22903400D01*
X7679600Y22903400D02*
X3107600Y27475400D01*
X3107600Y27475400D02*
X2853600Y27475400D01*
X10092600Y12616400D02*
X5520600Y12616400D01*
X10600600Y12108400D02*
X10092600Y12616400D01*
X18855600Y19347400D02*
X21014600Y21506400D01*
X21014600Y21506400D02*
X24898600Y21506400D01*
X24898600Y21506400D02*
X24929600Y21537400D01*
D17*
X19808500Y30247000D02*
X19808500Y30293000D01*
X19808500Y30293000D02*
X17018000Y33083500D01*
X13845000Y33083500D02*
X12558500Y31797000D01*
X17018000Y33083500D02*
X13845000Y33083500D01*
X19808500Y30247000D02*
X18833200Y30247000D01*
X18833200Y30247000D02*
X17331600Y28745400D01*
X12079379Y27036621D02*
X15018388Y27036621D01*
X12065000Y27051000D02*
X12079379Y27036621D01*
D18*
X15553600Y26967400D02*
X17331600Y28745400D01*
X15087600Y26967400D02*
X15553600Y26967400D01*
X15018391Y27036619D02*
X15087600Y26967400D01*
D17*
X14859000Y29464000D02*
X15642000Y30247000D01*
X15642000Y30247000D02*
X16308500Y30247000D01*
D18*
X6409600Y2075400D02*
X5139600Y3345400D01*
X4123600Y9187400D02*
X4123600Y14902400D01*
X2853600Y7917400D02*
X4123600Y9187400D01*
X2853600Y7409400D02*
X2853600Y7917400D01*
X5139600Y5123400D02*
X2853600Y7409400D01*
X5139600Y3345400D02*
X5139600Y5123400D01*
D17*
X4123600Y15299600D02*
X4123600Y14902400D01*
X4889500Y16065500D02*
X4123600Y15299600D01*
D18*
X16569600Y2075400D02*
X15299600Y3345400D01*
X13521600Y11727400D02*
X13521600Y12870400D01*
X14537600Y10711400D02*
X13521600Y11727400D01*
X14537600Y6139400D02*
X14537600Y10711400D01*
X15299600Y5377400D02*
X14537600Y6139400D01*
X15299600Y3345400D02*
X15299600Y5377400D01*
X19617600Y14648400D02*
X17966600Y14648400D01*
X22538600Y11727400D02*
X19617600Y14648400D01*
X23050500Y11747500D02*
X22538600Y11727400D01*
X23050500Y11747500D02*
X22923500Y11747500D01*
D17*
X22094100Y8171400D02*
X22094100Y7941400D01*
D18*
X16315600Y17061400D02*
X16061600Y17315400D01*
X16315600Y15029400D02*
X16315600Y17061400D01*
X16315600Y15029400D02*
X17712600Y13632400D01*
X17712600Y13632400D02*
X19744600Y13632400D01*
X19744600Y13632400D02*
X22094100Y11282900D01*
X22094100Y11282900D02*
X22094100Y8171400D01*
D17*
X22094100Y7941400D02*
X22098000Y7937500D01*
D18*
X20510500Y10072500D02*
X18855600Y11727400D01*
X18855600Y11727400D02*
X17331600Y11727400D01*
X17331600Y11727400D02*
X14283600Y14775400D01*
X14283600Y14775400D02*
X13394600Y14775400D01*
D17*
X20828000Y9755000D02*
X20510500Y10072500D01*
X20828000Y7810500D02*
X20828000Y9755000D01*
X21399500Y7239000D02*
X20828000Y7810500D01*
X21649600Y2075400D02*
X21292600Y2075400D01*
X21292600Y2075400D02*
X20129500Y3238500D01*
X13906500Y13906500D02*
X12636500Y13906500D01*
X15240000Y12573000D02*
X13906500Y13906500D01*
X15240000Y6286500D02*
X15240000Y12573000D01*
X15684500Y5842000D02*
X15240000Y6286500D01*
X17335500Y5842000D02*
X15684500Y5842000D01*
X17907000Y5270500D02*
X17335500Y5842000D01*
X17907000Y3365500D02*
X17907000Y5270500D01*
X18034000Y3238500D02*
X17907000Y3365500D01*
X20129500Y3238500D02*
X18034000Y3238500D01*
D18*
X23046600Y13124400D02*
X22030600Y13124400D01*
X22030600Y13124400D02*
X16823600Y18331400D01*
X16823600Y18331400D02*
X14156600Y18331400D01*
X14156600Y18331400D02*
X11743600Y15918400D01*
X3267600Y25537400D02*
X2929600Y25537400D01*
X6409600Y22395400D02*
X3267600Y25537400D01*
X2853600Y25570400D02*
X2980600Y25570400D01*
X948600Y22776400D02*
X1837600Y23665400D01*
X1837600Y23665400D02*
X1837600Y24554400D01*
X1837600Y24554400D02*
X2853600Y25570400D01*
X948600Y8298400D02*
X948600Y22776400D01*
X6409600Y19855400D02*
X2929600Y23335400D01*
X1837600Y7409400D02*
X1837600Y22363700D01*
X2599600Y6647400D02*
X1837600Y7409400D01*
X2599600Y3345400D02*
X2599600Y6647400D01*
X3869600Y2075400D02*
X2599600Y3345400D01*
X1837600Y22395400D02*
X2853600Y23411400D01*
D17*
X17716500Y24955500D02*
X6921500Y24955500D01*
X18605500Y25844500D02*
X17716500Y24955500D01*
X20240000Y17716500D02*
X22208500Y15748000D01*
X19494500Y17716500D02*
X20240000Y17716500D01*
X18923000Y18288000D02*
X19494500Y17716500D01*
X20510500Y19494500D02*
X22208500Y19494500D01*
X20383500Y19621500D02*
X20510500Y19494500D01*
X24189600Y7155400D02*
X24554400Y7155400D01*
X24554400Y7155400D02*
X25971500Y8572500D01*
X25971500Y10495500D02*
X24929600Y11537400D01*
X25971500Y8572500D02*
X25971500Y10495500D01*
X22876200Y5842000D02*
X24189600Y7155400D01*
X20066000Y5842000D02*
X22876200Y5842000D01*
X17081500Y8826500D02*
X20066000Y5842000D01*
D18*
X24189600Y7155400D02*
X23681600Y7663400D01*
D17*
X24929600Y19537400D02*
X24929600Y19468600D01*
X24929600Y19468600D02*
X23812500Y18351500D01*
X23812500Y18351500D02*
X23812500Y8826500D01*
X23812500Y8826500D02*
X22860000Y7874000D01*
X22860000Y7874000D02*
X22860000Y6985000D01*
X22860000Y6985000D02*
X22352000Y6477000D01*
X22352000Y6477000D02*
X20701000Y6477000D01*
X20701000Y6477000D02*
X20193000Y6985000D01*
X20193000Y6985000D02*
X20193000Y8612000D01*
X20193000Y8612000D02*
X19109600Y9695400D01*
X19109600Y9695400D02*
X17736600Y9695400D01*
X17736600Y9695400D02*
X17335500Y10096500D01*
D19*
G36*
X7678373Y1422078D02*
X7829481Y1187605D01*
X8023254Y986947D01*
X8252311Y827748D01*
X8480626Y728000D01*
X6869324Y728000D01*
X7054031Y799643D01*
X7289554Y949110D01*
X7491559Y1141478D01*
X7652353Y1369418D01*
X7677161Y1425138D01*
X7678373Y1422078D01*
X7678373Y1422078D01*
G37*
X7678373Y1422078D02*
X7829481Y1187605D01*
X8023254Y986947D01*
X8252311Y827748D01*
X8480626Y728000D01*
X6869324Y728000D01*
X7054031Y799643D01*
X7289554Y949110D01*
X7491559Y1141478D01*
X7652353Y1369418D01*
X7677161Y1425138D01*
X7678373Y1422078D01*
G36*
X2598373Y1422078D02*
X2749481Y1187605D01*
X2943254Y986947D01*
X3172311Y827748D01*
X3400626Y728000D01*
X1789324Y728000D01*
X1974031Y799643D01*
X2209554Y949110D01*
X2411559Y1141478D01*
X2572353Y1369418D01*
X2597161Y1425138D01*
X2598373Y1422078D01*
X2598373Y1422078D01*
G37*
X2598373Y1422078D02*
X2749481Y1187605D01*
X2943254Y986947D01*
X3172311Y827748D01*
X3400626Y728000D01*
X1789324Y728000D01*
X1974031Y799643D01*
X2209554Y949110D01*
X2411559Y1141478D01*
X2572353Y1369418D01*
X2597161Y1425138D01*
X2598373Y1422078D01*
G36*
X1379098Y4629542D02*
X1364955Y4615400D01*
X1379098Y4601258D01*
X1343742Y4565902D01*
X1329600Y4580045D01*
X1315458Y4565902D01*
X1280102Y4601258D01*
X1294245Y4615400D01*
X1280102Y4629542D01*
X1315458Y4664898D01*
X1329600Y4650755D01*
X1343742Y4664898D01*
X1379098Y4629542D01*
X1379098Y4629542D01*
G37*
X1379098Y4629542D02*
X1364955Y4615400D01*
X1379098Y4601258D01*
X1343742Y4565902D01*
X1329600Y4580045D01*
X1315458Y4565902D01*
X1280102Y4601258D01*
X1294245Y4615400D01*
X1280102Y4629542D01*
X1315458Y4664898D01*
X1329600Y4650755D01*
X1343742Y4664898D01*
X1379098Y4629542D01*
G36*
X11823573Y13488712D02*
X11920203Y13338770D01*
X12044118Y13210453D01*
X12190596Y13108648D01*
X12354058Y13037233D01*
X12528279Y12998929D01*
X12618557Y12997038D01*
X12613295Y12972283D01*
X12610805Y12793918D01*
X12643006Y12618467D01*
X12708673Y12452612D01*
X12785000Y12334174D01*
X12785000Y11727400D01*
X12791636Y11659723D01*
X12797569Y11591901D01*
X12798650Y11588179D01*
X12799028Y11584327D01*
X12818689Y11519207D01*
X12837677Y11453851D01*
X12839459Y11450413D01*
X12840579Y11446704D01*
X12872523Y11386627D01*
X12903835Y11326219D01*
X12906252Y11323192D01*
X12908070Y11319772D01*
X12951084Y11267032D01*
X12993523Y11213869D01*
X12998837Y11208480D01*
X12998930Y11208366D01*
X12999035Y11208279D01*
X13000745Y11206545D01*
X13801000Y10406290D01*
X13801000Y9712019D01*
X12130971Y10006490D01*
X12028216Y9934540D01*
X11765816Y8446397D01*
X11785513Y8442924D01*
X11776830Y8393684D01*
X11757134Y8397157D01*
X11494734Y6909014D01*
X11566684Y6806259D01*
X13296356Y6501271D01*
X13365184Y6489134D01*
X13435057Y6490659D01*
X13503290Y6505786D01*
X13567261Y6533934D01*
X13624510Y6574021D01*
X13672840Y6624506D01*
X13710391Y6683450D01*
X13735722Y6748588D01*
X13801000Y7118797D01*
X13801000Y6139400D01*
X13807636Y6071723D01*
X13811986Y6021999D01*
X13626054Y5986530D01*
X13367419Y5882035D01*
X13134006Y5729294D01*
X12934706Y5534125D01*
X12777111Y5303962D01*
X12760408Y5264991D01*
X12751581Y5286407D01*
X12597214Y5518748D01*
X12400659Y5716681D01*
X12169401Y5872666D01*
X11912250Y5980762D01*
X11639001Y6036852D01*
X11360060Y6038800D01*
X11086054Y5986530D01*
X10827419Y5882035D01*
X10594006Y5729294D01*
X10394706Y5534125D01*
X10237111Y5303962D01*
X10220408Y5264991D01*
X10211581Y5286407D01*
X10057214Y5518748D01*
X9860659Y5716681D01*
X9629401Y5872666D01*
X9372250Y5980762D01*
X9099001Y6036852D01*
X8820060Y6038800D01*
X8546054Y5986530D01*
X8287419Y5882035D01*
X8054006Y5729294D01*
X7854706Y5534125D01*
X7697111Y5303962D01*
X7680408Y5264991D01*
X7671581Y5286407D01*
X7517214Y5518748D01*
X7320659Y5716681D01*
X7089401Y5872666D01*
X6832250Y5980762D01*
X6559001Y6036852D01*
X6280060Y6038800D01*
X6006054Y5986530D01*
X5747419Y5882035D01*
X5551126Y5753584D01*
X3641310Y7663400D01*
X4644455Y8666545D01*
X4687634Y8719112D01*
X4731379Y8771245D01*
X4733246Y8774640D01*
X4735703Y8777632D01*
X4767845Y8837578D01*
X4800635Y8897222D01*
X4801806Y8900915D01*
X4803636Y8904327D01*
X4823523Y8969373D01*
X4844104Y9034252D01*
X4844536Y9038102D01*
X4845668Y9041805D01*
X4852546Y9109520D01*
X4860128Y9177115D01*
X4860181Y9184681D01*
X4860196Y9184829D01*
X4860183Y9184967D01*
X4860200Y9187400D01*
X4860200Y11990787D01*
X4928218Y11920353D01*
X5074696Y11818548D01*
X5238158Y11747133D01*
X5412379Y11708829D01*
X5590721Y11705093D01*
X5766393Y11736068D01*
X5932703Y11800576D01*
X6057540Y11879800D01*
X9330290Y11879800D01*
X7285745Y9835255D01*
X7242566Y9782688D01*
X7198821Y9730555D01*
X7196954Y9727160D01*
X7194497Y9724168D01*
X7162335Y9664187D01*
X7129565Y9604578D01*
X7128395Y9600889D01*
X7126563Y9597473D01*
X7106663Y9532382D01*
X7086096Y9467548D01*
X7085664Y9463698D01*
X7084532Y9459995D01*
X7077654Y9392280D01*
X7070072Y9324685D01*
X7070019Y9317119D01*
X7070004Y9316971D01*
X7070017Y9316833D01*
X7070000Y9314400D01*
X7070000Y8324697D01*
X7005655Y8230723D01*
X6935383Y8066766D01*
X6898295Y7892283D01*
X6895805Y7713918D01*
X6928006Y7538467D01*
X6993673Y7372612D01*
X7090303Y7222670D01*
X7214218Y7094353D01*
X7360696Y6992548D01*
X7524158Y6921133D01*
X7698379Y6882829D01*
X7876721Y6879093D01*
X8052393Y6910068D01*
X8218703Y6974576D01*
X8369315Y7070157D01*
X8498494Y7193173D01*
X8601319Y7338937D01*
X8673874Y7501896D01*
X8681033Y7533408D01*
X9284785Y7533408D01*
X9286310Y7463535D01*
X9301436Y7395303D01*
X9329585Y7331332D01*
X9369671Y7274082D01*
X9420157Y7225752D01*
X9479102Y7188201D01*
X9544239Y7162870D01*
X9613067Y7150734D01*
X11342739Y6845746D01*
X11445494Y6917696D01*
X11707894Y8405839D01*
X9594398Y8778505D01*
X9491643Y8706556D01*
X9284785Y7533408D01*
X8681033Y7533408D01*
X8713394Y7675845D01*
X8716239Y7879591D01*
X8681591Y8054575D01*
X8613615Y8219497D01*
X8543200Y8325480D01*
X8543200Y8930501D01*
X9531130Y8930501D01*
X9603080Y8827746D01*
X11716576Y8455079D01*
X11978976Y9943222D01*
X11907026Y10045977D01*
X10177354Y10350965D01*
X10108526Y10363102D01*
X10038653Y10361577D01*
X9970420Y10346450D01*
X9906449Y10318302D01*
X9849200Y10278215D01*
X9800870Y10227730D01*
X9763319Y10168786D01*
X9737988Y10103648D01*
X9531130Y8930501D01*
X8543200Y8930501D01*
X8543200Y9009290D01*
X10743907Y11209997D01*
X10846393Y11228068D01*
X11012703Y11292576D01*
X11163315Y11388157D01*
X11292494Y11511173D01*
X11395319Y11656937D01*
X11467874Y11819896D01*
X11507394Y11993845D01*
X11510239Y12197591D01*
X11475591Y12372575D01*
X11407615Y12537497D01*
X11337200Y12643480D01*
X11337200Y13073290D01*
X11803449Y13539539D01*
X11823573Y13488712D01*
X11823573Y13488712D01*
G37*
X11823573Y13488712D02*
X11920203Y13338770D01*
X12044118Y13210453D01*
X12190596Y13108648D01*
X12354058Y13037233D01*
X12528279Y12998929D01*
X12618557Y12997038D01*
X12613295Y12972283D01*
X12610805Y12793918D01*
X12643006Y12618467D01*
X12708673Y12452612D01*
X12785000Y12334174D01*
X12785000Y11727400D01*
X12791636Y11659723D01*
X12797569Y11591901D01*
X12798650Y11588179D01*
X12799028Y11584327D01*
X12818689Y11519207D01*
X12837677Y11453851D01*
X12839459Y11450413D01*
X12840579Y11446704D01*
X12872523Y11386627D01*
X12903835Y11326219D01*
X12906252Y11323192D01*
X12908070Y11319772D01*
X12951084Y11267032D01*
X12993523Y11213869D01*
X12998837Y11208480D01*
X12998930Y11208366D01*
X12999035Y11208279D01*
X13000745Y11206545D01*
X13801000Y10406290D01*
X13801000Y9712019D01*
X12130971Y10006490D01*
X12028216Y9934540D01*
X11765816Y8446397D01*
X11785513Y8442924D01*
X11776830Y8393684D01*
X11757134Y8397157D01*
X11494734Y6909014D01*
X11566684Y6806259D01*
X13296356Y6501271D01*
X13365184Y6489134D01*
X13435057Y6490659D01*
X13503290Y6505786D01*
X13567261Y6533934D01*
X13624510Y6574021D01*
X13672840Y6624506D01*
X13710391Y6683450D01*
X13735722Y6748588D01*
X13801000Y7118797D01*
X13801000Y6139400D01*
X13807636Y6071723D01*
X13811986Y6021999D01*
X13626054Y5986530D01*
X13367419Y5882035D01*
X13134006Y5729294D01*
X12934706Y5534125D01*
X12777111Y5303962D01*
X12760408Y5264991D01*
X12751581Y5286407D01*
X12597214Y5518748D01*
X12400659Y5716681D01*
X12169401Y5872666D01*
X11912250Y5980762D01*
X11639001Y6036852D01*
X11360060Y6038800D01*
X11086054Y5986530D01*
X10827419Y5882035D01*
X10594006Y5729294D01*
X10394706Y5534125D01*
X10237111Y5303962D01*
X10220408Y5264991D01*
X10211581Y5286407D01*
X10057214Y5518748D01*
X9860659Y5716681D01*
X9629401Y5872666D01*
X9372250Y5980762D01*
X9099001Y6036852D01*
X8820060Y6038800D01*
X8546054Y5986530D01*
X8287419Y5882035D01*
X8054006Y5729294D01*
X7854706Y5534125D01*
X7697111Y5303962D01*
X7680408Y5264991D01*
X7671581Y5286407D01*
X7517214Y5518748D01*
X7320659Y5716681D01*
X7089401Y5872666D01*
X6832250Y5980762D01*
X6559001Y6036852D01*
X6280060Y6038800D01*
X6006054Y5986530D01*
X5747419Y5882035D01*
X5551126Y5753584D01*
X3641310Y7663400D01*
X4644455Y8666545D01*
X4687634Y8719112D01*
X4731379Y8771245D01*
X4733246Y8774640D01*
X4735703Y8777632D01*
X4767845Y8837578D01*
X4800635Y8897222D01*
X4801806Y8900915D01*
X4803636Y8904327D01*
X4823523Y8969373D01*
X4844104Y9034252D01*
X4844536Y9038102D01*
X4845668Y9041805D01*
X4852546Y9109520D01*
X4860128Y9177115D01*
X4860181Y9184681D01*
X4860196Y9184829D01*
X4860183Y9184967D01*
X4860200Y9187400D01*
X4860200Y11990787D01*
X4928218Y11920353D01*
X5074696Y11818548D01*
X5238158Y11747133D01*
X5412379Y11708829D01*
X5590721Y11705093D01*
X5766393Y11736068D01*
X5932703Y11800576D01*
X6057540Y11879800D01*
X9330290Y11879800D01*
X7285745Y9835255D01*
X7242566Y9782688D01*
X7198821Y9730555D01*
X7196954Y9727160D01*
X7194497Y9724168D01*
X7162335Y9664187D01*
X7129565Y9604578D01*
X7128395Y9600889D01*
X7126563Y9597473D01*
X7106663Y9532382D01*
X7086096Y9467548D01*
X7085664Y9463698D01*
X7084532Y9459995D01*
X7077654Y9392280D01*
X7070072Y9324685D01*
X7070019Y9317119D01*
X7070004Y9316971D01*
X7070017Y9316833D01*
X7070000Y9314400D01*
X7070000Y8324697D01*
X7005655Y8230723D01*
X6935383Y8066766D01*
X6898295Y7892283D01*
X6895805Y7713918D01*
X6928006Y7538467D01*
X6993673Y7372612D01*
X7090303Y7222670D01*
X7214218Y7094353D01*
X7360696Y6992548D01*
X7524158Y6921133D01*
X7698379Y6882829D01*
X7876721Y6879093D01*
X8052393Y6910068D01*
X8218703Y6974576D01*
X8369315Y7070157D01*
X8498494Y7193173D01*
X8601319Y7338937D01*
X8673874Y7501896D01*
X8681033Y7533408D01*
X9284785Y7533408D01*
X9286310Y7463535D01*
X9301436Y7395303D01*
X9329585Y7331332D01*
X9369671Y7274082D01*
X9420157Y7225752D01*
X9479102Y7188201D01*
X9544239Y7162870D01*
X9613067Y7150734D01*
X11342739Y6845746D01*
X11445494Y6917696D01*
X11707894Y8405839D01*
X9594398Y8778505D01*
X9491643Y8706556D01*
X9284785Y7533408D01*
X8681033Y7533408D01*
X8713394Y7675845D01*
X8716239Y7879591D01*
X8681591Y8054575D01*
X8613615Y8219497D01*
X8543200Y8325480D01*
X8543200Y8930501D01*
X9531130Y8930501D01*
X9603080Y8827746D01*
X11716576Y8455079D01*
X11978976Y9943222D01*
X11907026Y10045977D01*
X10177354Y10350965D01*
X10108526Y10363102D01*
X10038653Y10361577D01*
X9970420Y10346450D01*
X9906449Y10318302D01*
X9849200Y10278215D01*
X9800870Y10227730D01*
X9763319Y10168786D01*
X9737988Y10103648D01*
X9531130Y8930501D01*
X8543200Y8930501D01*
X8543200Y9009290D01*
X10743907Y11209997D01*
X10846393Y11228068D01*
X11012703Y11292576D01*
X11163315Y11388157D01*
X11292494Y11511173D01*
X11395319Y11656937D01*
X11467874Y11819896D01*
X11507394Y11993845D01*
X11510239Y12197591D01*
X11475591Y12372575D01*
X11407615Y12537497D01*
X11337200Y12643480D01*
X11337200Y13073290D01*
X11803449Y13539539D01*
X11823573Y13488712D01*
G36*
X16810745Y11206545D02*
X16863312Y11163366D01*
X16915445Y11119621D01*
X16918840Y11117754D01*
X16921832Y11115297D01*
X16981794Y11083146D01*
X17041422Y11050365D01*
X17045113Y11049194D01*
X17048528Y11047363D01*
X17113604Y11027467D01*
X17178452Y11006896D01*
X17182302Y11006464D01*
X17186005Y11005332D01*
X17224688Y11001403D01*
X17077440Y10973314D01*
X16912047Y10906491D01*
X16762783Y10808816D01*
X16635335Y10684009D01*
X16534555Y10536823D01*
X16464283Y10372866D01*
X16427195Y10198383D01*
X16424705Y10020018D01*
X16456906Y9844567D01*
X16522573Y9678712D01*
X16581896Y9586660D01*
X16508783Y9538816D01*
X16381335Y9414009D01*
X16280555Y9266823D01*
X16210283Y9102866D01*
X16173195Y8928383D01*
X16170705Y8750018D01*
X16202906Y8574567D01*
X16218002Y8536440D01*
X16166054Y8526530D01*
X15974600Y8449178D01*
X15974600Y12042690D01*
X16810745Y11206545D01*
X16810745Y11206545D01*
G37*
X16810745Y11206545D02*
X16863312Y11163366D01*
X16915445Y11119621D01*
X16918840Y11117754D01*
X16921832Y11115297D01*
X16981794Y11083146D01*
X17041422Y11050365D01*
X17045113Y11049194D01*
X17048528Y11047363D01*
X17113604Y11027467D01*
X17178452Y11006896D01*
X17182302Y11006464D01*
X17186005Y11005332D01*
X17224688Y11001403D01*
X17077440Y10973314D01*
X16912047Y10906491D01*
X16762783Y10808816D01*
X16635335Y10684009D01*
X16534555Y10536823D01*
X16464283Y10372866D01*
X16427195Y10198383D01*
X16424705Y10020018D01*
X16456906Y9844567D01*
X16522573Y9678712D01*
X16581896Y9586660D01*
X16508783Y9538816D01*
X16381335Y9414009D01*
X16280555Y9266823D01*
X16210283Y9102866D01*
X16173195Y8928383D01*
X16170705Y8750018D01*
X16202906Y8574567D01*
X16218002Y8536440D01*
X16166054Y8526530D01*
X15974600Y8449178D01*
X15974600Y12042690D01*
X16810745Y11206545D01*
G36*
X2979098Y9551542D02*
X2964955Y9537400D01*
X2979098Y9523257D01*
X2943743Y9487902D01*
X2929600Y9502045D01*
X2915458Y9487902D01*
X2880103Y9523257D01*
X2894245Y9537400D01*
X2880103Y9551542D01*
X2915458Y9586897D01*
X2929600Y9572755D01*
X2943743Y9586897D01*
X2979098Y9551542D01*
X2979098Y9551542D01*
G37*
X2979098Y9551542D02*
X2964955Y9537400D01*
X2979098Y9523257D01*
X2943743Y9487902D01*
X2929600Y9502045D01*
X2915458Y9487902D01*
X2880103Y9523257D01*
X2894245Y9537400D01*
X2880103Y9551542D01*
X2915458Y9586897D01*
X2929600Y9572755D01*
X2943743Y9586897D01*
X2979098Y9551542D01*
G36*
X5027676Y20195614D02*
X4989225Y20014721D01*
X4985331Y19735801D01*
X5035686Y19461436D01*
X5138373Y19202078D01*
X5289481Y18967605D01*
X5483254Y18766947D01*
X5712311Y18607748D01*
X5967928Y18496072D01*
X6240367Y18436172D01*
X6519253Y18430330D01*
X6793962Y18478769D01*
X7054031Y18579643D01*
X7289554Y18729110D01*
X7491559Y18921478D01*
X7652353Y19149418D01*
X7677161Y19205138D01*
X7678373Y19202078D01*
X7829481Y18967605D01*
X8023254Y18766947D01*
X8213000Y18635070D01*
X8213000Y16299400D01*
X8219766Y16230395D01*
X8226047Y16161375D01*
X8226776Y16158899D01*
X8227028Y16156327D01*
X8247068Y16089953D01*
X8266636Y16023465D01*
X8267833Y16021176D01*
X8268579Y16018704D01*
X8301112Y15957518D01*
X8333239Y15896065D01*
X8334858Y15894051D01*
X8336070Y15891772D01*
X8379876Y15838060D01*
X8423319Y15784028D01*
X8425297Y15782368D01*
X8426930Y15780366D01*
X8480307Y15736209D01*
X8533445Y15691621D01*
X8535712Y15690375D01*
X8537699Y15688731D01*
X8598599Y15655803D01*
X8659422Y15622365D01*
X8661886Y15621583D01*
X8664156Y15620356D01*
X8730302Y15599880D01*
X8796452Y15578896D01*
X8799022Y15578608D01*
X8801486Y15577845D01*
X8870388Y15570603D01*
X8939315Y15562872D01*
X8944275Y15562837D01*
X8944458Y15562818D01*
X8944642Y15562835D01*
X8949600Y15562800D01*
X9864000Y15562800D01*
X9864000Y13353000D01*
X6055245Y13353000D01*
X5955321Y13420400D01*
X5790877Y13489525D01*
X5616139Y13525394D01*
X5437762Y13526639D01*
X5262540Y13493214D01*
X5097147Y13426391D01*
X4947883Y13328716D01*
X4860200Y13242850D01*
X4860200Y14902400D01*
X4858200Y14922798D01*
X4858200Y14995318D01*
X5029374Y15166492D01*
X5135293Y15185168D01*
X5301603Y15249676D01*
X5452215Y15345257D01*
X5581394Y15468273D01*
X5684219Y15614037D01*
X5756774Y15776996D01*
X5796294Y15950945D01*
X5799139Y16154691D01*
X5764491Y16329675D01*
X5696515Y16494597D01*
X5597800Y16643175D01*
X5472106Y16769750D01*
X5324221Y16869500D01*
X5159777Y16938625D01*
X4985039Y16974494D01*
X4806662Y16975739D01*
X4631440Y16942314D01*
X4466047Y16875491D01*
X4316783Y16777816D01*
X4189335Y16653009D01*
X4088555Y16505823D01*
X4018283Y16341866D01*
X3988941Y16203823D01*
X3984262Y16199144D01*
X3898763Y16327830D01*
X3726776Y16501021D01*
X3674721Y16536133D01*
X3699560Y16551896D01*
X3876315Y16720218D01*
X4017009Y16919665D01*
X4116285Y17142642D01*
X4170360Y17380656D01*
X4174253Y17659439D01*
X4126845Y17898870D01*
X4033834Y18124531D01*
X3898763Y18327830D01*
X3726776Y18501021D01*
X3674721Y18536133D01*
X3699560Y18551896D01*
X3876315Y18720218D01*
X4017009Y18919665D01*
X4116285Y19142642D01*
X4170360Y19380656D01*
X4174253Y19659439D01*
X4126845Y19898870D01*
X4033834Y20124531D01*
X3898763Y20327830D01*
X3726776Y20501021D01*
X3674721Y20536133D01*
X3699560Y20551896D01*
X3876315Y20720218D01*
X4017009Y20919665D01*
X4105306Y21117984D01*
X5027676Y20195614D01*
X5027676Y20195614D01*
G37*
X5027676Y20195614D02*
X4989225Y20014721D01*
X4985331Y19735801D01*
X5035686Y19461436D01*
X5138373Y19202078D01*
X5289481Y18967605D01*
X5483254Y18766947D01*
X5712311Y18607748D01*
X5967928Y18496072D01*
X6240367Y18436172D01*
X6519253Y18430330D01*
X6793962Y18478769D01*
X7054031Y18579643D01*
X7289554Y18729110D01*
X7491559Y18921478D01*
X7652353Y19149418D01*
X7677161Y19205138D01*
X7678373Y19202078D01*
X7829481Y18967605D01*
X8023254Y18766947D01*
X8213000Y18635070D01*
X8213000Y16299400D01*
X8219766Y16230395D01*
X8226047Y16161375D01*
X8226776Y16158899D01*
X8227028Y16156327D01*
X8247068Y16089953D01*
X8266636Y16023465D01*
X8267833Y16021176D01*
X8268579Y16018704D01*
X8301112Y15957518D01*
X8333239Y15896065D01*
X8334858Y15894051D01*
X8336070Y15891772D01*
X8379876Y15838060D01*
X8423319Y15784028D01*
X8425297Y15782368D01*
X8426930Y15780366D01*
X8480307Y15736209D01*
X8533445Y15691621D01*
X8535712Y15690375D01*
X8537699Y15688731D01*
X8598599Y15655803D01*
X8659422Y15622365D01*
X8661886Y15621583D01*
X8664156Y15620356D01*
X8730302Y15599880D01*
X8796452Y15578896D01*
X8799022Y15578608D01*
X8801486Y15577845D01*
X8870388Y15570603D01*
X8939315Y15562872D01*
X8944275Y15562837D01*
X8944458Y15562818D01*
X8944642Y15562835D01*
X8949600Y15562800D01*
X9864000Y15562800D01*
X9864000Y13353000D01*
X6055245Y13353000D01*
X5955321Y13420400D01*
X5790877Y13489525D01*
X5616139Y13525394D01*
X5437762Y13526639D01*
X5262540Y13493214D01*
X5097147Y13426391D01*
X4947883Y13328716D01*
X4860200Y13242850D01*
X4860200Y14902400D01*
X4858200Y14922798D01*
X4858200Y14995318D01*
X5029374Y15166492D01*
X5135293Y15185168D01*
X5301603Y15249676D01*
X5452215Y15345257D01*
X5581394Y15468273D01*
X5684219Y15614037D01*
X5756774Y15776996D01*
X5796294Y15950945D01*
X5799139Y16154691D01*
X5764491Y16329675D01*
X5696515Y16494597D01*
X5597800Y16643175D01*
X5472106Y16769750D01*
X5324221Y16869500D01*
X5159777Y16938625D01*
X4985039Y16974494D01*
X4806662Y16975739D01*
X4631440Y16942314D01*
X4466047Y16875491D01*
X4316783Y16777816D01*
X4189335Y16653009D01*
X4088555Y16505823D01*
X4018283Y16341866D01*
X3988941Y16203823D01*
X3984262Y16199144D01*
X3898763Y16327830D01*
X3726776Y16501021D01*
X3674721Y16536133D01*
X3699560Y16551896D01*
X3876315Y16720218D01*
X4017009Y16919665D01*
X4116285Y17142642D01*
X4170360Y17380656D01*
X4174253Y17659439D01*
X4126845Y17898870D01*
X4033834Y18124531D01*
X3898763Y18327830D01*
X3726776Y18501021D01*
X3674721Y18536133D01*
X3699560Y18551896D01*
X3876315Y18720218D01*
X4017009Y18919665D01*
X4116285Y19142642D01*
X4170360Y19380656D01*
X4174253Y19659439D01*
X4126845Y19898870D01*
X4033834Y20124531D01*
X3898763Y20327830D01*
X3726776Y20501021D01*
X3674721Y20536133D01*
X3699560Y20551896D01*
X3876315Y20720218D01*
X4017009Y20919665D01*
X4105306Y21117984D01*
X5027676Y20195614D01*
G36*
X25875000Y28351759D02*
X25726776Y28501021D01*
X25524426Y28637508D01*
X25299419Y28732092D01*
X25060326Y28781171D01*
X24816253Y28782875D01*
X24576498Y28737139D01*
X24350192Y28645706D01*
X24145955Y28512057D01*
X23971568Y28341284D01*
X23833672Y28139892D01*
X23737519Y27915550D01*
X23686772Y27676805D01*
X23683364Y27432751D01*
X23727425Y27192682D01*
X23817276Y26965743D01*
X23949496Y26760579D01*
X24119047Y26585003D01*
X24186154Y26538362D01*
X24145955Y26512057D01*
X23971568Y26341284D01*
X23833672Y26139892D01*
X23737519Y25915550D01*
X23686772Y25676805D01*
X23683364Y25432751D01*
X23727425Y25192682D01*
X23817276Y24965743D01*
X23949496Y24760579D01*
X24119047Y24585003D01*
X24186154Y24538362D01*
X24145955Y24512057D01*
X23971568Y24341284D01*
X23833672Y24139892D01*
X23737519Y23915550D01*
X23686772Y23676805D01*
X23683364Y23432751D01*
X23727425Y23192682D01*
X23817276Y22965743D01*
X23949496Y22760579D01*
X24119047Y22585003D01*
X24186154Y22538362D01*
X24145955Y22512057D01*
X23971568Y22341284D01*
X23904272Y22243000D01*
X21014600Y22243000D01*
X20946923Y22236364D01*
X20879101Y22230431D01*
X20875379Y22229350D01*
X20871527Y22228972D01*
X20806407Y22209311D01*
X20741051Y22190323D01*
X20737613Y22188541D01*
X20733904Y22187421D01*
X20673827Y22155477D01*
X20613419Y22124165D01*
X20610392Y22121748D01*
X20606972Y22119930D01*
X20554201Y22076892D01*
X20501069Y22034476D01*
X20495681Y22029164D01*
X20495566Y22029070D01*
X20495478Y22028964D01*
X20493745Y22027255D01*
X18712665Y20246175D01*
X18597540Y20224214D01*
X18432147Y20157391D01*
X18282883Y20059716D01*
X18155435Y19934909D01*
X18054655Y19787723D01*
X17984383Y19623766D01*
X17947295Y19449283D01*
X17944805Y19270918D01*
X17977006Y19095467D01*
X18042673Y18929612D01*
X18139303Y18779670D01*
X18149783Y18768818D01*
X18122055Y18728323D01*
X18051783Y18564366D01*
X18014695Y18389883D01*
X18012205Y18211518D01*
X18018277Y18178433D01*
X17344455Y18852255D01*
X17291888Y18895434D01*
X17239755Y18939179D01*
X17236360Y18941046D01*
X17233368Y18943503D01*
X17173387Y18975665D01*
X17113778Y19008435D01*
X17110089Y19009605D01*
X17106673Y19011437D01*
X17041582Y19031337D01*
X16976748Y19051904D01*
X16972898Y19052336D01*
X16969195Y19053468D01*
X16901480Y19060346D01*
X16833885Y19067928D01*
X16826319Y19067981D01*
X16826171Y19067996D01*
X16826033Y19067983D01*
X16823600Y19068000D01*
X15299910Y19068000D01*
X15696907Y19464997D01*
X15799393Y19483068D01*
X15965703Y19547576D01*
X16116315Y19643157D01*
X16245494Y19766173D01*
X16348319Y19911937D01*
X16420874Y20074896D01*
X16460394Y20248845D01*
X16463239Y20452591D01*
X16428591Y20627575D01*
X16360615Y20792497D01*
X16261900Y20941075D01*
X16136206Y21067650D01*
X15988321Y21167400D01*
X15823877Y21236525D01*
X15649139Y21272394D01*
X15470762Y21273639D01*
X15295540Y21240214D01*
X15130147Y21173391D01*
X14980883Y21075716D01*
X14853435Y20950909D01*
X14752655Y20803723D01*
X14682383Y20639766D01*
X14653804Y20505314D01*
X13851490Y19703000D01*
X13267600Y19703000D01*
X13199918Y19696364D01*
X13132102Y19690431D01*
X13128381Y19689350D01*
X13124527Y19688972D01*
X13059395Y19669307D01*
X12994051Y19650323D01*
X12990612Y19648541D01*
X12986904Y19647421D01*
X12926866Y19615498D01*
X12889393Y19596075D01*
X12907612Y19676263D01*
X12912061Y19994873D01*
X12857880Y20268508D01*
X12751581Y20526407D01*
X12597214Y20758748D01*
X12400659Y20956681D01*
X12169401Y21112666D01*
X11912250Y21220762D01*
X11639001Y21276852D01*
X11360060Y21278800D01*
X11086054Y21226530D01*
X10827419Y21122035D01*
X10594006Y20969294D01*
X10394706Y20774125D01*
X10237111Y20543962D01*
X10220408Y20504991D01*
X10211581Y20526407D01*
X10057214Y20758748D01*
X9860659Y20956681D01*
X9629401Y21112666D01*
X9372250Y21220762D01*
X9206890Y21254706D01*
X9379044Y21303570D01*
X9583798Y21408329D01*
X9618838Y21431741D01*
X9698611Y21611033D01*
X8949600Y22360045D01*
X8935458Y22345902D01*
X8900102Y22381258D01*
X8914245Y22395400D01*
X8984955Y22395400D01*
X9733967Y21646389D01*
X9913259Y21726162D01*
X10025304Y21927022D01*
X10096010Y22145881D01*
X10122661Y22374329D01*
X10104232Y22603586D01*
X10041430Y22824844D01*
X9936671Y23029598D01*
X9913259Y23064638D01*
X9733967Y23144411D01*
X8984955Y22395400D01*
X8914245Y22395400D01*
X8900102Y22409542D01*
X8935458Y22444897D01*
X8949600Y22430755D01*
X9698611Y23179767D01*
X9618838Y23359059D01*
X9417978Y23471104D01*
X9199119Y23541810D01*
X8970671Y23568461D01*
X8741414Y23550032D01*
X8520156Y23487230D01*
X8315402Y23382471D01*
X8280362Y23359059D01*
X8271042Y23338111D01*
X8250129Y23363752D01*
X8207676Y23416932D01*
X8202363Y23422320D01*
X8202270Y23422434D01*
X8202165Y23422521D01*
X8200455Y23424255D01*
X7426243Y24198467D01*
X7461592Y24220900D01*
X17716500Y24220900D01*
X17784057Y24227524D01*
X17851630Y24233436D01*
X17855336Y24234513D01*
X17859185Y24234890D01*
X17924187Y24254515D01*
X17989307Y24273434D01*
X17992736Y24275212D01*
X17996434Y24276328D01*
X18056352Y24308187D01*
X18116592Y24339413D01*
X18119610Y24341823D01*
X18123021Y24343636D01*
X18175605Y24386522D01*
X18228637Y24428857D01*
X18234016Y24434161D01*
X18234124Y24434249D01*
X18234206Y24434349D01*
X18235941Y24436059D01*
X18745374Y24945492D01*
X18851293Y24964168D01*
X19017603Y25028676D01*
X19168215Y25124257D01*
X19297394Y25247273D01*
X19400219Y25393037D01*
X19472774Y25555996D01*
X19512294Y25729945D01*
X19515139Y25933691D01*
X19480491Y26108675D01*
X19412515Y26273597D01*
X19313800Y26422175D01*
X19188106Y26548750D01*
X19040221Y26648500D01*
X18875777Y26717625D01*
X18701039Y26753494D01*
X18522662Y26754739D01*
X18347440Y26721314D01*
X18182047Y26654491D01*
X18032783Y26556816D01*
X17905335Y26432009D01*
X17804555Y26284823D01*
X17734283Y26120866D01*
X17704941Y25982823D01*
X17412218Y25690100D01*
X17337347Y25690100D01*
X17718223Y27850159D01*
X17725100Y27922360D01*
X17743703Y27929576D01*
X17894315Y28025157D01*
X18023494Y28148173D01*
X18126319Y28293937D01*
X18182171Y28419382D01*
X21689453Y28419382D01*
X21727219Y28213608D01*
X21804234Y28019089D01*
X21917565Y27843234D01*
X22062895Y27692741D01*
X22234688Y27573342D01*
X22426401Y27489585D01*
X22630730Y27444660D01*
X22839895Y27440278D01*
X23045927Y27476607D01*
X23240979Y27552263D01*
X23417621Y27664363D01*
X23569125Y27808639D01*
X23689721Y27979594D01*
X23774814Y28170717D01*
X23821164Y28374729D01*
X23824501Y28613686D01*
X23783865Y28818912D01*
X23704141Y29012337D01*
X23588366Y29186592D01*
X23440949Y29335042D01*
X23267506Y29452031D01*
X23074643Y29533103D01*
X22869706Y29575171D01*
X22660500Y29576631D01*
X22454996Y29537429D01*
X22261019Y29459058D01*
X22085960Y29344502D01*
X21936484Y29198125D01*
X21818288Y29025503D01*
X21735871Y28833210D01*
X21692374Y28628571D01*
X21689453Y28419382D01*
X18182171Y28419382D01*
X18198874Y28456896D01*
X18233240Y28608158D01*
X18869679Y29244597D01*
X18915237Y29197420D01*
X19136114Y29043906D01*
X19382601Y28936219D01*
X19645311Y28878458D01*
X19914237Y28872825D01*
X20179135Y28919534D01*
X20429916Y29016805D01*
X20657027Y29160934D01*
X20851819Y29346432D01*
X21006870Y29566231D01*
X21116276Y29811961D01*
X21175869Y30074261D01*
X21180159Y30381492D01*
X21127913Y30645354D01*
X21025411Y30894043D01*
X20876557Y31118086D01*
X20687021Y31308950D01*
X20585311Y31377554D01*
X20636569Y31450217D01*
X20720649Y31639065D01*
X20766448Y31840647D01*
X20769745Y32076760D01*
X20729593Y32279542D01*
X20650818Y32470664D01*
X20536421Y32642845D01*
X20390759Y32789528D01*
X20219381Y32905124D01*
X20028814Y32985231D01*
X19826317Y33026798D01*
X19619602Y33028241D01*
X19416544Y32989505D01*
X19224877Y32912067D01*
X19051901Y32798875D01*
X18904206Y32654241D01*
X18787416Y32483673D01*
X18748202Y32392180D01*
X17781582Y33358800D01*
X25875000Y33358800D01*
X25875000Y28351759D01*
X25875000Y28351759D01*
G37*
X25875000Y28351759D02*
X25726776Y28501021D01*
X25524426Y28637508D01*
X25299419Y28732092D01*
X25060326Y28781171D01*
X24816253Y28782875D01*
X24576498Y28737139D01*
X24350192Y28645706D01*
X24145955Y28512057D01*
X23971568Y28341284D01*
X23833672Y28139892D01*
X23737519Y27915550D01*
X23686772Y27676805D01*
X23683364Y27432751D01*
X23727425Y27192682D01*
X23817276Y26965743D01*
X23949496Y26760579D01*
X24119047Y26585003D01*
X24186154Y26538362D01*
X24145955Y26512057D01*
X23971568Y26341284D01*
X23833672Y26139892D01*
X23737519Y25915550D01*
X23686772Y25676805D01*
X23683364Y25432751D01*
X23727425Y25192682D01*
X23817276Y24965743D01*
X23949496Y24760579D01*
X24119047Y24585003D01*
X24186154Y24538362D01*
X24145955Y24512057D01*
X23971568Y24341284D01*
X23833672Y24139892D01*
X23737519Y23915550D01*
X23686772Y23676805D01*
X23683364Y23432751D01*
X23727425Y23192682D01*
X23817276Y22965743D01*
X23949496Y22760579D01*
X24119047Y22585003D01*
X24186154Y22538362D01*
X24145955Y22512057D01*
X23971568Y22341284D01*
X23904272Y22243000D01*
X21014600Y22243000D01*
X20946923Y22236364D01*
X20879101Y22230431D01*
X20875379Y22229350D01*
X20871527Y22228972D01*
X20806407Y22209311D01*
X20741051Y22190323D01*
X20737613Y22188541D01*
X20733904Y22187421D01*
X20673827Y22155477D01*
X20613419Y22124165D01*
X20610392Y22121748D01*
X20606972Y22119930D01*
X20554201Y22076892D01*
X20501069Y22034476D01*
X20495681Y22029164D01*
X20495566Y22029070D01*
X20495478Y22028964D01*
X20493745Y22027255D01*
X18712665Y20246175D01*
X18597540Y20224214D01*
X18432147Y20157391D01*
X18282883Y20059716D01*
X18155435Y19934909D01*
X18054655Y19787723D01*
X17984383Y19623766D01*
X17947295Y19449283D01*
X17944805Y19270918D01*
X17977006Y19095467D01*
X18042673Y18929612D01*
X18139303Y18779670D01*
X18149783Y18768818D01*
X18122055Y18728323D01*
X18051783Y18564366D01*
X18014695Y18389883D01*
X18012205Y18211518D01*
X18018277Y18178433D01*
X17344455Y18852255D01*
X17291888Y18895434D01*
X17239755Y18939179D01*
X17236360Y18941046D01*
X17233368Y18943503D01*
X17173387Y18975665D01*
X17113778Y19008435D01*
X17110089Y19009605D01*
X17106673Y19011437D01*
X17041582Y19031337D01*
X16976748Y19051904D01*
X16972898Y19052336D01*
X16969195Y19053468D01*
X16901480Y19060346D01*
X16833885Y19067928D01*
X16826319Y19067981D01*
X16826171Y19067996D01*
X16826033Y19067983D01*
X16823600Y19068000D01*
X15299910Y19068000D01*
X15696907Y19464997D01*
X15799393Y19483068D01*
X15965703Y19547576D01*
X16116315Y19643157D01*
X16245494Y19766173D01*
X16348319Y19911937D01*
X16420874Y20074896D01*
X16460394Y20248845D01*
X16463239Y20452591D01*
X16428591Y20627575D01*
X16360615Y20792497D01*
X16261900Y20941075D01*
X16136206Y21067650D01*
X15988321Y21167400D01*
X15823877Y21236525D01*
X15649139Y21272394D01*
X15470762Y21273639D01*
X15295540Y21240214D01*
X15130147Y21173391D01*
X14980883Y21075716D01*
X14853435Y20950909D01*
X14752655Y20803723D01*
X14682383Y20639766D01*
X14653804Y20505314D01*
X13851490Y19703000D01*
X13267600Y19703000D01*
X13199918Y19696364D01*
X13132102Y19690431D01*
X13128381Y19689350D01*
X13124527Y19688972D01*
X13059395Y19669307D01*
X12994051Y19650323D01*
X12990612Y19648541D01*
X12986904Y19647421D01*
X12926866Y19615498D01*
X12889393Y19596075D01*
X12907612Y19676263D01*
X12912061Y19994873D01*
X12857880Y20268508D01*
X12751581Y20526407D01*
X12597214Y20758748D01*
X12400659Y20956681D01*
X12169401Y21112666D01*
X11912250Y21220762D01*
X11639001Y21276852D01*
X11360060Y21278800D01*
X11086054Y21226530D01*
X10827419Y21122035D01*
X10594006Y20969294D01*
X10394706Y20774125D01*
X10237111Y20543962D01*
X10220408Y20504991D01*
X10211581Y20526407D01*
X10057214Y20758748D01*
X9860659Y20956681D01*
X9629401Y21112666D01*
X9372250Y21220762D01*
X9206890Y21254706D01*
X9379044Y21303570D01*
X9583798Y21408329D01*
X9618838Y21431741D01*
X9698611Y21611033D01*
X8949600Y22360045D01*
X8935458Y22345902D01*
X8900102Y22381258D01*
X8914245Y22395400D01*
X8984955Y22395400D01*
X9733967Y21646389D01*
X9913259Y21726162D01*
X10025304Y21927022D01*
X10096010Y22145881D01*
X10122661Y22374329D01*
X10104232Y22603586D01*
X10041430Y22824844D01*
X9936671Y23029598D01*
X9913259Y23064638D01*
X9733967Y23144411D01*
X8984955Y22395400D01*
X8914245Y22395400D01*
X8900102Y22409542D01*
X8935458Y22444897D01*
X8949600Y22430755D01*
X9698611Y23179767D01*
X9618838Y23359059D01*
X9417978Y23471104D01*
X9199119Y23541810D01*
X8970671Y23568461D01*
X8741414Y23550032D01*
X8520156Y23487230D01*
X8315402Y23382471D01*
X8280362Y23359059D01*
X8271042Y23338111D01*
X8250129Y23363752D01*
X8207676Y23416932D01*
X8202363Y23422320D01*
X8202270Y23422434D01*
X8202165Y23422521D01*
X8200455Y23424255D01*
X7426243Y24198467D01*
X7461592Y24220900D01*
X17716500Y24220900D01*
X17784057Y24227524D01*
X17851630Y24233436D01*
X17855336Y24234513D01*
X17859185Y24234890D01*
X17924187Y24254515D01*
X17989307Y24273434D01*
X17992736Y24275212D01*
X17996434Y24276328D01*
X18056352Y24308187D01*
X18116592Y24339413D01*
X18119610Y24341823D01*
X18123021Y24343636D01*
X18175605Y24386522D01*
X18228637Y24428857D01*
X18234016Y24434161D01*
X18234124Y24434249D01*
X18234206Y24434349D01*
X18235941Y24436059D01*
X18745374Y24945492D01*
X18851293Y24964168D01*
X19017603Y25028676D01*
X19168215Y25124257D01*
X19297394Y25247273D01*
X19400219Y25393037D01*
X19472774Y25555996D01*
X19512294Y25729945D01*
X19515139Y25933691D01*
X19480491Y26108675D01*
X19412515Y26273597D01*
X19313800Y26422175D01*
X19188106Y26548750D01*
X19040221Y26648500D01*
X18875777Y26717625D01*
X18701039Y26753494D01*
X18522662Y26754739D01*
X18347440Y26721314D01*
X18182047Y26654491D01*
X18032783Y26556816D01*
X17905335Y26432009D01*
X17804555Y26284823D01*
X17734283Y26120866D01*
X17704941Y25982823D01*
X17412218Y25690100D01*
X17337347Y25690100D01*
X17718223Y27850159D01*
X17725100Y27922360D01*
X17743703Y27929576D01*
X17894315Y28025157D01*
X18023494Y28148173D01*
X18126319Y28293937D01*
X18182171Y28419382D01*
X21689453Y28419382D01*
X21727219Y28213608D01*
X21804234Y28019089D01*
X21917565Y27843234D01*
X22062895Y27692741D01*
X22234688Y27573342D01*
X22426401Y27489585D01*
X22630730Y27444660D01*
X22839895Y27440278D01*
X23045927Y27476607D01*
X23240979Y27552263D01*
X23417621Y27664363D01*
X23569125Y27808639D01*
X23689721Y27979594D01*
X23774814Y28170717D01*
X23821164Y28374729D01*
X23824501Y28613686D01*
X23783865Y28818912D01*
X23704141Y29012337D01*
X23588366Y29186592D01*
X23440949Y29335042D01*
X23267506Y29452031D01*
X23074643Y29533103D01*
X22869706Y29575171D01*
X22660500Y29576631D01*
X22454996Y29537429D01*
X22261019Y29459058D01*
X22085960Y29344502D01*
X21936484Y29198125D01*
X21818288Y29025503D01*
X21735871Y28833210D01*
X21692374Y28628571D01*
X21689453Y28419382D01*
X18182171Y28419382D01*
X18198874Y28456896D01*
X18233240Y28608158D01*
X18869679Y29244597D01*
X18915237Y29197420D01*
X19136114Y29043906D01*
X19382601Y28936219D01*
X19645311Y28878458D01*
X19914237Y28872825D01*
X20179135Y28919534D01*
X20429916Y29016805D01*
X20657027Y29160934D01*
X20851819Y29346432D01*
X21006870Y29566231D01*
X21116276Y29811961D01*
X21175869Y30074261D01*
X21180159Y30381492D01*
X21127913Y30645354D01*
X21025411Y30894043D01*
X20876557Y31118086D01*
X20687021Y31308950D01*
X20585311Y31377554D01*
X20636569Y31450217D01*
X20720649Y31639065D01*
X20766448Y31840647D01*
X20769745Y32076760D01*
X20729593Y32279542D01*
X20650818Y32470664D01*
X20536421Y32642845D01*
X20390759Y32789528D01*
X20219381Y32905124D01*
X20028814Y32985231D01*
X19826317Y33026798D01*
X19619602Y33028241D01*
X19416544Y32989505D01*
X19224877Y32912067D01*
X19051901Y32798875D01*
X18904206Y32654241D01*
X18787416Y32483673D01*
X18748202Y32392180D01*
X17781582Y33358800D01*
X25875000Y33358800D01*
X25875000Y28351759D01*
G36*
X5983401Y33319279D02*
X5821227Y33069628D01*
X7058500Y31832355D01*
X8295773Y33069628D01*
X8133599Y33319279D01*
X8064047Y33358800D01*
X11138249Y33358800D01*
X10934733Y33159502D01*
X10701013Y32818162D01*
X10538044Y32437927D01*
X10452033Y32033278D01*
X10446257Y31619630D01*
X10520936Y31212738D01*
X10673225Y30828100D01*
X10897323Y30480367D01*
X11184695Y30182785D01*
X11524395Y29946687D01*
X11903484Y29781067D01*
X12307522Y29692234D01*
X12721120Y29683570D01*
X13128523Y29755406D01*
X13514215Y29905006D01*
X13863503Y30126672D01*
X14163085Y30411959D01*
X14401548Y30750003D01*
X14569811Y31127926D01*
X14661463Y31531334D01*
X14668061Y32003844D01*
X14599738Y32348900D01*
X15729652Y32348900D01*
X15705980Y32293670D01*
X15663001Y32091468D01*
X15660115Y31884768D01*
X15697432Y31681445D01*
X15766363Y31507345D01*
X15669968Y31468399D01*
X15444891Y31321112D01*
X15252709Y31132914D01*
X15100742Y30910971D01*
X14994777Y30663737D01*
X14988007Y30631889D01*
X14719560Y30363442D01*
X14600940Y30340814D01*
X14435547Y30273991D01*
X14286283Y30176316D01*
X14158835Y30051509D01*
X14058055Y29904323D01*
X13987783Y29740366D01*
X13950695Y29565883D01*
X13948205Y29387518D01*
X13980406Y29212067D01*
X14014811Y29125169D01*
X13469230Y29221370D01*
X13372284Y29230604D01*
X13201279Y29208980D01*
X13043069Y29140572D01*
X12910180Y29030795D01*
X12813135Y28888343D01*
X12759619Y28724495D01*
X12594975Y27790750D01*
X12499721Y27855000D01*
X12335277Y27924125D01*
X12160539Y27959994D01*
X11982162Y27961239D01*
X11806940Y27927814D01*
X11641547Y27860991D01*
X11492283Y27763316D01*
X11364835Y27638509D01*
X11264055Y27491323D01*
X11193783Y27327366D01*
X11156695Y27152883D01*
X11154205Y26974518D01*
X11186406Y26799067D01*
X11252073Y26633212D01*
X11348703Y26483270D01*
X11472618Y26354953D01*
X11619096Y26253148D01*
X11782558Y26181733D01*
X11956779Y26143429D01*
X12135121Y26139693D01*
X12310793Y26170668D01*
X12313667Y26171783D01*
X12309319Y26126137D01*
X12330943Y25955132D01*
X12399351Y25796922D01*
X12487595Y25690100D01*
X7459110Y25690100D01*
X7356221Y25759500D01*
X7191777Y25828625D01*
X7017039Y25864494D01*
X6838662Y25865739D01*
X6663440Y25832314D01*
X6498047Y25765491D01*
X6348783Y25667816D01*
X6221335Y25543009D01*
X6164584Y25460126D01*
X4171375Y27453335D01*
X4174253Y27659439D01*
X4126845Y27898870D01*
X4033834Y28124531D01*
X3898763Y28327830D01*
X3726776Y28501021D01*
X3524426Y28637508D01*
X3299419Y28732092D01*
X3060326Y28781171D01*
X2816253Y28782875D01*
X2576498Y28737139D01*
X2350192Y28645706D01*
X2145955Y28512057D01*
X1971568Y28341284D01*
X1833672Y28139892D01*
X1737519Y27915550D01*
X1686772Y27676805D01*
X1683364Y27432751D01*
X1727425Y27192682D01*
X1817276Y26965743D01*
X1949496Y26760579D01*
X2119047Y26585003D01*
X2186154Y26538362D01*
X2145955Y26512057D01*
X1971568Y26341284D01*
X1833672Y26139892D01*
X1737519Y25915550D01*
X1686772Y25676805D01*
X1683493Y25442003D01*
X1316745Y25075255D01*
X1273566Y25022688D01*
X1229821Y24970555D01*
X1227954Y24967160D01*
X1225497Y24964168D01*
X1193335Y24904187D01*
X1160565Y24844578D01*
X1159395Y24840889D01*
X1157563Y24837473D01*
X1137663Y24772382D01*
X1117096Y24707548D01*
X1116664Y24703698D01*
X1115532Y24699995D01*
X1108654Y24632280D01*
X1101072Y24564685D01*
X1101019Y24557119D01*
X1101004Y24556971D01*
X1101017Y24556833D01*
X1101000Y24554400D01*
X1101000Y23970510D01*
X744200Y23613710D01*
X744200Y30068207D01*
X956075Y29739440D01*
X1284334Y29399519D01*
X1672365Y29129830D01*
X2105390Y28940646D01*
X2566913Y28839173D01*
X3039357Y28829277D01*
X3504725Y28911334D01*
X3945291Y29082219D01*
X4344276Y29335422D01*
X4686481Y29661299D01*
X4958872Y30047439D01*
X5151075Y30479132D01*
X5161353Y30524372D01*
X5821227Y30524372D01*
X5983401Y30274721D01*
X6301042Y30094230D01*
X6647790Y29979176D01*
X7010321Y29933979D01*
X7374704Y29960378D01*
X7726935Y30057356D01*
X8053479Y30221188D01*
X8133599Y30274721D01*
X8295773Y30524372D01*
X7058500Y31761645D01*
X5821227Y30524372D01*
X5161353Y30524372D01*
X5255767Y30939936D01*
X5261319Y31337545D01*
X5318856Y31128565D01*
X5482688Y30802021D01*
X5536221Y30721901D01*
X5785872Y30559727D01*
X7023145Y31797000D01*
X7093855Y31797000D01*
X8331128Y30559727D01*
X8580779Y30721901D01*
X8761270Y31039542D01*
X8876324Y31386290D01*
X8921521Y31748821D01*
X8895122Y32113204D01*
X8798144Y32465435D01*
X8634312Y32791979D01*
X8580779Y32872099D01*
X8331128Y33034273D01*
X7093855Y31797000D01*
X7023145Y31797000D01*
X5785872Y33034273D01*
X5536221Y32872099D01*
X5355730Y32554458D01*
X5240676Y32207710D01*
X5195479Y31845179D01*
X5198103Y31808955D01*
X5171518Y31943221D01*
X4991445Y32380112D01*
X4729941Y32773707D01*
X4396969Y33109012D01*
X4026642Y33358800D01*
X6042550Y33358800D01*
X5983401Y33319279D01*
X5983401Y33319279D01*
G37*
X5983401Y33319279D02*
X5821227Y33069628D01*
X7058500Y31832355D01*
X8295773Y33069628D01*
X8133599Y33319279D01*
X8064047Y33358800D01*
X11138249Y33358800D01*
X10934733Y33159502D01*
X10701013Y32818162D01*
X10538044Y32437927D01*
X10452033Y32033278D01*
X10446257Y31619630D01*
X10520936Y31212738D01*
X10673225Y30828100D01*
X10897323Y30480367D01*
X11184695Y30182785D01*
X11524395Y29946687D01*
X11903484Y29781067D01*
X12307522Y29692234D01*
X12721120Y29683570D01*
X13128523Y29755406D01*
X13514215Y29905006D01*
X13863503Y30126672D01*
X14163085Y30411959D01*
X14401548Y30750003D01*
X14569811Y31127926D01*
X14661463Y31531334D01*
X14668061Y32003844D01*
X14599738Y32348900D01*
X15729652Y32348900D01*
X15705980Y32293670D01*
X15663001Y32091468D01*
X15660115Y31884768D01*
X15697432Y31681445D01*
X15766363Y31507345D01*
X15669968Y31468399D01*
X15444891Y31321112D01*
X15252709Y31132914D01*
X15100742Y30910971D01*
X14994777Y30663737D01*
X14988007Y30631889D01*
X14719560Y30363442D01*
X14600940Y30340814D01*
X14435547Y30273991D01*
X14286283Y30176316D01*
X14158835Y30051509D01*
X14058055Y29904323D01*
X13987783Y29740366D01*
X13950695Y29565883D01*
X13948205Y29387518D01*
X13980406Y29212067D01*
X14014811Y29125169D01*
X13469230Y29221370D01*
X13372284Y29230604D01*
X13201279Y29208980D01*
X13043069Y29140572D01*
X12910180Y29030795D01*
X12813135Y28888343D01*
X12759619Y28724495D01*
X12594975Y27790750D01*
X12499721Y27855000D01*
X12335277Y27924125D01*
X12160539Y27959994D01*
X11982162Y27961239D01*
X11806940Y27927814D01*
X11641547Y27860991D01*
X11492283Y27763316D01*
X11364835Y27638509D01*
X11264055Y27491323D01*
X11193783Y27327366D01*
X11156695Y27152883D01*
X11154205Y26974518D01*
X11186406Y26799067D01*
X11252073Y26633212D01*
X11348703Y26483270D01*
X11472618Y26354953D01*
X11619096Y26253148D01*
X11782558Y26181733D01*
X11956779Y26143429D01*
X12135121Y26139693D01*
X12310793Y26170668D01*
X12313667Y26171783D01*
X12309319Y26126137D01*
X12330943Y25955132D01*
X12399351Y25796922D01*
X12487595Y25690100D01*
X7459110Y25690100D01*
X7356221Y25759500D01*
X7191777Y25828625D01*
X7017039Y25864494D01*
X6838662Y25865739D01*
X6663440Y25832314D01*
X6498047Y25765491D01*
X6348783Y25667816D01*
X6221335Y25543009D01*
X6164584Y25460126D01*
X4171375Y27453335D01*
X4174253Y27659439D01*
X4126845Y27898870D01*
X4033834Y28124531D01*
X3898763Y28327830D01*
X3726776Y28501021D01*
X3524426Y28637508D01*
X3299419Y28732092D01*
X3060326Y28781171D01*
X2816253Y28782875D01*
X2576498Y28737139D01*
X2350192Y28645706D01*
X2145955Y28512057D01*
X1971568Y28341284D01*
X1833672Y28139892D01*
X1737519Y27915550D01*
X1686772Y27676805D01*
X1683364Y27432751D01*
X1727425Y27192682D01*
X1817276Y26965743D01*
X1949496Y26760579D01*
X2119047Y26585003D01*
X2186154Y26538362D01*
X2145955Y26512057D01*
X1971568Y26341284D01*
X1833672Y26139892D01*
X1737519Y25915550D01*
X1686772Y25676805D01*
X1683493Y25442003D01*
X1316745Y25075255D01*
X1273566Y25022688D01*
X1229821Y24970555D01*
X1227954Y24967160D01*
X1225497Y24964168D01*
X1193335Y24904187D01*
X1160565Y24844578D01*
X1159395Y24840889D01*
X1157563Y24837473D01*
X1137663Y24772382D01*
X1117096Y24707548D01*
X1116664Y24703698D01*
X1115532Y24699995D01*
X1108654Y24632280D01*
X1101072Y24564685D01*
X1101019Y24557119D01*
X1101004Y24556971D01*
X1101017Y24556833D01*
X1101000Y24554400D01*
X1101000Y23970510D01*
X744200Y23613710D01*
X744200Y30068207D01*
X956075Y29739440D01*
X1284334Y29399519D01*
X1672365Y29129830D01*
X2105390Y28940646D01*
X2566913Y28839173D01*
X3039357Y28829277D01*
X3504725Y28911334D01*
X3945291Y29082219D01*
X4344276Y29335422D01*
X4686481Y29661299D01*
X4958872Y30047439D01*
X5151075Y30479132D01*
X5161353Y30524372D01*
X5821227Y30524372D01*
X5983401Y30274721D01*
X6301042Y30094230D01*
X6647790Y29979176D01*
X7010321Y29933979D01*
X7374704Y29960378D01*
X7726935Y30057356D01*
X8053479Y30221188D01*
X8133599Y30274721D01*
X8295773Y30524372D01*
X7058500Y31761645D01*
X5821227Y30524372D01*
X5161353Y30524372D01*
X5255767Y30939936D01*
X5261319Y31337545D01*
X5318856Y31128565D01*
X5482688Y30802021D01*
X5536221Y30721901D01*
X5785872Y30559727D01*
X7023145Y31797000D01*
X7093855Y31797000D01*
X8331128Y30559727D01*
X8580779Y30721901D01*
X8761270Y31039542D01*
X8876324Y31386290D01*
X8921521Y31748821D01*
X8895122Y32113204D01*
X8798144Y32465435D01*
X8634312Y32791979D01*
X8580779Y32872099D01*
X8331128Y33034273D01*
X7093855Y31797000D01*
X7023145Y31797000D01*
X5785872Y33034273D01*
X5536221Y32872099D01*
X5355730Y32554458D01*
X5240676Y32207710D01*
X5195479Y31845179D01*
X5198103Y31808955D01*
X5171518Y31943221D01*
X4991445Y32380112D01*
X4729941Y32773707D01*
X4396969Y33109012D01*
X4026642Y33358800D01*
X6042550Y33358800D01*
X5983401Y33319279D01*
M02*
