M48
;DRILL file {KiCad 4.0.2+dfsg1-stable} date Thu 12 Jan 2017 19:54:43 CET
;FORMAT={-:-/ absolute / metric / decimal}
FMAT,2
METRIC,TZ
T1C0.400
T2C0.800
T3C1.016
%
G90
G05
M71
T1
X0.949Y8.298
X4.Y8.191
X4.889Y16.066
X5.521Y12.616
X6.921Y24.955
X7.807Y7.79
X8.255Y29.781
X9.842Y14.605
X10.601Y12.108
X11.744Y15.918
X12.065Y27.051
X12.125Y12.362
X12.636Y13.906
X13.395Y14.775
X13.522Y12.87
X14.859Y29.464
X15.554Y20.363
X16.062Y17.315
X17.081Y8.826
X17.332Y28.745
X17.335Y10.096
X17.462Y21.209
X17.967Y14.648
X18.605Y25.845
X18.605Y11.049
X18.856Y19.347
X18.923Y18.288
X18.923Y17.209
X20.383Y19.621
X20.764Y22.733
X21.396Y10.584
X21.399Y7.239
X22.098Y7.938
X23.047Y13.124
X23.05Y11.747
X25.59Y29.019
T2
X2.93Y27.537
X2.93Y25.537
X2.93Y23.537
X2.93Y21.537
X2.93Y19.537
X2.93Y17.537
X2.93Y15.537
X2.93Y13.537
X2.93Y11.537
X2.93Y9.537
X24.93Y27.537
X24.93Y25.537
X24.93Y23.537
X24.93Y21.537
X24.93Y19.537
X24.93Y17.537
X24.93Y15.537
X24.93Y13.537
X24.93Y11.537
X24.93Y9.537
T3
X1.33Y4.615
X1.33Y2.075
X3.87Y4.615
X3.87Y2.075
X6.41Y22.395
X6.41Y19.855
X6.41Y4.615
X6.41Y2.075
X8.95Y22.395
X8.95Y19.855
X8.95Y4.615
X8.95Y2.075
X11.49Y19.855
X11.49Y4.615
X11.49Y2.075
X14.03Y4.615
X14.03Y2.075
X16.57Y7.155
X16.57Y4.615
X16.57Y2.075
X19.11Y9.695
X19.11Y4.615
X19.11Y2.075
X21.65Y4.615
X21.65Y2.075
X24.19Y7.155
X24.19Y4.615
X24.19Y2.075
T0
M30
