%FSLAX45Y45*%
G04 Gerber Fmt 4.5, Leading zero omitted, Abs format (unit mm)*
G04 Created by KiCad (PCBNEW 4.0.2+dfsg1-stable) date Tue 07 Feb 2017 13:12:53 CET*
%MOMM*%
G01*
G04 APERTURE LIST*
%ADD10C,0.127000*%
%ADD11C,0.150000*%
%ADD12C,0.200000*%
%ADD13C,0.300000*%
G04 APERTURE END LIST*
D10*
D11*
X5960Y4340D02*
X2655960Y4340D01*
X2655960Y4340D02*
X2655960Y3404340D01*
X2655960Y3404340D02*
X5960Y3404340D01*
X5960Y3404340D02*
X5960Y4340D01*
D12*
X1869253Y850473D02*
X1960693Y759033D01*
X1960693Y850473D02*
X1869253Y759033D01*
X2230046Y2896628D02*
X2321486Y2805188D01*
X2321486Y2896628D02*
X2230046Y2805188D01*
X465360Y3124340D02*
G75*
G03X465360Y3124340I-180000J0D01*
G01*
D13*
X269889Y-468874D02*
X269889Y-168874D01*
X341317Y-168874D01*
X384174Y-183160D01*
X412746Y-211731D01*
X427031Y-240303D01*
X441317Y-297446D01*
X441317Y-340303D01*
X427031Y-397446D01*
X412746Y-426017D01*
X384174Y-454589D01*
X341317Y-468874D01*
X269889Y-468874D01*
X569889Y-468874D02*
X569889Y-268874D01*
X569889Y-326017D02*
X584174Y-297446D01*
X598460Y-283160D01*
X627031Y-268874D01*
X655603Y-268874D01*
X755603Y-468874D02*
X755603Y-268874D01*
X755603Y-168874D02*
X741317Y-183160D01*
X755603Y-197446D01*
X769888Y-183160D01*
X755603Y-168874D01*
X755603Y-197446D01*
X941317Y-468874D02*
X912746Y-454589D01*
X898460Y-426017D01*
X898460Y-168874D01*
X1098460Y-468874D02*
X1069889Y-454589D01*
X1055603Y-426017D01*
X1055603Y-168874D01*
X1441317Y-468874D02*
X1441317Y-168874D01*
X1541317Y-383160D01*
X1641317Y-168874D01*
X1641317Y-468874D01*
X1912746Y-468874D02*
X1912746Y-311732D01*
X1898460Y-283160D01*
X1869888Y-268874D01*
X1812746Y-268874D01*
X1784174Y-283160D01*
X1912746Y-454589D02*
X1884174Y-468874D01*
X1812746Y-468874D01*
X1784174Y-454589D01*
X1769888Y-426017D01*
X1769888Y-397446D01*
X1784174Y-368874D01*
X1812746Y-354589D01*
X1884174Y-354589D01*
X1912746Y-340303D01*
X2055603Y-268874D02*
X2055603Y-568874D01*
X2055603Y-283160D02*
X2084174Y-268874D01*
X2141317Y-268874D01*
X2169889Y-283160D01*
X2184174Y-297446D01*
X2198460Y-326017D01*
X2198460Y-411731D01*
X2184174Y-440303D01*
X2169889Y-454589D01*
X2141317Y-468874D01*
X2084174Y-468874D01*
X2055603Y-454589D01*
X2327031Y-440303D02*
X2341317Y-454589D01*
X2327031Y-468874D01*
X2312746Y-454589D01*
X2327031Y-440303D01*
X2327031Y-468874D01*
X2327031Y-283160D02*
X2341317Y-297446D01*
X2327031Y-311732D01*
X2312746Y-297446D01*
X2327031Y-283160D01*
X2327031Y-311732D01*
X-92980Y-917440D02*
X-1540Y-1008880D01*
X-1540Y-917440D02*
X-92980Y-1008880D01*
X327031Y-798874D02*
X355603Y-798874D01*
X384174Y-813160D01*
X398460Y-827446D01*
X412746Y-856017D01*
X427031Y-913160D01*
X427031Y-984589D01*
X412746Y-1041731D01*
X398460Y-1070303D01*
X384174Y-1084589D01*
X355603Y-1098874D01*
X327031Y-1098874D01*
X298460Y-1084589D01*
X284174Y-1070303D01*
X269889Y-1041731D01*
X255603Y-984589D01*
X255603Y-913160D01*
X269889Y-856017D01*
X284174Y-827446D01*
X298460Y-813160D01*
X327031Y-798874D01*
X555603Y-1070303D02*
X569889Y-1084589D01*
X555603Y-1098874D01*
X541317Y-1084589D01*
X555603Y-1070303D01*
X555603Y-1098874D01*
X712746Y-1098874D02*
X769888Y-1098874D01*
X798460Y-1084589D01*
X812746Y-1070303D01*
X841317Y-1027446D01*
X855603Y-970303D01*
X855603Y-856017D01*
X841317Y-827446D01*
X827031Y-813160D01*
X798460Y-798874D01*
X741317Y-798874D01*
X712746Y-813160D01*
X698460Y-827446D01*
X684174Y-856017D01*
X684174Y-927446D01*
X698460Y-956017D01*
X712746Y-970303D01*
X741317Y-984589D01*
X798460Y-984589D01*
X827031Y-970303D01*
X841317Y-956017D01*
X855603Y-927446D01*
X1141317Y-1098874D02*
X969888Y-1098874D01*
X1055603Y-1098874D02*
X1055603Y-798874D01*
X1027031Y-841731D01*
X998460Y-870303D01*
X969888Y-884589D01*
X1269889Y-1098874D02*
X1269889Y-898874D01*
X1269889Y-927446D02*
X1284174Y-913160D01*
X1312746Y-898874D01*
X1355603Y-898874D01*
X1384174Y-913160D01*
X1398460Y-941731D01*
X1398460Y-1098874D01*
X1398460Y-941731D02*
X1412746Y-913160D01*
X1441317Y-898874D01*
X1484174Y-898874D01*
X1512746Y-913160D01*
X1527031Y-941731D01*
X1527031Y-1098874D01*
X1669888Y-1098874D02*
X1669888Y-898874D01*
X1669888Y-927446D02*
X1684174Y-913160D01*
X1712746Y-898874D01*
X1755603Y-898874D01*
X1784174Y-913160D01*
X1798460Y-941731D01*
X1798460Y-1098874D01*
X1798460Y-941731D02*
X1812746Y-913160D01*
X1841317Y-898874D01*
X1884174Y-898874D01*
X1912746Y-913160D01*
X1927031Y-941731D01*
X1927031Y-1098874D01*
X2512746Y-784589D02*
X2255603Y-1170303D01*
X2898460Y-798874D02*
X2927031Y-798874D01*
X2955603Y-813160D01*
X2969888Y-827446D01*
X2984174Y-856017D01*
X2998460Y-913160D01*
X2998460Y-984589D01*
X2984174Y-1041731D01*
X2969888Y-1070303D01*
X2955603Y-1084589D01*
X2927031Y-1098874D01*
X2898460Y-1098874D01*
X2869888Y-1084589D01*
X2855603Y-1070303D01*
X2841317Y-1041731D01*
X2827031Y-984589D01*
X2827031Y-913160D01*
X2841317Y-856017D01*
X2855603Y-827446D01*
X2869888Y-813160D01*
X2898460Y-798874D01*
X3127031Y-1070303D02*
X3141317Y-1084589D01*
X3127031Y-1098874D01*
X3112746Y-1084589D01*
X3127031Y-1070303D01*
X3127031Y-1098874D01*
X3327031Y-798874D02*
X3355603Y-798874D01*
X3384174Y-813160D01*
X3398460Y-827446D01*
X3412745Y-856017D01*
X3427031Y-913160D01*
X3427031Y-984589D01*
X3412745Y-1041731D01*
X3398460Y-1070303D01*
X3384174Y-1084589D01*
X3355603Y-1098874D01*
X3327031Y-1098874D01*
X3298460Y-1084589D01*
X3284174Y-1070303D01*
X3269888Y-1041731D01*
X3255603Y-984589D01*
X3255603Y-913160D01*
X3269888Y-856017D01*
X3284174Y-827446D01*
X3298460Y-813160D01*
X3327031Y-798874D01*
X3527031Y-798874D02*
X3712745Y-798874D01*
X3612745Y-913160D01*
X3655603Y-913160D01*
X3684174Y-927446D01*
X3698460Y-941731D01*
X3712745Y-970303D01*
X3712745Y-1041731D01*
X3698460Y-1070303D01*
X3684174Y-1084589D01*
X3655603Y-1098874D01*
X3569888Y-1098874D01*
X3541317Y-1084589D01*
X3527031Y-1070303D01*
X3969888Y-798874D02*
X3912745Y-798874D01*
X3884174Y-813160D01*
X3869888Y-827446D01*
X3841317Y-870303D01*
X3827031Y-927446D01*
X3827031Y-1041731D01*
X3841317Y-1070303D01*
X3855603Y-1084589D01*
X3884174Y-1098874D01*
X3941317Y-1098874D01*
X3969888Y-1084589D01*
X3984174Y-1070303D01*
X3998460Y-1041731D01*
X3998460Y-970303D01*
X3984174Y-941731D01*
X3969888Y-927446D01*
X3941317Y-913160D01*
X3884174Y-913160D01*
X3855603Y-927446D01*
X3841317Y-941731D01*
X3827031Y-970303D01*
X4112746Y-798874D02*
X4112746Y-856017D01*
X4227031Y-798874D02*
X4227031Y-856017D01*
X4669888Y-1213160D02*
X4655603Y-1198874D01*
X4627031Y-1156017D01*
X4612746Y-1127446D01*
X4598460Y-1084589D01*
X4584174Y-1013160D01*
X4584174Y-956017D01*
X4598460Y-884589D01*
X4612746Y-841731D01*
X4627031Y-813160D01*
X4655603Y-770303D01*
X4669888Y-756017D01*
X4769888Y-827446D02*
X4784174Y-813160D01*
X4812746Y-798874D01*
X4884174Y-798874D01*
X4912746Y-813160D01*
X4927031Y-827446D01*
X4941317Y-856017D01*
X4941317Y-884589D01*
X4927031Y-927446D01*
X4755603Y-1098874D01*
X4941317Y-1098874D01*
X5298460Y-1098874D02*
X5298460Y-798874D01*
X5427031Y-1098874D02*
X5427031Y-941731D01*
X5412746Y-913160D01*
X5384174Y-898874D01*
X5341317Y-898874D01*
X5312746Y-913160D01*
X5298460Y-927446D01*
X5612745Y-1098874D02*
X5584174Y-1084589D01*
X5569888Y-1070303D01*
X5555603Y-1041731D01*
X5555603Y-956017D01*
X5569888Y-927446D01*
X5584174Y-913160D01*
X5612745Y-898874D01*
X5655603Y-898874D01*
X5684174Y-913160D01*
X5698460Y-927446D01*
X5712745Y-956017D01*
X5712745Y-1041731D01*
X5698460Y-1070303D01*
X5684174Y-1084589D01*
X5655603Y-1098874D01*
X5612745Y-1098874D01*
X5884174Y-1098874D02*
X5855603Y-1084589D01*
X5841317Y-1056017D01*
X5841317Y-798874D01*
X6112746Y-1084589D02*
X6084174Y-1098874D01*
X6027031Y-1098874D01*
X5998460Y-1084589D01*
X5984174Y-1056017D01*
X5984174Y-941731D01*
X5998460Y-913160D01*
X6027031Y-898874D01*
X6084174Y-898874D01*
X6112746Y-913160D01*
X6127031Y-941731D01*
X6127031Y-970303D01*
X5984174Y-998874D01*
X6241317Y-1084589D02*
X6269888Y-1098874D01*
X6327031Y-1098874D01*
X6355603Y-1084589D01*
X6369888Y-1056017D01*
X6369888Y-1041731D01*
X6355603Y-1013160D01*
X6327031Y-998874D01*
X6284174Y-998874D01*
X6255603Y-984589D01*
X6241317Y-956017D01*
X6241317Y-941731D01*
X6255603Y-913160D01*
X6284174Y-898874D01*
X6327031Y-898874D01*
X6355603Y-913160D01*
X6469888Y-1213160D02*
X6484174Y-1198874D01*
X6512746Y-1156017D01*
X6527031Y-1127446D01*
X6541317Y-1084589D01*
X6555603Y-1013160D01*
X6555603Y-956017D01*
X6541317Y-884589D01*
X6527031Y-841731D01*
X6512746Y-813160D01*
X6484174Y-770303D01*
X6469888Y-756017D01*
X7012746Y-1213160D02*
X6998460Y-1198874D01*
X6969888Y-1156017D01*
X6955603Y-1127446D01*
X6941317Y-1084589D01*
X6927031Y-1013160D01*
X6927031Y-956017D01*
X6941317Y-884589D01*
X6955603Y-841731D01*
X6969888Y-813160D01*
X6998460Y-770303D01*
X7012746Y-756017D01*
X7127031Y-898874D02*
X7127031Y-1098874D01*
X7127031Y-927446D02*
X7141317Y-913160D01*
X7169888Y-898874D01*
X7212746Y-898874D01*
X7241317Y-913160D01*
X7255603Y-941731D01*
X7255603Y-1098874D01*
X7441317Y-1098874D02*
X7412746Y-1084589D01*
X7398460Y-1070303D01*
X7384174Y-1041731D01*
X7384174Y-956017D01*
X7398460Y-927446D01*
X7412746Y-913160D01*
X7441317Y-898874D01*
X7484174Y-898874D01*
X7512746Y-913160D01*
X7527031Y-927446D01*
X7541317Y-956017D01*
X7541317Y-1041731D01*
X7527031Y-1070303D01*
X7512746Y-1084589D01*
X7484174Y-1098874D01*
X7441317Y-1098874D01*
X7627031Y-898874D02*
X7741317Y-898874D01*
X7669888Y-798874D02*
X7669888Y-1056017D01*
X7684174Y-1084589D01*
X7712746Y-1098874D01*
X7741317Y-1098874D01*
X8069888Y-898874D02*
X8069888Y-1198874D01*
X8069888Y-913160D02*
X8098460Y-898874D01*
X8155603Y-898874D01*
X8184174Y-913160D01*
X8198460Y-927446D01*
X8212746Y-956017D01*
X8212746Y-1041731D01*
X8198460Y-1070303D01*
X8184174Y-1084589D01*
X8155603Y-1098874D01*
X8098460Y-1098874D01*
X8069888Y-1084589D01*
X8384174Y-1098874D02*
X8355603Y-1084589D01*
X8341317Y-1056017D01*
X8341317Y-798874D01*
X8627031Y-1098874D02*
X8627031Y-941731D01*
X8612746Y-913160D01*
X8584174Y-898874D01*
X8527031Y-898874D01*
X8498460Y-913160D01*
X8627031Y-1084589D02*
X8598460Y-1098874D01*
X8527031Y-1098874D01*
X8498460Y-1084589D01*
X8484174Y-1056017D01*
X8484174Y-1027446D01*
X8498460Y-998874D01*
X8527031Y-984589D01*
X8598460Y-984589D01*
X8627031Y-970303D01*
X8727031Y-898874D02*
X8841317Y-898874D01*
X8769889Y-798874D02*
X8769889Y-1056017D01*
X8784174Y-1084589D01*
X8812746Y-1098874D01*
X8841317Y-1098874D01*
X9055603Y-1084589D02*
X9027032Y-1098874D01*
X8969889Y-1098874D01*
X8941317Y-1084589D01*
X8927032Y-1056017D01*
X8927032Y-941731D01*
X8941317Y-913160D01*
X8969889Y-898874D01*
X9027032Y-898874D01*
X9055603Y-913160D01*
X9069889Y-941731D01*
X9069889Y-970303D01*
X8927032Y-998874D01*
X9327032Y-1098874D02*
X9327032Y-798874D01*
X9327032Y-1084589D02*
X9298460Y-1098874D01*
X9241317Y-1098874D01*
X9212746Y-1084589D01*
X9198460Y-1070303D01*
X9184174Y-1041731D01*
X9184174Y-956017D01*
X9198460Y-927446D01*
X9212746Y-913160D01*
X9241317Y-898874D01*
X9298460Y-898874D01*
X9327032Y-913160D01*
X9441317Y-1213160D02*
X9455603Y-1198874D01*
X9484174Y-1156017D01*
X9498460Y-1127446D01*
X9512746Y-1084589D01*
X9527032Y-1013160D01*
X9527032Y-956017D01*
X9512746Y-884589D01*
X9498460Y-841731D01*
X9484174Y-813160D01*
X9455603Y-770303D01*
X9441317Y-756017D01*
X-1540Y-1359160D02*
G75*
G03X-1540Y-1359160I-180000J0D01*
G01*
X241317Y-1194874D02*
X427031Y-1194874D01*
X327031Y-1309160D01*
X369888Y-1309160D01*
X398460Y-1323446D01*
X412746Y-1337732D01*
X427031Y-1366303D01*
X427031Y-1437731D01*
X412746Y-1466303D01*
X398460Y-1480589D01*
X369888Y-1494874D01*
X284174Y-1494874D01*
X255603Y-1480589D01*
X241317Y-1466303D01*
X555603Y-1466303D02*
X569889Y-1480589D01*
X555603Y-1494874D01*
X541317Y-1480589D01*
X555603Y-1466303D01*
X555603Y-1494874D01*
X827031Y-1194874D02*
X769888Y-1194874D01*
X741317Y-1209160D01*
X727031Y-1223446D01*
X698460Y-1266303D01*
X684174Y-1323446D01*
X684174Y-1437731D01*
X698460Y-1466303D01*
X712746Y-1480589D01*
X741317Y-1494874D01*
X798460Y-1494874D01*
X827031Y-1480589D01*
X841317Y-1466303D01*
X855603Y-1437731D01*
X855603Y-1366303D01*
X841317Y-1337732D01*
X827031Y-1323446D01*
X798460Y-1309160D01*
X741317Y-1309160D01*
X712746Y-1323446D01*
X698460Y-1337732D01*
X684174Y-1366303D01*
X1041317Y-1194874D02*
X1069889Y-1194874D01*
X1098460Y-1209160D01*
X1112746Y-1223446D01*
X1127031Y-1252017D01*
X1141317Y-1309160D01*
X1141317Y-1380589D01*
X1127031Y-1437731D01*
X1112746Y-1466303D01*
X1098460Y-1480589D01*
X1069889Y-1494874D01*
X1041317Y-1494874D01*
X1012746Y-1480589D01*
X998460Y-1466303D01*
X984174Y-1437731D01*
X969888Y-1380589D01*
X969888Y-1309160D01*
X984174Y-1252017D01*
X998460Y-1223446D01*
X1012746Y-1209160D01*
X1041317Y-1194874D01*
X1269889Y-1494874D02*
X1269889Y-1294874D01*
X1269889Y-1323446D02*
X1284174Y-1309160D01*
X1312746Y-1294874D01*
X1355603Y-1294874D01*
X1384174Y-1309160D01*
X1398460Y-1337732D01*
X1398460Y-1494874D01*
X1398460Y-1337732D02*
X1412746Y-1309160D01*
X1441317Y-1294874D01*
X1484174Y-1294874D01*
X1512746Y-1309160D01*
X1527031Y-1337732D01*
X1527031Y-1494874D01*
X1669888Y-1494874D02*
X1669888Y-1294874D01*
X1669888Y-1323446D02*
X1684174Y-1309160D01*
X1712746Y-1294874D01*
X1755603Y-1294874D01*
X1784174Y-1309160D01*
X1798460Y-1337732D01*
X1798460Y-1494874D01*
X1798460Y-1337732D02*
X1812746Y-1309160D01*
X1841317Y-1294874D01*
X1884174Y-1294874D01*
X1912746Y-1309160D01*
X1927031Y-1337732D01*
X1927031Y-1494874D01*
X2512746Y-1180589D02*
X2255603Y-1566303D01*
X2898460Y-1194874D02*
X2927031Y-1194874D01*
X2955603Y-1209160D01*
X2969888Y-1223446D01*
X2984174Y-1252017D01*
X2998460Y-1309160D01*
X2998460Y-1380589D01*
X2984174Y-1437731D01*
X2969888Y-1466303D01*
X2955603Y-1480589D01*
X2927031Y-1494874D01*
X2898460Y-1494874D01*
X2869888Y-1480589D01*
X2855603Y-1466303D01*
X2841317Y-1437731D01*
X2827031Y-1380589D01*
X2827031Y-1309160D01*
X2841317Y-1252017D01*
X2855603Y-1223446D01*
X2869888Y-1209160D01*
X2898460Y-1194874D01*
X3127031Y-1466303D02*
X3141317Y-1480589D01*
X3127031Y-1494874D01*
X3112746Y-1480589D01*
X3127031Y-1466303D01*
X3127031Y-1494874D01*
X3427031Y-1494874D02*
X3255603Y-1494874D01*
X3341317Y-1494874D02*
X3341317Y-1194874D01*
X3312745Y-1237732D01*
X3284174Y-1266303D01*
X3255603Y-1280589D01*
X3684174Y-1294874D02*
X3684174Y-1494874D01*
X3612745Y-1180589D02*
X3541317Y-1394874D01*
X3727031Y-1394874D01*
X3827031Y-1223446D02*
X3841317Y-1209160D01*
X3869888Y-1194874D01*
X3941317Y-1194874D01*
X3969888Y-1209160D01*
X3984174Y-1223446D01*
X3998460Y-1252017D01*
X3998460Y-1280589D01*
X3984174Y-1323446D01*
X3812745Y-1494874D01*
X3998460Y-1494874D01*
X4112746Y-1194874D02*
X4112746Y-1252017D01*
X4227031Y-1194874D02*
X4227031Y-1252017D01*
X4669888Y-1609160D02*
X4655603Y-1594874D01*
X4627031Y-1552017D01*
X4612746Y-1523446D01*
X4598460Y-1480589D01*
X4584174Y-1409160D01*
X4584174Y-1352017D01*
X4598460Y-1280589D01*
X4612746Y-1237732D01*
X4627031Y-1209160D01*
X4655603Y-1166303D01*
X4669888Y-1152017D01*
X4941317Y-1494874D02*
X4769888Y-1494874D01*
X4855603Y-1494874D02*
X4855603Y-1194874D01*
X4827031Y-1237732D01*
X4798460Y-1266303D01*
X4769888Y-1280589D01*
X5298460Y-1494874D02*
X5298460Y-1194874D01*
X5427031Y-1494874D02*
X5427031Y-1337732D01*
X5412746Y-1309160D01*
X5384174Y-1294874D01*
X5341317Y-1294874D01*
X5312746Y-1309160D01*
X5298460Y-1323446D01*
X5612745Y-1494874D02*
X5584174Y-1480589D01*
X5569888Y-1466303D01*
X5555603Y-1437731D01*
X5555603Y-1352017D01*
X5569888Y-1323446D01*
X5584174Y-1309160D01*
X5612745Y-1294874D01*
X5655603Y-1294874D01*
X5684174Y-1309160D01*
X5698460Y-1323446D01*
X5712745Y-1352017D01*
X5712745Y-1437731D01*
X5698460Y-1466303D01*
X5684174Y-1480589D01*
X5655603Y-1494874D01*
X5612745Y-1494874D01*
X5884174Y-1494874D02*
X5855603Y-1480589D01*
X5841317Y-1452017D01*
X5841317Y-1194874D01*
X6112746Y-1480589D02*
X6084174Y-1494874D01*
X6027031Y-1494874D01*
X5998460Y-1480589D01*
X5984174Y-1452017D01*
X5984174Y-1337732D01*
X5998460Y-1309160D01*
X6027031Y-1294874D01*
X6084174Y-1294874D01*
X6112746Y-1309160D01*
X6127031Y-1337732D01*
X6127031Y-1366303D01*
X5984174Y-1394874D01*
X6227031Y-1609160D02*
X6241317Y-1594874D01*
X6269888Y-1552017D01*
X6284174Y-1523446D01*
X6298460Y-1480589D01*
X6312746Y-1409160D01*
X6312746Y-1352017D01*
X6298460Y-1280589D01*
X6284174Y-1237732D01*
X6269888Y-1209160D01*
X6241317Y-1166303D01*
X6227031Y-1152017D01*
X6769888Y-1609160D02*
X6755603Y-1594874D01*
X6727031Y-1552017D01*
X6712746Y-1523446D01*
X6698460Y-1480589D01*
X6684174Y-1409160D01*
X6684174Y-1352017D01*
X6698460Y-1280589D01*
X6712746Y-1237732D01*
X6727031Y-1209160D01*
X6755603Y-1166303D01*
X6769888Y-1152017D01*
X6884174Y-1294874D02*
X6884174Y-1494874D01*
X6884174Y-1323446D02*
X6898460Y-1309160D01*
X6927031Y-1294874D01*
X6969888Y-1294874D01*
X6998460Y-1309160D01*
X7012746Y-1337732D01*
X7012746Y-1494874D01*
X7198460Y-1494874D02*
X7169888Y-1480589D01*
X7155603Y-1466303D01*
X7141317Y-1437731D01*
X7141317Y-1352017D01*
X7155603Y-1323446D01*
X7169888Y-1309160D01*
X7198460Y-1294874D01*
X7241317Y-1294874D01*
X7269888Y-1309160D01*
X7284174Y-1323446D01*
X7298460Y-1352017D01*
X7298460Y-1437731D01*
X7284174Y-1466303D01*
X7269888Y-1480589D01*
X7241317Y-1494874D01*
X7198460Y-1494874D01*
X7384174Y-1294874D02*
X7498460Y-1294874D01*
X7427031Y-1194874D02*
X7427031Y-1452017D01*
X7441317Y-1480589D01*
X7469888Y-1494874D01*
X7498460Y-1494874D01*
X7827031Y-1294874D02*
X7827031Y-1594874D01*
X7827031Y-1309160D02*
X7855603Y-1294874D01*
X7912746Y-1294874D01*
X7941317Y-1309160D01*
X7955603Y-1323446D01*
X7969888Y-1352017D01*
X7969888Y-1437731D01*
X7955603Y-1466303D01*
X7941317Y-1480589D01*
X7912746Y-1494874D01*
X7855603Y-1494874D01*
X7827031Y-1480589D01*
X8141317Y-1494874D02*
X8112746Y-1480589D01*
X8098460Y-1452017D01*
X8098460Y-1194874D01*
X8384174Y-1494874D02*
X8384174Y-1337732D01*
X8369889Y-1309160D01*
X8341317Y-1294874D01*
X8284174Y-1294874D01*
X8255603Y-1309160D01*
X8384174Y-1480589D02*
X8355603Y-1494874D01*
X8284174Y-1494874D01*
X8255603Y-1480589D01*
X8241317Y-1452017D01*
X8241317Y-1423446D01*
X8255603Y-1394874D01*
X8284174Y-1380589D01*
X8355603Y-1380589D01*
X8384174Y-1366303D01*
X8484174Y-1294874D02*
X8598460Y-1294874D01*
X8527032Y-1194874D02*
X8527032Y-1452017D01*
X8541317Y-1480589D01*
X8569889Y-1494874D01*
X8598460Y-1494874D01*
X8812746Y-1480589D02*
X8784174Y-1494874D01*
X8727032Y-1494874D01*
X8698460Y-1480589D01*
X8684174Y-1452017D01*
X8684174Y-1337732D01*
X8698460Y-1309160D01*
X8727032Y-1294874D01*
X8784174Y-1294874D01*
X8812746Y-1309160D01*
X8827032Y-1337732D01*
X8827032Y-1366303D01*
X8684174Y-1394874D01*
X9084174Y-1494874D02*
X9084174Y-1194874D01*
X9084174Y-1480589D02*
X9055603Y-1494874D01*
X8998460Y-1494874D01*
X8969889Y-1480589D01*
X8955603Y-1466303D01*
X8941317Y-1437731D01*
X8941317Y-1352017D01*
X8955603Y-1323446D01*
X8969889Y-1309160D01*
X8998460Y-1294874D01*
X9055603Y-1294874D01*
X9084174Y-1309160D01*
X9198460Y-1609160D02*
X9212746Y-1594874D01*
X9241317Y-1552017D01*
X9255603Y-1523446D01*
X9269889Y-1480589D01*
X9284174Y-1409160D01*
X9284174Y-1352017D01*
X9269889Y-1280589D01*
X9255603Y-1237732D01*
X9241317Y-1209160D01*
X9212746Y-1166303D01*
X9198460Y-1152017D01*
M02*
